<?xml version="1.0" encoding="UTF-8" standalone="no"?>
<svg
   xmlns:ns7="http://www.iki.fi/pav/software/textext/"
   xmlns:dc="http://purl.org/dc/elements/1.1/"
   xmlns:cc="http://creativecommons.org/ns#"
   xmlns:rdf="http://www.w3.org/1999/02/22-rdf-syntax-ns#"
   xmlns:svg="http://www.w3.org/2000/svg"
   xmlns="http://www.w3.org/2000/svg"
   xmlns:sodipodi="http://sodipodi.sourceforge.net/DTD/sodipodi-0.dtd"
   xmlns:inkscape="http://www.inkscape.org/namespaces/inkscape"
   width="169.64772pt"
   height="148.308411pt"
   viewBox="0 0 169.64772 148.308411"
   version="1.2"
   id="svg30867"
   sodipodi:docname="sinc_10.svg"
   inkscape:version="1.0.2 (e86c8708, 2021-01-15)">
  <metadata
     id="metadata30871">
    <rdf:RDF>
      <cc:Work
         rdf:about="">
        <dc:format>image/svg+xml</dc:format>
        <dc:type
           rdf:resource="http://purl.org/dc/dcmitype/StillImage" />
        <dc:title></dc:title>
      </cc:Work>
    </rdf:RDF>
  </metadata>
  <sodipodi:namedview
     pagecolor="#ffffff"
     bordercolor="#666666"
     borderopacity="1"
     objecttolerance="10"
     gridtolerance="10"
     guidetolerance="10"
     inkscape:pageopacity="0"
     inkscape:pageshadow="2"
     inkscape:window-width="640"
     inkscape:window-height="480"
     id="namedview30869"
     showgrid="false"
     inkscape:zoom="1.7931324"
     inkscape:cx="182.25121"
     inkscape:cy="111.14131"
     inkscape:current-layer="svg30867" />
  <defs
     id="defs30816">
    <clipPath
       id="clip1">
      <path
         d="M 15 23 L 169.648438 23 L 169.648438 121 L 15 121 Z M 15 23 "
         id="path30804" />
    </clipPath>
    <clipPath
       id="clip2">
      <path
         d="M 15 4 L 169.648438 4 L 169.648438 131 L 15 131 Z M 15 4 "
         id="path30807" />
    </clipPath>
    <clipPath
       id="clip3">
      <path
         d="M 59 138 L 64 138 L 64 148.308594 L 59 148.308594 Z M 59 138 "
         id="path30810" />
    </clipPath>
    <clipPath
       id="clip4">
      <path
         d="M 125 138 L 130 138 L 130 148.308594 L 125 148.308594 Z M 125 138 "
         id="path30813" />
    </clipPath>
    <marker
       style="overflow:visible"
       id="marker24909"
       refX="0"
       refY="0"
       orient="auto"
       inkscape:stockid="Arrow2Lend"
       inkscape:isstock="true">
      <path
         transform="matrix(-1.1,0,0,-1.1,-1.1,0)"
         d="M 8.7185878,4.0337352 -2.2072895,0.01601326 8.7185884,-4.0017078 c -1.7454984,2.3720609 -1.7354408,5.6174519 -6e-7,8.035443 z"
         style="fill:#000000;fill-opacity:1;fill-rule:evenodd;stroke:#000000;stroke-width:0.625;stroke-linejoin:round;stroke-opacity:1"
         id="path24907" />
    </marker>
    <inkscape:path-effect
       effect="bspline"
       id="path-effect24899"
       is_visible="true"
       lpeversion="1"
       weight="33.333333"
       steps="2"
       helper_size="0"
       apply_no_weight="true"
       apply_with_weight="true"
       only_selected="false" />
    <g
       id="g30640">
      <symbol
         overflow="visible"
         id="symbol30634">
        <path
           style="stroke:none"
           d=""
           id="path30632" />
      </symbol>
      <symbol
         overflow="visible"
         id="symbol30638">
        <path
           style="stroke:none"
           d="m 4.8125,-6.65625 c 0,-0.046875 0.015625,-0.109375 0.015625,-0.15625 0,-0.09375 -0.0625,-0.109375 -0.109375,-0.109375 -0.109375,0 -0.109375,0.03125 -0.15625,0.203125 L 2.90625,-0.125 c -0.75,-0.09375 -1.125,-0.46875 -1.125,-1.125 0,-0.203125 0,-0.453125 0.53125,-1.84375 0.046875,-0.125 0.109375,-0.296875 0.109375,-0.5 0,-0.4375 -0.3125,-0.8125 -0.8125,-0.8125 -0.953125,0 -1.3125,1.453125 -1.3125,1.53125 0,0.109375 0.09375,0.109375 0.109375,0.109375 0.109375,0 0.109375,-0.03125 0.15625,-0.1875 0.28125,-0.9375 0.671875,-1.234375 1.015625,-1.234375 0.078125,0 0.25,0 0.25,0.3125 0,0.265625 -0.109375,0.515625 -0.234375,0.859375 C 1.109375,-1.75 1.109375,-1.5 1.109375,-1.328125 1.109375,-0.375 1.890625,0.03125 2.84375,0.09375 2.765625,0.453125 2.765625,0.46875 2.625,1 2.609375,1.109375 2.40625,1.90625 2.40625,1.9375 c 0,0.015625 0,0.109375 0.109375,0.109375 0.03125,0 0.078125,0 0.09375,-0.046875 0.03125,-0.015625 0.09375,-0.265625 0.125,-0.40625 l 0.375,-1.484375 c 0.375,0 1.25,0 2.1875,-1.0625 0.40625,-0.46875 0.609375,-0.90625 0.71875,-1.203125 0.09375,-0.25 0.3125,-1.109375 0.3125,-1.546875 0,-0.5625 -0.265625,-0.703125 -0.4375,-0.703125 -0.25,0 -0.5,0.265625 -0.5,0.484375 0,0.125 0.0625,0.1875 0.15625,0.265625 0.109375,0.109375 0.359375,0.359375 0.359375,0.84375 0,0.640625 -0.515625,1.453125 -0.875,1.8125 -0.875,0.890625 -1.515625,0.890625 -1.875,0.890625 z m 0,0"
           id="path30636" />
      </symbol>
    </g>
  </defs>
  <g
     id="surface1856323">
    <path
       style="fill:none;stroke-width:0.19925;stroke-linecap:butt;stroke-linejoin:miter;stroke:rgb(49.803162%,49.803162%,49.803162%);stroke-opacity:1;stroke-miterlimit:10;"
       d="M 28.660156 -134.816406 L 28.660156 -130.566406 M 60.65625 -134.816406 L 60.65625 -130.566406 M 92.65625 -134.816406 L 92.65625 -130.566406 M 124.652344 -134.816406 L 124.652344 -130.566406 M 156.652344 -134.816406 L 156.652344 -130.566406 M 28.660156 0 L 28.660156 -4.25 M 60.65625 0 L 60.65625 -4.25 M 92.65625 0 L 92.65625 -4.25 M 124.652344 0 L 124.652344 -4.25 M 156.652344 0 L 156.652344 -4.25 "
       transform="matrix(1,0,0,-1,0,0)"
       id="path30818" />
    <g
       clip-path="url(#clip1)"
       clip-rule="nonzero"
       id="g30822">
      <path
         style="fill:none;stroke-width:0.19925;stroke-linecap:butt;stroke-linejoin:miter;stroke:rgb(49.803162%,49.803162%,49.803162%);stroke-opacity:1;stroke-miterlimit:10;"
         d="M 15.859375 -120.039062 L 20.113281 -120.039062 M 15.859375 -71.644531 L 20.113281 -71.644531 M 15.859375 -23.246094 L 20.113281 -23.246094 M 169.449219 -120.039062 L 165.199219 -120.039062 M 169.449219 -71.644531 L 165.199219 -71.644531 M 169.449219 -23.246094 L 165.199219 -23.246094 "
         transform="matrix(1,0,0,-1,0,0)"
         id="path30820" />
    </g>
    <g
       clip-path="url(#clip2)"
       clip-rule="nonzero"
       id="g30826">
      <path
         style="fill:none;stroke-width:0.3985;stroke-linecap:butt;stroke-linejoin:miter;stroke:rgb(0%,0%,0%);stroke-opacity:1;stroke-miterlimit:10;"
         d="M 15.859375 -4.25 L 169.449219 -4.25 L 169.449219 -130.566406 L 15.859375 -130.566406 Z M 15.859375 -4.25 "
         transform="matrix(1,0,0,-1,0,0)"
         id="path30824" />
    </g>
    <path
       style=" stroke:none;fill-rule:nonzero;fill:rgb(0%,0%,0%);fill-opacity:1;"
       d="M 30.746094 141.570312 C 30.746094 140.773438 30.699219 139.976562 30.355469 139.242188 C 29.902344 138.273438 29.074219 138.117188 28.667969 138.117188 C 28.058594 138.117188 27.339844 138.382812 26.917969 139.304688 C 26.605469 139.992188 26.558594 140.773438 26.558594 141.570312 C 26.558594 142.320312 26.589844 143.210938 27.011719 143.976562 C 27.433594 144.773438 28.167969 144.976562 28.652344 144.976562 C 29.183594 144.976562 29.949219 144.773438 30.386719 143.820312 C 30.699219 143.132812 30.746094 142.351562 30.746094 141.570312 Z M 28.652344 144.757812 C 28.261719 144.757812 27.667969 144.507812 27.496094 143.554688 C 27.386719 142.960938 27.386719 142.039062 27.386719 141.445312 C 27.386719 140.804688 27.386719 140.148438 27.464844 139.617188 C 27.652344 138.429688 28.402344 138.335938 28.652344 138.335938 C 28.980469 138.335938 29.636719 138.523438 29.824219 139.507812 C 29.933594 140.070312 29.933594 140.820312 29.933594 141.445312 C 29.933594 142.195312 29.933594 142.867188 29.824219 143.507812 C 29.667969 144.460938 29.105469 144.757812 28.652344 144.757812 Z M 28.652344 144.757812 "
       id="path30828" />
    <path
       style=" stroke:none;fill-rule:nonzero;fill:rgb(0%,0%,0%);fill-opacity:1;"
       d="M 55.296875 142.089844 L 56.421875 142.089844 C 56.09375 143.558594 56 143.996094 56 144.667969 C 56 144.808594 56 145.074219 56.078125 145.417969 C 56.1875 145.855469 56.296875 145.917969 56.4375 145.917969 C 56.640625 145.917969 56.859375 145.746094 56.859375 145.542969 C 56.859375 145.480469 56.859375 145.464844 56.796875 145.324219 C 56.5 144.605469 56.5 143.949219 56.5 143.667969 C 56.5 143.152344 56.578125 142.605469 56.6875 142.089844 L 57.8125 142.089844 C 57.953125 142.089844 58.3125 142.089844 58.3125 141.746094 C 58.3125 141.511719 58.09375 141.511719 57.90625 141.511719 L 54.5625 141.511719 C 54.34375 141.511719 53.96875 141.511719 53.53125 141.980469 C 53.1875 142.371094 52.921875 142.824219 52.921875 142.871094 C 52.921875 142.886719 52.921875 142.980469 53.046875 142.980469 C 53.125 142.980469 53.140625 142.933594 53.203125 142.855469 C 53.6875 142.089844 54.265625 142.089844 54.46875 142.089844 L 55.03125 142.089844 C 54.71875 143.292969 54.1875 144.496094 53.765625 145.402344 C 53.6875 145.558594 53.6875 145.574219 53.6875 145.652344 C 53.6875 145.839844 53.84375 145.917969 53.96875 145.917969 C 54.265625 145.917969 54.34375 145.636719 54.46875 145.277344 C 54.609375 144.808594 54.609375 144.792969 54.734375 144.292969 Z M 55.296875 142.089844 "
       id="path30830" />
    <g
       clip-path="url(#clip3)"
       clip-rule="nonzero"
       id="g30834">
      <path
         style=" stroke:none;fill-rule:nonzero;fill:rgb(0%,0%,0%);fill-opacity:1;"
         d="M 63.058594 138.714844 C 63.105469 138.574219 63.105469 138.542969 63.105469 138.527344 C 63.105469 138.417969 63.027344 138.324219 62.917969 138.324219 C 62.839844 138.324219 62.777344 138.355469 62.746094 138.417969 L 59.277344 147.917969 C 59.230469 148.058594 59.230469 148.089844 59.230469 148.105469 C 59.230469 148.214844 59.324219 148.308594 59.433594 148.308594 C 59.558594 148.308594 59.589844 148.230469 59.652344 148.058594 Z M 63.058594 138.714844 "
         id="path30832" />
    </g>
    <path
       style=" stroke:none;fill-rule:nonzero;fill:rgb(0%,0%,0%);fill-opacity:1;"
       d="M 64.941406 145.042969 L 66.003906 144.011719 C 67.550781 142.636719 68.144531 142.105469 68.144531 141.105469 C 68.144531 139.964844 67.253906 139.167969 66.035156 139.167969 C 64.910156 139.167969 64.175781 140.089844 64.175781 140.980469 C 64.175781 141.527344 64.675781 141.527344 64.707031 141.527344 C 64.878906 141.527344 65.222656 141.417969 65.222656 140.996094 C 65.222656 140.746094 65.035156 140.480469 64.691406 140.480469 C 64.613281 140.480469 64.597656 140.480469 64.566406 140.496094 C 64.785156 139.839844 65.332031 139.480469 65.910156 139.480469 C 66.816406 139.480469 67.238281 140.292969 67.238281 141.105469 C 67.238281 141.902344 66.753906 142.683594 66.191406 143.308594 L 64.285156 145.433594 C 64.175781 145.542969 64.175781 145.574219 64.175781 145.808594 L 67.878906 145.808594 L 68.144531 144.074219 L 67.910156 144.074219 C 67.847656 144.371094 67.785156 144.808594 67.675781 144.964844 C 67.613281 145.042969 66.957031 145.042969 66.738281 145.042969 Z M 64.941406 145.042969 "
       id="path30836" />
    <path
       style=" stroke:none;fill-rule:nonzero;fill:rgb(0%,0%,0%);fill-opacity:1;"
       d="M 92.277344 138.90625 L 93.402344 138.90625 C 93.074219 140.375 92.980469 140.8125 92.980469 141.484375 C 92.980469 141.625 92.980469 141.890625 93.058594 142.234375 C 93.167969 142.671875 93.277344 142.734375 93.417969 142.734375 C 93.621094 142.734375 93.839844 142.5625 93.839844 142.359375 C 93.839844 142.296875 93.839844 142.28125 93.777344 142.140625 C 93.480469 141.421875 93.480469 140.765625 93.480469 140.484375 C 93.480469 139.96875 93.558594 139.421875 93.667969 138.90625 L 94.792969 138.90625 C 94.933594 138.90625 95.292969 138.90625 95.292969 138.5625 C 95.292969 138.328125 95.074219 138.328125 94.886719 138.328125 L 91.542969 138.328125 C 91.324219 138.328125 90.949219 138.328125 90.511719 138.796875 C 90.167969 139.1875 89.902344 139.640625 89.902344 139.6875 C 89.902344 139.703125 89.902344 139.796875 90.027344 139.796875 C 90.105469 139.796875 90.121094 139.75 90.183594 139.671875 C 90.667969 138.90625 91.246094 138.90625 91.449219 138.90625 L 92.011719 138.90625 C 91.699219 140.109375 91.167969 141.3125 90.746094 142.21875 C 90.667969 142.375 90.667969 142.390625 90.667969 142.46875 C 90.667969 142.65625 90.824219 142.734375 90.949219 142.734375 C 91.246094 142.734375 91.324219 142.453125 91.449219 142.09375 C 91.589844 141.625 91.589844 141.609375 91.714844 141.109375 Z M 92.277344 138.90625 "
       id="path30838" />
    <path
       style=" stroke:none;fill-rule:nonzero;fill:rgb(0%,0%,0%);fill-opacity:1;"
       d="M 117.054688 142.292969 C 117.867188 142.027344 118.445312 141.339844 118.445312 140.542969 C 118.445312 139.730469 117.570312 139.167969 116.617188 139.167969 C 115.617188 139.167969 114.851562 139.761719 114.851562 140.527344 C 114.851562 140.855469 115.070312 141.042969 115.367188 141.042969 C 115.664062 141.042969 115.867188 140.824219 115.867188 140.527344 C 115.867188 140.042969 115.398438 140.042969 115.257812 140.042969 C 115.554688 139.542969 116.210938 139.417969 116.570312 139.417969 C 116.992188 139.417969 117.539062 139.636719 117.539062 140.527344 C 117.539062 140.652344 117.507812 141.230469 117.257812 141.667969 C 116.960938 142.152344 116.617188 142.183594 116.367188 142.183594 C 116.289062 142.199219 116.054688 142.214844 115.976562 142.214844 C 115.898438 142.230469 115.835938 142.246094 115.835938 142.339844 C 115.835938 142.449219 115.898438 142.449219 116.070312 142.449219 L 116.507812 142.449219 C 117.320312 142.449219 117.695312 143.121094 117.695312 144.105469 C 117.695312 145.464844 117.007812 145.746094 116.570312 145.746094 C 116.132812 145.746094 115.382812 145.574219 115.039062 144.996094 C 115.382812 145.042969 115.695312 144.824219 115.695312 144.449219 C 115.695312 144.089844 115.429688 143.886719 115.148438 143.886719 C 114.898438 143.886719 114.585938 144.027344 114.585938 144.464844 C 114.585938 145.371094 115.507812 146.027344 116.601562 146.027344 C 117.820312 146.027344 118.726562 145.121094 118.726562 144.105469 C 118.726562 143.292969 118.085938 142.511719 117.054688 142.292969 Z M 117.054688 142.292969 "
       id="path30840" />
    <path
       style=" stroke:none;fill-rule:nonzero;fill:rgb(0%,0%,0%);fill-opacity:1;"
       d="M 121.785156 142.089844 L 122.910156 142.089844 C 122.582031 143.558594 122.488281 143.996094 122.488281 144.667969 C 122.488281 144.808594 122.488281 145.074219 122.566406 145.417969 C 122.675781 145.855469 122.785156 145.917969 122.925781 145.917969 C 123.128906 145.917969 123.347656 145.746094 123.347656 145.542969 C 123.347656 145.480469 123.347656 145.464844 123.285156 145.324219 C 122.988281 144.605469 122.988281 143.949219 122.988281 143.667969 C 122.988281 143.152344 123.066406 142.605469 123.175781 142.089844 L 124.300781 142.089844 C 124.441406 142.089844 124.800781 142.089844 124.800781 141.746094 C 124.800781 141.511719 124.582031 141.511719 124.394531 141.511719 L 121.050781 141.511719 C 120.832031 141.511719 120.457031 141.511719 120.019531 141.980469 C 119.675781 142.371094 119.410156 142.824219 119.410156 142.871094 C 119.410156 142.886719 119.410156 142.980469 119.535156 142.980469 C 119.613281 142.980469 119.628906 142.933594 119.691406 142.855469 C 120.175781 142.089844 120.753906 142.089844 120.957031 142.089844 L 121.519531 142.089844 C 121.207031 143.292969 120.675781 144.496094 120.253906 145.402344 C 120.175781 145.558594 120.175781 145.574219 120.175781 145.652344 C 120.175781 145.839844 120.332031 145.917969 120.457031 145.917969 C 120.753906 145.917969 120.832031 145.636719 120.957031 145.277344 C 121.097656 144.808594 121.097656 144.792969 121.222656 144.292969 Z M 121.785156 142.089844 "
       id="path30842" />
    <g
       clip-path="url(#clip4)"
       clip-rule="nonzero"
       id="g30846">
      <path
         style=" stroke:none;fill-rule:nonzero;fill:rgb(0%,0%,0%);fill-opacity:1;"
         d="M 129.546875 138.714844 C 129.59375 138.574219 129.59375 138.542969 129.59375 138.527344 C 129.59375 138.417969 129.515625 138.324219 129.40625 138.324219 C 129.328125 138.324219 129.265625 138.355469 129.234375 138.417969 L 125.765625 147.917969 C 125.71875 148.058594 125.71875 148.089844 125.71875 148.105469 C 125.71875 148.214844 125.8125 148.308594 125.921875 148.308594 C 126.046875 148.308594 126.078125 148.230469 126.140625 148.058594 Z M 129.546875 138.714844 "
         id="path30844" />
    </g>
    <path
       style=" stroke:none;fill-rule:nonzero;fill:rgb(0%,0%,0%);fill-opacity:1;"
       d="M 131.429688 145.042969 L 132.492188 144.011719 C 134.039062 142.636719 134.632812 142.105469 134.632812 141.105469 C 134.632812 139.964844 133.742188 139.167969 132.523438 139.167969 C 131.398438 139.167969 130.664062 140.089844 130.664062 140.980469 C 130.664062 141.527344 131.164062 141.527344 131.195312 141.527344 C 131.367188 141.527344 131.710938 141.417969 131.710938 140.996094 C 131.710938 140.746094 131.523438 140.480469 131.179688 140.480469 C 131.101562 140.480469 131.085938 140.480469 131.054688 140.496094 C 131.273438 139.839844 131.820312 139.480469 132.398438 139.480469 C 133.304688 139.480469 133.726562 140.292969 133.726562 141.105469 C 133.726562 141.902344 133.242188 142.683594 132.679688 143.308594 L 130.773438 145.433594 C 130.664062 145.542969 130.664062 145.574219 130.664062 145.808594 L 134.367188 145.808594 L 134.632812 144.074219 L 134.398438 144.074219 C 134.335938 144.371094 134.273438 144.808594 134.164062 144.964844 C 134.101562 145.042969 133.445312 145.042969 133.226562 145.042969 Z M 131.429688 145.042969 "
       id="path30848" />
    <path
       style=" stroke:none;fill-rule:nonzero;fill:rgb(0%,0%,0%);fill-opacity:1;"
       d="M 152.40625 143.992188 L 153.46875 142.960938 C 155.015625 141.585938 155.609375 141.054688 155.609375 140.054688 C 155.609375 138.914062 154.71875 138.117188 153.5 138.117188 C 152.375 138.117188 151.640625 139.039062 151.640625 139.929688 C 151.640625 140.476562 152.140625 140.476562 152.171875 140.476562 C 152.34375 140.476562 152.6875 140.367188 152.6875 139.945312 C 152.6875 139.695312 152.5 139.429688 152.15625 139.429688 C 152.078125 139.429688 152.0625 139.429688 152.03125 139.445312 C 152.25 138.789062 152.796875 138.429688 153.375 138.429688 C 154.28125 138.429688 154.703125 139.242188 154.703125 140.054688 C 154.703125 140.851562 154.21875 141.632812 153.65625 142.257812 L 151.75 144.382812 C 151.640625 144.492188 151.640625 144.523438 151.640625 144.757812 L 155.34375 144.757812 L 155.609375 143.023438 L 155.375 143.023438 C 155.3125 143.320312 155.25 143.757812 155.140625 143.914062 C 155.078125 143.992188 154.421875 143.992188 154.203125 143.992188 Z M 152.40625 143.992188 "
       id="path30850" />
    <path
       style=" stroke:none;fill-rule:nonzero;fill:rgb(0%,0%,0%);fill-opacity:1;"
       d="M 158.765625 141.039062 L 159.890625 141.039062 C 159.5625 142.507812 159.46875 142.945312 159.46875 143.617188 C 159.46875 143.757812 159.46875 144.023438 159.546875 144.367188 C 159.65625 144.804688 159.765625 144.867188 159.90625 144.867188 C 160.109375 144.867188 160.328125 144.695312 160.328125 144.492188 C 160.328125 144.429688 160.328125 144.414062 160.265625 144.273438 C 159.96875 143.554688 159.96875 142.898438 159.96875 142.617188 C 159.96875 142.101562 160.046875 141.554688 160.15625 141.039062 L 161.28125 141.039062 C 161.421875 141.039062 161.78125 141.039062 161.78125 140.695312 C 161.78125 140.460938 161.5625 140.460938 161.375 140.460938 L 158.03125 140.460938 C 157.8125 140.460938 157.4375 140.460938 157 140.929688 C 156.65625 141.320312 156.390625 141.773438 156.390625 141.820312 C 156.390625 141.835938 156.390625 141.929688 156.515625 141.929688 C 156.59375 141.929688 156.609375 141.882812 156.671875 141.804688 C 157.15625 141.039062 157.734375 141.039062 157.9375 141.039062 L 158.5 141.039062 C 158.1875 142.242188 157.65625 143.445312 157.234375 144.351562 C 157.15625 144.507812 157.15625 144.523438 157.15625 144.601562 C 157.15625 144.789062 157.3125 144.867188 157.4375 144.867188 C 157.734375 144.867188 157.8125 144.585938 157.9375 144.226562 C 158.078125 143.757812 158.078125 143.742188 158.203125 143.242188 Z M 158.765625 141.039062 "
       id="path30852" />
    <path
       style=" stroke:none;fill-rule:nonzero;fill:rgb(0%,0%,0%);fill-opacity:1;"
       d="M 11.9375 120.0625 C 11.9375 119.265625 11.890625 118.46875 11.546875 117.734375 C 11.09375 116.765625 10.265625 116.609375 9.859375 116.609375 C 9.25 116.609375 8.53125 116.875 8.109375 117.796875 C 7.796875 118.484375 7.75 119.265625 7.75 120.0625 C 7.75 120.8125 7.78125 121.703125 8.203125 122.46875 C 8.625 123.265625 9.359375 123.46875 9.84375 123.46875 C 10.375 123.46875 11.140625 123.265625 11.578125 122.3125 C 11.890625 121.625 11.9375 120.84375 11.9375 120.0625 Z M 9.84375 123.25 C 9.453125 123.25 8.859375 123 8.6875 122.046875 C 8.578125 121.453125 8.578125 120.53125 8.578125 119.9375 C 8.578125 119.296875 8.578125 118.640625 8.65625 118.109375 C 8.84375 116.921875 9.59375 116.828125 9.84375 116.828125 C 10.171875 116.828125 10.828125 117.015625 11.015625 118 C 11.125 118.5625 11.125 119.3125 11.125 119.9375 C 11.125 120.6875 11.125 121.359375 11.015625 122 C 10.859375 122.953125 10.296875 123.25 9.84375 123.25 Z M 9.84375 123.25 "
       id="path30854" />
    <path
       style=" stroke:none;fill-rule:nonzero;fill:rgb(0%,0%,0%);fill-opacity:1;"
       d="M 4.1875 71.664062 C 4.1875 70.867188 4.140625 70.070312 3.796875 69.335938 C 3.34375 68.367188 2.515625 68.210938 2.109375 68.210938 C 1.5 68.210938 0.78125 68.476562 0.359375 69.398438 C 0.046875 70.085938 0 70.867188 0 71.664062 C 0 72.414062 0.03125 73.304688 0.453125 74.070312 C 0.875 74.867188 1.609375 75.070312 2.09375 75.070312 C 2.625 75.070312 3.390625 74.867188 3.828125 73.914062 C 4.140625 73.226562 4.1875 72.445312 4.1875 71.664062 Z M 2.09375 74.851562 C 1.703125 74.851562 1.109375 74.601562 0.9375 73.648438 C 0.828125 73.054688 0.828125 72.132812 0.828125 71.539062 C 0.828125 70.898438 0.828125 70.242188 0.90625 69.710938 C 1.09375 68.523438 1.84375 68.429688 2.09375 68.429688 C 2.421875 68.429688 3.078125 68.617188 3.265625 69.601562 C 3.375 70.164062 3.375 70.914062 3.375 71.539062 C 3.375 72.289062 3.375 72.960938 3.265625 73.601562 C 3.109375 74.554688 2.546875 74.851562 2.09375 74.851562 Z M 2.09375 74.851562 "
       id="path30856" />
    <path
       style=" stroke:none;fill-rule:nonzero;fill:rgb(0%,0%,0%);fill-opacity:1;"
       d="M 6.496094 74.320312 C 6.496094 74.039062 6.261719 73.789062 5.980469 73.789062 C 5.683594 73.789062 5.449219 74.039062 5.449219 74.320312 C 5.449219 74.617188 5.683594 74.851562 5.980469 74.851562 C 6.261719 74.851562 6.496094 74.617188 6.496094 74.320312 Z M 6.496094 74.320312 "
       id="path30858" />
    <path
       style=" stroke:none;fill-rule:nonzero;fill:rgb(0%,0%,0%);fill-opacity:1;"
       d="M 11.828125 72.851562 C 11.828125 71.664062 11.015625 70.664062 9.9375 70.664062 C 9.46875 70.664062 9.03125 70.820312 8.671875 71.179688 L 8.671875 69.226562 C 8.875 69.289062 9.203125 69.351562 9.515625 69.351562 C 10.75 69.351562 11.453125 68.445312 11.453125 68.320312 C 11.453125 68.257812 11.421875 68.210938 11.34375 68.210938 C 11.34375 68.210938 11.3125 68.210938 11.265625 68.242188 C 11.0625 68.335938 10.578125 68.539062 9.90625 68.539062 C 9.515625 68.539062 9.046875 68.460938 8.578125 68.257812 C 8.5 68.226562 8.484375 68.226562 8.46875 68.226562 C 8.359375 68.226562 8.359375 68.304688 8.359375 68.460938 L 8.359375 71.414062 C 8.359375 71.585938 8.359375 71.664062 8.5 71.664062 C 8.578125 71.664062 8.59375 71.648438 8.640625 71.585938 C 8.75 71.429688 9.109375 70.882812 9.921875 70.882812 C 10.4375 70.882812 10.6875 71.335938 10.765625 71.523438 C 10.921875 71.898438 10.953125 72.273438 10.953125 72.773438 C 10.953125 73.132812 10.953125 73.726562 10.703125 74.148438 C 10.46875 74.539062 10.09375 74.789062 9.640625 74.789062 C 8.921875 74.789062 8.34375 74.257812 8.171875 73.679688 C 8.203125 73.679688 8.234375 73.695312 8.34375 73.695312 C 8.671875 73.695312 8.84375 73.445312 8.84375 73.210938 C 8.84375 72.960938 8.671875 72.710938 8.34375 72.710938 C 8.203125 72.710938 7.859375 72.789062 7.859375 73.242188 C 7.859375 74.101562 8.546875 75.070312 9.65625 75.070312 C 10.8125 75.070312 11.828125 74.117188 11.828125 72.851562 Z M 11.828125 72.851562 "
       id="path30860" />
    <path
       style=" stroke:none;fill-rule:nonzero;fill:rgb(0%,0%,0%);fill-opacity:1;"
       d="M 10.296875 20.082031 C 10.296875 19.832031 10.296875 19.816406 10.0625 19.816406 C 9.4375 20.457031 8.5625 20.457031 8.25 20.457031 L 8.25 20.769531 C 8.453125 20.769531 9.03125 20.769531 9.546875 20.503906 L 9.546875 25.675781 C 9.546875 26.035156 9.515625 26.144531 8.625 26.144531 L 8.3125 26.144531 L 8.3125 26.457031 C 8.65625 26.425781 9.515625 26.425781 9.921875 26.425781 C 10.3125 26.425781 11.1875 26.425781 11.53125 26.457031 L 11.53125 26.144531 L 11.21875 26.144531 C 10.3125 26.144531 10.296875 26.035156 10.296875 25.675781 Z M 10.296875 20.082031 "
       id="path30862" />
    <path
       style="fill:none;stroke-width:0.79725;stroke-linecap:round;stroke-linejoin:miter;stroke:rgb(0%,0%,69.018555%);stroke-opacity:1;stroke-miterlimit:10;"
       d="M 28.789062 -23.339844 C 28.789062 -23.339844 28.867188 -23.378906 28.917969 -23.449219 C 28.96875 -23.519531 29 -23.667969 29.042969 -23.785156 C 29.085938 -23.902344 29.125 -24.003906 29.171875 -24.164062 C 29.214844 -24.324219 29.257812 -24.535156 29.300781 -24.757812 C 29.34375 -24.980469 29.386719 -25.242188 29.429688 -25.496094 C 29.472656 -25.75 29.515625 -25.988281 29.558594 -26.273438 C 29.601562 -26.558594 29.640625 -26.886719 29.683594 -27.21875 C 29.726562 -27.550781 29.769531 -27.898438 29.8125 -28.265625 C 29.855469 -28.632812 29.898438 -29.023438 29.941406 -29.429688 C 29.984375 -29.835938 30.027344 -30.265625 30.070312 -30.710938 C 30.113281 -31.15625 30.15625 -31.621094 30.199219 -32.097656 C 30.242188 -32.578125 30.28125 -33.074219 30.324219 -33.582031 C 30.367188 -34.09375 30.410156 -34.609375 30.453125 -35.15625 C 30.496094 -35.703125 30.539062 -36.277344 30.582031 -36.855469 C 30.625 -37.433594 30.667969 -38.011719 30.710938 -38.617188 C 30.753906 -39.222656 30.796875 -39.855469 30.839844 -40.496094 C 30.882812 -41.136719 30.921875 -41.792969 30.964844 -42.460938 C 31.007812 -43.128906 31.050781 -43.808594 31.09375 -44.503906 C 31.136719 -45.199219 31.179688 -45.90625 31.222656 -46.625 C 31.265625 -47.34375 31.308594 -48.078125 31.351562 -48.820312 C 31.394531 -49.5625 31.4375 -50.320312 31.480469 -51.082031 C 31.523438 -51.847656 31.5625 -52.617188 31.605469 -53.402344 C 31.648438 -54.1875 31.691406 -54.988281 31.734375 -55.789062 C 31.777344 -56.59375 31.820312 -57.402344 31.863281 -58.21875 C 31.90625 -59.039062 31.949219 -59.867188 31.992188 -60.699219 C 32.035156 -61.535156 32.078125 -62.375 32.121094 -63.222656 C 32.164062 -64.070312 32.203125 -64.921875 32.246094 -65.78125 C 32.289062 -66.640625 32.332031 -67.507812 32.375 -68.375 C 32.417969 -69.242188 32.460938 -70.113281 32.503906 -70.988281 C 32.546875 -71.863281 32.589844 -72.746094 32.632812 -73.625 C 32.675781 -74.503906 32.71875 -75.386719 32.761719 -76.269531 C 32.804688 -77.152344 32.84375 -78.035156 32.886719 -78.921875 C 32.929688 -79.808594 32.949219 -80.257812 33.015625 -81.582031 C 33.078125 -82.910156 33.207031 -85.558594 33.273438 -86.878906 C 33.335938 -88.199219 33.359375 -88.636719 33.402344 -89.507812 C 33.445312 -90.382812 33.484375 -91.25 33.527344 -92.117188 C 33.570312 -92.984375 33.613281 -93.851562 33.65625 -94.707031 C 33.699219 -95.566406 33.742188 -96.417969 33.785156 -97.261719 C 33.828125 -98.109375 33.871094 -98.949219 33.914062 -99.78125 C 33.957031 -100.617188 34 -101.445312 34.042969 -102.265625 C 34.085938 -103.085938 34.125 -103.894531 34.167969 -104.699219 C 34.210938 -105.503906 34.253906 -106.304688 34.296875 -107.089844 C 34.339844 -107.878906 34.382812 -108.65625 34.425781 -109.421875 C 34.46875 -110.191406 34.511719 -110.949219 34.554688 -111.695312 C 34.597656 -112.445312 34.640625 -113.183594 34.683594 -113.910156 C 34.726562 -114.636719 34.765625 -115.351562 34.808594 -116.054688 C 34.851562 -116.757812 34.894531 -117.484375 34.9375 -118.132812 C 34.980469 -118.78125 34.441406 -119.941406 35.066406 -119.941406 C 35.691406 -119.941406 35.152344 -118.640625 35.195312 -118.011719 C 35.238281 -117.382812 35.28125 -116.765625 35.324219 -116.164062 C 35.367188 -115.5625 35.40625 -114.972656 35.449219 -114.398438 C 35.492188 -113.824219 35.535156 -113.265625 35.578125 -112.71875 C 35.621094 -112.171875 35.664062 -111.636719 35.707031 -111.121094 C 35.75 -110.605469 35.792969 -110.105469 35.835938 -109.617188 C 35.878906 -109.132812 35.921875 -108.660156 35.964844 -108.203125 C 36.007812 -107.746094 36.046875 -107.304688 36.089844 -106.878906 C 36.132812 -106.453125 36.175781 -106.046875 36.21875 -105.652344 C 36.261719 -105.257812 36.304688 -104.882812 36.347656 -104.519531 C 36.390625 -104.15625 36.433594 -103.8125 36.476562 -103.480469 C 36.519531 -103.148438 36.5625 -102.832031 36.605469 -102.535156 C 36.648438 -102.238281 36.6875 -101.953125 36.730469 -101.6875 C 36.773438 -101.421875 36.816406 -101.171875 36.859375 -100.9375 C 36.902344 -100.703125 36.945312 -100.484375 36.988281 -100.28125 C 37.03125 -100.078125 37.074219 -99.890625 37.117188 -99.71875 C 37.160156 -99.546875 37.203125 -99.394531 37.246094 -99.253906 C 37.289062 -99.113281 37.328125 -98.988281 37.371094 -98.878906 C 37.414062 -98.769531 37.457031 -98.675781 37.5 -98.597656 C 37.542969 -98.519531 37.582031 -98.453125 37.628906 -98.40625 C 37.671875 -98.359375 37.710938 -98.324219 37.757812 -98.304688 C 37.800781 -98.285156 37.839844 -98.28125 37.886719 -98.289062 C 37.929688 -98.296875 37.964844 -98.320312 38.011719 -98.355469 C 38.054688 -98.390625 38.097656 -98.445312 38.140625 -98.507812 C 38.183594 -98.570312 38.226562 -98.648438 38.269531 -98.738281 C 38.3125 -98.828125 38.355469 -98.929688 38.398438 -99.042969 C 38.441406 -99.15625 38.484375 -99.285156 38.527344 -99.425781 C 38.570312 -99.566406 38.609375 -99.71875 38.652344 -99.878906 C 38.695312 -100.039062 38.738281 -100.210938 38.78125 -100.394531 C 38.824219 -100.578125 38.867188 -100.777344 38.910156 -100.980469 C 38.953125 -101.183594 38.996094 -101.402344 39.039062 -101.625 C 39.082031 -101.847656 39.125 -102.082031 39.167969 -102.324219 C 39.210938 -102.566406 39.25 -102.820312 39.292969 -103.078125 C 39.335938 -103.335938 39.378906 -103.605469 39.421875 -103.878906 C 39.464844 -104.15625 39.507812 -104.441406 39.550781 -104.730469 C 39.59375 -105.019531 39.636719 -105.320312 39.679688 -105.621094 C 39.722656 -105.925781 39.765625 -106.234375 39.808594 -106.546875 C 39.851562 -106.863281 39.890625 -107.183594 39.933594 -107.507812 C 39.976562 -107.832031 40.019531 -108.167969 40.0625 -108.5 C 40.105469 -108.835938 40.148438 -109.171875 40.191406 -109.511719 C 40.234375 -109.855469 40.277344 -110.203125 40.320312 -110.550781 C 40.363281 -110.898438 40.402344 -111.25 40.445312 -111.601562 C 40.488281 -111.953125 40.53125 -112.3125 40.574219 -112.667969 C 40.617188 -113.023438 40.636719 -113.203125 40.703125 -113.742188 C 40.765625 -114.28125 40.898438 -115.359375 40.960938 -115.898438 C 41.023438 -116.4375 41.042969 -116.621094 41.085938 -116.976562 C 41.128906 -117.335938 41.171875 -117.6875 41.214844 -118.042969 C 41.257812 -118.398438 41.300781 -118.785156 41.34375 -119.101562 C 41.386719 -119.417969 41.160156 -119.9375 41.472656 -119.933594 C 41.785156 -119.929688 41.558594 -119.25 41.601562 -118.910156 C 41.644531 -118.574219 41.683594 -118.238281 41.726562 -117.90625 C 41.769531 -117.578125 41.8125 -117.25 41.855469 -116.929688 C 41.898438 -116.609375 41.941406 -116.292969 41.984375 -115.980469 C 42.027344 -115.667969 42.070312 -115.363281 42.113281 -115.0625 C 42.15625 -114.761719 42.199219 -114.46875 42.242188 -114.179688 C 42.285156 -113.890625 42.324219 -113.609375 42.367188 -113.332031 C 42.410156 -113.054688 42.453125 -112.785156 42.496094 -112.523438 C 42.539062 -112.261719 42.582031 -112.007812 42.625 -111.757812 C 42.667969 -111.511719 42.710938 -111.269531 42.753906 -111.035156 C 42.796875 -110.800781 42.839844 -110.578125 42.882812 -110.359375 C 42.925781 -110.140625 42.964844 -109.929688 43.007812 -109.730469 C 43.050781 -109.53125 43.09375 -109.335938 43.136719 -109.152344 C 43.179688 -108.96875 43.222656 -108.789062 43.265625 -108.621094 C 43.308594 -108.453125 43.351562 -108.292969 43.394531 -108.144531 C 43.4375 -107.996094 43.480469 -107.855469 43.523438 -107.722656 C 43.566406 -107.589844 43.605469 -107.464844 43.648438 -107.351562 C 43.691406 -107.238281 43.734375 -107.132812 43.777344 -107.035156 C 43.820312 -106.9375 43.863281 -106.851562 43.90625 -106.773438 C 43.949219 -106.695312 43.992188 -106.628906 44.035156 -106.570312 C 44.078125 -106.511719 44.121094 -106.457031 44.164062 -106.417969 C 44.207031 -106.378906 44.246094 -106.347656 44.289062 -106.324219 C 44.332031 -106.300781 44.375 -106.285156 44.417969 -106.28125 C 44.460938 -106.277344 44.503906 -106.285156 44.546875 -106.296875 C 44.589844 -106.308594 44.632812 -106.332031 44.675781 -106.363281 C 44.71875 -106.394531 44.761719 -106.433594 44.804688 -106.480469 C 44.847656 -106.527344 44.886719 -106.582031 44.929688 -106.648438 C 44.972656 -106.714844 45.015625 -106.789062 45.058594 -106.871094 C 45.101562 -106.953125 45.144531 -107.039062 45.1875 -107.136719 C 45.230469 -107.234375 45.273438 -107.339844 45.316406 -107.453125 C 45.359375 -107.566406 45.402344 -107.6875 45.445312 -107.816406 C 45.488281 -107.945312 45.527344 -108.078125 45.570312 -108.21875 C 45.613281 -108.359375 45.65625 -108.507812 45.699219 -108.664062 C 45.742188 -108.820312 45.785156 -108.980469 45.828125 -109.148438 C 45.871094 -109.316406 45.914062 -109.492188 45.957031 -109.671875 C 46 -109.851562 46.042969 -110.039062 46.085938 -110.230469 C 46.128906 -110.421875 46.167969 -110.617188 46.210938 -110.816406 C 46.253906 -111.015625 46.296875 -111.222656 46.339844 -111.433594 C 46.382812 -111.644531 46.425781 -111.863281 46.46875 -112.082031 C 46.511719 -112.300781 46.554688 -112.523438 46.597656 -112.75 C 46.640625 -112.976562 46.683594 -113.207031 46.726562 -113.441406 C 46.769531 -113.675781 46.808594 -113.914062 46.851562 -114.152344 C 46.894531 -114.390625 46.9375 -114.632812 46.980469 -114.875 C 47.023438 -115.117188 47.066406 -115.367188 47.109375 -115.613281 C 47.152344 -115.863281 47.195312 -116.113281 47.238281 -116.363281 C 47.28125 -116.613281 47.324219 -116.863281 47.367188 -117.117188 C 47.410156 -117.371094 47.449219 -117.625 47.492188 -117.878906 C 47.535156 -118.132812 47.578125 -118.382812 47.621094 -118.636719 C 47.664062 -118.890625 47.703125 -119.183594 47.75 -119.398438 C 47.792969 -119.613281 47.660156 -119.933594 47.878906 -119.925781 C 48.09375 -119.917969 47.964844 -119.425781 48.007812 -119.179688 C 48.050781 -118.933594 48.089844 -118.6875 48.132812 -118.441406 C 48.175781 -118.199219 48.21875 -117.953125 48.261719 -117.714844 C 48.304688 -117.476562 48.347656 -117.242188 48.390625 -117.007812 C 48.433594 -116.773438 48.476562 -116.542969 48.519531 -116.316406 C 48.5625 -116.089844 48.605469 -115.863281 48.648438 -115.644531 C 48.691406 -115.425781 48.730469 -115.207031 48.773438 -114.996094 C 48.816406 -114.785156 48.859375 -114.578125 48.902344 -114.375 C 48.945312 -114.171875 48.988281 -113.972656 49.03125 -113.777344 C 49.074219 -113.582031 49.117188 -113.394531 49.160156 -113.210938 C 49.203125 -113.027344 49.246094 -112.847656 49.289062 -112.675781 C 49.332031 -112.503906 49.371094 -112.332031 49.414062 -112.171875 C 49.457031 -112.011719 49.5 -111.855469 49.542969 -111.707031 C 49.585938 -111.558594 49.628906 -111.410156 49.671875 -111.273438 C 49.714844 -111.136719 49.757812 -111.003906 49.800781 -110.878906 C 49.84375 -110.753906 49.886719 -110.636719 49.929688 -110.523438 C 49.972656 -110.410156 50.011719 -110.304688 50.054688 -110.207031 C 50.097656 -110.109375 50.140625 -110.015625 50.183594 -109.929688 C 50.226562 -109.84375 50.269531 -109.765625 50.3125 -109.695312 C 50.355469 -109.625 50.398438 -109.558594 50.441406 -109.503906 C 50.484375 -109.449219 50.527344 -109.398438 50.570312 -109.355469 C 50.613281 -109.3125 50.652344 -109.273438 50.695312 -109.246094 C 50.738281 -109.21875 50.78125 -109.199219 50.824219 -109.183594 C 50.867188 -109.167969 50.910156 -109.160156 50.953125 -109.160156 C 50.996094 -109.160156 51.039062 -109.167969 51.082031 -109.183594 C 51.125 -109.199219 51.167969 -109.21875 51.210938 -109.246094 C 51.253906 -109.273438 51.292969 -109.308594 51.335938 -109.351562 C 51.378906 -109.394531 51.421875 -109.441406 51.464844 -109.496094 C 51.507812 -109.550781 51.550781 -109.613281 51.59375 -109.683594 C 51.636719 -109.753906 51.679688 -109.828125 51.722656 -109.910156 C 51.765625 -109.992188 51.808594 -110.078125 51.851562 -110.171875 C 51.894531 -110.265625 51.933594 -110.367188 51.976562 -110.472656 C 52.019531 -110.578125 52.0625 -110.691406 52.105469 -110.808594 C 52.148438 -110.925781 52.191406 -111.050781 52.234375 -111.179688 C 52.277344 -111.308594 52.320312 -111.441406 52.363281 -111.582031 C 52.40625 -111.722656 52.449219 -111.867188 52.492188 -112.015625 C 52.535156 -112.164062 52.574219 -112.320312 52.617188 -112.480469 C 52.660156 -112.640625 52.703125 -112.800781 52.746094 -112.96875 C 52.789062 -113.136719 52.832031 -113.308594 52.875 -113.484375 C 52.917969 -113.660156 52.960938 -113.839844 53.003906 -114.023438 C 53.046875 -114.207031 53.089844 -114.394531 53.132812 -114.582031 C 53.175781 -114.773438 53.214844 -114.964844 53.257812 -115.160156 C 53.300781 -115.355469 53.34375 -115.554688 53.386719 -115.753906 C 53.429688 -115.953125 53.472656 -116.160156 53.515625 -116.363281 C 53.558594 -116.566406 53.601562 -116.773438 53.644531 -116.980469 C 53.6875 -117.1875 53.730469 -117.398438 53.773438 -117.609375 C 53.816406 -117.820312 53.855469 -118.035156 53.898438 -118.246094 C 53.941406 -118.457031 53.984375 -118.667969 54.027344 -118.882812 C 54.070312 -119.097656 54.109375 -119.355469 54.15625 -119.527344 C 54.199219 -119.699219 54.109375 -119.921875 54.285156 -119.910156 C 54.460938 -119.898438 54.371094 -119.484375 54.414062 -119.273438 C 54.457031 -119.0625 54.496094 -118.851562 54.539062 -118.640625 C 54.582031 -118.429688 54.625 -118.222656 54.667969 -118.015625 C 54.710938 -117.808594 54.753906 -117.605469 54.796875 -117.402344 C 54.839844 -117.199219 54.882812 -117 54.925781 -116.800781 C 54.96875 -116.601562 55.011719 -116.40625 55.054688 -116.214844 C 55.097656 -116.023438 55.136719 -115.832031 55.179688 -115.644531 C 55.222656 -115.457031 55.265625 -115.277344 55.308594 -115.097656 C 55.351562 -114.917969 55.394531 -114.738281 55.4375 -114.566406 C 55.480469 -114.394531 55.523438 -114.226562 55.566406 -114.0625 C 55.609375 -113.898438 55.652344 -113.734375 55.695312 -113.578125 C 55.738281 -113.421875 55.777344 -113.273438 55.820312 -113.125 C 55.863281 -112.980469 55.90625 -112.835938 55.949219 -112.699219 C 55.992188 -112.5625 56.035156 -112.433594 56.078125 -112.304688 C 56.121094 -112.179688 56.164062 -112.054688 56.207031 -111.9375 C 56.25 -111.820312 56.292969 -111.714844 56.335938 -111.609375 C 56.378906 -111.503906 56.417969 -111.402344 56.460938 -111.308594 C 56.503906 -111.214844 56.546875 -111.128906 56.589844 -111.046875 C 56.632812 -110.964844 56.675781 -110.890625 56.71875 -110.820312 C 56.761719 -110.75 56.804688 -110.6875 56.847656 -110.628906 C 56.890625 -110.570312 56.933594 -110.519531 56.976562 -110.476562 C 57.019531 -110.433594 57.058594 -110.390625 57.101562 -110.359375 C 57.144531 -110.328125 57.1875 -110.300781 57.230469 -110.28125 C 57.273438 -110.261719 57.316406 -110.25 57.359375 -110.242188 C 57.402344 -110.234375 57.445312 -110.234375 57.488281 -110.242188 C 57.53125 -110.25 57.574219 -110.261719 57.617188 -110.28125 C 57.660156 -110.300781 57.699219 -110.324219 57.742188 -110.355469 C 57.785156 -110.386719 57.828125 -110.425781 57.871094 -110.46875 C 57.914062 -110.511719 57.957031 -110.5625 58 -110.617188 C 58.042969 -110.671875 58.085938 -110.738281 58.128906 -110.804688 C 58.171875 -110.871094 58.214844 -110.949219 58.257812 -111.027344 C 58.300781 -111.105469 58.339844 -111.195312 58.382812 -111.285156 C 58.425781 -111.375 58.46875 -111.476562 58.511719 -111.578125 C 58.554688 -111.679688 58.597656 -111.789062 58.640625 -111.902344 C 58.683594 -112.015625 58.726562 -112.132812 58.769531 -112.257812 C 58.8125 -112.382812 58.851562 -112.511719 58.894531 -112.644531 C 58.9375 -112.777344 58.980469 -112.917969 59.023438 -113.058594 C 59.066406 -113.203125 59.109375 -113.347656 59.152344 -113.5 C 59.195312 -113.652344 59.238281 -113.808594 59.28125 -113.96875 C 59.324219 -114.128906 59.367188 -114.289062 59.410156 -114.457031 C 59.453125 -114.625 59.492188 -114.796875 59.535156 -114.96875 C 59.578125 -115.144531 59.621094 -115.320312 59.664062 -115.5 C 59.707031 -115.679688 59.75 -115.863281 59.792969 -116.046875 C 59.835938 -116.230469 59.878906 -116.417969 59.921875 -116.609375 C 59.964844 -116.800781 60.007812 -116.992188 60.050781 -117.1875 C 60.09375 -117.382812 60.132812 -117.582031 60.175781 -117.777344 C 60.21875 -117.976562 60.261719 -118.171875 60.304688 -118.371094 C 60.347656 -118.570312 60.390625 -118.769531 60.433594 -118.972656 C 60.476562 -119.175781 60.515625 -119.429688 60.5625 -119.582031 C 60.609375 -119.734375 60.53125 -119.902344 60.691406 -119.886719 C 60.847656 -119.871094 60.753906 -119.578125 60.816406 -119.277344 C 60.878906 -118.976562 61.007812 -118.375 61.074219 -118.074219 C 61.136719 -117.773438 61.160156 -117.675781 61.203125 -117.480469 C 61.246094 -117.285156 61.289062 -117.089844 61.332031 -116.898438 C 61.375 -116.707031 61.414062 -116.515625 61.457031 -116.328125 C 61.5 -116.140625 61.542969 -115.957031 61.585938 -115.773438 C 61.628906 -115.589844 61.671875 -115.410156 61.714844 -115.234375 C 61.757812 -115.058594 61.800781 -114.882812 61.84375 -114.710938 C 61.886719 -114.539062 61.929688 -114.375 61.972656 -114.210938 C 62.015625 -114.046875 62.054688 -113.886719 62.097656 -113.730469 C 62.140625 -113.574219 62.183594 -113.425781 62.226562 -113.277344 C 62.269531 -113.132812 62.3125 -112.988281 62.355469 -112.851562 C 62.398438 -112.714844 62.441406 -112.578125 62.484375 -112.449219 C 62.527344 -112.320312 62.570312 -112.195312 62.613281 -112.078125 C 62.65625 -111.960938 62.695312 -111.847656 62.738281 -111.738281 C 62.78125 -111.628906 62.824219 -111.527344 62.867188 -111.429688 C 62.910156 -111.332031 62.953125 -111.238281 62.996094 -111.152344 C 63.039062 -111.066406 63.082031 -110.988281 63.125 -110.914062 C 63.167969 -110.839844 63.210938 -110.769531 63.253906 -110.707031 C 63.296875 -110.644531 63.335938 -110.589844 63.378906 -110.539062 C 63.421875 -110.488281 63.464844 -110.445312 63.507812 -110.40625 C 63.550781 -110.367188 63.59375 -110.335938 63.636719 -110.3125 C 63.679688 -110.289062 63.722656 -110.269531 63.765625 -110.257812 C 63.808594 -110.246094 63.851562 -110.238281 63.894531 -110.238281 C 63.9375 -110.238281 63.976562 -110.246094 64.019531 -110.257812 C 64.0625 -110.269531 64.105469 -110.292969 64.148438 -110.316406 C 64.191406 -110.339844 64.234375 -110.371094 64.277344 -110.410156 C 64.320312 -110.449219 64.363281 -110.496094 64.40625 -110.546875 C 64.449219 -110.597656 64.492188 -110.65625 64.535156 -110.71875 C 64.578125 -110.78125 64.617188 -110.855469 64.660156 -110.929688 C 64.703125 -111.003906 64.746094 -111.085938 64.789062 -111.171875 C 64.832031 -111.257812 64.875 -111.355469 64.917969 -111.453125 C 64.960938 -111.550781 65.003906 -111.660156 65.046875 -111.769531 C 65.089844 -111.878906 65.132812 -111.996094 65.175781 -112.117188 C 65.21875 -112.238281 65.257812 -112.363281 65.300781 -112.496094 C 65.34375 -112.628906 65.386719 -112.765625 65.429688 -112.90625 C 65.472656 -113.046875 65.515625 -113.195312 65.558594 -113.347656 C 65.601562 -113.5 65.644531 -113.65625 65.6875 -113.816406 C 65.730469 -113.976562 65.773438 -114.140625 65.816406 -114.308594 C 65.859375 -114.476562 65.898438 -114.652344 65.941406 -114.828125 C 65.984375 -115.003906 66.027344 -115.183594 66.070312 -115.367188 C 66.113281 -115.550781 66.15625 -115.738281 66.199219 -115.925781 C 66.242188 -116.117188 66.285156 -116.308594 66.328125 -116.503906 C 66.371094 -116.699219 66.414062 -116.898438 66.457031 -117.097656 C 66.5 -117.296875 66.539062 -117.503906 66.582031 -117.707031 C 66.625 -117.914062 66.667969 -118.121094 66.710938 -118.328125 C 66.753906 -118.535156 66.796875 -118.742188 66.839844 -118.953125 C 66.882812 -119.164062 66.917969 -119.441406 66.96875 -119.589844 C 67.019531 -119.738281 66.941406 -119.867188 67.097656 -119.847656 C 67.253906 -119.828125 67.179688 -119.421875 67.222656 -119.207031 C 67.265625 -118.992188 67.308594 -118.78125 67.351562 -118.566406 C 67.394531 -118.355469 67.4375 -118.140625 67.480469 -117.929688 C 67.523438 -117.71875 67.566406 -117.507812 67.609375 -117.296875 C 67.652344 -117.085938 67.695312 -116.878906 67.738281 -116.671875 C 67.78125 -116.464844 67.820312 -116.261719 67.863281 -116.058594 C 67.90625 -115.855469 67.949219 -115.65625 67.992188 -115.457031 C 68.035156 -115.257812 68.078125 -115.0625 68.121094 -114.871094 C 68.164062 -114.679688 68.207031 -114.488281 68.25 -114.300781 C 68.292969 -114.113281 68.335938 -113.933594 68.378906 -113.753906 C 68.421875 -113.574219 68.460938 -113.398438 68.503906 -113.226562 C 68.546875 -113.054688 68.589844 -112.886719 68.632812 -112.722656 C 68.675781 -112.558594 68.71875 -112.402344 68.761719 -112.246094 C 68.804688 -112.09375 68.847656 -111.941406 68.890625 -111.796875 C 68.933594 -111.652344 68.976562 -111.511719 69.019531 -111.378906 C 69.0625 -111.246094 69.101562 -111.117188 69.144531 -110.992188 C 69.1875 -110.867188 69.230469 -110.75 69.273438 -110.636719 C 69.316406 -110.523438 69.359375 -110.421875 69.402344 -110.320312 C 69.445312 -110.21875 69.488281 -110.125 69.53125 -110.035156 C 69.574219 -109.945312 69.617188 -109.863281 69.660156 -109.789062 C 69.703125 -109.714844 69.742188 -109.648438 69.785156 -109.585938 C 69.828125 -109.523438 69.871094 -109.464844 69.914062 -109.417969 C 69.957031 -109.371094 70 -109.328125 70.042969 -109.292969 C 70.085938 -109.257812 70.128906 -109.226562 70.171875 -109.207031 C 70.214844 -109.1875 70.257812 -109.175781 70.300781 -109.167969 C 70.34375 -109.160156 70.382812 -109.160156 70.425781 -109.167969 C 70.46875 -109.175781 70.511719 -109.191406 70.554688 -109.210938 C 70.597656 -109.230469 70.640625 -109.257812 70.683594 -109.292969 C 70.726562 -109.328125 70.769531 -109.371094 70.8125 -109.421875 C 70.855469 -109.472656 70.898438 -109.53125 70.941406 -109.59375 C 70.984375 -109.65625 71.023438 -109.730469 71.066406 -109.808594 C 71.109375 -109.886719 71.152344 -109.972656 71.195312 -110.0625 C 71.238281 -110.152344 71.28125 -110.253906 71.324219 -110.359375 C 71.367188 -110.464844 71.410156 -110.578125 71.453125 -110.695312 C 71.496094 -110.8125 71.539062 -110.9375 71.582031 -111.070312 C 71.625 -111.203125 71.664062 -111.339844 71.707031 -111.484375 C 71.75 -111.628906 71.792969 -111.777344 71.835938 -111.933594 C 71.878906 -112.089844 71.921875 -112.25 71.964844 -112.417969 C 72.007812 -112.585938 72.050781 -112.757812 72.09375 -112.9375 C 72.136719 -113.117188 72.179688 -113.300781 72.222656 -113.488281 C 72.265625 -113.675781 72.304688 -113.871094 72.347656 -114.070312 C 72.390625 -114.269531 72.433594 -114.472656 72.476562 -114.679688 C 72.519531 -114.886719 72.5625 -115.101562 72.605469 -115.316406 C 72.648438 -115.53125 72.691406 -115.753906 72.734375 -115.976562 C 72.777344 -116.199219 72.820312 -116.425781 72.863281 -116.65625 C 72.90625 -116.886719 72.945312 -117.125 72.988281 -117.359375 C 73.03125 -117.597656 73.074219 -117.832031 73.117188 -118.074219 C 73.160156 -118.316406 73.203125 -118.558594 73.246094 -118.804688 C 73.289062 -119.050781 73.316406 -119.390625 73.375 -119.550781 C 73.429688 -119.710938 73.335938 -119.808594 73.503906 -119.777344 C 73.671875 -119.746094 73.585938 -119.273438 73.628906 -119.019531 C 73.671875 -118.765625 73.691406 -118.636719 73.757812 -118.257812 C 73.820312 -117.878906 73.953125 -117.121094 74.015625 -116.742188 C 74.078125 -116.363281 74.097656 -116.238281 74.140625 -115.988281 C 74.183594 -115.738281 74.226562 -115.492188 74.269531 -115.246094 C 74.3125 -115 74.355469 -114.753906 74.398438 -114.511719 C 74.441406 -114.269531 74.484375 -114.035156 74.527344 -113.796875 C 74.570312 -113.5625 74.613281 -113.324219 74.65625 -113.09375 C 74.699219 -112.863281 74.738281 -112.636719 74.78125 -112.414062 C 74.824219 -112.191406 74.867188 -111.972656 74.910156 -111.757812 C 74.953125 -111.542969 74.996094 -111.332031 75.039062 -111.125 C 75.082031 -110.917969 75.125 -110.714844 75.167969 -110.519531 C 75.210938 -110.324219 75.253906 -110.136719 75.296875 -109.949219 C 75.339844 -109.765625 75.378906 -109.582031 75.421875 -109.40625 C 75.464844 -109.230469 75.507812 -109.0625 75.550781 -108.902344 C 75.59375 -108.742188 75.636719 -108.585938 75.679688 -108.4375 C 75.722656 -108.289062 75.765625 -108.144531 75.808594 -108.011719 C 75.851562 -107.878906 75.894531 -107.75 75.9375 -107.628906 C 75.980469 -107.507812 76.019531 -107.398438 76.0625 -107.292969 C 76.105469 -107.1875 76.148438 -107.089844 76.191406 -107 C 76.234375 -106.910156 76.277344 -106.828125 76.320312 -106.753906 C 76.363281 -106.679688 76.40625 -106.613281 76.449219 -106.558594 C 76.492188 -106.503906 76.535156 -106.453125 76.578125 -106.414062 C 76.621094 -106.375 76.660156 -106.34375 76.703125 -106.320312 C 76.746094 -106.296875 76.789062 -106.285156 76.832031 -106.28125 C 76.875 -106.277344 76.917969 -106.285156 76.960938 -106.296875 C 77.003906 -106.308594 77.046875 -106.332031 77.089844 -106.363281 C 77.132812 -106.394531 77.175781 -106.4375 77.21875 -106.488281 C 77.261719 -106.539062 77.300781 -106.597656 77.34375 -106.664062 C 77.386719 -106.730469 77.429688 -106.8125 77.472656 -106.898438 C 77.515625 -106.984375 77.558594 -107.078125 77.601562 -107.183594 C 77.644531 -107.289062 77.6875 -107.402344 77.730469 -107.527344 C 77.773438 -107.652344 77.816406 -107.785156 77.859375 -107.925781 C 77.902344 -108.066406 77.941406 -108.214844 77.984375 -108.375 C 78.027344 -108.535156 78.070312 -108.703125 78.113281 -108.878906 C 78.15625 -109.054688 78.199219 -109.242188 78.242188 -109.433594 C 78.285156 -109.625 78.328125 -109.828125 78.371094 -110.035156 C 78.414062 -110.246094 78.457031 -110.460938 78.5 -110.6875 C 78.542969 -110.914062 78.582031 -111.148438 78.625 -111.390625 C 78.667969 -111.632812 78.710938 -111.878906 78.753906 -112.132812 C 78.796875 -112.386719 78.839844 -112.652344 78.882812 -112.921875 C 78.925781 -113.191406 78.96875 -113.464844 79.011719 -113.746094 C 79.054688 -114.027344 79.097656 -114.320312 79.140625 -114.613281 C 79.183594 -114.910156 79.222656 -115.210938 79.265625 -115.515625 C 79.308594 -115.820312 79.351562 -116.132812 79.394531 -116.449219 C 79.4375 -116.765625 79.480469 -117.089844 79.523438 -117.414062 C 79.566406 -117.738281 79.609375 -118.070312 79.652344 -118.402344 C 79.695312 -118.738281 79.710938 -119.21875 79.78125 -119.417969 C 79.851562 -119.617188 79.695312 -119.671875 79.90625 -119.625 C 80.117188 -119.578125 79.992188 -118.929688 80.035156 -118.578125 C 80.078125 -118.226562 80.121094 -117.867188 80.164062 -117.511719 C 80.207031 -117.15625 80.25 -116.800781 80.292969 -116.441406 C 80.335938 -116.082031 80.378906 -115.722656 80.421875 -115.363281 C 80.464844 -115.003906 80.503906 -114.644531 80.546875 -114.285156 C 80.589844 -113.925781 80.632812 -113.566406 80.675781 -113.207031 C 80.71875 -112.847656 80.761719 -112.492188 80.804688 -112.136719 C 80.847656 -111.78125 80.890625 -111.429688 80.933594 -111.078125 C 80.976562 -110.726562 81.019531 -110.375 81.0625 -110.03125 C 81.105469 -109.6875 81.144531 -109.347656 81.1875 -109.007812 C 81.230469 -108.671875 81.273438 -108.335938 81.316406 -108.003906 C 81.359375 -107.675781 81.402344 -107.347656 81.445312 -107.027344 C 81.488281 -106.707031 81.53125 -106.390625 81.574219 -106.082031 C 81.617188 -105.773438 81.660156 -105.46875 81.703125 -105.171875 C 81.746094 -104.875 81.785156 -104.585938 81.828125 -104.304688 C 81.871094 -104.023438 81.914062 -103.746094 81.957031 -103.476562 C 82 -103.207031 82.042969 -102.945312 82.085938 -102.695312 C 82.128906 -102.445312 82.171875 -102.203125 82.214844 -101.96875 C 82.257812 -101.734375 82.300781 -101.511719 82.34375 -101.296875 C 82.386719 -101.082031 82.425781 -100.878906 82.46875 -100.683594 C 82.511719 -100.488281 82.554688 -100.300781 82.597656 -100.128906 C 82.640625 -99.957031 82.683594 -99.792969 82.726562 -99.644531 C 82.769531 -99.496094 82.8125 -99.351562 82.855469 -99.226562 C 82.898438 -99.101562 82.941406 -98.984375 82.984375 -98.882812 C 83.027344 -98.78125 83.066406 -98.691406 83.109375 -98.613281 C 83.152344 -98.535156 83.191406 -98.472656 83.238281 -98.421875 C 83.28125 -98.371094 83.320312 -98.335938 83.367188 -98.3125 C 83.410156 -98.289062 83.449219 -98.28125 83.496094 -98.285156 C 83.539062 -98.289062 83.578125 -98.308594 83.625 -98.34375 C 83.667969 -98.378906 83.707031 -98.429688 83.75 -98.492188 C 83.792969 -98.554688 83.835938 -98.632812 83.878906 -98.726562 C 83.921875 -98.820312 83.964844 -98.929688 84.007812 -99.054688 C 84.050781 -99.179688 84.09375 -99.316406 84.136719 -99.472656 C 84.179688 -99.628906 84.222656 -99.796875 84.265625 -99.984375 C 84.308594 -100.171875 84.347656 -100.375 84.390625 -100.59375 C 84.433594 -100.8125 84.476562 -101.046875 84.519531 -101.296875 C 84.5625 -101.546875 84.605469 -101.816406 84.648438 -102.097656 C 84.691406 -102.378906 84.734375 -102.679688 84.777344 -102.992188 C 84.820312 -103.304688 84.863281 -103.636719 84.90625 -103.980469 C 84.949219 -104.328125 84.988281 -104.6875 85.03125 -105.066406 C 85.074219 -105.445312 85.117188 -105.839844 85.160156 -106.25 C 85.203125 -106.660156 85.246094 -107.082031 85.289062 -107.523438 C 85.332031 -107.964844 85.375 -108.421875 85.417969 -108.894531 C 85.460938 -109.367188 85.503906 -109.851562 85.546875 -110.351562 C 85.589844 -110.851562 85.628906 -111.371094 85.671875 -111.902344 C 85.714844 -112.433594 85.757812 -112.980469 85.800781 -113.539062 C 85.84375 -114.097656 85.886719 -114.671875 85.929688 -115.261719 C 85.972656 -115.851562 86.015625 -116.453125 86.058594 -117.070312 C 86.101562 -117.6875 86.074219 -118.621094 86.1875 -118.957031 C 86.296875 -119.292969 85.945312 -119.246094 86.3125 -119.152344 C 86.679688 -119.058594 86.398438 -117.804688 86.441406 -117.113281 C 86.484375 -116.421875 86.527344 -115.714844 86.570312 -115 C 86.613281 -114.285156 86.65625 -113.558594 86.699219 -112.820312 C 86.742188 -112.082031 86.785156 -111.335938 86.828125 -110.578125 C 86.871094 -109.820312 86.910156 -109.050781 86.953125 -108.273438 C 86.996094 -107.496094 87.039062 -106.707031 87.082031 -105.910156 C 87.125 -105.113281 87.167969 -104.3125 87.210938 -103.5 C 87.253906 -102.6875 87.296875 -101.871094 87.339844 -101.042969 C 87.382812 -100.214844 87.425781 -99.378906 87.46875 -98.539062 C 87.511719 -97.699219 87.550781 -96.851562 87.59375 -96 C 87.636719 -95.148438 87.679688 -94.292969 87.722656 -93.429688 C 87.765625 -92.566406 87.808594 -91.699219 87.851562 -90.828125 C 87.894531 -89.957031 87.9375 -89.085938 87.980469 -88.207031 C 88.023438 -87.332031 88.066406 -86.449219 88.109375 -85.566406 C 88.152344 -84.6875 88.191406 -83.804688 88.234375 -82.921875 C 88.277344 -82.039062 88.320312 -81.152344 88.363281 -80.265625 C 88.40625 -79.378906 88.449219 -78.492188 88.492188 -77.605469 C 88.535156 -76.722656 88.578125 -75.839844 88.621094 -74.957031 C 88.664062 -74.074219 88.707031 -73.195312 88.75 -72.316406 C 88.792969 -71.4375 88.832031 -70.558594 88.875 -69.6875 C 88.917969 -68.816406 88.960938 -67.949219 89.003906 -67.085938 C 89.046875 -66.222656 89.089844 -65.359375 89.132812 -64.507812 C 89.175781 -63.65625 89.21875 -62.8125 89.261719 -61.972656 C 89.304688 -61.132812 89.347656 -60.292969 89.390625 -59.464844 C 89.433594 -58.636719 89.472656 -57.820312 89.515625 -57.007812 C 89.558594 -56.195312 89.601562 -55.386719 89.644531 -54.59375 C 89.6875 -53.800781 89.730469 -53.027344 89.773438 -52.253906 C 89.816406 -51.480469 89.859375 -50.710938 89.902344 -49.957031 C 89.945312 -49.203125 89.984375 -48.460938 90.027344 -47.730469 C 90.070312 -47 90.113281 -46.277344 90.15625 -45.570312 C 90.199219 -44.863281 90.242188 -44.164062 90.285156 -43.480469 C 90.328125 -42.796875 90.371094 -42.128906 90.414062 -41.476562 C 90.457031 -40.824219 90.5 -40.1875 90.542969 -39.5625 C 90.585938 -38.9375 90.625 -38.328125 90.667969 -37.734375 C 90.710938 -37.140625 90.753906 -36.554688 90.796875 -35.992188 C 90.839844 -35.429688 90.882812 -34.890625 90.925781 -34.359375 C 90.96875 -33.828125 91.011719 -33.300781 91.054688 -32.808594 C 91.097656 -32.316406 91.140625 -31.863281 91.183594 -31.40625 C 91.226562 -30.949219 91.265625 -30.492188 91.308594 -30.066406 C 91.351562 -29.640625 91.394531 -29.246094 91.4375 -28.855469 C 91.480469 -28.464844 91.523438 -28.085938 91.566406 -27.730469 C 91.609375 -27.375 91.652344 -27.027344 91.695312 -26.714844 C 91.738281 -26.402344 91.78125 -26.121094 91.824219 -25.851562 C 91.867188 -25.582031 91.90625 -25.328125 91.949219 -25.101562 C 91.992188 -24.875 92.035156 -24.6875 92.078125 -24.492188 C 92.121094 -24.296875 92.160156 -24.070312 92.207031 -23.925781 C 92.253906 -23.78125 92.292969 -23.714844 92.335938 -23.617188 C 92.378906 -23.519531 92.421875 -23.4375 92.464844 -23.339844 C 92.507812 -23.242188 92.53125 -23.085938 92.589844 -23.035156 C 92.644531 -22.984375 92.636719 -22.953125 92.71875 -22.996094 C 92.800781 -23.039062 92.800781 -23.285156 92.847656 -23.394531 C 92.890625 -23.503906 92.933594 -23.566406 92.976562 -23.660156 C 93.019531 -23.753906 93.058594 -23.8125 93.105469 -23.953125 C 93.152344 -24.09375 93.1875 -24.320312 93.230469 -24.507812 C 93.273438 -24.699219 93.316406 -24.863281 93.359375 -25.089844 C 93.402344 -25.316406 93.445312 -25.585938 93.488281 -25.859375 C 93.53125 -26.132812 93.574219 -26.410156 93.617188 -26.722656 C 93.660156 -27.035156 93.703125 -27.382812 93.746094 -27.730469 C 93.789062 -28.082031 93.828125 -28.433594 93.871094 -28.820312 C 93.914062 -29.207031 93.957031 -29.628906 94 -30.054688 C 94.042969 -30.480469 94.085938 -30.917969 94.128906 -31.375 C 94.171875 -31.832031 94.214844 -32.296875 94.257812 -32.792969 C 94.300781 -33.289062 94.34375 -33.816406 94.386719 -34.347656 C 94.429688 -34.878906 94.46875 -35.421875 94.511719 -35.980469 C 94.554688 -36.539062 94.597656 -37.113281 94.640625 -37.707031 C 94.683594 -38.300781 94.726562 -38.914062 94.769531 -39.539062 C 94.8125 -40.164062 94.855469 -40.808594 94.898438 -41.460938 C 94.941406 -42.117188 94.984375 -42.785156 95.027344 -43.464844 C 95.070312 -44.144531 95.109375 -44.835938 95.152344 -45.542969 C 95.195312 -46.25 95.238281 -46.96875 95.28125 -47.699219 C 95.324219 -48.433594 95.367188 -49.183594 95.410156 -49.9375 C 95.453125 -50.691406 95.496094 -51.449219 95.539062 -52.222656 C 95.582031 -52.996094 95.625 -53.789062 95.667969 -54.582031 C 95.710938 -55.375 95.75 -56.175781 95.792969 -56.984375 C 95.835938 -57.792969 95.878906 -58.613281 95.921875 -59.441406 C 95.964844 -60.269531 96.007812 -61.109375 96.050781 -61.949219 C 96.09375 -62.789062 96.136719 -63.632812 96.179688 -64.484375 C 96.222656 -65.335938 96.265625 -66.191406 96.308594 -67.054688 C 96.351562 -67.917969 96.390625 -68.792969 96.433594 -69.664062 C 96.476562 -70.535156 96.519531 -71.410156 96.5625 -72.285156 C 96.605469 -73.164062 96.648438 -74.042969 96.691406 -74.925781 C 96.734375 -75.808594 96.777344 -76.695312 96.820312 -77.578125 C 96.863281 -78.464844 96.90625 -79.347656 96.949219 -80.234375 C 96.992188 -81.121094 97.03125 -82.011719 97.074219 -82.894531 C 97.117188 -83.777344 97.160156 -84.660156 97.203125 -85.539062 C 97.246094 -86.417969 97.289062 -87.300781 97.332031 -88.175781 C 97.375 -89.054688 97.417969 -89.929688 97.460938 -90.800781 C 97.503906 -91.671875 97.546875 -92.539062 97.589844 -93.402344 C 97.632812 -94.265625 97.671875 -95.121094 97.714844 -95.972656 C 97.757812 -96.824219 97.800781 -97.671875 97.84375 -98.511719 C 97.886719 -99.351562 97.929688 -100.1875 97.972656 -101.015625 C 98.015625 -101.84375 98.058594 -102.660156 98.101562 -103.472656 C 98.144531 -104.285156 98.1875 -105.089844 98.230469 -105.886719 C 98.273438 -106.683594 98.3125 -107.46875 98.355469 -108.246094 C 98.398438 -109.023438 98.441406 -109.792969 98.484375 -110.550781 C 98.527344 -111.308594 98.570312 -112.058594 98.613281 -112.796875 C 98.65625 -113.535156 98.699219 -114.261719 98.742188 -114.976562 C 98.785156 -115.691406 98.828125 -116.398438 98.871094 -117.089844 C 98.914062 -117.78125 98.640625 -119.015625 98.996094 -119.132812 C 99.351562 -119.25 98.992188 -119.304688 99.125 -118.980469 C 99.253906 -118.65625 99.210938 -117.707031 99.253906 -117.089844 C 99.296875 -116.472656 99.339844 -115.871094 99.382812 -115.28125 C 99.425781 -114.691406 99.46875 -114.121094 99.511719 -113.558594 C 99.554688 -113 99.59375 -112.449219 99.636719 -111.917969 C 99.679688 -111.386719 99.722656 -110.867188 99.765625 -110.367188 C 99.808594 -109.867188 99.851562 -109.382812 99.894531 -108.910156 C 99.9375 -108.4375 99.980469 -107.980469 100.023438 -107.539062 C 100.066406 -107.097656 100.109375 -106.671875 100.152344 -106.261719 C 100.195312 -105.851562 100.234375 -105.460938 100.277344 -105.082031 C 100.320312 -104.703125 100.363281 -104.339844 100.40625 -103.992188 C 100.449219 -103.644531 100.492188 -103.320312 100.535156 -103.003906 C 100.578125 -102.691406 100.621094 -102.390625 100.664062 -102.105469 C 100.707031 -101.824219 100.75 -101.554688 100.792969 -101.304688 C 100.835938 -101.054688 100.875 -100.820312 100.917969 -100.601562 C 100.960938 -100.382812 101.003906 -100.179688 101.046875 -99.992188 C 101.089844 -99.804688 101.132812 -99.636719 101.175781 -99.480469 C 101.21875 -99.324219 101.261719 -99.183594 101.304688 -99.058594 C 101.347656 -98.933594 101.390625 -98.824219 101.433594 -98.730469 C 101.476562 -98.636719 101.515625 -98.554688 101.558594 -98.492188 C 101.601562 -98.429688 101.640625 -98.382812 101.6875 -98.347656 C 101.730469 -98.3125 101.769531 -98.289062 101.816406 -98.285156 C 101.859375 -98.28125 101.898438 -98.289062 101.945312 -98.3125 C 101.988281 -98.335938 102.03125 -98.371094 102.074219 -98.421875 C 102.117188 -98.472656 102.15625 -98.539062 102.199219 -98.613281 C 102.242188 -98.6875 102.285156 -98.777344 102.328125 -98.878906 C 102.371094 -98.980469 102.414062 -99.097656 102.457031 -99.222656 C 102.5 -99.347656 102.542969 -99.492188 102.585938 -99.640625 C 102.628906 -99.789062 102.671875 -99.953125 102.714844 -100.125 C 102.757812 -100.296875 102.796875 -100.480469 102.839844 -100.675781 C 102.882812 -100.871094 102.925781 -101.074219 102.96875 -101.289062 C 103.011719 -101.503906 103.054688 -101.726562 103.097656 -101.960938 C 103.140625 -102.195312 103.183594 -102.4375 103.226562 -102.6875 C 103.269531 -102.9375 103.3125 -103.203125 103.355469 -103.46875 C 103.398438 -103.738281 103.4375 -104.011719 103.480469 -104.292969 C 103.523438 -104.574219 103.566406 -104.867188 103.609375 -105.164062 C 103.652344 -105.460938 103.695312 -105.765625 103.738281 -106.074219 C 103.78125 -106.382812 103.824219 -106.695312 103.867188 -107.015625 C 103.910156 -107.335938 103.953125 -107.664062 103.996094 -107.992188 C 104.039062 -108.324219 104.078125 -108.660156 104.121094 -108.996094 C 104.164062 -109.335938 104.207031 -109.675781 104.25 -110.019531 C 104.292969 -110.363281 104.335938 -110.714844 104.378906 -111.066406 C 104.421875 -111.417969 104.464844 -111.769531 104.507812 -112.125 C 104.550781 -112.480469 104.59375 -112.835938 104.636719 -113.195312 C 104.679688 -113.554688 104.699219 -113.734375 104.761719 -114.273438 C 104.824219 -114.8125 104.953125 -115.890625 105.019531 -116.429688 C 105.082031 -116.96875 105.105469 -117.148438 105.148438 -117.503906 C 105.191406 -117.859375 105.230469 -118.214844 105.273438 -118.566406 C 105.316406 -118.917969 105.195312 -119.566406 105.402344 -119.617188 C 105.609375 -119.667969 105.457031 -119.625 105.53125 -119.429688 C 105.605469 -119.234375 105.617188 -118.75 105.660156 -118.414062 C 105.703125 -118.078125 105.746094 -117.746094 105.789062 -117.421875 C 105.832031 -117.097656 105.871094 -116.777344 105.914062 -116.460938 C 105.957031 -116.144531 106 -115.828125 106.042969 -115.523438 C 106.085938 -115.21875 106.128906 -114.917969 106.171875 -114.625 C 106.214844 -114.332031 106.257812 -114.039062 106.300781 -113.757812 C 106.34375 -113.476562 106.386719 -113.199219 106.429688 -112.929688 C 106.472656 -112.660156 106.511719 -112.394531 106.554688 -112.140625 C 106.597656 -111.886719 106.640625 -111.640625 106.683594 -111.398438 C 106.726562 -111.15625 106.769531 -110.921875 106.8125 -110.695312 C 106.855469 -110.46875 106.898438 -110.253906 106.941406 -110.042969 C 106.984375 -109.832031 107.027344 -109.632812 107.070312 -109.4375 C 107.113281 -109.246094 107.152344 -109.058594 107.195312 -108.882812 C 107.238281 -108.707031 107.28125 -108.539062 107.324219 -108.378906 C 107.367188 -108.21875 107.410156 -108.070312 107.453125 -107.929688 C 107.496094 -107.789062 107.539062 -107.65625 107.582031 -107.53125 C 107.625 -107.40625 107.667969 -107.292969 107.710938 -107.1875 C 107.753906 -107.082031 107.792969 -106.984375 107.835938 -106.898438 C 107.878906 -106.8125 107.921875 -106.734375 107.964844 -106.667969 C 108.007812 -106.601562 108.050781 -106.539062 108.09375 -106.488281 C 108.136719 -106.4375 108.179688 -106.394531 108.222656 -106.363281 C 108.265625 -106.332031 108.308594 -106.308594 108.351562 -106.296875 C 108.394531 -106.285156 108.433594 -106.277344 108.476562 -106.28125 C 108.519531 -106.285156 108.5625 -106.296875 108.605469 -106.320312 C 108.648438 -106.34375 108.691406 -106.375 108.734375 -106.414062 C 108.777344 -106.453125 108.820312 -106.503906 108.863281 -106.558594 C 108.90625 -106.613281 108.949219 -106.679688 108.992188 -106.753906 C 109.035156 -106.828125 109.074219 -106.90625 109.117188 -106.996094 C 109.160156 -107.085938 109.203125 -107.183594 109.246094 -107.289062 C 109.289062 -107.394531 109.332031 -107.503906 109.375 -107.625 C 109.417969 -107.746094 109.460938 -107.875 109.503906 -108.007812 C 109.546875 -108.140625 109.589844 -108.285156 109.632812 -108.433594 C 109.675781 -108.582031 109.714844 -108.738281 109.757812 -108.898438 C 109.800781 -109.058594 109.84375 -109.230469 109.886719 -109.402344 C 109.929688 -109.574219 109.972656 -109.757812 110.015625 -109.941406 C 110.058594 -110.125 110.101562 -110.320312 110.144531 -110.515625 C 110.1875 -110.710938 110.230469 -110.910156 110.273438 -111.117188 C 110.316406 -111.324219 110.355469 -111.535156 110.398438 -111.75 C 110.441406 -111.964844 110.484375 -112.183594 110.527344 -112.40625 C 110.570312 -112.628906 110.613281 -112.855469 110.65625 -113.085938 C 110.699219 -113.316406 110.742188 -113.554688 110.785156 -113.789062 C 110.828125 -114.027344 110.871094 -114.261719 110.914062 -114.503906 C 110.957031 -114.746094 110.996094 -114.992188 111.039062 -115.238281 C 111.082031 -115.484375 111.125 -115.730469 111.167969 -115.980469 C 111.210938 -116.230469 111.230469 -116.355469 111.296875 -116.734375 C 111.359375 -117.113281 111.492188 -117.871094 111.554688 -118.25 C 111.617188 -118.628906 111.636719 -118.757812 111.679688 -119.011719 C 111.722656 -119.265625 111.640625 -119.738281 111.808594 -119.769531 C 111.972656 -119.800781 111.878906 -119.714844 111.9375 -119.558594 C 111.996094 -119.402344 112.023438 -119.058594 112.066406 -118.8125 C 112.109375 -118.566406 112.152344 -118.324219 112.195312 -118.082031 C 112.238281 -117.839844 112.277344 -117.605469 112.320312 -117.367188 C 112.363281 -117.132812 112.40625 -116.894531 112.449219 -116.664062 C 112.492188 -116.433594 112.535156 -116.207031 112.578125 -115.984375 C 112.621094 -115.761719 112.664062 -115.539062 112.707031 -115.324219 C 112.75 -115.109375 112.792969 -114.894531 112.835938 -114.6875 C 112.878906 -114.480469 112.917969 -114.277344 112.960938 -114.078125 C 113.003906 -113.878906 113.046875 -113.683594 113.089844 -113.496094 C 113.132812 -113.308594 113.175781 -113.125 113.21875 -112.945312 C 113.261719 -112.765625 113.304688 -112.59375 113.347656 -112.425781 C 113.390625 -112.257812 113.433594 -112.09375 113.476562 -111.9375 C 113.519531 -111.78125 113.558594 -111.632812 113.601562 -111.488281 C 113.644531 -111.34375 113.6875 -111.207031 113.730469 -111.074219 C 113.773438 -110.941406 113.816406 -110.816406 113.859375 -110.699219 C 113.902344 -110.582031 113.945312 -110.46875 113.988281 -110.363281 C 114.03125 -110.257812 114.074219 -110.160156 114.117188 -110.066406 C 114.160156 -109.972656 114.199219 -109.886719 114.242188 -109.808594 C 114.285156 -109.730469 114.328125 -109.660156 114.371094 -109.597656 C 114.414062 -109.535156 114.457031 -109.476562 114.5 -109.425781 C 114.542969 -109.375 114.585938 -109.332031 114.628906 -109.296875 C 114.671875 -109.261719 114.714844 -109.230469 114.757812 -109.210938 C 114.800781 -109.191406 114.839844 -109.175781 114.882812 -109.167969 C 114.925781 -109.160156 114.96875 -109.160156 115.011719 -109.167969 C 115.054688 -109.175781 115.097656 -109.1875 115.140625 -109.207031 C 115.183594 -109.226562 115.226562 -109.257812 115.269531 -109.292969 C 115.3125 -109.328125 115.355469 -109.371094 115.398438 -109.417969 C 115.441406 -109.464844 115.480469 -109.519531 115.523438 -109.582031 C 115.566406 -109.644531 115.609375 -109.714844 115.652344 -109.789062 C 115.695312 -109.863281 115.738281 -109.949219 115.78125 -110.035156 C 115.824219 -110.121094 115.867188 -110.21875 115.910156 -110.316406 C 115.953125 -110.414062 115.996094 -110.519531 116.039062 -110.632812 C 116.082031 -110.746094 116.121094 -110.863281 116.164062 -110.988281 C 116.207031 -111.113281 116.25 -111.242188 116.292969 -111.375 C 116.335938 -111.507812 116.378906 -111.648438 116.421875 -111.792969 C 116.464844 -111.9375 116.507812 -112.089844 116.550781 -112.242188 C 116.59375 -112.394531 116.636719 -112.554688 116.679688 -112.71875 C 116.722656 -112.882812 116.761719 -113.046875 116.804688 -113.21875 C 116.847656 -113.390625 116.890625 -113.566406 116.933594 -113.746094 C 116.976562 -113.925781 117.019531 -114.109375 117.0625 -114.296875 C 117.105469 -114.484375 117.148438 -114.671875 117.191406 -114.863281 C 117.234375 -115.054688 117.277344 -115.25 117.320312 -115.449219 C 117.363281 -115.648438 117.402344 -115.847656 117.445312 -116.050781 C 117.488281 -116.253906 117.53125 -116.457031 117.574219 -116.664062 C 117.617188 -116.871094 117.660156 -117.078125 117.703125 -117.289062 C 117.746094 -117.5 117.789062 -117.710938 117.832031 -117.921875 C 117.875 -118.132812 117.917969 -118.34375 117.960938 -118.558594 C 118.003906 -118.773438 118.042969 -118.984375 118.085938 -119.199219 C 118.128906 -119.414062 118.0625 -119.816406 118.214844 -119.839844 C 118.367188 -119.863281 118.289062 -119.742188 118.34375 -119.597656 C 118.394531 -119.453125 118.429688 -119.171875 118.472656 -118.960938 C 118.515625 -118.75 118.558594 -118.539062 118.601562 -118.332031 C 118.644531 -118.125 118.683594 -117.917969 118.726562 -117.714844 C 118.769531 -117.511719 118.8125 -117.304688 118.855469 -117.105469 C 118.898438 -116.90625 118.941406 -116.707031 118.984375 -116.511719 C 119.027344 -116.316406 119.070312 -116.121094 119.113281 -115.933594 C 119.15625 -115.746094 119.199219 -115.558594 119.242188 -115.375 C 119.285156 -115.191406 119.324219 -115.007812 119.367188 -114.832031 C 119.410156 -114.65625 119.453125 -114.484375 119.496094 -114.316406 C 119.539062 -114.148438 119.582031 -113.980469 119.625 -113.820312 C 119.667969 -113.660156 119.710938 -113.503906 119.753906 -113.351562 C 119.796875 -113.199219 119.839844 -113.054688 119.882812 -112.914062 C 119.925781 -112.773438 119.964844 -112.632812 120.007812 -112.5 C 120.050781 -112.367188 120.09375 -112.242188 120.136719 -112.121094 C 120.179688 -112 120.222656 -111.882812 120.265625 -111.773438 C 120.308594 -111.664062 120.351562 -111.554688 120.394531 -111.457031 C 120.4375 -111.359375 120.480469 -111.261719 120.523438 -111.175781 C 120.566406 -111.089844 120.605469 -111.003906 120.648438 -110.929688 C 120.691406 -110.855469 120.734375 -110.785156 120.777344 -110.722656 C 120.820312 -110.660156 120.863281 -110.597656 120.90625 -110.546875 C 120.949219 -110.496094 120.992188 -110.453125 121.035156 -110.414062 C 121.078125 -110.375 121.117188 -110.34375 121.160156 -110.316406 C 121.203125 -110.289062 121.246094 -110.269531 121.289062 -110.257812 C 121.332031 -110.246094 121.375 -110.238281 121.417969 -110.238281 C 121.460938 -110.238281 121.503906 -110.242188 121.546875 -110.253906 C 121.589844 -110.265625 121.632812 -110.289062 121.675781 -110.3125 C 121.71875 -110.335938 121.757812 -110.367188 121.800781 -110.40625 C 121.84375 -110.445312 121.886719 -110.488281 121.929688 -110.539062 C 121.972656 -110.589844 122.015625 -110.644531 122.058594 -110.707031 C 122.101562 -110.769531 122.144531 -110.835938 122.1875 -110.910156 C 122.230469 -110.984375 122.273438 -111.066406 122.316406 -111.152344 C 122.359375 -111.238281 122.398438 -111.328125 122.441406 -111.425781 C 122.484375 -111.523438 122.527344 -111.625 122.570312 -111.734375 C 122.613281 -111.84375 122.65625 -111.957031 122.699219 -112.074219 C 122.742188 -112.191406 122.785156 -112.316406 122.828125 -112.445312 C 122.871094 -112.574219 122.914062 -112.707031 122.957031 -112.84375 C 123 -112.980469 123.039062 -113.125 123.082031 -113.273438 C 123.125 -113.421875 123.167969 -113.570312 123.210938 -113.726562 C 123.253906 -113.882812 123.296875 -114.039062 123.339844 -114.203125 C 123.382812 -114.367188 123.425781 -114.535156 123.46875 -114.707031 C 123.511719 -114.878906 123.554688 -115.050781 123.597656 -115.226562 C 123.640625 -115.402344 123.679688 -115.582031 123.722656 -115.765625 C 123.765625 -115.949219 123.808594 -116.136719 123.851562 -116.324219 C 123.894531 -116.511719 123.9375 -116.703125 123.980469 -116.894531 C 124.023438 -117.085938 124.066406 -117.28125 124.109375 -117.476562 C 124.152344 -117.671875 124.195312 -117.867188 124.238281 -118.066406 C 124.28125 -118.265625 124.300781 -118.367188 124.363281 -118.667969 C 124.425781 -118.96875 124.363281 -119.851562 124.621094 -119.878906 C 124.878906 -119.90625 124.699219 -119.738281 124.75 -119.589844 C 124.796875 -119.441406 124.835938 -119.183594 124.878906 -118.980469 C 124.921875 -118.777344 124.960938 -118.578125 125.003906 -118.378906 C 125.046875 -118.179688 125.089844 -117.976562 125.132812 -117.78125 C 125.175781 -117.585938 125.21875 -117.390625 125.261719 -117.195312 C 125.304688 -117 125.347656 -116.808594 125.390625 -116.617188 C 125.433594 -116.425781 125.476562 -116.238281 125.519531 -116.054688 C 125.5625 -115.867188 125.601562 -115.683594 125.644531 -115.503906 C 125.6875 -115.324219 125.730469 -115.144531 125.773438 -114.972656 C 125.816406 -114.800781 125.859375 -114.628906 125.902344 -114.460938 C 125.945312 -114.292969 125.988281 -114.132812 126.03125 -113.972656 C 126.074219 -113.8125 126.117188 -113.65625 126.160156 -113.503906 C 126.203125 -113.351562 126.242188 -113.203125 126.285156 -113.0625 C 126.328125 -112.921875 126.371094 -112.78125 126.414062 -112.648438 C 126.457031 -112.515625 126.5 -112.386719 126.542969 -112.261719 C 126.585938 -112.136719 126.628906 -112.019531 126.671875 -111.90625 C 126.714844 -111.792969 126.757812 -111.683594 126.800781 -111.582031 C 126.84375 -111.480469 126.882812 -111.378906 126.925781 -111.289062 C 126.96875 -111.199219 127.011719 -111.109375 127.054688 -111.03125 C 127.097656 -110.953125 127.140625 -110.875 127.183594 -110.808594 C 127.226562 -110.742188 127.269531 -110.675781 127.3125 -110.621094 C 127.355469 -110.566406 127.398438 -110.511719 127.441406 -110.46875 C 127.484375 -110.425781 127.523438 -110.386719 127.566406 -110.355469 C 127.609375 -110.324219 127.652344 -110.300781 127.695312 -110.28125 C 127.738281 -110.261719 127.78125 -110.25 127.824219 -110.242188 C 127.867188 -110.234375 127.910156 -110.234375 127.953125 -110.242188 C 127.996094 -110.25 128.039062 -110.261719 128.082031 -110.28125 C 128.125 -110.300781 128.164062 -110.328125 128.207031 -110.359375 C 128.25 -110.390625 128.292969 -110.429688 128.335938 -110.472656 C 128.378906 -110.515625 128.421875 -110.566406 128.464844 -110.625 C 128.507812 -110.683594 128.550781 -110.746094 128.59375 -110.816406 C 128.636719 -110.886719 128.679688 -110.960938 128.722656 -111.042969 C 128.765625 -111.125 128.804688 -111.210938 128.847656 -111.304688 C 128.890625 -111.398438 128.933594 -111.5 128.976562 -111.605469 C 129.019531 -111.710938 129.0625 -111.816406 129.105469 -111.933594 C 129.148438 -112.050781 129.191406 -112.175781 129.234375 -112.300781 C 129.277344 -112.425781 129.320312 -112.558594 129.363281 -112.695312 C 129.40625 -112.832031 129.445312 -112.976562 129.488281 -113.121094 C 129.53125 -113.265625 129.574219 -113.417969 129.617188 -113.574219 C 129.660156 -113.730469 129.703125 -113.890625 129.746094 -114.054688 C 129.789062 -114.21875 129.832031 -114.390625 129.875 -114.5625 C 129.917969 -114.734375 129.960938 -114.910156 130.003906 -115.089844 C 130.046875 -115.269531 130.085938 -115.453125 130.128906 -115.640625 C 130.171875 -115.828125 130.214844 -116.019531 130.257812 -116.210938 C 130.300781 -116.402344 130.34375 -116.597656 130.386719 -116.796875 C 130.429688 -116.996094 130.472656 -117.195312 130.515625 -117.398438 C 130.558594 -117.601562 130.601562 -117.804688 130.644531 -118.011719 C 130.6875 -118.21875 130.726562 -118.421875 130.769531 -118.632812 C 130.8125 -118.84375 130.855469 -119.054688 130.898438 -119.265625 C 130.941406 -119.476562 130.851562 -119.890625 131.027344 -119.902344 C 131.199219 -119.914062 131.109375 -119.699219 131.15625 -119.53125 C 131.203125 -119.363281 131.242188 -119.105469 131.285156 -118.890625 C 131.328125 -118.675781 131.367188 -118.464844 131.410156 -118.253906 C 131.453125 -118.042969 131.496094 -117.828125 131.539062 -117.617188 C 131.582031 -117.40625 131.625 -117.195312 131.667969 -116.988281 C 131.710938 -116.78125 131.753906 -116.570312 131.796875 -116.367188 C 131.839844 -116.164062 131.882812 -115.960938 131.925781 -115.761719 C 131.96875 -115.5625 132.007812 -115.363281 132.050781 -115.167969 C 132.09375 -114.972656 132.136719 -114.777344 132.179688 -114.589844 C 132.222656 -114.402344 132.265625 -114.214844 132.308594 -114.03125 C 132.351562 -113.847656 132.394531 -113.667969 132.4375 -113.492188 C 132.480469 -113.316406 132.523438 -113.144531 132.566406 -112.976562 C 132.609375 -112.808594 132.648438 -112.644531 132.691406 -112.484375 C 132.734375 -112.324219 132.777344 -112.171875 132.820312 -112.023438 C 132.863281 -111.875 132.90625 -111.726562 132.949219 -111.585938 C 132.992188 -111.445312 133.035156 -111.3125 133.078125 -111.183594 C 133.121094 -111.054688 133.164062 -110.929688 133.207031 -110.8125 C 133.25 -110.695312 133.289062 -110.582031 133.332031 -110.476562 C 133.375 -110.371094 133.417969 -110.269531 133.460938 -110.175781 C 133.503906 -110.082031 133.546875 -109.992188 133.589844 -109.910156 C 133.632812 -109.828125 133.675781 -109.75 133.71875 -109.683594 C 133.761719 -109.617188 133.804688 -109.554688 133.847656 -109.5 C 133.890625 -109.445312 133.929688 -109.394531 133.972656 -109.351562 C 134.015625 -109.308594 134.058594 -109.273438 134.101562 -109.246094 C 134.144531 -109.21875 134.1875 -109.199219 134.230469 -109.183594 C 134.273438 -109.167969 134.316406 -109.160156 134.359375 -109.160156 C 134.402344 -109.160156 134.445312 -109.167969 134.488281 -109.183594 C 134.53125 -109.199219 134.570312 -109.21875 134.613281 -109.246094 C 134.65625 -109.273438 134.699219 -109.308594 134.742188 -109.351562 C 134.785156 -109.394531 134.828125 -109.445312 134.871094 -109.503906 C 134.914062 -109.5625 134.957031 -109.625 135 -109.695312 C 135.042969 -109.765625 135.085938 -109.839844 135.128906 -109.925781 C 135.171875 -110.011719 135.210938 -110.105469 135.253906 -110.203125 C 135.296875 -110.300781 135.339844 -110.40625 135.382812 -110.519531 C 135.425781 -110.632812 135.46875 -110.75 135.511719 -110.875 C 135.554688 -111 135.597656 -111.132812 135.640625 -111.269531 C 135.683594 -111.40625 135.726562 -111.550781 135.769531 -111.699219 C 135.8125 -111.847656 135.851562 -112.007812 135.894531 -112.167969 C 135.9375 -112.328125 135.980469 -112.5 136.023438 -112.671875 C 136.066406 -112.84375 136.109375 -113.023438 136.152344 -113.207031 C 136.195312 -113.390625 136.238281 -113.582031 136.28125 -113.773438 C 136.324219 -113.964844 136.363281 -114.164062 136.40625 -114.367188 C 136.449219 -114.570312 136.492188 -114.777344 136.535156 -114.988281 C 136.578125 -115.199219 136.621094 -115.417969 136.664062 -115.636719 C 136.707031 -115.855469 136.75 -116.082031 136.792969 -116.308594 C 136.835938 -116.535156 136.878906 -116.765625 136.921875 -117 C 136.964844 -117.234375 137.003906 -117.46875 137.046875 -117.707031 C 137.089844 -117.945312 137.132812 -118.191406 137.175781 -118.433594 C 137.21875 -118.675781 137.261719 -118.925781 137.304688 -119.171875 C 137.347656 -119.417969 137.21875 -119.910156 137.433594 -119.917969 C 137.648438 -119.925781 137.519531 -119.617188 137.5625 -119.40625 C 137.605469 -119.195312 137.644531 -118.898438 137.6875 -118.644531 C 137.730469 -118.390625 137.773438 -118.140625 137.816406 -117.886719 C 137.859375 -117.632812 137.902344 -117.378906 137.945312 -117.125 C 137.988281 -116.871094 138.03125 -116.621094 138.074219 -116.371094 C 138.117188 -116.121094 138.160156 -115.871094 138.203125 -115.621094 C 138.246094 -115.371094 138.285156 -115.125 138.328125 -114.882812 C 138.371094 -114.640625 138.414062 -114.398438 138.457031 -114.160156 C 138.5 -113.921875 138.542969 -113.683594 138.585938 -113.449219 C 138.628906 -113.214844 138.671875 -112.984375 138.714844 -112.757812 C 138.757812 -112.53125 138.800781 -112.308594 138.84375 -112.089844 C 138.886719 -111.871094 138.925781 -111.652344 138.96875 -111.441406 C 139.011719 -111.230469 139.054688 -111.023438 139.097656 -110.824219 C 139.140625 -110.625 139.183594 -110.425781 139.226562 -110.234375 C 139.269531 -110.042969 139.3125 -109.859375 139.355469 -109.679688 C 139.398438 -109.5 139.441406 -109.324219 139.484375 -109.15625 C 139.527344 -108.988281 139.566406 -108.828125 139.609375 -108.671875 C 139.652344 -108.515625 139.695312 -108.363281 139.738281 -108.222656 C 139.78125 -108.082031 139.824219 -107.949219 139.867188 -107.820312 C 139.910156 -107.691406 139.953125 -107.570312 139.996094 -107.457031 C 140.039062 -107.34375 140.082031 -107.238281 140.125 -107.140625 C 140.167969 -107.042969 140.207031 -106.957031 140.25 -106.875 C 140.292969 -106.792969 140.335938 -106.71875 140.378906 -106.652344 C 140.421875 -106.585938 140.464844 -106.527344 140.507812 -106.480469 C 140.550781 -106.433594 140.59375 -106.394531 140.636719 -106.363281 C 140.679688 -106.332031 140.722656 -106.308594 140.765625 -106.296875 C 140.808594 -106.285156 140.847656 -106.277344 140.890625 -106.28125 C 140.933594 -106.285156 140.976562 -106.296875 141.019531 -106.320312 C 141.0625 -106.34375 141.105469 -106.378906 141.148438 -106.417969 C 141.191406 -106.457031 141.234375 -106.507812 141.277344 -106.566406 C 141.320312 -106.625 141.363281 -106.695312 141.40625 -106.773438 C 141.449219 -106.851562 141.488281 -106.9375 141.53125 -107.03125 C 141.574219 -107.125 141.617188 -107.234375 141.660156 -107.347656 C 141.703125 -107.460938 141.746094 -107.582031 141.789062 -107.714844 C 141.832031 -107.847656 141.875 -107.992188 141.917969 -108.140625 C 141.960938 -108.289062 142.003906 -108.449219 142.046875 -108.617188 C 142.089844 -108.785156 142.128906 -108.960938 142.171875 -109.144531 C 142.214844 -109.328125 142.257812 -109.519531 142.300781 -109.722656 C 142.34375 -109.921875 142.386719 -110.132812 142.429688 -110.351562 C 142.472656 -110.570312 142.515625 -110.792969 142.558594 -111.027344 C 142.601562 -111.261719 142.644531 -111.5 142.6875 -111.75 C 142.730469 -111.996094 142.769531 -112.253906 142.8125 -112.515625 C 142.855469 -112.777344 142.898438 -113.042969 142.941406 -113.320312 C 142.984375 -113.59375 143.027344 -113.878906 143.070312 -114.167969 C 143.113281 -114.457031 143.15625 -114.75 143.199219 -115.050781 C 143.242188 -115.351562 143.285156 -115.65625 143.328125 -115.96875 C 143.371094 -116.28125 143.410156 -116.597656 143.453125 -116.917969 C 143.496094 -117.238281 143.539062 -117.5625 143.582031 -117.894531 C 143.625 -118.222656 143.667969 -118.558594 143.710938 -118.898438 C 143.753906 -119.234375 143.53125 -119.917969 143.839844 -119.921875 C 144.148438 -119.925781 143.925781 -119.425781 143.96875 -119.113281 C 144.011719 -118.800781 144.050781 -118.410156 144.09375 -118.054688 C 144.136719 -117.699219 144.179688 -117.34375 144.222656 -116.988281 C 144.265625 -116.632812 144.308594 -116.273438 144.351562 -115.914062 C 144.394531 -115.554688 144.4375 -115.191406 144.480469 -114.832031 C 144.523438 -114.472656 144.566406 -114.113281 144.609375 -113.753906 C 144.652344 -113.394531 144.691406 -113.035156 144.734375 -112.679688 C 144.777344 -112.324219 144.820312 -111.96875 144.863281 -111.617188 C 144.90625 -111.265625 144.949219 -110.910156 144.992188 -110.5625 C 145.035156 -110.214844 145.078125 -109.867188 145.121094 -109.527344 C 145.164062 -109.183594 145.207031 -108.847656 145.25 -108.511719 C 145.292969 -108.175781 145.332031 -107.84375 145.375 -107.519531 C 145.417969 -107.195312 145.460938 -106.871094 145.503906 -106.558594 C 145.546875 -106.242188 145.589844 -105.9375 145.632812 -105.632812 C 145.675781 -105.328125 145.71875 -105.027344 145.761719 -104.738281 C 145.804688 -104.449219 145.847656 -104.164062 145.890625 -103.890625 C 145.933594 -103.613281 145.972656 -103.34375 146.015625 -103.085938 C 146.058594 -102.824219 146.101562 -102.574219 146.144531 -102.332031 C 146.1875 -102.089844 146.230469 -101.855469 146.273438 -101.632812 C 146.316406 -101.410156 146.359375 -101.191406 146.402344 -100.988281 C 146.445312 -100.785156 146.488281 -100.585938 146.53125 -100.402344 C 146.574219 -100.21875 146.613281 -100.042969 146.65625 -99.882812 C 146.699219 -99.722656 146.742188 -99.570312 146.785156 -99.429688 C 146.828125 -99.289062 146.871094 -99.160156 146.914062 -99.046875 C 146.957031 -98.933594 147 -98.832031 147.042969 -98.742188 C 147.085938 -98.652344 147.128906 -98.574219 147.171875 -98.511719 C 147.214844 -98.449219 147.25 -98.394531 147.296875 -98.359375 C 147.339844 -98.324219 147.378906 -98.296875 147.425781 -98.289062 C 147.46875 -98.28125 147.507812 -98.285156 147.554688 -98.304688 C 147.597656 -98.324219 147.636719 -98.359375 147.683594 -98.40625 C 147.726562 -98.453125 147.769531 -98.519531 147.8125 -98.597656 C 147.855469 -98.675781 147.894531 -98.765625 147.9375 -98.875 C 147.980469 -98.984375 148.023438 -99.109375 148.066406 -99.25 C 148.109375 -99.390625 148.152344 -99.542969 148.195312 -99.714844 C 148.238281 -99.886719 148.28125 -100.070312 148.324219 -100.273438 C 148.367188 -100.476562 148.410156 -100.695312 148.453125 -100.929688 C 148.496094 -101.164062 148.535156 -101.410156 148.578125 -101.675781 C 148.621094 -101.941406 148.664062 -102.226562 148.707031 -102.523438 C 148.75 -102.820312 148.792969 -103.136719 148.835938 -103.464844 C 148.878906 -103.792969 148.921875 -104.140625 148.964844 -104.503906 C 149.007812 -104.867188 149.050781 -105.242188 149.09375 -105.636719 C 149.136719 -106.03125 149.175781 -106.4375 149.21875 -106.863281 C 149.261719 -107.289062 149.304688 -107.730469 149.347656 -108.1875 C 149.390625 -108.644531 149.433594 -109.113281 149.476562 -109.597656 C 149.519531 -110.082031 149.5625 -110.585938 149.605469 -111.101562 C 149.648438 -111.617188 149.691406 -112.148438 149.734375 -112.695312 C 149.777344 -113.242188 149.816406 -113.800781 149.859375 -114.375 C 149.902344 -114.949219 149.945312 -115.539062 149.988281 -116.140625 C 150.03125 -116.742188 150.074219 -117.359375 150.117188 -117.988281 C 150.160156 -118.617188 149.628906 -119.910156 150.246094 -119.914062 C 150.859375 -119.917969 150.332031 -118.796875 150.375 -118.160156 C 150.417969 -117.523438 150.457031 -116.785156 150.5 -116.082031 C 150.542969 -115.378906 150.585938 -114.664062 150.628906 -113.9375 C 150.671875 -113.210938 150.714844 -112.472656 150.757812 -111.726562 C 150.800781 -110.980469 150.84375 -110.21875 150.886719 -109.453125 C 150.929688 -108.683594 150.972656 -107.90625 151.015625 -107.121094 C 151.058594 -106.335938 151.097656 -105.539062 151.140625 -104.734375 C 151.183594 -103.929688 151.226562 -103.117188 151.269531 -102.296875 C 151.3125 -101.476562 151.355469 -100.648438 151.398438 -99.816406 C 151.441406 -98.984375 151.484375 -98.144531 151.527344 -97.296875 C 151.570312 -96.449219 151.609375 -95.59375 151.652344 -94.738281 C 151.695312 -93.878906 151.738281 -93.019531 151.78125 -92.152344 C 151.824219 -91.285156 151.867188 -90.414062 151.910156 -89.542969 C 151.953125 -88.667969 151.996094 -87.792969 152.039062 -86.914062 C 152.082031 -86.035156 152.125 -85.148438 152.167969 -84.265625 C 152.210938 -83.382812 152.25 -82.5 152.292969 -81.617188 C 152.335938 -80.730469 152.378906 -79.84375 152.421875 -78.957031 C 152.464844 -78.070312 152.507812 -77.1875 152.550781 -76.304688 C 152.59375 -75.421875 152.636719 -74.535156 152.679688 -73.65625 C 152.722656 -72.773438 152.765625 -71.894531 152.808594 -71.019531 C 152.851562 -70.144531 152.890625 -69.273438 152.933594 -68.40625 C 152.976562 -67.539062 153.019531 -66.671875 153.0625 -65.816406 C 153.105469 -64.957031 153.148438 -64.109375 153.191406 -63.261719 C 153.234375 -62.414062 153.277344 -61.566406 153.320312 -60.734375 C 153.363281 -59.898438 153.40625 -59.078125 153.449219 -58.257812 C 153.492188 -57.4375 153.53125 -56.621094 153.574219 -55.820312 C 153.617188 -55.015625 153.660156 -54.226562 153.703125 -53.441406 C 153.746094 -52.65625 153.789062 -51.882812 153.832031 -51.117188 C 153.875 -50.351562 153.917969 -49.589844 153.960938 -48.847656 C 154.003906 -48.101562 154.046875 -47.371094 154.089844 -46.652344 C 154.132812 -45.933594 154.171875 -45.226562 154.214844 -44.535156 C 154.257812 -43.839844 154.300781 -43.15625 154.34375 -42.492188 C 154.386719 -41.824219 154.429688 -41.179688 154.472656 -40.539062 C 154.515625 -39.898438 154.558594 -39.257812 154.601562 -38.644531 C 154.644531 -38.03125 154.6875 -37.445312 154.730469 -36.867188 C 154.773438 -36.289062 154.8125 -35.726562 154.855469 -35.183594 C 154.898438 -34.640625 154.941406 -34.117188 154.984375 -33.605469 C 155.027344 -33.09375 155.070312 -32.601562 155.113281 -32.121094 C 155.15625 -31.640625 155.199219 -31.175781 155.242188 -30.730469 C 155.285156 -30.285156 155.328125 -29.859375 155.371094 -29.449219 C 155.414062 -29.039062 155.453125 -28.640625 155.496094 -28.273438 C 155.539062 -27.90625 155.582031 -27.566406 155.625 -27.234375 C 155.667969 -26.902344 155.710938 -26.578125 155.753906 -26.285156 C 155.796875 -25.992188 155.839844 -25.730469 155.882812 -25.484375 C 155.925781 -25.238281 155.96875 -25.019531 156.011719 -24.804688 C 156.054688 -24.589844 156.09375 -24.359375 156.136719 -24.183594 C 156.179688 -24.007812 156.21875 -23.875 156.265625 -23.757812 C 156.308594 -23.640625 156.34375 -23.53125 156.394531 -23.46875 C 156.441406 -23.40625 156.523438 -23.367188 156.523438 -23.367188 "
       transform="matrix(1,0,0,-1,0,0)"
       id="path30864" />
  </g>
  <path
     style="fill:none;stroke:#000000;stroke-width:0.38148;stroke-linecap:butt;stroke-linejoin:miter;stroke-miterlimit:4;stroke-dasharray:none;stroke-opacity:1;marker-end:url(#marker24909)"
     d="m 133.9368,120.03906 c 11.83769,0 23.67517,0 35.51242,0"
     id="path24897"
     inkscape:path-effect="#path-effect24899"
     inkscape:original-d="m 133.9368,120.03906 c 11.83769,2.6e-4 23.67517,2.6e-4 35.51242,0" />
  <g
     transform="matrix(1.3282297,0,0,1.3282297,155.90951,106.39809)"
     ns7:version="1.2.0"
     ns7:texconverter="pdflatex"
     ns7:pdfconverter="inkscape"
     ns7:text="$\psi$  "
     ns7:preamble="/Users/hasanabbas/Library/Application Support/org.inkscape.Inkscape/config/inkscape/extensions/inkscapeMadeEasy/basicLatexPackages.tex"
     ns7:scale="2.9377590693976736"
     ns7:alignment="middle center"
     ns7:jacobian_sqrt="3.917"
     id="g25228">
    <defs
       id="id-eb9e633f-7f26-409a-b2e6-f965dddbba2c">
      <g
         id="g31471">
        <symbol
           overflow="visible"
           id="symbol31465">
          <path
             style="stroke:none"
             d=""
             id="path31463" />
        </symbol>
        <symbol
           overflow="visible"
           id="symbol31469">
          <path
             style="stroke:none"
             d="m 4.8125,-6.65625 c 0,-0.046875 0.015625,-0.109375 0.015625,-0.15625 0,-0.09375 -0.0625,-0.109375 -0.109375,-0.109375 -0.109375,0 -0.109375,0.03125 -0.15625,0.203125 L 2.90625,-0.125 c -0.75,-0.09375 -1.125,-0.46875 -1.125,-1.125 0,-0.203125 0,-0.453125 0.53125,-1.84375 0.046875,-0.125 0.109375,-0.296875 0.109375,-0.5 0,-0.4375 -0.3125,-0.8125 -0.8125,-0.8125 -0.953125,0 -1.3125,1.453125 -1.3125,1.53125 0,0.109375 0.09375,0.109375 0.109375,0.109375 0.109375,0 0.109375,-0.03125 0.15625,-0.1875 0.28125,-0.9375 0.671875,-1.234375 1.015625,-1.234375 0.078125,0 0.25,0 0.25,0.3125 0,0.265625 -0.109375,0.515625 -0.234375,0.859375 C 1.109375,-1.75 1.109375,-1.5 1.109375,-1.328125 1.109375,-0.375 1.890625,0.03125 2.84375,0.09375 2.765625,0.453125 2.765625,0.46875 2.625,1 2.609375,1.109375 2.40625,1.90625 2.40625,1.9375 c 0,0.015625 0,0.109375 0.109375,0.109375 0.03125,0 0.078125,0 0.09375,-0.046875 0.03125,-0.015625 0.09375,-0.265625 0.125,-0.40625 l 0.375,-1.484375 c 0.375,0 1.25,0 2.1875,-1.0625 0.40625,-0.46875 0.609375,-0.90625 0.71875,-1.203125 0.09375,-0.25 0.3125,-1.109375 0.3125,-1.546875 0,-0.5625 -0.265625,-0.703125 -0.4375,-0.703125 -0.25,0 -0.5,0.265625 -0.5,0.484375 0,0.125 0.0625,0.1875 0.15625,0.265625 0.109375,0.109375 0.359375,0.359375 0.359375,0.84375 0,0.640625 -0.515625,1.453125 -0.875,1.8125 -0.875,0.890625 -1.515625,0.890625 -1.875,0.890625 z m 0,0"
             id="path31467" />
        </symbol>
      </g>
    </defs>
    <g
       id="id-822374ac-7963-40e6-8a4e-dd635a4d1d62"
       transform="translate(-149.009,-127.843)">
      <g
         style="fill:#000000;fill-opacity:1"
         id="id-55d7a9f6-b837-46c0-a25b-56a8b5e74c5d">
        <g
           transform="translate(148.712,134.765)"
           id="g29834">
          <path
             style="stroke:none"
             d="m 4.8125,-6.65625 c 0,-0.046875 0.015625,-0.109375 0.015625,-0.15625 0,-0.09375 -0.0625,-0.109375 -0.109375,-0.109375 -0.109375,0 -0.109375,0.03125 -0.15625,0.203125 L 2.90625,-0.125 c -0.75,-0.09375 -1.125,-0.46875 -1.125,-1.125 0,-0.203125 0,-0.453125 0.53125,-1.84375 0.046875,-0.125 0.109375,-0.296875 0.109375,-0.5 0,-0.4375 -0.3125,-0.8125 -0.8125,-0.8125 -0.953125,0 -1.3125,1.453125 -1.3125,1.53125 0,0.109375 0.09375,0.109375 0.109375,0.109375 0.109375,0 0.109375,-0.03125 0.15625,-0.1875 0.28125,-0.9375 0.671875,-1.234375 1.015625,-1.234375 0.078125,0 0.25,0 0.25,0.3125 0,0.265625 -0.109375,0.515625 -0.234375,0.859375 C 1.109375,-1.75 1.109375,-1.5 1.109375,-1.328125 1.109375,-0.375 1.890625,0.03125 2.84375,0.09375 2.765625,0.453125 2.765625,0.46875 2.625,1 2.609375,1.109375 2.40625,1.90625 2.40625,1.9375 c 0,0.015625 0,0.109375 0.109375,0.109375 0.03125,0 0.078125,0 0.09375,-0.046875 0.03125,-0.015625 0.09375,-0.265625 0.125,-0.40625 l 0.375,-1.484375 c 0.375,0 1.25,0 2.1875,-1.0625 0.40625,-0.46875 0.609375,-0.90625 0.71875,-1.203125 0.09375,-0.25 0.3125,-1.109375 0.3125,-1.546875 0,-0.5625 -0.265625,-0.703125 -0.4375,-0.703125 -0.25,0 -0.5,0.265625 -0.5,0.484375 0,0.125 0.0625,0.1875 0.15625,0.265625 0.109375,0.109375 0.359375,0.359375 0.359375,0.84375 0,0.640625 -0.515625,1.453125 -0.875,1.8125 -0.875,0.890625 -1.515625,0.890625 -1.875,0.890625 z m 0,0"
             id="id-4604e52d-560e-4644-bce8-762a9fd7d7ce" />
        </g>
      </g>
    </g>
  </g>
</svg>
