<?xml version="1.0" encoding="UTF-8" standalone="no"?>
<svg
   xmlns:ns7="http://www.iki.fi/pav/software/textext/"
   xmlns:dc="http://purl.org/dc/elements/1.1/"
   xmlns:cc="http://creativecommons.org/ns#"
   xmlns:rdf="http://www.w3.org/1999/02/22-rdf-syntax-ns#"
   xmlns:svg="http://www.w3.org/2000/svg"
   xmlns="http://www.w3.org/2000/svg"
   xmlns:sodipodi="http://sodipodi.sourceforge.net/DTD/sodipodi-0.dtd"
   xmlns:inkscape="http://www.inkscape.org/namespaces/inkscape"
   width="169.64772pt"
   height="148.308411pt"
   viewBox="0 0 169.64772 148.308411"
   version="1.2"
   id="svg29946"
   sodipodi:docname="sinc_5.svg"
   inkscape:version="1.0.2 (e86c8708, 2021-01-15)">
  <metadata
     id="metadata29950">
    <rdf:RDF>
      <cc:Work
         rdf:about="">
        <dc:format>image/svg+xml</dc:format>
        <dc:type
           rdf:resource="http://purl.org/dc/dcmitype/StillImage" />
        <dc:title></dc:title>
      </cc:Work>
    </rdf:RDF>
  </metadata>
  <sodipodi:namedview
     pagecolor="#ffffff"
     bordercolor="#666666"
     borderopacity="1"
     objecttolerance="10"
     gridtolerance="10"
     guidetolerance="10"
     inkscape:pageopacity="0"
     inkscape:pageshadow="2"
     inkscape:window-width="640"
     inkscape:window-height="480"
     id="namedview29948"
     showgrid="false"
     inkscape:zoom="1.7931324"
     inkscape:cx="139.3096"
     inkscape:cy="118.39119"
     inkscape:current-layer="svg29946" />
  <defs
     id="defs29895">
    <clipPath
       id="clip1">
      <path
         d="M 15 22 L 169.648438 22 L 169.648438 121 L 15 121 Z M 15 22 "
         id="path29883" />
    </clipPath>
    <clipPath
       id="clip2">
      <path
         d="M 15 4 L 169.648438 4 L 169.648438 131 L 15 131 Z M 15 4 "
         id="path29886" />
    </clipPath>
    <clipPath
       id="clip3">
      <path
         d="M 59 138 L 64 138 L 64 148.308594 L 59 148.308594 Z M 59 138 "
         id="path29889" />
    </clipPath>
    <clipPath
       id="clip4">
      <path
         d="M 125 138 L 130 138 L 130 148.308594 L 125 148.308594 Z M 125 138 "
         id="path29892" />
    </clipPath>
    <marker
       style="overflow:visible"
       id="marker24909"
       refX="0"
       refY="0"
       orient="auto"
       inkscape:stockid="Arrow2Lend"
       inkscape:isstock="true">
      <path
         transform="matrix(-1.1,0,0,-1.1,-1.1,0)"
         d="M 8.7185878,4.0337352 -2.2072895,0.01601326 8.7185884,-4.0017078 c -1.7454984,2.3720609 -1.7354408,5.6174519 -6e-7,8.035443 z"
         style="fill:#000000;fill-opacity:1;fill-rule:evenodd;stroke:#000000;stroke-width:0.625;stroke-linejoin:round;stroke-opacity:1"
         id="path24907" />
    </marker>
    <inkscape:path-effect
       effect="bspline"
       id="path-effect24899"
       is_visible="true"
       lpeversion="1"
       weight="33.333333"
       steps="2"
       helper_size="0"
       apply_no_weight="true"
       apply_with_weight="true"
       only_selected="false" />
    <g
       id="id-ab1b5044-4364-415c-9dee-dae11eba6cdb">
      <symbol
         overflow="visible"
         id="id-0723ae98-fb5f-41f9-a9f6-b1e0b9171770">
        <path
           style="stroke:none"
           d=""
           id="id-3ff0c13d-0af3-41a5-8f48-a04864cdf472" />
      </symbol>
      <symbol
         overflow="visible"
         id="id-79f454c4-f97c-45cb-a7a9-7ae205fae3d1">
        <path
           style="stroke:none"
           d="m 4.8125,-6.65625 c 0,-0.046875 0.015625,-0.109375 0.015625,-0.15625 0,-0.09375 -0.0625,-0.109375 -0.109375,-0.109375 -0.109375,0 -0.109375,0.03125 -0.15625,0.203125 L 2.90625,-0.125 c -0.75,-0.09375 -1.125,-0.46875 -1.125,-1.125 0,-0.203125 0,-0.453125 0.53125,-1.84375 0.046875,-0.125 0.109375,-0.296875 0.109375,-0.5 0,-0.4375 -0.3125,-0.8125 -0.8125,-0.8125 -0.953125,0 -1.3125,1.453125 -1.3125,1.53125 0,0.109375 0.09375,0.109375 0.109375,0.109375 0.109375,0 0.109375,-0.03125 0.15625,-0.1875 0.28125,-0.9375 0.671875,-1.234375 1.015625,-1.234375 0.078125,0 0.25,0 0.25,0.3125 0,0.265625 -0.109375,0.515625 -0.234375,0.859375 C 1.109375,-1.75 1.109375,-1.5 1.109375,-1.328125 1.109375,-0.375 1.890625,0.03125 2.84375,0.09375 2.765625,0.453125 2.765625,0.46875 2.625,1 2.609375,1.109375 2.40625,1.90625 2.40625,1.9375 c 0,0.015625 0,0.109375 0.109375,0.109375 0.03125,0 0.078125,0 0.09375,-0.046875 0.03125,-0.015625 0.09375,-0.265625 0.125,-0.40625 l 0.375,-1.484375 c 0.375,0 1.25,0 2.1875,-1.0625 0.40625,-0.46875 0.609375,-0.90625 0.71875,-1.203125 0.09375,-0.25 0.3125,-1.109375 0.3125,-1.546875 0,-0.5625 -0.265625,-0.703125 -0.4375,-0.703125 -0.25,0 -0.5,0.265625 -0.5,0.484375 0,0.125 0.0625,0.1875 0.15625,0.265625 0.109375,0.109375 0.359375,0.359375 0.359375,0.84375 0,0.640625 -0.515625,1.453125 -0.875,1.8125 -0.875,0.890625 -1.515625,0.890625 -1.875,0.890625 z m 0,0"
           id="id-62c71642-bc32-48a8-a7dd-5458af53a1a2" />
      </symbol>
    </g>
  </defs>
  <g
     id="surface1818390">
    <path
       style="fill:none;stroke-width:0.19925;stroke-linecap:butt;stroke-linejoin:miter;stroke:rgb(49.803162%,49.803162%,49.803162%);stroke-opacity:1;stroke-miterlimit:10;"
       d="M 28.660156 -134.816406 L 28.660156 -130.566406 M 60.65625 -134.816406 L 60.65625 -130.566406 M 92.65625 -134.816406 L 92.65625 -130.566406 M 124.652344 -134.816406 L 124.652344 -130.566406 M 156.652344 -134.816406 L 156.652344 -130.566406 M 28.660156 0 L 28.660156 -4.253906 M 60.65625 0 L 60.65625 -4.253906 M 92.65625 0 L 92.65625 -4.253906 M 124.652344 0 L 124.652344 -4.253906 M 156.652344 0 L 156.652344 -4.253906 "
       transform="matrix(1,0,0,-1,0,0)"
       id="path29897" />
    <g
       clip-path="url(#clip1)"
       clip-rule="nonzero"
       id="g29901">
      <path
         style="fill:none;stroke-width:0.19925;stroke-linecap:butt;stroke-linejoin:miter;stroke:rgb(49.803162%,49.803162%,49.803162%);stroke-opacity:1;stroke-miterlimit:10;"
         d="M 15.859375 -120.039062 L 20.113281 -120.039062 M 15.859375 -71.078125 L 20.113281 -71.078125 M 15.859375 -22.121094 L 20.113281 -22.121094 M 169.449219 -120.039062 L 165.199219 -120.039062 M 169.449219 -71.078125 L 165.199219 -71.078125 M 169.449219 -22.121094 L 165.199219 -22.121094 "
         transform="matrix(1,0,0,-1,0,0)"
         id="path29899" />
    </g>
    <g
       clip-path="url(#clip2)"
       clip-rule="nonzero"
       id="g29905">
      <path
         style="fill:none;stroke-width:0.3985;stroke-linecap:butt;stroke-linejoin:miter;stroke:rgb(0%,0%,0%);stroke-opacity:1;stroke-miterlimit:10;"
         d="M 15.859375 -4.253906 L 169.449219 -4.253906 L 169.449219 -130.566406 L 15.859375 -130.566406 Z M 15.859375 -4.253906 "
         transform="matrix(1,0,0,-1,0,0)"
         id="path29903" />
    </g>
    <path
       style=" stroke:none;fill-rule:nonzero;fill:rgb(0%,0%,0%);fill-opacity:1;"
       d="M 30.746094 141.570312 C 30.746094 140.773438 30.699219 139.976562 30.355469 139.242188 C 29.902344 138.273438 29.074219 138.117188 28.667969 138.117188 C 28.058594 138.117188 27.339844 138.382812 26.917969 139.304688 C 26.605469 139.992188 26.558594 140.773438 26.558594 141.570312 C 26.558594 142.320312 26.589844 143.210938 27.011719 143.976562 C 27.433594 144.773438 28.167969 144.976562 28.652344 144.976562 C 29.183594 144.976562 29.949219 144.773438 30.386719 143.820312 C 30.699219 143.132812 30.746094 142.351562 30.746094 141.570312 Z M 28.652344 144.757812 C 28.261719 144.757812 27.667969 144.507812 27.496094 143.554688 C 27.386719 142.960938 27.386719 142.039062 27.386719 141.445312 C 27.386719 140.804688 27.386719 140.148438 27.464844 139.617188 C 27.652344 138.429688 28.402344 138.335938 28.652344 138.335938 C 28.980469 138.335938 29.636719 138.523438 29.824219 139.507812 C 29.933594 140.070312 29.933594 140.820312 29.933594 141.445312 C 29.933594 142.195312 29.933594 142.867188 29.824219 143.507812 C 29.667969 144.460938 29.105469 144.757812 28.652344 144.757812 Z M 28.652344 144.757812 "
       id="path29907" />
    <path
       style=" stroke:none;fill-rule:nonzero;fill:rgb(0%,0%,0%);fill-opacity:1;"
       d="M 55.296875 142.089844 L 56.421875 142.089844 C 56.09375 143.558594 56 143.996094 56 144.667969 C 56 144.808594 56 145.074219 56.078125 145.417969 C 56.1875 145.855469 56.296875 145.917969 56.4375 145.917969 C 56.640625 145.917969 56.859375 145.746094 56.859375 145.542969 C 56.859375 145.480469 56.859375 145.464844 56.796875 145.324219 C 56.5 144.605469 56.5 143.949219 56.5 143.667969 C 56.5 143.152344 56.578125 142.605469 56.6875 142.089844 L 57.8125 142.089844 C 57.953125 142.089844 58.3125 142.089844 58.3125 141.746094 C 58.3125 141.511719 58.09375 141.511719 57.90625 141.511719 L 54.5625 141.511719 C 54.34375 141.511719 53.96875 141.511719 53.53125 141.980469 C 53.1875 142.371094 52.921875 142.824219 52.921875 142.871094 C 52.921875 142.886719 52.921875 142.980469 53.046875 142.980469 C 53.125 142.980469 53.140625 142.933594 53.203125 142.855469 C 53.6875 142.089844 54.265625 142.089844 54.46875 142.089844 L 55.03125 142.089844 C 54.71875 143.292969 54.1875 144.496094 53.765625 145.402344 C 53.6875 145.558594 53.6875 145.574219 53.6875 145.652344 C 53.6875 145.839844 53.84375 145.917969 53.96875 145.917969 C 54.265625 145.917969 54.34375 145.636719 54.46875 145.277344 C 54.609375 144.808594 54.609375 144.792969 54.734375 144.292969 Z M 55.296875 142.089844 "
       id="path29909" />
    <g
       clip-path="url(#clip3)"
       clip-rule="nonzero"
       id="g29913">
      <path
         style=" stroke:none;fill-rule:nonzero;fill:rgb(0%,0%,0%);fill-opacity:1;"
         d="M 63.058594 138.714844 C 63.105469 138.574219 63.105469 138.542969 63.105469 138.527344 C 63.105469 138.417969 63.027344 138.324219 62.917969 138.324219 C 62.839844 138.324219 62.777344 138.355469 62.746094 138.417969 L 59.277344 147.917969 C 59.230469 148.058594 59.230469 148.089844 59.230469 148.105469 C 59.230469 148.214844 59.324219 148.308594 59.433594 148.308594 C 59.558594 148.308594 59.589844 148.230469 59.652344 148.058594 Z M 63.058594 138.714844 "
         id="path29911" />
    </g>
    <path
       style=" stroke:none;fill-rule:nonzero;fill:rgb(0%,0%,0%);fill-opacity:1;"
       d="M 64.941406 145.042969 L 66.003906 144.011719 C 67.550781 142.636719 68.144531 142.105469 68.144531 141.105469 C 68.144531 139.964844 67.253906 139.167969 66.035156 139.167969 C 64.910156 139.167969 64.175781 140.089844 64.175781 140.980469 C 64.175781 141.527344 64.675781 141.527344 64.707031 141.527344 C 64.878906 141.527344 65.222656 141.417969 65.222656 140.996094 C 65.222656 140.746094 65.035156 140.480469 64.691406 140.480469 C 64.613281 140.480469 64.597656 140.480469 64.566406 140.496094 C 64.785156 139.839844 65.332031 139.480469 65.910156 139.480469 C 66.816406 139.480469 67.238281 140.292969 67.238281 141.105469 C 67.238281 141.902344 66.753906 142.683594 66.191406 143.308594 L 64.285156 145.433594 C 64.175781 145.542969 64.175781 145.574219 64.175781 145.808594 L 67.878906 145.808594 L 68.144531 144.074219 L 67.910156 144.074219 C 67.847656 144.371094 67.785156 144.808594 67.675781 144.964844 C 67.613281 145.042969 66.957031 145.042969 66.738281 145.042969 Z M 64.941406 145.042969 "
       id="path29915" />
    <path
       style=" stroke:none;fill-rule:nonzero;fill:rgb(0%,0%,0%);fill-opacity:1;"
       d="M 92.277344 138.90625 L 93.402344 138.90625 C 93.074219 140.375 92.980469 140.8125 92.980469 141.484375 C 92.980469 141.625 92.980469 141.890625 93.058594 142.234375 C 93.167969 142.671875 93.277344 142.734375 93.417969 142.734375 C 93.621094 142.734375 93.839844 142.5625 93.839844 142.359375 C 93.839844 142.296875 93.839844 142.28125 93.777344 142.140625 C 93.480469 141.421875 93.480469 140.765625 93.480469 140.484375 C 93.480469 139.96875 93.558594 139.421875 93.667969 138.90625 L 94.792969 138.90625 C 94.933594 138.90625 95.292969 138.90625 95.292969 138.5625 C 95.292969 138.328125 95.074219 138.328125 94.886719 138.328125 L 91.542969 138.328125 C 91.324219 138.328125 90.949219 138.328125 90.511719 138.796875 C 90.167969 139.1875 89.902344 139.640625 89.902344 139.6875 C 89.902344 139.703125 89.902344 139.796875 90.027344 139.796875 C 90.105469 139.796875 90.121094 139.75 90.183594 139.671875 C 90.667969 138.90625 91.246094 138.90625 91.449219 138.90625 L 92.011719 138.90625 C 91.699219 140.109375 91.167969 141.3125 90.746094 142.21875 C 90.667969 142.375 90.667969 142.390625 90.667969 142.46875 C 90.667969 142.65625 90.824219 142.734375 90.949219 142.734375 C 91.246094 142.734375 91.324219 142.453125 91.449219 142.09375 C 91.589844 141.625 91.589844 141.609375 91.714844 141.109375 Z M 92.277344 138.90625 "
       id="path29917" />
    <path
       style=" stroke:none;fill-rule:nonzero;fill:rgb(0%,0%,0%);fill-opacity:1;"
       d="M 117.054688 142.292969 C 117.867188 142.027344 118.445312 141.339844 118.445312 140.542969 C 118.445312 139.730469 117.570312 139.167969 116.617188 139.167969 C 115.617188 139.167969 114.851562 139.761719 114.851562 140.527344 C 114.851562 140.855469 115.070312 141.042969 115.367188 141.042969 C 115.664062 141.042969 115.867188 140.824219 115.867188 140.527344 C 115.867188 140.042969 115.398438 140.042969 115.257812 140.042969 C 115.554688 139.542969 116.210938 139.417969 116.570312 139.417969 C 116.992188 139.417969 117.539062 139.636719 117.539062 140.527344 C 117.539062 140.652344 117.507812 141.230469 117.257812 141.667969 C 116.960938 142.152344 116.617188 142.183594 116.367188 142.183594 C 116.289062 142.199219 116.054688 142.214844 115.976562 142.214844 C 115.898438 142.230469 115.835938 142.246094 115.835938 142.339844 C 115.835938 142.449219 115.898438 142.449219 116.070312 142.449219 L 116.507812 142.449219 C 117.320312 142.449219 117.695312 143.121094 117.695312 144.105469 C 117.695312 145.464844 117.007812 145.746094 116.570312 145.746094 C 116.132812 145.746094 115.382812 145.574219 115.039062 144.996094 C 115.382812 145.042969 115.695312 144.824219 115.695312 144.449219 C 115.695312 144.089844 115.429688 143.886719 115.148438 143.886719 C 114.898438 143.886719 114.585938 144.027344 114.585938 144.464844 C 114.585938 145.371094 115.507812 146.027344 116.601562 146.027344 C 117.820312 146.027344 118.726562 145.121094 118.726562 144.105469 C 118.726562 143.292969 118.085938 142.511719 117.054688 142.292969 Z M 117.054688 142.292969 "
       id="path29919" />
    <path
       style=" stroke:none;fill-rule:nonzero;fill:rgb(0%,0%,0%);fill-opacity:1;"
       d="M 121.785156 142.089844 L 122.910156 142.089844 C 122.582031 143.558594 122.488281 143.996094 122.488281 144.667969 C 122.488281 144.808594 122.488281 145.074219 122.566406 145.417969 C 122.675781 145.855469 122.785156 145.917969 122.925781 145.917969 C 123.128906 145.917969 123.347656 145.746094 123.347656 145.542969 C 123.347656 145.480469 123.347656 145.464844 123.285156 145.324219 C 122.988281 144.605469 122.988281 143.949219 122.988281 143.667969 C 122.988281 143.152344 123.066406 142.605469 123.175781 142.089844 L 124.300781 142.089844 C 124.441406 142.089844 124.800781 142.089844 124.800781 141.746094 C 124.800781 141.511719 124.582031 141.511719 124.394531 141.511719 L 121.050781 141.511719 C 120.832031 141.511719 120.457031 141.511719 120.019531 141.980469 C 119.675781 142.371094 119.410156 142.824219 119.410156 142.871094 C 119.410156 142.886719 119.410156 142.980469 119.535156 142.980469 C 119.613281 142.980469 119.628906 142.933594 119.691406 142.855469 C 120.175781 142.089844 120.753906 142.089844 120.957031 142.089844 L 121.519531 142.089844 C 121.207031 143.292969 120.675781 144.496094 120.253906 145.402344 C 120.175781 145.558594 120.175781 145.574219 120.175781 145.652344 C 120.175781 145.839844 120.332031 145.917969 120.457031 145.917969 C 120.753906 145.917969 120.832031 145.636719 120.957031 145.277344 C 121.097656 144.808594 121.097656 144.792969 121.222656 144.292969 Z M 121.785156 142.089844 "
       id="path29921" />
    <g
       clip-path="url(#clip4)"
       clip-rule="nonzero"
       id="g29925">
      <path
         style=" stroke:none;fill-rule:nonzero;fill:rgb(0%,0%,0%);fill-opacity:1;"
         d="M 129.546875 138.714844 C 129.59375 138.574219 129.59375 138.542969 129.59375 138.527344 C 129.59375 138.417969 129.515625 138.324219 129.40625 138.324219 C 129.328125 138.324219 129.265625 138.355469 129.234375 138.417969 L 125.765625 147.917969 C 125.71875 148.058594 125.71875 148.089844 125.71875 148.105469 C 125.71875 148.214844 125.8125 148.308594 125.921875 148.308594 C 126.046875 148.308594 126.078125 148.230469 126.140625 148.058594 Z M 129.546875 138.714844 "
         id="path29923" />
    </g>
    <path
       style=" stroke:none;fill-rule:nonzero;fill:rgb(0%,0%,0%);fill-opacity:1;"
       d="M 131.429688 145.042969 L 132.492188 144.011719 C 134.039062 142.636719 134.632812 142.105469 134.632812 141.105469 C 134.632812 139.964844 133.742188 139.167969 132.523438 139.167969 C 131.398438 139.167969 130.664062 140.089844 130.664062 140.980469 C 130.664062 141.527344 131.164062 141.527344 131.195312 141.527344 C 131.367188 141.527344 131.710938 141.417969 131.710938 140.996094 C 131.710938 140.746094 131.523438 140.480469 131.179688 140.480469 C 131.101562 140.480469 131.085938 140.480469 131.054688 140.496094 C 131.273438 139.839844 131.820312 139.480469 132.398438 139.480469 C 133.304688 139.480469 133.726562 140.292969 133.726562 141.105469 C 133.726562 141.902344 133.242188 142.683594 132.679688 143.308594 L 130.773438 145.433594 C 130.664062 145.542969 130.664062 145.574219 130.664062 145.808594 L 134.367188 145.808594 L 134.632812 144.074219 L 134.398438 144.074219 C 134.335938 144.371094 134.273438 144.808594 134.164062 144.964844 C 134.101562 145.042969 133.445312 145.042969 133.226562 145.042969 Z M 131.429688 145.042969 "
       id="path29927" />
    <path
       style=" stroke:none;fill-rule:nonzero;fill:rgb(0%,0%,0%);fill-opacity:1;"
       d="M 152.40625 143.992188 L 153.46875 142.960938 C 155.015625 141.585938 155.609375 141.054688 155.609375 140.054688 C 155.609375 138.914062 154.71875 138.117188 153.5 138.117188 C 152.375 138.117188 151.640625 139.039062 151.640625 139.929688 C 151.640625 140.476562 152.140625 140.476562 152.171875 140.476562 C 152.34375 140.476562 152.6875 140.367188 152.6875 139.945312 C 152.6875 139.695312 152.5 139.429688 152.15625 139.429688 C 152.078125 139.429688 152.0625 139.429688 152.03125 139.445312 C 152.25 138.789062 152.796875 138.429688 153.375 138.429688 C 154.28125 138.429688 154.703125 139.242188 154.703125 140.054688 C 154.703125 140.851562 154.21875 141.632812 153.65625 142.257812 L 151.75 144.382812 C 151.640625 144.492188 151.640625 144.523438 151.640625 144.757812 L 155.34375 144.757812 L 155.609375 143.023438 L 155.375 143.023438 C 155.3125 143.320312 155.25 143.757812 155.140625 143.914062 C 155.078125 143.992188 154.421875 143.992188 154.203125 143.992188 Z M 152.40625 143.992188 "
       id="path29929" />
    <path
       style=" stroke:none;fill-rule:nonzero;fill:rgb(0%,0%,0%);fill-opacity:1;"
       d="M 158.765625 141.039062 L 159.890625 141.039062 C 159.5625 142.507812 159.46875 142.945312 159.46875 143.617188 C 159.46875 143.757812 159.46875 144.023438 159.546875 144.367188 C 159.65625 144.804688 159.765625 144.867188 159.90625 144.867188 C 160.109375 144.867188 160.328125 144.695312 160.328125 144.492188 C 160.328125 144.429688 160.328125 144.414062 160.265625 144.273438 C 159.96875 143.554688 159.96875 142.898438 159.96875 142.617188 C 159.96875 142.101562 160.046875 141.554688 160.15625 141.039062 L 161.28125 141.039062 C 161.421875 141.039062 161.78125 141.039062 161.78125 140.695312 C 161.78125 140.460938 161.5625 140.460938 161.375 140.460938 L 158.03125 140.460938 C 157.8125 140.460938 157.4375 140.460938 157 140.929688 C 156.65625 141.320312 156.390625 141.773438 156.390625 141.820312 C 156.390625 141.835938 156.390625 141.929688 156.515625 141.929688 C 156.59375 141.929688 156.609375 141.882812 156.671875 141.804688 C 157.15625 141.039062 157.734375 141.039062 157.9375 141.039062 L 158.5 141.039062 C 158.1875 142.242188 157.65625 143.445312 157.234375 144.351562 C 157.15625 144.507812 157.15625 144.523438 157.15625 144.601562 C 157.15625 144.789062 157.3125 144.867188 157.4375 144.867188 C 157.734375 144.867188 157.8125 144.585938 157.9375 144.226562 C 158.078125 143.757812 158.078125 143.742188 158.203125 143.242188 Z M 158.765625 141.039062 "
       id="path29931" />
    <path
       style=" stroke:none;fill-rule:nonzero;fill:rgb(0%,0%,0%);fill-opacity:1;"
       d="M 11.9375 120.0625 C 11.9375 119.265625 11.890625 118.46875 11.546875 117.734375 C 11.09375 116.765625 10.265625 116.609375 9.859375 116.609375 C 9.25 116.609375 8.53125 116.875 8.109375 117.796875 C 7.796875 118.484375 7.75 119.265625 7.75 120.0625 C 7.75 120.8125 7.78125 121.703125 8.203125 122.46875 C 8.625 123.265625 9.359375 123.46875 9.84375 123.46875 C 10.375 123.46875 11.140625 123.265625 11.578125 122.3125 C 11.890625 121.625 11.9375 120.84375 11.9375 120.0625 Z M 9.84375 123.25 C 9.453125 123.25 8.859375 123 8.6875 122.046875 C 8.578125 121.453125 8.578125 120.53125 8.578125 119.9375 C 8.578125 119.296875 8.578125 118.640625 8.65625 118.109375 C 8.84375 116.921875 9.59375 116.828125 9.84375 116.828125 C 10.171875 116.828125 10.828125 117.015625 11.015625 118 C 11.125 118.5625 11.125 119.3125 11.125 119.9375 C 11.125 120.6875 11.125 121.359375 11.015625 122 C 10.859375 122.953125 10.296875 123.25 9.84375 123.25 Z M 9.84375 123.25 "
       id="path29933" />
    <path
       style=" stroke:none;fill-rule:nonzero;fill:rgb(0%,0%,0%);fill-opacity:1;"
       d="M 4.1875 71.101562 C 4.1875 70.304688 4.140625 69.507812 3.796875 68.773438 C 3.34375 67.804688 2.515625 67.648438 2.109375 67.648438 C 1.5 67.648438 0.78125 67.914062 0.359375 68.835938 C 0.046875 69.523438 0 70.304688 0 71.101562 C 0 71.851562 0.03125 72.742188 0.453125 73.507812 C 0.875 74.304688 1.609375 74.507812 2.09375 74.507812 C 2.625 74.507812 3.390625 74.304688 3.828125 73.351562 C 4.140625 72.664062 4.1875 71.882812 4.1875 71.101562 Z M 2.09375 74.289062 C 1.703125 74.289062 1.109375 74.039062 0.9375 73.085938 C 0.828125 72.492188 0.828125 71.570312 0.828125 70.976562 C 0.828125 70.335938 0.828125 69.679688 0.90625 69.148438 C 1.09375 67.960938 1.84375 67.867188 2.09375 67.867188 C 2.421875 67.867188 3.078125 68.054688 3.265625 69.039062 C 3.375 69.601562 3.375 70.351562 3.375 70.976562 C 3.375 71.726562 3.375 72.398438 3.265625 73.039062 C 3.109375 73.992188 2.546875 74.289062 2.09375 74.289062 Z M 2.09375 74.289062 "
       id="path29935" />
    <path
       style=" stroke:none;fill-rule:nonzero;fill:rgb(0%,0%,0%);fill-opacity:1;"
       d="M 6.496094 73.757812 C 6.496094 73.476562 6.261719 73.226562 5.980469 73.226562 C 5.683594 73.226562 5.449219 73.476562 5.449219 73.757812 C 5.449219 74.054688 5.683594 74.289062 5.980469 74.289062 C 6.261719 74.289062 6.496094 74.054688 6.496094 73.757812 Z M 6.496094 73.757812 "
       id="path29937" />
    <path
       style=" stroke:none;fill-rule:nonzero;fill:rgb(0%,0%,0%);fill-opacity:1;"
       d="M 11.828125 72.289062 C 11.828125 71.101562 11.015625 70.101562 9.9375 70.101562 C 9.46875 70.101562 9.03125 70.257812 8.671875 70.617188 L 8.671875 68.664062 C 8.875 68.726562 9.203125 68.789062 9.515625 68.789062 C 10.75 68.789062 11.453125 67.882812 11.453125 67.757812 C 11.453125 67.695312 11.421875 67.648438 11.34375 67.648438 C 11.34375 67.648438 11.3125 67.648438 11.265625 67.679688 C 11.0625 67.773438 10.578125 67.976562 9.90625 67.976562 C 9.515625 67.976562 9.046875 67.898438 8.578125 67.695312 C 8.5 67.664062 8.484375 67.664062 8.46875 67.664062 C 8.359375 67.664062 8.359375 67.742188 8.359375 67.898438 L 8.359375 70.851562 C 8.359375 71.023438 8.359375 71.101562 8.5 71.101562 C 8.578125 71.101562 8.59375 71.085938 8.640625 71.023438 C 8.75 70.867188 9.109375 70.320312 9.921875 70.320312 C 10.4375 70.320312 10.6875 70.773438 10.765625 70.960938 C 10.921875 71.335938 10.953125 71.710938 10.953125 72.210938 C 10.953125 72.570312 10.953125 73.164062 10.703125 73.585938 C 10.46875 73.976562 10.09375 74.226562 9.640625 74.226562 C 8.921875 74.226562 8.34375 73.695312 8.171875 73.117188 C 8.203125 73.117188 8.234375 73.132812 8.34375 73.132812 C 8.671875 73.132812 8.84375 72.882812 8.84375 72.648438 C 8.84375 72.398438 8.671875 72.148438 8.34375 72.148438 C 8.203125 72.148438 7.859375 72.226562 7.859375 72.679688 C 7.859375 73.539062 8.546875 74.507812 9.65625 74.507812 C 10.8125 74.507812 11.828125 73.554688 11.828125 72.289062 Z M 11.828125 72.289062 "
       id="path29939" />
    <path
       style=" stroke:none;fill-rule:nonzero;fill:rgb(0%,0%,0%);fill-opacity:1;"
       d="M 10.296875 18.957031 C 10.296875 18.707031 10.296875 18.691406 10.0625 18.691406 C 9.4375 19.332031 8.5625 19.332031 8.25 19.332031 L 8.25 19.644531 C 8.453125 19.644531 9.03125 19.644531 9.546875 19.378906 L 9.546875 24.550781 C 9.546875 24.910156 9.515625 25.019531 8.625 25.019531 L 8.3125 25.019531 L 8.3125 25.332031 C 8.65625 25.300781 9.515625 25.300781 9.921875 25.300781 C 10.3125 25.300781 11.1875 25.300781 11.53125 25.332031 L 11.53125 25.019531 L 11.21875 25.019531 C 10.3125 25.019531 10.296875 24.910156 10.296875 24.550781 Z M 10.296875 18.957031 "
       id="path29941" />
    <path
       style="fill:none;stroke-width:0.79725;stroke-linecap:round;stroke-linejoin:miter;stroke:rgb(0%,0%,69.018555%);stroke-opacity:1;stroke-miterlimit:10;"
       d="M 28.789062 -22.214844 C 28.789062 -22.214844 28.867188 -22.132812 28.917969 -22.136719 C 28.96875 -22.140625 28.996094 -22.199219 29.042969 -22.226562 C 29.082031 -22.25 29.132812 -22.257812 29.171875 -22.285156 C 29.226562 -22.328125 29.261719 -22.390625 29.300781 -22.449219 C 29.347656 -22.519531 29.382812 -22.59375 29.429688 -22.664062 C 29.46875 -22.726562 29.519531 -22.785156 29.558594 -22.847656 C 29.605469 -22.925781 29.640625 -23.007812 29.683594 -23.085938 C 29.726562 -23.171875 29.769531 -23.257812 29.8125 -23.347656 C 29.855469 -23.445312 29.898438 -23.546875 29.941406 -23.648438 C 29.984375 -23.757812 30.027344 -23.867188 30.070312 -23.976562 C 30.113281 -24.097656 30.15625 -24.222656 30.199219 -24.34375 C 30.242188 -24.46875 30.28125 -24.597656 30.324219 -24.722656 C 30.367188 -24.855469 30.410156 -24.984375 30.453125 -25.117188 C 30.5 -25.269531 30.539062 -25.421875 30.582031 -25.574219 C 30.625 -25.722656 30.667969 -25.867188 30.710938 -26.015625 C 30.757812 -26.183594 30.796875 -26.351562 30.839844 -26.519531 C 30.882812 -26.699219 30.921875 -26.875 30.964844 -27.054688 C 31.007812 -27.238281 31.050781 -27.425781 31.09375 -27.609375 C 31.136719 -27.804688 31.179688 -28.003906 31.222656 -28.199219 C 31.265625 -28.402344 31.308594 -28.609375 31.351562 -28.8125 C 31.394531 -29.027344 31.4375 -29.238281 31.480469 -29.453125 C 31.523438 -29.671875 31.5625 -29.894531 31.605469 -30.113281 C 31.648438 -30.347656 31.691406 -30.578125 31.734375 -30.8125 C 31.777344 -31.050781 31.820312 -31.289062 31.863281 -31.527344 C 31.90625 -31.773438 31.949219 -32.023438 31.992188 -32.269531 C 32.035156 -32.527344 32.078125 -32.789062 32.121094 -33.046875 C 32.164062 -33.3125 32.203125 -33.574219 32.246094 -33.839844 C 32.289062 -34.113281 32.332031 -34.390625 32.375 -34.664062 C 32.417969 -34.945312 32.460938 -35.226562 32.503906 -35.507812 C 32.546875 -35.796875 32.589844 -36.089844 32.632812 -36.378906 C 32.675781 -36.675781 32.71875 -36.972656 32.761719 -37.269531 C 32.804688 -37.574219 32.84375 -37.882812 32.886719 -38.1875 C 32.929688 -38.5 32.972656 -38.808594 33.015625 -39.121094 C 33.058594 -39.4375 33.101562 -39.753906 33.144531 -40.070312 C 33.1875 -40.398438 33.230469 -40.730469 33.273438 -41.058594 C 33.316406 -41.390625 33.359375 -41.726562 33.402344 -42.058594 C 33.445312 -42.402344 33.484375 -42.742188 33.527344 -43.085938 C 33.570312 -43.433594 33.613281 -43.777344 33.65625 -44.125 C 33.699219 -44.480469 33.742188 -44.832031 33.785156 -45.1875 C 33.828125 -45.546875 33.871094 -45.902344 33.914062 -46.261719 C 33.957031 -46.628906 34 -46.996094 34.042969 -47.363281 C 34.085938 -47.734375 34.125 -48.105469 34.167969 -48.476562 C 34.210938 -48.855469 34.253906 -49.230469 34.296875 -49.609375 C 34.339844 -49.992188 34.382812 -50.375 34.425781 -50.757812 C 34.46875 -51.144531 34.511719 -51.53125 34.554688 -51.917969 C 34.597656 -52.3125 34.640625 -52.710938 34.683594 -53.105469 C 34.726562 -53.5 34.765625 -53.898438 34.808594 -54.292969 C 34.851562 -54.695312 34.894531 -55.101562 34.9375 -55.503906 C 34.980469 -55.910156 35.023438 -56.320312 35.066406 -56.726562 C 35.109375 -57.136719 35.152344 -57.546875 35.195312 -57.957031 C 35.238281 -58.371094 35.28125 -58.789062 35.324219 -59.203125 C 35.367188 -59.625 35.40625 -60.042969 35.449219 -60.464844 C 35.492188 -60.886719 35.535156 -61.308594 35.578125 -61.730469 C 35.621094 -62.15625 35.664062 -62.582031 35.707031 -63.007812 C 35.75 -63.4375 35.792969 -63.863281 35.835938 -64.292969 C 35.878906 -64.726562 35.921875 -65.15625 35.964844 -65.589844 C 36.007812 -66.023438 36.046875 -66.460938 36.089844 -66.894531 C 36.132812 -67.332031 36.175781 -67.769531 36.21875 -68.207031 C 36.261719 -68.644531 36.304688 -69.085938 36.347656 -69.523438 C 36.390625 -69.964844 36.433594 -70.40625 36.476562 -70.847656 C 36.519531 -71.289062 36.5625 -71.734375 36.605469 -72.175781 C 36.648438 -72.621094 36.6875 -73.066406 36.730469 -73.511719 C 36.773438 -73.957031 36.816406 -74.402344 36.859375 -74.847656 C 36.902344 -75.292969 36.945312 -75.742188 36.988281 -76.1875 C 37.03125 -76.636719 37.074219 -77.085938 37.117188 -77.535156 C 37.160156 -77.984375 37.203125 -78.429688 37.246094 -78.878906 C 37.289062 -79.328125 37.328125 -79.777344 37.371094 -80.226562 C 37.453125 -81.125 37.542969 -82.023438 37.628906 -82.921875 C 37.671875 -83.371094 37.714844 -83.816406 37.757812 -84.265625 C 37.800781 -84.714844 37.84375 -85.167969 37.886719 -85.617188 C 37.929688 -86.066406 37.96875 -86.511719 38.011719 -86.960938 C 38.054688 -87.40625 38.097656 -87.855469 38.140625 -88.300781 C 38.183594 -88.746094 38.226562 -89.191406 38.269531 -89.636719 C 38.3125 -90.082031 38.355469 -90.523438 38.398438 -90.96875 C 38.441406 -91.410156 38.484375 -91.855469 38.527344 -92.296875 C 38.570312 -92.738281 38.609375 -93.179688 38.652344 -93.621094 C 38.695312 -94.058594 38.738281 -94.5 38.78125 -94.9375 C 38.824219 -95.375 38.867188 -95.8125 38.910156 -96.25 C 38.953125 -96.683594 38.996094 -97.121094 39.039062 -97.554688 C 39.082031 -97.984375 39.125 -98.417969 39.167969 -98.847656 C 39.210938 -99.277344 39.25 -99.707031 39.292969 -100.136719 C 39.335938 -100.5625 39.378906 -100.988281 39.421875 -101.414062 C 39.464844 -101.835938 39.507812 -102.257812 39.550781 -102.679688 C 39.59375 -103.097656 39.636719 -103.519531 39.679688 -103.9375 C 39.722656 -104.351562 39.765625 -104.769531 39.808594 -105.183594 C 39.851562 -105.597656 39.890625 -106.007812 39.933594 -106.421875 C 39.976562 -106.828125 40.019531 -107.238281 40.0625 -107.644531 C 40.105469 -108.046875 40.148438 -108.449219 40.191406 -108.851562 C 40.234375 -109.25 40.277344 -109.652344 40.320312 -110.050781 C 40.363281 -110.445312 40.402344 -110.839844 40.445312 -111.234375 C 40.488281 -111.625 40.53125 -112.011719 40.574219 -112.402344 C 40.617188 -112.789062 40.660156 -113.171875 40.703125 -113.558594 C 40.746094 -113.9375 40.789062 -114.316406 40.832031 -114.695312 C 40.875 -115.070312 40.917969 -115.445312 40.960938 -115.820312 C 41.003906 -116.1875 41.042969 -116.558594 41.085938 -116.925781 C 41.128906 -117.289062 41.171875 -117.652344 41.214844 -118.015625 C 41.257812 -118.375 41.292969 -118.734375 41.34375 -119.089844 C 41.382812 -119.371094 41.1875 -119.9375 41.472656 -119.933594 C 41.820312 -119.929688 41.558594 -119.242188 41.601562 -118.898438 C 41.644531 -118.558594 41.683594 -118.21875 41.726562 -117.878906 C 41.769531 -117.546875 41.8125 -117.210938 41.855469 -116.878906 C 41.898438 -116.550781 41.941406 -116.226562 41.984375 -115.898438 C 42.027344 -115.578125 42.070312 -115.261719 42.113281 -114.941406 C 42.15625 -114.628906 42.199219 -114.3125 42.242188 -114 C 42.285156 -113.695312 42.324219 -113.386719 42.367188 -113.082031 C 42.410156 -112.78125 42.453125 -112.484375 42.496094 -112.183594 C 42.539062 -111.890625 42.582031 -111.601562 42.625 -111.308594 C 42.667969 -111.023438 42.710938 -110.738281 42.753906 -110.453125 C 42.796875 -110.175781 42.839844 -109.894531 42.882812 -109.617188 C 42.921875 -109.347656 42.964844 -109.078125 43.007812 -108.808594 C 43.050781 -108.546875 43.09375 -108.28125 43.136719 -108.019531 C 43.179688 -107.765625 43.222656 -107.507812 43.265625 -107.253906 C 43.308594 -107.007812 43.351562 -106.757812 43.394531 -106.511719 C 43.4375 -106.269531 43.480469 -106.03125 43.523438 -105.789062 C 43.5625 -105.558594 43.605469 -105.324219 43.648438 -105.09375 C 43.6875 -104.871094 43.734375 -104.644531 43.777344 -104.421875 C 43.820312 -104.207031 43.863281 -103.988281 43.90625 -103.773438 C 43.949219 -103.566406 43.992188 -103.355469 44.035156 -103.148438 C 44.078125 -102.949219 44.121094 -102.75 44.164062 -102.550781 C 44.203125 -102.359375 44.246094 -102.164062 44.289062 -101.972656 C 44.328125 -101.789062 44.375 -101.605469 44.417969 -101.421875 C 44.460938 -101.246094 44.503906 -101.070312 44.546875 -100.894531 C 44.589844 -100.726562 44.632812 -100.5625 44.675781 -100.394531 C 44.71875 -100.234375 44.761719 -100.074219 44.804688 -99.914062 C 44.84375 -99.765625 44.886719 -99.613281 44.929688 -99.464844 C 44.96875 -99.320312 45.011719 -99.179688 45.058594 -99.035156 C 45.097656 -98.902344 45.140625 -98.765625 45.1875 -98.632812 C 45.226562 -98.507812 45.273438 -98.382812 45.316406 -98.257812 C 45.359375 -98.140625 45.402344 -98.019531 45.445312 -97.902344 C 45.484375 -97.792969 45.527344 -97.683594 45.570312 -97.574219 C 45.609375 -97.472656 45.652344 -97.371094 45.699219 -97.273438 C 45.738281 -97.179688 45.78125 -97.085938 45.828125 -96.996094 C 45.867188 -96.910156 45.910156 -96.824219 45.957031 -96.742188 C 45.996094 -96.664062 46.039062 -96.589844 46.085938 -96.515625 C 46.125 -96.445312 46.167969 -96.378906 46.210938 -96.3125 C 46.25 -96.25 46.292969 -96.191406 46.339844 -96.132812 C 46.378906 -96.082031 46.421875 -96.03125 46.46875 -95.980469 C 46.507812 -95.933594 46.550781 -95.890625 46.597656 -95.847656 C 46.636719 -95.808594 46.679688 -95.773438 46.726562 -95.742188 C 46.765625 -95.710938 46.808594 -95.683594 46.851562 -95.660156 C 46.890625 -95.636719 46.9375 -95.621094 46.980469 -95.605469 C 47.023438 -95.589844 47.066406 -95.578125 47.109375 -95.570312 C 47.152344 -95.5625 47.195312 -95.558594 47.238281 -95.558594 C 47.28125 -95.558594 47.324219 -95.5625 47.367188 -95.570312 C 47.410156 -95.578125 47.449219 -95.59375 47.492188 -95.609375 C 47.535156 -95.625 47.578125 -95.640625 47.621094 -95.664062 C 47.664062 -95.6875 47.707031 -95.714844 47.75 -95.746094 C 47.792969 -95.777344 47.835938 -95.8125 47.878906 -95.847656 C 47.921875 -95.886719 47.964844 -95.929688 48.007812 -95.972656 C 48.050781 -96.019531 48.089844 -96.070312 48.132812 -96.121094 C 48.175781 -96.175781 48.21875 -96.230469 48.261719 -96.289062 C 48.304688 -96.351562 48.347656 -96.414062 48.390625 -96.476562 C 48.433594 -96.546875 48.476562 -96.617188 48.519531 -96.6875 C 48.5625 -96.761719 48.605469 -96.835938 48.648438 -96.914062 C 48.691406 -96.996094 48.730469 -97.082031 48.773438 -97.164062 C 48.816406 -97.253906 48.859375 -97.34375 48.902344 -97.433594 C 48.945312 -97.53125 48.988281 -97.625 49.03125 -97.722656 C 49.074219 -97.824219 49.117188 -97.929688 49.160156 -98.03125 C 49.203125 -98.140625 49.246094 -98.246094 49.289062 -98.355469 C 49.332031 -98.46875 49.371094 -98.585938 49.414062 -98.699219 C 49.457031 -98.820312 49.5 -98.9375 49.542969 -99.058594 C 49.585938 -99.183594 49.628906 -99.3125 49.671875 -99.4375 C 49.714844 -99.570312 49.757812 -99.699219 49.800781 -99.832031 C 49.84375 -99.96875 49.886719 -100.105469 49.929688 -100.242188 C 49.972656 -100.382812 50.011719 -100.527344 50.054688 -100.667969 C 50.097656 -100.816406 50.140625 -100.964844 50.183594 -101.113281 C 50.226562 -101.265625 50.269531 -101.417969 50.3125 -101.570312 C 50.355469 -101.726562 50.398438 -101.882812 50.441406 -102.039062 C 50.484375 -102.199219 50.527344 -102.363281 50.570312 -102.523438 C 50.613281 -102.691406 50.652344 -102.855469 50.695312 -103.023438 C 50.738281 -103.195312 50.78125 -103.363281 50.824219 -103.535156 C 50.867188 -103.707031 50.910156 -103.882812 50.953125 -104.054688 C 50.996094 -104.234375 51.039062 -104.410156 51.082031 -104.589844 C 51.125 -104.773438 51.167969 -104.953125 51.210938 -105.136719 C 51.253906 -105.324219 51.292969 -105.507812 51.335938 -105.695312 C 51.378906 -105.882812 51.421875 -106.074219 51.464844 -106.261719 C 51.507812 -106.453125 51.550781 -106.644531 51.59375 -106.835938 C 51.636719 -107.03125 51.679688 -107.226562 51.722656 -107.421875 C 51.765625 -107.621094 51.808594 -107.816406 51.851562 -108.015625 C 51.894531 -108.214844 51.933594 -108.417969 51.976562 -108.617188 C 52.019531 -108.820312 52.0625 -109.023438 52.105469 -109.226562 C 52.148438 -109.433594 52.191406 -109.636719 52.234375 -109.84375 C 52.320312 -110.261719 52.40625 -110.675781 52.492188 -111.09375 C 52.535156 -111.304688 52.574219 -111.515625 52.617188 -111.726562 C 52.703125 -112.152344 52.789062 -112.582031 52.875 -113.007812 C 52.917969 -113.222656 52.960938 -113.4375 53.003906 -113.652344 C 53.046875 -113.867188 53.089844 -114.085938 53.132812 -114.300781 C 53.175781 -114.515625 53.214844 -114.734375 53.257812 -114.949219 C 53.300781 -115.167969 53.34375 -115.382812 53.386719 -115.601562 C 53.429688 -115.820312 53.472656 -116.039062 53.515625 -116.257812 C 53.601562 -116.691406 53.6875 -117.128906 53.773438 -117.5625 C 53.816406 -117.78125 53.855469 -118 53.898438 -118.21875 C 53.941406 -118.4375 53.984375 -118.652344 54.027344 -118.871094 C 54.070312 -119.085938 54.097656 -119.304688 54.15625 -119.519531 C 54.191406 -119.652344 54.148438 -119.917969 54.285156 -119.910156 C 54.503906 -119.898438 54.371094 -119.480469 54.414062 -119.265625 C 54.457031 -119.050781 54.496094 -118.835938 54.539062 -118.621094 C 54.621094 -118.195312 54.710938 -117.773438 54.796875 -117.347656 C 54.839844 -117.136719 54.882812 -116.929688 54.925781 -116.71875 C 54.96875 -116.511719 55.011719 -116.304688 55.054688 -116.097656 C 55.097656 -115.890625 55.136719 -115.6875 55.179688 -115.480469 C 55.222656 -115.277344 55.265625 -115.070312 55.308594 -114.867188 C 55.351562 -114.664062 55.394531 -114.464844 55.4375 -114.261719 C 55.480469 -114.0625 55.523438 -113.867188 55.566406 -113.667969 C 55.609375 -113.472656 55.652344 -113.273438 55.695312 -113.078125 C 55.738281 -112.882812 55.777344 -112.691406 55.820312 -112.496094 C 55.863281 -112.304688 55.90625 -112.117188 55.949219 -111.925781 C 55.992188 -111.738281 56.035156 -111.550781 56.078125 -111.363281 C 56.121094 -111.179688 56.164062 -110.996094 56.207031 -110.8125 C 56.25 -110.632812 56.292969 -110.449219 56.335938 -110.269531 C 56.378906 -110.09375 56.417969 -109.914062 56.460938 -109.738281 C 56.503906 -109.566406 56.546875 -109.390625 56.589844 -109.21875 C 56.632812 -109.046875 56.675781 -108.878906 56.71875 -108.707031 C 56.761719 -108.542969 56.804688 -108.375 56.847656 -108.210938 C 56.890625 -108.050781 56.933594 -107.886719 56.976562 -107.726562 C 57.015625 -107.570312 57.058594 -107.414062 57.101562 -107.257812 C 57.144531 -107.105469 57.1875 -106.949219 57.230469 -106.796875 C 57.273438 -106.648438 57.316406 -106.5 57.359375 -106.351562 C 57.402344 -106.207031 57.445312 -106.066406 57.488281 -105.921875 C 57.53125 -105.785156 57.574219 -105.644531 57.617188 -105.507812 C 57.65625 -105.375 57.699219 -105.238281 57.742188 -105.105469 C 57.78125 -104.976562 57.828125 -104.847656 57.871094 -104.71875 C 57.914062 -104.59375 57.957031 -104.46875 58 -104.34375 C 58.042969 -104.226562 58.085938 -104.105469 58.128906 -103.988281 C 58.171875 -103.875 58.214844 -103.761719 58.257812 -103.648438 C 58.296875 -103.539062 58.339844 -103.433594 58.382812 -103.324219 C 58.421875 -103.222656 58.46875 -103.117188 58.511719 -103.015625 C 58.554688 -102.917969 58.59375 -102.820312 58.640625 -102.722656 C 58.683594 -102.632812 58.726562 -102.539062 58.769531 -102.449219 C 58.808594 -102.363281 58.851562 -102.277344 58.894531 -102.191406 C 58.933594 -102.109375 58.976562 -102.027344 59.023438 -101.949219 C 59.0625 -101.875 59.105469 -101.800781 59.152344 -101.726562 C 59.191406 -101.65625 59.238281 -101.589844 59.28125 -101.523438 C 59.324219 -101.460938 59.363281 -101.394531 59.410156 -101.332031 C 59.449219 -101.273438 59.492188 -101.21875 59.535156 -101.164062 C 59.574219 -101.113281 59.617188 -101.0625 59.664062 -101.011719 C 59.703125 -100.964844 59.746094 -100.921875 59.792969 -100.878906 C 59.832031 -100.839844 59.875 -100.796875 59.921875 -100.761719 C 59.960938 -100.726562 60.003906 -100.695312 60.050781 -100.664062 C 60.089844 -100.636719 60.132812 -100.609375 60.175781 -100.585938 C 60.214844 -100.5625 60.261719 -100.542969 60.304688 -100.527344 C 60.347656 -100.511719 60.390625 -100.496094 60.433594 -100.484375 C 60.476562 -100.472656 60.519531 -100.464844 60.5625 -100.460938 C 60.605469 -100.457031 60.648438 -100.457031 60.691406 -100.457031 C 60.734375 -100.457031 60.773438 -100.460938 60.816406 -100.46875 C 60.859375 -100.476562 60.902344 -100.484375 60.945312 -100.5 C 60.988281 -100.515625 61.03125 -100.535156 61.074219 -100.554688 C 61.117188 -100.574219 61.160156 -100.597656 61.203125 -100.621094 C 61.246094 -100.648438 61.289062 -100.679688 61.332031 -100.710938 C 61.375 -100.742188 61.414062 -100.78125 61.457031 -100.816406 C 61.5 -100.855469 61.542969 -100.898438 61.585938 -100.941406 C 61.628906 -100.988281 61.671875 -101.035156 61.714844 -101.085938 C 61.757812 -101.136719 61.800781 -101.191406 61.84375 -101.246094 C 61.886719 -101.304688 61.929688 -101.363281 61.972656 -101.425781 C 62.015625 -101.488281 62.054688 -101.554688 62.097656 -101.621094 C 62.140625 -101.691406 62.183594 -101.761719 62.226562 -101.835938 C 62.269531 -101.910156 62.3125 -101.988281 62.355469 -102.066406 C 62.398438 -102.148438 62.441406 -102.234375 62.484375 -102.316406 C 62.527344 -102.40625 62.570312 -102.492188 62.613281 -102.582031 C 62.65625 -102.675781 62.695312 -102.773438 62.738281 -102.867188 C 62.78125 -102.96875 62.824219 -103.066406 62.867188 -103.167969 C 62.910156 -103.273438 62.953125 -103.378906 62.996094 -103.484375 C 63.039062 -103.59375 63.082031 -103.707031 63.125 -103.816406 C 63.167969 -103.933594 63.210938 -104.046875 63.253906 -104.164062 C 63.296875 -104.285156 63.335938 -104.40625 63.378906 -104.527344 C 63.421875 -104.652344 63.464844 -104.78125 63.507812 -104.90625 C 63.550781 -105.039062 63.59375 -105.167969 63.636719 -105.300781 C 63.679688 -105.4375 63.722656 -105.574219 63.765625 -105.710938 C 63.808594 -105.851562 63.851562 -105.996094 63.894531 -106.136719 C 63.9375 -106.28125 63.976562 -106.429688 64.019531 -106.574219 C 64.0625 -106.722656 64.105469 -106.875 64.148438 -107.023438 C 64.191406 -107.179688 64.234375 -107.332031 64.277344 -107.488281 C 64.320312 -107.648438 64.363281 -107.808594 64.40625 -107.96875 C 64.449219 -108.132812 64.492188 -108.292969 64.535156 -108.457031 C 64.578125 -108.625 64.617188 -108.792969 64.660156 -108.960938 C 64.703125 -109.132812 64.746094 -109.300781 64.789062 -109.472656 C 64.832031 -109.648438 64.875 -109.824219 64.917969 -110 C 64.960938 -110.179688 65.003906 -110.355469 65.046875 -110.535156 C 65.089844 -110.71875 65.132812 -110.902344 65.175781 -111.085938 C 65.21875 -111.269531 65.257812 -111.457031 65.300781 -111.640625 C 65.34375 -111.828125 65.386719 -112.019531 65.429688 -112.207031 C 65.472656 -112.398438 65.515625 -112.59375 65.558594 -112.785156 C 65.601562 -112.980469 65.644531 -113.175781 65.6875 -113.371094 C 65.730469 -113.566406 65.773438 -113.765625 65.816406 -113.960938 C 65.859375 -114.160156 65.898438 -114.363281 65.941406 -114.5625 C 65.984375 -114.765625 66.027344 -114.96875 66.070312 -115.171875 C 66.113281 -115.375 66.15625 -115.582031 66.199219 -115.785156 C 66.242188 -115.992188 66.285156 -116.199219 66.328125 -116.40625 C 66.371094 -116.613281 66.414062 -116.824219 66.457031 -117.03125 C 66.5 -117.242188 66.539062 -117.453125 66.582031 -117.664062 C 66.625 -117.875 66.667969 -118.089844 66.710938 -118.300781 C 66.753906 -118.515625 66.796875 -118.726562 66.839844 -118.941406 C 66.882812 -119.15625 66.898438 -119.378906 66.96875 -119.585938 C 67 -119.675781 67 -119.855469 67.097656 -119.84375 C 67.316406 -119.8125 67.179688 -119.410156 67.222656 -119.195312 C 67.390625 -118.324219 67.570312 -117.457031 67.738281 -116.585938 C 67.78125 -116.367188 67.820312 -116.148438 67.863281 -115.929688 C 67.90625 -115.710938 67.949219 -115.496094 67.992188 -115.277344 C 68.035156 -115.0625 68.078125 -114.84375 68.121094 -114.628906 C 68.164062 -114.410156 68.207031 -114.195312 68.25 -113.976562 C 68.292969 -113.761719 68.335938 -113.546875 68.378906 -113.332031 C 68.421875 -113.117188 68.460938 -112.902344 68.503906 -112.6875 C 68.546875 -112.472656 68.589844 -112.261719 68.632812 -112.046875 C 68.675781 -111.835938 68.71875 -111.621094 68.761719 -111.410156 C 68.804688 -111.199219 68.847656 -110.992188 68.890625 -110.78125 C 68.933594 -110.574219 68.976562 -110.363281 69.019531 -110.15625 C 69.0625 -109.949219 69.101562 -109.742188 69.144531 -109.535156 C 69.1875 -109.332031 69.230469 -109.125 69.273438 -108.921875 C 69.316406 -108.71875 69.359375 -108.519531 69.402344 -108.316406 C 69.445312 -108.117188 69.488281 -107.917969 69.53125 -107.71875 C 69.574219 -107.523438 69.617188 -107.324219 69.660156 -107.128906 C 69.703125 -106.9375 69.742188 -106.742188 69.785156 -106.550781 C 69.828125 -106.359375 69.871094 -106.167969 69.914062 -105.976562 C 69.957031 -105.789062 70 -105.601562 70.042969 -105.414062 C 70.085938 -105.230469 70.128906 -105.046875 70.171875 -104.863281 C 70.214844 -104.683594 70.257812 -104.503906 70.300781 -104.324219 C 70.34375 -104.148438 70.382812 -103.96875 70.425781 -103.792969 C 70.46875 -103.621094 70.511719 -103.449219 70.554688 -103.277344 C 70.597656 -103.109375 70.640625 -102.941406 70.683594 -102.773438 C 70.726562 -102.609375 70.769531 -102.445312 70.8125 -102.28125 C 70.855469 -102.121094 70.898438 -101.964844 70.941406 -101.804688 C 70.984375 -101.648438 71.023438 -101.496094 71.066406 -101.339844 C 71.105469 -101.191406 71.152344 -101.039062 71.195312 -100.890625 C 71.238281 -100.746094 71.28125 -100.601562 71.324219 -100.457031 C 71.367188 -100.316406 71.410156 -100.175781 71.453125 -100.035156 C 71.496094 -99.902344 71.539062 -99.765625 71.582031 -99.632812 C 71.621094 -99.503906 71.664062 -99.375 71.707031 -99.246094 C 71.746094 -99.125 71.792969 -99 71.835938 -98.878906 C 71.878906 -98.761719 71.917969 -98.640625 71.964844 -98.523438 C 72.003906 -98.414062 72.050781 -98.300781 72.09375 -98.191406 C 72.136719 -98.085938 72.179688 -97.980469 72.222656 -97.875 C 72.261719 -97.777344 72.304688 -97.675781 72.347656 -97.578125 C 72.386719 -97.484375 72.429688 -97.390625 72.476562 -97.296875 C 72.515625 -97.210938 72.558594 -97.125 72.605469 -97.039062 C 72.644531 -96.957031 72.691406 -96.878906 72.734375 -96.800781 C 72.777344 -96.726562 72.816406 -96.652344 72.863281 -96.578125 C 72.902344 -96.511719 72.945312 -96.445312 72.988281 -96.378906 C 73.027344 -96.320312 73.070312 -96.261719 73.117188 -96.203125 C 73.15625 -96.148438 73.199219 -96.09375 73.246094 -96.042969 C 73.285156 -95.996094 73.328125 -95.953125 73.375 -95.910156 C 73.414062 -95.871094 73.457031 -95.832031 73.503906 -95.796875 C 73.542969 -95.765625 73.585938 -95.730469 73.628906 -95.703125 C 73.667969 -95.675781 73.710938 -95.652344 73.757812 -95.632812 C 73.796875 -95.613281 73.84375 -95.597656 73.886719 -95.585938 C 73.929688 -95.574219 73.972656 -95.566406 74.015625 -95.5625 C 74.054688 -95.558594 74.097656 -95.558594 74.140625 -95.5625 C 74.183594 -95.566406 74.226562 -95.570312 74.269531 -95.582031 C 74.3125 -95.59375 74.355469 -95.609375 74.398438 -95.628906 C 74.441406 -95.648438 74.484375 -95.671875 74.527344 -95.699219 C 74.570312 -95.726562 74.613281 -95.757812 74.65625 -95.792969 C 74.699219 -95.828125 74.742188 -95.871094 74.78125 -95.910156 C 74.824219 -95.957031 74.867188 -96.003906 74.910156 -96.054688 C 74.953125 -96.109375 74.996094 -96.164062 75.039062 -96.21875 C 75.082031 -96.28125 75.125 -96.34375 75.167969 -96.410156 C 75.210938 -96.480469 75.253906 -96.550781 75.296875 -96.625 C 75.339844 -96.703125 75.378906 -96.785156 75.421875 -96.867188 C 75.464844 -96.957031 75.507812 -97.042969 75.550781 -97.132812 C 75.59375 -97.226562 75.636719 -97.324219 75.679688 -97.421875 C 75.722656 -97.527344 75.765625 -97.628906 75.808594 -97.734375 C 75.851562 -97.847656 75.894531 -97.964844 75.9375 -98.078125 C 75.980469 -98.199219 76.019531 -98.320312 76.0625 -98.441406 C 76.105469 -98.570312 76.148438 -98.703125 76.191406 -98.832031 C 76.234375 -98.96875 76.277344 -99.109375 76.320312 -99.246094 C 76.363281 -99.390625 76.40625 -99.539062 76.449219 -99.683594 C 76.492188 -99.839844 76.535156 -99.992188 76.578125 -100.148438 C 76.621094 -100.3125 76.660156 -100.476562 76.703125 -100.640625 C 76.746094 -100.8125 76.789062 -100.980469 76.832031 -101.152344 C 76.875 -101.332031 76.917969 -101.511719 76.960938 -101.691406 C 77.003906 -101.878906 77.046875 -102.066406 77.089844 -102.253906 C 77.132812 -102.449219 77.175781 -102.648438 77.21875 -102.84375 C 77.261719 -103.046875 77.300781 -103.253906 77.34375 -103.457031 C 77.386719 -103.667969 77.429688 -103.882812 77.472656 -104.09375 C 77.515625 -104.3125 77.558594 -104.535156 77.601562 -104.753906 C 77.644531 -104.980469 77.6875 -105.210938 77.730469 -105.4375 C 77.773438 -105.671875 77.816406 -105.910156 77.859375 -106.144531 C 77.902344 -106.386719 77.941406 -106.632812 77.984375 -106.875 C 78.027344 -107.125 78.070312 -107.378906 78.113281 -107.628906 C 78.15625 -107.886719 78.199219 -108.148438 78.242188 -108.40625 C 78.285156 -108.671875 78.328125 -108.941406 78.371094 -109.207031 C 78.414062 -109.480469 78.457031 -109.753906 78.5 -110.027344 C 78.542969 -110.308594 78.582031 -110.59375 78.625 -110.875 C 78.667969 -111.164062 78.710938 -111.449219 78.753906 -111.738281 C 78.796875 -112.035156 78.839844 -112.328125 78.882812 -112.625 C 78.925781 -112.929688 78.96875 -113.230469 79.011719 -113.535156 C 79.054688 -113.84375 79.097656 -114.15625 79.140625 -114.464844 C 79.183594 -114.78125 79.222656 -115.097656 79.265625 -115.414062 C 79.308594 -115.738281 79.351562 -116.058594 79.394531 -116.382812 C 79.4375 -116.710938 79.480469 -117.042969 79.523438 -117.371094 C 79.566406 -117.707031 79.609375 -118.046875 79.652344 -118.382812 C 79.695312 -118.726562 79.667969 -119.082031 79.78125 -119.410156 C 79.808594 -119.488281 79.824219 -119.636719 79.90625 -119.621094 C 80.253906 -119.546875 79.992188 -118.914062 80.035156 -118.558594 C 80.078125 -118.199219 80.121094 -117.835938 80.164062 -117.476562 C 80.207031 -117.109375 80.25 -116.746094 80.292969 -116.378906 C 80.335938 -116.007812 80.378906 -115.632812 80.421875 -115.261719 C 80.464844 -114.886719 80.503906 -114.507812 80.546875 -114.132812 C 80.589844 -113.75 80.632812 -113.371094 80.675781 -112.988281 C 80.71875 -112.601562 80.761719 -112.210938 80.804688 -111.824219 C 80.847656 -111.433594 80.890625 -111.039062 80.933594 -110.648438 C 80.976562 -110.25 81.019531 -109.855469 81.0625 -109.457031 C 81.105469 -109.054688 81.144531 -108.65625 81.1875 -108.253906 C 81.230469 -107.847656 81.273438 -107.445312 81.316406 -107.039062 C 81.359375 -106.628906 81.402344 -106.21875 81.445312 -105.808594 C 81.488281 -105.394531 81.53125 -104.980469 81.574219 -104.566406 C 81.617188 -104.148438 81.660156 -103.734375 81.703125 -103.316406 C 81.746094 -102.894531 81.785156 -102.476562 81.828125 -102.054688 C 81.871094 -101.628906 81.914062 -101.207031 81.957031 -100.78125 C 82 -100.355469 82.042969 -99.925781 82.085938 -99.5 C 82.128906 -99.070312 82.171875 -98.636719 82.214844 -98.207031 C 82.257812 -97.773438 82.300781 -97.339844 82.34375 -96.90625 C 82.386719 -96.46875 82.425781 -96.035156 82.46875 -95.597656 C 82.511719 -95.160156 82.554688 -94.722656 82.597656 -94.285156 C 82.640625 -93.84375 82.683594 -93.40625 82.726562 -92.964844 C 82.769531 -92.523438 82.8125 -92.082031 82.855469 -91.640625 C 82.898438 -91.195312 82.941406 -90.753906 82.984375 -90.308594 C 83.027344 -89.863281 83.066406 -89.417969 83.109375 -88.972656 C 83.195312 -88.078125 83.28125 -87.1875 83.367188 -86.292969 C 83.410156 -85.84375 83.453125 -85.394531 83.496094 -84.945312 C 83.539062 -84.496094 83.582031 -84.050781 83.625 -83.601562 C 83.667969 -83.152344 83.707031 -82.703125 83.75 -82.253906 C 83.917969 -80.457031 84.09375 -78.660156 84.265625 -76.863281 C 84.308594 -76.417969 84.347656 -75.96875 84.390625 -75.523438 C 84.433594 -75.078125 84.476562 -74.628906 84.519531 -74.183594 C 84.5625 -73.738281 84.605469 -73.292969 84.648438 -72.847656 C 84.691406 -72.402344 84.734375 -71.960938 84.777344 -71.515625 C 84.820312 -71.074219 84.863281 -70.628906 84.90625 -70.1875 C 84.949219 -69.746094 84.988281 -69.308594 85.03125 -68.867188 C 85.074219 -68.429688 85.117188 -67.992188 85.160156 -67.554688 C 85.203125 -67.117188 85.246094 -66.683594 85.289062 -66.246094 C 85.332031 -65.8125 85.375 -65.378906 85.417969 -64.945312 C 85.460938 -64.515625 85.503906 -64.082031 85.546875 -63.652344 C 85.589844 -63.226562 85.628906 -62.796875 85.671875 -62.371094 C 85.714844 -61.949219 85.757812 -61.523438 85.800781 -61.101562 C 85.84375 -60.679688 85.886719 -60.261719 85.929688 -59.839844 C 85.972656 -59.421875 86.015625 -59.003906 86.058594 -58.585938 C 86.101562 -58.171875 86.144531 -57.757812 86.1875 -57.34375 C 86.230469 -56.9375 86.269531 -56.527344 86.3125 -56.121094 C 86.355469 -55.714844 86.398438 -55.3125 86.441406 -54.90625 C 86.484375 -54.507812 86.527344 -54.105469 86.570312 -53.707031 C 86.613281 -53.308594 86.65625 -52.914062 86.699219 -52.515625 C 86.742188 -52.125 86.785156 -51.734375 86.828125 -51.34375 C 86.871094 -50.957031 86.910156 -50.574219 86.953125 -50.1875 C 86.996094 -49.808594 87.039062 -49.425781 87.082031 -49.046875 C 87.125 -48.671875 87.167969 -48.300781 87.210938 -47.925781 C 87.253906 -47.554688 87.296875 -47.1875 87.339844 -46.816406 C 87.382812 -46.453125 87.425781 -46.089844 87.46875 -45.726562 C 87.511719 -45.367188 87.550781 -45.011719 87.59375 -44.652344 C 87.636719 -44.304688 87.679688 -43.953125 87.722656 -43.605469 C 87.765625 -43.261719 87.808594 -42.914062 87.851562 -42.570312 C 87.894531 -42.234375 87.9375 -41.894531 87.980469 -41.558594 C 88.023438 -41.226562 88.066406 -40.898438 88.109375 -40.566406 C 88.148438 -40.246094 88.191406 -39.921875 88.234375 -39.601562 C 88.277344 -39.285156 88.320312 -38.96875 88.363281 -38.652344 C 88.40625 -38.34375 88.449219 -38.039062 88.492188 -37.730469 C 88.535156 -37.429688 88.578125 -37.125 88.621094 -36.824219 C 88.664062 -36.53125 88.707031 -36.238281 88.75 -35.945312 C 88.792969 -35.65625 88.832031 -35.371094 88.875 -35.082031 C 88.914062 -34.804688 88.960938 -34.53125 89.003906 -34.253906 C 89.046875 -33.984375 89.089844 -33.710938 89.132812 -33.441406 C 89.175781 -33.179688 89.21875 -32.921875 89.261719 -32.660156 C 89.304688 -32.40625 89.347656 -32.152344 89.390625 -31.898438 C 89.429688 -31.65625 89.472656 -31.410156 89.515625 -31.167969 C 89.558594 -30.929688 89.597656 -30.691406 89.644531 -30.453125 C 89.683594 -30.234375 89.730469 -30.011719 89.773438 -29.792969 C 89.816406 -29.574219 89.859375 -29.355469 89.902344 -29.136719 C 89.941406 -28.925781 89.984375 -28.71875 90.027344 -28.507812 C 90.066406 -28.308594 90.113281 -28.113281 90.15625 -27.914062 C 90.199219 -27.71875 90.238281 -27.527344 90.285156 -27.332031 C 90.324219 -27.152344 90.367188 -26.96875 90.414062 -26.789062 C 90.457031 -26.617188 90.5 -26.449219 90.542969 -26.277344 C 90.582031 -26.117188 90.625 -25.953125 90.667969 -25.792969 C 90.707031 -25.640625 90.75 -25.484375 90.796875 -25.332031 C 90.835938 -25.191406 90.882812 -25.050781 90.925781 -24.910156 C 90.96875 -24.777344 91.007812 -24.644531 91.054688 -24.511719 C 91.09375 -24.394531 91.140625 -24.28125 91.183594 -24.167969 C 91.226562 -24.050781 91.261719 -23.933594 91.308594 -23.816406 C 91.347656 -23.714844 91.394531 -23.613281 91.4375 -23.511719 C 91.480469 -23.414062 91.523438 -23.320312 91.566406 -23.222656 C 91.609375 -23.132812 91.648438 -23.039062 91.695312 -22.949219 C 91.734375 -22.871094 91.777344 -22.796875 91.824219 -22.722656 C 91.863281 -22.660156 91.902344 -22.597656 91.949219 -22.539062 C 91.988281 -22.492188 92.039062 -22.453125 92.078125 -22.40625 C 92.125 -22.347656 92.144531 -22.261719 92.207031 -22.21875 C 92.242188 -22.195312 92.296875 -22.214844 92.335938 -22.195312 C 92.386719 -22.167969 92.429688 -22.125 92.464844 -22.078125 C 92.523438 -22 92.519531 -21.882812 92.589844 -21.8125 C 92.621094 -21.777344 92.671875 -21.726562 92.71875 -21.746094 C 92.871094 -21.8125 92.722656 -22.117188 92.847656 -22.226562 C 92.878906 -22.253906 92.933594 -22.242188 92.976562 -22.246094 C 93.019531 -22.25 93.066406 -22.234375 93.105469 -22.257812 C 93.167969 -22.292969 93.179688 -22.378906 93.230469 -22.433594 C 93.269531 -22.476562 93.320312 -22.503906 93.359375 -22.546875 C 93.410156 -22.605469 93.445312 -22.679688 93.488281 -22.746094 C 93.53125 -22.820312 93.574219 -22.894531 93.617188 -22.96875 C 93.664062 -23.054688 93.703125 -23.144531 93.746094 -23.230469 C 93.785156 -23.316406 93.832031 -23.398438 93.871094 -23.484375 C 93.917969 -23.589844 93.957031 -23.699219 94 -23.804688 C 94.042969 -23.917969 94.085938 -24.035156 94.128906 -24.148438 C 94.171875 -24.265625 94.214844 -24.382812 94.257812 -24.503906 C 94.304688 -24.640625 94.34375 -24.777344 94.386719 -24.914062 C 94.429688 -25.054688 94.46875 -25.191406 94.511719 -25.332031 C 94.554688 -25.480469 94.597656 -25.628906 94.640625 -25.777344 C 94.683594 -25.941406 94.726562 -26.101562 94.769531 -26.265625 C 94.8125 -26.441406 94.855469 -26.613281 94.898438 -26.789062 C 94.941406 -26.96875 94.984375 -27.152344 95.027344 -27.332031 C 95.070312 -27.519531 95.109375 -27.707031 95.152344 -27.894531 C 95.195312 -28.09375 95.238281 -28.296875 95.28125 -28.496094 C 95.324219 -28.707031 95.367188 -28.921875 95.410156 -29.132812 C 95.453125 -29.347656 95.496094 -29.566406 95.539062 -29.78125 C 95.582031 -30.007812 95.625 -30.234375 95.667969 -30.460938 C 95.710938 -30.695312 95.75 -30.929688 95.792969 -31.164062 C 95.835938 -31.40625 95.878906 -31.648438 95.921875 -31.890625 C 95.964844 -32.144531 96.007812 -32.402344 96.050781 -32.65625 C 96.09375 -32.917969 96.136719 -33.175781 96.179688 -33.4375 C 96.222656 -33.703125 96.265625 -33.972656 96.308594 -34.238281 C 96.351562 -34.515625 96.390625 -34.796875 96.433594 -35.074219 C 96.476562 -35.359375 96.519531 -35.648438 96.5625 -35.933594 C 96.605469 -36.226562 96.648438 -36.515625 96.691406 -36.808594 C 96.734375 -37.113281 96.777344 -37.414062 96.820312 -37.71875 C 96.863281 -38.027344 96.90625 -38.335938 96.949219 -38.644531 C 96.992188 -38.960938 97.03125 -39.277344 97.074219 -39.59375 C 97.117188 -39.914062 97.160156 -40.238281 97.203125 -40.558594 C 97.246094 -40.886719 97.289062 -41.21875 97.332031 -41.546875 C 97.375 -41.886719 97.417969 -42.222656 97.460938 -42.5625 C 97.503906 -42.90625 97.546875 -43.253906 97.589844 -43.597656 C 97.632812 -43.945312 97.671875 -44.292969 97.714844 -44.640625 C 97.757812 -44.996094 97.800781 -45.355469 97.84375 -45.710938 C 97.886719 -46.074219 97.929688 -46.441406 97.972656 -46.804688 C 98.015625 -47.171875 98.058594 -47.542969 98.101562 -47.910156 C 98.144531 -48.285156 98.1875 -48.660156 98.230469 -49.035156 C 98.273438 -49.414062 98.3125 -49.792969 98.355469 -50.171875 C 98.398438 -50.558594 98.441406 -50.941406 98.484375 -51.328125 C 98.527344 -51.71875 98.570312 -52.109375 98.613281 -52.5 C 98.65625 -52.898438 98.699219 -53.292969 98.742188 -53.691406 C 98.785156 -54.089844 98.828125 -54.492188 98.871094 -54.890625 C 98.914062 -55.292969 98.953125 -55.699219 98.996094 -56.101562 C 99.039062 -56.511719 99.082031 -56.921875 99.125 -57.332031 C 99.167969 -57.746094 99.210938 -58.160156 99.253906 -58.574219 C 99.296875 -58.992188 99.339844 -59.410156 99.382812 -59.828125 C 99.425781 -60.246094 99.46875 -60.667969 99.511719 -61.085938 C 99.554688 -61.507812 99.59375 -61.933594 99.636719 -62.355469 C 99.679688 -62.785156 99.722656 -63.210938 99.765625 -63.640625 C 99.808594 -64.070312 99.851562 -64.503906 99.894531 -64.933594 C 99.9375 -65.367188 99.980469 -65.796875 100.023438 -66.230469 C 100.066406 -66.667969 100.109375 -67.101562 100.152344 -67.539062 C 100.195312 -67.976562 100.234375 -68.414062 100.277344 -68.851562 C 100.320312 -69.292969 100.363281 -69.730469 100.40625 -70.171875 C 100.449219 -70.617188 100.492188 -71.058594 100.535156 -71.503906 C 100.578125 -71.945312 100.621094 -72.390625 100.664062 -72.832031 C 100.707031 -73.277344 100.75 -73.726562 100.792969 -74.171875 C 100.835938 -74.617188 100.875 -75.066406 100.917969 -75.511719 C 100.960938 -75.957031 101.003906 -76.40625 101.046875 -76.851562 C 101.089844 -77.300781 101.132812 -77.75 101.175781 -78.199219 C 101.21875 -78.648438 101.261719 -79.09375 101.304688 -79.542969 C 101.347656 -79.992188 101.390625 -80.441406 101.433594 -80.890625 C 101.476562 -81.339844 101.515625 -81.789062 101.558594 -82.238281 C 101.640625 -83.136719 101.730469 -84.035156 101.816406 -84.933594 C 101.902344 -85.828125 101.988281 -86.726562 102.074219 -87.621094 C 102.117188 -88.066406 102.15625 -88.515625 102.199219 -88.960938 C 102.28125 -89.847656 102.371094 -90.738281 102.457031 -91.625 C 102.5 -92.066406 102.542969 -92.507812 102.585938 -92.949219 C 102.628906 -93.390625 102.671875 -93.828125 102.714844 -94.269531 C 102.757812 -94.707031 102.796875 -95.148438 102.839844 -95.585938 C 102.882812 -96.023438 102.925781 -96.457031 102.96875 -96.894531 C 103.011719 -97.328125 103.054688 -97.757812 103.097656 -98.191406 C 103.140625 -98.621094 103.183594 -99.054688 103.226562 -99.484375 C 103.269531 -99.910156 103.3125 -100.339844 103.355469 -100.765625 C 103.398438 -101.191406 103.4375 -101.613281 103.480469 -102.039062 C 103.523438 -102.460938 103.566406 -102.878906 103.609375 -103.300781 C 103.652344 -103.71875 103.695312 -104.136719 103.738281 -104.554688 C 103.78125 -104.96875 103.824219 -105.378906 103.867188 -105.792969 C 103.910156 -106.203125 103.953125 -106.613281 103.996094 -107.023438 C 104.039062 -107.429688 104.078125 -107.835938 104.121094 -108.242188 C 104.164062 -108.644531 104.207031 -109.042969 104.25 -109.445312 C 104.292969 -109.84375 104.335938 -110.238281 104.378906 -110.636719 C 104.421875 -111.027344 104.464844 -111.421875 104.507812 -111.8125 C 104.550781 -112.199219 104.59375 -112.585938 104.636719 -112.972656 C 104.679688 -113.355469 104.71875 -113.738281 104.761719 -114.121094 C 104.804688 -114.496094 104.847656 -114.875 104.890625 -115.25 C 104.933594 -115.621094 104.976562 -115.996094 105.019531 -116.367188 C 105.0625 -116.734375 105.105469 -117.097656 105.148438 -117.464844 C 105.191406 -117.824219 105.230469 -118.1875 105.273438 -118.546875 C 105.316406 -118.902344 105.054688 -119.523438 105.402344 -119.609375 C 105.476562 -119.628906 105.503906 -119.492188 105.53125 -119.421875 C 105.652344 -119.097656 105.617188 -118.738281 105.660156 -118.394531 C 105.703125 -118.058594 105.746094 -117.71875 105.789062 -117.382812 C 105.832031 -117.054688 105.871094 -116.722656 105.914062 -116.394531 C 105.957031 -116.070312 106 -115.75 106.042969 -115.425781 C 106.085938 -115.109375 106.128906 -114.792969 106.171875 -114.476562 C 106.214844 -114.164062 106.257812 -113.855469 106.300781 -113.542969 C 106.34375 -113.242188 106.386719 -112.9375 106.429688 -112.636719 C 106.472656 -112.339844 106.511719 -112.046875 106.554688 -111.75 C 106.597656 -111.460938 106.640625 -111.171875 106.683594 -110.882812 C 106.726562 -110.601562 106.769531 -110.320312 106.8125 -110.039062 C 106.855469 -109.765625 106.898438 -109.488281 106.941406 -109.214844 C 106.984375 -108.949219 107.027344 -108.683594 107.070312 -108.417969 C 107.113281 -108.160156 107.152344 -107.898438 107.195312 -107.640625 C 107.238281 -107.386719 107.28125 -107.136719 107.324219 -106.882812 C 107.367188 -106.640625 107.410156 -106.394531 107.453125 -106.152344 C 107.496094 -105.917969 107.539062 -105.679688 107.582031 -105.445312 C 107.625 -105.21875 107.667969 -104.988281 107.710938 -104.761719 C 107.75 -104.542969 107.792969 -104.320312 107.835938 -104.101562 C 107.875 -103.890625 107.921875 -103.675781 107.964844 -103.464844 C 108.007812 -103.261719 108.050781 -103.054688 108.09375 -102.851562 C 108.136719 -102.65625 108.179688 -102.457031 108.222656 -102.261719 C 108.265625 -102.074219 108.308594 -101.886719 108.351562 -101.699219 C 108.390625 -101.519531 108.433594 -101.339844 108.476562 -101.160156 C 108.515625 -100.988281 108.5625 -100.816406 108.605469 -100.644531 C 108.648438 -100.480469 108.691406 -100.320312 108.734375 -100.15625 C 108.777344 -100 108.820312 -99.847656 108.863281 -99.691406 C 108.90625 -99.542969 108.949219 -99.398438 108.992188 -99.25 C 109.03125 -99.113281 109.074219 -98.972656 109.117188 -98.835938 C 109.15625 -98.707031 109.199219 -98.574219 109.246094 -98.445312 C 109.285156 -98.324219 109.332031 -98.203125 109.375 -98.082031 C 109.417969 -97.96875 109.457031 -97.851562 109.503906 -97.738281 C 109.542969 -97.632812 109.589844 -97.53125 109.632812 -97.425781 C 109.671875 -97.328125 109.714844 -97.230469 109.757812 -97.136719 C 109.796875 -97.046875 109.839844 -96.957031 109.886719 -96.867188 C 109.925781 -96.785156 109.96875 -96.707031 110.015625 -96.628906 C 110.054688 -96.554688 110.097656 -96.480469 110.144531 -96.410156 C 110.183594 -96.347656 110.230469 -96.285156 110.273438 -96.222656 C 110.3125 -96.164062 110.355469 -96.109375 110.398438 -96.054688 C 110.4375 -96.003906 110.480469 -95.957031 110.527344 -95.910156 C 110.566406 -95.867188 110.609375 -95.828125 110.65625 -95.792969 C 110.695312 -95.757812 110.738281 -95.726562 110.785156 -95.699219 C 110.824219 -95.671875 110.867188 -95.648438 110.914062 -95.628906 C 110.953125 -95.609375 110.996094 -95.59375 111.039062 -95.582031 C 111.082031 -95.570312 111.125 -95.566406 111.167969 -95.5625 C 111.210938 -95.558594 111.253906 -95.558594 111.296875 -95.5625 C 111.339844 -95.566406 111.382812 -95.574219 111.425781 -95.585938 C 111.46875 -95.597656 111.511719 -95.613281 111.554688 -95.632812 C 111.597656 -95.652344 111.636719 -95.675781 111.679688 -95.703125 C 111.722656 -95.730469 111.765625 -95.761719 111.808594 -95.792969 C 111.851562 -95.828125 111.894531 -95.867188 111.9375 -95.90625 C 111.980469 -95.949219 112.023438 -95.996094 112.066406 -96.042969 C 112.109375 -96.09375 112.152344 -96.144531 112.195312 -96.199219 C 112.238281 -96.257812 112.277344 -96.316406 112.320312 -96.378906 C 112.363281 -96.445312 112.40625 -96.511719 112.449219 -96.578125 C 112.492188 -96.648438 112.535156 -96.722656 112.578125 -96.796875 C 112.621094 -96.875 112.664062 -96.953125 112.707031 -97.035156 C 112.75 -97.121094 112.792969 -97.207031 112.835938 -97.296875 C 112.878906 -97.386719 112.917969 -97.480469 112.960938 -97.574219 C 113.003906 -97.671875 113.046875 -97.773438 113.089844 -97.871094 C 113.132812 -97.976562 113.175781 -98.082031 113.21875 -98.1875 C 113.261719 -98.300781 113.304688 -98.410156 113.347656 -98.523438 C 113.390625 -98.640625 113.433594 -98.757812 113.476562 -98.875 C 113.519531 -98.996094 113.558594 -99.121094 113.601562 -99.242188 C 113.644531 -99.371094 113.6875 -99.5 113.730469 -99.628906 C 113.773438 -99.761719 113.816406 -99.898438 113.859375 -100.03125 C 113.902344 -100.171875 113.945312 -100.3125 113.988281 -100.453125 C 114.03125 -100.597656 114.074219 -100.742188 114.117188 -100.886719 C 114.160156 -101.035156 114.199219 -101.1875 114.242188 -101.335938 C 114.285156 -101.492188 114.328125 -101.644531 114.371094 -101.800781 C 114.414062 -101.960938 114.457031 -102.117188 114.5 -102.277344 C 114.542969 -102.441406 114.585938 -102.605469 114.628906 -102.769531 C 114.671875 -102.9375 114.714844 -103.105469 114.757812 -103.273438 C 114.800781 -103.445312 114.839844 -103.617188 114.882812 -103.789062 C 114.925781 -103.964844 114.96875 -104.144531 115.011719 -104.320312 C 115.054688 -104.5 115.097656 -104.679688 115.140625 -104.859375 C 115.183594 -105.042969 115.226562 -105.226562 115.269531 -105.410156 C 115.3125 -105.597656 115.355469 -105.785156 115.398438 -105.972656 C 115.441406 -106.164062 115.480469 -106.351562 115.523438 -106.542969 C 115.566406 -106.738281 115.609375 -106.929688 115.652344 -107.125 C 115.695312 -107.320312 115.738281 -107.519531 115.78125 -107.714844 C 115.824219 -107.914062 115.867188 -108.113281 115.910156 -108.3125 C 115.953125 -108.515625 115.996094 -108.714844 116.039062 -108.917969 C 116.082031 -109.121094 116.121094 -109.328125 116.164062 -109.53125 C 116.207031 -109.738281 116.25 -109.941406 116.292969 -110.148438 C 116.335938 -110.355469 116.378906 -110.566406 116.421875 -110.773438 C 116.464844 -110.984375 116.507812 -111.195312 116.550781 -111.40625 C 116.59375 -111.617188 116.636719 -111.832031 116.679688 -112.042969 C 116.722656 -112.253906 116.761719 -112.46875 116.804688 -112.679688 C 116.847656 -112.894531 116.890625 -113.109375 116.933594 -113.324219 C 117.0625 -113.972656 117.191406 -114.621094 117.320312 -115.269531 C 117.363281 -115.488281 117.402344 -115.703125 117.445312 -115.921875 C 117.488281 -116.140625 117.53125 -116.359375 117.574219 -116.578125 C 117.617188 -116.796875 117.660156 -117.011719 117.703125 -117.230469 C 117.746094 -117.449219 117.789062 -117.667969 117.832031 -117.886719 C 117.875 -118.105469 117.917969 -118.320312 117.960938 -118.539062 C 118.003906 -118.753906 118.042969 -118.972656 118.085938 -119.1875 C 118.128906 -119.40625 117.996094 -119.808594 118.214844 -119.839844 C 118.304688 -119.851562 118.3125 -119.679688 118.34375 -119.59375 C 118.417969 -119.386719 118.429688 -119.164062 118.472656 -118.949219 C 118.515625 -118.734375 118.558594 -118.523438 118.601562 -118.308594 C 118.644531 -118.097656 118.683594 -117.882812 118.726562 -117.671875 C 118.769531 -117.460938 118.8125 -117.25 118.855469 -117.039062 C 118.898438 -116.832031 118.941406 -116.621094 118.984375 -116.414062 C 119.027344 -116.207031 119.070312 -116 119.113281 -115.792969 C 119.15625 -115.589844 119.199219 -115.382812 119.242188 -115.179688 C 119.285156 -114.976562 119.324219 -114.773438 119.367188 -114.570312 C 119.410156 -114.371094 119.453125 -114.167969 119.496094 -113.96875 C 119.539062 -113.769531 119.582031 -113.574219 119.625 -113.375 C 119.667969 -113.179688 119.710938 -112.984375 119.753906 -112.789062 C 119.796875 -112.597656 119.839844 -112.40625 119.882812 -112.214844 C 119.925781 -112.027344 119.964844 -111.835938 120.007812 -111.648438 C 120.050781 -111.460938 120.09375 -111.277344 120.136719 -111.089844 C 120.179688 -110.90625 120.222656 -110.726562 120.265625 -110.542969 C 120.308594 -110.363281 120.351562 -110.1875 120.394531 -110.007812 C 120.4375 -109.832031 120.480469 -109.65625 120.523438 -109.480469 C 120.566406 -109.308594 120.605469 -109.136719 120.648438 -108.964844 C 120.6875 -108.796875 120.734375 -108.632812 120.777344 -108.464844 C 120.820312 -108.300781 120.863281 -108.136719 120.90625 -107.972656 C 120.949219 -107.8125 120.992188 -107.65625 121.035156 -107.496094 C 121.078125 -107.339844 121.117188 -107.1875 121.160156 -107.03125 C 121.203125 -106.878906 121.246094 -106.730469 121.289062 -106.578125 C 121.332031 -106.433594 121.375 -106.285156 121.417969 -106.140625 C 121.460938 -106 121.503906 -105.855469 121.546875 -105.714844 C 121.589844 -105.578125 121.632812 -105.441406 121.675781 -105.304688 C 121.714844 -105.175781 121.757812 -105.042969 121.800781 -104.914062 C 121.84375 -104.785156 121.886719 -104.660156 121.929688 -104.53125 C 121.972656 -104.410156 122.015625 -104.289062 122.058594 -104.167969 C 122.101562 -104.050781 122.144531 -103.9375 122.1875 -103.820312 C 122.230469 -103.707031 122.273438 -103.597656 122.316406 -103.484375 C 122.355469 -103.378906 122.398438 -103.273438 122.441406 -103.167969 C 122.480469 -103.066406 122.527344 -102.96875 122.570312 -102.871094 C 122.613281 -102.777344 122.652344 -102.679688 122.699219 -102.585938 C 122.738281 -102.496094 122.785156 -102.410156 122.828125 -102.320312 C 122.871094 -102.238281 122.914062 -102.152344 122.957031 -102.070312 C 122.996094 -101.992188 123.039062 -101.914062 123.082031 -101.835938 C 123.121094 -101.765625 123.167969 -101.695312 123.210938 -101.625 C 123.253906 -101.558594 123.292969 -101.492188 123.339844 -101.425781 C 123.378906 -101.363281 123.421875 -101.304688 123.46875 -101.246094 C 123.507812 -101.191406 123.554688 -101.136719 123.597656 -101.085938 C 123.636719 -101.035156 123.679688 -100.988281 123.722656 -100.941406 C 123.761719 -100.898438 123.804688 -100.855469 123.851562 -100.816406 C 123.890625 -100.78125 123.933594 -100.742188 123.980469 -100.710938 C 124.019531 -100.679688 124.0625 -100.652344 124.109375 -100.625 C 124.152344 -100.601562 124.191406 -100.574219 124.238281 -100.554688 C 124.277344 -100.535156 124.320312 -100.519531 124.363281 -100.503906 C 124.40625 -100.488281 124.449219 -100.476562 124.492188 -100.46875 C 124.535156 -100.460938 124.578125 -100.457031 124.621094 -100.457031 C 124.664062 -100.457031 124.707031 -100.457031 124.75 -100.460938 C 124.792969 -100.464844 124.835938 -100.472656 124.878906 -100.484375 C 124.921875 -100.496094 124.960938 -100.511719 125.003906 -100.527344 C 125.046875 -100.542969 125.089844 -100.5625 125.132812 -100.585938 C 125.175781 -100.609375 125.21875 -100.636719 125.261719 -100.664062 C 125.304688 -100.695312 125.347656 -100.726562 125.390625 -100.761719 C 125.433594 -100.796875 125.476562 -100.835938 125.519531 -100.875 C 125.5625 -100.917969 125.601562 -100.960938 125.644531 -101.007812 C 125.6875 -101.058594 125.730469 -101.109375 125.773438 -101.160156 C 125.816406 -101.214844 125.859375 -101.273438 125.902344 -101.332031 C 125.945312 -101.394531 125.988281 -101.457031 126.03125 -101.519531 C 126.074219 -101.585938 126.117188 -101.652344 126.160156 -101.722656 C 126.203125 -101.796875 126.242188 -101.871094 126.285156 -101.945312 C 126.328125 -102.027344 126.371094 -102.105469 126.414062 -102.1875 C 126.457031 -102.273438 126.5 -102.359375 126.542969 -102.445312 C 126.585938 -102.539062 126.628906 -102.628906 126.671875 -102.722656 C 126.714844 -102.820312 126.757812 -102.914062 126.800781 -103.011719 C 126.84375 -103.113281 126.882812 -103.21875 126.925781 -103.320312 C 126.96875 -103.429688 127.011719 -103.535156 127.054688 -103.644531 C 127.097656 -103.757812 127.140625 -103.871094 127.183594 -103.984375 C 127.226562 -104.101562 127.269531 -104.222656 127.3125 -104.339844 C 127.355469 -104.464844 127.398438 -104.589844 127.441406 -104.714844 C 127.484375 -104.84375 127.523438 -104.972656 127.566406 -105.101562 C 127.609375 -105.234375 127.652344 -105.367188 127.695312 -105.5 C 127.738281 -105.640625 127.78125 -105.777344 127.824219 -105.917969 C 127.867188 -106.0625 127.910156 -106.203125 127.953125 -106.347656 C 127.996094 -106.496094 128.039062 -106.644531 128.082031 -106.792969 C 128.125 -106.945312 128.164062 -107.097656 128.207031 -107.25 C 128.25 -107.40625 128.292969 -107.566406 128.335938 -107.722656 C 128.378906 -107.882812 128.421875 -108.046875 128.464844 -108.207031 C 128.507812 -108.371094 128.550781 -108.539062 128.59375 -108.703125 C 128.636719 -108.871094 128.679688 -109.042969 128.722656 -109.210938 C 128.765625 -109.382812 128.804688 -109.558594 128.847656 -109.730469 C 128.890625 -109.90625 128.933594 -110.085938 128.976562 -110.261719 C 129.019531 -110.441406 129.0625 -110.625 129.105469 -110.804688 C 129.148438 -110.988281 129.191406 -111.171875 129.234375 -111.355469 C 129.277344 -111.542969 129.320312 -111.730469 129.363281 -111.917969 C 129.40625 -112.109375 129.445312 -112.300781 129.488281 -112.492188 C 129.53125 -112.683594 129.574219 -112.878906 129.617188 -113.070312 C 129.660156 -113.265625 129.703125 -113.464844 129.746094 -113.660156 C 129.789062 -113.859375 129.832031 -114.058594 129.875 -114.257812 C 129.917969 -114.457031 129.960938 -114.660156 130.003906 -114.859375 C 130.046875 -115.0625 130.085938 -115.269531 130.128906 -115.472656 C 130.171875 -115.679688 130.214844 -115.882812 130.257812 -116.089844 C 130.300781 -116.296875 130.34375 -116.507812 130.386719 -116.714844 C 130.429688 -116.925781 130.472656 -117.132812 130.515625 -117.34375 C 130.558594 -117.554688 130.601562 -117.765625 130.644531 -117.976562 C 130.6875 -118.1875 130.726562 -118.402344 130.769531 -118.613281 C 130.855469 -119.042969 130.589844 -119.871094 131.027344 -119.902344 C 131.160156 -119.910156 131.121094 -119.65625 131.15625 -119.527344 C 131.214844 -119.3125 131.242188 -119.09375 131.285156 -118.875 C 131.328125 -118.65625 131.367188 -118.441406 131.410156 -118.222656 C 131.492188 -117.789062 131.582031 -117.351562 131.667969 -116.917969 C 131.710938 -116.699219 131.753906 -116.480469 131.796875 -116.261719 C 131.839844 -116.042969 131.882812 -115.828125 131.925781 -115.609375 C 131.96875 -115.390625 132.007812 -115.175781 132.050781 -114.957031 C 132.132812 -114.523438 132.222656 -114.09375 132.308594 -113.660156 C 132.394531 -113.230469 132.480469 -112.800781 132.566406 -112.371094 C 132.609375 -112.160156 132.648438 -111.945312 132.691406 -111.734375 C 132.734375 -111.523438 132.777344 -111.3125 132.820312 -111.101562 C 132.863281 -110.890625 132.90625 -110.683594 132.949219 -110.472656 C 132.992188 -110.265625 133.035156 -110.058594 133.078125 -109.851562 C 133.121094 -109.644531 133.164062 -109.441406 133.207031 -109.234375 C 133.25 -109.03125 133.289062 -108.828125 133.332031 -108.625 C 133.375 -108.425781 133.417969 -108.222656 133.460938 -108.023438 C 133.503906 -107.824219 133.546875 -107.628906 133.589844 -107.429688 C 133.632812 -107.234375 133.675781 -107.039062 133.71875 -106.84375 C 133.761719 -106.652344 133.804688 -106.460938 133.847656 -106.269531 C 133.890625 -106.078125 133.929688 -105.890625 133.972656 -105.699219 C 134.015625 -105.515625 134.058594 -105.328125 134.101562 -105.144531 C 134.144531 -104.960938 134.1875 -104.78125 134.230469 -104.597656 C 134.273438 -104.417969 134.316406 -104.242188 134.359375 -104.0625 C 134.402344 -103.886719 134.445312 -103.714844 134.488281 -103.539062 C 134.53125 -103.367188 134.570312 -103.199219 134.613281 -103.027344 C 134.65625 -102.863281 134.699219 -102.695312 134.742188 -102.53125 C 134.785156 -102.371094 134.828125 -102.207031 134.871094 -102.046875 C 134.914062 -101.890625 134.957031 -101.730469 135 -101.574219 C 135.042969 -101.421875 135.085938 -101.269531 135.128906 -101.117188 C 135.167969 -100.96875 135.210938 -100.824219 135.253906 -100.675781 C 135.292969 -100.535156 135.339844 -100.390625 135.382812 -100.25 C 135.425781 -100.113281 135.46875 -99.972656 135.511719 -99.835938 C 135.554688 -99.703125 135.597656 -99.574219 135.640625 -99.441406 C 135.683594 -99.316406 135.726562 -99.1875 135.769531 -99.0625 C 135.808594 -98.941406 135.851562 -98.824219 135.894531 -98.703125 C 135.933594 -98.589844 135.980469 -98.472656 136.023438 -98.359375 C 136.066406 -98.25 136.109375 -98.144531 136.152344 -98.035156 C 136.195312 -97.933594 136.238281 -97.828125 136.28125 -97.726562 C 136.320312 -97.628906 136.363281 -97.53125 136.40625 -97.4375 C 136.445312 -97.347656 136.488281 -97.257812 136.535156 -97.167969 C 136.574219 -97.082031 136.617188 -97 136.664062 -96.917969 C 136.703125 -96.839844 136.746094 -96.761719 136.792969 -96.6875 C 136.832031 -96.617188 136.875 -96.546875 136.921875 -96.476562 C 136.960938 -96.414062 137.003906 -96.351562 137.046875 -96.289062 C 137.085938 -96.230469 137.128906 -96.175781 137.175781 -96.121094 C 137.214844 -96.070312 137.257812 -96.023438 137.304688 -95.976562 C 137.34375 -95.933594 137.386719 -95.890625 137.433594 -95.851562 C 137.472656 -95.816406 137.515625 -95.777344 137.5625 -95.746094 C 137.601562 -95.714844 137.644531 -95.6875 137.6875 -95.664062 C 137.726562 -95.640625 137.773438 -95.625 137.816406 -95.609375 C 137.859375 -95.59375 137.902344 -95.578125 137.945312 -95.570312 C 137.988281 -95.5625 138.03125 -95.558594 138.074219 -95.558594 C 138.117188 -95.558594 138.160156 -95.5625 138.203125 -95.570312 C 138.246094 -95.578125 138.285156 -95.589844 138.328125 -95.605469 C 138.371094 -95.621094 138.414062 -95.636719 138.457031 -95.660156 C 138.5 -95.683594 138.542969 -95.710938 138.585938 -95.742188 C 138.628906 -95.773438 138.671875 -95.808594 138.714844 -95.847656 C 138.757812 -95.886719 138.800781 -95.929688 138.84375 -95.976562 C 138.886719 -96.027344 138.925781 -96.078125 138.96875 -96.132812 C 139.011719 -96.191406 139.054688 -96.25 139.097656 -96.308594 C 139.140625 -96.375 139.183594 -96.441406 139.226562 -96.511719 C 139.269531 -96.585938 139.3125 -96.664062 139.355469 -96.742188 C 139.398438 -96.824219 139.441406 -96.90625 139.484375 -96.992188 C 139.527344 -97.082031 139.566406 -97.175781 139.609375 -97.269531 C 139.652344 -97.371094 139.695312 -97.46875 139.738281 -97.570312 C 139.78125 -97.679688 139.824219 -97.789062 139.867188 -97.898438 C 139.910156 -98.015625 139.953125 -98.136719 139.996094 -98.253906 C 140.039062 -98.378906 140.082031 -98.503906 140.125 -98.628906 C 140.167969 -98.761719 140.207031 -98.898438 140.25 -99.03125 C 140.292969 -99.171875 140.335938 -99.316406 140.378906 -99.457031 C 140.421875 -99.609375 140.464844 -99.757812 140.507812 -99.910156 C 140.550781 -100.070312 140.59375 -100.226562 140.636719 -100.386719 C 140.679688 -100.554688 140.722656 -100.722656 140.765625 -100.890625 C 140.808594 -101.066406 140.847656 -101.238281 140.890625 -101.414062 C 140.933594 -101.597656 140.976562 -101.78125 141.019531 -101.964844 C 141.0625 -102.15625 141.105469 -102.351562 141.148438 -102.542969 C 141.191406 -102.742188 141.234375 -102.941406 141.277344 -103.140625 C 141.320312 -103.347656 141.363281 -103.558594 141.40625 -103.765625 C 141.449219 -103.980469 141.488281 -104.199219 141.53125 -104.414062 C 141.574219 -104.636719 141.617188 -104.863281 141.660156 -105.085938 C 141.703125 -105.316406 141.746094 -105.550781 141.789062 -105.78125 C 141.832031 -106.019531 141.875 -106.261719 141.917969 -106.5 C 141.960938 -106.746094 142.003906 -106.996094 142.046875 -107.242188 C 142.089844 -107.496094 142.128906 -107.753906 142.171875 -108.007812 C 142.214844 -108.269531 142.257812 -108.535156 142.300781 -108.796875 C 142.34375 -109.066406 142.386719 -109.339844 142.429688 -109.609375 C 142.472656 -109.886719 142.515625 -110.164062 142.558594 -110.441406 C 142.601562 -110.726562 142.644531 -111.011719 142.6875 -111.296875 C 142.730469 -111.589844 142.769531 -111.878906 142.8125 -112.171875 C 142.855469 -112.472656 142.898438 -112.769531 142.941406 -113.070312 C 142.984375 -113.375 143.027344 -113.683594 143.070312 -113.988281 C 143.113281 -114.300781 143.15625 -114.617188 143.199219 -114.929688 C 143.242188 -115.25 143.285156 -115.566406 143.328125 -115.886719 C 143.371094 -116.214844 143.410156 -116.539062 143.453125 -116.867188 C 143.496094 -117.199219 143.539062 -117.535156 143.582031 -117.867188 C 143.625 -118.207031 143.667969 -118.546875 143.710938 -118.886719 C 143.753906 -119.230469 143.492188 -119.917969 143.839844 -119.921875 C 144.117188 -119.925781 143.929688 -119.375 143.96875 -119.101562 C 144.015625 -118.746094 144.050781 -118.386719 144.09375 -118.027344 C 144.136719 -117.664062 144.179688 -117.300781 144.222656 -116.9375 C 144.265625 -116.570312 144.308594 -116.199219 144.351562 -115.832031 C 144.394531 -115.457031 144.4375 -115.085938 144.480469 -114.710938 C 144.523438 -114.332031 144.566406 -113.949219 144.609375 -113.570312 C 144.652344 -113.1875 144.691406 -112.800781 144.734375 -112.417969 C 144.777344 -112.027344 144.820312 -111.640625 144.863281 -111.25 C 144.90625 -110.855469 144.949219 -110.460938 144.992188 -110.066406 C 145.035156 -109.667969 145.078125 -109.265625 145.121094 -108.867188 C 145.164062 -108.464844 145.207031 -108.058594 145.25 -107.65625 C 145.292969 -107.25 145.332031 -106.839844 145.375 -106.433594 C 145.417969 -106.023438 145.460938 -105.609375 145.503906 -105.199219 C 145.546875 -104.785156 145.589844 -104.367188 145.632812 -103.953125 C 145.675781 -103.535156 145.71875 -103.113281 145.761719 -102.695312 C 145.804688 -102.273438 145.847656 -101.851562 145.890625 -101.429688 C 145.933594 -101.003906 145.972656 -100.578125 146.015625 -100.152344 C 146.058594 -99.722656 146.101562 -99.292969 146.144531 -98.863281 C 146.1875 -98.433594 146.230469 -98 146.273438 -97.570312 C 146.316406 -97.136719 146.359375 -96.699219 146.402344 -96.265625 C 146.445312 -95.828125 146.488281 -95.390625 146.53125 -94.953125 C 146.574219 -94.515625 146.613281 -94.074219 146.65625 -93.636719 C 146.699219 -93.195312 146.742188 -92.757812 146.785156 -92.316406 C 146.871094 -91.429688 146.957031 -90.539062 147.042969 -89.652344 C 147.085938 -89.207031 147.128906 -88.761719 147.171875 -88.316406 C 147.214844 -87.871094 147.253906 -87.421875 147.296875 -86.976562 C 147.339844 -86.527344 147.382812 -86.082031 147.425781 -85.632812 C 147.511719 -84.734375 147.597656 -83.835938 147.683594 -82.9375 C 147.726562 -82.488281 147.769531 -82.042969 147.8125 -81.59375 C 147.855469 -81.144531 147.894531 -80.691406 147.9375 -80.242188 C 147.980469 -79.792969 148.023438 -79.347656 148.066406 -78.898438 C 148.109375 -78.449219 148.152344 -78 148.195312 -77.550781 C 148.238281 -77.101562 148.28125 -76.65625 148.324219 -76.207031 C 148.367188 -75.761719 148.410156 -75.3125 148.453125 -74.867188 C 148.496094 -74.421875 148.535156 -73.972656 148.578125 -73.527344 C 148.621094 -73.082031 148.664062 -72.636719 148.707031 -72.191406 C 148.75 -71.75 148.792969 -71.304688 148.835938 -70.863281 C 148.878906 -70.421875 148.921875 -69.980469 148.964844 -69.539062 C 149.007812 -69.101562 149.050781 -68.660156 149.09375 -68.222656 C 149.136719 -67.785156 149.175781 -67.347656 149.21875 -66.910156 C 149.261719 -66.476562 149.304688 -66.039062 149.347656 -65.605469 C 149.390625 -65.171875 149.433594 -64.742188 149.476562 -64.308594 C 149.519531 -63.878906 149.5625 -63.453125 149.605469 -63.023438 C 149.648438 -62.597656 149.691406 -62.171875 149.734375 -61.746094 C 149.777344 -61.324219 149.816406 -60.902344 149.859375 -60.480469 C 149.902344 -60.058594 149.945312 -59.640625 149.988281 -59.21875 C 150.03125 -58.804688 150.074219 -58.386719 150.117188 -57.972656 C 150.160156 -57.5625 150.203125 -57.152344 150.246094 -56.742188 C 150.289062 -56.335938 150.332031 -55.925781 150.375 -55.519531 C 150.417969 -55.117188 150.457031 -54.71875 150.5 -54.316406 C 150.542969 -53.917969 150.585938 -53.519531 150.628906 -53.121094 C 150.671875 -52.726562 150.714844 -52.332031 150.757812 -51.9375 C 150.800781 -51.550781 150.84375 -51.160156 150.886719 -50.773438 C 150.929688 -50.390625 150.972656 -50.007812 151.015625 -49.625 C 151.058594 -49.25 151.097656 -48.871094 151.140625 -48.496094 C 151.183594 -48.121094 151.226562 -47.75 151.269531 -47.375 C 151.3125 -47.007812 151.355469 -46.644531 151.398438 -46.277344 C 151.441406 -45.917969 151.484375 -45.554688 151.527344 -45.195312 C 151.570312 -44.84375 151.609375 -44.488281 151.652344 -44.136719 C 151.695312 -43.789062 151.738281 -43.445312 151.78125 -43.097656 C 151.824219 -42.757812 151.867188 -42.414062 151.910156 -42.074219 C 151.953125 -41.738281 151.996094 -41.40625 152.039062 -41.070312 C 152.082031 -40.742188 152.125 -40.417969 152.167969 -40.089844 C 152.210938 -39.769531 152.25 -39.453125 152.292969 -39.132812 C 152.335938 -38.820312 152.378906 -38.511719 152.421875 -38.199219 C 152.464844 -37.894531 152.507812 -37.589844 152.550781 -37.285156 C 152.59375 -36.984375 152.636719 -36.6875 152.679688 -36.386719 C 152.722656 -36.09375 152.765625 -35.804688 152.808594 -35.511719 C 152.847656 -35.230469 152.890625 -34.949219 152.933594 -34.667969 C 152.972656 -34.394531 153.019531 -34.125 153.0625 -33.851562 C 153.105469 -33.589844 153.148438 -33.324219 153.191406 -33.0625 C 153.234375 -32.804688 153.277344 -32.542969 153.320312 -32.285156 C 153.363281 -32.035156 153.40625 -31.789062 153.449219 -31.539062 C 153.488281 -31.300781 153.53125 -31.058594 153.574219 -30.820312 C 153.613281 -30.589844 153.660156 -30.363281 153.703125 -30.132812 C 153.746094 -29.910156 153.789062 -29.6875 153.832031 -29.464844 C 153.875 -29.25 153.914062 -29.03125 153.960938 -28.816406 C 154.003906 -28.613281 154.046875 -28.40625 154.089844 -28.203125 C 154.128906 -28.007812 154.171875 -27.816406 154.214844 -27.621094 C 154.253906 -27.4375 154.300781 -27.253906 154.34375 -27.070312 C 154.425781 -26.722656 154.507812 -26.371094 154.601562 -26.023438 C 154.640625 -25.871094 154.6875 -25.71875 154.730469 -25.566406 C 154.769531 -25.421875 154.808594 -25.273438 154.855469 -25.128906 C 154.894531 -24.996094 154.941406 -24.867188 154.984375 -24.734375 C 155.027344 -24.605469 155.070312 -24.480469 155.113281 -24.351562 C 155.15625 -24.230469 155.195312 -24.105469 155.242188 -23.984375 C 155.28125 -23.875 155.328125 -23.765625 155.371094 -23.65625 C 155.410156 -23.554688 155.449219 -23.449219 155.496094 -23.347656 C 155.535156 -23.261719 155.582031 -23.183594 155.625 -23.101562 C 155.667969 -23.015625 155.707031 -22.925781 155.753906 -22.84375 C 155.792969 -22.773438 155.835938 -22.707031 155.882812 -22.644531 C 155.921875 -22.589844 155.972656 -22.546875 156.011719 -22.492188 C 156.054688 -22.429688 156.082031 -22.355469 156.136719 -22.300781 C 156.171875 -22.261719 156.21875 -22.230469 156.265625 -22.203125 C 156.304688 -22.179688 156.347656 -22.15625 156.394531 -22.152344 C 156.4375 -22.148438 156.523438 -22.183594 156.523438 -22.183594 "
       transform="matrix(1,0,0,-1,0,0)"
       id="path29943" />
  </g>
  <path
     style="fill:none;stroke:#000000;stroke-width:0.38148;stroke-linecap:butt;stroke-linejoin:miter;stroke-miterlimit:4;stroke-dasharray:none;stroke-opacity:1;marker-end:url(#marker24909)"
     d="m 133.9368,120.03906 c 11.83769,0 23.67517,0 35.51242,0"
     id="path24897"
     inkscape:path-effect="#path-effect24899"
     inkscape:original-d="m 133.9368,120.03906 c 11.83769,2.6e-4 23.67517,2.6e-4 35.51242,0" />
  <g
     transform="matrix(1.3282297,0,0,1.3282297,148.40951,106.39809)"
     ns7:version="1.2.0"
     ns7:texconverter="pdflatex"
     ns7:pdfconverter="inkscape"
     ns7:text="$\psi$  "
     ns7:preamble="/Users/hasanabbas/Library/Application Support/org.inkscape.Inkscape/config/inkscape/extensions/inkscapeMadeEasy/basicLatexPackages.tex"
     ns7:scale="2.9377590693976736"
     ns7:alignment="middle center"
     ns7:jacobian_sqrt="3.917"
     id="g25228">
    <defs
       id="id-eb9e633f-7f26-409a-b2e6-f965dddbba2c">
      <g
         id="g30640">
        <symbol
           overflow="visible"
           id="symbol30634">
          <path
             style="stroke:none"
             d=""
             id="path30632" />
        </symbol>
        <symbol
           overflow="visible"
           id="symbol30638">
          <path
             style="stroke:none"
             d="m 4.8125,-6.65625 c 0,-0.046875 0.015625,-0.109375 0.015625,-0.15625 0,-0.09375 -0.0625,-0.109375 -0.109375,-0.109375 -0.109375,0 -0.109375,0.03125 -0.15625,0.203125 L 2.90625,-0.125 c -0.75,-0.09375 -1.125,-0.46875 -1.125,-1.125 0,-0.203125 0,-0.453125 0.53125,-1.84375 0.046875,-0.125 0.109375,-0.296875 0.109375,-0.5 0,-0.4375 -0.3125,-0.8125 -0.8125,-0.8125 -0.953125,0 -1.3125,1.453125 -1.3125,1.53125 0,0.109375 0.09375,0.109375 0.109375,0.109375 0.109375,0 0.109375,-0.03125 0.15625,-0.1875 0.28125,-0.9375 0.671875,-1.234375 1.015625,-1.234375 0.078125,0 0.25,0 0.25,0.3125 0,0.265625 -0.109375,0.515625 -0.234375,0.859375 C 1.109375,-1.75 1.109375,-1.5 1.109375,-1.328125 1.109375,-0.375 1.890625,0.03125 2.84375,0.09375 2.765625,0.453125 2.765625,0.46875 2.625,1 2.609375,1.109375 2.40625,1.90625 2.40625,1.9375 c 0,0.015625 0,0.109375 0.109375,0.109375 0.03125,0 0.078125,0 0.09375,-0.046875 0.03125,-0.015625 0.09375,-0.265625 0.125,-0.40625 l 0.375,-1.484375 c 0.375,0 1.25,0 2.1875,-1.0625 0.40625,-0.46875 0.609375,-0.90625 0.71875,-1.203125 0.09375,-0.25 0.3125,-1.109375 0.3125,-1.546875 0,-0.5625 -0.265625,-0.703125 -0.4375,-0.703125 -0.25,0 -0.5,0.265625 -0.5,0.484375 0,0.125 0.0625,0.1875 0.15625,0.265625 0.109375,0.109375 0.359375,0.359375 0.359375,0.84375 0,0.640625 -0.515625,1.453125 -0.875,1.8125 -0.875,0.890625 -1.515625,0.890625 -1.875,0.890625 z m 0,0"
             id="path30636" />
        </symbol>
      </g>
    </defs>
    <g
       id="id-822374ac-7963-40e6-8a4e-dd635a4d1d62"
       transform="translate(-149.009,-127.843)">
      <g
         style="fill:#000000;fill-opacity:1"
         id="id-55d7a9f6-b837-46c0-a25b-56a8b5e74c5d">
        <g
           transform="translate(148.712,134.765)"
           id="g29834">
          <path
             style="stroke:none"
             d="m 4.8125,-6.65625 c 0,-0.046875 0.015625,-0.109375 0.015625,-0.15625 0,-0.09375 -0.0625,-0.109375 -0.109375,-0.109375 -0.109375,0 -0.109375,0.03125 -0.15625,0.203125 L 2.90625,-0.125 c -0.75,-0.09375 -1.125,-0.46875 -1.125,-1.125 0,-0.203125 0,-0.453125 0.53125,-1.84375 0.046875,-0.125 0.109375,-0.296875 0.109375,-0.5 0,-0.4375 -0.3125,-0.8125 -0.8125,-0.8125 -0.953125,0 -1.3125,1.453125 -1.3125,1.53125 0,0.109375 0.09375,0.109375 0.109375,0.109375 0.109375,0 0.109375,-0.03125 0.15625,-0.1875 0.28125,-0.9375 0.671875,-1.234375 1.015625,-1.234375 0.078125,0 0.25,0 0.25,0.3125 0,0.265625 -0.109375,0.515625 -0.234375,0.859375 C 1.109375,-1.75 1.109375,-1.5 1.109375,-1.328125 1.109375,-0.375 1.890625,0.03125 2.84375,0.09375 2.765625,0.453125 2.765625,0.46875 2.625,1 2.609375,1.109375 2.40625,1.90625 2.40625,1.9375 c 0,0.015625 0,0.109375 0.109375,0.109375 0.03125,0 0.078125,0 0.09375,-0.046875 0.03125,-0.015625 0.09375,-0.265625 0.125,-0.40625 l 0.375,-1.484375 c 0.375,0 1.25,0 2.1875,-1.0625 0.40625,-0.46875 0.609375,-0.90625 0.71875,-1.203125 0.09375,-0.25 0.3125,-1.109375 0.3125,-1.546875 0,-0.5625 -0.265625,-0.703125 -0.4375,-0.703125 -0.25,0 -0.5,0.265625 -0.5,0.484375 0,0.125 0.0625,0.1875 0.15625,0.265625 0.109375,0.109375 0.359375,0.359375 0.359375,0.84375 0,0.640625 -0.515625,1.453125 -0.875,1.8125 -0.875,0.890625 -1.515625,0.890625 -1.875,0.890625 z m 0,0"
             id="id-4604e52d-560e-4644-bce8-762a9fd7d7ce" />
        </g>
      </g>
    </g>
  </g>
</svg>
