<?xml version="1.0" encoding="UTF-8" standalone="no"?>
<svg
   xmlns:ns7="http://www.iki.fi/pav/software/textext/"
   xmlns:dc="http://purl.org/dc/elements/1.1/"
   xmlns:cc="http://creativecommons.org/ns#"
   xmlns:rdf="http://www.w3.org/1999/02/22-rdf-syntax-ns#"
   xmlns:svg="http://www.w3.org/2000/svg"
   xmlns="http://www.w3.org/2000/svg"
   xmlns:sodipodi="http://sodipodi.sourceforge.net/DTD/sodipodi-0.dtd"
   xmlns:inkscape="http://www.inkscape.org/namespaces/inkscape"
   width="169.651627pt"
   height="148.308411pt"
   viewBox="0 0 169.651627 148.308411"
   version="1.2"
   id="svg31673"
   sodipodi:docname="sinc.svg"
   inkscape:version="1.0.2 (e86c8708, 2021-01-15)">
  <metadata
     id="metadata31677">
    <rdf:RDF>
      <cc:Work
         rdf:about="">
        <dc:format>image/svg+xml</dc:format>
        <dc:type
           rdf:resource="http://purl.org/dc/dcmitype/StillImage" />
        <dc:title></dc:title>
      </cc:Work>
    </rdf:RDF>
  </metadata>
  <sodipodi:namedview
     pagecolor="#ffffff"
     bordercolor="#666666"
     borderopacity="1"
     objecttolerance="10"
     gridtolerance="10"
     guidetolerance="10"
     inkscape:pageopacity="0"
     inkscape:pageshadow="2"
     inkscape:window-width="640"
     inkscape:window-height="480"
     id="namedview31675"
     showgrid="false"
     inkscape:zoom="1.7931324"
     inkscape:cx="176.67698"
     inkscape:cy="98.872274"
     inkscape:current-layer="svg31673" />
  <defs
     id="defs31622">
    <clipPath
       id="clip1">
      <path
         d="M 15 14 L 169.652344 14 L 169.652344 121 L 15 121 Z M 15 14 "
         id="path31610" />
    </clipPath>
    <clipPath
       id="clip2">
      <path
         d="M 15 4 L 169.652344 4 L 169.652344 131 L 15 131 Z M 15 4 "
         id="path31613" />
    </clipPath>
    <clipPath
       id="clip3">
      <path
         d="M 59 138 L 64 138 L 64 148.308594 L 59 148.308594 Z M 59 138 "
         id="path31616" />
    </clipPath>
    <clipPath
       id="clip4">
      <path
         d="M 125 138 L 130 138 L 130 148.308594 L 125 148.308594 Z M 125 138 "
         id="path31619" />
    </clipPath>
    <marker
       style="overflow:visible"
       id="marker24909"
       refX="0"
       refY="0"
       orient="auto"
       inkscape:stockid="Arrow2Lend"
       inkscape:isstock="true">
      <path
         transform="matrix(-1.1,0,0,-1.1,-1.1,0)"
         d="M 8.7185878,4.0337352 -2.2072895,0.01601326 8.7185884,-4.0017078 c -1.7454984,2.3720609 -1.7354408,5.6174519 -6e-7,8.035443 z"
         style="fill:#000000;fill-opacity:1;fill-rule:evenodd;stroke:#000000;stroke-width:0.625;stroke-linejoin:round;stroke-opacity:1"
         id="path24907" />
    </marker>
    <inkscape:path-effect
       effect="bspline"
       id="path-effect24899"
       is_visible="true"
       lpeversion="1"
       weight="33.333333"
       steps="2"
       helper_size="0"
       apply_no_weight="true"
       apply_with_weight="true"
       only_selected="false" />
    <g
       id="g30640">
      <symbol
         overflow="visible"
         id="symbol30634">
        <path
           style="stroke:none"
           d=""
           id="path30632" />
      </symbol>
      <symbol
         overflow="visible"
         id="symbol30638">
        <path
           style="stroke:none"
           d="m 4.8125,-6.65625 c 0,-0.046875 0.015625,-0.109375 0.015625,-0.15625 0,-0.09375 -0.0625,-0.109375 -0.109375,-0.109375 -0.109375,0 -0.109375,0.03125 -0.15625,0.203125 L 2.90625,-0.125 c -0.75,-0.09375 -1.125,-0.46875 -1.125,-1.125 0,-0.203125 0,-0.453125 0.53125,-1.84375 0.046875,-0.125 0.109375,-0.296875 0.109375,-0.5 0,-0.4375 -0.3125,-0.8125 -0.8125,-0.8125 -0.953125,0 -1.3125,1.453125 -1.3125,1.53125 0,0.109375 0.09375,0.109375 0.109375,0.109375 0.109375,0 0.109375,-0.03125 0.15625,-0.1875 0.28125,-0.9375 0.671875,-1.234375 1.015625,-1.234375 0.078125,0 0.25,0 0.25,0.3125 0,0.265625 -0.109375,0.515625 -0.234375,0.859375 C 1.109375,-1.75 1.109375,-1.5 1.109375,-1.328125 1.109375,-0.375 1.890625,0.03125 2.84375,0.09375 2.765625,0.453125 2.765625,0.46875 2.625,1 2.609375,1.109375 2.40625,1.90625 2.40625,1.9375 c 0,0.015625 0,0.109375 0.109375,0.109375 0.03125,0 0.078125,0 0.09375,-0.046875 0.03125,-0.015625 0.09375,-0.265625 0.125,-0.40625 l 0.375,-1.484375 c 0.375,0 1.25,0 2.1875,-1.0625 0.40625,-0.46875 0.609375,-0.90625 0.71875,-1.203125 0.09375,-0.25 0.3125,-1.109375 0.3125,-1.546875 0,-0.5625 -0.265625,-0.703125 -0.4375,-0.703125 -0.25,0 -0.5,0.265625 -0.5,0.484375 0,0.125 0.0625,0.1875 0.15625,0.265625 0.109375,0.109375 0.359375,0.359375 0.359375,0.84375 0,0.640625 -0.515625,1.453125 -0.875,1.8125 -0.875,0.890625 -1.515625,0.890625 -1.875,0.890625 z m 0,0"
           id="path30636" />
      </symbol>
    </g>
  </defs>
  <g
     id="surface1896491">
    <path
       style="fill:none;stroke-width:0.19925;stroke-linecap:butt;stroke-linejoin:miter;stroke:rgb(49.803162%,49.803162%,49.803162%);stroke-opacity:1;stroke-miterlimit:10;"
       d="M 28.660156 -134.816406 L 28.660156 -130.5625 M 60.65625 -134.816406 L 60.65625 -130.5625 M 92.65625 -134.816406 L 92.65625 -130.5625 M 124.652344 -134.816406 L 124.652344 -130.5625 M 156.652344 -134.816406 L 156.652344 -130.5625 M 28.660156 0 L 28.660156 -4.25 M 60.65625 0 L 60.65625 -4.25 M 92.65625 0 L 92.65625 -4.25 M 124.652344 0 L 124.652344 -4.25 M 156.652344 0 L 156.652344 -4.25 "
       transform="matrix(1,0,0,-1,0,0)"
       id="path31624" />
    <g
       clip-path="url(#clip1)"
       clip-rule="nonzero"
       id="g31628">
      <path
         style="fill:none;stroke-width:0.19925;stroke-linecap:butt;stroke-linejoin:miter;stroke:rgb(49.803162%,49.803162%,49.803162%);stroke-opacity:1;stroke-miterlimit:10;"
         d="M 15.859375 -120.039062 L 20.113281 -120.039062 M 15.859375 -67.472656 L 20.113281 -67.472656 M 15.859375 -14.910156 L 20.113281 -14.910156 M 169.453125 -120.039062 L 165.199219 -120.039062 M 169.453125 -67.472656 L 165.199219 -67.472656 M 169.453125 -14.910156 L 165.199219 -14.910156 "
         transform="matrix(1,0,0,-1,0,0)"
         id="path31626" />
    </g>
    <g
       clip-path="url(#clip2)"
       clip-rule="nonzero"
       id="g31632">
      <path
         style="fill:none;stroke-width:0.3985;stroke-linecap:butt;stroke-linejoin:miter;stroke:rgb(0%,0%,0%);stroke-opacity:1;stroke-miterlimit:10;"
         d="M 15.859375 -4.25 L 169.453125 -4.25 L 169.453125 -130.5625 L 15.859375 -130.5625 Z M 15.859375 -4.25 "
         transform="matrix(1,0,0,-1,0,0)"
         id="path31630" />
    </g>
    <path
       style=" stroke:none;fill-rule:nonzero;fill:rgb(0%,0%,0%);fill-opacity:1;"
       d="M 30.746094 141.570312 C 30.746094 140.773438 30.699219 139.976562 30.355469 139.242188 C 29.902344 138.273438 29.074219 138.117188 28.667969 138.117188 C 28.058594 138.117188 27.339844 138.382812 26.917969 139.304688 C 26.605469 139.992188 26.558594 140.773438 26.558594 141.570312 C 26.558594 142.320312 26.589844 143.210938 27.011719 143.976562 C 27.433594 144.773438 28.167969 144.976562 28.652344 144.976562 C 29.183594 144.976562 29.949219 144.773438 30.386719 143.820312 C 30.699219 143.132812 30.746094 142.351562 30.746094 141.570312 Z M 28.652344 144.757812 C 28.261719 144.757812 27.667969 144.507812 27.496094 143.554688 C 27.386719 142.960938 27.386719 142.039062 27.386719 141.445312 C 27.386719 140.804688 27.386719 140.148438 27.464844 139.617188 C 27.652344 138.429688 28.402344 138.335938 28.652344 138.335938 C 28.980469 138.335938 29.636719 138.523438 29.824219 139.507812 C 29.933594 140.070312 29.933594 140.820312 29.933594 141.445312 C 29.933594 142.195312 29.933594 142.867188 29.824219 143.507812 C 29.667969 144.460938 29.105469 144.757812 28.652344 144.757812 Z M 28.652344 144.757812 "
       id="path31634" />
    <path
       style=" stroke:none;fill-rule:nonzero;fill:rgb(0%,0%,0%);fill-opacity:1;"
       d="M 55.296875 142.089844 L 56.421875 142.089844 C 56.09375 143.558594 56 143.996094 56 144.667969 C 56 144.808594 56 145.074219 56.078125 145.417969 C 56.1875 145.855469 56.296875 145.917969 56.4375 145.917969 C 56.640625 145.917969 56.859375 145.746094 56.859375 145.542969 C 56.859375 145.480469 56.859375 145.464844 56.796875 145.324219 C 56.5 144.605469 56.5 143.949219 56.5 143.667969 C 56.5 143.152344 56.578125 142.605469 56.6875 142.089844 L 57.8125 142.089844 C 57.953125 142.089844 58.3125 142.089844 58.3125 141.746094 C 58.3125 141.511719 58.09375 141.511719 57.90625 141.511719 L 54.5625 141.511719 C 54.34375 141.511719 53.96875 141.511719 53.53125 141.980469 C 53.1875 142.371094 52.921875 142.824219 52.921875 142.871094 C 52.921875 142.886719 52.921875 142.980469 53.046875 142.980469 C 53.125 142.980469 53.140625 142.933594 53.203125 142.855469 C 53.6875 142.089844 54.265625 142.089844 54.46875 142.089844 L 55.03125 142.089844 C 54.71875 143.292969 54.1875 144.496094 53.765625 145.402344 C 53.6875 145.558594 53.6875 145.574219 53.6875 145.652344 C 53.6875 145.839844 53.84375 145.917969 53.96875 145.917969 C 54.265625 145.917969 54.34375 145.636719 54.46875 145.277344 C 54.609375 144.808594 54.609375 144.792969 54.734375 144.292969 Z M 55.296875 142.089844 "
       id="path31636" />
    <g
       clip-path="url(#clip3)"
       clip-rule="nonzero"
       id="g31640">
      <path
         style=" stroke:none;fill-rule:nonzero;fill:rgb(0%,0%,0%);fill-opacity:1;"
         d="M 63.058594 138.714844 C 63.105469 138.574219 63.105469 138.542969 63.105469 138.527344 C 63.105469 138.417969 63.027344 138.324219 62.917969 138.324219 C 62.839844 138.324219 62.777344 138.355469 62.746094 138.417969 L 59.277344 147.917969 C 59.230469 148.058594 59.230469 148.089844 59.230469 148.105469 C 59.230469 148.214844 59.324219 148.308594 59.433594 148.308594 C 59.558594 148.308594 59.589844 148.230469 59.652344 148.058594 Z M 63.058594 138.714844 "
         id="path31638" />
    </g>
    <path
       style=" stroke:none;fill-rule:nonzero;fill:rgb(0%,0%,0%);fill-opacity:1;"
       d="M 64.941406 145.042969 L 66.003906 144.011719 C 67.550781 142.636719 68.144531 142.105469 68.144531 141.105469 C 68.144531 139.964844 67.253906 139.167969 66.035156 139.167969 C 64.910156 139.167969 64.175781 140.089844 64.175781 140.980469 C 64.175781 141.527344 64.675781 141.527344 64.707031 141.527344 C 64.878906 141.527344 65.222656 141.417969 65.222656 140.996094 C 65.222656 140.746094 65.035156 140.480469 64.691406 140.480469 C 64.613281 140.480469 64.597656 140.480469 64.566406 140.496094 C 64.785156 139.839844 65.332031 139.480469 65.910156 139.480469 C 66.816406 139.480469 67.238281 140.292969 67.238281 141.105469 C 67.238281 141.902344 66.753906 142.683594 66.191406 143.308594 L 64.285156 145.433594 C 64.175781 145.542969 64.175781 145.574219 64.175781 145.808594 L 67.878906 145.808594 L 68.144531 144.074219 L 67.910156 144.074219 C 67.847656 144.371094 67.785156 144.808594 67.675781 144.964844 C 67.613281 145.042969 66.957031 145.042969 66.738281 145.042969 Z M 64.941406 145.042969 "
       id="path31642" />
    <path
       style=" stroke:none;fill-rule:nonzero;fill:rgb(0%,0%,0%);fill-opacity:1;"
       d="M 92.277344 138.90625 L 93.402344 138.90625 C 93.074219 140.375 92.980469 140.8125 92.980469 141.484375 C 92.980469 141.625 92.980469 141.890625 93.058594 142.234375 C 93.167969 142.671875 93.277344 142.734375 93.417969 142.734375 C 93.621094 142.734375 93.839844 142.5625 93.839844 142.359375 C 93.839844 142.296875 93.839844 142.28125 93.777344 142.140625 C 93.480469 141.421875 93.480469 140.765625 93.480469 140.484375 C 93.480469 139.96875 93.558594 139.421875 93.667969 138.90625 L 94.792969 138.90625 C 94.933594 138.90625 95.292969 138.90625 95.292969 138.5625 C 95.292969 138.328125 95.074219 138.328125 94.886719 138.328125 L 91.542969 138.328125 C 91.324219 138.328125 90.949219 138.328125 90.511719 138.796875 C 90.167969 139.1875 89.902344 139.640625 89.902344 139.6875 C 89.902344 139.703125 89.902344 139.796875 90.027344 139.796875 C 90.105469 139.796875 90.121094 139.75 90.183594 139.671875 C 90.667969 138.90625 91.246094 138.90625 91.449219 138.90625 L 92.011719 138.90625 C 91.699219 140.109375 91.167969 141.3125 90.746094 142.21875 C 90.667969 142.375 90.667969 142.390625 90.667969 142.46875 C 90.667969 142.65625 90.824219 142.734375 90.949219 142.734375 C 91.246094 142.734375 91.324219 142.453125 91.449219 142.09375 C 91.589844 141.625 91.589844 141.609375 91.714844 141.109375 Z M 92.277344 138.90625 "
       id="path31644" />
    <path
       style=" stroke:none;fill-rule:nonzero;fill:rgb(0%,0%,0%);fill-opacity:1;"
       d="M 117.054688 142.292969 C 117.867188 142.027344 118.445312 141.339844 118.445312 140.542969 C 118.445312 139.730469 117.570312 139.167969 116.617188 139.167969 C 115.617188 139.167969 114.851562 139.761719 114.851562 140.527344 C 114.851562 140.855469 115.070312 141.042969 115.367188 141.042969 C 115.664062 141.042969 115.867188 140.824219 115.867188 140.527344 C 115.867188 140.042969 115.398438 140.042969 115.257812 140.042969 C 115.554688 139.542969 116.210938 139.417969 116.570312 139.417969 C 116.992188 139.417969 117.539062 139.636719 117.539062 140.527344 C 117.539062 140.652344 117.507812 141.230469 117.257812 141.667969 C 116.960938 142.152344 116.617188 142.183594 116.367188 142.183594 C 116.289062 142.199219 116.054688 142.214844 115.976562 142.214844 C 115.898438 142.230469 115.835938 142.246094 115.835938 142.339844 C 115.835938 142.449219 115.898438 142.449219 116.070312 142.449219 L 116.507812 142.449219 C 117.320312 142.449219 117.695312 143.121094 117.695312 144.105469 C 117.695312 145.464844 117.007812 145.746094 116.570312 145.746094 C 116.132812 145.746094 115.382812 145.574219 115.039062 144.996094 C 115.382812 145.042969 115.695312 144.824219 115.695312 144.449219 C 115.695312 144.089844 115.429688 143.886719 115.148438 143.886719 C 114.898438 143.886719 114.585938 144.027344 114.585938 144.464844 C 114.585938 145.371094 115.507812 146.027344 116.601562 146.027344 C 117.820312 146.027344 118.726562 145.121094 118.726562 144.105469 C 118.726562 143.292969 118.085938 142.511719 117.054688 142.292969 Z M 117.054688 142.292969 "
       id="path31646" />
    <path
       style=" stroke:none;fill-rule:nonzero;fill:rgb(0%,0%,0%);fill-opacity:1;"
       d="M 121.785156 142.089844 L 122.910156 142.089844 C 122.582031 143.558594 122.488281 143.996094 122.488281 144.667969 C 122.488281 144.808594 122.488281 145.074219 122.566406 145.417969 C 122.675781 145.855469 122.785156 145.917969 122.925781 145.917969 C 123.128906 145.917969 123.347656 145.746094 123.347656 145.542969 C 123.347656 145.480469 123.347656 145.464844 123.285156 145.324219 C 122.988281 144.605469 122.988281 143.949219 122.988281 143.667969 C 122.988281 143.152344 123.066406 142.605469 123.175781 142.089844 L 124.300781 142.089844 C 124.441406 142.089844 124.800781 142.089844 124.800781 141.746094 C 124.800781 141.511719 124.582031 141.511719 124.394531 141.511719 L 121.050781 141.511719 C 120.832031 141.511719 120.457031 141.511719 120.019531 141.980469 C 119.675781 142.371094 119.410156 142.824219 119.410156 142.871094 C 119.410156 142.886719 119.410156 142.980469 119.535156 142.980469 C 119.613281 142.980469 119.628906 142.933594 119.691406 142.855469 C 120.175781 142.089844 120.753906 142.089844 120.957031 142.089844 L 121.519531 142.089844 C 121.207031 143.292969 120.675781 144.496094 120.253906 145.402344 C 120.175781 145.558594 120.175781 145.574219 120.175781 145.652344 C 120.175781 145.839844 120.332031 145.917969 120.457031 145.917969 C 120.753906 145.917969 120.832031 145.636719 120.957031 145.277344 C 121.097656 144.808594 121.097656 144.792969 121.222656 144.292969 Z M 121.785156 142.089844 "
       id="path31648" />
    <g
       clip-path="url(#clip4)"
       clip-rule="nonzero"
       id="g31652">
      <path
         style=" stroke:none;fill-rule:nonzero;fill:rgb(0%,0%,0%);fill-opacity:1;"
         d="M 129.546875 138.714844 C 129.59375 138.574219 129.59375 138.542969 129.59375 138.527344 C 129.59375 138.417969 129.515625 138.324219 129.40625 138.324219 C 129.328125 138.324219 129.265625 138.355469 129.234375 138.417969 L 125.765625 147.917969 C 125.71875 148.058594 125.71875 148.089844 125.71875 148.105469 C 125.71875 148.214844 125.8125 148.308594 125.921875 148.308594 C 126.046875 148.308594 126.078125 148.230469 126.140625 148.058594 Z M 129.546875 138.714844 "
         id="path31650" />
    </g>
    <path
       style=" stroke:none;fill-rule:nonzero;fill:rgb(0%,0%,0%);fill-opacity:1;"
       d="M 131.429688 145.042969 L 132.492188 144.011719 C 134.039062 142.636719 134.632812 142.105469 134.632812 141.105469 C 134.632812 139.964844 133.742188 139.167969 132.523438 139.167969 C 131.398438 139.167969 130.664062 140.089844 130.664062 140.980469 C 130.664062 141.527344 131.164062 141.527344 131.195312 141.527344 C 131.367188 141.527344 131.710938 141.417969 131.710938 140.996094 C 131.710938 140.746094 131.523438 140.480469 131.179688 140.480469 C 131.101562 140.480469 131.085938 140.480469 131.054688 140.496094 C 131.273438 139.839844 131.820312 139.480469 132.398438 139.480469 C 133.304688 139.480469 133.726562 140.292969 133.726562 141.105469 C 133.726562 141.902344 133.242188 142.683594 132.679688 143.308594 L 130.773438 145.433594 C 130.664062 145.542969 130.664062 145.574219 130.664062 145.808594 L 134.367188 145.808594 L 134.632812 144.074219 L 134.398438 144.074219 C 134.335938 144.371094 134.273438 144.808594 134.164062 144.964844 C 134.101562 145.042969 133.445312 145.042969 133.226562 145.042969 Z M 131.429688 145.042969 "
       id="path31654" />
    <path
       style=" stroke:none;fill-rule:nonzero;fill:rgb(0%,0%,0%);fill-opacity:1;"
       d="M 152.40625 143.992188 L 153.46875 142.960938 C 155.015625 141.585938 155.609375 141.054688 155.609375 140.054688 C 155.609375 138.914062 154.71875 138.117188 153.5 138.117188 C 152.375 138.117188 151.640625 139.039062 151.640625 139.929688 C 151.640625 140.476562 152.140625 140.476562 152.171875 140.476562 C 152.34375 140.476562 152.6875 140.367188 152.6875 139.945312 C 152.6875 139.695312 152.5 139.429688 152.15625 139.429688 C 152.078125 139.429688 152.0625 139.429688 152.03125 139.445312 C 152.25 138.789062 152.796875 138.429688 153.375 138.429688 C 154.28125 138.429688 154.703125 139.242188 154.703125 140.054688 C 154.703125 140.851562 154.21875 141.632812 153.65625 142.257812 L 151.75 144.382812 C 151.640625 144.492188 151.640625 144.523438 151.640625 144.757812 L 155.34375 144.757812 L 155.609375 143.023438 L 155.375 143.023438 C 155.3125 143.320312 155.25 143.757812 155.140625 143.914062 C 155.078125 143.992188 154.421875 143.992188 154.203125 143.992188 Z M 152.40625 143.992188 "
       id="path31656" />
    <path
       style=" stroke:none;fill-rule:nonzero;fill:rgb(0%,0%,0%);fill-opacity:1;"
       d="M 158.765625 141.039062 L 159.890625 141.039062 C 159.5625 142.507812 159.46875 142.945312 159.46875 143.617188 C 159.46875 143.757812 159.46875 144.023438 159.546875 144.367188 C 159.65625 144.804688 159.765625 144.867188 159.90625 144.867188 C 160.109375 144.867188 160.328125 144.695312 160.328125 144.492188 C 160.328125 144.429688 160.328125 144.414062 160.265625 144.273438 C 159.96875 143.554688 159.96875 142.898438 159.96875 142.617188 C 159.96875 142.101562 160.046875 141.554688 160.15625 141.039062 L 161.28125 141.039062 C 161.421875 141.039062 161.78125 141.039062 161.78125 140.695312 C 161.78125 140.460938 161.5625 140.460938 161.375 140.460938 L 158.03125 140.460938 C 157.8125 140.460938 157.4375 140.460938 157 140.929688 C 156.65625 141.320312 156.390625 141.773438 156.390625 141.820312 C 156.390625 141.835938 156.390625 141.929688 156.515625 141.929688 C 156.59375 141.929688 156.609375 141.882812 156.671875 141.804688 C 157.15625 141.039062 157.734375 141.039062 157.9375 141.039062 L 158.5 141.039062 C 158.1875 142.242188 157.65625 143.445312 157.234375 144.351562 C 157.15625 144.507812 157.15625 144.523438 157.15625 144.601562 C 157.15625 144.789062 157.3125 144.867188 157.4375 144.867188 C 157.734375 144.867188 157.8125 144.585938 157.9375 144.226562 C 158.078125 143.757812 158.078125 143.742188 158.203125 143.242188 Z M 158.765625 141.039062 "
       id="path31658" />
    <path
       style=" stroke:none;fill-rule:nonzero;fill:rgb(0%,0%,0%);fill-opacity:1;"
       d="M 11.9375 120.058594 C 11.9375 119.261719 11.890625 118.464844 11.546875 117.730469 C 11.09375 116.761719 10.265625 116.605469 9.859375 116.605469 C 9.25 116.605469 8.53125 116.871094 8.109375 117.792969 C 7.796875 118.480469 7.75 119.261719 7.75 120.058594 C 7.75 120.808594 7.78125 121.699219 8.203125 122.464844 C 8.625 123.261719 9.359375 123.464844 9.84375 123.464844 C 10.375 123.464844 11.140625 123.261719 11.578125 122.308594 C 11.890625 121.621094 11.9375 120.839844 11.9375 120.058594 Z M 9.84375 123.246094 C 9.453125 123.246094 8.859375 122.996094 8.6875 122.042969 C 8.578125 121.449219 8.578125 120.527344 8.578125 119.933594 C 8.578125 119.292969 8.578125 118.636719 8.65625 118.105469 C 8.84375 116.917969 9.59375 116.824219 9.84375 116.824219 C 10.171875 116.824219 10.828125 117.011719 11.015625 117.996094 C 11.125 118.558594 11.125 119.308594 11.125 119.933594 C 11.125 120.683594 11.125 121.355469 11.015625 121.996094 C 10.859375 122.949219 10.296875 123.246094 9.84375 123.246094 Z M 9.84375 123.246094 "
       id="path31660" />
    <path
       style=" stroke:none;fill-rule:nonzero;fill:rgb(0%,0%,0%);fill-opacity:1;"
       d="M 4.1875 67.496094 C 4.1875 66.699219 4.140625 65.902344 3.796875 65.167969 C 3.34375 64.199219 2.515625 64.042969 2.109375 64.042969 C 1.5 64.042969 0.78125 64.308594 0.359375 65.230469 C 0.046875 65.917969 0 66.699219 0 67.496094 C 0 68.246094 0.03125 69.136719 0.453125 69.902344 C 0.875 70.699219 1.609375 70.902344 2.09375 70.902344 C 2.625 70.902344 3.390625 70.699219 3.828125 69.746094 C 4.140625 69.058594 4.1875 68.277344 4.1875 67.496094 Z M 2.09375 70.683594 C 1.703125 70.683594 1.109375 70.433594 0.9375 69.480469 C 0.828125 68.886719 0.828125 67.964844 0.828125 67.371094 C 0.828125 66.730469 0.828125 66.074219 0.90625 65.542969 C 1.09375 64.355469 1.84375 64.261719 2.09375 64.261719 C 2.421875 64.261719 3.078125 64.449219 3.265625 65.433594 C 3.375 65.996094 3.375 66.746094 3.375 67.371094 C 3.375 68.121094 3.375 68.792969 3.265625 69.433594 C 3.109375 70.386719 2.546875 70.683594 2.09375 70.683594 Z M 2.09375 70.683594 "
       id="path31662" />
    <path
       style=" stroke:none;fill-rule:nonzero;fill:rgb(0%,0%,0%);fill-opacity:1;"
       d="M 6.496094 70.152344 C 6.496094 69.871094 6.261719 69.621094 5.980469 69.621094 C 5.683594 69.621094 5.449219 69.871094 5.449219 70.152344 C 5.449219 70.449219 5.683594 70.683594 5.980469 70.683594 C 6.261719 70.683594 6.496094 70.449219 6.496094 70.152344 Z M 6.496094 70.152344 "
       id="path31664" />
    <path
       style=" stroke:none;fill-rule:nonzero;fill:rgb(0%,0%,0%);fill-opacity:1;"
       d="M 11.828125 68.683594 C 11.828125 67.496094 11.015625 66.496094 9.9375 66.496094 C 9.46875 66.496094 9.03125 66.652344 8.671875 67.011719 L 8.671875 65.058594 C 8.875 65.121094 9.203125 65.183594 9.515625 65.183594 C 10.75 65.183594 11.453125 64.277344 11.453125 64.152344 C 11.453125 64.089844 11.421875 64.042969 11.34375 64.042969 C 11.34375 64.042969 11.3125 64.042969 11.265625 64.074219 C 11.0625 64.167969 10.578125 64.371094 9.90625 64.371094 C 9.515625 64.371094 9.046875 64.292969 8.578125 64.089844 C 8.5 64.058594 8.484375 64.058594 8.46875 64.058594 C 8.359375 64.058594 8.359375 64.136719 8.359375 64.292969 L 8.359375 67.246094 C 8.359375 67.417969 8.359375 67.496094 8.5 67.496094 C 8.578125 67.496094 8.59375 67.480469 8.640625 67.417969 C 8.75 67.261719 9.109375 66.714844 9.921875 66.714844 C 10.4375 66.714844 10.6875 67.167969 10.765625 67.355469 C 10.921875 67.730469 10.953125 68.105469 10.953125 68.605469 C 10.953125 68.964844 10.953125 69.558594 10.703125 69.980469 C 10.46875 70.371094 10.09375 70.621094 9.640625 70.621094 C 8.921875 70.621094 8.34375 70.089844 8.171875 69.511719 C 8.203125 69.511719 8.234375 69.527344 8.34375 69.527344 C 8.671875 69.527344 8.84375 69.277344 8.84375 69.042969 C 8.84375 68.792969 8.671875 68.542969 8.34375 68.542969 C 8.203125 68.542969 7.859375 68.621094 7.859375 69.074219 C 7.859375 69.933594 8.546875 70.902344 9.65625 70.902344 C 10.8125 70.902344 11.828125 69.949219 11.828125 68.683594 Z M 11.828125 68.683594 "
       id="path31666" />
    <path
       style=" stroke:none;fill-rule:nonzero;fill:rgb(0%,0%,0%);fill-opacity:1;"
       d="M 10.296875 11.746094 C 10.296875 11.496094 10.296875 11.480469 10.0625 11.480469 C 9.4375 12.121094 8.5625 12.121094 8.25 12.121094 L 8.25 12.433594 C 8.453125 12.433594 9.03125 12.433594 9.546875 12.167969 L 9.546875 17.339844 C 9.546875 17.699219 9.515625 17.808594 8.625 17.808594 L 8.3125 17.808594 L 8.3125 18.121094 C 8.65625 18.089844 9.515625 18.089844 9.921875 18.089844 C 10.3125 18.089844 11.1875 18.089844 11.53125 18.121094 L 11.53125 17.808594 L 11.21875 17.808594 C 10.3125 17.808594 10.296875 17.699219 10.296875 17.339844 Z M 10.296875 11.746094 "
       id="path31668" />
    <path
       style="fill:none;stroke-width:0.79725;stroke-linecap:round;stroke-linejoin:miter;stroke:rgb(0%,0%,69.018555%);stroke-opacity:1;stroke-miterlimit:10;"
       d="M 28.875 -14.878906 C 28.875 -14.878906 29.019531 -14.839844 29.085938 -14.859375 C 29.171875 -14.886719 29.222656 -14.988281 29.300781 -15.035156 C 29.367188 -15.074219 29.445312 -15.09375 29.515625 -15.128906 C 29.589844 -15.167969 29.660156 -15.207031 29.726562 -15.257812 C 29.804688 -15.316406 29.871094 -15.382812 29.941406 -15.449219 C 30.015625 -15.519531 30.085938 -15.59375 30.15625 -15.664062 C 30.226562 -15.738281 30.300781 -15.808594 30.371094 -15.886719 C 30.445312 -15.96875 30.515625 -16.050781 30.582031 -16.136719 C 30.65625 -16.234375 30.726562 -16.339844 30.796875 -16.441406 C 30.867188 -16.546875 30.941406 -16.648438 31.011719 -16.757812 C 31.085938 -16.875 31.152344 -16.996094 31.222656 -17.117188 C 31.292969 -17.242188 31.367188 -17.371094 31.4375 -17.5 C 31.507812 -17.632812 31.582031 -17.765625 31.652344 -17.898438 C 31.726562 -18.046875 31.796875 -18.199219 31.867188 -18.347656 C 31.9375 -18.5 32.007812 -18.652344 32.078125 -18.808594 C 32.152344 -18.972656 32.222656 -19.140625 32.292969 -19.308594 C 32.367188 -19.484375 32.4375 -19.664062 32.507812 -19.84375 C 32.578125 -20.03125 32.648438 -20.21875 32.71875 -20.40625 C 32.789062 -20.601562 32.863281 -20.796875 32.933594 -20.992188 C 33.003906 -21.195312 33.078125 -21.394531 33.148438 -21.597656 C 33.21875 -21.808594 33.289062 -22.023438 33.359375 -22.238281 C 33.429688 -22.460938 33.503906 -22.6875 33.574219 -22.910156 C 33.644531 -23.140625 33.71875 -23.371094 33.789062 -23.601562 C 33.863281 -23.84375 33.933594 -24.089844 34.003906 -24.332031 C 34.074219 -24.578125 34.144531 -24.828125 34.214844 -25.074219 C 34.285156 -25.335938 34.359375 -25.59375 34.429688 -25.855469 C 34.5 -26.125 34.574219 -26.390625 34.644531 -26.660156 C 34.714844 -26.933594 34.785156 -27.210938 34.855469 -27.484375 C 34.925781 -27.769531 35 -28.054688 35.070312 -28.339844 C 35.140625 -28.632812 35.214844 -28.921875 35.285156 -29.214844 C 35.355469 -29.515625 35.425781 -29.820312 35.496094 -30.121094 C 35.566406 -30.429688 35.640625 -30.738281 35.710938 -31.046875 C 35.78125 -31.363281 35.855469 -31.675781 35.925781 -31.992188 C 35.996094 -32.316406 36.070312 -32.644531 36.140625 -32.96875 C 36.210938 -33.300781 36.28125 -33.628906 36.351562 -33.960938 C 36.421875 -34.300781 36.496094 -34.640625 36.566406 -34.980469 C 36.636719 -35.328125 36.710938 -35.679688 36.78125 -36.027344 C 36.851562 -36.378906 36.921875 -36.734375 36.992188 -37.085938 C 37.0625 -37.445312 37.136719 -37.808594 37.207031 -38.167969 C 37.277344 -38.535156 37.351562 -38.90625 37.421875 -39.273438 C 37.492188 -39.648438 37.5625 -40.023438 37.632812 -40.398438 C 37.703125 -40.78125 37.777344 -41.164062 37.847656 -41.546875 C 37.917969 -41.933594 37.992188 -42.316406 38.0625 -42.703125 C 38.132812 -43.097656 38.207031 -43.496094 38.277344 -43.890625 C 38.347656 -44.289062 38.417969 -44.6875 38.488281 -45.085938 C 38.558594 -45.492188 38.632812 -45.902344 38.703125 -46.308594 C 38.773438 -46.71875 38.847656 -47.132812 38.917969 -47.542969 C 38.988281 -47.960938 39.058594 -48.375 39.128906 -48.792969 C 39.199219 -49.214844 39.273438 -49.636719 39.34375 -50.058594 C 39.414062 -50.488281 39.488281 -50.914062 39.558594 -51.34375 C 39.628906 -51.773438 39.699219 -52.207031 39.769531 -52.636719 C 39.839844 -53.074219 39.914062 -53.515625 39.984375 -53.953125 C 40.054688 -54.394531 40.128906 -54.832031 40.199219 -55.273438 C 40.269531 -55.71875 40.34375 -56.167969 40.414062 -56.613281 C 40.484375 -57.0625 40.554688 -57.511719 40.625 -57.960938 C 40.695312 -58.414062 40.769531 -58.871094 40.839844 -59.324219 C 40.910156 -59.78125 40.984375 -60.242188 41.054688 -60.699219 C 41.125 -61.160156 41.195312 -61.621094 41.265625 -62.082031 C 41.335938 -62.546875 41.410156 -63.011719 41.480469 -63.476562 C 41.550781 -63.945312 41.625 -64.410156 41.695312 -64.878906 C 41.765625 -65.351562 41.835938 -65.820312 41.90625 -66.292969 C 41.976562 -66.765625 42.050781 -67.242188 42.121094 -67.714844 C 42.191406 -68.191406 42.265625 -68.667969 42.335938 -69.144531 C 42.40625 -69.625 42.480469 -70.101562 42.550781 -70.582031 C 42.621094 -71.0625 42.691406 -71.539062 42.761719 -72.019531 C 42.832031 -72.503906 42.90625 -72.984375 42.976562 -73.46875 C 43.046875 -73.953125 43.121094 -74.441406 43.191406 -74.925781 C 43.261719 -75.410156 43.332031 -75.894531 43.402344 -76.378906 C 43.542969 -77.351562 43.691406 -78.328125 43.832031 -79.300781 C 43.902344 -79.792969 43.972656 -80.28125 44.042969 -80.773438 C 44.113281 -81.261719 44.183594 -81.753906 44.257812 -82.242188 C 44.328125 -82.730469 44.402344 -83.21875 44.472656 -83.707031 C 44.542969 -84.199219 44.617188 -84.6875 44.6875 -85.179688 C 44.757812 -85.667969 44.828125 -86.160156 44.898438 -86.648438 C 45.039062 -87.628906 45.183594 -88.605469 45.328125 -89.585938 C 45.398438 -90.074219 45.46875 -90.5625 45.539062 -91.050781 C 45.609375 -91.539062 45.679688 -92.027344 45.753906 -92.515625 C 45.824219 -93.003906 45.894531 -93.488281 45.96875 -93.976562 C 46.039062 -94.460938 46.113281 -94.945312 46.183594 -95.429688 C 46.253906 -95.914062 46.324219 -96.398438 46.394531 -96.882812 C 46.464844 -97.367188 46.535156 -97.847656 46.609375 -98.332031 C 46.679688 -98.8125 46.753906 -99.289062 46.824219 -99.769531 C 46.894531 -100.246094 46.964844 -100.726562 47.035156 -101.203125 C 47.105469 -101.679688 47.175781 -102.15625 47.25 -102.632812 C 47.320312 -103.105469 47.394531 -103.578125 47.464844 -104.050781 C 47.535156 -104.519531 47.605469 -104.992188 47.675781 -105.460938 C 47.746094 -105.929688 47.816406 -106.394531 47.890625 -106.863281 C 47.960938 -107.328125 48.03125 -107.789062 48.105469 -108.253906 C 48.175781 -108.714844 48.25 -109.175781 48.320312 -109.636719 C 48.390625 -110.09375 48.460938 -110.550781 48.53125 -111.007812 C 48.601562 -111.460938 48.671875 -111.914062 48.746094 -112.367188 C 48.816406 -112.816406 48.890625 -113.265625 48.960938 -113.714844 C 49.03125 -114.160156 49.101562 -114.601562 49.171875 -115.046875 C 49.242188 -115.488281 49.3125 -115.929688 49.386719 -116.371094 C 49.457031 -116.808594 49.53125 -117.242188 49.601562 -117.679688 C 49.671875 -118.109375 49.722656 -118.546875 49.8125 -118.972656 C 49.871094 -119.257812 49.734375 -119.835938 50.027344 -119.824219 C 50.453125 -119.808594 50.167969 -118.984375 50.242188 -118.5625 C 50.3125 -118.148438 50.386719 -117.730469 50.457031 -117.316406 C 50.527344 -116.90625 50.597656 -116.496094 50.667969 -116.085938 C 50.738281 -115.683594 50.808594 -115.277344 50.882812 -114.875 C 50.953125 -114.476562 51.023438 -114.074219 51.097656 -113.675781 C 51.167969 -113.285156 51.234375 -112.890625 51.308594 -112.5 C 51.378906 -112.113281 51.449219 -111.730469 51.523438 -111.34375 C 51.59375 -110.964844 51.664062 -110.582031 51.738281 -110.203125 C 51.808594 -109.828125 51.875 -109.457031 51.949219 -109.082031 C 52.019531 -108.714844 52.089844 -108.351562 52.164062 -107.984375 C 52.234375 -107.625 52.304688 -107.265625 52.378906 -106.90625 C 52.449219 -106.554688 52.519531 -106.199219 52.59375 -105.847656 C 52.664062 -105.503906 52.730469 -105.15625 52.804688 -104.8125 C 52.875 -104.476562 52.945312 -104.136719 53.019531 -103.800781 C 53.089844 -103.46875 53.160156 -103.140625 53.234375 -102.808594 C 53.304688 -102.484375 53.371094 -102.164062 53.445312 -101.839844 C 53.515625 -101.523438 53.585938 -101.210938 53.660156 -100.894531 C 53.730469 -100.589844 53.800781 -100.28125 53.875 -99.976562 C 53.945312 -99.679688 54.011719 -99.378906 54.085938 -99.082031 C 54.15625 -98.789062 54.226562 -98.5 54.300781 -98.207031 C 54.371094 -97.925781 54.441406 -97.640625 54.515625 -97.359375 C 54.585938 -97.085938 54.65625 -96.8125 54.730469 -96.539062 C 54.800781 -96.273438 54.867188 -96.011719 54.941406 -95.746094 C 55.011719 -95.488281 55.082031 -95.234375 55.15625 -94.976562 C 55.226562 -94.730469 55.296875 -94.480469 55.371094 -94.234375 C 55.441406 -93.996094 55.507812 -93.753906 55.582031 -93.515625 C 55.652344 -93.285156 55.722656 -93.058594 55.796875 -92.828125 C 55.867188 -92.609375 55.9375 -92.386719 56.011719 -92.167969 C 56.082031 -91.957031 56.148438 -91.742188 56.222656 -91.53125 C 56.292969 -91.328125 56.363281 -91.128906 56.4375 -90.925781 C 56.507812 -90.734375 56.578125 -90.539062 56.652344 -90.347656 C 56.722656 -90.164062 56.792969 -89.980469 56.867188 -89.796875 C 56.9375 -89.625 57.003906 -89.449219 57.078125 -89.277344 C 57.148438 -89.113281 57.21875 -88.949219 57.292969 -88.785156 C 57.363281 -88.628906 57.433594 -88.476562 57.507812 -88.324219 C 57.574219 -88.179688 57.644531 -88.035156 57.71875 -87.890625 C 57.785156 -87.753906 57.859375 -87.621094 57.933594 -87.488281 C 58.003906 -87.363281 58.074219 -87.238281 58.148438 -87.113281 C 58.214844 -86.996094 58.285156 -86.882812 58.359375 -86.769531 C 58.425781 -86.664062 58.5 -86.558594 58.574219 -86.457031 C 58.644531 -86.359375 58.714844 -86.265625 58.789062 -86.171875 C 58.859375 -86.085938 58.929688 -86 59.003906 -85.917969 C 59.070312 -85.839844 59.140625 -85.765625 59.214844 -85.695312 C 59.28125 -85.628906 59.355469 -85.566406 59.429688 -85.503906 C 59.5 -85.449219 59.570312 -85.394531 59.644531 -85.34375 C 59.710938 -85.296875 59.78125 -85.25 59.855469 -85.210938 C 59.925781 -85.171875 59.996094 -85.136719 60.070312 -85.109375 C 60.140625 -85.082031 60.210938 -85.0625 60.285156 -85.042969 C 60.355469 -85.027344 60.425781 -85.011719 60.496094 -85.003906 C 60.566406 -84.996094 60.636719 -84.992188 60.710938 -84.996094 C 60.78125 -85 60.855469 -85.007812 60.925781 -85.019531 C 60.996094 -85.03125 61.070312 -85.050781 61.140625 -85.074219 C 61.210938 -85.097656 61.28125 -85.125 61.351562 -85.15625 C 61.425781 -85.191406 61.496094 -85.230469 61.566406 -85.273438 C 61.640625 -85.316406 61.710938 -85.367188 61.78125 -85.417969 C 61.855469 -85.472656 61.921875 -85.535156 61.992188 -85.597656 C 62.066406 -85.664062 62.136719 -85.734375 62.207031 -85.804688 C 62.28125 -85.882812 62.351562 -85.960938 62.421875 -86.042969 C 62.496094 -86.128906 62.5625 -86.21875 62.632812 -86.308594 C 62.707031 -86.40625 62.777344 -86.507812 62.847656 -86.609375 C 62.921875 -86.71875 62.992188 -86.828125 63.0625 -86.9375 C 63.136719 -87.054688 63.207031 -87.175781 63.277344 -87.296875 C 63.347656 -87.425781 63.417969 -87.554688 63.488281 -87.683594 C 63.5625 -87.820312 63.632812 -87.960938 63.703125 -88.101562 C 63.777344 -88.25 63.847656 -88.398438 63.917969 -88.550781 C 63.988281 -88.707031 64.058594 -88.867188 64.128906 -89.027344 C 64.199219 -89.195312 64.273438 -89.363281 64.34375 -89.535156 C 64.417969 -89.710938 64.488281 -89.890625 64.558594 -90.070312 C 64.628906 -90.257812 64.699219 -90.445312 64.769531 -90.632812 C 64.839844 -90.832031 64.914062 -91.027344 64.984375 -91.226562 C 65.054688 -91.433594 65.128906 -91.636719 65.199219 -91.84375 C 65.273438 -92.058594 65.34375 -92.277344 65.414062 -92.492188 C 65.484375 -92.71875 65.554688 -92.941406 65.625 -93.167969 C 65.695312 -93.402344 65.769531 -93.636719 65.839844 -93.871094 C 65.910156 -94.113281 65.984375 -94.359375 66.054688 -94.601562 C 66.125 -94.851562 66.195312 -95.105469 66.265625 -95.355469 C 66.335938 -95.617188 66.410156 -95.875 66.480469 -96.136719 C 66.550781 -96.40625 66.625 -96.675781 66.695312 -96.945312 C 66.765625 -97.222656 66.835938 -97.503906 66.90625 -97.78125 C 66.976562 -98.066406 67.050781 -98.355469 67.121094 -98.640625 C 67.191406 -98.933594 67.265625 -99.230469 67.335938 -99.523438 C 67.40625 -99.828125 67.480469 -100.128906 67.550781 -100.433594 C 67.621094 -100.746094 67.691406 -101.054688 67.761719 -101.367188 C 67.832031 -101.683594 67.90625 -102.003906 67.976562 -102.320312 C 68.046875 -102.648438 68.121094 -102.972656 68.191406 -103.300781 C 68.261719 -103.636719 68.332031 -103.96875 68.402344 -104.304688 C 68.472656 -104.644531 68.546875 -104.988281 68.617188 -105.328125 C 68.6875 -105.675781 68.761719 -106.027344 68.832031 -106.375 C 68.902344 -106.730469 68.976562 -107.085938 69.046875 -107.441406 C 69.117188 -107.804688 69.1875 -108.167969 69.257812 -108.53125 C 69.328125 -108.902344 69.402344 -109.269531 69.472656 -109.640625 C 69.542969 -110.015625 69.617188 -110.394531 69.6875 -110.769531 C 69.757812 -111.152344 69.828125 -111.535156 69.898438 -111.917969 C 69.96875 -112.308594 70.042969 -112.695312 70.113281 -113.085938 C 70.183594 -113.480469 70.257812 -113.878906 70.328125 -114.273438 C 70.398438 -114.675781 70.46875 -115.074219 70.539062 -115.476562 C 70.609375 -115.882812 70.683594 -116.292969 70.753906 -116.699219 C 70.824219 -117.113281 70.898438 -117.523438 70.96875 -117.9375 C 71.039062 -118.355469 71.050781 -118.789062 71.183594 -119.191406 C 71.230469 -119.339844 71.238281 -119.636719 71.394531 -119.613281 C 71.824219 -119.546875 71.539062 -118.757812 71.609375 -118.328125 C 71.679688 -117.894531 71.753906 -117.460938 71.824219 -117.027344 C 71.894531 -116.589844 71.964844 -116.148438 72.035156 -115.710938 C 72.105469 -115.269531 72.179688 -114.824219 72.25 -114.382812 C 72.320312 -113.9375 72.394531 -113.488281 72.464844 -113.042969 C 72.535156 -112.59375 72.605469 -112.140625 72.675781 -111.691406 C 72.746094 -111.234375 72.820312 -110.78125 72.890625 -110.324219 C 72.960938 -109.867188 73.035156 -109.40625 73.105469 -108.949219 C 73.175781 -108.488281 73.25 -108.023438 73.320312 -107.5625 C 73.390625 -107.097656 73.460938 -106.628906 73.53125 -106.164062 C 73.601562 -105.695312 73.675781 -105.226562 73.746094 -104.757812 C 73.816406 -104.285156 73.890625 -103.816406 73.960938 -103.34375 C 74.03125 -102.867188 74.101562 -102.394531 74.171875 -101.917969 C 74.242188 -101.441406 74.3125 -100.964844 74.386719 -100.488281 C 74.457031 -100.011719 74.53125 -99.53125 74.601562 -99.054688 C 74.671875 -98.574219 74.742188 -98.089844 74.8125 -97.609375 C 74.882812 -97.125 74.953125 -96.644531 75.027344 -96.160156 C 75.097656 -95.675781 75.171875 -95.191406 75.242188 -94.707031 C 75.3125 -94.21875 75.386719 -93.734375 75.457031 -93.246094 C 75.527344 -92.757812 75.597656 -92.273438 75.667969 -91.785156 C 75.738281 -91.296875 75.8125 -90.8125 75.882812 -90.324219 C 75.953125 -89.832031 76.027344 -89.34375 76.097656 -88.851562 C 76.167969 -88.363281 76.238281 -87.875 76.308594 -87.386719 C 76.378906 -86.894531 76.449219 -86.40625 76.523438 -85.914062 C 76.59375 -85.425781 76.667969 -84.933594 76.738281 -84.445312 C 76.808594 -83.957031 76.878906 -83.464844 76.949219 -82.976562 C 77.019531 -82.484375 77.089844 -81.996094 77.164062 -81.503906 C 77.304688 -80.527344 77.449219 -79.550781 77.59375 -78.574219 C 77.664062 -78.085938 77.734375 -77.597656 77.804688 -77.109375 C 77.945312 -76.136719 78.089844 -75.167969 78.234375 -74.195312 C 78.304688 -73.710938 78.375 -73.230469 78.445312 -72.746094 C 78.515625 -72.265625 78.585938 -71.78125 78.660156 -71.300781 C 78.730469 -70.820312 78.804688 -70.34375 78.875 -69.863281 C 78.945312 -69.386719 79.015625 -68.910156 79.085938 -68.433594 C 79.15625 -67.957031 79.226562 -67.480469 79.300781 -67.003906 C 79.441406 -66.0625 79.585938 -65.117188 79.730469 -64.175781 C 79.800781 -63.710938 79.871094 -63.246094 79.941406 -62.78125 C 80.011719 -62.320312 80.082031 -61.855469 80.15625 -61.394531 C 80.226562 -60.933594 80.300781 -60.472656 80.371094 -60.011719 C 80.441406 -59.554688 80.511719 -59.101562 80.582031 -58.644531 C 80.652344 -58.191406 80.722656 -57.738281 80.796875 -57.285156 C 80.867188 -56.839844 80.941406 -56.390625 81.011719 -55.945312 C 81.082031 -55.5 81.152344 -55.058594 81.222656 -54.613281 C 81.292969 -54.171875 81.363281 -53.734375 81.4375 -53.292969 C 81.507812 -52.859375 81.578125 -52.425781 81.652344 -51.992188 C 81.722656 -51.5625 81.796875 -51.128906 81.867188 -50.699219 C 81.9375 -50.273438 82.007812 -49.851562 82.078125 -49.425781 C 82.148438 -49.007812 82.21875 -48.585938 82.292969 -48.167969 C 82.363281 -47.753906 82.433594 -47.335938 82.507812 -46.921875 C 82.578125 -46.511719 82.648438 -46.105469 82.71875 -45.695312 C 82.789062 -45.292969 82.859375 -44.890625 82.933594 -44.488281 C 83.003906 -44.089844 83.074219 -43.695312 83.148438 -43.296875 C 83.21875 -42.90625 83.285156 -42.515625 83.359375 -42.125 C 83.429688 -41.742188 83.5 -41.355469 83.574219 -40.972656 C 83.644531 -40.59375 83.714844 -40.21875 83.789062 -39.839844 C 83.859375 -39.46875 83.929688 -39.09375 84.003906 -38.722656 C 84.074219 -38.359375 84.140625 -37.992188 84.214844 -37.628906 C 84.285156 -37.269531 84.355469 -36.914062 84.429688 -36.554688 C 84.5 -36.203125 84.570312 -35.851562 84.644531 -35.5 C 84.714844 -35.160156 84.785156 -34.816406 84.855469 -34.476562 C 84.925781 -34.140625 84.996094 -33.800781 85.070312 -33.464844 C 85.140625 -33.136719 85.210938 -32.804688 85.285156 -32.476562 C 85.355469 -32.160156 85.425781 -31.839844 85.496094 -31.523438 C 85.566406 -31.207031 85.636719 -30.894531 85.710938 -30.578125 C 85.78125 -30.273438 85.851562 -29.972656 85.925781 -29.667969 C 85.996094 -29.371094 86.066406 -29.070312 86.140625 -28.773438 C 86.210938 -28.484375 86.277344 -28.199219 86.351562 -27.910156 C 86.421875 -27.628906 86.492188 -27.347656 86.566406 -27.066406 C 86.636719 -26.792969 86.707031 -26.519531 86.78125 -26.246094 C 86.851562 -25.984375 86.917969 -25.726562 86.992188 -25.464844 C 87.0625 -25.210938 87.132812 -24.953125 87.207031 -24.699219 C 87.277344 -24.453125 87.347656 -24.210938 87.421875 -23.964844 C 87.492188 -23.726562 87.558594 -23.492188 87.632812 -23.253906 C 87.703125 -23.023438 87.773438 -22.796875 87.847656 -22.566406 C 87.917969 -22.347656 87.988281 -22.128906 88.0625 -21.910156 C 88.132812 -21.703125 88.203125 -21.492188 88.277344 -21.285156 C 88.34375 -21.089844 88.414062 -20.890625 88.488281 -20.695312 C 88.558594 -20.503906 88.628906 -20.3125 88.703125 -20.121094 C 88.773438 -19.9375 88.84375 -19.757812 88.917969 -19.574219 C 88.984375 -19.402344 89.054688 -19.230469 89.128906 -19.0625 C 89.199219 -18.898438 89.269531 -18.738281 89.34375 -18.578125 C 89.414062 -18.421875 89.484375 -18.269531 89.558594 -18.117188 C 89.625 -17.972656 89.695312 -17.832031 89.769531 -17.691406 C 89.835938 -17.558594 89.910156 -17.429688 89.984375 -17.300781 C 90.054688 -17.175781 90.125 -17.050781 90.199219 -16.929688 C 90.269531 -16.8125 90.339844 -16.699219 90.414062 -16.585938 C 90.480469 -16.484375 90.550781 -16.390625 90.625 -16.292969 C 90.695312 -16.203125 90.765625 -16.113281 90.839844 -16.023438 C 90.910156 -15.941406 90.980469 -15.855469 91.054688 -15.777344 C 91.121094 -15.707031 91.195312 -15.644531 91.265625 -15.574219 C 91.335938 -15.503906 91.398438 -15.421875 91.480469 -15.359375 C 91.546875 -15.308594 91.625 -15.273438 91.695312 -15.226562 C 91.769531 -15.175781 91.832031 -15.109375 91.90625 -15.054688 C 91.976562 -15.003906 92.035156 -14.925781 92.121094 -14.910156 C 92.191406 -14.894531 92.265625 -14.972656 92.335938 -14.957031 C 92.425781 -14.933594 92.457031 -14.796875 92.550781 -14.777344 C 92.621094 -14.761719 92.695312 -14.808594 92.761719 -14.84375 C 92.84375 -14.894531 92.878906 -15.027344 92.976562 -15.042969 C 93.054688 -15.054688 93.109375 -14.933594 93.191406 -14.9375 C 93.277344 -14.945312 93.328125 -15.035156 93.402344 -15.082031 C 93.472656 -15.125 93.546875 -15.160156 93.617188 -15.207031 C 93.691406 -15.257812 93.761719 -15.316406 93.832031 -15.375 C 93.902344 -15.433594 93.972656 -15.5 94.042969 -15.5625 C 94.113281 -15.628906 94.191406 -15.6875 94.257812 -15.757812 C 94.335938 -15.839844 94.402344 -15.933594 94.472656 -16.019531 C 94.542969 -16.109375 94.617188 -16.195312 94.6875 -16.285156 C 94.757812 -16.378906 94.832031 -16.476562 94.898438 -16.574219 C 94.976562 -16.691406 95.042969 -16.8125 95.113281 -16.933594 C 95.183594 -17.054688 95.257812 -17.175781 95.328125 -17.296875 C 95.402344 -17.429688 95.46875 -17.5625 95.539062 -17.695312 C 95.609375 -17.835938 95.683594 -17.976562 95.753906 -18.121094 C 95.828125 -18.269531 95.898438 -18.417969 95.96875 -18.570312 C 96.039062 -18.730469 96.109375 -18.890625 96.179688 -19.050781 C 96.253906 -19.222656 96.324219 -19.398438 96.394531 -19.574219 C 96.46875 -19.757812 96.539062 -19.941406 96.609375 -20.125 C 96.679688 -20.316406 96.753906 -20.507812 96.824219 -20.699219 C 96.894531 -20.894531 96.964844 -21.085938 97.035156 -21.28125 C 97.109375 -21.492188 97.179688 -21.699219 97.25 -21.910156 C 97.320312 -22.125 97.394531 -22.339844 97.464844 -22.558594 C 97.535156 -22.785156 97.605469 -23.015625 97.675781 -23.246094 C 97.746094 -23.484375 97.820312 -23.726562 97.890625 -23.964844 C 97.960938 -24.210938 98.035156 -24.453125 98.105469 -24.699219 C 98.175781 -24.953125 98.25 -25.203125 98.320312 -25.457031 C 98.390625 -25.71875 98.460938 -25.984375 98.53125 -26.246094 C 98.601562 -26.519531 98.675781 -26.789062 98.746094 -27.0625 C 98.816406 -27.34375 98.890625 -27.621094 98.960938 -27.902344 C 99.03125 -28.191406 99.101562 -28.476562 99.171875 -28.765625 C 99.242188 -29.0625 99.316406 -29.363281 99.386719 -29.660156 C 99.457031 -29.964844 99.53125 -30.273438 99.601562 -30.578125 C 99.671875 -30.890625 99.742188 -31.207031 99.8125 -31.519531 C 99.882812 -31.839844 99.957031 -32.15625 100.027344 -32.476562 C 100.097656 -32.804688 100.171875 -33.128906 100.242188 -33.457031 C 100.3125 -33.792969 100.386719 -34.132812 100.457031 -34.46875 C 100.527344 -34.8125 100.597656 -35.15625 100.667969 -35.5 C 100.738281 -35.851562 100.8125 -36.199219 100.882812 -36.550781 C 100.953125 -36.90625 101.027344 -37.265625 101.097656 -37.621094 C 101.167969 -37.984375 101.238281 -38.351562 101.308594 -38.714844 C 101.378906 -39.089844 101.453125 -39.460938 101.523438 -39.835938 C 101.59375 -40.214844 101.667969 -40.589844 101.738281 -40.96875 C 101.808594 -41.351562 101.878906 -41.738281 101.949219 -42.121094 C 102.019531 -42.511719 102.09375 -42.902344 102.164062 -43.292969 C 102.234375 -43.6875 102.308594 -44.085938 102.378906 -44.480469 C 102.449219 -44.882812 102.523438 -45.289062 102.59375 -45.691406 C 102.664062 -46.101562 102.734375 -46.511719 102.804688 -46.921875 C 102.875 -47.335938 102.949219 -47.75 103.019531 -48.164062 C 103.089844 -48.582031 103.164062 -49 103.234375 -49.417969 C 103.304688 -49.84375 103.375 -50.269531 103.445312 -50.695312 C 103.515625 -51.125 103.589844 -51.554688 103.660156 -51.984375 C 103.730469 -52.417969 103.804688 -52.855469 103.875 -53.289062 C 103.945312 -53.730469 104.015625 -54.167969 104.085938 -54.609375 C 104.15625 -55.054688 104.230469 -55.496094 104.300781 -55.941406 C 104.371094 -56.386719 104.445312 -56.835938 104.515625 -57.28125 C 104.585938 -57.734375 104.660156 -58.183594 104.730469 -58.636719 C 104.800781 -59.09375 104.871094 -59.550781 104.941406 -60.007812 C 105.011719 -60.46875 105.085938 -60.925781 105.15625 -61.386719 C 105.226562 -61.851562 105.300781 -62.3125 105.371094 -62.777344 C 105.441406 -63.242188 105.511719 -63.707031 105.582031 -64.171875 C 105.722656 -65.113281 105.871094 -66.058594 106.011719 -67 C 106.082031 -67.476562 106.152344 -67.949219 106.222656 -68.425781 C 106.292969 -68.902344 106.363281 -69.382812 106.4375 -69.859375 C 106.507812 -70.339844 106.582031 -70.816406 106.652344 -71.296875 C 106.722656 -71.777344 106.796875 -72.261719 106.867188 -72.742188 C 106.9375 -73.226562 107.007812 -73.707031 107.078125 -74.191406 C 107.21875 -75.164062 107.367188 -76.132812 107.507812 -77.105469 C 107.578125 -77.59375 107.648438 -78.078125 107.71875 -78.566406 C 107.789062 -79.054688 107.859375 -79.546875 107.933594 -80.035156 C 108.003906 -80.523438 108.078125 -81.011719 108.148438 -81.5 C 108.21875 -81.988281 108.289062 -82.480469 108.359375 -82.96875 C 108.429688 -83.460938 108.5 -83.949219 108.574219 -84.441406 C 108.714844 -85.421875 108.859375 -86.398438 109.003906 -87.378906 C 109.074219 -87.867188 109.144531 -88.359375 109.214844 -88.847656 C 109.285156 -89.335938 109.355469 -89.828125 109.429688 -90.316406 C 109.5 -90.804688 109.574219 -91.292969 109.644531 -91.78125 C 109.714844 -92.269531 109.785156 -92.753906 109.855469 -93.242188 C 109.925781 -93.730469 109.996094 -94.214844 110.070312 -94.703125 C 110.140625 -95.1875 110.214844 -95.667969 110.285156 -96.152344 C 110.355469 -96.636719 110.425781 -97.121094 110.496094 -97.605469 C 110.566406 -98.085938 110.636719 -98.566406 110.710938 -99.046875 C 110.78125 -99.527344 110.851562 -100.003906 110.925781 -100.484375 C 110.996094 -100.960938 111.070312 -101.4375 111.140625 -101.914062 C 111.210938 -102.386719 111.28125 -102.863281 111.351562 -103.335938 C 111.421875 -103.808594 111.492188 -104.28125 111.566406 -104.753906 C 111.636719 -105.222656 111.710938 -105.691406 111.78125 -106.160156 C 111.851562 -106.625 111.921875 -107.089844 111.992188 -107.554688 C 112.0625 -108.015625 112.132812 -108.480469 112.207031 -108.941406 C 112.277344 -109.402344 112.351562 -109.859375 112.421875 -110.320312 C 112.492188 -110.773438 112.5625 -111.230469 112.632812 -111.683594 C 112.703125 -112.136719 112.773438 -112.585938 112.847656 -113.039062 C 112.917969 -113.484375 112.988281 -113.933594 113.0625 -114.378906 C 113.132812 -114.820312 113.207031 -115.265625 113.277344 -115.707031 C 113.347656 -116.144531 113.417969 -116.585938 113.488281 -117.023438 C 113.558594 -117.457031 113.628906 -117.890625 113.703125 -118.324219 C 113.773438 -118.753906 113.488281 -119.542969 113.917969 -119.609375 C 114.070312 -119.632812 114.078125 -119.34375 114.128906 -119.195312 C 114.261719 -118.792969 114.269531 -118.359375 114.34375 -117.941406 C 114.414062 -117.527344 114.488281 -117.117188 114.558594 -116.703125 C 114.628906 -116.296875 114.699219 -115.886719 114.769531 -115.480469 C 114.839844 -115.078125 114.910156 -114.679688 114.984375 -114.277344 C 115.054688 -113.882812 115.125 -113.484375 115.199219 -113.089844 C 115.269531 -112.699219 115.339844 -112.3125 115.414062 -111.921875 C 115.484375 -111.539062 115.550781 -111.15625 115.625 -110.773438 C 115.695312 -110.398438 115.765625 -110.019531 115.839844 -109.644531 C 115.910156 -109.273438 115.980469 -108.90625 116.054688 -108.535156 C 116.125 -108.171875 116.191406 -107.808594 116.265625 -107.445312 C 116.335938 -107.089844 116.40625 -106.734375 116.480469 -106.378906 C 116.550781 -106.03125 116.621094 -105.679688 116.695312 -105.332031 C 116.765625 -104.992188 116.832031 -104.648438 116.90625 -104.308594 C 116.976562 -103.972656 117.046875 -103.640625 117.121094 -103.304688 C 117.191406 -102.976562 117.261719 -102.652344 117.335938 -102.324219 C 117.40625 -102.003906 117.476562 -101.6875 117.550781 -101.367188 C 117.621094 -101.054688 117.6875 -100.746094 117.761719 -100.433594 C 117.832031 -100.132812 117.902344 -99.828125 117.976562 -99.527344 C 118.046875 -99.234375 118.117188 -98.9375 118.191406 -98.644531 C 118.261719 -98.359375 118.328125 -98.070312 118.402344 -97.785156 C 118.472656 -97.507812 118.542969 -97.226562 118.617188 -96.949219 C 118.6875 -96.679688 118.757812 -96.410156 118.832031 -96.140625 C 118.902344 -95.878906 118.96875 -95.621094 119.042969 -95.359375 C 119.113281 -95.105469 119.183594 -94.855469 119.257812 -94.601562 C 119.328125 -94.359375 119.398438 -94.113281 119.472656 -93.871094 C 119.542969 -93.636719 119.613281 -93.40625 119.6875 -93.171875 C 119.757812 -92.945312 119.824219 -92.722656 119.898438 -92.496094 C 119.96875 -92.28125 120.039062 -92.0625 120.113281 -91.847656 C 120.183594 -91.640625 120.253906 -91.433594 120.328125 -91.226562 C 120.398438 -91.03125 120.464844 -90.832031 120.539062 -90.636719 C 120.609375 -90.445312 120.679688 -90.257812 120.753906 -90.070312 C 120.824219 -89.890625 120.894531 -89.714844 120.96875 -89.535156 C 121.035156 -89.367188 121.105469 -89.199219 121.179688 -89.03125 C 121.25 -88.871094 121.320312 -88.710938 121.394531 -88.550781 C 121.464844 -88.402344 121.535156 -88.253906 121.609375 -88.105469 C 121.679688 -87.964844 121.75 -87.824219 121.824219 -87.6875 C 121.890625 -87.554688 121.960938 -87.425781 122.035156 -87.296875 C 122.101562 -87.175781 122.175781 -87.054688 122.25 -86.9375 C 122.320312 -86.828125 122.390625 -86.71875 122.464844 -86.609375 C 122.53125 -86.507812 122.601562 -86.410156 122.675781 -86.3125 C 122.742188 -86.222656 122.816406 -86.128906 122.890625 -86.042969 C 122.960938 -85.960938 123.03125 -85.882812 123.105469 -85.804688 C 123.171875 -85.734375 123.242188 -85.664062 123.316406 -85.597656 C 123.382812 -85.535156 123.457031 -85.476562 123.53125 -85.421875 C 123.601562 -85.371094 123.671875 -85.320312 123.746094 -85.273438 C 123.816406 -85.230469 123.886719 -85.191406 123.960938 -85.15625 C 124.027344 -85.125 124.097656 -85.097656 124.171875 -85.074219 C 124.242188 -85.050781 124.3125 -85.03125 124.386719 -85.019531 C 124.457031 -85.007812 124.527344 -85 124.601562 -84.996094 C 124.671875 -84.992188 124.742188 -84.996094 124.8125 -85.003906 C 124.882812 -85.011719 124.957031 -85.027344 125.027344 -85.042969 C 125.097656 -85.0625 125.171875 -85.082031 125.242188 -85.109375 C 125.316406 -85.136719 125.386719 -85.171875 125.457031 -85.210938 C 125.527344 -85.25 125.597656 -85.296875 125.667969 -85.34375 C 125.742188 -85.394531 125.8125 -85.449219 125.882812 -85.503906 C 125.957031 -85.566406 126.027344 -85.628906 126.097656 -85.695312 C 126.171875 -85.765625 126.238281 -85.839844 126.308594 -85.917969 C 126.382812 -86 126.453125 -86.085938 126.523438 -86.171875 C 126.597656 -86.265625 126.667969 -86.359375 126.738281 -86.457031 C 126.808594 -86.558594 126.878906 -86.664062 126.949219 -86.769531 C 127.023438 -86.882812 127.09375 -86.996094 127.164062 -87.113281 C 127.238281 -87.234375 127.308594 -87.359375 127.378906 -87.484375 C 127.453125 -87.617188 127.523438 -87.75 127.59375 -87.886719 C 127.667969 -88.03125 127.734375 -88.179688 127.804688 -88.324219 C 127.875 -88.476562 127.949219 -88.628906 128.019531 -88.785156 C 128.09375 -88.949219 128.164062 -89.113281 128.234375 -89.277344 C 128.304688 -89.449219 128.375 -89.625 128.445312 -89.796875 C 128.515625 -89.980469 128.589844 -90.160156 128.660156 -90.34375 C 128.734375 -90.535156 128.804688 -90.730469 128.875 -90.925781 C 128.945312 -91.125 129.015625 -91.328125 129.085938 -91.527344 C 129.15625 -91.738281 129.230469 -91.953125 129.300781 -92.164062 C 129.371094 -92.382812 129.445312 -92.605469 129.515625 -92.824219 C 129.589844 -93.054688 129.660156 -93.285156 129.730469 -93.515625 C 129.800781 -93.753906 129.871094 -93.992188 129.941406 -94.230469 C 130.011719 -94.476562 130.085938 -94.726562 130.15625 -94.972656 C 130.226562 -95.230469 130.300781 -95.484375 130.371094 -95.742188 C 130.441406 -96.007812 130.511719 -96.269531 130.582031 -96.535156 C 130.652344 -96.808594 130.726562 -97.085938 130.796875 -97.359375 C 130.867188 -97.640625 130.941406 -97.921875 131.011719 -98.203125 C 131.082031 -98.496094 131.152344 -98.785156 131.222656 -99.078125 C 131.292969 -99.375 131.367188 -99.675781 131.4375 -99.972656 C 131.507812 -100.277344 131.582031 -100.585938 131.652344 -100.890625 C 131.722656 -101.207031 131.796875 -101.519531 131.867188 -101.835938 C 131.9375 -102.160156 132.007812 -102.480469 132.078125 -102.804688 C 132.148438 -103.136719 132.222656 -103.464844 132.292969 -103.796875 C 132.363281 -104.132812 132.4375 -104.472656 132.507812 -104.808594 C 132.578125 -105.152344 132.648438 -105.5 132.71875 -105.84375 C 132.789062 -106.195312 132.863281 -106.550781 132.933594 -106.902344 C 133.003906 -107.261719 133.078125 -107.621094 133.148438 -107.980469 C 133.21875 -108.347656 133.289062 -108.710938 133.359375 -109.078125 C 133.429688 -109.453125 133.503906 -109.824219 133.574219 -110.199219 C 133.644531 -110.578125 133.71875 -110.957031 133.789062 -111.335938 C 133.859375 -111.722656 133.933594 -112.109375 134.003906 -112.496094 C 134.074219 -112.886719 134.144531 -113.28125 134.214844 -113.671875 C 134.285156 -114.070312 134.359375 -114.46875 134.429688 -114.867188 C 134.5 -115.273438 134.574219 -115.675781 134.644531 -116.082031 C 134.714844 -116.492188 134.785156 -116.902344 134.855469 -117.3125 C 134.925781 -117.726562 135 -118.144531 135.070312 -118.558594 C 135.140625 -118.980469 134.859375 -119.804688 135.285156 -119.820312 C 135.574219 -119.832031 135.4375 -119.261719 135.496094 -118.976562 C 135.585938 -118.546875 135.640625 -118.113281 135.710938 -117.683594 C 135.78125 -117.246094 135.855469 -116.8125 135.925781 -116.375 C 135.996094 -115.933594 136.070312 -115.496094 136.140625 -115.054688 C 136.210938 -114.609375 136.28125 -114.164062 136.351562 -113.71875 C 136.421875 -113.269531 136.496094 -112.820312 136.566406 -112.371094 C 136.636719 -111.917969 136.710938 -111.464844 136.78125 -111.011719 C 136.851562 -110.554688 136.921875 -110.097656 136.992188 -109.640625 C 137.0625 -109.179688 137.136719 -108.722656 137.207031 -108.261719 C 137.277344 -107.796875 137.351562 -107.332031 137.421875 -106.867188 C 137.492188 -106.398438 137.5625 -105.933594 137.632812 -105.464844 C 137.703125 -104.996094 137.777344 -104.523438 137.847656 -104.054688 C 137.917969 -103.582031 137.992188 -103.109375 138.0625 -102.636719 C 138.132812 -102.160156 138.207031 -101.6875 138.277344 -101.210938 C 138.347656 -100.734375 138.417969 -100.253906 138.488281 -99.777344 C 138.558594 -99.296875 138.628906 -98.816406 138.703125 -98.335938 C 138.773438 -97.855469 138.847656 -97.371094 138.917969 -96.890625 C 138.988281 -96.40625 139.058594 -95.921875 139.128906 -95.4375 C 139.269531 -94.464844 139.417969 -93.496094 139.558594 -92.523438 C 139.628906 -92.035156 139.699219 -91.546875 139.769531 -91.058594 C 139.839844 -90.570312 139.910156 -90.082031 139.984375 -89.59375 C 140.128906 -88.613281 140.273438 -87.636719 140.414062 -86.65625 C 140.484375 -86.164062 140.554688 -85.675781 140.625 -85.183594 C 140.765625 -84.203125 140.910156 -83.226562 141.054688 -82.246094 C 141.125 -81.757812 141.195312 -81.265625 141.265625 -80.777344 C 141.335938 -80.289062 141.40625 -79.796875 141.480469 -79.308594 C 141.550781 -78.820312 141.625 -78.335938 141.695312 -77.847656 C 141.765625 -77.359375 141.835938 -76.871094 141.90625 -76.382812 C 142.117188 -74.929688 142.335938 -73.476562 142.550781 -72.023438 C 142.621094 -71.542969 142.691406 -71.066406 142.761719 -70.585938 C 142.832031 -70.105469 142.902344 -69.628906 142.976562 -69.148438 C 143.046875 -68.671875 143.121094 -68.199219 143.191406 -67.722656 C 143.261719 -67.25 143.332031 -66.773438 143.402344 -66.300781 C 143.472656 -65.828125 143.542969 -65.359375 143.617188 -64.886719 C 143.6875 -64.417969 143.761719 -63.953125 143.832031 -63.484375 C 143.902344 -63.019531 143.972656 -62.554688 144.042969 -62.089844 C 144.113281 -61.628906 144.183594 -61.167969 144.257812 -60.707031 C 144.328125 -60.25 144.398438 -59.789062 144.472656 -59.332031 C 144.542969 -58.875 144.617188 -58.421875 144.6875 -57.964844 C 144.757812 -57.515625 144.828125 -57.066406 144.898438 -56.617188 C 144.96875 -56.171875 145.039062 -55.726562 145.113281 -55.28125 C 145.183594 -54.839844 145.257812 -54.398438 145.328125 -53.957031 C 145.398438 -53.519531 145.46875 -53.082031 145.539062 -52.644531 C 145.609375 -52.210938 145.679688 -51.78125 145.753906 -51.347656 C 145.824219 -50.921875 145.898438 -50.492188 145.96875 -50.066406 C 146.039062 -49.644531 146.109375 -49.21875 146.179688 -48.796875 C 146.25 -48.378906 146.320312 -47.964844 146.394531 -47.546875 C 146.464844 -47.136719 146.535156 -46.722656 146.609375 -46.3125 C 146.679688 -45.902344 146.75 -45.496094 146.824219 -45.085938 C 146.894531 -44.6875 146.964844 -44.292969 147.035156 -43.894531 C 147.105469 -43.5 147.175781 -43.105469 147.25 -42.710938 C 147.320312 -42.324219 147.394531 -41.9375 147.464844 -41.550781 C 147.535156 -41.167969 147.605469 -40.789062 147.675781 -40.40625 C 147.746094 -40.03125 147.816406 -39.652344 147.890625 -39.277344 C 147.960938 -38.910156 148.03125 -38.542969 148.105469 -38.175781 C 148.175781 -37.816406 148.246094 -37.453125 148.316406 -37.09375 C 148.386719 -36.738281 148.457031 -36.382812 148.53125 -36.027344 C 148.601562 -35.679688 148.671875 -35.335938 148.746094 -34.988281 C 148.816406 -34.648438 148.886719 -34.308594 148.960938 -33.96875 C 149.03125 -33.636719 149.097656 -33.304688 149.171875 -32.972656 C 149.242188 -32.648438 149.3125 -32.320312 149.386719 -31.996094 C 149.457031 -31.679688 149.527344 -31.367188 149.601562 -31.050781 C 149.671875 -30.742188 149.738281 -30.429688 149.8125 -30.121094 C 149.882812 -29.820312 149.953125 -29.519531 150.027344 -29.21875 C 150.097656 -28.925781 150.167969 -28.636719 150.242188 -28.34375 C 150.3125 -28.058594 150.378906 -27.773438 150.453125 -27.488281 C 150.523438 -27.214844 150.59375 -26.9375 150.667969 -26.664062 C 150.738281 -26.394531 150.808594 -26.125 150.882812 -25.855469 C 150.953125 -25.597656 151.023438 -25.335938 151.097656 -25.078125 C 151.167969 -24.832031 151.238281 -24.582031 151.308594 -24.335938 C 151.378906 -24.089844 151.449219 -23.847656 151.523438 -23.601562 C 151.59375 -23.371094 151.664062 -23.140625 151.738281 -22.910156 C 151.808594 -22.6875 151.875 -22.460938 151.949219 -22.238281 C 152.019531 -22.023438 152.089844 -21.808594 152.164062 -21.59375 C 152.234375 -21.390625 152.304688 -21.191406 152.378906 -20.992188 C 152.449219 -20.796875 152.519531 -20.601562 152.59375 -20.40625 C 152.664062 -20.222656 152.730469 -20.035156 152.804688 -19.851562 C 152.875 -19.671875 152.945312 -19.492188 153.019531 -19.316406 C 153.089844 -19.148438 153.160156 -18.984375 153.234375 -18.816406 C 153.304688 -18.65625 153.371094 -18.496094 153.445312 -18.339844 C 153.511719 -18.195312 153.585938 -18.054688 153.660156 -17.910156 C 153.730469 -17.769531 153.800781 -17.628906 153.875 -17.492188 C 153.941406 -17.367188 154.015625 -17.246094 154.085938 -17.121094 C 154.15625 -17 154.222656 -16.875 154.300781 -16.753906 C 154.367188 -16.644531 154.441406 -16.542969 154.515625 -16.4375 C 154.585938 -16.339844 154.65625 -16.246094 154.730469 -16.152344 C 154.796875 -16.066406 154.867188 -15.980469 154.941406 -15.898438 C 155.011719 -15.816406 155.082031 -15.734375 155.15625 -15.65625 C 155.222656 -15.585938 155.296875 -15.515625 155.371094 -15.449219 C 155.4375 -15.390625 155.507812 -15.332031 155.582031 -15.277344 C 155.648438 -15.226562 155.71875 -15.171875 155.796875 -15.136719 C 155.863281 -15.105469 155.945312 -15.101562 156.011719 -15.066406 C 156.089844 -15.027344 156.148438 -14.953125 156.222656 -14.910156 C 156.289062 -14.871094 156.359375 -14.8125 156.4375 -14.8125 C 156.515625 -14.8125 156.652344 -14.914062 156.652344 -14.914062 "
       transform="matrix(1,0,0,-1,0,0)"
       id="path31670" />
  </g>
  <path
     style="fill:none;stroke:#000000;stroke-width:0.38148;stroke-linecap:butt;stroke-linejoin:miter;stroke-miterlimit:4;stroke-dasharray:none;stroke-opacity:1;marker-end:url(#marker24909)"
     d="m 133.9407,120.03906 c 11.8377,0 23.67518,0 35.51242,0"
     id="path24897"
     inkscape:path-effect="#path-effect24899"
     inkscape:original-d="m 133.9407,120.03906 c 11.8377,2.6e-4 23.67518,2.6e-4 35.51242,0" />
  <g
     transform="matrix(1.3282297,0,0,1.3282297,148.41342,106.39809)"
     ns7:version="1.2.0"
     ns7:texconverter="pdflatex"
     ns7:pdfconverter="inkscape"
     ns7:text="$\psi$  "
     ns7:preamble="/Users/hasanabbas/Library/Application Support/org.inkscape.Inkscape/config/inkscape/extensions/inkscapeMadeEasy/basicLatexPackages.tex"
     ns7:scale="2.9377590693976736"
     ns7:alignment="middle center"
     ns7:jacobian_sqrt="3.917"
     id="g25228">
    <defs
       id="id-eb9e633f-7f26-409a-b2e6-f965dddbba2c">
      <g
         id="g32277">
        <symbol
           overflow="visible"
           id="symbol32271">
          <path
             style="stroke:none"
             d=""
             id="path32269" />
        </symbol>
        <symbol
           overflow="visible"
           id="symbol32275">
          <path
             style="stroke:none"
             d="m 4.8125,-6.65625 c 0,-0.046875 0.015625,-0.109375 0.015625,-0.15625 0,-0.09375 -0.0625,-0.109375 -0.109375,-0.109375 -0.109375,0 -0.109375,0.03125 -0.15625,0.203125 L 2.90625,-0.125 c -0.75,-0.09375 -1.125,-0.46875 -1.125,-1.125 0,-0.203125 0,-0.453125 0.53125,-1.84375 0.046875,-0.125 0.109375,-0.296875 0.109375,-0.5 0,-0.4375 -0.3125,-0.8125 -0.8125,-0.8125 -0.953125,0 -1.3125,1.453125 -1.3125,1.53125 0,0.109375 0.09375,0.109375 0.109375,0.109375 0.109375,0 0.109375,-0.03125 0.15625,-0.1875 0.28125,-0.9375 0.671875,-1.234375 1.015625,-1.234375 0.078125,0 0.25,0 0.25,0.3125 0,0.265625 -0.109375,0.515625 -0.234375,0.859375 C 1.109375,-1.75 1.109375,-1.5 1.109375,-1.328125 1.109375,-0.375 1.890625,0.03125 2.84375,0.09375 2.765625,0.453125 2.765625,0.46875 2.625,1 2.609375,1.109375 2.40625,1.90625 2.40625,1.9375 c 0,0.015625 0,0.109375 0.109375,0.109375 0.03125,0 0.078125,0 0.09375,-0.046875 0.03125,-0.015625 0.09375,-0.265625 0.125,-0.40625 l 0.375,-1.484375 c 0.375,0 1.25,0 2.1875,-1.0625 0.40625,-0.46875 0.609375,-0.90625 0.71875,-1.203125 0.09375,-0.25 0.3125,-1.109375 0.3125,-1.546875 0,-0.5625 -0.265625,-0.703125 -0.4375,-0.703125 -0.25,0 -0.5,0.265625 -0.5,0.484375 0,0.125 0.0625,0.1875 0.15625,0.265625 0.109375,0.109375 0.359375,0.359375 0.359375,0.84375 0,0.640625 -0.515625,1.453125 -0.875,1.8125 -0.875,0.890625 -1.515625,0.890625 -1.875,0.890625 z m 0,0"
             id="path32273" />
        </symbol>
      </g>
    </defs>
    <g
       id="id-822374ac-7963-40e6-8a4e-dd635a4d1d62"
       transform="translate(-149.009,-127.843)">
      <g
         style="fill:#000000;fill-opacity:1"
         id="id-55d7a9f6-b837-46c0-a25b-56a8b5e74c5d">
        <g
           transform="translate(148.712,134.765)"
           id="g29834">
          <path
             style="stroke:none"
             d="m 4.8125,-6.65625 c 0,-0.046875 0.015625,-0.109375 0.015625,-0.15625 0,-0.09375 -0.0625,-0.109375 -0.109375,-0.109375 -0.109375,0 -0.109375,0.03125 -0.15625,0.203125 L 2.90625,-0.125 c -0.75,-0.09375 -1.125,-0.46875 -1.125,-1.125 0,-0.203125 0,-0.453125 0.53125,-1.84375 0.046875,-0.125 0.109375,-0.296875 0.109375,-0.5 0,-0.4375 -0.3125,-0.8125 -0.8125,-0.8125 -0.953125,0 -1.3125,1.453125 -1.3125,1.53125 0,0.109375 0.09375,0.109375 0.109375,0.109375 0.109375,0 0.109375,-0.03125 0.15625,-0.1875 0.28125,-0.9375 0.671875,-1.234375 1.015625,-1.234375 0.078125,0 0.25,0 0.25,0.3125 0,0.265625 -0.109375,0.515625 -0.234375,0.859375 C 1.109375,-1.75 1.109375,-1.5 1.109375,-1.328125 1.109375,-0.375 1.890625,0.03125 2.84375,0.09375 2.765625,0.453125 2.765625,0.46875 2.625,1 2.609375,1.109375 2.40625,1.90625 2.40625,1.9375 c 0,0.015625 0,0.109375 0.109375,0.109375 0.03125,0 0.078125,0 0.09375,-0.046875 0.03125,-0.015625 0.09375,-0.265625 0.125,-0.40625 l 0.375,-1.484375 c 0.375,0 1.25,0 2.1875,-1.0625 0.40625,-0.46875 0.609375,-0.90625 0.71875,-1.203125 0.09375,-0.25 0.3125,-1.109375 0.3125,-1.546875 0,-0.5625 -0.265625,-0.703125 -0.4375,-0.703125 -0.25,0 -0.5,0.265625 -0.5,0.484375 0,0.125 0.0625,0.1875 0.15625,0.265625 0.109375,0.109375 0.359375,0.359375 0.359375,0.84375 0,0.640625 -0.515625,1.453125 -0.875,1.8125 -0.875,0.890625 -1.515625,0.890625 -1.875,0.890625 z m 0,0"
             id="id-4604e52d-560e-4644-bce8-762a9fd7d7ce" />
        </g>
      </g>
    </g>
  </g>
</svg>
