<?xml version="1.0" encoding="UTF-8"?>
<!DOCTYPE svg PUBLIC "-//W3C//DTD SVG 1.1//EN" "http://www.w3.org/Graphics/SVG/1.1/DTD/svg11.dtd">
<svg xmlns="http://www.w3.org/2000/svg" version="1.1" viewBox="0 0 59 59" stroke="none">
	<rect width="100%" height="100%" fill="#FFFFFF"/>
	<path d="M3,3h1v1h-1z M4,3h1v1h-1z M5,3h1v1h-1z M6,3h1v1h-1z M7,3h1v1h-1z M8,3h1v1h-1z M9,3h1v1h-1z M11,3h1v1h-1z M12,3h1v1h-1z M13,3h1v1h-1z M14,3h1v1h-1z M17,3h1v1h-1z M20,3h1v1h-1z M21,3h1v1h-1z M22,3h1v1h-1z M27,3h1v1h-1z M28,3h1v1h-1z M31,3h1v1h-1z M34,3h1v1h-1z M36,3h1v1h-1z M38,3h1v1h-1z M40,3h1v1h-1z M43,3h1v1h-1z M44,3h1v1h-1z M45,3h1v1h-1z M49,3h1v1h-1z M50,3h1v1h-1z M51,3h1v1h-1z M52,3h1v1h-1z M53,3h1v1h-1z M54,3h1v1h-1z M55,3h1v1h-1z M3,4h1v1h-1z M9,4h1v1h-1z M11,4h1v1h-1z M13,4h1v1h-1z M15,4h1v1h-1z M17,4h1v1h-1z M18,4h1v1h-1z M20,4h1v1h-1z M21,4h1v1h-1z M25,4h1v1h-1z M27,4h1v1h-1z M28,4h1v1h-1z M29,4h1v1h-1z M31,4h1v1h-1z M35,4h1v1h-1z M36,4h1v1h-1z M38,4h1v1h-1z M41,4h1v1h-1z M43,4h1v1h-1z M44,4h1v1h-1z M45,4h1v1h-1z M46,4h1v1h-1z M49,4h1v1h-1z M55,4h1v1h-1z M3,5h1v1h-1z M5,5h1v1h-1z M6,5h1v1h-1z M7,5h1v1h-1z M9,5h1v1h-1z M11,5h1v1h-1z M12,5h1v1h-1z M14,5h1v1h-1z M15,5h1v1h-1z M17,5h1v1h-1z M19,5h1v1h-1z M21,5h1v1h-1z M22,5h1v1h-1z M24,5h1v1h-1z M30,5h1v1h-1z M31,5h1v1h-1z M33,5h1v1h-1z M34,5h1v1h-1z M36,5h1v1h-1z M37,5h1v1h-1z M39,5h1v1h-1z M40,5h1v1h-1z M42,5h1v1h-1z M43,5h1v1h-1z M46,5h1v1h-1z M49,5h1v1h-1z M51,5h1v1h-1z M52,5h1v1h-1z M53,5h1v1h-1z M55,5h1v1h-1z M3,6h1v1h-1z M5,6h1v1h-1z M6,6h1v1h-1z M7,6h1v1h-1z M9,6h1v1h-1z M12,6h1v1h-1z M14,6h1v1h-1z M16,6h1v1h-1z M18,6h1v1h-1z M20,6h1v1h-1z M23,6h1v1h-1z M25,6h1v1h-1z M29,6h1v1h-1z M30,6h1v1h-1z M31,6h1v1h-1z M34,6h1v1h-1z M38,6h1v1h-1z M44,6h1v1h-1z M45,6h1v1h-1z M47,6h1v1h-1z M49,6h1v1h-1z M51,6h1v1h-1z M52,6h1v1h-1z M53,6h1v1h-1z M55,6h1v1h-1z M3,7h1v1h-1z M5,7h1v1h-1z M6,7h1v1h-1z M7,7h1v1h-1z M9,7h1v1h-1z M12,7h1v1h-1z M13,7h1v1h-1z M16,7h1v1h-1z M17,7h1v1h-1z M21,7h1v1h-1z M22,7h1v1h-1z M23,7h1v1h-1z M25,7h1v1h-1z M26,7h1v1h-1z M27,7h1v1h-1z M28,7h1v1h-1z M29,7h1v1h-1z M30,7h1v1h-1z M31,7h1v1h-1z M32,7h1v1h-1z M34,7h1v1h-1z M35,7h1v1h-1z M42,7h1v1h-1z M43,7h1v1h-1z M44,7h1v1h-1z M45,7h1v1h-1z M49,7h1v1h-1z M51,7h1v1h-1z M52,7h1v1h-1z M53,7h1v1h-1z M55,7h1v1h-1z M3,8h1v1h-1z M9,8h1v1h-1z M11,8h1v1h-1z M12,8h1v1h-1z M16,8h1v1h-1z M18,8h1v1h-1z M19,8h1v1h-1z M20,8h1v1h-1z M24,8h1v1h-1z M25,8h1v1h-1z M27,8h1v1h-1z M31,8h1v1h-1z M32,8h1v1h-1z M34,8h1v1h-1z M36,8h1v1h-1z M38,8h1v1h-1z M40,8h1v1h-1z M41,8h1v1h-1z M42,8h1v1h-1z M45,8h1v1h-1z M49,8h1v1h-1z M55,8h1v1h-1z M3,9h1v1h-1z M4,9h1v1h-1z M5,9h1v1h-1z M6,9h1v1h-1z M7,9h1v1h-1z M8,9h1v1h-1z M9,9h1v1h-1z M11,9h1v1h-1z M13,9h1v1h-1z M15,9h1v1h-1z M17,9h1v1h-1z M19,9h1v1h-1z M21,9h1v1h-1z M23,9h1v1h-1z M25,9h1v1h-1z M27,9h1v1h-1z M29,9h1v1h-1z M31,9h1v1h-1z M33,9h1v1h-1z M35,9h1v1h-1z M37,9h1v1h-1z M39,9h1v1h-1z M41,9h1v1h-1z M43,9h1v1h-1z M45,9h1v1h-1z M47,9h1v1h-1z M49,9h1v1h-1z M50,9h1v1h-1z M51,9h1v1h-1z M52,9h1v1h-1z M53,9h1v1h-1z M54,9h1v1h-1z M55,9h1v1h-1z M11,10h1v1h-1z M12,10h1v1h-1z M13,10h1v1h-1z M14,10h1v1h-1z M20,10h1v1h-1z M21,10h1v1h-1z M22,10h1v1h-1z M23,10h1v1h-1z M25,10h1v1h-1z M27,10h1v1h-1z M31,10h1v1h-1z M33,10h1v1h-1z M34,10h1v1h-1z M37,10h1v1h-1z M39,10h1v1h-1z M40,10h1v1h-1z M41,10h1v1h-1z M42,10h1v1h-1z M43,10h1v1h-1z M44,10h1v1h-1z M45,10h1v1h-1z M5,11h1v1h-1z M6,11h1v1h-1z M7,11h1v1h-1z M9,11h1v1h-1z M11,11h1v1h-1z M13,11h1v1h-1z M14,11h1v1h-1z M16,11h1v1h-1z M18,11h1v1h-1z M22,11h1v1h-1z M23,11h1v1h-1z M25,11h1v1h-1z M26,11h1v1h-1z M27,11h1v1h-1z M28,11h1v1h-1z M29,11h1v1h-1z M30,11h1v1h-1z M31,11h1v1h-1z M32,11h1v1h-1z M35,11h1v1h-1z M37,11h1v1h-1z M39,11h1v1h-1z M44,11h1v1h-1z M45,11h1v1h-1z M46,11h1v1h-1z M47,11h1v1h-1z M48,11h1v1h-1z M49,11h1v1h-1z M50,11h1v1h-1z M53,11h1v1h-1z M54,11h1v1h-1z M55,11h1v1h-1z M3,12h1v1h-1z M6,12h1v1h-1z M7,12h1v1h-1z M10,12h1v1h-1z M11,12h1v1h-1z M13,12h1v1h-1z M15,12h1v1h-1z M17,12h1v1h-1z M18,12h1v1h-1z M19,12h1v1h-1z M22,12h1v1h-1z M24,12h1v1h-1z M29,12h1v1h-1z M31,12h1v1h-1z M32,12h1v1h-1z M33,12h1v1h-1z M34,12h1v1h-1z M35,12h1v1h-1z M38,12h1v1h-1z M40,12h1v1h-1z M43,12h1v1h-1z M45,12h1v1h-1z M50,12h1v1h-1z M54,12h1v1h-1z M55,12h1v1h-1z M3,13h1v1h-1z M4,13h1v1h-1z M7,13h1v1h-1z M9,13h1v1h-1z M10,13h1v1h-1z M12,13h1v1h-1z M16,13h1v1h-1z M19,13h1v1h-1z M20,13h1v1h-1z M23,13h1v1h-1z M25,13h1v1h-1z M28,13h1v1h-1z M32,13h1v1h-1z M33,13h1v1h-1z M34,13h1v1h-1z M38,13h1v1h-1z M39,13h1v1h-1z M40,13h1v1h-1z M43,13h1v1h-1z M46,13h1v1h-1z M47,13h1v1h-1z M49,13h1v1h-1z M51,13h1v1h-1z M53,13h1v1h-1z M3,14h1v1h-1z M4,14h1v1h-1z M10,14h1v1h-1z M12,14h1v1h-1z M13,14h1v1h-1z M15,14h1v1h-1z M16,14h1v1h-1z M18,14h1v1h-1z M21,14h1v1h-1z M23,14h1v1h-1z M24,14h1v1h-1z M25,14h1v1h-1z M26,14h1v1h-1z M28,14h1v1h-1z M29,14h1v1h-1z M32,14h1v1h-1z M34,14h1v1h-1z M35,14h1v1h-1z M36,14h1v1h-1z M37,14h1v1h-1z M38,14h1v1h-1z M41,14h1v1h-1z M42,14h1v1h-1z M45,14h1v1h-1z M48,14h1v1h-1z M50,14h1v1h-1z M52,14h1v1h-1z M55,14h1v1h-1z M3,15h1v1h-1z M6,15h1v1h-1z M7,15h1v1h-1z M8,15h1v1h-1z M9,15h1v1h-1z M11,15h1v1h-1z M13,15h1v1h-1z M21,15h1v1h-1z M22,15h1v1h-1z M23,15h1v1h-1z M25,15h1v1h-1z M28,15h1v1h-1z M29,15h1v1h-1z M31,15h1v1h-1z M33,15h1v1h-1z M34,15h1v1h-1z M38,15h1v1h-1z M39,15h1v1h-1z M43,15h1v1h-1z M44,15h1v1h-1z M45,15h1v1h-1z M46,15h1v1h-1z M50,15h1v1h-1z M51,15h1v1h-1z M53,15h1v1h-1z M3,16h1v1h-1z M4,16h1v1h-1z M6,16h1v1h-1z M8,16h1v1h-1z M10,16h1v1h-1z M11,16h1v1h-1z M13,16h1v1h-1z M14,16h1v1h-1z M15,16h1v1h-1z M16,16h1v1h-1z M19,16h1v1h-1z M23,16h1v1h-1z M24,16h1v1h-1z M25,16h1v1h-1z M26,16h1v1h-1z M28,16h1v1h-1z M32,16h1v1h-1z M33,16h1v1h-1z M36,16h1v1h-1z M38,16h1v1h-1z M39,16h1v1h-1z M40,16h1v1h-1z M42,16h1v1h-1z M43,16h1v1h-1z M44,16h1v1h-1z M45,16h1v1h-1z M48,16h1v1h-1z M52,16h1v1h-1z M53,16h1v1h-1z M54,16h1v1h-1z M55,16h1v1h-1z M3,17h1v1h-1z M7,17h1v1h-1z M9,17h1v1h-1z M10,17h1v1h-1z M12,17h1v1h-1z M13,17h1v1h-1z M16,17h1v1h-1z M18,17h1v1h-1z M19,17h1v1h-1z M21,17h1v1h-1z M25,17h1v1h-1z M28,17h1v1h-1z M30,17h1v1h-1z M31,17h1v1h-1z M32,17h1v1h-1z M33,17h1v1h-1z M37,17h1v1h-1z M38,17h1v1h-1z M40,17h1v1h-1z M41,17h1v1h-1z M43,17h1v1h-1z M44,17h1v1h-1z M45,17h1v1h-1z M46,17h1v1h-1z M50,17h1v1h-1z M51,17h1v1h-1z M52,17h1v1h-1z M3,18h1v1h-1z M4,18h1v1h-1z M6,18h1v1h-1z M7,18h1v1h-1z M12,18h1v1h-1z M13,18h1v1h-1z M14,18h1v1h-1z M15,18h1v1h-1z M16,18h1v1h-1z M18,18h1v1h-1z M22,18h1v1h-1z M25,18h1v1h-1z M26,18h1v1h-1z M27,18h1v1h-1z M28,18h1v1h-1z M30,18h1v1h-1z M34,18h1v1h-1z M38,18h1v1h-1z M43,18h1v1h-1z M44,18h1v1h-1z M51,18h1v1h-1z M52,18h1v1h-1z M3,19h1v1h-1z M4,19h1v1h-1z M5,19h1v1h-1z M7,19h1v1h-1z M8,19h1v1h-1z M9,19h1v1h-1z M10,19h1v1h-1z M12,19h1v1h-1z M13,19h1v1h-1z M15,19h1v1h-1z M16,19h1v1h-1z M17,19h1v1h-1z M19,19h1v1h-1z M22,19h1v1h-1z M23,19h1v1h-1z M27,19h1v1h-1z M29,19h1v1h-1z M30,19h1v1h-1z M34,19h1v1h-1z M36,19h1v1h-1z M38,19h1v1h-1z M39,19h1v1h-1z M41,19h1v1h-1z M44,19h1v1h-1z M46,19h1v1h-1z M47,19h1v1h-1z M48,19h1v1h-1z M50,19h1v1h-1z M51,19h1v1h-1z M52,19h1v1h-1z M53,19h1v1h-1z M54,19h1v1h-1z M4,20h1v1h-1z M5,20h1v1h-1z M6,20h1v1h-1z M7,20h1v1h-1z M8,20h1v1h-1z M10,20h1v1h-1z M11,20h1v1h-1z M13,20h1v1h-1z M14,20h1v1h-1z M15,20h1v1h-1z M17,20h1v1h-1z M18,20h1v1h-1z M21,20h1v1h-1z M22,20h1v1h-1z M29,20h1v1h-1z M32,20h1v1h-1z M33,20h1v1h-1z M36,20h1v1h-1z M38,20h1v1h-1z M39,20h1v1h-1z M40,20h1v1h-1z M44,20h1v1h-1z M45,20h1v1h-1z M46,20h1v1h-1z M51,20h1v1h-1z M52,20h1v1h-1z M54,20h1v1h-1z M55,20h1v1h-1z M3,21h1v1h-1z M6,21h1v1h-1z M7,21h1v1h-1z M8,21h1v1h-1z M9,21h1v1h-1z M12,21h1v1h-1z M13,21h1v1h-1z M17,21h1v1h-1z M23,21h1v1h-1z M24,21h1v1h-1z M25,21h1v1h-1z M26,21h1v1h-1z M29,21h1v1h-1z M31,21h1v1h-1z M32,21h1v1h-1z M35,21h1v1h-1z M36,21h1v1h-1z M38,21h1v1h-1z M41,21h1v1h-1z M42,21h1v1h-1z M44,21h1v1h-1z M46,21h1v1h-1z M49,21h1v1h-1z M52,21h1v1h-1z M53,21h1v1h-1z M3,22h1v1h-1z M4,22h1v1h-1z M7,22h1v1h-1z M11,22h1v1h-1z M15,22h1v1h-1z M17,22h1v1h-1z M22,22h1v1h-1z M23,22h1v1h-1z M24,22h1v1h-1z M26,22h1v1h-1z M27,22h1v1h-1z M29,22h1v1h-1z M32,22h1v1h-1z M33,22h1v1h-1z M38,22h1v1h-1z M39,22h1v1h-1z M42,22h1v1h-1z M45,22h1v1h-1z M46,22h1v1h-1z M47,22h1v1h-1z M48,22h1v1h-1z M52,22h1v1h-1z M5,23h1v1h-1z M6,23h1v1h-1z M7,23h1v1h-1z M9,23h1v1h-1z M11,23h1v1h-1z M12,23h1v1h-1z M14,23h1v1h-1z M15,23h1v1h-1z M16,23h1v1h-1z M19,23h1v1h-1z M21,23h1v1h-1z M22,23h1v1h-1z M23,23h1v1h-1z M26,23h1v1h-1z M28,23h1v1h-1z M30,23h1v1h-1z M33,23h1v1h-1z M34,23h1v1h-1z M35,23h1v1h-1z M36,23h1v1h-1z M37,23h1v1h-1z M39,23h1v1h-1z M40,23h1v1h-1z M44,23h1v1h-1z M45,23h1v1h-1z M46,23h1v1h-1z M47,23h1v1h-1z M48,23h1v1h-1z M49,23h1v1h-1z M50,23h1v1h-1z M51,23h1v1h-1z M3,24h1v1h-1z M5,24h1v1h-1z M7,24h1v1h-1z M8,24h1v1h-1z M10,24h1v1h-1z M14,24h1v1h-1z M17,24h1v1h-1z M21,24h1v1h-1z M22,24h1v1h-1z M23,24h1v1h-1z M24,24h1v1h-1z M25,24h1v1h-1z M26,24h1v1h-1z M31,24h1v1h-1z M32,24h1v1h-1z M35,24h1v1h-1z M37,24h1v1h-1z M38,24h1v1h-1z M39,24h1v1h-1z M44,24h1v1h-1z M45,24h1v1h-1z M46,24h1v1h-1z M52,24h1v1h-1z M53,24h1v1h-1z M54,24h1v1h-1z M3,25h1v1h-1z M9,25h1v1h-1z M10,25h1v1h-1z M11,25h1v1h-1z M13,25h1v1h-1z M18,25h1v1h-1z M21,25h1v1h-1z M22,25h1v1h-1z M24,25h1v1h-1z M25,25h1v1h-1z M26,25h1v1h-1z M32,25h1v1h-1z M33,25h1v1h-1z M35,25h1v1h-1z M36,25h1v1h-1z M39,25h1v1h-1z M40,25h1v1h-1z M42,25h1v1h-1z M43,25h1v1h-1z M44,25h1v1h-1z M45,25h1v1h-1z M46,25h1v1h-1z M48,25h1v1h-1z M49,25h1v1h-1z M50,25h1v1h-1z M51,25h1v1h-1z M52,25h1v1h-1z M53,25h1v1h-1z M55,25h1v1h-1z M4,26h1v1h-1z M7,26h1v1h-1z M8,26h1v1h-1z M10,26h1v1h-1z M12,26h1v1h-1z M14,26h1v1h-1z M16,26h1v1h-1z M18,26h1v1h-1z M21,26h1v1h-1z M23,26h1v1h-1z M25,26h1v1h-1z M26,26h1v1h-1z M30,26h1v1h-1z M31,26h1v1h-1z M35,26h1v1h-1z M37,26h1v1h-1z M42,26h1v1h-1z M43,26h1v1h-1z M45,26h1v1h-1z M46,26h1v1h-1z M52,26h1v1h-1z M54,26h1v1h-1z M55,26h1v1h-1z M5,27h1v1h-1z M7,27h1v1h-1z M8,27h1v1h-1z M9,27h1v1h-1z M10,27h1v1h-1z M11,27h1v1h-1z M13,27h1v1h-1z M14,27h1v1h-1z M16,27h1v1h-1z M17,27h1v1h-1z M20,27h1v1h-1z M22,27h1v1h-1z M24,27h1v1h-1z M26,27h1v1h-1z M27,27h1v1h-1z M28,27h1v1h-1z M29,27h1v1h-1z M30,27h1v1h-1z M31,27h1v1h-1z M33,27h1v1h-1z M34,27h1v1h-1z M35,27h1v1h-1z M38,27h1v1h-1z M39,27h1v1h-1z M40,27h1v1h-1z M41,27h1v1h-1z M44,27h1v1h-1z M47,27h1v1h-1z M48,27h1v1h-1z M49,27h1v1h-1z M50,27h1v1h-1z M51,27h1v1h-1z M52,27h1v1h-1z M53,27h1v1h-1z M55,27h1v1h-1z M3,28h1v1h-1z M7,28h1v1h-1z M11,28h1v1h-1z M12,28h1v1h-1z M13,28h1v1h-1z M15,28h1v1h-1z M17,28h1v1h-1z M21,28h1v1h-1z M24,28h1v1h-1z M27,28h1v1h-1z M31,28h1v1h-1z M32,28h1v1h-1z M33,28h1v1h-1z M37,28h1v1h-1z M40,28h1v1h-1z M42,28h1v1h-1z M43,28h1v1h-1z M44,28h1v1h-1z M45,28h1v1h-1z M46,28h1v1h-1z M47,28h1v1h-1z M51,28h1v1h-1z M55,28h1v1h-1z M3,29h1v1h-1z M5,29h1v1h-1z M7,29h1v1h-1z M9,29h1v1h-1z M11,29h1v1h-1z M13,29h1v1h-1z M14,29h1v1h-1z M19,29h1v1h-1z M24,29h1v1h-1z M26,29h1v1h-1z M27,29h1v1h-1z M29,29h1v1h-1z M31,29h1v1h-1z M33,29h1v1h-1z M34,29h1v1h-1z M35,29h1v1h-1z M36,29h1v1h-1z M38,29h1v1h-1z M41,29h1v1h-1z M42,29h1v1h-1z M46,29h1v1h-1z M47,29h1v1h-1z M49,29h1v1h-1z M51,29h1v1h-1z M52,29h1v1h-1z M54,29h1v1h-1z M3,30h1v1h-1z M4,30h1v1h-1z M6,30h1v1h-1z M7,30h1v1h-1z M11,30h1v1h-1z M13,30h1v1h-1z M19,30h1v1h-1z M21,30h1v1h-1z M22,30h1v1h-1z M23,30h1v1h-1z M24,30h1v1h-1z M25,30h1v1h-1z M26,30h1v1h-1z M27,30h1v1h-1z M31,30h1v1h-1z M32,30h1v1h-1z M34,30h1v1h-1z M37,30h1v1h-1z M42,30h1v1h-1z M43,30h1v1h-1z M44,30h1v1h-1z M47,30h1v1h-1z M51,30h1v1h-1z M54,30h1v1h-1z M55,30h1v1h-1z M4,31h1v1h-1z M5,31h1v1h-1z M6,31h1v1h-1z M7,31h1v1h-1z M8,31h1v1h-1z M9,31h1v1h-1z M10,31h1v1h-1z M11,31h1v1h-1z M12,31h1v1h-1z M13,31h1v1h-1z M16,31h1v1h-1z M17,31h1v1h-1z M18,31h1v1h-1z M20,31h1v1h-1z M24,31h1v1h-1z M25,31h1v1h-1z M27,31h1v1h-1z M28,31h1v1h-1z M29,31h1v1h-1z M30,31h1v1h-1z M31,31h1v1h-1z M33,31h1v1h-1z M34,31h1v1h-1z M36,31h1v1h-1z M37,31h1v1h-1z M39,31h1v1h-1z M40,31h1v1h-1z M41,31h1v1h-1z M47,31h1v1h-1z M48,31h1v1h-1z M49,31h1v1h-1z M50,31h1v1h-1z M51,31h1v1h-1z M52,31h1v1h-1z M3,32h1v1h-1z M5,32h1v1h-1z M12,32h1v1h-1z M13,32h1v1h-1z M14,32h1v1h-1z M16,32h1v1h-1z M17,32h1v1h-1z M18,32h1v1h-1z M20,32h1v1h-1z M23,32h1v1h-1z M25,32h1v1h-1z M26,32h1v1h-1z M27,32h1v1h-1z M28,32h1v1h-1z M30,32h1v1h-1z M31,32h1v1h-1z M32,32h1v1h-1z M33,32h1v1h-1z M34,32h1v1h-1z M35,32h1v1h-1z M36,32h1v1h-1z M39,32h1v1h-1z M40,32h1v1h-1z M42,32h1v1h-1z M43,32h1v1h-1z M44,32h1v1h-1z M46,32h1v1h-1z M49,32h1v1h-1z M50,32h1v1h-1z M51,32h1v1h-1z M53,32h1v1h-1z M55,32h1v1h-1z M6,33h1v1h-1z M9,33h1v1h-1z M10,33h1v1h-1z M12,33h1v1h-1z M14,33h1v1h-1z M15,33h1v1h-1z M20,33h1v1h-1z M21,33h1v1h-1z M22,33h1v1h-1z M26,33h1v1h-1z M30,33h1v1h-1z M32,33h1v1h-1z M33,33h1v1h-1z M35,33h1v1h-1z M36,33h1v1h-1z M37,33h1v1h-1z M39,33h1v1h-1z M41,33h1v1h-1z M42,33h1v1h-1z M45,33h1v1h-1z M47,33h1v1h-1z M50,33h1v1h-1z M3,34h1v1h-1z M4,34h1v1h-1z M7,34h1v1h-1z M10,34h1v1h-1z M16,34h1v1h-1z M17,34h1v1h-1z M18,34h1v1h-1z M19,34h1v1h-1z M20,34h1v1h-1z M21,34h1v1h-1z M22,34h1v1h-1z M23,34h1v1h-1z M24,34h1v1h-1z M25,34h1v1h-1z M26,34h1v1h-1z M30,34h1v1h-1z M34,34h1v1h-1z M35,34h1v1h-1z M40,34h1v1h-1z M41,34h1v1h-1z M42,34h1v1h-1z M43,34h1v1h-1z M46,34h1v1h-1z M48,34h1v1h-1z M49,34h1v1h-1z M50,34h1v1h-1z M52,34h1v1h-1z M54,34h1v1h-1z M55,34h1v1h-1z M5,35h1v1h-1z M8,35h1v1h-1z M9,35h1v1h-1z M10,35h1v1h-1z M14,35h1v1h-1z M15,35h1v1h-1z M16,35h1v1h-1z M17,35h1v1h-1z M19,35h1v1h-1z M20,35h1v1h-1z M21,35h1v1h-1z M22,35h1v1h-1z M23,35h1v1h-1z M24,35h1v1h-1z M26,35h1v1h-1z M27,35h1v1h-1z M28,35h1v1h-1z M30,35h1v1h-1z M31,35h1v1h-1z M33,35h1v1h-1z M34,35h1v1h-1z M36,35h1v1h-1z M39,35h1v1h-1z M40,35h1v1h-1z M47,35h1v1h-1z M50,35h1v1h-1z M52,35h1v1h-1z M53,35h1v1h-1z M54,35h1v1h-1z M55,35h1v1h-1z M6,36h1v1h-1z M7,36h1v1h-1z M13,36h1v1h-1z M15,36h1v1h-1z M16,36h1v1h-1z M17,36h1v1h-1z M18,36h1v1h-1z M19,36h1v1h-1z M23,36h1v1h-1z M25,36h1v1h-1z M27,36h1v1h-1z M28,36h1v1h-1z M30,36h1v1h-1z M32,36h1v1h-1z M35,36h1v1h-1z M36,36h1v1h-1z M39,36h1v1h-1z M43,36h1v1h-1z M45,36h1v1h-1z M46,36h1v1h-1z M47,36h1v1h-1z M50,36h1v1h-1z M51,36h1v1h-1z M54,36h1v1h-1z M5,37h1v1h-1z M6,37h1v1h-1z M7,37h1v1h-1z M8,37h1v1h-1z M9,37h1v1h-1z M10,37h1v1h-1z M13,37h1v1h-1z M14,37h1v1h-1z M17,37h1v1h-1z M19,37h1v1h-1z M20,37h1v1h-1z M24,37h1v1h-1z M25,37h1v1h-1z M27,37h1v1h-1z M28,37h1v1h-1z M31,37h1v1h-1z M35,37h1v1h-1z M37,37h1v1h-1z M38,37h1v1h-1z M39,37h1v1h-1z M41,37h1v1h-1z M42,37h1v1h-1z M46,37h1v1h-1z M48,37h1v1h-1z M53,37h1v1h-1z M6,38h1v1h-1z M8,38h1v1h-1z M10,38h1v1h-1z M11,38h1v1h-1z M12,38h1v1h-1z M13,38h1v1h-1z M14,38h1v1h-1z M15,38h1v1h-1z M17,38h1v1h-1z M20,38h1v1h-1z M22,38h1v1h-1z M26,38h1v1h-1z M28,38h1v1h-1z M29,38h1v1h-1z M30,38h1v1h-1z M32,38h1v1h-1z M34,38h1v1h-1z M35,38h1v1h-1z M39,38h1v1h-1z M40,38h1v1h-1z M43,38h1v1h-1z M44,38h1v1h-1z M45,38h1v1h-1z M46,38h1v1h-1z M47,38h1v1h-1z M48,38h1v1h-1z M49,38h1v1h-1z M50,38h1v1h-1z M54,38h1v1h-1z M55,38h1v1h-1z M3,39h1v1h-1z M4,39h1v1h-1z M5,39h1v1h-1z M6,39h1v1h-1z M8,39h1v1h-1z M9,39h1v1h-1z M10,39h1v1h-1z M13,39h1v1h-1z M19,39h1v1h-1z M20,39h1v1h-1z M23,39h1v1h-1z M24,39h1v1h-1z M25,39h1v1h-1z M26,39h1v1h-1z M27,39h1v1h-1z M28,39h1v1h-1z M30,39h1v1h-1z M32,39h1v1h-1z M33,39h1v1h-1z M34,39h1v1h-1z M36,39h1v1h-1z M38,39h1v1h-1z M39,39h1v1h-1z M41,39h1v1h-1z M44,39h1v1h-1z M45,39h1v1h-1z M48,39h1v1h-1z M49,39h1v1h-1z M50,39h1v1h-1z M53,39h1v1h-1z M54,39h1v1h-1z M3,40h1v1h-1z M7,40h1v1h-1z M11,40h1v1h-1z M12,40h1v1h-1z M14,40h1v1h-1z M15,40h1v1h-1z M18,40h1v1h-1z M21,40h1v1h-1z M22,40h1v1h-1z M23,40h1v1h-1z M24,40h1v1h-1z M26,40h1v1h-1z M29,40h1v1h-1z M31,40h1v1h-1z M32,40h1v1h-1z M39,40h1v1h-1z M44,40h1v1h-1z M45,40h1v1h-1z M47,40h1v1h-1z M50,40h1v1h-1z M51,40h1v1h-1z M52,40h1v1h-1z M53,40h1v1h-1z M55,40h1v1h-1z M3,41h1v1h-1z M5,41h1v1h-1z M6,41h1v1h-1z M9,41h1v1h-1z M11,41h1v1h-1z M13,41h1v1h-1z M16,41h1v1h-1z M17,41h1v1h-1z M19,41h1v1h-1z M25,41h1v1h-1z M26,41h1v1h-1z M31,41h1v1h-1z M32,41h1v1h-1z M33,41h1v1h-1z M34,41h1v1h-1z M35,41h1v1h-1z M36,41h1v1h-1z M37,41h1v1h-1z M38,41h1v1h-1z M39,41h1v1h-1z M40,41h1v1h-1z M41,41h1v1h-1z M42,41h1v1h-1z M46,41h1v1h-1z M47,41h1v1h-1z M48,41h1v1h-1z M51,41h1v1h-1z M52,41h1v1h-1z M53,41h1v1h-1z M3,42h1v1h-1z M4,42h1v1h-1z M5,42h1v1h-1z M7,42h1v1h-1z M8,42h1v1h-1z M12,42h1v1h-1z M13,42h1v1h-1z M16,42h1v1h-1z M19,42h1v1h-1z M21,42h1v1h-1z M23,42h1v1h-1z M27,42h1v1h-1z M30,42h1v1h-1z M31,42h1v1h-1z M33,42h1v1h-1z M34,42h1v1h-1z M35,42h1v1h-1z M37,42h1v1h-1z M41,42h1v1h-1z M42,42h1v1h-1z M43,42h1v1h-1z M44,42h1v1h-1z M46,42h1v1h-1z M47,42h1v1h-1z M49,42h1v1h-1z M50,42h1v1h-1z M51,42h1v1h-1z M52,42h1v1h-1z M54,42h1v1h-1z M3,43h1v1h-1z M5,43h1v1h-1z M6,43h1v1h-1z M7,43h1v1h-1z M9,43h1v1h-1z M11,43h1v1h-1z M13,43h1v1h-1z M15,43h1v1h-1z M17,43h1v1h-1z M18,43h1v1h-1z M22,43h1v1h-1z M24,43h1v1h-1z M27,43h1v1h-1z M28,43h1v1h-1z M30,43h1v1h-1z M31,43h1v1h-1z M32,43h1v1h-1z M33,43h1v1h-1z M37,43h1v1h-1z M38,43h1v1h-1z M39,43h1v1h-1z M41,43h1v1h-1z M42,43h1v1h-1z M47,43h1v1h-1z M48,43h1v1h-1z M51,43h1v1h-1z M53,43h1v1h-1z M3,44h1v1h-1z M5,44h1v1h-1z M7,44h1v1h-1z M11,44h1v1h-1z M12,44h1v1h-1z M15,44h1v1h-1z M17,44h1v1h-1z M18,44h1v1h-1z M19,44h1v1h-1z M21,44h1v1h-1z M22,44h1v1h-1z M23,44h1v1h-1z M25,44h1v1h-1z M26,44h1v1h-1z M27,44h1v1h-1z M28,44h1v1h-1z M29,44h1v1h-1z M34,44h1v1h-1z M35,44h1v1h-1z M36,44h1v1h-1z M38,44h1v1h-1z M40,44h1v1h-1z M43,44h1v1h-1z M44,44h1v1h-1z M45,44h1v1h-1z M47,44h1v1h-1z M48,44h1v1h-1z M49,44h1v1h-1z M50,44h1v1h-1z M53,44h1v1h-1z M54,44h1v1h-1z M55,44h1v1h-1z M3,45h1v1h-1z M4,45h1v1h-1z M6,45h1v1h-1z M7,45h1v1h-1z M8,45h1v1h-1z M9,45h1v1h-1z M10,45h1v1h-1z M13,45h1v1h-1z M16,45h1v1h-1z M17,45h1v1h-1z M18,45h1v1h-1z M21,45h1v1h-1z M23,45h1v1h-1z M27,45h1v1h-1z M29,45h1v1h-1z M30,45h1v1h-1z M35,45h1v1h-1z M36,45h1v1h-1z M37,45h1v1h-1z M38,45h1v1h-1z M40,45h1v1h-1z M43,45h1v1h-1z M47,45h1v1h-1z M52,45h1v1h-1z M4,46h1v1h-1z M5,46h1v1h-1z M12,46h1v1h-1z M13,46h1v1h-1z M15,46h1v1h-1z M16,46h1v1h-1z M18,46h1v1h-1z M19,46h1v1h-1z M22,46h1v1h-1z M29,46h1v1h-1z M32,46h1v1h-1z M33,46h1v1h-1z M41,46h1v1h-1z M45,46h1v1h-1z M46,46h1v1h-1z M47,46h1v1h-1z M49,46h1v1h-1z M50,46h1v1h-1z M52,46h1v1h-1z M54,46h1v1h-1z M55,46h1v1h-1z M6,47h1v1h-1z M9,47h1v1h-1z M10,47h1v1h-1z M12,47h1v1h-1z M13,47h1v1h-1z M19,47h1v1h-1z M21,47h1v1h-1z M22,47h1v1h-1z M23,47h1v1h-1z M24,47h1v1h-1z M27,47h1v1h-1z M28,47h1v1h-1z M29,47h1v1h-1z M30,47h1v1h-1z M31,47h1v1h-1z M32,47h1v1h-1z M34,47h1v1h-1z M37,47h1v1h-1z M39,47h1v1h-1z M40,47h1v1h-1z M42,47h1v1h-1z M44,47h1v1h-1z M45,47h1v1h-1z M47,47h1v1h-1z M48,47h1v1h-1z M49,47h1v1h-1z M50,47h1v1h-1z M51,47h1v1h-1z M52,47h1v1h-1z M53,47h1v1h-1z M55,47h1v1h-1z M11,48h1v1h-1z M12,48h1v1h-1z M14,48h1v1h-1z M15,48h1v1h-1z M16,48h1v1h-1z M19,48h1v1h-1z M23,48h1v1h-1z M24,48h1v1h-1z M26,48h1v1h-1z M27,48h1v1h-1z M31,48h1v1h-1z M34,48h1v1h-1z M35,48h1v1h-1z M36,48h1v1h-1z M39,48h1v1h-1z M40,48h1v1h-1z M45,48h1v1h-1z M47,48h1v1h-1z M51,48h1v1h-1z M54,48h1v1h-1z M55,48h1v1h-1z M3,49h1v1h-1z M4,49h1v1h-1z M5,49h1v1h-1z M6,49h1v1h-1z M7,49h1v1h-1z M8,49h1v1h-1z M9,49h1v1h-1z M17,49h1v1h-1z M18,49h1v1h-1z M19,49h1v1h-1z M26,49h1v1h-1z M27,49h1v1h-1z M29,49h1v1h-1z M31,49h1v1h-1z M33,49h1v1h-1z M36,49h1v1h-1z M40,49h1v1h-1z M42,49h1v1h-1z M44,49h1v1h-1z M47,49h1v1h-1z M49,49h1v1h-1z M51,49h1v1h-1z M52,49h1v1h-1z M53,49h1v1h-1z M3,50h1v1h-1z M9,50h1v1h-1z M13,50h1v1h-1z M14,50h1v1h-1z M15,50h1v1h-1z M18,50h1v1h-1z M19,50h1v1h-1z M20,50h1v1h-1z M21,50h1v1h-1z M23,50h1v1h-1z M27,50h1v1h-1z M31,50h1v1h-1z M32,50h1v1h-1z M34,50h1v1h-1z M35,50h1v1h-1z M36,50h1v1h-1z M41,50h1v1h-1z M42,50h1v1h-1z M43,50h1v1h-1z M47,50h1v1h-1z M51,50h1v1h-1z M54,50h1v1h-1z M3,51h1v1h-1z M5,51h1v1h-1z M6,51h1v1h-1z M7,51h1v1h-1z M9,51h1v1h-1z M11,51h1v1h-1z M14,51h1v1h-1z M15,51h1v1h-1z M16,51h1v1h-1z M17,51h1v1h-1z M20,51h1v1h-1z M23,51h1v1h-1z M24,51h1v1h-1z M25,51h1v1h-1z M26,51h1v1h-1z M27,51h1v1h-1z M28,51h1v1h-1z M29,51h1v1h-1z M30,51h1v1h-1z M31,51h1v1h-1z M35,51h1v1h-1z M37,51h1v1h-1z M38,51h1v1h-1z M39,51h1v1h-1z M40,51h1v1h-1z M47,51h1v1h-1z M48,51h1v1h-1z M49,51h1v1h-1z M50,51h1v1h-1z M51,51h1v1h-1z M52,51h1v1h-1z M53,51h1v1h-1z M55,51h1v1h-1z M3,52h1v1h-1z M5,52h1v1h-1z M6,52h1v1h-1z M7,52h1v1h-1z M9,52h1v1h-1z M11,52h1v1h-1z M13,52h1v1h-1z M14,52h1v1h-1z M15,52h1v1h-1z M19,52h1v1h-1z M21,52h1v1h-1z M26,52h1v1h-1z M31,52h1v1h-1z M33,52h1v1h-1z M35,52h1v1h-1z M38,52h1v1h-1z M40,52h1v1h-1z M42,52h1v1h-1z M44,52h1v1h-1z M45,52h1v1h-1z M48,52h1v1h-1z M50,52h1v1h-1z M52,52h1v1h-1z M53,52h1v1h-1z M3,53h1v1h-1z M5,53h1v1h-1z M6,53h1v1h-1z M7,53h1v1h-1z M9,53h1v1h-1z M11,53h1v1h-1z M13,53h1v1h-1z M14,53h1v1h-1z M16,53h1v1h-1z M17,53h1v1h-1z M19,53h1v1h-1z M20,53h1v1h-1z M21,53h1v1h-1z M22,53h1v1h-1z M26,53h1v1h-1z M28,53h1v1h-1z M34,53h1v1h-1z M35,53h1v1h-1z M38,53h1v1h-1z M41,53h1v1h-1z M42,53h1v1h-1z M43,53h1v1h-1z M44,53h1v1h-1z M45,53h1v1h-1z M46,53h1v1h-1z M47,53h1v1h-1z M48,53h1v1h-1z M50,53h1v1h-1z M51,53h1v1h-1z M52,53h1v1h-1z M3,54h1v1h-1z M9,54h1v1h-1z M12,54h1v1h-1z M13,54h1v1h-1z M14,54h1v1h-1z M16,54h1v1h-1z M17,54h1v1h-1z M19,54h1v1h-1z M23,54h1v1h-1z M25,54h1v1h-1z M27,54h1v1h-1z M28,54h1v1h-1z M31,54h1v1h-1z M33,54h1v1h-1z M34,54h1v1h-1z M36,54h1v1h-1z M37,54h1v1h-1z M39,54h1v1h-1z M40,54h1v1h-1z M41,54h1v1h-1z M43,54h1v1h-1z M45,54h1v1h-1z M47,54h1v1h-1z M48,54h1v1h-1z M50,54h1v1h-1z M51,54h1v1h-1z M52,54h1v1h-1z M54,54h1v1h-1z M3,55h1v1h-1z M4,55h1v1h-1z M5,55h1v1h-1z M6,55h1v1h-1z M7,55h1v1h-1z M8,55h1v1h-1z M9,55h1v1h-1z M12,55h1v1h-1z M13,55h1v1h-1z M14,55h1v1h-1z M19,55h1v1h-1z M21,55h1v1h-1z M26,55h1v1h-1z M30,55h1v1h-1z M31,55h1v1h-1z M32,55h1v1h-1z M33,55h1v1h-1z M34,55h1v1h-1z M36,55h1v1h-1z M37,55h1v1h-1z M38,55h1v1h-1z M41,55h1v1h-1z M42,55h1v1h-1z M45,55h1v1h-1z M46,55h1v1h-1z M47,55h1v1h-1z M49,55h1v1h-1z M50,55h1v1h-1z M51,55h1v1h-1z M52,55h1v1h-1z" fill="#000000"/>
</svg>
