<?xml version="1.0" encoding="UTF-8" standalone="no"?>
<svg
   xmlns:ns4="http://www.iki.fi/pav/software/textext/"
   xmlns:dc="http://purl.org/dc/elements/1.1/"
   xmlns:cc="http://creativecommons.org/ns#"
   xmlns:rdf="http://www.w3.org/1999/02/22-rdf-syntax-ns#"
   xmlns:svg="http://www.w3.org/2000/svg"
   xmlns="http://www.w3.org/2000/svg"
   xmlns:sodipodi="http://sodipodi.sourceforge.net/DTD/sodipodi-0.dtd"
   xmlns:inkscape="http://www.inkscape.org/namespaces/inkscape"
   version="1.1"
   id="svg2246"
   xml:space="preserve"
   width="297.64249"
   height="220.55513"
   viewBox="0 0 297.6425 220.55513"
   sodipodi:docname="tline_single_stub.svg"
   inkscape:version="1.0.2 (e86c8708, 2021-01-15)"><metadata
     id="metadata2252"><rdf:RDF><cc:Work
         rdf:about=""><dc:format>image/svg+xml</dc:format><dc:type
           rdf:resource="http://purl.org/dc/dcmitype/StillImage" /><dc:title></dc:title></cc:Work></rdf:RDF></metadata><defs
     id="defs2250"><inkscape:path-effect
   effect="bspline"
   id="path-effect64976"
   is_visible="true"
   lpeversion="1"
   weight="33.333333"
   steps="2"
   helper_size="0"
   apply_no_weight="true"
   apply_with_weight="true"
   only_selected="false" /><marker
   style="overflow:visible"
   id="marker63786"
   refX="0"
   refY="0"
   orient="auto"
   inkscape:stockid="EmptyTriangleOutM"
   inkscape:isstock="true"><path
     transform="matrix(0.4,0,0,0.4,-1.8,0)"
     style="fill:#ffffff;fill-rule:evenodd;stroke:#8a8a8a;stroke-width:1pt;stroke-opacity:1"
     d="M 5.77,0 -2.88,5 V -5 Z"
     id="path63784" /></marker><marker
   style="overflow:visible"
   id="marker62940"
   refX="0"
   refY="0"
   orient="auto"
   inkscape:stockid="EmptyTriangleOutM"
   inkscape:isstock="true"><path
     transform="matrix(0.4,0,0,0.4,-1.8,0)"
     style="fill:#ffffff;fill-rule:evenodd;stroke:#8a8a8a;stroke-width:1pt;stroke-opacity:1"
     d="M 5.77,0 -2.88,5 V -5 Z"
     id="path62938" /></marker><marker
   style="overflow:visible"
   id="marker62522"
   refX="0"
   refY="0"
   orient="auto"
   inkscape:stockid="EmptyTriangleOutM"
   inkscape:isstock="true"><path
     transform="matrix(0.4,0,0,0.4,-1.8,0)"
     style="fill:#ffffff;fill-rule:evenodd;stroke:#8a8a8a;stroke-width:1pt;stroke-opacity:1"
     d="M 5.77,0 -2.88,5 V -5 Z"
     id="path62520" /></marker><marker
   style="overflow:visible"
   id="marker62252"
   refX="0"
   refY="0"
   orient="auto"
   inkscape:stockid="EmptyTriangleOutM"
   inkscape:isstock="true"
   inkscape:collect="always"><path
     transform="matrix(0.4,0,0,0.4,-1.8,0)"
     style="fill:#ffffff;fill-rule:evenodd;stroke:#8a8a8a;stroke-width:1pt;stroke-opacity:1"
     d="M 5.77,0 -2.88,5 V -5 Z"
     id="path62250" /></marker><marker
   style="overflow:visible"
   id="marker62242"
   refX="0"
   refY="0"
   orient="auto"
   inkscape:stockid="EmptyTriangleInM"
   inkscape:isstock="true"><path
     transform="matrix(-0.4,0,0,-0.4,1.8,0)"
     style="fill:#ffffff;fill-rule:evenodd;stroke:#8a8a8a;stroke-width:1pt;stroke-opacity:1"
     d="M 5.77,0 -2.88,5 V -5 Z"
     id="path62240" /></marker><inkscape:path-effect
   effect="bspline"
   id="path-effect61662"
   is_visible="true"
   lpeversion="1"
   weight="33.333333"
   steps="2"
   helper_size="0"
   apply_no_weight="true"
   apply_with_weight="true"
   only_selected="false" /><inkscape:path-effect
   effect="bspline"
   id="path-effect61658"
   is_visible="true"
   lpeversion="1"
   weight="33.333333"
   steps="2"
   helper_size="0"
   apply_no_weight="true"
   apply_with_weight="true"
   only_selected="false" /><inkscape:path-effect
   effect="bspline"
   id="path-effect61654"
   is_visible="true"
   lpeversion="1"
   weight="33.333333"
   steps="2"
   helper_size="0"
   apply_no_weight="true"
   apply_with_weight="true"
   only_selected="false" /><marker
   style="overflow:visible"
   id="marker20200"
   refX="0"
   refY="0"
   orient="auto"
   inkscape:stockid="EmptyTriangleOutL"
   inkscape:isstock="true"><path
     transform="matrix(0.8,0,0,0.8,-4.8,0)"
     style="fill:#ffffff;fill-rule:evenodd;stroke:#000000;stroke-width:1pt;stroke-opacity:1"
     d="M 5.77,0 -2.88,5 V -5 Z"
     id="path20198" /></marker><marker
   style="overflow:visible"
   id="marker20122"
   refX="0"
   refY="0"
   orient="auto"
   inkscape:stockid="EmptyTriangleOutL"
   inkscape:isstock="true"><path
     transform="matrix(0.8,0,0,0.8,-4.8,0)"
     style="fill:#ffffff;fill-rule:evenodd;stroke:#000000;stroke-width:1pt;stroke-opacity:1"
     d="M 5.77,0 -2.88,5 V -5 Z"
     id="path20120" /></marker><marker
   style="overflow:visible"
   id="marker4058"
   refX="0"
   refY="0"
   orient="auto"
   inkscape:stockid="EmptyTriangleOutL"
   inkscape:isstock="true"
   inkscape:collect="always"><path
     transform="matrix(0.8,0,0,0.8,-4.8,0)"
     style="fill:#ffffff;fill-rule:evenodd;stroke:#000000;stroke-width:1pt;stroke-opacity:1"
     d="M 5.77,0 -2.88,5 V -5 Z"
     id="path4056" /></marker><inkscape:path-effect
   effect="bspline"
   id="path-effect3073"
   is_visible="true"
   lpeversion="1"
   weight="33.333333"
   steps="2"
   helper_size="0"
   apply_no_weight="true"
   apply_with_weight="true"
   only_selected="false" /><inkscape:path-effect
   effect="bspline"
   id="path-effect3069"
   is_visible="true"
   lpeversion="1"
   weight="33.333333"
   steps="2"
   helper_size="0"
   apply_no_weight="true"
   apply_with_weight="true"
   only_selected="false" /><marker
   inkscape:stockid="arrowVoltageStart"
   orient="auto"
   refY="0"
   refX="0"
   id="arrowVoltageStart"
   style="overflow:visible"><path
     d="M 0,0 5,-5 -12.5,0 5,5 Z"
     style="fill:#217b21;fill-rule:evenodd;stroke:#217b21;stroke-width:1"
     transform="matrix(0.25,0,0,0.25,1.823125,0)"
     id="path8227" /></marker><marker
   inkscape:stockid="arrowVoltageEnd"
   orient="auto"
   refY="0"
   refX="0"
   id="arrowVoltageEnd"
   style="overflow:visible"><path
     d="M 0,0 5,-5 -12.5,0 5,5 Z"
     style="fill:#217b21;fill-rule:evenodd;stroke:#217b21;stroke-width:1"
     transform="matrix(-0.25,0,0,-0.25,-1.823125,0)"
     id="path8230" /></marker><g
   id="id-0f0ae96b-7fe6-41a9-8c30-1bfdc21e6ec1-7"><symbol
     overflow="visible"
     id="id-7faafa90-f4ac-4db9-9b29-68272b500cff-5"><path
       style="stroke:none;stroke-width:0"
       d=""
       id="id-da9e58fc-a590-46ff-a5e0-ff763d363d43-0" /></symbol><symbol
     overflow="visible"
     id="id-2e7e6430-cc80-446d-b51e-ee13865717c0-6"><path
       style="stroke:none;stroke-width:0"
       d="m 7.171875,-6.5625 c 0.015625,-0.046875 0.03125,-0.09375 0.03125,-0.15625 0,-0.09375 -0.046875,-0.09375 -0.25,-0.09375 H 2.75 c -0.234375,0 -0.25,0.015625 -0.3125,0.203125 L 1.890625,-4.8125 c -0.015625,0.046875 -0.03125,0.125 -0.03125,0.140625 0,0 0,0.109375 0.125,0.109375 0.09375,0 0.109375,-0.078125 0.125,-0.109375 C 2.5,-5.84375 3.015625,-6.5 4.5625,-6.5 h 1.625 L 0.625,-0.265625 c 0,0 -0.046875,0.140625 -0.046875,0.171875 C 0.578125,0 0.640625,0 0.828125,0 H 5.15625 c 0.25,0 0.25,-0.015625 0.3125,-0.203125 L 6.1875,-2.40625 c 0,-0.03125 0.03125,-0.109375 0.03125,-0.140625 0,-0.0625 -0.03125,-0.109375 -0.125,-0.109375 -0.09375,0 -0.109375,0.03125 -0.171875,0.25 C 5.484375,-1.0625 5,-0.34375 3.3125,-0.34375 H 1.609375 Z m 0,0"
       id="id-c515b81f-c407-4975-9fbf-6277801f79eb-4" /></symbol><symbol
     overflow="visible"
     id="id-1a8f543c-9917-4e62-8efb-d9779e6d9a31-7"><path
       style="stroke:none;stroke-width:0"
       d=""
       id="id-84bb8f8e-6651-4fad-a04b-14a9e1133c4c-8" /></symbol><symbol
     overflow="visible"
     id="id-20ad366e-d62d-43ff-97d6-4f343c04c547-4"><path
       style="stroke:none;stroke-width:0"
       d="m 2.875,-4.1875 c 0.0625,-0.25 0.078125,-0.328125 0.71875,-0.328125 0.21875,0 0.28125,0 0.28125,-0.140625 0,-0.015625 0,-0.109375 -0.109375,-0.109375 -0.15625,0 -0.34375,0.015625 -0.515625,0.03125 -0.171875,0 -0.390625,0 -0.5625,0 -0.140625,0 -0.328125,0 -0.484375,0 -0.140625,0 -0.3125,-0.03125 -0.453125,-0.03125 -0.03125,0 -0.140625,0 -0.140625,0.15625 0,0.09375 0.078125,0.09375 0.21875,0.09375 0.015625,0 0.140625,0 0.265625,0.015625 0.15625,0.015625 0.171875,0.03125 0.171875,0.109375 0,0 0,0.046875 -0.03125,0.140625 l -0.9375,3.703125 C 1.234375,-0.3125 1.21875,-0.25 0.6875,-0.25 c -0.109375,0 -0.203125,0 -0.203125,0.140625 C 0.484375,0 0.5625,0 0.6875,0 h 3.5 c 0.1875,0 0.1875,0 0.25,-0.140625 0.0625,-0.1875 0.59375,-1.53125 0.59375,-1.59375 0,-0.015625 -0.015625,-0.09375 -0.125,-0.09375 -0.078125,0 -0.09375,0.03125 -0.140625,0.140625 C 4.5,-1.03125 4.1875,-0.25 2.921875,-0.25 H 2.125 c -0.203125,0 -0.21875,-0.015625 -0.21875,-0.078125 0,0 0,-0.03125 0.03125,-0.140625 z m 0,0"
       id="id-4a699ce9-0c83-43bb-b5eb-504472ffba55-0" /></symbol></g>
    <marker
   inkscape:stockid="DimmArrow_Start_n00001"
   orient="auto"
   refY="0"
   refX="0"
   id="DimmArrow_Start_n00001"
   style="overflow:visible"><path
     d="M 0,0 -10,1.76327 V -1.76327 Z"
     style="fill:#000000;fill-rule:evenodd;stroke:none;stroke-width:1"
     transform="rotate(180,-5,0)"
     id="path72885" /></marker><marker
   inkscape:stockid="DimmArrow_End_n00001"
   orient="auto"
   refY="0"
   refX="0"
   id="DimmArrow_End_n00001"
   style="overflow:visible"><path
     d="M 0,0 -10,1.76327 V -1.76327 Z"
     style="fill:#000000;fill-rule:evenodd;stroke:none;stroke-width:1"
     transform="translate(10)"
     id="path72888" /></marker>
    <marker
   inkscape:stockid="DimmArrow_Start_n00002"
   orient="auto"
   refY="0"
   refX="0"
   id="DimmArrow_Start_n00002"
   style="overflow:visible"><path
     d="M 0,0 -10,1.76327 V -1.76327 Z"
     style="fill:#000000;fill-rule:evenodd;stroke:none;stroke-width:1"
     transform="rotate(180,-5,0)"
     id="path86483" /></marker><marker
   inkscape:stockid="DimmArrow_End_n00002"
   orient="auto"
   refY="0"
   refX="0"
   id="DimmArrow_End_n00002"
   style="overflow:visible"><path
     d="M 0,0 -10,1.76327 V -1.76327 Z"
     style="fill:#000000;fill-rule:evenodd;stroke:none;stroke-width:1"
     transform="translate(10)"
     id="path86486" /></marker>
    </defs><sodipodi:namedview
     pagecolor="#ffffff"
     bordercolor="#666666"
     borderopacity="1"
     objecttolerance="10"
     gridtolerance="10"
     guidetolerance="10"
     inkscape:pageopacity="0"
     inkscape:pageshadow="2"
     inkscape:window-width="640"
     inkscape:window-height="480"
     id="namedview2248"
     showgrid="false"
     inkscape:zoom="2.210518"
     inkscape:cx="128.03485"
     inkscape:cy="119.52693"
     inkscape:current-layer="svg2246"
     inkscape:document-rotation="0"
     fit-margin-top="0"
     fit-margin-left="0"
     fit-margin-right="0"
     fit-margin-bottom="0" /><g
     id="g2254"
     inkscape:groupmode="layer"
     inkscape:label="tlines"
     transform="matrix(1.3333333,0,0,-1.3333333,-292.95946,137.28444)"><g
       id="g2308"
       transform="rotate(180,56.7925,15.928)" /><g
       id="g2340"
       transform="rotate(180,56.7925,15.928)" /><g
       id="g2374"
       transform="rotate(180,56.7925,15.928)" /><g
       id="g2396"
       transform="rotate(180,56.7925,15.928)" /><path
       style="fill:none;stroke:#000000;stroke-width:0.75px;stroke-linecap:butt;stroke-linejoin:miter;stroke-opacity:1"
       d="m 261.39671,88.549624 c 27.17207,0 54.34339,0 81.51396,0"
       id="path3067"
       inkscape:path-effect="#path-effect3069"
       inkscape:original-d="m 261.39671,88.549624 c 27.17207,-7.5e-4 54.34339,-7.5e-4 81.51396,0"
       sodipodi:nodetypes="cc" /><path
       style="fill:none;stroke:#000000;stroke-width:0.75px;stroke-linecap:butt;stroke-linejoin:miter;stroke-opacity:1"
       d="m 261.39671,31.856008 c 27.17207,0 54.34339,0 81.51396,0"
       id="path3071"
       inkscape:path-effect="#path-effect3073"
       inkscape:original-d="m 261.39671,31.856008 c 27.17207,-7.5e-4 54.34339,-7.5e-4 81.51396,0"
       sodipodi:nodetypes="cc" /><g
       id="g2432"
       transform="rotate(180,56.7925,15.928)" /><path
       style="fill:none;stroke:#000000;stroke-width:0.75px;stroke-linecap:butt;stroke-linejoin:miter;stroke-opacity:1"
       d="m 342.91067,88.549624 h 88.64598 V 67.343063"
       id="path3075"
       sodipodi:nodetypes="ccc" /><rect
       style="fill:none;fill-opacity:0.622807;stroke:#000000;stroke-width:0.75;stroke-linejoin:miter;stroke-miterlimit:4;stroke-dasharray:none;stroke-opacity:1"
       id="rect3077"
       width="21.928894"
       height="14.488736"
       x="420.64758"
       y="-67.166817"
       transform="scale(1,-1)"
       ry="0" /><path
       style="fill:none;stroke:#000000;stroke-width:0.75px;stroke-linecap:butt;stroke-linejoin:miter;stroke-opacity:1"
       d="m 342.91067,31.856008 h 88.64598 v 20.508909"
       id="path3099"
       sodipodi:nodetypes="ccc" /><path
       style="fill:none;stroke:#6b6b6b;stroke-width:0.75;stroke-linecap:butt;stroke-linejoin:miter;stroke-miterlimit:4;stroke-dasharray:0.75, 1.5;stroke-dashoffset:0;stroke-opacity:1"
       d="M 340.35947,86.384866 V 7.7717821"
       id="path5009" /><path
       id="path61660"
       style="fill:none;stroke:#000000;stroke-width:0.751181;stroke-linecap:round;stroke-linejoin:miter;stroke-miterlimit:4;stroke-dasharray:none;stroke-opacity:1"
       inkscape:path-effect="#path-effect61662"
       inkscape:original-d="m 408.8224,14.27758 c 7.5e-4,-18.898628 7.5e-4,-37.796498 0,-56.693619 m -68.612,74.371957 c 22.87124,-24.7912124 45.74191,-49.581867 68.612,-74.371959 m -68.612,131.065575 c 16.77123,-18.082636 33.60164,-36.22913 50.3127,-54.247007 0.59425,-0.501836 1.19195,-1.006465 1.78679,-1.508573 0.61633,0.04179 1.23191,0.08432 1.84674,0.127607 0.011,-0.738041 0.0212,-1.475331 0.0307,-2.211872 0.24299,-0.4188 0.48458,-0.83575 0.72671,-1.25415 4.64907,-5.106807 9.27166,-10.184604 13.90835,-15.277964"
       d="m 408.8224,14.27758 c 0,-18.898628 0,-37.796498 0,-56.693619 m -68.612,74.371957 c 22.87121,-24.7912409 45.74188,-49.581896 68.612,-74.371959 m -68.612,131.065575 c 16.7712,-18.082662 33.60161,-36.229158 42.25431,-45.488967 8.6527,-9.259809 9.25039,-9.76444 9.85592,-9.994235 0.60554,-0.229794 1.22111,-0.187259 1.53368,-0.535041 0.31256,-0.347781 0.3228,-1.085071 0.44928,-1.662806 0.12649,-0.577734 0.36809,-0.99468 2.81379,-3.757234 2.44569,-2.762554 7.06828,-7.84035 11.70501,-12.933676"
       sodipodi:nodetypes="ccccccssscc" /><path
       d="m 342.91067,31.856 c 0,1.40898 -1.1422,2.5512 -2.55119,2.5512 -1.409,0 -2.5512,-1.14222 -2.5512,-2.5512 0,-1.40898 1.1422,-2.5512 2.5512,-2.5512 1.40899,0 2.55119,1.14222 2.55119,2.5512 z"
       style="fill:#ffffff;fill-opacity:1;fill-rule:nonzero;stroke:#000000;stroke-width:0.99628;stroke-linecap:butt;stroke-linejoin:miter;stroke-miterlimit:10;stroke-dasharray:none;stroke-opacity:1"
       id="path2424" /><path
       d="m 342.91067,88.54962 c 0,1.40898 -1.1422,2.55119 -2.55119,2.55119 -1.409,0 -2.5512,-1.14221 -2.5512,-2.55119 0,-1.409 1.1422,-2.55121 2.5512,-2.55121 1.40899,0 2.55119,1.14221 2.55119,2.55121 z"
       style="fill:#ffffff;fill-opacity:1;fill-rule:nonzero;stroke:#000000;stroke-width:0.99628;stroke-linecap:butt;stroke-linejoin:miter;stroke-miterlimit:10;stroke-dasharray:none;stroke-opacity:1"
       id="path2420" /><g
       transform="matrix(1.33333,0,0,-1.33333,424.10913,65.459435)"
       ns4:version="1.2.0"
       ns4:texconverter="pdflatex"
       ns4:pdfconverter="inkscape"
       ns4:text="$Z_L$ "
       ns4:preamble="/Users/hasanabbas/Library/Application Support/org.inkscape.Inkscape/config/inkscape/extensions/inkscapeMadeEasy/basicLatexPackages.tex"
       ns4:scale="1.0"
       ns4:alignment="middle center"
       ns4:inkscapeversion="1.0.2"
       ns4:jacobian_sqrt="1.33333"
       id="g61825"><defs
   id="id-22effd07-9796-40c3-8f45-ec05d7786124">
    <g
   id="id-0c304a45-b6cb-4baf-83c2-073aee30ee48">
      <symbol
   overflow="visible"
   id="id-d540b520-f24c-4e34-b39d-00bb40309309">
        <path
   style="stroke:none;stroke-width:0"
   d=""
   id="id-dbc73be4-3d71-4638-a42f-8a1647144b81" />
      </symbol>
      <symbol
   overflow="visible"
   id="id-36ed9277-a33d-48cc-afbd-1ce4a15524aa">
        <path
   style="stroke:none;stroke-width:0"
   d="m 7.171875,-6.5625 c 0.015625,-0.046875 0.03125,-0.09375 0.03125,-0.15625 0,-0.09375 -0.046875,-0.09375 -0.25,-0.09375 H 2.75 c -0.234375,0 -0.25,0.015625 -0.3125,0.203125 L 1.890625,-4.8125 c -0.015625,0.046875 -0.03125,0.125 -0.03125,0.140625 0,0 0,0.109375 0.125,0.109375 0.09375,0 0.109375,-0.078125 0.125,-0.109375 C 2.5,-5.84375 3.015625,-6.5 4.5625,-6.5 h 1.625 L 0.625,-0.265625 c 0,0 -0.046875,0.140625 -0.046875,0.171875 C 0.578125,0 0.640625,0 0.828125,0 H 5.15625 c 0.25,0 0.25,-0.015625 0.3125,-0.203125 L 6.1875,-2.40625 c 0,-0.03125 0.03125,-0.109375 0.03125,-0.140625 0,-0.0625 -0.03125,-0.109375 -0.125,-0.109375 -0.09375,0 -0.109375,0.03125 -0.171875,0.25 C 5.484375,-1.0625 5,-0.34375 3.3125,-0.34375 H 1.609375 Z m 0,0"
   id="id-19cc1a7c-dd07-4647-b1fc-f647ce082da9" />
      </symbol>
      <symbol
   overflow="visible"
   id="id-e093bbd6-6132-44ea-a0c3-466de798bcf8">
        <path
   style="stroke:none;stroke-width:0"
   d=""
   id="id-8a072a49-09ed-4050-b7fd-fc3e63756d30" />
      </symbol>
      <symbol
   overflow="visible"
   id="id-528a2bb1-eef5-4523-a219-ec001e2f348d">
        <path
   style="stroke:none;stroke-width:0"
   d="m 2.875,-4.1875 c 0.0625,-0.25 0.078125,-0.328125 0.71875,-0.328125 0.21875,0 0.28125,0 0.28125,-0.140625 0,-0.015625 0,-0.109375 -0.109375,-0.109375 -0.15625,0 -0.34375,0.015625 -0.515625,0.03125 -0.171875,0 -0.390625,0 -0.5625,0 -0.140625,0 -0.328125,0 -0.484375,0 -0.140625,0 -0.3125,-0.03125 -0.453125,-0.03125 -0.03125,0 -0.140625,0 -0.140625,0.15625 0,0.09375 0.078125,0.09375 0.21875,0.09375 0.015625,0 0.140625,0 0.265625,0.015625 0.15625,0.015625 0.171875,0.03125 0.171875,0.109375 0,0 0,0.046875 -0.03125,0.140625 l -0.9375,3.703125 C 1.234375,-0.3125 1.21875,-0.25 0.6875,-0.25 c -0.109375,0 -0.203125,0 -0.203125,0.140625 C 0.484375,0 0.5625,0 0.6875,0 h 3.5 c 0.1875,0 0.1875,0 0.25,-0.140625 0.0625,-0.1875 0.59375,-1.53125 0.59375,-1.59375 0,-0.015625 -0.015625,-0.09375 -0.125,-0.09375 -0.078125,0 -0.09375,0.03125 -0.140625,0.140625 C 4.5,-1.03125 4.1875,-0.25 2.921875,-0.25 H 2.125 c -0.203125,0 -0.21875,-0.015625 -0.21875,-0.078125 0,0 0,-0.03125 0.03125,-0.140625 z m 0,0"
   id="id-afb39721-8795-4c29-aca3-2cd3b6ee5272" />
      </symbol>
    </g>
  </defs>
  <g
   id="id-ee4f6eed-7000-48ac-92d0-47580b755f8a"
   transform="translate(-149.29,-127.953)">
    <g
   style="fill:#000000;fill-opacity:1"
   id="id-56436970-f0b5-461e-9771-a89c4d587672">
      <g
   transform="translate(148.712,134.765)"
   id="g61817"><path
   style="stroke:none;stroke-width:0"
   d="m 7.171875,-6.5625 c 0.015625,-0.046875 0.03125,-0.09375 0.03125,-0.15625 0,-0.09375 -0.046875,-0.09375 -0.25,-0.09375 H 2.75 c -0.234375,0 -0.25,0.015625 -0.3125,0.203125 L 1.890625,-4.8125 c -0.015625,0.046875 -0.03125,0.125 -0.03125,0.140625 0,0 0,0.109375 0.125,0.109375 0.09375,0 0.109375,-0.078125 0.125,-0.109375 C 2.5,-5.84375 3.015625,-6.5 4.5625,-6.5 h 1.625 L 0.625,-0.265625 c 0,0 -0.046875,0.140625 -0.046875,0.171875 C 0.578125,0 0.640625,0 0.828125,0 H 5.15625 c 0.25,0 0.25,-0.015625 0.3125,-0.203125 L 6.1875,-2.40625 c 0,-0.03125 0.03125,-0.109375 0.03125,-0.140625 0,-0.0625 -0.03125,-0.109375 -0.125,-0.109375 -0.09375,0 -0.109375,0.03125 -0.171875,0.25 C 5.484375,-1.0625 5,-0.34375 3.3125,-0.34375 H 1.609375 Z m 0,0"
   id="id-d4a6236e-2347-4a3f-9772-81a2b3a04c7a" />
      </g></g>
    <g
   style="fill:#000000;fill-opacity:1"
   id="id-43fb70fd-ad33-4841-bb13-627a5d93309f">
      <g
   transform="translate(155.513,136.259)"
   id="g61821"><path
   style="stroke:none;stroke-width:0"
   d="m 2.875,-4.1875 c 0.0625,-0.25 0.078125,-0.328125 0.71875,-0.328125 0.21875,0 0.28125,0 0.28125,-0.140625 0,-0.015625 0,-0.109375 -0.109375,-0.109375 -0.15625,0 -0.34375,0.015625 -0.515625,0.03125 -0.171875,0 -0.390625,0 -0.5625,0 -0.140625,0 -0.328125,0 -0.484375,0 -0.140625,0 -0.3125,-0.03125 -0.453125,-0.03125 -0.03125,0 -0.140625,0 -0.140625,0.15625 0,0.09375 0.078125,0.09375 0.21875,0.09375 0.015625,0 0.140625,0 0.265625,0.015625 0.15625,0.015625 0.171875,0.03125 0.171875,0.109375 0,0 0,0.046875 -0.03125,0.140625 l -0.9375,3.703125 C 1.234375,-0.3125 1.21875,-0.25 0.6875,-0.25 c -0.109375,0 -0.203125,0 -0.203125,0.140625 C 0.484375,0 0.5625,0 0.6875,0 h 3.5 c 0.1875,0 0.1875,0 0.25,-0.140625 0.0625,-0.1875 0.59375,-1.53125 0.59375,-1.59375 0,-0.015625 -0.015625,-0.09375 -0.125,-0.09375 -0.078125,0 -0.09375,0.03125 -0.140625,0.140625 C 4.5,-1.03125 4.1875,-0.25 2.921875,-0.25 H 2.125 c -0.203125,0 -0.21875,-0.015625 -0.21875,-0.078125 0,0 0,-0.03125 0.03125,-0.140625 z m 0,0"
   id="id-bf8986dd-1887-42ff-938a-573257980906" />
      </g></g>
  </g>
</g><g
       transform="matrix(1.33333,0,0,-1.33333,276.439,65.5551)"
       ns4:version="1.2.0"
       ns4:texconverter="pdflatex"
       ns4:pdfconverter="inkscape"
       ns4:text="$Z_0$      "
       ns4:preamble="/Users/hasanabbas/Library/Application Support/org.inkscape.Inkscape/config/inkscape/extensions/circuitSymbols/circuitSymbolsPreamble.tex"
       ns4:scale="1.0"
       ns4:alignment="middle center"
       ns4:inkscapeversion="1.0.2"
       ns4:jacobian_sqrt="1.33333"
       id="g6207"><defs
   id="id-9a3c0e88-43fd-4ef2-b971-cf652d3b919e">
    <g
   id="id-624c7b88-2faa-433a-930b-6c5df7447240">
      <symbol
   overflow="visible"
   id="id-435553f9-b171-4a00-8392-10e41a5d32ad">
        <path
   style="stroke:none"
   d=""
   id="id-e2d7cc8c-7094-4475-88f1-6f3b0f559e25" />
      </symbol>
      <symbol
   overflow="visible"
   id="id-ae4c0932-3cc9-48e1-8f75-091919fe862a">
        <path
   style="stroke:none"
   d="m 7.171875,-6.5625 c 0.015625,-0.046875 0.03125,-0.09375 0.03125,-0.15625 0,-0.09375 -0.046875,-0.09375 -0.25,-0.09375 H 2.75 c -0.234375,0 -0.25,0.015625 -0.3125,0.203125 L 1.890625,-4.8125 c -0.015625,0.046875 -0.03125,0.125 -0.03125,0.140625 0,0 0,0.109375 0.125,0.109375 0.09375,0 0.109375,-0.078125 0.125,-0.109375 C 2.5,-5.84375 3.015625,-6.5 4.5625,-6.5 h 1.625 L 0.625,-0.265625 c 0,0 -0.046875,0.140625 -0.046875,0.171875 C 0.578125,0 0.640625,0 0.828125,0 H 5.15625 c 0.25,0 0.25,-0.015625 0.3125,-0.203125 L 6.1875,-2.40625 c 0,-0.03125 0.03125,-0.109375 0.03125,-0.140625 0,-0.0625 -0.03125,-0.109375 -0.125,-0.109375 -0.09375,0 -0.109375,0.03125 -0.171875,0.25 C 5.484375,-1.0625 5,-0.34375 3.3125,-0.34375 H 1.609375 Z m 0,0"
   id="id-856cabd8-ed29-44aa-83e7-9221ae346038" />
      </symbol>
      <symbol
   overflow="visible"
   id="id-6d97dca3-9c14-4c19-8f00-fedaaba6e7e0">
        <path
   style="stroke:none"
   d=""
   id="id-d4ef1c01-5879-489c-96f7-19afe964bb95" />
      </symbol>
      <symbol
   overflow="visible"
   id="id-4213bf12-8069-4d0f-ab7d-9c6c3166ed60">
        <path
   style="stroke:none"
   d="M 3.59375,-2.21875 C 3.59375,-2.984375 3.5,-3.546875 3.1875,-4.03125 2.96875,-4.34375 2.53125,-4.625 1.984375,-4.625 c -1.625,0 -1.625,1.90625 -1.625,2.40625 0,0.5 0,2.359375 1.625,2.359375 1.609375,0 1.609375,-1.859375 1.609375,-2.359375 z M 1.984375,-0.0625 c -0.328125,0 -0.75,-0.1875 -0.890625,-0.75 C 1,-1.21875 1,-1.796875 1,-2.3125 1,-2.828125 1,-3.359375 1.09375,-3.734375 1.25,-4.28125 1.6875,-4.4375 1.984375,-4.4375 c 0.375,0 0.734375,0.234375 0.859375,0.640625 0.109375,0.375 0.125,0.875 0.125,1.484375 0,0.515625 0,1.03125 -0.09375,1.46875 -0.140625,0.640625 -0.609375,0.78125 -0.890625,0.78125 z m 0,0"
   id="id-4785e816-a34c-42a0-958d-adc7c239f2b5" />
      </symbol>
    </g>
  </defs>
  <g
   id="id-b7a178bb-d6e4-4887-8d2c-d800294dcecb"
   transform="translate(-149.29,-127.953)">
    <g
   style="fill:#000000;fill-opacity:1"
   id="id-f4c24546-3fc5-4de1-bec4-f505e7ea7d2d">
      <g
   transform="translate(148.712,134.765)"
   id="g62069"><path
   style="stroke:none"
   d="m 7.171875,-6.5625 c 0.015625,-0.046875 0.03125,-0.09375 0.03125,-0.15625 0,-0.09375 -0.046875,-0.09375 -0.25,-0.09375 H 2.75 c -0.234375,0 -0.25,0.015625 -0.3125,0.203125 L 1.890625,-4.8125 c -0.015625,0.046875 -0.03125,0.125 -0.03125,0.140625 0,0 0,0.109375 0.125,0.109375 0.09375,0 0.109375,-0.078125 0.125,-0.109375 C 2.5,-5.84375 3.015625,-6.5 4.5625,-6.5 h 1.625 L 0.625,-0.265625 c 0,0 -0.046875,0.140625 -0.046875,0.171875 C 0.578125,0 0.640625,0 0.828125,0 H 5.15625 c 0.25,0 0.25,-0.015625 0.3125,-0.203125 L 6.1875,-2.40625 c 0,-0.03125 0.03125,-0.109375 0.03125,-0.140625 0,-0.0625 -0.03125,-0.109375 -0.125,-0.109375 -0.09375,0 -0.109375,0.03125 -0.171875,0.25 C 5.484375,-1.0625 5,-0.34375 3.3125,-0.34375 H 1.609375 Z m 0,0"
   id="id-70d9a3ea-bd47-4a7e-bcc4-6fc75a657c86" />
      </g></g>
    <g
   style="fill:#000000;fill-opacity:1"
   id="id-81b02295-82d3-47c5-b564-eb1aa2a0ae49">
      <g
   transform="translate(155.513,136.259)"
   id="g62073"><path
   style="stroke:none"
   d="M 3.59375,-2.21875 C 3.59375,-2.984375 3.5,-3.546875 3.1875,-4.03125 2.96875,-4.34375 2.53125,-4.625 1.984375,-4.625 c -1.625,0 -1.625,1.90625 -1.625,2.40625 0,0.5 0,2.359375 1.625,2.359375 1.609375,0 1.609375,-1.859375 1.609375,-2.359375 z M 1.984375,-0.0625 c -0.328125,0 -0.75,-0.1875 -0.890625,-0.75 C 1,-1.21875 1,-1.796875 1,-2.3125 1,-2.828125 1,-3.359375 1.09375,-3.734375 1.25,-4.28125 1.6875,-4.4375 1.984375,-4.4375 c 0.375,0 0.734375,0.234375 0.859375,0.640625 0.109375,0.375 0.125,0.875 0.125,1.484375 0,0.515625 0,1.03125 -0.09375,1.46875 -0.140625,0.640625 -0.609375,0.78125 -0.890625,0.78125 z m 0,0"
   id="id-dfd18e9f-46ce-4737-845d-b51ac3e32783" />
      </g></g>
  </g>
</g><g
       transform="matrix(1.33333,0,0,-1.33333,389.20028,5.3010769)"
       ns4:version="1.2.0"
       ns4:texconverter="pdflatex"
       ns4:pdfconverter="inkscape"
       ns4:text="$Z_0$      "
       ns4:preamble="/Users/hasanabbas/Library/Application Support/org.inkscape.Inkscape/config/inkscape/extensions/circuitSymbols/circuitSymbolsPreamble.tex"
       ns4:scale="1.0"
       ns4:alignment="middle center"
       ns4:inkscapeversion="1.0.2"
       ns4:jacobian_sqrt="1.33333"
       id="g62224"><defs
   id="defs62208">
    <g
   id="g62206">
      <symbol
   overflow="visible"
   id="symbol62192">
        <path
   style="stroke:none"
   d=""
   id="path62190" />
      </symbol>
      <symbol
   overflow="visible"
   id="symbol62196">
        <path
   style="stroke:none"
   d="m 7.171875,-6.5625 c 0.015625,-0.046875 0.03125,-0.09375 0.03125,-0.15625 0,-0.09375 -0.046875,-0.09375 -0.25,-0.09375 H 2.75 c -0.234375,0 -0.25,0.015625 -0.3125,0.203125 L 1.890625,-4.8125 c -0.015625,0.046875 -0.03125,0.125 -0.03125,0.140625 0,0 0,0.109375 0.125,0.109375 0.09375,0 0.109375,-0.078125 0.125,-0.109375 C 2.5,-5.84375 3.015625,-6.5 4.5625,-6.5 h 1.625 L 0.625,-0.265625 c 0,0 -0.046875,0.140625 -0.046875,0.171875 C 0.578125,0 0.640625,0 0.828125,0 H 5.15625 c 0.25,0 0.25,-0.015625 0.3125,-0.203125 L 6.1875,-2.40625 c 0,-0.03125 0.03125,-0.109375 0.03125,-0.140625 0,-0.0625 -0.03125,-0.109375 -0.125,-0.109375 -0.09375,0 -0.109375,0.03125 -0.171875,0.25 C 5.484375,-1.0625 5,-0.34375 3.3125,-0.34375 H 1.609375 Z m 0,0"
   id="path62194" />
      </symbol>
      <symbol
   overflow="visible"
   id="symbol62200">
        <path
   style="stroke:none"
   d=""
   id="path62198" />
      </symbol>
      <symbol
   overflow="visible"
   id="symbol62204">
        <path
   style="stroke:none"
   d="M 3.59375,-2.21875 C 3.59375,-2.984375 3.5,-3.546875 3.1875,-4.03125 2.96875,-4.34375 2.53125,-4.625 1.984375,-4.625 c -1.625,0 -1.625,1.90625 -1.625,2.40625 0,0.5 0,2.359375 1.625,2.359375 1.609375,0 1.609375,-1.859375 1.609375,-2.359375 z M 1.984375,-0.0625 c -0.328125,0 -0.75,-0.1875 -0.890625,-0.75 C 1,-1.21875 1,-1.796875 1,-2.3125 1,-2.828125 1,-3.359375 1.09375,-3.734375 1.25,-4.28125 1.6875,-4.4375 1.984375,-4.4375 c 0.375,0 0.734375,0.234375 0.859375,0.640625 0.109375,0.375 0.125,0.875 0.125,1.484375 0,0.515625 0,1.03125 -0.09375,1.46875 -0.140625,0.640625 -0.609375,0.78125 -0.890625,0.78125 z m 0,0"
   id="path62202" />
      </symbol>
    </g>
  </defs>
  <g
   id="g62222"
   transform="translate(-149.29,-127.953)">
    <g
   style="fill:#000000;fill-opacity:1"
   id="g62214">
      <g
   transform="translate(148.712,134.765)"
   id="g62212"><path
   style="stroke:none"
   d="m 7.171875,-6.5625 c 0.015625,-0.046875 0.03125,-0.09375 0.03125,-0.15625 0,-0.09375 -0.046875,-0.09375 -0.25,-0.09375 H 2.75 c -0.234375,0 -0.25,0.015625 -0.3125,0.203125 L 1.890625,-4.8125 c -0.015625,0.046875 -0.03125,0.125 -0.03125,0.140625 0,0 0,0.109375 0.125,0.109375 0.09375,0 0.109375,-0.078125 0.125,-0.109375 C 2.5,-5.84375 3.015625,-6.5 4.5625,-6.5 h 1.625 L 0.625,-0.265625 c 0,0 -0.046875,0.140625 -0.046875,0.171875 C 0.578125,0 0.640625,0 0.828125,0 H 5.15625 c 0.25,0 0.25,-0.015625 0.3125,-0.203125 L 6.1875,-2.40625 c 0,-0.03125 0.03125,-0.109375 0.03125,-0.140625 0,-0.0625 -0.03125,-0.109375 -0.125,-0.109375 -0.09375,0 -0.109375,0.03125 -0.171875,0.25 C 5.484375,-1.0625 5,-0.34375 3.3125,-0.34375 H 1.609375 Z m 0,0"
   id="path62210" />
      </g></g>
    <g
   style="fill:#000000;fill-opacity:1"
   id="g62220">
      <g
   transform="translate(155.513,136.259)"
   id="g62218"><path
   style="stroke:none"
   d="M 3.59375,-2.21875 C 3.59375,-2.984375 3.5,-3.546875 3.1875,-4.03125 2.96875,-4.34375 2.53125,-4.625 1.984375,-4.625 c -1.625,0 -1.625,1.90625 -1.625,2.40625 0,0.5 0,2.359375 1.625,2.359375 1.609375,0 1.609375,-1.859375 1.609375,-2.359375 z M 1.984375,-0.0625 c -0.328125,0 -0.75,-0.1875 -0.890625,-0.75 C 1,-1.21875 1,-1.796875 1,-2.3125 1,-2.828125 1,-3.359375 1.09375,-3.734375 1.25,-4.28125 1.6875,-4.4375 1.984375,-4.4375 c 0.375,0 0.734375,0.234375 0.859375,0.640625 0.109375,0.375 0.125,0.875 0.125,1.484375 0,0.515625 0,1.03125 -0.09375,1.46875 -0.140625,0.640625 -0.609375,0.78125 -0.890625,0.78125 z m 0,0"
   id="path62216" />
      </g></g>
  </g>
</g><g
       transform="matrix(1.33333,0,0,-1.33333,323.89998,85.570615)"
       ns4:version="1.2.0"
       ns4:texconverter="pdflatex"
       ns4:pdfconverter="inkscape"
       ns4:text="$A$ "
       ns4:preamble="/Users/hasanabbas/Library/Application Support/org.inkscape.Inkscape/config/inkscape/extensions/circuitSymbols/circuitSymbolsPreamble.tex"
       ns4:scale="1.0"
       ns4:alignment="middle center"
       ns4:inkscapeversion="1.0.2"
       ns4:jacobian_sqrt="1.33333"
       id="g64444"><defs
   id="id-c60aac9a-d9ac-4308-82b6-ad9f6cd9116d">
    <g
   id="id-57e9da26-ffda-4746-96c2-2b540e71fc58">
      <symbol
   overflow="visible"
   id="id-bbd3c781-86e4-4e42-acf9-f85dc8acf641">
        <path
   style="stroke:none;stroke-width:0"
   d=""
   id="id-90a5f04d-6896-4a53-a07e-104c7209d338" />
      </symbol>
      <symbol
   overflow="visible"
   id="id-d7e278bf-38ad-4d23-b011-def77d133bde">
        <path
   style="stroke:none;stroke-width:0"
   d="M 1.78125,-1.140625 C 1.390625,-0.484375 1,-0.34375 0.5625,-0.3125 0.4375,-0.296875 0.34375,-0.296875 0.34375,-0.109375 0.34375,-0.046875 0.40625,0 0.484375,0 0.75,0 1.0625,-0.03125 1.328125,-0.03125 c 0.34375,0 0.6875,0.03125 1,0.03125 0.0625,0 0.1875,0 0.1875,-0.1875 0,-0.109375 -0.078125,-0.125 -0.15625,-0.125 -0.21875,-0.015625 -0.46875,-0.09375 -0.46875,-0.34375 0,-0.125 0.0625,-0.234375 0.140625,-0.375 l 0.765625,-1.265625 h 2.5 c 0.015625,0.203125 0.15625,1.5625 0.15625,1.65625 0,0.296875 -0.515625,0.328125 -0.71875,0.328125 C 4.59375,-0.3125 4.5,-0.3125 4.5,-0.109375 4.5,0 4.609375,0 4.640625,0 5.046875,0 5.46875,-0.03125 5.875,-0.03125 6.125,-0.03125 6.765625,0 7.015625,0 7.0625,0 7.1875,0 7.1875,-0.203125 7.1875,-0.3125 7.09375,-0.3125 6.953125,-0.3125 6.34375,-0.3125 6.34375,-0.375 6.3125,-0.671875 l -0.609375,-6.21875 c -0.015625,-0.203125 -0.015625,-0.25 -0.1875,-0.25 -0.15625,0 -0.203125,0.078125 -0.265625,0.171875 z M 2.984375,-2.609375 4.9375,-5.90625 5.265625,-2.609375 Z m 0,0"
   id="id-3cd8d8c3-c915-4abe-835c-302339fceb0a" />
      </symbol>
    </g>
  </defs>
  <g
   id="id-a89c7704-7a5a-4267-9511-659738e934bf"
   transform="translate(-149.056,-127.624)">
    <g
   style="fill:#000000;fill-opacity:1"
   id="id-1ccba7a8-59a4-4450-848e-84c5076324d9">
      <g
   transform="translate(148.712,134.765)"
   id="g64440"><path
   style="stroke:none;stroke-width:0"
   d="M 1.78125,-1.140625 C 1.390625,-0.484375 1,-0.34375 0.5625,-0.3125 0.4375,-0.296875 0.34375,-0.296875 0.34375,-0.109375 0.34375,-0.046875 0.40625,0 0.484375,0 0.75,0 1.0625,-0.03125 1.328125,-0.03125 c 0.34375,0 0.6875,0.03125 1,0.03125 0.0625,0 0.1875,0 0.1875,-0.1875 0,-0.109375 -0.078125,-0.125 -0.15625,-0.125 -0.21875,-0.015625 -0.46875,-0.09375 -0.46875,-0.34375 0,-0.125 0.0625,-0.234375 0.140625,-0.375 l 0.765625,-1.265625 h 2.5 c 0.015625,0.203125 0.15625,1.5625 0.15625,1.65625 0,0.296875 -0.515625,0.328125 -0.71875,0.328125 C 4.59375,-0.3125 4.5,-0.3125 4.5,-0.109375 4.5,0 4.609375,0 4.640625,0 5.046875,0 5.46875,-0.03125 5.875,-0.03125 6.125,-0.03125 6.765625,0 7.015625,0 7.0625,0 7.1875,0 7.1875,-0.203125 7.1875,-0.3125 7.09375,-0.3125 6.953125,-0.3125 6.34375,-0.3125 6.34375,-0.375 6.3125,-0.671875 l -0.609375,-6.21875 c -0.015625,-0.203125 -0.015625,-0.25 -0.1875,-0.25 -0.15625,0 -0.203125,0.078125 -0.265625,0.171875 z M 2.984375,-2.609375 4.9375,-5.90625 5.265625,-2.609375 Z m 0,0"
   id="id-a9eab735-7507-47dd-9650-34db9e1a6bf6" />
      </g></g>
  </g>
</g><g
       transform="matrix(1.33333,0,0,-1.33333,323.89998,48.2164)"
       ns4:version="1.2.0"
       ns4:texconverter="pdflatex"
       ns4:pdfconverter="inkscape"
       ns4:text="$A'$  "
       ns4:preamble="/Users/hasanabbas/Library/Application Support/org.inkscape.Inkscape/config/inkscape/extensions/circuitSymbols/circuitSymbolsPreamble.tex"
       ns4:scale="1.0"
       ns4:alignment="middle center"
       ns4:inkscapeversion="1.0.2"
       ns4:jacobian_sqrt="1.33333"
       id="g64617"><defs
   id="id-917ff6a6-1a78-45a7-8ebd-6751fafa4bd7">
    <g
   id="id-e878de20-227f-4f37-a862-6733cfa4c898">
      <symbol
   overflow="visible"
   id="id-9b1204ca-18b8-45e2-8ae9-afadca0243d5">
        <path
   style="stroke:none"
   d=""
   id="id-6a3e0569-bbfb-416b-a27c-3b9e4643f9ac" />
      </symbol>
      <symbol
   overflow="visible"
   id="id-9b86b71b-a7e4-439a-a858-57de6e157caa">
        <path
   style="stroke:none"
   d="M 1.78125,-1.140625 C 1.390625,-0.484375 1,-0.34375 0.5625,-0.3125 0.4375,-0.296875 0.34375,-0.296875 0.34375,-0.109375 0.34375,-0.046875 0.40625,0 0.484375,0 0.75,0 1.0625,-0.03125 1.328125,-0.03125 c 0.34375,0 0.6875,0.03125 1,0.03125 0.0625,0 0.1875,0 0.1875,-0.1875 0,-0.109375 -0.078125,-0.125 -0.15625,-0.125 -0.21875,-0.015625 -0.46875,-0.09375 -0.46875,-0.34375 0,-0.125 0.0625,-0.234375 0.140625,-0.375 l 0.765625,-1.265625 h 2.5 c 0.015625,0.203125 0.15625,1.5625 0.15625,1.65625 0,0.296875 -0.515625,0.328125 -0.71875,0.328125 C 4.59375,-0.3125 4.5,-0.3125 4.5,-0.109375 4.5,0 4.609375,0 4.640625,0 5.046875,0 5.46875,-0.03125 5.875,-0.03125 6.125,-0.03125 6.765625,0 7.015625,0 7.0625,0 7.1875,0 7.1875,-0.203125 7.1875,-0.3125 7.09375,-0.3125 6.953125,-0.3125 6.34375,-0.3125 6.34375,-0.375 6.3125,-0.671875 l -0.609375,-6.21875 c -0.015625,-0.203125 -0.015625,-0.25 -0.1875,-0.25 -0.15625,0 -0.203125,0.078125 -0.265625,0.171875 z M 2.984375,-2.609375 4.9375,-5.90625 5.265625,-2.609375 Z m 0,0"
   id="id-d8da0e14-1b78-402d-9be4-f059add2fbf9" />
      </symbol>
      <symbol
   overflow="visible"
   id="id-7c9d0960-f28b-4f54-9f77-7c48deac3169">
        <path
   style="stroke:none"
   d=""
   id="id-d5c3a121-68ef-433f-9859-b0bf9fec8786" />
      </symbol>
      <symbol
   overflow="visible"
   id="id-ace14ca6-ce46-4ff3-b97c-46b409c8bbbf">
        <path
   style="stroke:none"
   d="m 2.015625,-3.296875 c 0.0625,-0.109375 0.0625,-0.171875 0.0625,-0.21875 0,-0.21875 -0.1875,-0.375 -0.40625,-0.375 -0.265625,0 -0.34375,0.21875 -0.375,0.328125 L 0.375,-0.546875 c -0.015625,0.015625 -0.046875,0.09375 -0.046875,0.109375 0,0.078125 0.21875,0.15625 0.28125,0.15625 0.046875,0 0.046875,-0.015625 0.09375,-0.125 z m 0,0"
   id="id-970ab9a5-405a-4a48-84ff-4de946235732" />
      </symbol>
    </g>
  </defs>
  <g
   id="id-ea646483-16ee-4797-a9f4-df19872be0a6"
   transform="translate(-149.056,-127.258)">
    <g
   style="fill:#000000;fill-opacity:1"
   id="id-ab13a49b-896c-49b3-98dd-87e288e29d7b">
      <g
   transform="translate(148.712,134.765)"
   id="g64779"><path
   style="stroke:none"
   d="M 1.78125,-1.140625 C 1.390625,-0.484375 1,-0.34375 0.5625,-0.3125 0.4375,-0.296875 0.34375,-0.296875 0.34375,-0.109375 0.34375,-0.046875 0.40625,0 0.484375,0 0.75,0 1.0625,-0.03125 1.328125,-0.03125 c 0.34375,0 0.6875,0.03125 1,0.03125 0.0625,0 0.1875,0 0.1875,-0.1875 0,-0.109375 -0.078125,-0.125 -0.15625,-0.125 -0.21875,-0.015625 -0.46875,-0.09375 -0.46875,-0.34375 0,-0.125 0.0625,-0.234375 0.140625,-0.375 l 0.765625,-1.265625 h 2.5 c 0.015625,0.203125 0.15625,1.5625 0.15625,1.65625 0,0.296875 -0.515625,0.328125 -0.71875,0.328125 C 4.59375,-0.3125 4.5,-0.3125 4.5,-0.109375 4.5,0 4.609375,0 4.640625,0 5.046875,0 5.46875,-0.03125 5.875,-0.03125 6.125,-0.03125 6.765625,0 7.015625,0 7.0625,0 7.1875,0 7.1875,-0.203125 7.1875,-0.3125 7.09375,-0.3125 6.953125,-0.3125 6.34375,-0.3125 6.34375,-0.375 6.3125,-0.671875 l -0.609375,-6.21875 c -0.015625,-0.203125 -0.015625,-0.25 -0.1875,-0.25 -0.15625,0 -0.203125,0.078125 -0.265625,0.171875 z M 2.984375,-2.609375 4.9375,-5.90625 5.265625,-2.609375 Z m 0,0"
   id="id-6e5dbb50-e81d-4306-88c6-4cf75761683c" />
      </g></g>
    <g
   style="fill:#000000;fill-opacity:1"
   id="id-dd420fd5-d509-4ab6-a1e1-185cbfe054d2">
      <g
   transform="translate(156.184,131.149)"
   id="g64783"><path
   style="stroke:none"
   d="m 2.015625,-3.296875 c 0.0625,-0.109375 0.0625,-0.171875 0.0625,-0.21875 0,-0.21875 -0.1875,-0.375 -0.40625,-0.375 -0.265625,0 -0.34375,0.21875 -0.375,0.328125 L 0.375,-0.546875 c -0.015625,0.015625 -0.046875,0.09375 -0.046875,0.109375 0,0.078125 0.21875,0.15625 0.28125,0.15625 0.046875,0 0.046875,-0.015625 0.09375,-0.125 z m 0,0"
   id="id-22aac1f2-5e6a-4dec-ad6c-fbc7b43d8cea" />
      </g></g>
  </g>
</g><path
       inkscape:label="none"
       style="fill:none;stroke:#000000;stroke-width:1;stroke-linecap:round;stroke-linejoin:round;stroke-dasharray:none"
       d="M 339.42382,28.010406 321.86905,11.644889"
       id="path73023" /><path
       inkscape:label="none"
       style="fill:none;stroke:#000000;stroke-width:1;stroke-linecap:round;stroke-linejoin:round;stroke-dasharray:none"
       d="M 408.03582,-45.587496 390.48105,-61.953013"
       id="path73025" /><path
       inkscape:label="dim"
       style="fill:none;stroke:#b8b8b8;stroke-width:1;stroke-linecap:round;stroke-linejoin:round;stroke-dasharray:none;stroke-opacity:1;marker-start:url(#DimmArrow_Start_n00001);marker-end:url(#DimmArrow_End_n00001)"
       d="M 331.61381,7.0579888 386.58788,-51.91094"
       id="path73027" /><g
       inkscape:label="Layer 1"
       inkscape:groupmode="layer"
       id="layer1"
       transform="matrix(1.105994,0,0,1.105994,-87.800244,-649.69576)"><g
         transform="matrix(1.33333,0,0,-1.33333,398.573,564.68831)"
         ns4:version="1.2.0"
         ns4:texconverter="pdflatex"
         ns4:pdfconverter="inkscape"
         ns4:text=" \noindent $l$"
         ns4:preamble="/Users/hasanabbas/Library/Application Support/org.inkscape.Inkscape/config/inkscape/extensions/inkscapeMadeEasy/basicLatexPackages.tex"
         ns4:scale="1.0"
         ns4:alignment="middle center"
         ns4:inkscapeversion="1.0.1"
         ns4:jacobian_sqrt="1.33333"
         id="g73040"
         style="fill:#8f8f8f;fill-opacity:1;stroke:#8f8f8f;stroke-opacity:1"><defs
   id="id-9235a225-78e8-490a-9adb-3a452d962fb6">
    <g
   id="id-ed41693b-b103-4a52-bd0a-2f10eeb9c0ca">
      <symbol
   overflow="visible"
   id="id-da112d9c-d633-42c0-b279-d0b7690e4bff">
        <path
   style="stroke:none;stroke-width:0"
   d=""
   id="id-2f62e80b-bab3-4e49-bf27-eda322e90817" />
      </symbol>
      <symbol
   overflow="visible"
   id="id-cfdc8e89-8f67-404f-9606-9f5002dfa758">
        <path
   style="stroke:none;stroke-width:0"
   d="m 2.578125,-6.8125 c 0,0 0,-0.109375 -0.140625,-0.109375 -0.21875,0 -0.953125,0.078125 -1.21875,0.109375 -0.078125,0 -0.1875,0.015625 -0.1875,0.203125 0,0.109375 0.109375,0.109375 0.25,0.109375 0.484375,0 0.5,0.09375 0.5,0.171875 L 1.75,-6.125 0.484375,-1.140625 C 0.453125,-1.03125 0.4375,-0.96875 0.4375,-0.8125 c 0,0.578125 0.4375,0.921875 0.90625,0.921875 0.328125,0 0.578125,-0.203125 0.75,-0.5625 0.171875,-0.375 0.296875,-0.953125 0.296875,-0.96875 0,-0.109375 -0.09375,-0.109375 -0.125,-0.109375 -0.09375,0 -0.109375,0.046875 -0.125,0.1875 C 1.96875,-0.703125 1.78125,-0.109375 1.375,-0.109375 c -0.296875,0 -0.296875,-0.3125 -0.296875,-0.453125 0,-0.25 0.015625,-0.296875 0.0625,-0.484375 z m 0,0"
   id="id-487965a5-2ce9-473d-b092-6429e5dcf259" />
      </symbol>
    </g>
  </defs>
  <g
   id="id-05564405-6be9-4ab2-84e2-61e134b4d87e"
   transform="translate(-134.206,-127.843)"
   style="fill:#8f8f8f;fill-opacity:1;stroke:#8f8f8f;stroke-opacity:1">
    <g
   style="fill:#8f8f8f;fill-opacity:1;stroke:#8f8f8f;stroke-opacity:1"
   id="id-0e725a64-15cf-47fa-842f-095e4a561294">
      <g
   transform="translate(133.768,134.765)"
   id="g73036"
   style="fill:#8f8f8f;fill-opacity:1;stroke:#8f8f8f;stroke-opacity:1"><path
   style="fill:#8f8f8f;fill-opacity:1;stroke:#8f8f8f;stroke-width:0;stroke-opacity:1"
   d="m 2.578125,-6.8125 c 0,0 0,-0.109375 -0.140625,-0.109375 -0.21875,0 -0.953125,0.078125 -1.21875,0.109375 -0.078125,0 -0.1875,0.015625 -0.1875,0.203125 0,0.109375 0.109375,0.109375 0.25,0.109375 0.484375,0 0.5,0.09375 0.5,0.171875 L 1.75,-6.125 0.484375,-1.140625 C 0.453125,-1.03125 0.4375,-0.96875 0.4375,-0.8125 c 0,0.578125 0.4375,0.921875 0.90625,0.921875 0.328125,0 0.578125,-0.203125 0.75,-0.5625 0.171875,-0.375 0.296875,-0.953125 0.296875,-0.96875 0,-0.109375 -0.09375,-0.109375 -0.125,-0.109375 -0.09375,0 -0.109375,0.046875 -0.125,0.1875 C 1.96875,-0.703125 1.78125,-0.109375 1.375,-0.109375 c -0.296875,0 -0.296875,-0.3125 -0.296875,-0.453125 0,-0.25 0.015625,-0.296875 0.0625,-0.484375 z m 0,0"
   id="id-37fec6c7-5387-4742-8762-f78d55320066" />
      </g></g>
  </g>
</g></g><path
       inkscape:label="none"
       style="fill:#8f8f8f;fill-opacity:1;stroke:#b8b8b8;stroke-width:1.02732;stroke-linecap:round;stroke-linejoin:round;stroke-dasharray:none;stroke-opacity:1"
       d="M 340.47489,36.945943 V 48.190159"
       id="path86636"
       sodipodi:nodetypes="cc" /><path
       inkscape:label="none"
       style="fill:#8f8f8f;fill-opacity:1;stroke:#b8b8b8;stroke-width:1.02732;stroke-linecap:round;stroke-linejoin:round;stroke-dasharray:none;stroke-opacity:1"
       d="M 431.54301,36.945943 V 48.190159"
       id="path86638"
       sodipodi:nodetypes="cc" /><path
       inkscape:label="dim"
       style="fill:#595959;fill-opacity:1;stroke:#b8b8b8;stroke-width:1.0275;stroke-linecap:round;stroke-linejoin:round;stroke-miterlimit:4;stroke-dasharray:none;stroke-opacity:1;marker-start:url(#DimmArrow_Start_n00002);marker-end:url(#DimmArrow_End_n00002)"
       d="m 350.74813,44.080864 h 70.52164"
       id="path86640" /><g
       inkscape:label="Layer 1"
       inkscape:groupmode="layer"
       id="g86655"
       transform="matrix(1.1362138,0,0,1.1362138,-68.477243,-608.40485)"
       style="fill:#8f8f8f;fill-opacity:1;stroke:#b8b8b8;stroke-opacity:1"><g
         transform="matrix(1.33333,0,0,-1.33333,396.844,585.43078)"
         ns4:version="1.2.0"
         ns4:texconverter="pdflatex"
         ns4:pdfconverter="inkscape"
         ns4:text=" \noindent $d$"
         ns4:preamble="/Users/hasanabbas/Library/Application Support/org.inkscape.Inkscape/config/inkscape/extensions/inkscapeMadeEasy/basicLatexPackages.tex"
         ns4:scale="1.0"
         ns4:alignment="middle center"
         ns4:inkscapeversion="1.0.1"
         ns4:jacobian_sqrt="1.33333"
         id="g86653"
         style="fill:#8f8f8f;fill-opacity:1;stroke:#b8b8b8;stroke-opacity:1"><defs
   id="id-31ac8518-46c5-4ecf-9f34-a52b072a3bc2">
    <g
   id="id-2f4cd525-d980-4859-ba59-01051184ed5d">
      <symbol
   overflow="visible"
   id="id-f7a3f1fd-e3d9-463e-a29e-4fc84219c8f3">
        <path
   style="stroke:none;stroke-width:0"
   d=""
   id="id-c13d2089-d2e6-4bdf-99d8-2b92311b173e" />
      </symbol>
      <symbol
   overflow="visible"
   id="id-c1d5c4a7-aa7a-42d6-86d2-e4e60a69e38b">
        <path
   style="stroke:none;stroke-width:0"
   d="m 5.140625,-6.8125 c 0,0 0,-0.109375 -0.125,-0.109375 -0.15625,0 -1.09375,0.09375 -1.265625,0.109375 -0.078125,0.015625 -0.140625,0.0625 -0.140625,0.1875 0,0.125 0.09375,0.125 0.234375,0.125 0.484375,0 0.5,0.0625 0.5,0.171875 L 4.3125,-6.125 3.71875,-3.765625 C 3.53125,-4.140625 3.25,-4.40625 2.796875,-4.40625 c -1.15625,0 -2.390625,1.46875 -2.390625,2.921875 0,0.9375 0.546875,1.59375 1.3125,1.59375 0.203125,0 0.703125,-0.046875 1.296875,-0.75 0.078125,0.421875 0.4375,0.75 0.90625,0.75 0.359375,0 0.578125,-0.234375 0.75,-0.546875 0.15625,-0.359375 0.296875,-0.96875 0.296875,-0.984375 0,-0.109375 -0.09375,-0.109375 -0.125,-0.109375 -0.09375,0 -0.109375,0.046875 -0.140625,0.1875 -0.171875,0.640625 -0.34375,1.234375 -0.75,1.234375 -0.28125,0 -0.296875,-0.265625 -0.296875,-0.453125 0,-0.25 0.015625,-0.3125 0.046875,-0.484375 z m -2.0625,5.625 C 3.015625,-1 3.015625,-0.984375 2.875,-0.8125 2.4375,-0.265625 2.03125,-0.109375 1.75,-0.109375 c -0.5,0 -0.640625,-0.546875 -0.640625,-0.9375 0,-0.5 0.3125,-1.71875 0.546875,-2.1875 0.3125,-0.578125 0.75,-0.953125 1.15625,-0.953125 0.640625,0 0.78125,0.8125 0.78125,0.875 0,0.0625 -0.015625,0.125 -0.03125,0.171875 z m 0,0"
   id="id-799a4a64-cc5f-434a-9745-df72f41d9549" />
      </symbol>
    </g>
  </defs>
  <g
   id="id-60354ea5-fc96-4c3b-b149-eed74432f3b0"
   transform="translate(-134.174,-127.843)"
   style="fill:#8f8f8f;fill-opacity:1;stroke:#b8b8b8;stroke-opacity:1">
    <g
   style="fill:#8f8f8f;fill-opacity:1;stroke:#b8b8b8;stroke-opacity:1"
   id="id-430c6924-1832-46c6-8329-591ec05543fb">
      <g
   transform="translate(133.768,134.765)"
   id="g86649"
   style="fill:#8f8f8f;fill-opacity:1;stroke:#b8b8b8;stroke-opacity:1"><path
   style="fill:#8f8f8f;fill-opacity:1;stroke:#b8b8b8;stroke-width:0;stroke-opacity:1"
   d="m 5.140625,-6.8125 c 0,0 0,-0.109375 -0.125,-0.109375 -0.15625,0 -1.09375,0.09375 -1.265625,0.109375 -0.078125,0.015625 -0.140625,0.0625 -0.140625,0.1875 0,0.125 0.09375,0.125 0.234375,0.125 0.484375,0 0.5,0.0625 0.5,0.171875 L 4.3125,-6.125 3.71875,-3.765625 C 3.53125,-4.140625 3.25,-4.40625 2.796875,-4.40625 c -1.15625,0 -2.390625,1.46875 -2.390625,2.921875 0,0.9375 0.546875,1.59375 1.3125,1.59375 0.203125,0 0.703125,-0.046875 1.296875,-0.75 0.078125,0.421875 0.4375,0.75 0.90625,0.75 0.359375,0 0.578125,-0.234375 0.75,-0.546875 0.15625,-0.359375 0.296875,-0.96875 0.296875,-0.984375 0,-0.109375 -0.09375,-0.109375 -0.125,-0.109375 -0.09375,0 -0.109375,0.046875 -0.140625,0.1875 -0.171875,0.640625 -0.34375,1.234375 -0.75,1.234375 -0.28125,0 -0.296875,-0.265625 -0.296875,-0.453125 0,-0.25 0.015625,-0.3125 0.046875,-0.484375 z m -2.0625,5.625 C 3.015625,-1 3.015625,-0.984375 2.875,-0.8125 2.4375,-0.265625 2.03125,-0.109375 1.75,-0.109375 c -0.5,0 -0.640625,-0.546875 -0.640625,-0.9375 0,-0.5 0.3125,-1.71875 0.546875,-2.1875 0.3125,-0.578125 0.75,-0.953125 1.15625,-0.953125 0.640625,0 0.78125,0.8125 0.78125,0.875 0,0.0625 -0.015625,0.125 -0.03125,0.171875 z m 0,0"
   id="id-69cdfe78-3b29-4f07-898f-6416b58e4d74" />
      </g></g>
  </g>
</g></g><path
       d="m 264.53537,31.856 c 0,1.40898 -1.1422,2.5512 -2.55119,2.5512 -1.409,0 -2.5512,-1.14222 -2.5512,-2.5512 0,-1.40898 1.1422,-2.5512 2.5512,-2.5512 1.40899,0 2.55119,1.14222 2.55119,2.5512 z"
       style="fill:#ffffff;fill-opacity:1;fill-rule:nonzero;stroke:#000000;stroke-width:0.99628;stroke-linecap:butt;stroke-linejoin:miter;stroke-miterlimit:10;stroke-dasharray:none;stroke-opacity:1"
       id="path86901" /><path
       d="m 264.53537,88.54962 c 0,1.40898 -1.1422,2.55119 -2.55119,2.55119 -1.409,0 -2.5512,-1.14221 -2.5512,-2.55119 0,-1.409 1.1422,-2.55121 2.5512,-2.55121 1.40899,0 2.55119,1.14221 2.55119,2.55121 z"
       style="fill:#ffffff;fill-opacity:1;fill-rule:nonzero;stroke:#000000;stroke-width:0.99628;stroke-linecap:butt;stroke-linejoin:miter;stroke-miterlimit:10;stroke-dasharray:none;stroke-opacity:1"
       id="path86903" /></g><g
     inkscape:label="Layer 1"
     inkscape:groupmode="layer"
     id="g73046"
     transform="matrix(0,-0.552997,0.552997,0,-404.82809,277.196)" /><path
     style="fill:none;stroke:#000000;stroke-width:1px;stroke-linecap:butt;stroke-linejoin:miter;stroke-opacity:1;marker-end:url(#marker4058)"
     d="M 9.41019,57.387851 H 54.389496"
     id="path19170"
     sodipodi:nodetypes="cc" /><g
     transform="matrix(1.90407,0,0,1.90407,-2.3800875e-4,49.420507)"
     ns4:version="1.2.0"
     ns4:texconverter="pdflatex"
     ns4:pdfconverter="inkscape"
     ns4:text="$\Gamma$  "
     ns4:preamble="/Users/hasanabbas/Library/Application Support/org.inkscape.Inkscape/config/inkscape/extensions/circuitSymbols/circuitSymbolsPreamble.tex"
     ns4:scale="1.4280594451486128"
     ns4:alignment="middle center"
     ns4:inkscapeversion="1.0.2"
     ns4:jacobian_sqrt="1.90407"
     id="g19546"><defs
   id="id-f2dfcf3e-2b1d-41c4-aae4-16e9d5c5afb5">
    <g
   id="id-f3970dc0-f39e-4e6e-966e-c82ef41e4b12">
      <symbol
   overflow="visible"
   id="id-45b748d0-249e-453c-94e6-e227358a223a">
        <path
   style="stroke:none"
   d=""
   id="id-350f24a5-ea0d-4b12-9232-c15897dd2aa1" />
      </symbol>
      <symbol
   overflow="visible"
   id="id-6b1ec671-f199-431a-a695-7f5427f51129">
        <path
   style="stroke:none"
   d="m 5.515625,-6.78125 h -5.1875 v 0.3125 H 0.5625 c 0.765625,0 0.796875,0.109375 0.796875,0.46875 v 5.21875 c 0,0.359375 -0.03125,0.46875 -0.796875,0.46875 H 0.328125 V 0 c 0.34375,-0.03125 1.125,-0.03125 1.515625,-0.03125 0.40625,0 1.3125,0 1.671875,0.03125 V -0.3125 H 3.1875 C 2.25,-0.3125 2.25,-0.4375 2.25,-0.78125 v -5.296875 c 0,-0.328125 0.015625,-0.390625 0.484375,-0.390625 h 1.03125 c 1.421875,0 1.625,0.59375 1.78125,1.9375 h 0.25 z m 0,0"
   id="id-f0d5e874-0d02-4f22-8769-2b98a4be26f3" />
      </symbol>
    </g>
  </defs>
  <g
   id="id-e246cfa7-c860-4955-bc29-76e1065d1670"
   transform="translate(-149.04,-127.984)">
    <g
   style="fill:#000000;fill-opacity:1"
   id="id-c5d86949-f508-425b-813b-b45947860429">
      <g
   transform="translate(148.712,134.765)"
   id="g19772"><path
   style="stroke:none"
   d="m 5.515625,-6.78125 h -5.1875 v 0.3125 H 0.5625 c 0.765625,0 0.796875,0.109375 0.796875,0.46875 v 5.21875 c 0,0.359375 -0.03125,0.46875 -0.796875,0.46875 H 0.328125 V 0 c 0.34375,-0.03125 1.125,-0.03125 1.515625,-0.03125 0.40625,0 1.3125,0 1.671875,0.03125 V -0.3125 H 3.1875 C 2.25,-0.3125 2.25,-0.4375 2.25,-0.78125 v -5.296875 c 0,-0.328125 0.015625,-0.390625 0.484375,-0.390625 h 1.03125 c 1.421875,0 1.625,0.59375 1.78125,1.9375 h 0.25 z m 0,0"
   id="id-1871aa47-0f7a-4fe4-b7a7-ac233988aec0" />
      </g></g>
  </g>
</g><path
     style="fill:none;stroke:#8a8a8a;stroke-width:1px;stroke-linecap:butt;stroke-linejoin:miter;stroke-opacity:1;marker-end:url(#marker62252)"
     d="m 174.74126,11.312087 h 24.34277"
     id="path62238"
     sodipodi:nodetypes="cc" /><path
     style="fill:none;stroke:#8a8a8a;stroke-width:1px;stroke-linecap:butt;stroke-linejoin:miter;stroke-opacity:1;marker-end:url(#marker62522)"
     d="m 175.62861,29.932767 16.50234,17.895337"
     id="path62380"
     sodipodi:nodetypes="cc" /><path
     style="fill:none;stroke:#8a8a8a;stroke-width:1px;stroke-linecap:butt;stroke-linejoin:miter;stroke-opacity:1;marker-end:url(#marker62940)"
     d="m 257.95397,11.312087 h 24.34277"
     id="path62900"
     sodipodi:nodetypes="cc" /><g
     transform="matrix(1.33333,0,0,1.33333,258.47462,9.975325e-4)"
     ns4:version="1.2.0"
     ns4:texconverter="pdflatex"
     ns4:pdfconverter="inkscape"
     ns4:text="$y_L$ "
     ns4:preamble="/Users/hasanabbas/Library/Application Support/org.inkscape.Inkscape/config/inkscape/extensions/circuitSymbols/circuitSymbolsPreamble.tex"
     ns4:scale="1.0"
     ns4:alignment="middle center"
     ns4:inkscapeversion="1.0.2"
     ns4:jacobian_sqrt="1.33333"
     id="g62936"><defs
   id="defs62920">
    <g
   id="g62918">
      <symbol
   overflow="visible"
   id="symbol62904">
        <path
   style="stroke:none;stroke-width:0"
   d=""
   id="path62902" />
      </symbol>
      <symbol
   overflow="visible"
   id="symbol62908">
        <path
   style="stroke:none;stroke-width:0"
   d="m 4.84375,-3.796875 c 0.046875,-0.140625 0.046875,-0.15625 0.046875,-0.234375 0,-0.171875 -0.140625,-0.265625 -0.296875,-0.265625 -0.09375,0 -0.25,0.0625 -0.34375,0.203125 -0.015625,0.0625 -0.109375,0.359375 -0.140625,0.546875 -0.078125,0.25 -0.140625,0.53125 -0.203125,0.796875 l -0.453125,1.796875 c -0.03125,0.140625 -0.46875,0.84375 -1.125,0.84375 -0.5,0 -0.609375,-0.4375 -0.609375,-0.8125 C 1.71875,-1.375 1.890625,-2 2.21875,-2.875 2.375,-3.28125 2.421875,-3.390625 2.421875,-3.59375 c 0,-0.4375 -0.3125,-0.8125 -0.8125,-0.8125 -0.953125,0 -1.3125,1.453125 -1.3125,1.53125 0,0.109375 0.09375,0.109375 0.109375,0.109375 0.109375,0 0.109375,-0.03125 0.15625,-0.1875 0.28125,-0.9375 0.671875,-1.234375 1.015625,-1.234375 0.078125,0 0.25,0 0.25,0.3125 0,0.25 -0.109375,0.515625 -0.171875,0.703125 -0.40625,1.0625 -0.578125,1.625 -0.578125,2.09375 0,0.890625 0.625,1.1875 1.21875,1.1875 0.390625,0 0.71875,-0.171875 1,-0.453125 -0.125,0.515625 -0.25,1.015625 -0.640625,1.546875 -0.265625,0.328125 -0.640625,0.625 -1.09375,0.625 -0.140625,0 -0.59375,-0.03125 -0.765625,-0.421875 0.15625,0 0.296875,0 0.421875,-0.125 C 1.328125,1.203125 1.421875,1.0625 1.421875,0.875 1.421875,0.5625 1.15625,0.53125 1.0625,0.53125 0.828125,0.53125 0.5,0.6875 0.5,1.171875 c 0,0.5 0.4375,0.875 1.0625,0.875 1.015625,0 2.046875,-0.90625 2.328125,-2.03125 z m 0,0"
   id="path62906" />
      </symbol>
      <symbol
   overflow="visible"
   id="symbol62912">
        <path
   style="stroke:none;stroke-width:0"
   d=""
   id="path62910" />
      </symbol>
      <symbol
   overflow="visible"
   id="symbol62916">
        <path
   style="stroke:none;stroke-width:0"
   d="m 2.875,-4.1875 c 0.0625,-0.25 0.078125,-0.328125 0.71875,-0.328125 0.21875,0 0.28125,0 0.28125,-0.140625 0,-0.015625 0,-0.109375 -0.109375,-0.109375 -0.15625,0 -0.34375,0.015625 -0.515625,0.03125 -0.171875,0 -0.390625,0 -0.5625,0 -0.140625,0 -0.328125,0 -0.484375,0 -0.140625,0 -0.3125,-0.03125 -0.453125,-0.03125 -0.03125,0 -0.140625,0 -0.140625,0.15625 0,0.09375 0.078125,0.09375 0.21875,0.09375 0.015625,0 0.140625,0 0.265625,0.015625 0.15625,0.015625 0.171875,0.03125 0.171875,0.109375 0,0 0,0.046875 -0.03125,0.140625 l -0.9375,3.703125 C 1.234375,-0.3125 1.21875,-0.25 0.6875,-0.25 c -0.109375,0 -0.203125,0 -0.203125,0.140625 C 0.484375,0 0.5625,0 0.6875,0 h 3.5 c 0.1875,0 0.1875,0 0.25,-0.140625 0.0625,-0.1875 0.59375,-1.53125 0.59375,-1.59375 0,-0.015625 -0.015625,-0.09375 -0.125,-0.09375 -0.078125,0 -0.09375,0.03125 -0.140625,0.140625 C 4.5,-1.03125 4.1875,-0.25 2.921875,-0.25 H 2.125 c -0.203125,0 -0.21875,-0.015625 -0.21875,-0.078125 0,0 0,-0.03125 0.03125,-0.140625 z m 0,0"
   id="path62914" />
      </symbol>
    </g>
  </defs>
  <g
   id="g62934"
   transform="translate(-149.009,-130.359)">
    <g
   style="fill:#000000;fill-opacity:1"
   id="g62926">
      <g
   transform="translate(148.712,134.765)"
   id="g62924"><path
   style="stroke:none;stroke-width:0"
   d="m 4.84375,-3.796875 c 0.046875,-0.140625 0.046875,-0.15625 0.046875,-0.234375 0,-0.171875 -0.140625,-0.265625 -0.296875,-0.265625 -0.09375,0 -0.25,0.0625 -0.34375,0.203125 -0.015625,0.0625 -0.109375,0.359375 -0.140625,0.546875 -0.078125,0.25 -0.140625,0.53125 -0.203125,0.796875 l -0.453125,1.796875 c -0.03125,0.140625 -0.46875,0.84375 -1.125,0.84375 -0.5,0 -0.609375,-0.4375 -0.609375,-0.8125 C 1.71875,-1.375 1.890625,-2 2.21875,-2.875 2.375,-3.28125 2.421875,-3.390625 2.421875,-3.59375 c 0,-0.4375 -0.3125,-0.8125 -0.8125,-0.8125 -0.953125,0 -1.3125,1.453125 -1.3125,1.53125 0,0.109375 0.09375,0.109375 0.109375,0.109375 0.109375,0 0.109375,-0.03125 0.15625,-0.1875 0.28125,-0.9375 0.671875,-1.234375 1.015625,-1.234375 0.078125,0 0.25,0 0.25,0.3125 0,0.25 -0.109375,0.515625 -0.171875,0.703125 -0.40625,1.0625 -0.578125,1.625 -0.578125,2.09375 0,0.890625 0.625,1.1875 1.21875,1.1875 0.390625,0 0.71875,-0.171875 1,-0.453125 -0.125,0.515625 -0.25,1.015625 -0.640625,1.546875 -0.265625,0.328125 -0.640625,0.625 -1.09375,0.625 -0.140625,0 -0.59375,-0.03125 -0.765625,-0.421875 0.15625,0 0.296875,0 0.421875,-0.125 C 1.328125,1.203125 1.421875,1.0625 1.421875,0.875 1.421875,0.5625 1.15625,0.53125 1.0625,0.53125 0.828125,0.53125 0.5,0.6875 0.5,1.171875 c 0,0.5 0.4375,0.875 1.0625,0.875 1.015625,0 2.046875,-0.90625 2.328125,-2.03125 z m 0,0"
   id="path62922" />
      </g></g>
    <g
   style="fill:#000000;fill-opacity:1"
   id="g62932">
      <g
   transform="translate(153.597,136.259)"
   id="g62930"><path
   style="stroke:none;stroke-width:0"
   d="m 2.875,-4.1875 c 0.0625,-0.25 0.078125,-0.328125 0.71875,-0.328125 0.21875,0 0.28125,0 0.28125,-0.140625 0,-0.015625 0,-0.109375 -0.109375,-0.109375 -0.15625,0 -0.34375,0.015625 -0.515625,0.03125 -0.171875,0 -0.390625,0 -0.5625,0 -0.140625,0 -0.328125,0 -0.484375,0 -0.140625,0 -0.3125,-0.03125 -0.453125,-0.03125 -0.03125,0 -0.140625,0 -0.140625,0.15625 0,0.09375 0.078125,0.09375 0.21875,0.09375 0.015625,0 0.140625,0 0.265625,0.015625 0.15625,0.015625 0.171875,0.03125 0.171875,0.109375 0,0 0,0.046875 -0.03125,0.140625 l -0.9375,3.703125 C 1.234375,-0.3125 1.21875,-0.25 0.6875,-0.25 c -0.109375,0 -0.203125,0 -0.203125,0.140625 C 0.484375,0 0.5625,0 0.6875,0 h 3.5 c 0.1875,0 0.1875,0 0.25,-0.140625 0.0625,-0.1875 0.59375,-1.53125 0.59375,-1.59375 0,-0.015625 -0.015625,-0.09375 -0.125,-0.09375 -0.078125,0 -0.09375,0.03125 -0.140625,0.140625 C 4.5,-1.03125 4.1875,-0.25 2.921875,-0.25 H 2.125 c -0.203125,0 -0.21875,-0.015625 -0.21875,-0.078125 0,0 0,-0.03125 0.03125,-0.140625 z m 0,0"
   id="path62928" />
      </g></g>
  </g>
</g><g
     transform="matrix(1.33333,0,0,1.33333,174.85631,6.633325e-4)"
     ns4:version="1.2.0"
     ns4:texconverter="pdflatex"
     ns4:pdfconverter="inkscape"
     ns4:text="$y_A$  "
     ns4:preamble="/Users/hasanabbas/Library/Application Support/org.inkscape.Inkscape/config/inkscape/extensions/circuitSymbols/circuitSymbolsPreamble.tex"
     ns4:scale="1.0"
     ns4:alignment="middle center"
     ns4:inkscapeversion="1.0.2"
     ns4:jacobian_sqrt="1.33333"
     id="g62837"><defs
   id="id-31d6cdbb-631b-4577-863a-12f63694e21e">
    <g
   id="id-458a52aa-6296-4db5-8b5e-010d769dced0">
      <symbol
   overflow="visible"
   id="id-4cea9712-5b0f-4d82-9c6b-507ec02b947b">
        <path
   style="stroke:none"
   d=""
   id="id-e48d0761-7e34-443c-b887-62750cffb6c2" />
      </symbol>
      <symbol
   overflow="visible"
   id="id-a3818d20-a66d-4396-9c49-de34dc831ac0">
        <path
   style="stroke:none"
   d="m 4.84375,-3.796875 c 0.046875,-0.140625 0.046875,-0.15625 0.046875,-0.234375 0,-0.171875 -0.140625,-0.265625 -0.296875,-0.265625 -0.09375,0 -0.25,0.0625 -0.34375,0.203125 -0.015625,0.0625 -0.109375,0.359375 -0.140625,0.546875 -0.078125,0.25 -0.140625,0.53125 -0.203125,0.796875 l -0.453125,1.796875 c -0.03125,0.140625 -0.46875,0.84375 -1.125,0.84375 -0.5,0 -0.609375,-0.4375 -0.609375,-0.8125 C 1.71875,-1.375 1.890625,-2 2.21875,-2.875 2.375,-3.28125 2.421875,-3.390625 2.421875,-3.59375 c 0,-0.4375 -0.3125,-0.8125 -0.8125,-0.8125 -0.953125,0 -1.3125,1.453125 -1.3125,1.53125 0,0.109375 0.09375,0.109375 0.109375,0.109375 0.109375,0 0.109375,-0.03125 0.15625,-0.1875 0.28125,-0.9375 0.671875,-1.234375 1.015625,-1.234375 0.078125,0 0.25,0 0.25,0.3125 0,0.25 -0.109375,0.515625 -0.171875,0.703125 -0.40625,1.0625 -0.578125,1.625 -0.578125,2.09375 0,0.890625 0.625,1.1875 1.21875,1.1875 0.390625,0 0.71875,-0.171875 1,-0.453125 -0.125,0.515625 -0.25,1.015625 -0.640625,1.546875 -0.265625,0.328125 -0.640625,0.625 -1.09375,0.625 -0.140625,0 -0.59375,-0.03125 -0.765625,-0.421875 0.15625,0 0.296875,0 0.421875,-0.125 C 1.328125,1.203125 1.421875,1.0625 1.421875,0.875 1.421875,0.5625 1.15625,0.53125 1.0625,0.53125 0.828125,0.53125 0.5,0.6875 0.5,1.171875 c 0,0.5 0.4375,0.875 1.0625,0.875 1.015625,0 2.046875,-0.90625 2.328125,-2.03125 z m 0,0"
   id="id-579b777e-9020-42e2-8286-786244ebea73" />
      </symbol>
      <symbol
   overflow="visible"
   id="id-3301fc75-9d34-460c-8d46-949339a93409">
        <path
   style="stroke:none"
   d=""
   id="id-100d5bcf-f073-4bca-8dc6-6fe167282130" />
      </symbol>
      <symbol
   overflow="visible"
   id="id-9ef66100-c2d6-4e3a-a21d-209c758bf95c">
        <path
   style="stroke:none"
   d="m 1.4375,-0.84375 c -0.25,0.390625 -0.46875,0.5625 -0.875,0.59375 -0.078125,0 -0.171875,0 -0.171875,0.140625 C 0.390625,-0.03125 0.453125,0 0.5,0 0.671875,0 0.90625,-0.03125 1.09375,-0.03125 1.3125,-0.03125 1.609375,0 1.8125,0 1.84375,0 1.953125,0 1.953125,-0.15625 1.953125,-0.25 1.859375,-0.25 1.828125,-0.25 1.78125,-0.265625 1.53125,-0.265625 1.53125,-0.453125 c 0,-0.09375 0.0625,-0.203125 0.09375,-0.265625 l 0.5625,-0.875 h 2 L 4.34375,-0.4375 C 4.328125,-0.359375 4.28125,-0.25 3.875,-0.25 c -0.09375,0 -0.1875,0 -0.1875,0.15625 C 3.6875,-0.0625 3.703125,0 3.796875,0 4,0 4.5,-0.03125 4.703125,-0.03125 c 0.125,0 0.28125,0.015625 0.40625,0.015625 C 5.234375,-0.015625 5.375,0 5.5,0 5.59375,0 5.640625,-0.0625 5.640625,-0.140625 5.640625,-0.25 5.5625,-0.25 5.453125,-0.25 c -0.40625,0 -0.421875,-0.0625 -0.4375,-0.21875 l -0.625,-4.3125 C 4.375,-4.921875 4.359375,-4.96875 4.234375,-4.96875 4.09375,-4.96875 4.0625,-4.90625 4,-4.8125 Z m 0.921875,-1 L 3.8125,-4.125 4.140625,-1.84375 Z m 0,0"
   id="id-366f5fcb-2b67-49e7-9f67-b688b188e7d3" />
      </symbol>
    </g>
  </defs>
  <g
   id="id-eff0b832-e56a-4808-9082-7b7f833c8eb8"
   transform="translate(-149.009,-130.359)">
    <g
   style="fill:#000000;fill-opacity:1"
   id="id-5b2fd757-db6e-4f2c-a1ec-a08ae7578698">
      <g
   transform="translate(148.712,134.765)"
   id="g63318"><path
   style="stroke:none"
   d="m 4.84375,-3.796875 c 0.046875,-0.140625 0.046875,-0.15625 0.046875,-0.234375 0,-0.171875 -0.140625,-0.265625 -0.296875,-0.265625 -0.09375,0 -0.25,0.0625 -0.34375,0.203125 -0.015625,0.0625 -0.109375,0.359375 -0.140625,0.546875 -0.078125,0.25 -0.140625,0.53125 -0.203125,0.796875 l -0.453125,1.796875 c -0.03125,0.140625 -0.46875,0.84375 -1.125,0.84375 -0.5,0 -0.609375,-0.4375 -0.609375,-0.8125 C 1.71875,-1.375 1.890625,-2 2.21875,-2.875 2.375,-3.28125 2.421875,-3.390625 2.421875,-3.59375 c 0,-0.4375 -0.3125,-0.8125 -0.8125,-0.8125 -0.953125,0 -1.3125,1.453125 -1.3125,1.53125 0,0.109375 0.09375,0.109375 0.109375,0.109375 0.109375,0 0.109375,-0.03125 0.15625,-0.1875 0.28125,-0.9375 0.671875,-1.234375 1.015625,-1.234375 0.078125,0 0.25,0 0.25,0.3125 0,0.25 -0.109375,0.515625 -0.171875,0.703125 -0.40625,1.0625 -0.578125,1.625 -0.578125,2.09375 0,0.890625 0.625,1.1875 1.21875,1.1875 0.390625,0 0.71875,-0.171875 1,-0.453125 -0.125,0.515625 -0.25,1.015625 -0.640625,1.546875 -0.265625,0.328125 -0.640625,0.625 -1.09375,0.625 -0.140625,0 -0.59375,-0.03125 -0.765625,-0.421875 0.15625,0 0.296875,0 0.421875,-0.125 C 1.328125,1.203125 1.421875,1.0625 1.421875,0.875 1.421875,0.5625 1.15625,0.53125 1.0625,0.53125 0.828125,0.53125 0.5,0.6875 0.5,1.171875 c 0,0.5 0.4375,0.875 1.0625,0.875 1.015625,0 2.046875,-0.90625 2.328125,-2.03125 z m 0,0"
   id="id-432d5b7a-5add-4aea-81a8-6bcf748bfe76" />
      </g></g>
    <g
   style="fill:#000000;fill-opacity:1"
   id="id-a424287e-a4e4-4147-883d-83841fac2e92">
      <g
   transform="translate(153.597,136.259)"
   id="g63322"><path
   style="stroke:none"
   d="m 1.4375,-0.84375 c -0.25,0.390625 -0.46875,0.5625 -0.875,0.59375 -0.078125,0 -0.171875,0 -0.171875,0.140625 C 0.390625,-0.03125 0.453125,0 0.5,0 0.671875,0 0.90625,-0.03125 1.09375,-0.03125 1.3125,-0.03125 1.609375,0 1.8125,0 1.84375,0 1.953125,0 1.953125,-0.15625 1.953125,-0.25 1.859375,-0.25 1.828125,-0.25 1.78125,-0.265625 1.53125,-0.265625 1.53125,-0.453125 c 0,-0.09375 0.0625,-0.203125 0.09375,-0.265625 l 0.5625,-0.875 h 2 L 4.34375,-0.4375 C 4.328125,-0.359375 4.28125,-0.25 3.875,-0.25 c -0.09375,0 -0.1875,0 -0.1875,0.15625 C 3.6875,-0.0625 3.703125,0 3.796875,0 4,0 4.5,-0.03125 4.703125,-0.03125 c 0.125,0 0.28125,0.015625 0.40625,0.015625 C 5.234375,-0.015625 5.375,0 5.5,0 5.59375,0 5.640625,-0.0625 5.640625,-0.140625 5.640625,-0.25 5.5625,-0.25 5.453125,-0.25 c -0.40625,0 -0.421875,-0.0625 -0.4375,-0.21875 l -0.625,-4.3125 C 4.375,-4.921875 4.359375,-4.96875 4.234375,-4.96875 4.09375,-4.96875 4.0625,-4.90625 4,-4.8125 Z m 0.921875,-1 L 3.8125,-4.125 4.140625,-1.84375 Z m 0,0"
   id="id-80d5033f-91e1-4337-8c4b-962ec3769ac0" />
      </g></g>
  </g>
</g><g
     transform="matrix(1.33333,0,0,1.33333,185.76931,29.444823)"
     ns4:version="1.2.0"
     ns4:texconverter="pdflatex"
     ns4:pdfconverter="inkscape"
     ns4:text="$y_S$   "
     ns4:preamble="/Users/hasanabbas/Library/Application Support/org.inkscape.Inkscape/config/inkscape/extensions/circuitSymbols/circuitSymbolsPreamble.tex"
     ns4:scale="1.0"
     ns4:alignment="middle center"
     ns4:inkscapeversion="1.0.2"
     ns4:jacobian_sqrt="1.33333"
     id="g63398"><defs
   id="id-8e084cb7-75b6-4064-ae1e-c54bcd38ac6e">
    <g
   id="id-8685a902-61fd-4cfa-845a-5e3e25d9b240">
      <symbol
   overflow="visible"
   id="id-412d3e86-4b8a-4cc2-b5e4-74d654172079">
        <path
   style="stroke:none"
   d=""
   id="id-3cc75390-5187-4508-8fa0-63a4ac0dc954" />
      </symbol>
      <symbol
   overflow="visible"
   id="id-27925082-2aec-4733-ad73-de19d4b2a49f">
        <path
   style="stroke:none"
   d="m 4.84375,-3.796875 c 0.046875,-0.140625 0.046875,-0.15625 0.046875,-0.234375 0,-0.171875 -0.140625,-0.265625 -0.296875,-0.265625 -0.09375,0 -0.25,0.0625 -0.34375,0.203125 -0.015625,0.0625 -0.109375,0.359375 -0.140625,0.546875 -0.078125,0.25 -0.140625,0.53125 -0.203125,0.796875 l -0.453125,1.796875 c -0.03125,0.140625 -0.46875,0.84375 -1.125,0.84375 -0.5,0 -0.609375,-0.4375 -0.609375,-0.8125 C 1.71875,-1.375 1.890625,-2 2.21875,-2.875 2.375,-3.28125 2.421875,-3.390625 2.421875,-3.59375 c 0,-0.4375 -0.3125,-0.8125 -0.8125,-0.8125 -0.953125,0 -1.3125,1.453125 -1.3125,1.53125 0,0.109375 0.09375,0.109375 0.109375,0.109375 0.109375,0 0.109375,-0.03125 0.15625,-0.1875 0.28125,-0.9375 0.671875,-1.234375 1.015625,-1.234375 0.078125,0 0.25,0 0.25,0.3125 0,0.25 -0.109375,0.515625 -0.171875,0.703125 -0.40625,1.0625 -0.578125,1.625 -0.578125,2.09375 0,0.890625 0.625,1.1875 1.21875,1.1875 0.390625,0 0.71875,-0.171875 1,-0.453125 -0.125,0.515625 -0.25,1.015625 -0.640625,1.546875 -0.265625,0.328125 -0.640625,0.625 -1.09375,0.625 -0.140625,0 -0.59375,-0.03125 -0.765625,-0.421875 0.15625,0 0.296875,0 0.421875,-0.125 C 1.328125,1.203125 1.421875,1.0625 1.421875,0.875 1.421875,0.5625 1.15625,0.53125 1.0625,0.53125 0.828125,0.53125 0.5,0.6875 0.5,1.171875 c 0,0.5 0.4375,0.875 1.0625,0.875 1.015625,0 2.046875,-0.90625 2.328125,-2.03125 z m 0,0"
   id="id-0661ead2-5523-4c0e-9c01-551dbbecc215" />
      </symbol>
      <symbol
   overflow="visible"
   id="id-98ef4f64-ab39-4833-9d28-4d047b96a6b7">
        <path
   style="stroke:none"
   d=""
   id="id-1d074bb9-247c-4487-b0fa-575c83b8f0df" />
      </symbol>
      <symbol
   overflow="visible"
   id="id-92d91a28-ebae-40f2-b49f-84b9d486bfb8">
        <path
   style="stroke:none"
   d="m 4.953125,-4.8125 c 0,-0.03125 -0.03125,-0.09375 -0.09375,-0.09375 -0.046875,0 -0.046875,0.015625 -0.140625,0.109375 L 4.375,-4.40625 c -0.265625,-0.375 -0.703125,-0.5 -1.125,-0.5 -0.984375,0 -1.859375,0.796875 -1.859375,1.609375 0,0.09375 0.03125,0.375 0.234375,0.640625 0.234375,0.265625 0.5,0.328125 0.96875,0.453125 0.140625,0.03125 0.484375,0.109375 0.59375,0.140625 0.21875,0.046875 0.640625,0.203125 0.640625,0.71875 0,0.5625 -0.59375,1.234375 -1.375,1.234375 -0.625,0 -1.359375,-0.21875 -1.359375,-0.984375 0,-0.078125 0.015625,-0.234375 0.046875,-0.359375 0,-0.03125 0,-0.03125 0,-0.03125 0,-0.09375 -0.078125,-0.09375 -0.109375,-0.09375 -0.09375,0 -0.109375,0.015625 -0.125,0.140625 l -0.359375,1.390625 c -0.015625,0.03125 -0.03125,0.0625 -0.03125,0.109375 0,0.03125 0.03125,0.078125 0.109375,0.078125 0.03125,0 0.046875,-0.015625 0.140625,-0.09375 0.078125,-0.09375 0.25,-0.3125 0.328125,-0.390625 C 1.46875,0.0625 2,0.140625 2.421875,0.140625 c 1.0625,0 1.90625,-0.90625 1.90625,-1.734375 0,-0.296875 -0.125,-0.578125 -0.28125,-0.734375 -0.234375,-0.25 -0.34375,-0.28125 -1.25,-0.5 C 2.65625,-2.859375 2.421875,-2.90625 2.359375,-2.9375 2.1875,-3 1.890625,-3.171875 1.890625,-3.5625 c 0,-0.5625 0.625,-1.109375 1.34375,-1.109375 0.765625,0 1.125,0.421875 1.125,1.078125 0,0.09375 -0.03125,0.25 -0.03125,0.3125 0,0.109375 0.078125,0.109375 0.125,0.109375 0.09375,0 0.109375,-0.046875 0.125,-0.15625 z m 0,0"
   id="id-99a81019-73db-47a0-83de-a10a4df4222a" />
      </symbol>
    </g>
  </defs>
  <g
   id="id-15786cc8-3302-44b7-af18-925bfbac99e1"
   transform="translate(-149.009,-130.359)">
    <g
   style="fill:#000000;fill-opacity:1"
   id="id-7ecf9729-2455-4df4-9dfb-293c448d5c7b">
      <g
   transform="translate(148.712,134.765)"
   id="g63688"><path
   style="stroke:none"
   d="m 4.84375,-3.796875 c 0.046875,-0.140625 0.046875,-0.15625 0.046875,-0.234375 0,-0.171875 -0.140625,-0.265625 -0.296875,-0.265625 -0.09375,0 -0.25,0.0625 -0.34375,0.203125 -0.015625,0.0625 -0.109375,0.359375 -0.140625,0.546875 -0.078125,0.25 -0.140625,0.53125 -0.203125,0.796875 l -0.453125,1.796875 c -0.03125,0.140625 -0.46875,0.84375 -1.125,0.84375 -0.5,0 -0.609375,-0.4375 -0.609375,-0.8125 C 1.71875,-1.375 1.890625,-2 2.21875,-2.875 2.375,-3.28125 2.421875,-3.390625 2.421875,-3.59375 c 0,-0.4375 -0.3125,-0.8125 -0.8125,-0.8125 -0.953125,0 -1.3125,1.453125 -1.3125,1.53125 0,0.109375 0.09375,0.109375 0.109375,0.109375 0.109375,0 0.109375,-0.03125 0.15625,-0.1875 0.28125,-0.9375 0.671875,-1.234375 1.015625,-1.234375 0.078125,0 0.25,0 0.25,0.3125 0,0.25 -0.109375,0.515625 -0.171875,0.703125 -0.40625,1.0625 -0.578125,1.625 -0.578125,2.09375 0,0.890625 0.625,1.1875 1.21875,1.1875 0.390625,0 0.71875,-0.171875 1,-0.453125 -0.125,0.515625 -0.25,1.015625 -0.640625,1.546875 -0.265625,0.328125 -0.640625,0.625 -1.09375,0.625 -0.140625,0 -0.59375,-0.03125 -0.765625,-0.421875 0.15625,0 0.296875,0 0.421875,-0.125 C 1.328125,1.203125 1.421875,1.0625 1.421875,0.875 1.421875,0.5625 1.15625,0.53125 1.0625,0.53125 0.828125,0.53125 0.5,0.6875 0.5,1.171875 c 0,0.5 0.4375,0.875 1.0625,0.875 1.015625,0 2.046875,-0.90625 2.328125,-2.03125 z m 0,0"
   id="id-dec203e1-2baf-46d0-b9d0-15997d959440" />
      </g></g>
    <g
   style="fill:#000000;fill-opacity:1"
   id="id-7315273b-e6ca-4dda-9c3a-c5c2108eb04b">
      <g
   transform="translate(153.597,136.259)"
   id="g63692"><path
   style="stroke:none"
   d="m 4.953125,-4.8125 c 0,-0.03125 -0.03125,-0.09375 -0.09375,-0.09375 -0.046875,0 -0.046875,0.015625 -0.140625,0.109375 L 4.375,-4.40625 c -0.265625,-0.375 -0.703125,-0.5 -1.125,-0.5 -0.984375,0 -1.859375,0.796875 -1.859375,1.609375 0,0.09375 0.03125,0.375 0.234375,0.640625 0.234375,0.265625 0.5,0.328125 0.96875,0.453125 0.140625,0.03125 0.484375,0.109375 0.59375,0.140625 0.21875,0.046875 0.640625,0.203125 0.640625,0.71875 0,0.5625 -0.59375,1.234375 -1.375,1.234375 -0.625,0 -1.359375,-0.21875 -1.359375,-0.984375 0,-0.078125 0.015625,-0.234375 0.046875,-0.359375 0,-0.03125 0,-0.03125 0,-0.03125 0,-0.09375 -0.078125,-0.09375 -0.109375,-0.09375 -0.09375,0 -0.109375,0.015625 -0.125,0.140625 l -0.359375,1.390625 c -0.015625,0.03125 -0.03125,0.0625 -0.03125,0.109375 0,0.03125 0.03125,0.078125 0.109375,0.078125 0.03125,0 0.046875,-0.015625 0.140625,-0.09375 0.078125,-0.09375 0.25,-0.3125 0.328125,-0.390625 C 1.46875,0.0625 2,0.140625 2.421875,0.140625 c 1.0625,0 1.90625,-0.90625 1.90625,-1.734375 0,-0.296875 -0.125,-0.578125 -0.28125,-0.734375 -0.234375,-0.25 -0.34375,-0.28125 -1.25,-0.5 C 2.65625,-2.859375 2.421875,-2.90625 2.359375,-2.9375 2.1875,-3 1.890625,-3.171875 1.890625,-3.5625 c 0,-0.5625 0.625,-1.109375 1.34375,-1.109375 0.765625,0 1.125,0.421875 1.125,1.078125 0,0.09375 -0.03125,0.25 -0.03125,0.3125 0,0.109375 0.078125,0.109375 0.125,0.109375 0.09375,0 0.109375,-0.046875 0.125,-0.15625 z m 0,0"
   id="id-1483d881-fd81-4611-b068-f82108e25631" />
      </g></g>
  </g>
</g><path
     style="fill:none;stroke:#8a8a8a;stroke-width:1px;stroke-linecap:butt;stroke-linejoin:miter;stroke-opacity:1;marker-end:url(#marker63786)"
     d="m 130.36115,11.312087 h 24.34277"
     id="path63746"
     sodipodi:nodetypes="cc" /><g
     transform="matrix(1.33333,0,0,1.33333,129.30531,3.333325e-4)"
     ns4:version="1.2.0"
     ns4:texconverter="pdflatex"
     ns4:pdfconverter="inkscape"
     ns4:text="$y_{in}$   "
     ns4:preamble="/Users/hasanabbas/Library/Application Support/org.inkscape.Inkscape/config/inkscape/extensions/circuitSymbols/circuitSymbolsPreamble.tex"
     ns4:scale="1.0"
     ns4:alignment="middle center"
     ns4:inkscapeversion="1.0.2"
     ns4:jacobian_sqrt="1.33333"
     id="g63782"><defs
   id="id-66f07879-d967-45dc-883c-ddfc5948c62e">
    <g
   id="id-32f83b7c-1e8d-4dc3-8e15-06533fb0a468">
      <symbol
   overflow="visible"
   id="id-44019a53-fa37-4213-9a61-5fc62a4d0fa6">
        <path
   style="stroke:none"
   d=""
   id="id-998a9d77-58ef-4d5a-9740-78cdd9d4a0b6" />
      </symbol>
      <symbol
   overflow="visible"
   id="id-7cc8f5ab-7ac3-4226-9713-8864944ec9ab">
        <path
   style="stroke:none"
   d="m 4.84375,-3.796875 c 0.046875,-0.140625 0.046875,-0.15625 0.046875,-0.234375 0,-0.171875 -0.140625,-0.265625 -0.296875,-0.265625 -0.09375,0 -0.25,0.0625 -0.34375,0.203125 -0.015625,0.0625 -0.109375,0.359375 -0.140625,0.546875 -0.078125,0.25 -0.140625,0.53125 -0.203125,0.796875 l -0.453125,1.796875 c -0.03125,0.140625 -0.46875,0.84375 -1.125,0.84375 -0.5,0 -0.609375,-0.4375 -0.609375,-0.8125 C 1.71875,-1.375 1.890625,-2 2.21875,-2.875 2.375,-3.28125 2.421875,-3.390625 2.421875,-3.59375 c 0,-0.4375 -0.3125,-0.8125 -0.8125,-0.8125 -0.953125,0 -1.3125,1.453125 -1.3125,1.53125 0,0.109375 0.09375,0.109375 0.109375,0.109375 0.109375,0 0.109375,-0.03125 0.15625,-0.1875 0.28125,-0.9375 0.671875,-1.234375 1.015625,-1.234375 0.078125,0 0.25,0 0.25,0.3125 0,0.25 -0.109375,0.515625 -0.171875,0.703125 -0.40625,1.0625 -0.578125,1.625 -0.578125,2.09375 0,0.890625 0.625,1.1875 1.21875,1.1875 0.390625,0 0.71875,-0.171875 1,-0.453125 -0.125,0.515625 -0.25,1.015625 -0.640625,1.546875 -0.265625,0.328125 -0.640625,0.625 -1.09375,0.625 -0.140625,0 -0.59375,-0.03125 -0.765625,-0.421875 0.15625,0 0.296875,0 0.421875,-0.125 C 1.328125,1.203125 1.421875,1.0625 1.421875,0.875 1.421875,0.5625 1.15625,0.53125 1.0625,0.53125 0.828125,0.53125 0.5,0.6875 0.5,1.171875 c 0,0.5 0.4375,0.875 1.0625,0.875 1.015625,0 2.046875,-0.90625 2.328125,-2.03125 z m 0,0"
   id="id-d3f8b94f-a035-4b9b-8450-af2cadae8766" />
      </symbol>
      <symbol
   overflow="visible"
   id="id-07484f88-0156-423f-a369-2be3bbd600ec">
        <path
   style="stroke:none"
   d=""
   id="id-51af8fec-f545-45bf-bd5b-c1ddb4162153" />
      </symbol>
      <symbol
   overflow="visible"
   id="id-25abc7cd-4868-4163-b4bf-9478bbdb716f">
        <path
   style="stroke:none"
   d="m 2.265625,-4.359375 c 0,-0.109375 -0.09375,-0.265625 -0.28125,-0.265625 -0.1875,0 -0.390625,0.1875 -0.390625,0.390625 0,0.109375 0.078125,0.265625 0.28125,0.265625 0.1875,0 0.390625,-0.203125 0.390625,-0.390625 z M 0.84375,-0.8125 c -0.03125,0.09375 -0.0625,0.171875 -0.0625,0.296875 0,0.328125 0.265625,0.578125 0.65625,0.578125 0.6875,0 1,-0.953125 1,-1.0625 0,-0.09375 -0.09375,-0.09375 -0.109375,-0.09375 -0.09375,0 -0.109375,0.046875 -0.140625,0.125 -0.15625,0.5625 -0.453125,0.84375 -0.734375,0.84375 -0.140625,0 -0.171875,-0.09375 -0.171875,-0.25 0,-0.15625 0.046875,-0.28125 0.109375,-0.4375 C 1.46875,-1 1.546875,-1.1875 1.609375,-1.375 1.671875,-1.546875 1.9375,-2.171875 1.953125,-2.265625 1.984375,-2.328125 2,-2.40625 2,-2.484375 2,-2.8125 1.71875,-3.078125 1.34375,-3.078125 0.640625,-3.078125 0.328125,-2.125 0.328125,-2 c 0,0.078125 0.09375,0.078125 0.125,0.078125 0.09375,0 0.09375,-0.03125 0.125,-0.109375 C 0.75,-2.625 1.0625,-2.875 1.3125,-2.875 c 0.109375,0 0.171875,0.046875 0.171875,0.234375 0,0.171875 -0.03125,0.265625 -0.203125,0.703125 z m 0,0"
   id="id-b2f03a9a-5a2e-4aa3-9372-c0c5f44ca33a" />
      </symbol>
      <symbol
   overflow="visible"
   id="id-3292b9fb-b307-44cb-abd4-9ecec73e1b69">
        <path
   style="stroke:none"
   d="m 0.84375,-0.4375 c -0.015625,0.09375 -0.0625,0.265625 -0.0625,0.28125 0,0.15625 0.125,0.21875 0.234375,0.21875 0.125,0 0.234375,-0.078125 0.28125,-0.140625 0.03125,-0.0625 0.078125,-0.296875 0.125,-0.4375 0.03125,-0.125 0.109375,-0.453125 0.140625,-0.625 0.046875,-0.15625 0.09375,-0.3125 0.125,-0.46875 0.078125,-0.28125 0.09375,-0.34375 0.296875,-0.625 C 2.171875,-2.515625 2.5,-2.875 3.03125,-2.875 c 0.390625,0 0.40625,0.359375 0.40625,0.484375 0,0.421875 -0.296875,1.1875 -0.40625,1.484375 -0.078125,0.203125 -0.109375,0.265625 -0.109375,0.375 0,0.375 0.296875,0.59375 0.65625,0.59375 0.703125,0 1,-0.953125 1,-1.0625 0,-0.09375 -0.078125,-0.09375 -0.109375,-0.09375 -0.09375,0 -0.09375,0.046875 -0.125,0.125 C 4.1875,-0.40625 3.875,-0.125 3.609375,-0.125 c -0.15625,0 -0.1875,-0.09375 -0.1875,-0.25 0,-0.15625 0.046875,-0.25 0.171875,-0.5625 0.078125,-0.21875 0.359375,-0.953125 0.359375,-1.34375 0,-0.671875 -0.53125,-0.796875 -0.90625,-0.796875 -0.578125,0 -0.96875,0.359375 -1.171875,0.640625 -0.046875,-0.484375 -0.453125,-0.640625 -0.75,-0.640625 -0.296875,0 -0.453125,0.21875 -0.546875,0.375 -0.15625,0.265625 -0.25,0.65625 -0.25,0.703125 0,0.078125 0.09375,0.078125 0.125,0.078125 0.09375,0 0.09375,-0.015625 0.140625,-0.203125 0.109375,-0.40625 0.25,-0.75 0.515625,-0.75 0.1875,0 0.234375,0.15625 0.234375,0.34375 0,0.125 -0.0625,0.390625 -0.125,0.578125 -0.046875,0.1875 -0.109375,0.46875 -0.140625,0.625 z m 0,0"
   id="id-49a86f71-0b17-458f-b53b-d15ad2e23907" />
      </symbol>
    </g>
  </defs>
  <g
   id="id-c8f5e05d-d977-4eae-bd72-8fac0b6d799a"
   transform="translate(-149.009,-130.359)">
    <g
   style="fill:#000000;fill-opacity:1"
   id="id-19f39983-c722-4469-93af-4bb3c6f50c0f">
      <g
   transform="translate(148.712,134.765)"
   id="g64242"><path
   style="stroke:none"
   d="m 4.84375,-3.796875 c 0.046875,-0.140625 0.046875,-0.15625 0.046875,-0.234375 0,-0.171875 -0.140625,-0.265625 -0.296875,-0.265625 -0.09375,0 -0.25,0.0625 -0.34375,0.203125 -0.015625,0.0625 -0.109375,0.359375 -0.140625,0.546875 -0.078125,0.25 -0.140625,0.53125 -0.203125,0.796875 l -0.453125,1.796875 c -0.03125,0.140625 -0.46875,0.84375 -1.125,0.84375 -0.5,0 -0.609375,-0.4375 -0.609375,-0.8125 C 1.71875,-1.375 1.890625,-2 2.21875,-2.875 2.375,-3.28125 2.421875,-3.390625 2.421875,-3.59375 c 0,-0.4375 -0.3125,-0.8125 -0.8125,-0.8125 -0.953125,0 -1.3125,1.453125 -1.3125,1.53125 0,0.109375 0.09375,0.109375 0.109375,0.109375 0.109375,0 0.109375,-0.03125 0.15625,-0.1875 0.28125,-0.9375 0.671875,-1.234375 1.015625,-1.234375 0.078125,0 0.25,0 0.25,0.3125 0,0.25 -0.109375,0.515625 -0.171875,0.703125 -0.40625,1.0625 -0.578125,1.625 -0.578125,2.09375 0,0.890625 0.625,1.1875 1.21875,1.1875 0.390625,0 0.71875,-0.171875 1,-0.453125 -0.125,0.515625 -0.25,1.015625 -0.640625,1.546875 -0.265625,0.328125 -0.640625,0.625 -1.09375,0.625 -0.140625,0 -0.59375,-0.03125 -0.765625,-0.421875 0.15625,0 0.296875,0 0.421875,-0.125 C 1.328125,1.203125 1.421875,1.0625 1.421875,0.875 1.421875,0.5625 1.15625,0.53125 1.0625,0.53125 0.828125,0.53125 0.5,0.6875 0.5,1.171875 c 0,0.5 0.4375,0.875 1.0625,0.875 1.015625,0 2.046875,-0.90625 2.328125,-2.03125 z m 0,0"
   id="id-dbe894a2-b3bb-436b-b466-0313c344903c" />
      </g></g>
    <g
   style="fill:#000000;fill-opacity:1"
   id="id-ab1f4a50-2df0-45c6-8ee3-f3939c7a2396">
      <g
   transform="translate(153.597,136.259)"
   id="g64246"><path
   style="stroke:none"
   d="m 2.265625,-4.359375 c 0,-0.109375 -0.09375,-0.265625 -0.28125,-0.265625 -0.1875,0 -0.390625,0.1875 -0.390625,0.390625 0,0.109375 0.078125,0.265625 0.28125,0.265625 0.1875,0 0.390625,-0.203125 0.390625,-0.390625 z M 0.84375,-0.8125 c -0.03125,0.09375 -0.0625,0.171875 -0.0625,0.296875 0,0.328125 0.265625,0.578125 0.65625,0.578125 0.6875,0 1,-0.953125 1,-1.0625 0,-0.09375 -0.09375,-0.09375 -0.109375,-0.09375 -0.09375,0 -0.109375,0.046875 -0.140625,0.125 -0.15625,0.5625 -0.453125,0.84375 -0.734375,0.84375 -0.140625,0 -0.171875,-0.09375 -0.171875,-0.25 0,-0.15625 0.046875,-0.28125 0.109375,-0.4375 C 1.46875,-1 1.546875,-1.1875 1.609375,-1.375 1.671875,-1.546875 1.9375,-2.171875 1.953125,-2.265625 1.984375,-2.328125 2,-2.40625 2,-2.484375 2,-2.8125 1.71875,-3.078125 1.34375,-3.078125 0.640625,-3.078125 0.328125,-2.125 0.328125,-2 c 0,0.078125 0.09375,0.078125 0.125,0.078125 0.09375,0 0.09375,-0.03125 0.125,-0.109375 C 0.75,-2.625 1.0625,-2.875 1.3125,-2.875 c 0.109375,0 0.171875,0.046875 0.171875,0.234375 0,0.171875 -0.03125,0.265625 -0.203125,0.703125 z m 0,0"
   id="id-b7e28f0f-58d2-4076-a657-134a94dd1c6a" />
      </g><g
   transform="translate(156.416,136.259)"
   id="g64249"><path
   style="stroke:none"
   d="m 0.84375,-0.4375 c -0.015625,0.09375 -0.0625,0.265625 -0.0625,0.28125 0,0.15625 0.125,0.21875 0.234375,0.21875 0.125,0 0.234375,-0.078125 0.28125,-0.140625 0.03125,-0.0625 0.078125,-0.296875 0.125,-0.4375 0.03125,-0.125 0.109375,-0.453125 0.140625,-0.625 0.046875,-0.15625 0.09375,-0.3125 0.125,-0.46875 0.078125,-0.28125 0.09375,-0.34375 0.296875,-0.625 C 2.171875,-2.515625 2.5,-2.875 3.03125,-2.875 c 0.390625,0 0.40625,0.359375 0.40625,0.484375 0,0.421875 -0.296875,1.1875 -0.40625,1.484375 -0.078125,0.203125 -0.109375,0.265625 -0.109375,0.375 0,0.375 0.296875,0.59375 0.65625,0.59375 0.703125,0 1,-0.953125 1,-1.0625 0,-0.09375 -0.078125,-0.09375 -0.109375,-0.09375 -0.09375,0 -0.09375,0.046875 -0.125,0.125 C 4.1875,-0.40625 3.875,-0.125 3.609375,-0.125 c -0.15625,0 -0.1875,-0.09375 -0.1875,-0.25 0,-0.15625 0.046875,-0.25 0.171875,-0.5625 0.078125,-0.21875 0.359375,-0.953125 0.359375,-1.34375 0,-0.671875 -0.53125,-0.796875 -0.90625,-0.796875 -0.578125,0 -0.96875,0.359375 -1.171875,0.640625 -0.046875,-0.484375 -0.453125,-0.640625 -0.75,-0.640625 -0.296875,0 -0.453125,0.21875 -0.546875,0.375 -0.15625,0.265625 -0.25,0.65625 -0.25,0.703125 0,0.078125 0.09375,0.078125 0.125,0.078125 0.09375,0 0.09375,-0.015625 0.140625,-0.203125 0.109375,-0.40625 0.25,-0.75 0.515625,-0.75 0.1875,0 0.234375,0.15625 0.234375,0.34375 0,0.125 -0.0625,0.390625 -0.125,0.578125 -0.046875,0.1875 -0.109375,0.46875 -0.140625,0.625 z m 0,0"
   id="id-cc2c1a1c-e99f-4d34-9252-8ac6a92d4a83" />
      </g></g>
  </g>
</g></svg>
