<?xml version="1.0" encoding="UTF-8" standalone="no"?>
<svg
   xmlns:ns4="http://www.iki.fi/pav/software/textext/"
   xmlns:dc="http://purl.org/dc/elements/1.1/"
   xmlns:cc="http://creativecommons.org/ns#"
   xmlns:rdf="http://www.w3.org/1999/02/22-rdf-syntax-ns#"
   xmlns:svg="http://www.w3.org/2000/svg"
   xmlns="http://www.w3.org/2000/svg"
   xmlns:sodipodi="http://sodipodi.sourceforge.net/DTD/sodipodi-0.dtd"
   xmlns:inkscape="http://www.inkscape.org/namespaces/inkscape"
   version="1.1"
   id="svg2246"
   xml:space="preserve"
   width="441.87341"
   height="143.53041"
   viewBox="0 0 441.87343 143.53041"
   sodipodi:docname="tline_terminated_example.svg"
   inkscape:version="1.0.2 (e86c8708, 2021-01-15)"><metadata
     id="metadata2252"><rdf:RDF><cc:Work
         rdf:about=""><dc:format>image/svg+xml</dc:format><dc:type
           rdf:resource="http://purl.org/dc/dcmitype/StillImage" /><dc:title /></cc:Work></rdf:RDF></metadata><defs
     id="defs2250"><marker
   style="overflow:visible"
   id="EmptyTriangleOutM"
   refX="0"
   refY="0"
   orient="auto"
   inkscape:stockid="EmptyTriangleOutM"
   inkscape:isstock="true"><path
     transform="matrix(0.4,0,0,0.4,-1.8,0)"
     style="fill:#ffffff;fill-rule:evenodd;stroke:#8a8a8a;stroke-width:1pt;stroke-opacity:1"
     d="M 5.77,0 -2.88,5 V -5 Z"
     id="path8122" /></marker><marker
   style="overflow:visible"
   id="EmptyTriangleInM"
   refX="0"
   refY="0"
   orient="auto"
   inkscape:stockid="EmptyTriangleInM"
   inkscape:isstock="true"><path
     transform="matrix(-0.4,0,0,-0.4,1.8,0)"
     style="fill:#ffffff;fill-rule:evenodd;stroke:#8a8a8a;stroke-width:1pt;stroke-opacity:1"
     d="M 5.77,0 -2.88,5 V -5 Z"
     id="path8113" /></marker><marker
   style="overflow:visible"
   id="marker20200"
   refX="0"
   refY="0"
   orient="auto"
   inkscape:stockid="EmptyTriangleOutL"
   inkscape:isstock="true"><path
     transform="matrix(0.8,0,0,0.8,-4.8,0)"
     style="fill:#ffffff;fill-rule:evenodd;stroke:#000000;stroke-width:1pt;stroke-opacity:1"
     d="M 5.77,0 -2.88,5 V -5 Z"
     id="path20198" /></marker><marker
   style="overflow:visible"
   id="marker20122"
   refX="0"
   refY="0"
   orient="auto"
   inkscape:stockid="EmptyTriangleOutL"
   inkscape:isstock="true"><path
     transform="matrix(0.8,0,0,0.8,-4.8,0)"
     style="fill:#ffffff;fill-rule:evenodd;stroke:#000000;stroke-width:1pt;stroke-opacity:1"
     d="M 5.77,0 -2.88,5 V -5 Z"
     id="path20120" /></marker><marker
   style="overflow:visible"
   id="marker4058"
   refX="0"
   refY="0"
   orient="auto"
   inkscape:stockid="EmptyTriangleOutL"
   inkscape:isstock="true"
   inkscape:collect="always"><path
     transform="matrix(0.8,0,0,0.8,-4.8,0)"
     style="fill:#ffffff;fill-rule:evenodd;stroke:#000000;stroke-width:1pt;stroke-opacity:1"
     d="M 5.77,0 -2.88,5 V -5 Z"
     id="path4056" /></marker><inkscape:path-effect
   effect="bspline"
   id="path-effect3073"
   is_visible="true"
   lpeversion="1"
   weight="33.333333"
   steps="2"
   helper_size="0"
   apply_no_weight="true"
   apply_with_weight="true"
   only_selected="false" /><inkscape:path-effect
   effect="bspline"
   id="path-effect3069"
   is_visible="true"
   lpeversion="1"
   weight="33.333333"
   steps="2"
   helper_size="0"
   apply_no_weight="true"
   apply_with_weight="true"
   only_selected="false" /><marker
   inkscape:stockid="arrowVoltageStart"
   orient="auto"
   refY="0"
   refX="0"
   id="arrowVoltageStart"
   style="overflow:visible"><path
     d="M 0,0 5,-5 -12.5,0 5,5 Z"
     style="fill:#217b21;fill-rule:evenodd;stroke:#217b21;stroke-width:1"
     transform="matrix(0.25,0,0,0.25,1.823125,0)"
     id="path8227" /></marker><marker
   inkscape:stockid="arrowVoltageEnd"
   orient="auto"
   refY="0"
   refX="0"
   id="arrowVoltageEnd"
   style="overflow:visible"><path
     d="M 0,0 5,-5 -12.5,0 5,5 Z"
     style="fill:#217b21;fill-rule:evenodd;stroke:#217b21;stroke-width:1"
     transform="matrix(-0.25,0,0,-0.25,-1.823125,0)"
     id="path8230" /></marker><g
   id="id-0f0ae96b-7fe6-41a9-8c30-1bfdc21e6ec1-7"><symbol
     overflow="visible"
     id="id-7faafa90-f4ac-4db9-9b29-68272b500cff-5"><path
       style="stroke:none;stroke-width:0"
       d=""
       id="id-da9e58fc-a590-46ff-a5e0-ff763d363d43-0" /></symbol><symbol
     overflow="visible"
     id="id-2e7e6430-cc80-446d-b51e-ee13865717c0-6"><path
       style="stroke:none;stroke-width:0"
       d="m 7.171875,-6.5625 c 0.015625,-0.046875 0.03125,-0.09375 0.03125,-0.15625 0,-0.09375 -0.046875,-0.09375 -0.25,-0.09375 H 2.75 c -0.234375,0 -0.25,0.015625 -0.3125,0.203125 L 1.890625,-4.8125 c -0.015625,0.046875 -0.03125,0.125 -0.03125,0.140625 0,0 0,0.109375 0.125,0.109375 0.09375,0 0.109375,-0.078125 0.125,-0.109375 C 2.5,-5.84375 3.015625,-6.5 4.5625,-6.5 h 1.625 L 0.625,-0.265625 c 0,0 -0.046875,0.140625 -0.046875,0.171875 C 0.578125,0 0.640625,0 0.828125,0 H 5.15625 c 0.25,0 0.25,-0.015625 0.3125,-0.203125 L 6.1875,-2.40625 c 0,-0.03125 0.03125,-0.109375 0.03125,-0.140625 0,-0.0625 -0.03125,-0.109375 -0.125,-0.109375 -0.09375,0 -0.109375,0.03125 -0.171875,0.25 C 5.484375,-1.0625 5,-0.34375 3.3125,-0.34375 H 1.609375 Z m 0,0"
       id="id-c515b81f-c407-4975-9fbf-6277801f79eb-4" /></symbol><symbol
     overflow="visible"
     id="id-1a8f543c-9917-4e62-8efb-d9779e6d9a31-7"><path
       style="stroke:none;stroke-width:0"
       d=""
       id="id-84bb8f8e-6651-4fad-a04b-14a9e1133c4c-8" /></symbol><symbol
     overflow="visible"
     id="id-20ad366e-d62d-43ff-97d6-4f343c04c547-4"><path
       style="stroke:none;stroke-width:0"
       d="m 2.875,-4.1875 c 0.0625,-0.25 0.078125,-0.328125 0.71875,-0.328125 0.21875,0 0.28125,0 0.28125,-0.140625 0,-0.015625 0,-0.109375 -0.109375,-0.109375 -0.15625,0 -0.34375,0.015625 -0.515625,0.03125 -0.171875,0 -0.390625,0 -0.5625,0 -0.140625,0 -0.328125,0 -0.484375,0 -0.140625,0 -0.3125,-0.03125 -0.453125,-0.03125 -0.03125,0 -0.140625,0 -0.140625,0.15625 0,0.09375 0.078125,0.09375 0.21875,0.09375 0.015625,0 0.140625,0 0.265625,0.015625 0.15625,0.015625 0.171875,0.03125 0.171875,0.109375 0,0 0,0.046875 -0.03125,0.140625 l -0.9375,3.703125 C 1.234375,-0.3125 1.21875,-0.25 0.6875,-0.25 c -0.109375,0 -0.203125,0 -0.203125,0.140625 C 0.484375,0 0.5625,0 0.6875,0 h 3.5 c 0.1875,0 0.1875,0 0.25,-0.140625 0.0625,-0.1875 0.59375,-1.53125 0.59375,-1.59375 0,-0.015625 -0.015625,-0.09375 -0.125,-0.09375 -0.078125,0 -0.09375,0.03125 -0.140625,0.140625 C 4.5,-1.03125 4.1875,-0.25 2.921875,-0.25 H 2.125 c -0.203125,0 -0.21875,-0.015625 -0.21875,-0.078125 0,0 0,-0.03125 0.03125,-0.140625 z m 0,0"
       id="id-4a699ce9-0c83-43bb-b5eb-504472ffba55-0" /></symbol></g>
    </defs><sodipodi:namedview
     pagecolor="#ffffff"
     bordercolor="#666666"
     borderopacity="1"
     objecttolerance="10"
     gridtolerance="10"
     guidetolerance="10"
     inkscape:pageopacity="0"
     inkscape:pageshadow="2"
     inkscape:window-width="640"
     inkscape:window-height="480"
     id="namedview2248"
     showgrid="false"
     inkscape:zoom="2.5122679"
     inkscape:cx="183.02004"
     inkscape:cy="101.89202"
     inkscape:current-layer="svg2246"
     inkscape:document-rotation="0"
     fit-margin-top="0"
     fit-margin-left="0"
     fit-margin-right="0"
     fit-margin-bottom="0" /><g
     id="g2254"
     inkscape:groupmode="layer"
     inkscape:label="tlines"
     transform="matrix(1.3333333,0,0,-1.3333333,-222.31777,143.27822)"><g
       id="g2308"
       transform="rotate(180,56.7925,15.928)" /><g
       id="g2340"
       transform="rotate(180,56.7925,15.928)" /><g
       id="g2374"
       transform="rotate(180,56.7925,15.928)" /><g
       id="g2396"
       transform="rotate(180,56.7925,15.928)" /><path
       style="fill:none;stroke:#6b6b6b;stroke-width:0.75;stroke-linecap:butt;stroke-linejoin:miter;stroke-miterlimit:4;stroke-dasharray:0.75, 1.5;stroke-dashoffset:0;stroke-opacity:1"
       d="M 220.50608,86.384866 V 7.7717821"
       id="path5011" /><path
       d="m 223.05728,88.54962 c 0,1.40898 -1.1422,2.55119 -2.55119,2.55119 -1.409,0 -2.5512,-1.14221 -2.5512,-2.55119 0,-1.409 1.1422,-2.55121 2.5512,-2.55121 1.40899,0 2.55119,1.14221 2.55119,2.55121 z"
       style="fill:#ffffff;fill-opacity:1;fill-rule:nonzero;stroke:#000000;stroke-width:0.99628;stroke-linecap:butt;stroke-linejoin:miter;stroke-miterlimit:10;stroke-dasharray:none;stroke-opacity:1"
       id="path2412" /><path
       d="m 223.05728,31.856 c 0,1.40898 -1.1422,2.5512 -2.55119,2.5512 -1.409,0 -2.5512,-1.14222 -2.5512,-2.5512 0,-1.40898 1.1422,-2.5512 2.5512,-2.5512 1.40899,0 2.55119,1.14222 2.55119,2.5512 z"
       style="fill:#ffffff;fill-opacity:1;fill-rule:nonzero;stroke:#000000;stroke-width:0.99628;stroke-linecap:butt;stroke-linejoin:miter;stroke-miterlimit:10;stroke-dasharray:none;stroke-opacity:1"
       id="path2416" /><path
       style="fill:none;stroke:#000000;stroke-width:0.75px;stroke-linecap:butt;stroke-linejoin:miter;stroke-opacity:1"
       d="m 223.05728,88.549624 c 39.95188,0 79.90301,0 119.85339,0"
       id="path3067"
       inkscape:path-effect="#path-effect3069"
       inkscape:original-d="m 223.05728,88.549624 c 39.95188,-7.5e-4 79.90301,-7.5e-4 119.85339,0"
       sodipodi:nodetypes="cc" /><path
       style="fill:none;stroke:#000000;stroke-width:0.75px;stroke-linecap:butt;stroke-linejoin:miter;stroke-opacity:1"
       d="m 223.05728,31.856008 c 39.95188,0 79.90301,0 119.85339,0"
       id="path3071"
       inkscape:path-effect="#path-effect3073"
       inkscape:original-d="m 223.05728,31.856008 c 39.95188,-7.5e-4 79.90301,-7.5e-4 119.85339,0"
       sodipodi:nodetypes="cc" /><g
       id="g2432"
       transform="rotate(180,56.7925,15.928)" /><path
       style="fill:none;stroke:#000000;stroke-width:0.75px;stroke-linecap:butt;stroke-linejoin:miter;stroke-opacity:1"
       d="m 342.91067,88.549624 h 36.14598 V 67.343063"
       id="path3075"
       sodipodi:nodetypes="ccc" /><rect
       style="fill:none;fill-opacity:0.622807;stroke:#000000;stroke-width:0.75;stroke-linejoin:miter;stroke-miterlimit:4;stroke-dasharray:none;stroke-opacity:1"
       id="rect3077"
       width="21.928894"
       height="14.488736"
       x="368.14758"
       y="-67.166817"
       transform="scale(1,-1)"
       ry="0" /><path
       style="fill:none;stroke:#000000;stroke-width:0.75px;stroke-linecap:butt;stroke-linejoin:miter;stroke-opacity:1"
       d="m 342.91067,31.856008 h 36.14598 v 20.508909"
       id="path3099"
       sodipodi:nodetypes="ccc" /><path
       style="fill:none;stroke:#6b6b6b;stroke-width:0.75;stroke-linecap:butt;stroke-linejoin:miter;stroke-miterlimit:4;stroke-dasharray:0.75, 1.5;stroke-dashoffset:0;stroke-opacity:1"
       d="M 340.35947,86.384866 V 7.7717821"
       id="path5009" /><path
       d="m 342.91067,31.856 c 0,1.40898 -1.1422,2.5512 -2.55119,2.5512 -1.409,0 -2.5512,-1.14222 -2.5512,-2.5512 0,-1.40898 1.1422,-2.5512 2.5512,-2.5512 1.40899,0 2.55119,1.14222 2.55119,2.5512 z"
       style="fill:#ffffff;fill-opacity:1;fill-rule:nonzero;stroke:#000000;stroke-width:0.99628;stroke-linecap:butt;stroke-linejoin:miter;stroke-miterlimit:10;stroke-dasharray:none;stroke-opacity:1"
       id="path2424" /><path
       d="m 342.91067,88.54962 c 0,1.40898 -1.1422,2.55119 -2.55119,2.55119 -1.409,0 -2.5512,-1.14221 -2.5512,-2.55119 0,-1.409 1.1422,-2.55121 2.5512,-2.55121 1.40899,0 2.55119,1.14221 2.55119,2.55121 z"
       style="fill:#ffffff;fill-opacity:1;fill-rule:nonzero;stroke:#000000;stroke-width:0.99628;stroke-linecap:butt;stroke-linejoin:miter;stroke-miterlimit:10;stroke-dasharray:none;stroke-opacity:1"
       id="path2420" /><g
       transform="matrix(1.33333,0,0,-1.33333,325.35017,9.0720662)"
       ns4:version="1.2.0"
       ns4:texconverter="pdflatex"
       ns4:pdfconverter="inkscape"
       ns4:text="$z = 0$ "
       ns4:preamble="/Users/hasanabbas/Library/Application Support/org.inkscape.Inkscape/config/inkscape/extensions/circuitSymbols/circuitSymbolsPreamble.tex"
       ns4:scale="1.0"
       ns4:alignment="middle center"
       ns4:jacobian_sqrt="1.33333"
       id="g5232"><defs
   id="id-2a25f2d8-303a-45d1-8290-22c01d99362f">
    <g
   id="id-a923f864-38f1-46a0-821c-12f452caa34a">
      <symbol
   overflow="visible"
   id="id-92971ae1-6661-4737-94e3-d176d5d826a7">
        <path
   style="stroke:none;stroke-width:0"
   d=""
   id="id-139e5c8e-0fee-4524-bf23-c587f8e641e4" />
      </symbol>
      <symbol
   overflow="visible"
   id="id-5e40c99f-6c0c-4289-9fb9-bc030ca39ebc">
        <path
   style="stroke:none;stroke-width:0"
   d="m 1.328125,-0.828125 c 0.53125,-0.578125 0.828125,-0.828125 1.1875,-1.140625 0,0 0.609375,-0.53125 0.96875,-0.890625 C 4.4375,-3.78125 4.65625,-4.265625 4.65625,-4.3125 c 0,-0.09375 -0.09375,-0.09375 -0.109375,-0.09375 -0.078125,0 -0.09375,0.015625 -0.15625,0.109375 -0.296875,0.484375 -0.5,0.640625 -0.734375,0.640625 -0.25,0 -0.359375,-0.15625 -0.515625,-0.328125 -0.1875,-0.21875 -0.359375,-0.421875 -0.6875,-0.421875 -0.75,0 -1.203125,0.921875 -1.203125,1.140625 0,0.046875 0.03125,0.109375 0.109375,0.109375 0.09375,0 0.109375,-0.046875 0.140625,-0.109375 0.1875,-0.46875 0.765625,-0.46875 0.84375,-0.46875 0.203125,0 0.390625,0.0625 0.625,0.140625 0.40625,0.15625 0.515625,0.15625 0.765625,0.15625 -0.359375,0.421875 -1.1875,1.140625 -1.375,1.296875 l -0.90625,0.84375 C 0.78125,-0.625 0.421875,-0.0625 0.421875,0.015625 c 0,0.09375 0.109375,0.09375 0.125,0.09375 0.078125,0 0.09375,-0.015625 0.15625,-0.125 0.234375,-0.359375 0.53125,-0.625 0.859375,-0.625 0.21875,0 0.328125,0.09375 0.578125,0.375 0.15625,0.21875 0.34375,0.375 0.625,0.375 1,0 1.578125,-1.265625 1.578125,-1.53125 0,-0.046875 -0.046875,-0.109375 -0.125,-0.109375 -0.09375,0 -0.109375,0.0625 -0.140625,0.140625 C 3.84375,-0.75 3.203125,-0.5625 2.875,-0.5625 c -0.1875,0 -0.375,-0.0625 -0.578125,-0.125 -0.34375,-0.125 -0.5,-0.171875 -0.703125,-0.171875 -0.015625,0 -0.171875,0 -0.265625,0.03125 z m 0,0"
   id="id-8cfdaa3a-fb6a-457b-beb3-d18d87b7d170" />
      </symbol>
      <symbol
   overflow="visible"
   id="id-8686fc58-ad20-44b6-9248-1db426c0d49b">
        <path
   style="stroke:none;stroke-width:0"
   d=""
   id="id-ed100252-cfb2-4231-9572-7d8631101e76" />
      </symbol>
      <symbol
   overflow="visible"
   id="id-926e157f-56a4-4ef2-8a70-99ad919eb748">
        <path
   style="stroke:none;stroke-width:0"
   d="m 6.84375,-3.265625 c 0.15625,0 0.34375,0 0.34375,-0.1875 C 7.1875,-3.65625 7,-3.65625 6.859375,-3.65625 h -5.96875 c -0.140625,0 -0.328125,0 -0.328125,0.203125 0,0.1875 0.1875,0.1875 0.328125,0.1875 z m 0.015625,1.9375 c 0.140625,0 0.328125,0 0.328125,-0.203125 0,-0.1875 -0.1875,-0.1875 -0.34375,-0.1875 H 0.890625 c -0.140625,0 -0.328125,0 -0.328125,0.1875 0,0.203125 0.1875,0.203125 0.328125,0.203125 z m 0,0"
   id="id-756433ff-6e75-4001-8f88-b6583642049c" />
      </symbol>
      <symbol
   overflow="visible"
   id="id-d412f61f-9a31-44c3-a021-b39394c13cd4">
        <path
   style="stroke:none;stroke-width:0"
   d="m 4.578125,-3.1875 c 0,-0.796875 -0.046875,-1.59375 -0.390625,-2.328125 -0.453125,-0.96875 -1.28125,-1.125 -1.6875,-1.125 -0.609375,0 -1.328125,0.265625 -1.75,1.1875 -0.3125,0.6875 -0.359375,1.46875 -0.359375,2.265625 0,0.75 0.03125,1.640625 0.453125,2.40625 0.421875,0.796875 1.15625,1 1.640625,1 0.53125,0 1.296875,-0.203125 1.734375,-1.15625 0.3125,-0.6875 0.359375,-1.46875 0.359375,-2.25 z M 2.484375,0 C 2.09375,0 1.5,-0.25 1.328125,-1.203125 1.21875,-1.796875 1.21875,-2.71875 1.21875,-3.3125 c 0,-0.640625 0,-1.296875 0.078125,-1.828125 0.1875,-1.1875 0.9375,-1.28125 1.1875,-1.28125 0.328125,0 0.984375,0.1875 1.171875,1.171875 0.109375,0.5625 0.109375,1.3125 0.109375,1.9375 0,0.75 0,1.421875 -0.109375,2.0625 C 3.5,-0.296875 2.9375,0 2.484375,0 Z m 0,0"
   id="id-146cbdb9-7e5a-4d7f-90b9-68a2580745d2" />
      </symbol>
    </g>
  </defs>
  <g
   id="id-baff9288-74aa-4e05-ae00-bf26b3cb2c0c"
   transform="translate(-149.134,-128.124)">
    <g
   style="fill:#000000;fill-opacity:1"
   id="id-6541b66e-bad1-43be-8d39-ed65c7597a69">
      <g
   transform="translate(148.712,134.765)"
   id="g5220"><path
   style="stroke:none;stroke-width:0"
   d="m 1.328125,-0.828125 c 0.53125,-0.578125 0.828125,-0.828125 1.1875,-1.140625 0,0 0.609375,-0.53125 0.96875,-0.890625 C 4.4375,-3.78125 4.65625,-4.265625 4.65625,-4.3125 c 0,-0.09375 -0.09375,-0.09375 -0.109375,-0.09375 -0.078125,0 -0.09375,0.015625 -0.15625,0.109375 -0.296875,0.484375 -0.5,0.640625 -0.734375,0.640625 -0.25,0 -0.359375,-0.15625 -0.515625,-0.328125 -0.1875,-0.21875 -0.359375,-0.421875 -0.6875,-0.421875 -0.75,0 -1.203125,0.921875 -1.203125,1.140625 0,0.046875 0.03125,0.109375 0.109375,0.109375 0.09375,0 0.109375,-0.046875 0.140625,-0.109375 0.1875,-0.46875 0.765625,-0.46875 0.84375,-0.46875 0.203125,0 0.390625,0.0625 0.625,0.140625 0.40625,0.15625 0.515625,0.15625 0.765625,0.15625 -0.359375,0.421875 -1.1875,1.140625 -1.375,1.296875 l -0.90625,0.84375 C 0.78125,-0.625 0.421875,-0.0625 0.421875,0.015625 c 0,0.09375 0.109375,0.09375 0.125,0.09375 0.078125,0 0.09375,-0.015625 0.15625,-0.125 0.234375,-0.359375 0.53125,-0.625 0.859375,-0.625 0.21875,0 0.328125,0.09375 0.578125,0.375 0.15625,0.21875 0.34375,0.375 0.625,0.375 1,0 1.578125,-1.265625 1.578125,-1.53125 0,-0.046875 -0.046875,-0.109375 -0.125,-0.109375 -0.09375,0 -0.109375,0.0625 -0.140625,0.140625 C 3.84375,-0.75 3.203125,-0.5625 2.875,-0.5625 c -0.1875,0 -0.375,-0.0625 -0.578125,-0.125 -0.34375,-0.125 -0.5,-0.171875 -0.703125,-0.171875 -0.015625,0 -0.171875,0 -0.265625,0.03125 z m 0,0"
   id="id-212b66c2-21e4-47e5-8116-9fe0013d2b11" />
      </g></g>
    <g
   style="fill:#000000;fill-opacity:1"
   id="id-5e8687e0-5be5-4e0d-8cd4-022c9006641c">
      <g
   transform="translate(156.551,134.765)"
   id="g5224"><path
   style="stroke:none;stroke-width:0"
   d="m 6.84375,-3.265625 c 0.15625,0 0.34375,0 0.34375,-0.1875 C 7.1875,-3.65625 7,-3.65625 6.859375,-3.65625 h -5.96875 c -0.140625,0 -0.328125,0 -0.328125,0.203125 0,0.1875 0.1875,0.1875 0.328125,0.1875 z m 0.015625,1.9375 c 0.140625,0 0.328125,0 0.328125,-0.203125 0,-0.1875 -0.1875,-0.1875 -0.34375,-0.1875 H 0.890625 c -0.140625,0 -0.328125,0 -0.328125,0.1875 0,0.203125 0.1875,0.203125 0.328125,0.203125 z m 0,0"
   id="id-8c491831-b406-474e-913d-bfb504f0ef97" />
      </g></g>
    <g
   style="fill:#000000;fill-opacity:1"
   id="id-ada54630-488c-4b4e-acf8-6d3660221b6e">
      <g
   transform="translate(167.07,134.765)"
   id="g5228"><path
   style="stroke:none;stroke-width:0"
   d="m 4.578125,-3.1875 c 0,-0.796875 -0.046875,-1.59375 -0.390625,-2.328125 -0.453125,-0.96875 -1.28125,-1.125 -1.6875,-1.125 -0.609375,0 -1.328125,0.265625 -1.75,1.1875 -0.3125,0.6875 -0.359375,1.46875 -0.359375,2.265625 0,0.75 0.03125,1.640625 0.453125,2.40625 0.421875,0.796875 1.15625,1 1.640625,1 0.53125,0 1.296875,-0.203125 1.734375,-1.15625 0.3125,-0.6875 0.359375,-1.46875 0.359375,-2.25 z M 2.484375,0 C 2.09375,0 1.5,-0.25 1.328125,-1.203125 1.21875,-1.796875 1.21875,-2.71875 1.21875,-3.3125 c 0,-0.640625 0,-1.296875 0.078125,-1.828125 0.1875,-1.1875 0.9375,-1.28125 1.1875,-1.28125 0.328125,0 0.984375,0.1875 1.171875,1.171875 0.109375,0.5625 0.109375,1.3125 0.109375,1.9375 0,0.75 0,1.421875 -0.109375,2.0625 C 3.5,-0.296875 2.9375,0 2.484375,0 Z m 0,0"
   id="id-360462b2-124a-4d16-afe8-4bb3a6366986" />
      </g></g>
  </g>
</g><g
       transform="matrix(1.33333,0,0,-1.33333,201.666,9.186)"
       ns4:version="1.2.0"
       ns4:texconverter="pdflatex"
       ns4:pdfconverter="inkscape"
       ns4:text="$z = -l$   "
       ns4:preamble="/Users/hasanabbas/Library/Application Support/org.inkscape.Inkscape/config/inkscape/extensions/circuitSymbols/circuitSymbolsPreamble.tex"
       ns4:scale="1.0"
       ns4:alignment="middle center"
       ns4:inkscapeversion="1.0.2"
       ns4:jacobian_sqrt="1.33333"
       id="g5323"><defs
   id="id-ea0871a9-6300-461a-aa52-7ea6a62ba21d">
    <g
   id="id-0593e58f-d6ff-43af-b795-4824d1a89ef3">
      <symbol
   overflow="visible"
   id="id-115d18b4-a025-450c-a9d2-cf6512baf0d2">
        <path
   style="stroke:none"
   d=""
   id="id-9e506365-fda6-4c17-a679-c3874c32c341" />
      </symbol>
      <symbol
   overflow="visible"
   id="id-a597f640-81ee-45e8-b1a9-5b728569c593">
        <path
   style="stroke:none"
   d="m 1.328125,-0.828125 c 0.53125,-0.578125 0.828125,-0.828125 1.1875,-1.140625 0,0 0.609375,-0.53125 0.96875,-0.890625 C 4.4375,-3.78125 4.65625,-4.265625 4.65625,-4.3125 c 0,-0.09375 -0.09375,-0.09375 -0.109375,-0.09375 -0.078125,0 -0.09375,0.015625 -0.15625,0.109375 -0.296875,0.484375 -0.5,0.640625 -0.734375,0.640625 -0.25,0 -0.359375,-0.15625 -0.515625,-0.328125 -0.1875,-0.21875 -0.359375,-0.421875 -0.6875,-0.421875 -0.75,0 -1.203125,0.921875 -1.203125,1.140625 0,0.046875 0.03125,0.109375 0.109375,0.109375 0.09375,0 0.109375,-0.046875 0.140625,-0.109375 0.1875,-0.46875 0.765625,-0.46875 0.84375,-0.46875 0.203125,0 0.390625,0.0625 0.625,0.140625 0.40625,0.15625 0.515625,0.15625 0.765625,0.15625 -0.359375,0.421875 -1.1875,1.140625 -1.375,1.296875 l -0.90625,0.84375 C 0.78125,-0.625 0.421875,-0.0625 0.421875,0.015625 c 0,0.09375 0.109375,0.09375 0.125,0.09375 0.078125,0 0.09375,-0.015625 0.15625,-0.125 0.234375,-0.359375 0.53125,-0.625 0.859375,-0.625 0.21875,0 0.328125,0.09375 0.578125,0.375 0.15625,0.21875 0.34375,0.375 0.625,0.375 1,0 1.578125,-1.265625 1.578125,-1.53125 0,-0.046875 -0.046875,-0.109375 -0.125,-0.109375 -0.09375,0 -0.109375,0.0625 -0.140625,0.140625 C 3.84375,-0.75 3.203125,-0.5625 2.875,-0.5625 c -0.1875,0 -0.375,-0.0625 -0.578125,-0.125 -0.34375,-0.125 -0.5,-0.171875 -0.703125,-0.171875 -0.015625,0 -0.171875,0 -0.265625,0.03125 z m 0,0"
   id="id-4f8fe6b7-32ee-4d0d-8fec-0d37be6d5f99" />
      </symbol>
      <symbol
   overflow="visible"
   id="id-df868f27-1d63-42a2-9f7d-ca759b2c7b70">
        <path
   style="stroke:none"
   d="m 2.578125,-6.8125 c 0,0 0,-0.109375 -0.140625,-0.109375 -0.21875,0 -0.953125,0.078125 -1.21875,0.109375 -0.078125,0 -0.1875,0.015625 -0.1875,0.203125 0,0.109375 0.109375,0.109375 0.25,0.109375 0.484375,0 0.5,0.09375 0.5,0.171875 L 1.75,-6.125 0.484375,-1.140625 C 0.453125,-1.03125 0.4375,-0.96875 0.4375,-0.8125 c 0,0.578125 0.4375,0.921875 0.90625,0.921875 0.328125,0 0.578125,-0.203125 0.75,-0.5625 0.171875,-0.375 0.296875,-0.953125 0.296875,-0.96875 0,-0.109375 -0.09375,-0.109375 -0.125,-0.109375 -0.09375,0 -0.109375,0.046875 -0.125,0.1875 C 1.96875,-0.703125 1.78125,-0.109375 1.375,-0.109375 c -0.296875,0 -0.296875,-0.3125 -0.296875,-0.453125 0,-0.25 0.015625,-0.296875 0.0625,-0.484375 z m 0,0"
   id="id-3c8b8af6-6035-4017-a19c-6c9202c9ed94" />
      </symbol>
      <symbol
   overflow="visible"
   id="id-fc37e273-8651-4856-b044-33184a4ef367">
        <path
   style="stroke:none"
   d=""
   id="id-82146f14-da4a-43d0-b97b-3d4a320b55b2" />
      </symbol>
      <symbol
   overflow="visible"
   id="id-1239e28b-3b66-48e9-ab8a-d711fef5c058">
        <path
   style="stroke:none"
   d="m 6.84375,-3.265625 c 0.15625,0 0.34375,0 0.34375,-0.1875 C 7.1875,-3.65625 7,-3.65625 6.859375,-3.65625 h -5.96875 c -0.140625,0 -0.328125,0 -0.328125,0.203125 0,0.1875 0.1875,0.1875 0.328125,0.1875 z m 0.015625,1.9375 c 0.140625,0 0.328125,0 0.328125,-0.203125 0,-0.1875 -0.1875,-0.1875 -0.34375,-0.1875 H 0.890625 c -0.140625,0 -0.328125,0 -0.328125,0.1875 0,0.203125 0.1875,0.203125 0.328125,0.203125 z m 0,0"
   id="id-86562f49-16b4-4b56-8937-f809e8250425" />
      </symbol>
      <symbol
   overflow="visible"
   id="id-9fc36fc4-8fe7-4891-b065-248cf5ac2119">
        <path
   style="stroke:none"
   d=""
   id="id-376ed4e1-704e-4c84-8cd8-a39fe795c3f1" />
      </symbol>
      <symbol
   overflow="visible"
   id="id-a578e673-ce8b-4d66-82fc-db02bac8c6b0">
        <path
   style="stroke:none"
   d="m 6.5625,-2.296875 c 0.171875,0 0.359375,0 0.359375,-0.203125 0,-0.1875 -0.1875,-0.1875 -0.359375,-0.1875 H 1.171875 c -0.171875,0 -0.34375,0 -0.34375,0.1875 0,0.203125 0.171875,0.203125 0.34375,0.203125 z m 0,0"
   id="id-1b03f37a-5132-4a9c-9c2a-5e8f3b650a01" />
      </symbol>
    </g>
  </defs>
  <g
   id="id-eca798be-5475-4703-abc0-18c95d42e70e"
   transform="translate(-149.134,-127.843)">
    <g
   style="fill:#000000;fill-opacity:1"
   id="id-9000c6f8-deb0-4caf-a0f6-f5eebe6062d4">
      <g
   transform="translate(148.712,134.765)"
   id="g5874"><path
   style="stroke:none"
   d="m 1.328125,-0.828125 c 0.53125,-0.578125 0.828125,-0.828125 1.1875,-1.140625 0,0 0.609375,-0.53125 0.96875,-0.890625 C 4.4375,-3.78125 4.65625,-4.265625 4.65625,-4.3125 c 0,-0.09375 -0.09375,-0.09375 -0.109375,-0.09375 -0.078125,0 -0.09375,0.015625 -0.15625,0.109375 -0.296875,0.484375 -0.5,0.640625 -0.734375,0.640625 -0.25,0 -0.359375,-0.15625 -0.515625,-0.328125 -0.1875,-0.21875 -0.359375,-0.421875 -0.6875,-0.421875 -0.75,0 -1.203125,0.921875 -1.203125,1.140625 0,0.046875 0.03125,0.109375 0.109375,0.109375 0.09375,0 0.109375,-0.046875 0.140625,-0.109375 0.1875,-0.46875 0.765625,-0.46875 0.84375,-0.46875 0.203125,0 0.390625,0.0625 0.625,0.140625 0.40625,0.15625 0.515625,0.15625 0.765625,0.15625 -0.359375,0.421875 -1.1875,1.140625 -1.375,1.296875 l -0.90625,0.84375 C 0.78125,-0.625 0.421875,-0.0625 0.421875,0.015625 c 0,0.09375 0.109375,0.09375 0.125,0.09375 0.078125,0 0.09375,-0.015625 0.15625,-0.125 0.234375,-0.359375 0.53125,-0.625 0.859375,-0.625 0.21875,0 0.328125,0.09375 0.578125,0.375 0.15625,0.21875 0.34375,0.375 0.625,0.375 1,0 1.578125,-1.265625 1.578125,-1.53125 0,-0.046875 -0.046875,-0.109375 -0.125,-0.109375 -0.09375,0 -0.109375,0.0625 -0.140625,0.140625 C 3.84375,-0.75 3.203125,-0.5625 2.875,-0.5625 c -0.1875,0 -0.375,-0.0625 -0.578125,-0.125 -0.34375,-0.125 -0.5,-0.171875 -0.703125,-0.171875 -0.015625,0 -0.171875,0 -0.265625,0.03125 z m 0,0"
   id="id-5e9ab5f7-fcb8-474a-acf7-4cd2af365fb2" />
      </g></g>
    <g
   style="fill:#000000;fill-opacity:1"
   id="id-5c604908-b60d-42d4-a289-402f02d41ac7">
      <g
   transform="translate(156.551,134.765)"
   id="g5878"><path
   style="stroke:none"
   d="m 6.84375,-3.265625 c 0.15625,0 0.34375,0 0.34375,-0.1875 C 7.1875,-3.65625 7,-3.65625 6.859375,-3.65625 h -5.96875 c -0.140625,0 -0.328125,0 -0.328125,0.203125 0,0.1875 0.1875,0.1875 0.328125,0.1875 z m 0.015625,1.9375 c 0.140625,0 0.328125,0 0.328125,-0.203125 0,-0.1875 -0.1875,-0.1875 -0.34375,-0.1875 H 0.890625 c -0.140625,0 -0.328125,0 -0.328125,0.1875 0,0.203125 0.1875,0.203125 0.328125,0.203125 z m 0,0"
   id="id-8c2edd37-834d-4caf-aad9-f4f6f45b3c85" />
      </g></g>
    <g
   style="fill:#000000;fill-opacity:1"
   id="id-59f33483-73e5-4bb8-83f0-3ce228a21d47">
      <g
   transform="translate(167.067,134.765)"
   id="g5882"><path
   style="stroke:none"
   d="m 6.5625,-2.296875 c 0.171875,0 0.359375,0 0.359375,-0.203125 0,-0.1875 -0.1875,-0.1875 -0.359375,-0.1875 H 1.171875 c -0.171875,0 -0.34375,0 -0.34375,0.1875 0,0.203125 0.171875,0.203125 0.34375,0.203125 z m 0,0"
   id="id-9f068cdb-2c1f-4c6d-8cd8-72ecc9614883" />
      </g></g>
    <g
   style="fill:#000000;fill-opacity:1"
   id="id-b4f8436a-fdbd-4a4f-9439-cde557e90567">
      <g
   transform="translate(174.816,134.765)"
   id="g5886"><path
   style="stroke:none"
   d="m 2.578125,-6.8125 c 0,0 0,-0.109375 -0.140625,-0.109375 -0.21875,0 -0.953125,0.078125 -1.21875,0.109375 -0.078125,0 -0.1875,0.015625 -0.1875,0.203125 0,0.109375 0.109375,0.109375 0.25,0.109375 0.484375,0 0.5,0.09375 0.5,0.171875 L 1.75,-6.125 0.484375,-1.140625 C 0.453125,-1.03125 0.4375,-0.96875 0.4375,-0.8125 c 0,0.578125 0.4375,0.921875 0.90625,0.921875 0.328125,0 0.578125,-0.203125 0.75,-0.5625 0.171875,-0.375 0.296875,-0.953125 0.296875,-0.96875 0,-0.109375 -0.09375,-0.109375 -0.125,-0.109375 -0.09375,0 -0.109375,0.046875 -0.125,0.1875 C 1.96875,-0.703125 1.78125,-0.109375 1.375,-0.109375 c -0.296875,0 -0.296875,-0.3125 -0.296875,-0.453125 0,-0.25 0.015625,-0.296875 0.0625,-0.484375 z m 0,0"
   id="id-277e7358-db0f-4c6c-97ac-d1be0c0fa02e" />
      </g></g>
  </g>
</g><g
       transform="matrix(1.33333,0,0,-1.33333,395.081,66.5792)"
       ns4:version="1.2.0"
       ns4:texconverter="pdflatex"
       ns4:pdfconverter="inkscape"
       ns4:text="$Z_L = (40 + \j 70) \Omega$   "
       ns4:preamble="/Users/hasanabbas/Library/Application Support/org.inkscape.Inkscape/config/inkscape/extensions/circuitSymbols/circuitSymbolsPreamble.tex"
       ns4:scale="1.0"
       ns4:alignment="middle center"
       ns4:inkscapeversion="1.0.2"
       ns4:jacobian_sqrt="1.33333"
       id="g3165"><defs
   id="id-07306682-721c-4c9d-ad38-e4359e2de8b6">
    <g
   id="id-af20fa60-d118-4aa1-be05-0fb9b32264f5">
      <symbol
   overflow="visible"
   id="id-8d860ad8-9ba5-4ef3-bc35-0535f44ab81c">
        <path
   style="stroke:none"
   d=""
   id="id-d549383c-db96-4aba-8253-b7c818d7e694" />
      </symbol>
      <symbol
   overflow="visible"
   id="id-b438b238-514c-4ca0-8187-110bcdf3ae66">
        <path
   style="stroke:none"
   d="m 7.171875,-6.5625 c 0.015625,-0.046875 0.03125,-0.09375 0.03125,-0.15625 0,-0.09375 -0.046875,-0.09375 -0.25,-0.09375 H 2.75 c -0.234375,0 -0.25,0.015625 -0.3125,0.203125 L 1.890625,-4.8125 c -0.015625,0.046875 -0.03125,0.125 -0.03125,0.140625 0,0 0,0.109375 0.125,0.109375 0.09375,0 0.109375,-0.078125 0.125,-0.109375 C 2.5,-5.84375 3.015625,-6.5 4.5625,-6.5 h 1.625 L 0.625,-0.265625 c 0,0 -0.046875,0.140625 -0.046875,0.171875 C 0.578125,0 0.640625,0 0.828125,0 H 5.15625 c 0.25,0 0.25,-0.015625 0.3125,-0.203125 L 6.1875,-2.40625 c 0,-0.03125 0.03125,-0.109375 0.03125,-0.140625 0,-0.0625 -0.03125,-0.109375 -0.125,-0.109375 -0.09375,0 -0.109375,0.03125 -0.171875,0.25 C 5.484375,-1.0625 5,-0.34375 3.3125,-0.34375 H 1.609375 Z m 0,0"
   id="id-6a0be656-e61c-47f1-a7b5-a5bc727619b9" />
      </symbol>
      <symbol
   overflow="visible"
   id="id-c1555eba-9f13-41fb-8f8a-b2ed01b643e3">
        <path
   style="stroke:none"
   d="m 3.953125,-6.234375 c 0,-0.1875 -0.140625,-0.359375 -0.375,-0.359375 -0.234375,0 -0.53125,0.234375 -0.53125,0.53125 0,0.203125 0.140625,0.359375 0.375,0.359375 0.265625,0 0.53125,-0.265625 0.53125,-0.53125 z m -2,6.734375 c -0.1875,0.75 -0.671875,1.328125 -1.21875,1.328125 -0.0625,0 -0.21875,0 -0.390625,-0.09375 0.296875,-0.0625 0.4375,-0.328125 0.4375,-0.53125 0,-0.15625 -0.109375,-0.34375 -0.375,-0.34375 -0.25,0 -0.53125,0.203125 -0.53125,0.5625 0,0.40625 0.390625,0.625 0.875,0.625 0.703125,0 1.625,-0.53125 1.875,-1.515625 L 3.53125,-3.125 c 0.0625,-0.1875 0.0625,-0.328125 0.0625,-0.359375 0,-0.578125 -0.421875,-0.921875 -0.921875,-0.921875 -1.015625,0 -1.578125,1.453125 -1.578125,1.53125 0,0.109375 0.09375,0.109375 0.109375,0.109375 0.09375,0 0.109375,-0.015625 0.1875,-0.203125 0.25,-0.609375 0.703125,-1.21875 1.25,-1.21875 0.140625,0 0.3125,0.046875 0.3125,0.453125 0,0.234375 -0.015625,0.34375 -0.0625,0.515625 z m 0,0"
   id="id-d72aa0cd-dfb2-4054-895a-861ca41983fa" />
      </symbol>
      <symbol
   overflow="visible"
   id="id-31ed7de3-a98d-4f0d-90e7-b6fbf5dcffd8">
        <path
   style="stroke:none"
   d=""
   id="id-7ca10da0-8a9e-4d6b-a035-b362cdc40c95" />
      </symbol>
      <symbol
   overflow="visible"
   id="id-c9069bf6-4e03-4cb0-b3cf-18a9af9c84be">
        <path
   style="stroke:none"
   d="m 2.875,-4.1875 c 0.0625,-0.25 0.078125,-0.328125 0.71875,-0.328125 0.21875,0 0.28125,0 0.28125,-0.140625 0,-0.015625 0,-0.109375 -0.109375,-0.109375 -0.15625,0 -0.34375,0.015625 -0.515625,0.03125 -0.171875,0 -0.390625,0 -0.5625,0 -0.140625,0 -0.328125,0 -0.484375,0 -0.140625,0 -0.3125,-0.03125 -0.453125,-0.03125 -0.03125,0 -0.140625,0 -0.140625,0.15625 0,0.09375 0.078125,0.09375 0.21875,0.09375 0.015625,0 0.140625,0 0.265625,0.015625 0.15625,0.015625 0.171875,0.03125 0.171875,0.109375 0,0 0,0.046875 -0.03125,0.140625 l -0.9375,3.703125 C 1.234375,-0.3125 1.21875,-0.25 0.6875,-0.25 c -0.109375,0 -0.203125,0 -0.203125,0.140625 C 0.484375,0 0.5625,0 0.6875,0 h 3.5 c 0.1875,0 0.1875,0 0.25,-0.140625 0.0625,-0.1875 0.59375,-1.53125 0.59375,-1.59375 0,-0.015625 -0.015625,-0.09375 -0.125,-0.09375 -0.078125,0 -0.09375,0.03125 -0.140625,0.140625 C 4.5,-1.03125 4.1875,-0.25 2.921875,-0.25 H 2.125 c -0.203125,0 -0.21875,-0.015625 -0.21875,-0.078125 0,0 0,-0.03125 0.03125,-0.140625 z m 0,0"
   id="id-04d527f7-e3cf-4477-b2e4-84ed7137b537" />
      </symbol>
      <symbol
   overflow="visible"
   id="id-2cb9a2bc-0735-4a99-a3ea-3e2e4213e1a9">
        <path
   style="stroke:none"
   d=""
   id="id-f2b7b4bc-b4b4-4d3d-87e0-a623df470a0d" />
      </symbol>
      <symbol
   overflow="visible"
   id="id-0d4df211-18ff-4e46-b63a-921c853b9c69">
        <path
   style="stroke:none"
   d="m 6.84375,-3.265625 c 0.15625,0 0.34375,0 0.34375,-0.1875 C 7.1875,-3.65625 7,-3.65625 6.859375,-3.65625 h -5.96875 c -0.140625,0 -0.328125,0 -0.328125,0.203125 0,0.1875 0.1875,0.1875 0.328125,0.1875 z m 0.015625,1.9375 c 0.140625,0 0.328125,0 0.328125,-0.203125 0,-0.1875 -0.1875,-0.1875 -0.34375,-0.1875 H 0.890625 c -0.140625,0 -0.328125,0 -0.328125,0.1875 0,0.203125 0.1875,0.203125 0.328125,0.203125 z m 0,0"
   id="id-3267149c-8a55-40a4-8656-8f593d9fed0e" />
      </symbol>
      <symbol
   overflow="visible"
   id="id-84d0f355-897c-4601-8a3d-f94b0394f146">
        <path
   style="stroke:none"
   d="m 3.296875,2.390625 c 0,-0.03125 0,-0.046875 -0.171875,-0.21875 C 1.890625,0.921875 1.5625,-0.96875 1.5625,-2.5 c 0,-1.734375 0.375,-3.46875 1.609375,-4.703125 0.125,-0.125 0.125,-0.140625 0.125,-0.171875 0,-0.078125 -0.03125,-0.109375 -0.09375,-0.109375 -0.109375,0 -1,0.6875 -1.59375,1.953125 -0.5,1.09375 -0.625,2.203125 -0.625,3.03125 0,0.78125 0.109375,1.984375 0.65625,3.125 C 2.25,1.84375 3.09375,2.5 3.203125,2.5 c 0.0625,0 0.09375,-0.03125 0.09375,-0.109375 z m 0,0"
   id="id-3c867be2-c376-4e29-a514-9870a9d3bb0a" />
      </symbol>
      <symbol
   overflow="visible"
   id="id-562f9991-2e21-4d38-8106-8ea35e2d19cd">
        <path
   style="stroke:none"
   d="m 2.9375,-1.640625 v 0.859375 c 0,0.359375 -0.03125,0.46875 -0.765625,0.46875 H 1.96875 V 0 C 2.375,-0.03125 2.890625,-0.03125 3.3125,-0.03125 c 0.421875,0 0.9375,0 1.359375,0.03125 v -0.3125 h -0.21875 c -0.734375,0 -0.75,-0.109375 -0.75,-0.46875 V -1.640625 H 4.6875 v -0.3125 H 3.703125 v -4.53125 c 0,-0.203125 0,-0.265625 -0.171875,-0.265625 -0.078125,0 -0.109375,0 -0.1875,0.125 l -3.0625,4.671875 v 0.3125 z m 0.046875,-0.3125 H 0.5625 l 2.421875,-3.71875 z m 0,0"
   id="id-7800a58f-f55a-4193-bc71-2afe29b6748f" />
      </symbol>
      <symbol
   overflow="visible"
   id="id-fd876269-5f90-486f-a44b-79440e5f1336">
        <path
   style="stroke:none"
   d="m 4.578125,-3.1875 c 0,-0.796875 -0.046875,-1.59375 -0.390625,-2.328125 -0.453125,-0.96875 -1.28125,-1.125 -1.6875,-1.125 -0.609375,0 -1.328125,0.265625 -1.75,1.1875 -0.3125,0.6875 -0.359375,1.46875 -0.359375,2.265625 0,0.75 0.03125,1.640625 0.453125,2.40625 0.421875,0.796875 1.15625,1 1.640625,1 0.53125,0 1.296875,-0.203125 1.734375,-1.15625 0.3125,-0.6875 0.359375,-1.46875 0.359375,-2.25 z M 2.484375,0 C 2.09375,0 1.5,-0.25 1.328125,-1.203125 1.21875,-1.796875 1.21875,-2.71875 1.21875,-3.3125 c 0,-0.640625 0,-1.296875 0.078125,-1.828125 0.1875,-1.1875 0.9375,-1.28125 1.1875,-1.28125 0.328125,0 0.984375,0.1875 1.171875,1.171875 0.109375,0.5625 0.109375,1.3125 0.109375,1.9375 0,0.75 0,1.421875 -0.109375,2.0625 C 3.5,-0.296875 2.9375,0 2.484375,0 Z m 0,0"
   id="id-ac79a8b9-5573-4257-9c86-fe27115b2b17" />
      </symbol>
      <symbol
   overflow="visible"
   id="id-d34b4d7a-c6e2-44e0-be01-9d3d933c562a">
        <path
   style="stroke:none"
   d="m 4.078125,-2.296875 h 2.78125 C 7,-2.296875 7.1875,-2.296875 7.1875,-2.5 7.1875,-2.6875 7,-2.6875 6.859375,-2.6875 h -2.78125 v -2.796875 c 0,-0.140625 0,-0.328125 -0.203125,-0.328125 -0.203125,0 -0.203125,0.1875 -0.203125,0.328125 V -2.6875 h -2.78125 c -0.140625,0 -0.328125,0 -0.328125,0.1875 0,0.203125 0.1875,0.203125 0.328125,0.203125 h 2.78125 V 0.5 c 0,0.140625 0,0.328125 0.203125,0.328125 0.203125,0 0.203125,-0.1875 0.203125,-0.328125 z m 0,0"
   id="id-759634de-6a31-45d3-b4d3-efeb525289c8" />
      </symbol>
      <symbol
   overflow="visible"
   id="id-9cd8607b-5192-419e-91d6-6eb3de7e45a5">
        <path
   style="stroke:none"
   d="m 4.75,-6.078125 c 0.078125,-0.109375 0.078125,-0.125 0.078125,-0.34375 H 2.40625 c -1.203125,0 -1.234375,-0.125 -1.265625,-0.3125 h -0.25 L 0.5625,-4.6875 h 0.25 c 0.03125,-0.15625 0.109375,-0.78125 0.25,-0.90625 0.0625,-0.0625 0.84375,-0.0625 0.96875,-0.0625 h 2.0625 C 3.984375,-5.5 3.203125,-4.40625 2.984375,-4.078125 2.078125,-2.734375 1.75,-1.34375 1.75,-0.328125 c 0,0.09375 0,0.546875 0.46875,0.546875 0.453125,0 0.453125,-0.453125 0.453125,-0.546875 V -0.84375 c 0,-0.546875 0.03125,-1.09375 0.109375,-1.625 0.046875,-0.234375 0.171875,-1.09375 0.625,-1.703125 z m 0,0"
   id="id-567995d0-d92d-46f1-94a8-7381ebe87897" />
      </symbol>
      <symbol
   overflow="visible"
   id="id-d3592f37-9deb-4201-8a0b-5b1ef202d264">
        <path
   style="stroke:none"
   d="m 2.875,-2.5 c 0,-0.765625 -0.109375,-1.96875 -0.65625,-3.109375 -0.59375,-1.21875 -1.453125,-1.875 -1.546875,-1.875 -0.0625,0 -0.109375,0.046875 -0.109375,0.109375 0,0.03125 0,0.046875 0.1875,0.234375 0.984375,0.984375 1.546875,2.5625 1.546875,4.640625 0,1.71875 -0.359375,3.46875 -1.59375,4.71875 C 0.5625,2.34375 0.5625,2.359375 0.5625,2.390625 0.5625,2.453125 0.609375,2.5 0.671875,2.5 0.765625,2.5 1.671875,1.8125 2.25,0.546875 2.765625,-0.546875 2.875,-1.65625 2.875,-2.5 Z m 0,0"
   id="id-a949b215-e19e-413a-81be-477ee9a9077a" />
      </symbol>
      <symbol
   overflow="visible"
   id="id-16342dce-3f83-4d2b-84ae-c8aed3fea686">
        <path
   style="stroke:none"
   d="M 6.75,-1.609375 H 6.5 c -0.046875,0.25 -0.09375,0.484375 -0.1875,0.71875 -0.046875,0.15625 -0.078125,0.25 -0.65625,0.25 H 4.859375 C 5,-1.203125 5.296875,-1.6875 5.75,-2.34375 c 0.46875,-0.703125 0.875,-1.390625 0.875,-2.1875 0,-1.375 -1.34375,-2.5 -3.03125,-2.5 -1.703125,0 -3.03125,1.140625 -3.03125,2.5 0,0.796875 0.40625,1.484375 0.875,2.1875 0.4375,0.65625 0.75,1.140625 0.890625,1.703125 H 1.53125 C 0.953125,-0.640625 0.921875,-0.734375 0.875,-0.875 0.78125,-1.109375 0.734375,-1.359375 0.6875,-1.609375 h -0.25 L 0.765625,0 h 1.59375 c 0.21875,0 0.25,0 0.25,-0.203125 0,-0.703125 -0.3125,-1.578125 -0.53125,-2.21875 -0.21875,-0.578125 -0.5,-1.359375 -0.5,-2.109375 0,-1.59375 1.109375,-2.28125 2.015625,-2.28125 0.953125,0 2.015625,0.71875 2.015625,2.28125 0,0.75 -0.28125,1.5 -0.5625,2.3125 -0.15625,0.421875 -0.46875,1.328125 -0.46875,2.015625 C 4.578125,0 4.609375,0 4.828125,0 h 1.59375 z m 0,0"
   id="id-7a207944-4fde-48c0-8461-3bc2586febfd" />
      </symbol>
    </g>
  </defs>
  <g
   id="id-ea078a54-5400-4a90-8ea9-41435fc15e76"
   transform="translate(-149.29,-127.281)">
    <g
   style="fill:#000000;fill-opacity:1"
   id="id-c390b731-cb24-456a-8e2e-286c2fe7656e">
      <g
   transform="translate(148.712,134.765)"
   id="g18546"><path
   style="stroke:none"
   d="m 7.171875,-6.5625 c 0.015625,-0.046875 0.03125,-0.09375 0.03125,-0.15625 0,-0.09375 -0.046875,-0.09375 -0.25,-0.09375 H 2.75 c -0.234375,0 -0.25,0.015625 -0.3125,0.203125 L 1.890625,-4.8125 c -0.015625,0.046875 -0.03125,0.125 -0.03125,0.140625 0,0 0,0.109375 0.125,0.109375 0.09375,0 0.109375,-0.078125 0.125,-0.109375 C 2.5,-5.84375 3.015625,-6.5 4.5625,-6.5 h 1.625 L 0.625,-0.265625 c 0,0 -0.046875,0.140625 -0.046875,0.171875 C 0.578125,0 0.640625,0 0.828125,0 H 5.15625 c 0.25,0 0.25,-0.015625 0.3125,-0.203125 L 6.1875,-2.40625 c 0,-0.03125 0.03125,-0.109375 0.03125,-0.140625 0,-0.0625 -0.03125,-0.109375 -0.125,-0.109375 -0.09375,0 -0.109375,0.03125 -0.171875,0.25 C 5.484375,-1.0625 5,-0.34375 3.3125,-0.34375 H 1.609375 Z m 0,0"
   id="id-03584573-1d70-4569-9790-1868ac386708" />
      </g></g>
    <g
   style="fill:#000000;fill-opacity:1"
   id="id-195e8118-2c2d-4439-b98c-04bc59bed5fc">
      <g
   transform="translate(155.513,136.259)"
   id="g18550"><path
   style="stroke:none"
   d="m 2.875,-4.1875 c 0.0625,-0.25 0.078125,-0.328125 0.71875,-0.328125 0.21875,0 0.28125,0 0.28125,-0.140625 0,-0.015625 0,-0.109375 -0.109375,-0.109375 -0.15625,0 -0.34375,0.015625 -0.515625,0.03125 -0.171875,0 -0.390625,0 -0.5625,0 -0.140625,0 -0.328125,0 -0.484375,0 -0.140625,0 -0.3125,-0.03125 -0.453125,-0.03125 -0.03125,0 -0.140625,0 -0.140625,0.15625 0,0.09375 0.078125,0.09375 0.21875,0.09375 0.015625,0 0.140625,0 0.265625,0.015625 0.15625,0.015625 0.171875,0.03125 0.171875,0.109375 0,0 0,0.046875 -0.03125,0.140625 l -0.9375,3.703125 C 1.234375,-0.3125 1.21875,-0.25 0.6875,-0.25 c -0.109375,0 -0.203125,0 -0.203125,0.140625 C 0.484375,0 0.5625,0 0.6875,0 h 3.5 c 0.1875,0 0.1875,0 0.25,-0.140625 0.0625,-0.1875 0.59375,-1.53125 0.59375,-1.59375 0,-0.015625 -0.015625,-0.09375 -0.125,-0.09375 -0.078125,0 -0.09375,0.03125 -0.140625,0.140625 C 4.5,-1.03125 4.1875,-0.25 2.921875,-0.25 H 2.125 c -0.203125,0 -0.21875,-0.015625 -0.21875,-0.078125 0,0 0,-0.03125 0.03125,-0.140625 z m 0,0"
   id="id-3d705860-c949-4fd5-ae9a-8104fb1208a1" />
      </g></g>
    <g
   style="fill:#000000;fill-opacity:1"
   id="id-b0b6e909-3a9f-44ae-8d15-bfaf6e160f9f">
      <g
   transform="translate(164.244,134.765)"
   id="g18554"><path
   style="stroke:none"
   d="m 6.84375,-3.265625 c 0.15625,0 0.34375,0 0.34375,-0.1875 C 7.1875,-3.65625 7,-3.65625 6.859375,-3.65625 h -5.96875 c -0.140625,0 -0.328125,0 -0.328125,0.203125 0,0.1875 0.1875,0.1875 0.328125,0.1875 z m 0.015625,1.9375 c 0.140625,0 0.328125,0 0.328125,-0.203125 0,-0.1875 -0.1875,-0.1875 -0.34375,-0.1875 H 0.890625 c -0.140625,0 -0.328125,0 -0.328125,0.1875 0,0.203125 0.1875,0.203125 0.328125,0.203125 z m 0,0"
   id="id-a4304c3a-7696-495f-92e3-957a4ccf80b2" />
      </g></g>
    <g
   style="fill:#000000;fill-opacity:1"
   id="id-74a57ca4-f08d-46ee-bfbd-8cf74745c639">
      <g
   transform="translate(174.763,134.765)"
   id="g18558"><path
   style="stroke:none"
   d="m 3.296875,2.390625 c 0,-0.03125 0,-0.046875 -0.171875,-0.21875 C 1.890625,0.921875 1.5625,-0.96875 1.5625,-2.5 c 0,-1.734375 0.375,-3.46875 1.609375,-4.703125 0.125,-0.125 0.125,-0.140625 0.125,-0.171875 0,-0.078125 -0.03125,-0.109375 -0.09375,-0.109375 -0.109375,0 -1,0.6875 -1.59375,1.953125 -0.5,1.09375 -0.625,2.203125 -0.625,3.03125 0,0.78125 0.109375,1.984375 0.65625,3.125 C 2.25,1.84375 3.09375,2.5 3.203125,2.5 c 0.0625,0 0.09375,-0.03125 0.09375,-0.109375 z m 0,0"
   id="id-b0f2f3e1-ecb5-4522-b386-b7fb5c6a93b0" />
      </g><g
   transform="translate(178.637,134.765)"
   id="g18561"><path
   style="stroke:none"
   d="m 2.9375,-1.640625 v 0.859375 c 0,0.359375 -0.03125,0.46875 -0.765625,0.46875 H 1.96875 V 0 C 2.375,-0.03125 2.890625,-0.03125 3.3125,-0.03125 c 0.421875,0 0.9375,0 1.359375,0.03125 v -0.3125 h -0.21875 c -0.734375,0 -0.75,-0.109375 -0.75,-0.46875 V -1.640625 H 4.6875 v -0.3125 H 3.703125 v -4.53125 c 0,-0.203125 0,-0.265625 -0.171875,-0.265625 -0.078125,0 -0.109375,0 -0.1875,0.125 l -3.0625,4.671875 v 0.3125 z m 0.046875,-0.3125 H 0.5625 l 2.421875,-3.71875 z m 0,0"
   id="id-8bcaa902-db73-4949-91c3-37ad492531e2" />
      </g><g
   transform="translate(183.618,134.765)"
   id="g18564"><path
   style="stroke:none"
   d="m 4.578125,-3.1875 c 0,-0.796875 -0.046875,-1.59375 -0.390625,-2.328125 -0.453125,-0.96875 -1.28125,-1.125 -1.6875,-1.125 -0.609375,0 -1.328125,0.265625 -1.75,1.1875 -0.3125,0.6875 -0.359375,1.46875 -0.359375,2.265625 0,0.75 0.03125,1.640625 0.453125,2.40625 0.421875,0.796875 1.15625,1 1.640625,1 0.53125,0 1.296875,-0.203125 1.734375,-1.15625 0.3125,-0.6875 0.359375,-1.46875 0.359375,-2.25 z M 2.484375,0 C 2.09375,0 1.5,-0.25 1.328125,-1.203125 1.21875,-1.796875 1.21875,-2.71875 1.21875,-3.3125 c 0,-0.640625 0,-1.296875 0.078125,-1.828125 0.1875,-1.1875 0.9375,-1.28125 1.1875,-1.28125 0.328125,0 0.984375,0.1875 1.171875,1.171875 0.109375,0.5625 0.109375,1.3125 0.109375,1.9375 0,0.75 0,1.421875 -0.109375,2.0625 C 3.5,-0.296875 2.9375,0 2.484375,0 Z m 0,0"
   id="id-d97b4906-ac68-4b7b-abf7-2fc40a7f2217" />
      </g></g>
    <g
   style="fill:#000000;fill-opacity:1"
   id="id-a758ef31-4bb8-49e7-9725-968913bd1736">
      <g
   transform="translate(190.811,134.765)"
   id="g18568"><path
   style="stroke:none"
   d="m 4.078125,-2.296875 h 2.78125 C 7,-2.296875 7.1875,-2.296875 7.1875,-2.5 7.1875,-2.6875 7,-2.6875 6.859375,-2.6875 h -2.78125 v -2.796875 c 0,-0.140625 0,-0.328125 -0.203125,-0.328125 -0.203125,0 -0.203125,0.1875 -0.203125,0.328125 V -2.6875 h -2.78125 c -0.140625,0 -0.328125,0 -0.328125,0.1875 0,0.203125 0.1875,0.203125 0.328125,0.203125 h 2.78125 V 0.5 c 0,0.140625 0,0.328125 0.203125,0.328125 0.203125,0 0.203125,-0.1875 0.203125,-0.328125 z m 0,0"
   id="id-a0b7be97-ebd7-4af2-91ae-38df3bd436d9" />
      </g></g>
    <g
   style="fill:#000000;fill-opacity:1"
   id="id-afcfc4b4-bf26-44e9-b370-15857e3b8dee">
      <g
   transform="translate(200.774,134.765)"
   id="g18572"><path
   style="stroke:none"
   d="m 3.953125,-6.234375 c 0,-0.1875 -0.140625,-0.359375 -0.375,-0.359375 -0.234375,0 -0.53125,0.234375 -0.53125,0.53125 0,0.203125 0.140625,0.359375 0.375,0.359375 0.265625,0 0.53125,-0.265625 0.53125,-0.53125 z m -2,6.734375 c -0.1875,0.75 -0.671875,1.328125 -1.21875,1.328125 -0.0625,0 -0.21875,0 -0.390625,-0.09375 0.296875,-0.0625 0.4375,-0.328125 0.4375,-0.53125 0,-0.15625 -0.109375,-0.34375 -0.375,-0.34375 -0.25,0 -0.53125,0.203125 -0.53125,0.5625 0,0.40625 0.390625,0.625 0.875,0.625 0.703125,0 1.625,-0.53125 1.875,-1.515625 L 3.53125,-3.125 c 0.0625,-0.1875 0.0625,-0.328125 0.0625,-0.359375 0,-0.578125 -0.421875,-0.921875 -0.921875,-0.921875 -1.015625,0 -1.578125,1.453125 -1.578125,1.53125 0,0.109375 0.09375,0.109375 0.109375,0.109375 0.09375,0 0.109375,-0.015625 0.1875,-0.203125 0.25,-0.609375 0.703125,-1.21875 1.25,-1.21875 0.140625,0 0.3125,0.046875 0.3125,0.453125 0,0.234375 -0.015625,0.34375 -0.0625,0.515625 z m 0,0"
   id="id-cab16613-53cd-4114-a6b2-6d4c132d37fc" />
      </g></g>
    <g
   style="fill:#000000;fill-opacity:1"
   id="id-7c0561ea-598f-4981-a04f-8974d102f84e">
      <g
   transform="translate(206,134.765)"
   id="g18576"><path
   style="stroke:none"
   d="m 4.75,-6.078125 c 0.078125,-0.109375 0.078125,-0.125 0.078125,-0.34375 H 2.40625 c -1.203125,0 -1.234375,-0.125 -1.265625,-0.3125 h -0.25 L 0.5625,-4.6875 h 0.25 c 0.03125,-0.15625 0.109375,-0.78125 0.25,-0.90625 0.0625,-0.0625 0.84375,-0.0625 0.96875,-0.0625 h 2.0625 C 3.984375,-5.5 3.203125,-4.40625 2.984375,-4.078125 2.078125,-2.734375 1.75,-1.34375 1.75,-0.328125 c 0,0.09375 0,0.546875 0.46875,0.546875 0.453125,0 0.453125,-0.453125 0.453125,-0.546875 V -0.84375 c 0,-0.546875 0.03125,-1.09375 0.109375,-1.625 0.046875,-0.234375 0.171875,-1.09375 0.625,-1.703125 z m 0,0"
   id="id-a51bacf4-9504-42a2-88a9-b8869f81fc22" />
      </g><g
   transform="translate(210.981,134.765)"
   id="g18579"><path
   style="stroke:none"
   d="m 4.578125,-3.1875 c 0,-0.796875 -0.046875,-1.59375 -0.390625,-2.328125 -0.453125,-0.96875 -1.28125,-1.125 -1.6875,-1.125 -0.609375,0 -1.328125,0.265625 -1.75,1.1875 -0.3125,0.6875 -0.359375,1.46875 -0.359375,2.265625 0,0.75 0.03125,1.640625 0.453125,2.40625 0.421875,0.796875 1.15625,1 1.640625,1 0.53125,0 1.296875,-0.203125 1.734375,-1.15625 0.3125,-0.6875 0.359375,-1.46875 0.359375,-2.25 z M 2.484375,0 C 2.09375,0 1.5,-0.25 1.328125,-1.203125 1.21875,-1.796875 1.21875,-2.71875 1.21875,-3.3125 c 0,-0.640625 0,-1.296875 0.078125,-1.828125 0.1875,-1.1875 0.9375,-1.28125 1.1875,-1.28125 0.328125,0 0.984375,0.1875 1.171875,1.171875 0.109375,0.5625 0.109375,1.3125 0.109375,1.9375 0,0.75 0,1.421875 -0.109375,2.0625 C 3.5,-0.296875 2.9375,0 2.484375,0 Z m 0,0"
   id="id-081b7cb4-edfa-49c5-8e7e-4045c1236e20" />
      </g><g
   transform="translate(215.963,134.765)"
   id="g18582"><path
   style="stroke:none"
   d="m 2.875,-2.5 c 0,-0.765625 -0.109375,-1.96875 -0.65625,-3.109375 -0.59375,-1.21875 -1.453125,-1.875 -1.546875,-1.875 -0.0625,0 -0.109375,0.046875 -0.109375,0.109375 0,0.03125 0,0.046875 0.1875,0.234375 0.984375,0.984375 1.546875,2.5625 1.546875,4.640625 0,1.71875 -0.359375,3.46875 -1.59375,4.71875 C 0.5625,2.34375 0.5625,2.359375 0.5625,2.390625 0.5625,2.453125 0.609375,2.5 0.671875,2.5 0.765625,2.5 1.671875,1.8125 2.25,0.546875 2.765625,-0.546875 2.875,-1.65625 2.875,-2.5 Z m 0,0"
   id="id-858a9a7c-4d28-4b9e-b433-11dc19f532b0" />
      </g><g
   transform="translate(219.837,134.765)"
   id="g18585"><path
   style="stroke:none"
   d="M 6.75,-1.609375 H 6.5 c -0.046875,0.25 -0.09375,0.484375 -0.1875,0.71875 -0.046875,0.15625 -0.078125,0.25 -0.65625,0.25 H 4.859375 C 5,-1.203125 5.296875,-1.6875 5.75,-2.34375 c 0.46875,-0.703125 0.875,-1.390625 0.875,-2.1875 0,-1.375 -1.34375,-2.5 -3.03125,-2.5 -1.703125,0 -3.03125,1.140625 -3.03125,2.5 0,0.796875 0.40625,1.484375 0.875,2.1875 0.4375,0.65625 0.75,1.140625 0.890625,1.703125 H 1.53125 C 0.953125,-0.640625 0.921875,-0.734375 0.875,-0.875 0.78125,-1.109375 0.734375,-1.359375 0.6875,-1.609375 h -0.25 L 0.765625,0 h 1.59375 c 0.21875,0 0.25,0 0.25,-0.203125 0,-0.703125 -0.3125,-1.578125 -0.53125,-2.21875 -0.21875,-0.578125 -0.5,-1.359375 -0.5,-2.109375 0,-1.59375 1.109375,-2.28125 2.015625,-2.28125 0.953125,0 2.015625,0.71875 2.015625,2.28125 0,0.75 -0.28125,1.5 -0.5625,2.3125 -0.15625,0.421875 -0.46875,1.328125 -0.46875,2.015625 C 4.578125,0 4.609375,0 4.828125,0 h 1.59375 z m 0,0"
   id="id-734386dd-05b1-4437-8dbc-c8de10b92f15" />
      </g></g>
  </g>
</g><g
       transform="matrix(1.33333,0,0,-1.33333,252.535,65.7006)"
       ns4:version="1.2.0"
       ns4:texconverter="pdflatex"
       ns4:pdfconverter="inkscape"
       ns4:text="$Z_0 = 100 \Omega$     "
       ns4:preamble="/Users/hasanabbas/Library/Application Support/org.inkscape.Inkscape/config/inkscape/extensions/circuitSymbols/circuitSymbolsPreamble.tex"
       ns4:scale="1.0"
       ns4:alignment="middle center"
       ns4:inkscapeversion="1.0.2"
       ns4:jacobian_sqrt="1.33333"
       id="g6207"><defs
   id="id-4dbd91c5-137d-42af-97c6-4a167b1b12ac">
    <g
   id="id-7582c1c2-c068-42e4-84df-ec9c1b4fcbc0">
      <symbol
   overflow="visible"
   id="id-e3c9bd59-00da-46bd-bfb3-ebb02749b838">
        <path
   style="stroke:none"
   d=""
   id="id-d7430c60-4dac-42d8-8d38-1f69793cd4b1" />
      </symbol>
      <symbol
   overflow="visible"
   id="id-201c5913-adb6-47e0-969d-f3c73dea7b20">
        <path
   style="stroke:none"
   d="m 7.171875,-6.5625 c 0.015625,-0.046875 0.03125,-0.09375 0.03125,-0.15625 0,-0.09375 -0.046875,-0.09375 -0.25,-0.09375 H 2.75 c -0.234375,0 -0.25,0.015625 -0.3125,0.203125 L 1.890625,-4.8125 c -0.015625,0.046875 -0.03125,0.125 -0.03125,0.140625 0,0 0,0.109375 0.125,0.109375 0.09375,0 0.109375,-0.078125 0.125,-0.109375 C 2.5,-5.84375 3.015625,-6.5 4.5625,-6.5 h 1.625 L 0.625,-0.265625 c 0,0 -0.046875,0.140625 -0.046875,0.171875 C 0.578125,0 0.640625,0 0.828125,0 H 5.15625 c 0.25,0 0.25,-0.015625 0.3125,-0.203125 L 6.1875,-2.40625 c 0,-0.03125 0.03125,-0.109375 0.03125,-0.140625 0,-0.0625 -0.03125,-0.109375 -0.125,-0.109375 -0.09375,0 -0.109375,0.03125 -0.171875,0.25 C 5.484375,-1.0625 5,-0.34375 3.3125,-0.34375 H 1.609375 Z m 0,0"
   id="id-b184cdc7-8e08-44b6-ac67-00a62b23f727" />
      </symbol>
      <symbol
   overflow="visible"
   id="id-a3fdc729-e698-4b83-b382-2f00b68b002e">
        <path
   style="stroke:none"
   d=""
   id="id-b1cb5c63-b5bb-4dd7-bd6c-3215be9ee4d6" />
      </symbol>
      <symbol
   overflow="visible"
   id="id-f60a0ca1-a1c5-47cd-a661-3a43baaee0a3">
        <path
   style="stroke:none"
   d="M 3.59375,-2.21875 C 3.59375,-2.984375 3.5,-3.546875 3.1875,-4.03125 2.96875,-4.34375 2.53125,-4.625 1.984375,-4.625 c -1.625,0 -1.625,1.90625 -1.625,2.40625 0,0.5 0,2.359375 1.625,2.359375 1.609375,0 1.609375,-1.859375 1.609375,-2.359375 z M 1.984375,-0.0625 c -0.328125,0 -0.75,-0.1875 -0.890625,-0.75 C 1,-1.21875 1,-1.796875 1,-2.3125 1,-2.828125 1,-3.359375 1.09375,-3.734375 1.25,-4.28125 1.6875,-4.4375 1.984375,-4.4375 c 0.375,0 0.734375,0.234375 0.859375,0.640625 0.109375,0.375 0.125,0.875 0.125,1.484375 0,0.515625 0,1.03125 -0.09375,1.46875 -0.140625,0.640625 -0.609375,0.78125 -0.890625,0.78125 z m 0,0"
   id="id-b1b1cd04-e1b2-4245-98d3-c39f123fc476" />
      </symbol>
      <symbol
   overflow="visible"
   id="id-d9faa712-cdae-4636-a551-b5c3c6fb75be">
        <path
   style="stroke:none"
   d=""
   id="id-3f7266e7-f35e-4420-b469-1da358cb95ba" />
      </symbol>
      <symbol
   overflow="visible"
   id="id-414e5245-a93a-4c5c-bad4-db571a21c3ca">
        <path
   style="stroke:none"
   d="m 6.84375,-3.265625 c 0.15625,0 0.34375,0 0.34375,-0.1875 C 7.1875,-3.65625 7,-3.65625 6.859375,-3.65625 h -5.96875 c -0.140625,0 -0.328125,0 -0.328125,0.203125 0,0.1875 0.1875,0.1875 0.328125,0.1875 z m 0.015625,1.9375 c 0.140625,0 0.328125,0 0.328125,-0.203125 0,-0.1875 -0.1875,-0.1875 -0.34375,-0.1875 H 0.890625 c -0.140625,0 -0.328125,0 -0.328125,0.1875 0,0.203125 0.1875,0.203125 0.328125,0.203125 z m 0,0"
   id="id-0287666d-e8d4-4185-8b81-ce4be21da37d" />
      </symbol>
      <symbol
   overflow="visible"
   id="id-82992dd1-3599-4da9-88c6-955579b4dd1f">
        <path
   style="stroke:none"
   d="m 2.9375,-6.375 c 0,-0.25 0,-0.265625 -0.234375,-0.265625 C 2.078125,-6 1.203125,-6 0.890625,-6 v 0.3125 c 0.203125,0 0.78125,0 1.296875,-0.265625 v 5.171875 c 0,0.359375 -0.03125,0.46875 -0.921875,0.46875 h -0.3125 V 0 c 0.34375,-0.03125 1.203125,-0.03125 1.609375,-0.03125 0.390625,0 1.265625,0 1.609375,0.03125 v -0.3125 h -0.3125 c -0.90625,0 -0.921875,-0.109375 -0.921875,-0.46875 z m 0,0"
   id="id-754fe9ae-1583-4b00-881f-2ab273600d34" />
      </symbol>
      <symbol
   overflow="visible"
   id="id-0460a66e-f935-4729-a261-25597d708df7">
        <path
   style="stroke:none"
   d="m 4.578125,-3.1875 c 0,-0.796875 -0.046875,-1.59375 -0.390625,-2.328125 -0.453125,-0.96875 -1.28125,-1.125 -1.6875,-1.125 -0.609375,0 -1.328125,0.265625 -1.75,1.1875 -0.3125,0.6875 -0.359375,1.46875 -0.359375,2.265625 0,0.75 0.03125,1.640625 0.453125,2.40625 0.421875,0.796875 1.15625,1 1.640625,1 0.53125,0 1.296875,-0.203125 1.734375,-1.15625 0.3125,-0.6875 0.359375,-1.46875 0.359375,-2.25 z M 2.484375,0 C 2.09375,0 1.5,-0.25 1.328125,-1.203125 1.21875,-1.796875 1.21875,-2.71875 1.21875,-3.3125 c 0,-0.640625 0,-1.296875 0.078125,-1.828125 0.1875,-1.1875 0.9375,-1.28125 1.1875,-1.28125 0.328125,0 0.984375,0.1875 1.171875,1.171875 0.109375,0.5625 0.109375,1.3125 0.109375,1.9375 0,0.75 0,1.421875 -0.109375,2.0625 C 3.5,-0.296875 2.9375,0 2.484375,0 Z m 0,0"
   id="id-ecdc3e49-818d-4189-b8cf-4e3f8bd94436" />
      </symbol>
      <symbol
   overflow="visible"
   id="id-17278d3f-6a16-4b0d-be9c-c047b7ca07d2">
        <path
   style="stroke:none"
   d="M 6.75,-1.609375 H 6.5 c -0.046875,0.25 -0.09375,0.484375 -0.1875,0.71875 -0.046875,0.15625 -0.078125,0.25 -0.65625,0.25 H 4.859375 C 5,-1.203125 5.296875,-1.6875 5.75,-2.34375 c 0.46875,-0.703125 0.875,-1.390625 0.875,-2.1875 0,-1.375 -1.34375,-2.5 -3.03125,-2.5 -1.703125,0 -3.03125,1.140625 -3.03125,2.5 0,0.796875 0.40625,1.484375 0.875,2.1875 0.4375,0.65625 0.75,1.140625 0.890625,1.703125 H 1.53125 C 0.953125,-0.640625 0.921875,-0.734375 0.875,-0.875 0.78125,-1.109375 0.734375,-1.359375 0.6875,-1.609375 h -0.25 L 0.765625,0 h 1.59375 c 0.21875,0 0.25,0 0.25,-0.203125 0,-0.703125 -0.3125,-1.578125 -0.53125,-2.21875 -0.21875,-0.578125 -0.5,-1.359375 -0.5,-2.109375 0,-1.59375 1.109375,-2.28125 2.015625,-2.28125 0.953125,0 2.015625,0.71875 2.015625,2.28125 0,0.75 -0.28125,1.5 -0.5625,2.3125 -0.15625,0.421875 -0.46875,1.328125 -0.46875,2.015625 C 4.578125,0 4.609375,0 4.828125,0 h 1.59375 z m 0,0"
   id="id-dd818582-ed87-4865-a9be-0065db9027f5" />
      </symbol>
    </g>
  </defs>
  <g
   id="id-81988c99-d296-4d65-8044-cdca812862dc"
   transform="translate(-149.29,-127.734)">
    <g
   style="fill:#000000;fill-opacity:1"
   id="id-d21f0321-129e-4cab-ba3c-1bea9da8b9df">
      <g
   transform="translate(148.712,134.765)"
   id="g18965"><path
   style="stroke:none"
   d="m 7.171875,-6.5625 c 0.015625,-0.046875 0.03125,-0.09375 0.03125,-0.15625 0,-0.09375 -0.046875,-0.09375 -0.25,-0.09375 H 2.75 c -0.234375,0 -0.25,0.015625 -0.3125,0.203125 L 1.890625,-4.8125 c -0.015625,0.046875 -0.03125,0.125 -0.03125,0.140625 0,0 0,0.109375 0.125,0.109375 0.09375,0 0.109375,-0.078125 0.125,-0.109375 C 2.5,-5.84375 3.015625,-6.5 4.5625,-6.5 h 1.625 L 0.625,-0.265625 c 0,0 -0.046875,0.140625 -0.046875,0.171875 C 0.578125,0 0.640625,0 0.828125,0 H 5.15625 c 0.25,0 0.25,-0.015625 0.3125,-0.203125 L 6.1875,-2.40625 c 0,-0.03125 0.03125,-0.109375 0.03125,-0.140625 0,-0.0625 -0.03125,-0.109375 -0.125,-0.109375 -0.09375,0 -0.109375,0.03125 -0.171875,0.25 C 5.484375,-1.0625 5,-0.34375 3.3125,-0.34375 H 1.609375 Z m 0,0"
   id="id-d5bff54f-610e-4590-889d-2765329eb9f1" />
      </g></g>
    <g
   style="fill:#000000;fill-opacity:1"
   id="id-2d396ece-f23e-4591-81e7-e63e8348db02">
      <g
   transform="translate(155.513,136.259)"
   id="g18969"><path
   style="stroke:none"
   d="M 3.59375,-2.21875 C 3.59375,-2.984375 3.5,-3.546875 3.1875,-4.03125 2.96875,-4.34375 2.53125,-4.625 1.984375,-4.625 c -1.625,0 -1.625,1.90625 -1.625,2.40625 0,0.5 0,2.359375 1.625,2.359375 1.609375,0 1.609375,-1.859375 1.609375,-2.359375 z M 1.984375,-0.0625 c -0.328125,0 -0.75,-0.1875 -0.890625,-0.75 C 1,-1.21875 1,-1.796875 1,-2.3125 1,-2.828125 1,-3.359375 1.09375,-3.734375 1.25,-4.28125 1.6875,-4.4375 1.984375,-4.4375 c 0.375,0 0.734375,0.234375 0.859375,0.640625 0.109375,0.375 0.125,0.875 0.125,1.484375 0,0.515625 0,1.03125 -0.09375,1.46875 -0.140625,0.640625 -0.609375,0.78125 -0.890625,0.78125 z m 0,0"
   id="id-c82b7ec2-2e82-4b53-8cdf-911e446858a4" />
      </g></g>
    <g
   style="fill:#000000;fill-opacity:1"
   id="id-6d950770-7118-4656-9c9e-0f74682ea7d5">
      <g
   transform="translate(162.75,134.765)"
   id="g18973"><path
   style="stroke:none"
   d="m 6.84375,-3.265625 c 0.15625,0 0.34375,0 0.34375,-0.1875 C 7.1875,-3.65625 7,-3.65625 6.859375,-3.65625 h -5.96875 c -0.140625,0 -0.328125,0 -0.328125,0.203125 0,0.1875 0.1875,0.1875 0.328125,0.1875 z m 0.015625,1.9375 c 0.140625,0 0.328125,0 0.328125,-0.203125 0,-0.1875 -0.1875,-0.1875 -0.34375,-0.1875 H 0.890625 c -0.140625,0 -0.328125,0 -0.328125,0.1875 0,0.203125 0.1875,0.203125 0.328125,0.203125 z m 0,0"
   id="id-c33707ef-caaf-4803-9e93-91e4039782f2" />
      </g></g>
    <g
   style="fill:#000000;fill-opacity:1"
   id="id-c6ce60eb-7f84-4033-a906-9b4e83dbf1bf">
      <g
   transform="translate(173.269,134.765)"
   id="g18977"><path
   style="stroke:none"
   d="m 2.9375,-6.375 c 0,-0.25 0,-0.265625 -0.234375,-0.265625 C 2.078125,-6 1.203125,-6 0.890625,-6 v 0.3125 c 0.203125,0 0.78125,0 1.296875,-0.265625 v 5.171875 c 0,0.359375 -0.03125,0.46875 -0.921875,0.46875 h -0.3125 V 0 c 0.34375,-0.03125 1.203125,-0.03125 1.609375,-0.03125 0.390625,0 1.265625,0 1.609375,0.03125 v -0.3125 h -0.3125 c -0.90625,0 -0.921875,-0.109375 -0.921875,-0.46875 z m 0,0"
   id="id-ae2edbce-f7e1-4fad-988d-323f2502e623" />
      </g><g
   transform="translate(178.25,134.765)"
   id="g18980"><path
   style="stroke:none"
   d="m 4.578125,-3.1875 c 0,-0.796875 -0.046875,-1.59375 -0.390625,-2.328125 -0.453125,-0.96875 -1.28125,-1.125 -1.6875,-1.125 -0.609375,0 -1.328125,0.265625 -1.75,1.1875 -0.3125,0.6875 -0.359375,1.46875 -0.359375,2.265625 0,0.75 0.03125,1.640625 0.453125,2.40625 0.421875,0.796875 1.15625,1 1.640625,1 0.53125,0 1.296875,-0.203125 1.734375,-1.15625 0.3125,-0.6875 0.359375,-1.46875 0.359375,-2.25 z M 2.484375,0 C 2.09375,0 1.5,-0.25 1.328125,-1.203125 1.21875,-1.796875 1.21875,-2.71875 1.21875,-3.3125 c 0,-0.640625 0,-1.296875 0.078125,-1.828125 0.1875,-1.1875 0.9375,-1.28125 1.1875,-1.28125 0.328125,0 0.984375,0.1875 1.171875,1.171875 0.109375,0.5625 0.109375,1.3125 0.109375,1.9375 0,0.75 0,1.421875 -0.109375,2.0625 C 3.5,-0.296875 2.9375,0 2.484375,0 Z m 0,0"
   id="id-1a49a722-e463-48c6-94fb-25d0e6c515ac" />
      </g><g
   transform="translate(183.231,134.765)"
   id="g18983"><path
   style="stroke:none"
   d="m 4.578125,-3.1875 c 0,-0.796875 -0.046875,-1.59375 -0.390625,-2.328125 -0.453125,-0.96875 -1.28125,-1.125 -1.6875,-1.125 -0.609375,0 -1.328125,0.265625 -1.75,1.1875 -0.3125,0.6875 -0.359375,1.46875 -0.359375,2.265625 0,0.75 0.03125,1.640625 0.453125,2.40625 0.421875,0.796875 1.15625,1 1.640625,1 0.53125,0 1.296875,-0.203125 1.734375,-1.15625 0.3125,-0.6875 0.359375,-1.46875 0.359375,-2.25 z M 2.484375,0 C 2.09375,0 1.5,-0.25 1.328125,-1.203125 1.21875,-1.796875 1.21875,-2.71875 1.21875,-3.3125 c 0,-0.640625 0,-1.296875 0.078125,-1.828125 0.1875,-1.1875 0.9375,-1.28125 1.1875,-1.28125 0.328125,0 0.984375,0.1875 1.171875,1.171875 0.109375,0.5625 0.109375,1.3125 0.109375,1.9375 0,0.75 0,1.421875 -0.109375,2.0625 C 3.5,-0.296875 2.9375,0 2.484375,0 Z m 0,0"
   id="id-bc8d3d25-1e52-4c99-96a9-220b8f9ed89c" />
      </g><g
   transform="translate(188.212,134.765)"
   id="g18986"><path
   style="stroke:none"
   d="M 6.75,-1.609375 H 6.5 c -0.046875,0.25 -0.09375,0.484375 -0.1875,0.71875 -0.046875,0.15625 -0.078125,0.25 -0.65625,0.25 H 4.859375 C 5,-1.203125 5.296875,-1.6875 5.75,-2.34375 c 0.46875,-0.703125 0.875,-1.390625 0.875,-2.1875 0,-1.375 -1.34375,-2.5 -3.03125,-2.5 -1.703125,0 -3.03125,1.140625 -3.03125,2.5 0,0.796875 0.40625,1.484375 0.875,2.1875 0.4375,0.65625 0.75,1.140625 0.890625,1.703125 H 1.53125 C 0.953125,-0.640625 0.921875,-0.734375 0.875,-0.875 0.78125,-1.109375 0.734375,-1.359375 0.6875,-1.609375 h -0.25 L 0.765625,0 h 1.59375 c 0.21875,0 0.25,0 0.25,-0.203125 0,-0.703125 -0.3125,-1.578125 -0.53125,-2.21875 -0.21875,-0.578125 -0.5,-1.359375 -0.5,-2.109375 0,-1.59375 1.109375,-2.28125 2.015625,-2.28125 0.953125,0 2.015625,0.71875 2.015625,2.28125 0,0.75 -0.28125,1.5 -0.5625,2.3125 -0.15625,0.421875 -0.46875,1.328125 -0.46875,2.015625 C 4.578125,0 4.609375,0 4.828125,0 h 1.59375 z m 0,0"
   id="id-15947636-071a-4ed1-81ac-6ec1cc9c3b3c" />
      </g></g>
  </g>
</g></g><g
     inkscape:label="Layer 1"
     inkscape:groupmode="layer"
     id="layer1"
     transform="matrix(0,-0.552997,0.552997,0,-334.1864,283.18978)" /><path
     style="fill:none;stroke:#000000;stroke-width:1px;stroke-linecap:butt;stroke-linejoin:miter;stroke-opacity:1;marker-end:url(#marker4058)"
     d="M 17.170694,63.381628 H 62.149996"
     id="path19170"
     sodipodi:nodetypes="cc" /><g
     transform="matrix(1.9040745,0,0,1.9040745,-2.3800931e-4,42.398217)"
     ns4:version="1.2.0"
     ns4:texconverter="pdflatex"
     ns4:pdfconverter="inkscape"
     ns4:text="$Z_{in}$ "
     ns4:preamble="/Users/hasanabbas/Library/Application Support/org.inkscape.Inkscape/config/inkscape/extensions/circuitSymbols/circuitSymbolsPreamble.tex"
     ns4:scale="1.0"
     ns4:alignment="middle center"
     ns4:inkscapeversion="1.0.2"
     ns4:jacobian_sqrt="1.33333"
     id="g19439"><defs
   id="id-e10be6b3-14bd-44a2-9716-44fb31f63637">
    <g
   id="id-21055a6e-d34a-48b7-a3db-3892819bdebf">
      <symbol
   overflow="visible"
   id="id-502861c1-13b2-4f37-b4b7-5f6438e95eaf">
        <path
   style="stroke:none;stroke-width:0"
   d=""
   id="id-452c2054-29f8-4445-a9bf-b8d1ffd52566" />
      </symbol>
      <symbol
   overflow="visible"
   id="id-ff3b9e0e-71df-4ca0-a806-24d009fd159e">
        <path
   style="stroke:none;stroke-width:0"
   d="m 7.171875,-6.5625 c 0.015625,-0.046875 0.03125,-0.09375 0.03125,-0.15625 0,-0.09375 -0.046875,-0.09375 -0.25,-0.09375 H 2.75 c -0.234375,0 -0.25,0.015625 -0.3125,0.203125 L 1.890625,-4.8125 c -0.015625,0.046875 -0.03125,0.125 -0.03125,0.140625 0,0 0,0.109375 0.125,0.109375 0.09375,0 0.109375,-0.078125 0.125,-0.109375 C 2.5,-5.84375 3.015625,-6.5 4.5625,-6.5 h 1.625 L 0.625,-0.265625 c 0,0 -0.046875,0.140625 -0.046875,0.171875 C 0.578125,0 0.640625,0 0.828125,0 H 5.15625 c 0.25,0 0.25,-0.015625 0.3125,-0.203125 L 6.1875,-2.40625 c 0,-0.03125 0.03125,-0.109375 0.03125,-0.140625 0,-0.0625 -0.03125,-0.109375 -0.125,-0.109375 -0.09375,0 -0.109375,0.03125 -0.171875,0.25 C 5.484375,-1.0625 5,-0.34375 3.3125,-0.34375 H 1.609375 Z m 0,0"
   id="id-10adc0fc-3402-4d7f-bad7-cec6eae60c7c" />
      </symbol>
      <symbol
   overflow="visible"
   id="id-321e5a18-2a75-44ac-b05d-aad569eb4ab2">
        <path
   style="stroke:none;stroke-width:0"
   d=""
   id="id-b355e5f6-f7ca-41a3-926a-c31aa0807268" />
      </symbol>
      <symbol
   overflow="visible"
   id="id-63d83245-e41c-45bf-8409-f8d1721509ee">
        <path
   style="stroke:none;stroke-width:0"
   d="m 2.265625,-4.359375 c 0,-0.109375 -0.09375,-0.265625 -0.28125,-0.265625 -0.1875,0 -0.390625,0.1875 -0.390625,0.390625 0,0.109375 0.078125,0.265625 0.28125,0.265625 0.1875,0 0.390625,-0.203125 0.390625,-0.390625 z M 0.84375,-0.8125 c -0.03125,0.09375 -0.0625,0.171875 -0.0625,0.296875 0,0.328125 0.265625,0.578125 0.65625,0.578125 0.6875,0 1,-0.953125 1,-1.0625 0,-0.09375 -0.09375,-0.09375 -0.109375,-0.09375 -0.09375,0 -0.109375,0.046875 -0.140625,0.125 -0.15625,0.5625 -0.453125,0.84375 -0.734375,0.84375 -0.140625,0 -0.171875,-0.09375 -0.171875,-0.25 0,-0.15625 0.046875,-0.28125 0.109375,-0.4375 C 1.46875,-1 1.546875,-1.1875 1.609375,-1.375 1.671875,-1.546875 1.9375,-2.171875 1.953125,-2.265625 1.984375,-2.328125 2,-2.40625 2,-2.484375 2,-2.8125 1.71875,-3.078125 1.34375,-3.078125 0.640625,-3.078125 0.328125,-2.125 0.328125,-2 c 0,0.078125 0.09375,0.078125 0.125,0.078125 0.09375,0 0.09375,-0.03125 0.125,-0.109375 C 0.75,-2.625 1.0625,-2.875 1.3125,-2.875 c 0.109375,0 0.171875,0.046875 0.171875,0.234375 0,0.171875 -0.03125,0.265625 -0.203125,0.703125 z m 0,0"
   id="id-6cae0eb5-78d4-4365-9a21-7e13d6be21db" />
      </symbol>
      <symbol
   overflow="visible"
   id="id-8f889ca8-112a-42c7-aa64-048f2c16a4ac">
        <path
   style="stroke:none;stroke-width:0"
   d="m 0.84375,-0.4375 c -0.015625,0.09375 -0.0625,0.265625 -0.0625,0.28125 0,0.15625 0.125,0.21875 0.234375,0.21875 0.125,0 0.234375,-0.078125 0.28125,-0.140625 0.03125,-0.0625 0.078125,-0.296875 0.125,-0.4375 0.03125,-0.125 0.109375,-0.453125 0.140625,-0.625 0.046875,-0.15625 0.09375,-0.3125 0.125,-0.46875 0.078125,-0.28125 0.09375,-0.34375 0.296875,-0.625 C 2.171875,-2.515625 2.5,-2.875 3.03125,-2.875 c 0.390625,0 0.40625,0.359375 0.40625,0.484375 0,0.421875 -0.296875,1.1875 -0.40625,1.484375 -0.078125,0.203125 -0.109375,0.265625 -0.109375,0.375 0,0.375 0.296875,0.59375 0.65625,0.59375 0.703125,0 1,-0.953125 1,-1.0625 0,-0.09375 -0.078125,-0.09375 -0.109375,-0.09375 -0.09375,0 -0.09375,0.046875 -0.125,0.125 C 4.1875,-0.40625 3.875,-0.125 3.609375,-0.125 c -0.15625,0 -0.1875,-0.09375 -0.1875,-0.25 0,-0.15625 0.046875,-0.25 0.171875,-0.5625 0.078125,-0.21875 0.359375,-0.953125 0.359375,-1.34375 0,-0.671875 -0.53125,-0.796875 -0.90625,-0.796875 -0.578125,0 -0.96875,0.359375 -1.171875,0.640625 -0.046875,-0.484375 -0.453125,-0.640625 -0.75,-0.640625 -0.296875,0 -0.453125,0.21875 -0.546875,0.375 -0.15625,0.265625 -0.25,0.65625 -0.25,0.703125 0,0.078125 0.09375,0.078125 0.125,0.078125 0.09375,0 0.09375,-0.015625 0.140625,-0.203125 0.109375,-0.40625 0.25,-0.75 0.515625,-0.75 0.1875,0 0.234375,0.15625 0.234375,0.34375 0,0.125 -0.0625,0.390625 -0.125,0.578125 -0.046875,0.1875 -0.109375,0.46875 -0.140625,0.625 z m 0,0"
   id="id-003b5415-4b7f-4c05-92bf-e938347bc879" />
      </symbol>
    </g>
  </defs>
  <g
   id="id-8b2a7721-b94c-45a5-b9fd-081aa0f4c4bc"
   transform="translate(-149.29,-127.953)">
    <g
   style="fill:#000000;fill-opacity:1"
   id="id-30393447-33de-460c-b510-15ff6331049c">
      <g
   transform="translate(148.712,134.765)"
   id="g19428"><path
   style="stroke:none;stroke-width:0"
   d="m 7.171875,-6.5625 c 0.015625,-0.046875 0.03125,-0.09375 0.03125,-0.15625 0,-0.09375 -0.046875,-0.09375 -0.25,-0.09375 H 2.75 c -0.234375,0 -0.25,0.015625 -0.3125,0.203125 L 1.890625,-4.8125 c -0.015625,0.046875 -0.03125,0.125 -0.03125,0.140625 0,0 0,0.109375 0.125,0.109375 0.09375,0 0.109375,-0.078125 0.125,-0.109375 C 2.5,-5.84375 3.015625,-6.5 4.5625,-6.5 h 1.625 L 0.625,-0.265625 c 0,0 -0.046875,0.140625 -0.046875,0.171875 C 0.578125,0 0.640625,0 0.828125,0 H 5.15625 c 0.25,0 0.25,-0.015625 0.3125,-0.203125 L 6.1875,-2.40625 c 0,-0.03125 0.03125,-0.109375 0.03125,-0.140625 0,-0.0625 -0.03125,-0.109375 -0.125,-0.109375 -0.09375,0 -0.109375,0.03125 -0.171875,0.25 C 5.484375,-1.0625 5,-0.34375 3.3125,-0.34375 H 1.609375 Z m 0,0"
   id="id-9fe743cd-da79-41f5-a875-c5b948a077ab" />
      </g></g>
    <g
   style="fill:#000000;fill-opacity:1"
   id="id-72d755e2-6dc9-4d0a-93e3-279e977dac49">
      <g
   transform="translate(155.513,136.259)"
   id="g19432"><path
   style="stroke:none;stroke-width:0"
   d="m 2.265625,-4.359375 c 0,-0.109375 -0.09375,-0.265625 -0.28125,-0.265625 -0.1875,0 -0.390625,0.1875 -0.390625,0.390625 0,0.109375 0.078125,0.265625 0.28125,0.265625 0.1875,0 0.390625,-0.203125 0.390625,-0.390625 z M 0.84375,-0.8125 c -0.03125,0.09375 -0.0625,0.171875 -0.0625,0.296875 0,0.328125 0.265625,0.578125 0.65625,0.578125 0.6875,0 1,-0.953125 1,-1.0625 0,-0.09375 -0.09375,-0.09375 -0.109375,-0.09375 -0.09375,0 -0.109375,0.046875 -0.140625,0.125 -0.15625,0.5625 -0.453125,0.84375 -0.734375,0.84375 -0.140625,0 -0.171875,-0.09375 -0.171875,-0.25 0,-0.15625 0.046875,-0.28125 0.109375,-0.4375 C 1.46875,-1 1.546875,-1.1875 1.609375,-1.375 1.671875,-1.546875 1.9375,-2.171875 1.953125,-2.265625 1.984375,-2.328125 2,-2.40625 2,-2.484375 2,-2.8125 1.71875,-3.078125 1.34375,-3.078125 0.640625,-3.078125 0.328125,-2.125 0.328125,-2 c 0,0.078125 0.09375,0.078125 0.125,0.078125 0.09375,0 0.09375,-0.03125 0.125,-0.109375 C 0.75,-2.625 1.0625,-2.875 1.3125,-2.875 c 0.109375,0 0.171875,0.046875 0.171875,0.234375 0,0.171875 -0.03125,0.265625 -0.203125,0.703125 z m 0,0"
   id="id-4c58a8b1-3918-4a05-9f48-1f6e7983f95f" />
      </g><g
   transform="translate(158.332,136.259)"
   id="g19435"><path
   style="stroke:none;stroke-width:0"
   d="m 0.84375,-0.4375 c -0.015625,0.09375 -0.0625,0.265625 -0.0625,0.28125 0,0.15625 0.125,0.21875 0.234375,0.21875 0.125,0 0.234375,-0.078125 0.28125,-0.140625 0.03125,-0.0625 0.078125,-0.296875 0.125,-0.4375 0.03125,-0.125 0.109375,-0.453125 0.140625,-0.625 0.046875,-0.15625 0.09375,-0.3125 0.125,-0.46875 0.078125,-0.28125 0.09375,-0.34375 0.296875,-0.625 C 2.171875,-2.515625 2.5,-2.875 3.03125,-2.875 c 0.390625,0 0.40625,0.359375 0.40625,0.484375 0,0.421875 -0.296875,1.1875 -0.40625,1.484375 -0.078125,0.203125 -0.109375,0.265625 -0.109375,0.375 0,0.375 0.296875,0.59375 0.65625,0.59375 0.703125,0 1,-0.953125 1,-1.0625 0,-0.09375 -0.078125,-0.09375 -0.109375,-0.09375 -0.09375,0 -0.09375,0.046875 -0.125,0.125 C 4.1875,-0.40625 3.875,-0.125 3.609375,-0.125 c -0.15625,0 -0.1875,-0.09375 -0.1875,-0.25 0,-0.15625 0.046875,-0.25 0.171875,-0.5625 0.078125,-0.21875 0.359375,-0.953125 0.359375,-1.34375 0,-0.671875 -0.53125,-0.796875 -0.90625,-0.796875 -0.578125,0 -0.96875,0.359375 -1.171875,0.640625 -0.046875,-0.484375 -0.453125,-0.640625 -0.75,-0.640625 -0.296875,0 -0.453125,0.21875 -0.546875,0.375 -0.15625,0.265625 -0.25,0.65625 -0.25,0.703125 0,0.078125 0.09375,0.078125 0.125,0.078125 0.09375,0 0.09375,-0.015625 0.140625,-0.203125 0.109375,-0.40625 0.25,-0.75 0.515625,-0.75 0.1875,0 0.234375,0.15625 0.234375,0.34375 0,0.125 -0.0625,0.390625 -0.125,0.578125 -0.046875,0.1875 -0.109375,0.46875 -0.140625,0.625 z m 0,0"
   id="id-0ce89cdd-966b-415c-bac4-15e2ba4c24ab" />
      </g></g>
  </g>
</g><g
     transform="matrix(1.90407,0,0,1.90407,7.760266,68.985764)"
     ns4:version="1.2.0"
     ns4:texconverter="pdflatex"
     ns4:pdfconverter="inkscape"
     ns4:text="$\Gamma$  "
     ns4:preamble="/Users/hasanabbas/Library/Application Support/org.inkscape.Inkscape/config/inkscape/extensions/circuitSymbols/circuitSymbolsPreamble.tex"
     ns4:scale="1.4280594451486128"
     ns4:alignment="middle center"
     ns4:inkscapeversion="1.0.2"
     ns4:jacobian_sqrt="1.90407"
     id="g19546"><defs
   id="id-f2dfcf3e-2b1d-41c4-aae4-16e9d5c5afb5">
    <g
   id="id-f3970dc0-f39e-4e6e-966e-c82ef41e4b12">
      <symbol
   overflow="visible"
   id="id-45b748d0-249e-453c-94e6-e227358a223a">
        <path
   style="stroke:none"
   d=""
   id="id-350f24a5-ea0d-4b12-9232-c15897dd2aa1" />
      </symbol>
      <symbol
   overflow="visible"
   id="id-6b1ec671-f199-431a-a695-7f5427f51129">
        <path
   style="stroke:none"
   d="m 5.515625,-6.78125 h -5.1875 v 0.3125 H 0.5625 c 0.765625,0 0.796875,0.109375 0.796875,0.46875 v 5.21875 c 0,0.359375 -0.03125,0.46875 -0.796875,0.46875 H 0.328125 V 0 c 0.34375,-0.03125 1.125,-0.03125 1.515625,-0.03125 0.40625,0 1.3125,0 1.671875,0.03125 V -0.3125 H 3.1875 C 2.25,-0.3125 2.25,-0.4375 2.25,-0.78125 v -5.296875 c 0,-0.328125 0.015625,-0.390625 0.484375,-0.390625 h 1.03125 c 1.421875,0 1.625,0.59375 1.78125,1.9375 h 0.25 z m 0,0"
   id="id-f0d5e874-0d02-4f22-8769-2b98a4be26f3" />
      </symbol>
    </g>
  </defs>
  <g
   id="id-e246cfa7-c860-4955-bc29-76e1065d1670"
   transform="translate(-149.04,-127.984)">
    <g
   style="fill:#000000;fill-opacity:1"
   id="id-c5d86949-f508-425b-813b-b45947860429">
      <g
   transform="translate(148.712,134.765)"
   id="g19772"><path
   style="stroke:none"
   d="m 5.515625,-6.78125 h -5.1875 v 0.3125 H 0.5625 c 0.765625,0 0.796875,0.109375 0.796875,0.46875 v 5.21875 c 0,0.359375 -0.03125,0.46875 -0.796875,0.46875 H 0.328125 V 0 c 0.34375,-0.03125 1.125,-0.03125 1.515625,-0.03125 0.40625,0 1.3125,0 1.671875,0.03125 V -0.3125 H 3.1875 C 2.25,-0.3125 2.25,-0.4375 2.25,-0.78125 v -5.296875 c 0,-0.328125 0.015625,-0.390625 0.484375,-0.390625 h 1.03125 c 1.421875,0 1.625,0.59375 1.78125,1.9375 h 0.25 z m 0,0"
   id="id-1871aa47-0f7a-4fe4-b7a7-ac233988aec0" />
      </g></g>
  </g>
</g><path
     style="fill:none;stroke:#8a8a8a;stroke-width:1px;stroke-linecap:butt;stroke-linejoin:miter;stroke-opacity:1;marker-start:url(#EmptyTriangleInM);marker-end:url(#EmptyTriangleOutM)"
     d="M 71.703086,17.305864 H 231.31985"
     id="path20118"
     sodipodi:nodetypes="cc" /><g
     transform="matrix(1.90407,0,0,1.90407,118.94021,-9.5206e-6)"
     ns4:version="1.2.0"
     ns4:texconverter="pdflatex"
     ns4:pdfconverter="inkscape"
     ns4:text="$l = 0.3 \lambda$ 
"
     ns4:preamble="/Users/hasanabbas/Library/Application Support/org.inkscape.Inkscape/config/inkscape/extensions/circuitSymbols/circuitSymbolsPreamble.tex"
     ns4:scale="1.4280594451486128"
     ns4:alignment="middle center"
     ns4:inkscapeversion="1.0.2"
     ns4:jacobian_sqrt="1.90407"
     id="g20070"><defs
   id="id-fd3d12b8-9e9a-4eff-8dea-8d05dfd03fd9">
    <g
   id="id-85f9728c-021a-4702-adbd-8b4bfc21cdac">
      <symbol
   overflow="visible"
   id="id-4a4aa58e-586a-4759-a8fd-4dd5f52c025e">
        <path
   style="stroke:none"
   d=""
   id="id-cd2f37e8-7212-47ce-b7bf-e478d09b1a18" />
      </symbol>
      <symbol
   overflow="visible"
   id="id-823a1a4e-013a-4364-85e0-fda7a994927e">
        <path
   style="stroke:none"
   d="m 2.578125,-6.8125 c 0,0 0,-0.109375 -0.140625,-0.109375 -0.21875,0 -0.953125,0.078125 -1.21875,0.109375 -0.078125,0 -0.1875,0.015625 -0.1875,0.203125 0,0.109375 0.109375,0.109375 0.25,0.109375 0.484375,0 0.5,0.09375 0.5,0.171875 L 1.75,-6.125 0.484375,-1.140625 C 0.453125,-1.03125 0.4375,-0.96875 0.4375,-0.8125 c 0,0.578125 0.4375,0.921875 0.90625,0.921875 0.328125,0 0.578125,-0.203125 0.75,-0.5625 0.171875,-0.375 0.296875,-0.953125 0.296875,-0.96875 0,-0.109375 -0.09375,-0.109375 -0.125,-0.109375 -0.09375,0 -0.109375,0.046875 -0.125,0.1875 C 1.96875,-0.703125 1.78125,-0.109375 1.375,-0.109375 c -0.296875,0 -0.296875,-0.3125 -0.296875,-0.453125 0,-0.25 0.015625,-0.296875 0.0625,-0.484375 z m 0,0"
   id="id-48b96db3-a82f-4e0a-b1bb-d42f9cd9f1c8" />
      </symbol>
      <symbol
   overflow="visible"
   id="id-5e10a641-423f-4f3a-9625-3732de8a08e2">
        <path
   style="stroke:none"
   d="m 1.90625,-0.53125 c 0,-0.28125 -0.234375,-0.53125 -0.515625,-0.53125 -0.296875,0 -0.53125,0.25 -0.53125,0.53125 C 0.859375,-0.234375 1.09375,0 1.390625,0 1.671875,0 1.90625,-0.234375 1.90625,-0.53125 Z m 0,0"
   id="id-39b3afda-2a7f-4c65-830e-93b97b6ea1ef" />
      </symbol>
      <symbol
   overflow="visible"
   id="id-5ede5f4d-797d-4873-bc03-b1e8b6f158eb">
        <path
   style="stroke:none"
   d="m 3.5625,-2.90625 c 0.40625,1.046875 0.890625,2.5625 1.046875,2.796875 0.15625,0.21875 0.25,0.21875 0.53125,0.21875 h 0.21875 c 0.09375,-0.015625 0.109375,-0.0625 0.109375,-0.09375 0,-0.03125 -0.03125,-0.0625 -0.0625,-0.09375 C 5.3125,-0.1875 5.25,-0.34375 5.1875,-0.53125 L 3.15625,-6.203125 c -0.21875,-0.578125 -0.75,-0.71875 -1.21875,-0.71875 -0.046875,0 -0.1875,0 -0.1875,0.109375 0,0.078125 0.078125,0.109375 0.09375,0.109375 C 2.171875,-6.65625 2.25,-6.59375 2.5,-5.90625 l 0.953125,2.703125 -2.75,2.734375 c -0.109375,0.125 -0.171875,0.171875 -0.171875,0.3125 0,0.171875 0.140625,0.28125 0.296875,0.28125 0.15625,0 0.25,-0.109375 0.328125,-0.203125 z m 0,0"
   id="id-10e1afdd-5053-436b-8193-a26c1e35838a" />
      </symbol>
      <symbol
   overflow="visible"
   id="id-c05dce5d-bb2f-49a3-b2a9-062886294df3">
        <path
   style="stroke:none"
   d=""
   id="id-7b7a9fab-afae-44d5-8ead-adf8dd9f202d" />
      </symbol>
      <symbol
   overflow="visible"
   id="id-3bee42a8-1208-4825-a800-e6f4c6b7b5a6">
        <path
   style="stroke:none"
   d="m 6.84375,-3.265625 c 0.15625,0 0.34375,0 0.34375,-0.1875 C 7.1875,-3.65625 7,-3.65625 6.859375,-3.65625 h -5.96875 c -0.140625,0 -0.328125,0 -0.328125,0.203125 0,0.1875 0.1875,0.1875 0.328125,0.1875 z m 0.015625,1.9375 c 0.140625,0 0.328125,0 0.328125,-0.203125 0,-0.1875 -0.1875,-0.1875 -0.34375,-0.1875 H 0.890625 c -0.140625,0 -0.328125,0 -0.328125,0.1875 0,0.203125 0.1875,0.203125 0.328125,0.203125 z m 0,0"
   id="id-1d9c8b9c-592f-43fd-bb1a-0635cbb3d234" />
      </symbol>
      <symbol
   overflow="visible"
   id="id-7393dacc-29cb-4ae8-ae63-ab43a825d565">
        <path
   style="stroke:none"
   d="m 4.578125,-3.1875 c 0,-0.796875 -0.046875,-1.59375 -0.390625,-2.328125 -0.453125,-0.96875 -1.28125,-1.125 -1.6875,-1.125 -0.609375,0 -1.328125,0.265625 -1.75,1.1875 -0.3125,0.6875 -0.359375,1.46875 -0.359375,2.265625 0,0.75 0.03125,1.640625 0.453125,2.40625 0.421875,0.796875 1.15625,1 1.640625,1 0.53125,0 1.296875,-0.203125 1.734375,-1.15625 0.3125,-0.6875 0.359375,-1.46875 0.359375,-2.25 z M 2.484375,0 C 2.09375,0 1.5,-0.25 1.328125,-1.203125 1.21875,-1.796875 1.21875,-2.71875 1.21875,-3.3125 c 0,-0.640625 0,-1.296875 0.078125,-1.828125 0.1875,-1.1875 0.9375,-1.28125 1.1875,-1.28125 0.328125,0 0.984375,0.1875 1.171875,1.171875 0.109375,0.5625 0.109375,1.3125 0.109375,1.9375 0,0.75 0,1.421875 -0.109375,2.0625 C 3.5,-0.296875 2.9375,0 2.484375,0 Z m 0,0"
   id="id-c2c4a5a3-16ec-4702-82ab-4ac18ef581ef" />
      </symbol>
      <symbol
   overflow="visible"
   id="id-d48d3e12-9d80-40f0-8686-e38a1713a528">
        <path
   style="stroke:none"
   d="m 2.890625,-3.515625 c 0.8125,-0.265625 1.390625,-0.953125 1.390625,-1.75 0,-0.8125 -0.875,-1.375 -1.828125,-1.375 -1,0 -1.765625,0.59375 -1.765625,1.359375 0,0.328125 0.21875,0.515625 0.515625,0.515625 0.296875,0 0.5,-0.21875 0.5,-0.515625 0,-0.484375 -0.46875,-0.484375 -0.609375,-0.484375 0.296875,-0.5 0.953125,-0.625 1.3125,-0.625 0.421875,0 0.96875,0.21875 0.96875,1.109375 0,0.125 -0.03125,0.703125 -0.28125,1.140625 C 2.796875,-3.65625 2.453125,-3.625 2.203125,-3.625 2.125,-3.609375 1.890625,-3.59375 1.8125,-3.59375 c -0.078125,0.015625 -0.140625,0.03125 -0.140625,0.125 0,0.109375 0.0625,0.109375 0.234375,0.109375 h 0.4375 c 0.8125,0 1.1875,0.671875 1.1875,1.65625 0,1.359375 -0.6875,1.640625 -1.125,1.640625 -0.4375,0 -1.1875,-0.171875 -1.53125,-0.75 0.34375,0.046875 0.65625,-0.171875 0.65625,-0.546875 0,-0.359375 -0.265625,-0.5625 -0.546875,-0.5625 -0.25,0 -0.5625,0.140625 -0.5625,0.578125 0,0.90625 0.921875,1.5625 2.015625,1.5625 1.21875,0 2.125,-0.90625 2.125,-1.921875 0,-0.8125 -0.640625,-1.59375 -1.671875,-1.8125 z m 0,0"
   id="id-7d3e6b13-cf3f-45de-af03-7725b49a34a8" />
      </symbol>
    </g>
  </defs>
  <g
   id="id-41977e97-709c-4c08-9d23-069e73001151"
   transform="translate(-149.15,-127.843)">
    <g
   style="fill:#000000;fill-opacity:1"
   id="id-26789d65-3ead-4c6b-bfd9-68e302ec3483">
      <g
   transform="translate(148.712,134.765)"
   id="g20912"><path
   style="stroke:none"
   d="m 2.578125,-6.8125 c 0,0 0,-0.109375 -0.140625,-0.109375 -0.21875,0 -0.953125,0.078125 -1.21875,0.109375 -0.078125,0 -0.1875,0.015625 -0.1875,0.203125 0,0.109375 0.109375,0.109375 0.25,0.109375 0.484375,0 0.5,0.09375 0.5,0.171875 L 1.75,-6.125 0.484375,-1.140625 C 0.453125,-1.03125 0.4375,-0.96875 0.4375,-0.8125 c 0,0.578125 0.4375,0.921875 0.90625,0.921875 0.328125,0 0.578125,-0.203125 0.75,-0.5625 0.171875,-0.375 0.296875,-0.953125 0.296875,-0.96875 0,-0.109375 -0.09375,-0.109375 -0.125,-0.109375 -0.09375,0 -0.109375,0.046875 -0.125,0.1875 C 1.96875,-0.703125 1.78125,-0.109375 1.375,-0.109375 c -0.296875,0 -0.296875,-0.3125 -0.296875,-0.453125 0,-0.25 0.015625,-0.296875 0.0625,-0.484375 z m 0,0"
   id="id-63a2c43a-bb2e-45da-9909-f549440bca1c" />
      </g></g>
    <g
   style="fill:#000000;fill-opacity:1"
   id="id-073d3a2e-6acc-4aad-be33-6c48223a980b">
      <g
   transform="translate(154.648,134.765)"
   id="g20916"><path
   style="stroke:none"
   d="m 6.84375,-3.265625 c 0.15625,0 0.34375,0 0.34375,-0.1875 C 7.1875,-3.65625 7,-3.65625 6.859375,-3.65625 h -5.96875 c -0.140625,0 -0.328125,0 -0.328125,0.203125 0,0.1875 0.1875,0.1875 0.328125,0.1875 z m 0.015625,1.9375 c 0.140625,0 0.328125,0 0.328125,-0.203125 0,-0.1875 -0.1875,-0.1875 -0.34375,-0.1875 H 0.890625 c -0.140625,0 -0.328125,0 -0.328125,0.1875 0,0.203125 0.1875,0.203125 0.328125,0.203125 z m 0,0"
   id="id-56c1a993-7f5b-4acf-8f03-c94a6aa12836" />
      </g></g>
    <g
   style="fill:#000000;fill-opacity:1"
   id="id-b00dd369-fd31-40f8-bd03-842ba2f5c838">
      <g
   transform="translate(165.167,134.765)"
   id="g20920"><path
   style="stroke:none"
   d="m 4.578125,-3.1875 c 0,-0.796875 -0.046875,-1.59375 -0.390625,-2.328125 -0.453125,-0.96875 -1.28125,-1.125 -1.6875,-1.125 -0.609375,0 -1.328125,0.265625 -1.75,1.1875 -0.3125,0.6875 -0.359375,1.46875 -0.359375,2.265625 0,0.75 0.03125,1.640625 0.453125,2.40625 0.421875,0.796875 1.15625,1 1.640625,1 0.53125,0 1.296875,-0.203125 1.734375,-1.15625 0.3125,-0.6875 0.359375,-1.46875 0.359375,-2.25 z M 2.484375,0 C 2.09375,0 1.5,-0.25 1.328125,-1.203125 1.21875,-1.796875 1.21875,-2.71875 1.21875,-3.3125 c 0,-0.640625 0,-1.296875 0.078125,-1.828125 0.1875,-1.1875 0.9375,-1.28125 1.1875,-1.28125 0.328125,0 0.984375,0.1875 1.171875,1.171875 0.109375,0.5625 0.109375,1.3125 0.109375,1.9375 0,0.75 0,1.421875 -0.109375,2.0625 C 3.5,-0.296875 2.9375,0 2.484375,0 Z m 0,0"
   id="id-c9146979-a386-4461-b10c-8be1c1cfb526" />
      </g></g>
    <g
   style="fill:#000000;fill-opacity:1"
   id="id-7e782b48-e503-4346-98ef-cd4bcfe95609">
      <g
   transform="translate(170.146,134.765)"
   id="g20924"><path
   style="stroke:none"
   d="m 1.90625,-0.53125 c 0,-0.28125 -0.234375,-0.53125 -0.515625,-0.53125 -0.296875,0 -0.53125,0.25 -0.53125,0.53125 C 0.859375,-0.234375 1.09375,0 1.390625,0 1.671875,0 1.90625,-0.234375 1.90625,-0.53125 Z m 0,0"
   id="id-cbc8b635-f2ea-46f3-b47b-1fd7f90ecc50" />
      </g></g>
    <g
   style="fill:#000000;fill-opacity:1"
   id="id-2e7689ba-1b1b-4246-ad9b-d1bd1aa35844">
      <g
   transform="translate(172.913,134.765)"
   id="g20928"><path
   style="stroke:none"
   d="m 2.890625,-3.515625 c 0.8125,-0.265625 1.390625,-0.953125 1.390625,-1.75 0,-0.8125 -0.875,-1.375 -1.828125,-1.375 -1,0 -1.765625,0.59375 -1.765625,1.359375 0,0.328125 0.21875,0.515625 0.515625,0.515625 0.296875,0 0.5,-0.21875 0.5,-0.515625 0,-0.484375 -0.46875,-0.484375 -0.609375,-0.484375 0.296875,-0.5 0.953125,-0.625 1.3125,-0.625 0.421875,0 0.96875,0.21875 0.96875,1.109375 0,0.125 -0.03125,0.703125 -0.28125,1.140625 C 2.796875,-3.65625 2.453125,-3.625 2.203125,-3.625 2.125,-3.609375 1.890625,-3.59375 1.8125,-3.59375 c -0.078125,0.015625 -0.140625,0.03125 -0.140625,0.125 0,0.109375 0.0625,0.109375 0.234375,0.109375 h 0.4375 c 0.8125,0 1.1875,0.671875 1.1875,1.65625 0,1.359375 -0.6875,1.640625 -1.125,1.640625 -0.4375,0 -1.1875,-0.171875 -1.53125,-0.75 0.34375,0.046875 0.65625,-0.171875 0.65625,-0.546875 0,-0.359375 -0.265625,-0.5625 -0.546875,-0.5625 -0.25,0 -0.5625,0.140625 -0.5625,0.578125 0,0.90625 0.921875,1.5625 2.015625,1.5625 1.21875,0 2.125,-0.90625 2.125,-1.921875 0,-0.8125 -0.640625,-1.59375 -1.671875,-1.8125 z m 0,0"
   id="id-00842a03-dbd8-4699-8935-6a01d6bea8c5" />
      </g></g>
    <g
   style="fill:#000000;fill-opacity:1"
   id="id-29339a7d-7e18-4a10-924a-f28c8a04279f">
      <g
   transform="translate(177.894,134.765)"
   id="g20932"><path
   style="stroke:none"
   d="m 3.5625,-2.90625 c 0.40625,1.046875 0.890625,2.5625 1.046875,2.796875 0.15625,0.21875 0.25,0.21875 0.53125,0.21875 h 0.21875 c 0.09375,-0.015625 0.109375,-0.0625 0.109375,-0.09375 0,-0.03125 -0.03125,-0.0625 -0.0625,-0.09375 C 5.3125,-0.1875 5.25,-0.34375 5.1875,-0.53125 L 3.15625,-6.203125 c -0.21875,-0.578125 -0.75,-0.71875 -1.21875,-0.71875 -0.046875,0 -0.1875,0 -0.1875,0.109375 0,0.078125 0.078125,0.109375 0.09375,0.109375 C 2.171875,-6.65625 2.25,-6.59375 2.5,-5.90625 l 0.953125,2.703125 -2.75,2.734375 c -0.109375,0.125 -0.171875,0.171875 -0.171875,0.3125 0,0.171875 0.140625,0.28125 0.296875,0.28125 0.15625,0 0.25,-0.109375 0.328125,-0.203125 z m 0,0"
   id="id-f1b795f6-8c33-453b-9d17-354256c241ea" />
      </g></g>
  </g>
</g></svg>
