<?xml version="1.0" encoding="UTF-8" standalone="no"?>
<svg
   xmlns:ns7="http://www.iki.fi/pav/software/textext/"
   xmlns:dc="http://purl.org/dc/elements/1.1/"
   xmlns:cc="http://creativecommons.org/ns#"
   xmlns:rdf="http://www.w3.org/1999/02/22-rdf-syntax-ns#"
   xmlns:svg="http://www.w3.org/2000/svg"
   xmlns="http://www.w3.org/2000/svg"
   xmlns:sodipodi="http://sodipodi.sourceforge.net/DTD/sodipodi-0.dtd"
   xmlns:inkscape="http://www.inkscape.org/namespaces/inkscape"
   version="1.1"
   id="svg3870"
   xml:space="preserve"
   width="446.0636"
   height="201.99304"
   viewBox="0 0 446.0636 201.99303"
   sodipodi:docname="1702.06111.svg"
   inkscape:version="1.0.2 (e86c8708, 2021-01-15)"><metadata
     id="metadata3876"><rdf:RDF><cc:Work
         rdf:about=""><dc:format>image/svg+xml</dc:format><dc:type
           rdf:resource="http://purl.org/dc/dcmitype/StillImage" /><dc:title></dc:title></cc:Work></rdf:RDF></metadata><defs
     id="defs3874"><marker
       style="overflow:visible"
       id="marker5256"
       refX="0"
       refY="0"
       orient="auto"
       inkscape:stockid="Arrow2Lend"
       inkscape:isstock="true"><path
         transform="matrix(-1.1,0,0,-1.1,-1.1,0)"
         d="M 8.7185878,4.0337352 -2.2072895,0.01601326 8.7185884,-4.0017078 c -1.7454984,2.3720609 -1.7354408,5.6174519 -6e-7,8.035443 z"
         style="fill-rule:evenodd;stroke-width:0.625;stroke-linejoin:round"
         id="path5254" /></marker><marker
       style="overflow:visible"
       id="Arrow2Lstart"
       refX="0"
       refY="0"
       orient="auto"
       inkscape:stockid="Arrow2Lstart"
       inkscape:isstock="true"><path
         transform="matrix(1.1,0,0,1.1,1.1,0)"
         d="M 8.7185878,4.0337352 -2.2072895,0.01601326 8.7185884,-4.0017078 c -1.7454984,2.3720609 -1.7354408,5.6174519 -6e-7,8.035443 z"
         style="fill-rule:evenodd;stroke-width:0.625;stroke-linejoin:round"
         id="path4988" /></marker><marker
       style="overflow:visible"
       id="Arrow2Lend"
       refX="0"
       refY="0"
       orient="auto"
       inkscape:stockid="Arrow2Lend"
       inkscape:isstock="true"><path
         transform="matrix(-1.1,0,0,-1.1,-1.1,0)"
         d="M 8.7185878,4.0337352 -2.2072895,0.01601326 8.7185884,-4.0017078 c -1.7454984,2.3720609 -1.7354408,5.6174519 -6e-7,8.035443 z"
         style="fill-rule:evenodd;stroke-width:0.625;stroke-linejoin:round"
         id="path4991" /></marker><clipPath
       clipPathUnits="userSpaceOnUse"
       id="clipPath4086"><path
         d=""
         id="path4084" /></clipPath></defs><sodipodi:namedview
     pagecolor="#ffffff"
     bordercolor="#666666"
     borderopacity="1"
     objecttolerance="10"
     gridtolerance="10"
     guidetolerance="10"
     inkscape:pageopacity="0"
     inkscape:pageshadow="2"
     inkscape:window-width="640"
     inkscape:window-height="480"
     id="namedview3872"
     showgrid="false"
     inkscape:zoom="1.1410011"
     inkscape:cx="214.66015"
     inkscape:cy="82.167709"
     inkscape:current-layer="g3878"
     fit-margin-top="0"
     fit-margin-left="0"
     fit-margin-right="0"
     fit-margin-bottom="0"
     inkscape:document-rotation="0" /><g
     id="g3878"
     inkscape:groupmode="layer"
     inkscape:label="1702.06111"
     transform="matrix(1.3333333,0,0,-1.3333333,43.896212,737.94594)"><g
       id="g4925"
       transform="rotate(-30,-17.538781,727.6154)"><path
         d="m 382.85,650.117 v 7.39226"
         style="fill:none;stroke:#000000;stroke-width:1.23618;stroke-linecap:butt;stroke-linejoin:miter;stroke-miterlimit:10;stroke-dasharray:none;stroke-opacity:1"
         id="path3958"
         sodipodi:nodetypes="cc" /><path
         d="m 382.85,650.117 h 9.202 v -13.703 h -9.202 z"
         style="fill:none;stroke:#000000;stroke-width:1.23618;stroke-linecap:butt;stroke-linejoin:miter;stroke-miterlimit:10;stroke-dasharray:none;stroke-opacity:1"
         id="path3962"
         sodipodi:nodetypes="ccccc" /></g><g
       id="g4920"
       transform="translate(-103.33903,-172.23172)"
       style="stroke:#ff0000;stroke-width:1.29975;stroke-miterlimit:4;stroke-dasharray:2.5995, 1.29975;stroke-dashoffset:0;stroke-opacity:1"><path
         d="M 273.18509,692.53163 384.74813,634.0877"
         style="fill:none;stroke:#ff0000;stroke-width:1.29975;stroke-linecap:butt;stroke-linejoin:miter;stroke-miterlimit:4;stroke-dasharray:2.5995, 1.29975;stroke-dashoffset:0;stroke-opacity:1"
         id="path4046"
         sodipodi:nodetypes="cc" /></g><g
       id="g4914"
       transform="translate(-160.74961,-140.33696)"><path
         d="m 296.54,548.542 25.142,12.235 -50.368,-0.108 z"
         style="fill:none;stroke:#000000;stroke-width:0.927132;stroke-linecap:butt;stroke-linejoin:miter;stroke-miterlimit:10;stroke-dasharray:none;stroke-opacity:1"
         id="path3890" /><path
         d="m 296.372,663.179 0.056,-120.877"
         style="fill:none;stroke:#000000;stroke-width:1.54522;stroke-linecap:butt;stroke-linejoin:miter;stroke-miterlimit:10;stroke-dasharray:none;stroke-opacity:1"
         id="path3892" /><path
         d="M 295.205,663.202 C 290.029,625.103 281.242,587.581 268.964,551.144"
         style="fill:none;stroke:#000000;stroke-width:1.54522;stroke-linecap:butt;stroke-linejoin:miter;stroke-miterlimit:10;stroke-dasharray:none;stroke-opacity:1"
         id="path3894" /><path
         d="m 324.591,551.144 c -12.62,36.39 -21.67,73.922 -27.022,112.064"
         style="fill:none;stroke:#000000;stroke-width:1.54522;stroke-linecap:butt;stroke-linejoin:miter;stroke-miterlimit:10;stroke-dasharray:none;stroke-opacity:1"
         id="path3896" /><path
         d="m 296.428,572.045 18.543,9.271 h -37.085 z"
         style="fill:none;stroke:#000000;stroke-width:0.927132;stroke-linecap:butt;stroke-linejoin:miter;stroke-miterlimit:10;stroke-dasharray:none;stroke-opacity:1"
         id="path3898" /><path
         d="m 296.428,597.501 12.362,6.181 h -24.724 z"
         style="fill:none;stroke:#000000;stroke-width:0.927132;stroke-linecap:butt;stroke-linejoin:miter;stroke-miterlimit:10;stroke-dasharray:none;stroke-opacity:1"
         id="path3900" /><path
         d="m 296.428,624.663 6.181,3.09 h -12.362 z"
         style="fill:none;stroke:#000000;stroke-width:0.927132;stroke-linecap:butt;stroke-linejoin:miter;stroke-miterlimit:10;stroke-dasharray:none;stroke-opacity:1"
         id="path3902" /><path
         d="M 277.886,581.316 296.54,548.542"
         style="fill:none;stroke:#000000;stroke-width:0.927132;stroke-linecap:butt;stroke-linejoin:miter;stroke-miterlimit:10;stroke-dasharray:none;stroke-opacity:1"
         id="path3916" /><path
         d="m 271.314,560.669 25.114,11.376"
         style="fill:none;stroke:#000000;stroke-width:0.927132;stroke-linecap:butt;stroke-linejoin:miter;stroke-miterlimit:10;stroke-dasharray:none;stroke-opacity:1"
         id="path3918" /><path
         d="m 284.066,603.682 12.362,-31.637"
         style="fill:none;stroke:#000000;stroke-width:0.927132;stroke-linecap:butt;stroke-linejoin:miter;stroke-miterlimit:10;stroke-dasharray:none;stroke-opacity:1"
         id="path3920" /><path
         d="M 296.428,597.501 277.886,581.316"
         style="fill:none;stroke:#000000;stroke-width:0.927132;stroke-linecap:butt;stroke-linejoin:miter;stroke-miterlimit:10;stroke-dasharray:none;stroke-opacity:1"
         id="path3922" /><path
         d="m 296.428,597.501 18.543,-16.185"
         style="fill:none;stroke:#000000;stroke-width:0.927132;stroke-linecap:butt;stroke-linejoin:miter;stroke-miterlimit:10;stroke-dasharray:none;stroke-opacity:1"
         id="path3924" /><path
         d="M 308.79,603.682 296.428,572.045"
         style="fill:none;stroke:#000000;stroke-width:0.927132;stroke-linecap:butt;stroke-linejoin:miter;stroke-miterlimit:10;stroke-dasharray:none;stroke-opacity:1"
         id="path3926" /><path
         d="m 296.428,572.045 25.254,-11.268"
         style="fill:none;stroke:#000000;stroke-width:0.927132;stroke-linecap:butt;stroke-linejoin:miter;stroke-miterlimit:10;stroke-dasharray:none;stroke-opacity:1"
         id="path3928" /><path
         d="m 296.54,548.542 18.431,32.774"
         style="fill:none;stroke:#000000;stroke-width:0.927132;stroke-linecap:butt;stroke-linejoin:miter;stroke-miterlimit:10;stroke-dasharray:none;stroke-opacity:1"
         id="path3930" /><path
         d="M 296.428,624.663 308.79,603.682"
         style="fill:none;stroke:#000000;stroke-width:0.927132;stroke-linecap:butt;stroke-linejoin:miter;stroke-miterlimit:10;stroke-dasharray:none;stroke-opacity:1"
         id="path3932" /><path
         d="M 296.428,624.663 284.066,603.682"
         style="fill:none;stroke:#000000;stroke-width:0.927132;stroke-linecap:butt;stroke-linejoin:miter;stroke-miterlimit:10;stroke-dasharray:none;stroke-opacity:1"
         id="path3934" /><path
         d="m 296.428,597.501 -6.181,30.252"
         style="fill:none;stroke:#000000;stroke-width:0.927132;stroke-linecap:butt;stroke-linejoin:miter;stroke-miterlimit:10;stroke-dasharray:none;stroke-opacity:1"
         id="path3936" /><path
         d="m 296.428,597.501 6.181,30.252"
         style="fill:none;stroke:#000000;stroke-width:0.927132;stroke-linecap:butt;stroke-linejoin:miter;stroke-miterlimit:10;stroke-dasharray:none;stroke-opacity:1"
         id="path3938" /><path
         d="m 296.554,640.396 3.091,1.545 h -6.181 z"
         style="fill:none;stroke:#000000;stroke-width:0.927132;stroke-linecap:butt;stroke-linejoin:miter;stroke-miterlimit:10;stroke-dasharray:none;stroke-opacity:1"
         id="path3940" /><path
         d="m 324.15,672.27 c 0,-4.677 -12.438,-8.468 -27.782,-8.468 -15.343,0 -27.782,3.791 -27.782,8.468 0,4.676 12.439,8.468 27.782,8.468 15.344,0 27.782,-3.792 27.782,-8.468"
         style="fill:#ffffff;fill-opacity:1;fill-rule:nonzero;stroke:none;stroke-width:0.1"
         id="path3948" /><path
         d="m 324.15,672.27 c 0,-4.677 -12.438,-8.468 -27.782,-8.468 -15.343,0 -27.782,3.791 -27.782,8.468 0,4.676 12.439,8.468 27.782,8.468 15.344,0 27.782,-3.792 27.782,-8.468 z"
         style="fill:none;stroke:#000000;stroke-width:1.23618;stroke-linecap:butt;stroke-linejoin:miter;stroke-miterlimit:10;stroke-dasharray:none;stroke-opacity:1"
         id="path3950" /><path
         d="m 268.586,672.27 0.023,10.625"
         style="fill:none;stroke:#000000;stroke-width:1.23618;stroke-linecap:butt;stroke-linejoin:miter;stroke-miterlimit:10;stroke-dasharray:none;stroke-opacity:1"
         id="path3970" /><path
         d="m 271.707,685.979 -3.098,-3.084 -3.084,3.097"
         style="fill:none;stroke:#000000;stroke-width:1.23618;stroke-linecap:butt;stroke-linejoin:miter;stroke-miterlimit:10;stroke-dasharray:none;stroke-opacity:1"
         id="path3972" /><path
         d="m 276.723,666.282 0.251,9.588"
         style="fill:none;stroke:#000000;stroke-width:1.23618;stroke-linecap:butt;stroke-linejoin:miter;stroke-miterlimit:10;stroke-dasharray:none;stroke-opacity:1"
         id="path3974" /><path
         d="m 280.144,678.878 -3.17,-3.008 -3.009,3.169"
         style="fill:none;stroke:#000000;stroke-width:1.23618;stroke-linecap:butt;stroke-linejoin:miter;stroke-miterlimit:10;stroke-dasharray:none;stroke-opacity:1"
         id="path3976" /><path
         d="m 296.368,663.802 v 10.755"
         style="fill:none;stroke:#000000;stroke-width:1.23618;stroke-linecap:butt;stroke-linejoin:miter;stroke-miterlimit:10;stroke-dasharray:none;stroke-opacity:1"
         id="path3978" /><path
         d="m 299.459,677.647 -3.091,-3.09 -3.09,3.09"
         style="fill:none;stroke:#000000;stroke-width:1.23618;stroke-linecap:butt;stroke-linejoin:miter;stroke-miterlimit:10;stroke-dasharray:none;stroke-opacity:1"
         id="path3980" /><path
         d="m 324.15,672.27 -0.071,9.374"
         style="fill:none;stroke:#000000;stroke-width:1.23618;stroke-linecap:butt;stroke-linejoin:miter;stroke-miterlimit:10;stroke-dasharray:none;stroke-opacity:1"
         id="path3982" /><path
         d="m 327.145,684.757 -3.066,-3.113 -3.115,3.066"
         style="fill:none;stroke:#000000;stroke-width:1.23618;stroke-linecap:butt;stroke-linejoin:miter;stroke-miterlimit:10;stroke-dasharray:none;stroke-opacity:1"
         id="path3984" /><path
         d="M 276.723,678.257 277,687.706"
         style="fill:none;stroke:#000000;stroke-width:1.23618;stroke-linecap:butt;stroke-linejoin:miter;stroke-miterlimit:10;stroke-dasharray:none;stroke-opacity:1"
         id="path3986" /><path
         d="m 280.179,690.705 -3.179,-2.999 -2.999,3.18"
         style="fill:none;stroke:#000000;stroke-width:1.23618;stroke-linecap:butt;stroke-linejoin:miter;stroke-miterlimit:10;stroke-dasharray:none;stroke-opacity:1"
         id="path3988" /><path
         d="m 306.269,680.268 v 9.271"
         style="fill:none;stroke:#000000;stroke-width:1.23618;stroke-linecap:butt;stroke-linejoin:miter;stroke-miterlimit:10;stroke-dasharray:none;stroke-opacity:1"
         id="path3990" /><path
         d="m 309.359,692.63 -3.09,-3.091 -3.091,3.091"
         style="fill:none;stroke:#000000;stroke-width:1.23618;stroke-linecap:butt;stroke-linejoin:miter;stroke-miterlimit:10;stroke-dasharray:none;stroke-opacity:1"
         id="path3992" /><path
         d="m 286.347,680.231 v 9.271"
         style="fill:none;stroke:#000000;stroke-width:1.23618;stroke-linecap:butt;stroke-linejoin:miter;stroke-miterlimit:10;stroke-dasharray:none;stroke-opacity:1"
         id="path3994" /><path
         d="m 289.437,692.593 -3.09,-3.091 -3.091,3.091"
         style="fill:none;stroke:#000000;stroke-width:1.23618;stroke-linecap:butt;stroke-linejoin:miter;stroke-miterlimit:10;stroke-dasharray:none;stroke-opacity:1"
         id="path3996" /><path
         d="m 296.368,680.738 -0.033,9.521"
         style="fill:none;stroke:#000000;stroke-width:1.23618;stroke-linecap:butt;stroke-linejoin:miter;stroke-miterlimit:10;stroke-dasharray:none;stroke-opacity:1"
         id="path3998" /><path
         d="m 299.414,693.361 -3.079,-3.102 -3.101,3.08"
         style="fill:none;stroke:#000000;stroke-width:1.23618;stroke-linecap:butt;stroke-linejoin:miter;stroke-miterlimit:10;stroke-dasharray:none;stroke-opacity:1"
         id="path4000" /><path
         d="m 316.013,678.257 -0.209,9.64"
         style="fill:none;stroke:#000000;stroke-width:1.23618;stroke-linecap:butt;stroke-linejoin:miter;stroke-miterlimit:10;stroke-dasharray:none;stroke-opacity:1"
         id="path4002" /><path
         d="m 318.827,691.054 -3.023,-3.157 -3.157,3.023"
         style="fill:none;stroke:#000000;stroke-width:1.23618;stroke-linecap:butt;stroke-linejoin:miter;stroke-miterlimit:10;stroke-dasharray:none;stroke-opacity:1"
         id="path4004" /><path
         d="m 286.334,664.507 v 9.271"
         style="fill:none;stroke:#000000;stroke-width:1.23618;stroke-linecap:butt;stroke-linejoin:miter;stroke-miterlimit:10;stroke-dasharray:none;stroke-opacity:1"
         id="path4006" /><path
         d="m 289.424,676.869 -3.09,-3.091 -3.091,3.091"
         style="fill:none;stroke:#000000;stroke-width:1.23618;stroke-linecap:butt;stroke-linejoin:miter;stroke-miterlimit:10;stroke-dasharray:none;stroke-opacity:1"
         id="path4008" /><path
         d="m 316.013,666.282 -0.192,9.299"
         style="fill:none;stroke:#000000;stroke-width:1.23618;stroke-linecap:butt;stroke-linejoin:miter;stroke-miterlimit:10;stroke-dasharray:none;stroke-opacity:1"
         id="path4010" /><path
         d="m 318.847,678.735 -3.026,-3.154 -3.153,3.026"
         style="fill:none;stroke:#000000;stroke-width:1.23618;stroke-linecap:butt;stroke-linejoin:miter;stroke-miterlimit:10;stroke-dasharray:none;stroke-opacity:1"
         id="path4012" /><path
         d="m 306.334,664.51 v 9.271"
         style="fill:none;stroke:#000000;stroke-width:1.23618;stroke-linecap:butt;stroke-linejoin:miter;stroke-miterlimit:10;stroke-dasharray:none;stroke-opacity:1"
         id="path4014" /><path
         d="m 309.425,676.872 -3.091,-3.091 -3.09,3.091"
         style="fill:none;stroke:#000000;stroke-width:1.23618;stroke-linecap:butt;stroke-linejoin:miter;stroke-miterlimit:10;stroke-dasharray:none;stroke-opacity:1"
         id="path4016" /><path
         d="m 294.103,648.781 h 1.35664 v 1.14609 H 294.103 Z"
         style="fill:#ffffff;fill-opacity:1;fill-rule:nonzero;stroke:none;stroke-width:0.1"
         id="path4064" /><path
         d="m 294.103,648.781 h 1.35664 v 1.14609 H 294.103 Z"
         style="fill:none;stroke:#ffffff;stroke-width:0.309044;stroke-linecap:butt;stroke-linejoin:miter;stroke-miterlimit:10;stroke-dasharray:none;stroke-opacity:1"
         id="path4066" /><path
         d="m 297.326,648.761 h 1.35664 v 1.1457 H 297.326 Z"
         style="fill:#ffffff;fill-opacity:1;fill-rule:nonzero;stroke:none;stroke-width:0.1"
         id="path4068" /><path
         d="m 297.326,648.761 h 1.35664 v 1.1457 H 297.326 Z"
         style="fill:none;stroke:#ffffff;stroke-width:0.309044;stroke-linecap:butt;stroke-linejoin:miter;stroke-miterlimit:10;stroke-dasharray:none;stroke-opacity:1"
         id="path4070" /></g><g
       id="g4080"
       transform="scale(0.1)"><g
         id="g4082"
         clip-path="url(#clipPath4086)"><g
           id="g4088"
           transform="scale(10)"><text
             transform="matrix(1,0,0,-1,-16.0801,502.56)"
             style="font-variant:normal;font-size:11.9552px;font-family:NimbusRomNo9L;-inkscape-font-specification:NimbusRomNo9L-Regu;writing-mode:lr-tb;fill:#000000;fill-opacity:1;fill-rule:nonzero;stroke:none"
             id="text4092"><tspan
               x="0 6.6000171 13.200033 17.160044 21.120054 26.400068 35.52002 39.48003 44.760044 50.760059 54.120068 59.400082 64.680099 69.960114 79.320137 84.600151 90.600166 93.960182"
               y="0"
               sodipodi:role="line"
               id="tspan4090">PSfragreplacements</tspan></text></g><g
           id="g4094"
           transform="matrix(986.4,0,0,-4.8,-160.92,4984.68)"><rect
             x="0"
             y="0"
             width="1"
             height="1"
             transform="matrix(1,0,0,-1,0,1)"
             style="fill:#000000;fill-opacity:1;fill-rule:nonzero"
             id="rect4096" /></g></g></g><g
       id="g4964"
       transform="matrix(-0.96592583,0.25881905,0.25881905,0.96592583,186.64923,-269.89348)"><path
         d="m 382.85,650.117 v 7.39226"
         style="fill:none;stroke:#000000;stroke-width:1.23618;stroke-linecap:butt;stroke-linejoin:miter;stroke-miterlimit:10;stroke-dasharray:none;stroke-opacity:1"
         id="path4960"
         sodipodi:nodetypes="cc" /><path
         d="m 382.85,650.117 h 9.202 v -13.703 h -9.202 z"
         style="fill:none;stroke:#000000;stroke-width:1.23618;stroke-linecap:butt;stroke-linejoin:miter;stroke-miterlimit:10;stroke-dasharray:none;stroke-opacity:1"
         id="path4962"
         sodipodi:nodetypes="ccccc" /></g><g
       id="g4968"
       transform="matrix(-1,0,0,1,375.81659,-172.23172)"
       style="stroke:#0057ff;stroke-width:1.29975;stroke-miterlimit:4;stroke-dasharray:3.89925, 1.29975;stroke-dashoffset:0;stroke-opacity:1"><path
         d="M 273.18509,692.53163 384.74813,634.0877"
         style="fill:none;stroke:#0057ff;stroke-width:1.29975;stroke-linecap:butt;stroke-linejoin:miter;stroke-miterlimit:4;stroke-dasharray:3.89925, 1.29975;stroke-dashoffset:0;stroke-opacity:1"
         id="path4966"
         sodipodi:nodetypes="cc" /></g><g
       transform="matrix(1.33333,0,0,-1.33333,215.85886,510.75105)"
       ns7:version="1.3.1"
       ns7:texconverter="pdflatex"
       ns7:pdfconverter="inkscape"
       ns7:text="$2.45 \\, \\mathrm{GHz}$\n"
       ns7:preamble="/Users/hasanabbas/Library/Application Support/org.inkscape.Inkscape/config/inkscape/extensions/inkscapeMadeEasy/basicLatexPackages.tex"
       ns7:scale="1.0"
       ns7:alignment="middle center"
       ns7:inkscapeversion="1.0.2"
       ns7:jacobian_sqrt="1.33333"
       id="g5429"><defs
   id="id-0a8feabf-db3a-46cc-a9b3-20b5f8aed7de">
    <g
   id="id-fe91307a-f20e-4af7-abfa-c7314dd3e8a8">
      <symbol
   overflow="visible"
   id="id-9a947760-9e4d-418d-b100-212b10a53f4e">
        <path
   style="stroke:none;stroke-width:0"
   d=""
   id="id-4a8fa3e4-fb40-48c1-a32d-f3d4efaa164d" />
      </symbol>
      <symbol
   overflow="visible"
   id="id-68ff053a-a83c-4987-8e2f-283dc0cfbe50">
        <path
   style="stroke:none;stroke-width:0"
   d="m 1.265625,-0.765625 1.0625,-1.03125 c 1.546875,-1.375 2.140625,-1.90625 2.140625,-2.90625 0,-1.140625 -0.890625,-1.9375 -2.109375,-1.9375 -1.125,0 -1.859375,0.921875 -1.859375,1.8125 0,0.546875 0.5,0.546875 0.53125,0.546875 0.171875,0 0.515625,-0.109375 0.515625,-0.53125 0,-0.25 -0.1875,-0.515625 -0.53125,-0.515625 -0.078125,0 -0.09375,0 -0.125,0.015625 0.21875,-0.65625 0.765625,-1.015625 1.34375,-1.015625 0.90625,0 1.328125,0.8125 1.328125,1.625 C 3.5625,-3.90625 3.078125,-3.125 2.515625,-2.5 l -1.90625,2.125 C 0.5,-0.265625 0.5,-0.234375 0.5,0 H 4.203125 L 4.46875,-1.734375 H 4.234375 C 4.171875,-1.4375 4.109375,-1 4,-0.84375 3.9375,-0.765625 3.28125,-0.765625 3.0625,-0.765625 Z m 0,0"
   id="id-c18cf743-5b3a-4368-830e-06563f521283" />
      </symbol>
      <symbol
   overflow="visible"
   id="id-63da76a7-4295-40c3-bec6-003be345dd7b">
        <path
   style="stroke:none;stroke-width:0"
   d="m 2.9375,-1.640625 v 0.859375 c 0,0.359375 -0.03125,0.46875 -0.765625,0.46875 H 1.96875 V 0 C 2.375,-0.03125 2.890625,-0.03125 3.3125,-0.03125 c 0.421875,0 0.9375,0 1.359375,0.03125 v -0.3125 h -0.21875 c -0.734375,0 -0.75,-0.109375 -0.75,-0.46875 V -1.640625 H 4.6875 v -0.3125 H 3.703125 v -4.53125 c 0,-0.203125 0,-0.265625 -0.171875,-0.265625 -0.078125,0 -0.109375,0 -0.1875,0.125 l -3.0625,4.671875 v 0.3125 z m 0.046875,-0.3125 H 0.5625 l 2.421875,-3.71875 z m 0,0"
   id="id-ef29c39a-fa3c-4866-905b-232bca83d18e" />
      </symbol>
      <symbol
   overflow="visible"
   id="id-cf4e2fca-9011-4771-ab69-d8c4ff70f437">
        <path
   style="stroke:none;stroke-width:0"
   d="m 4.46875,-2 c 0,-1.1875 -0.8125,-2.1875 -1.890625,-2.1875 -0.46875,0 -0.90625,0.15625 -1.265625,0.515625 V -5.625 c 0.203125,0.0625 0.53125,0.125 0.84375,0.125 1.234375,0 1.9375,-0.90625 1.9375,-1.03125 0,-0.0625 -0.03125,-0.109375 -0.109375,-0.109375 0,0 -0.03125,0 -0.078125,0.03125 C 3.703125,-6.515625 3.21875,-6.3125 2.546875,-6.3125 2.15625,-6.3125 1.6875,-6.390625 1.21875,-6.59375 1.140625,-6.625 1.125,-6.625 1.109375,-6.625 1,-6.625 1,-6.546875 1,-6.390625 V -3.4375 c 0,0.171875 0,0.25 0.140625,0.25 0.078125,0 0.09375,-0.015625 0.140625,-0.078125 C 1.390625,-3.421875 1.75,-3.96875 2.5625,-3.96875 c 0.515625,0 0.765625,0.453125 0.84375,0.640625 0.15625,0.375 0.1875,0.75 0.1875,1.25 0,0.359375 0,0.953125 -0.25,1.375 C 3.109375,-0.3125 2.734375,-0.0625 2.28125,-0.0625 c -0.71875,0 -1.296875,-0.53125 -1.46875,-1.109375 0.03125,0 0.0625,0.015625 0.171875,0.015625 0.328125,0 0.5,-0.25 0.5,-0.484375 0,-0.25 -0.171875,-0.5 -0.5,-0.5 C 0.84375,-2.140625 0.5,-2.0625 0.5,-1.609375 0.5,-0.75 1.1875,0.21875 2.296875,0.21875 3.453125,0.21875 4.46875,-0.734375 4.46875,-2 Z m 0,0"
   id="id-643288c0-3c9c-491d-96d5-1953fa8ace65" />
      </symbol>
      <symbol
   overflow="visible"
   id="id-f26761ff-67d8-46be-9ec2-8e46bdba08e8">
        <path
   style="stroke:none;stroke-width:0"
   d="m 5.90625,-0.625 c 0.140625,0.21875 0.53125,0.609375 0.640625,0.609375 0.09375,0 0.09375,-0.078125 0.09375,-0.21875 V -1.96875 c 0,-0.390625 0.03125,-0.4375 0.6875,-0.4375 v -0.3125 c -0.375,0 -0.921875,0.03125 -1.21875,0.03125 -0.390625,0 -1.25,0 -1.609375,-0.03125 v 0.3125 H 4.828125 C 5.71875,-2.40625 5.75,-2.296875 5.75,-1.9375 v 0.640625 c 0,1.125 -1.265625,1.203125 -1.546875,1.203125 -0.640625,0 -2.625,-0.34375 -2.625,-3.3125 0,-2.984375 1.96875,-3.3125 2.5625,-3.3125 1.078125,0 1.984375,0.890625 2.171875,2.359375 0.03125,0.140625 0.03125,0.171875 0.171875,0.171875 0.15625,0 0.15625,-0.03125 0.15625,-0.234375 V -6.78125 c 0,-0.171875 0,-0.25 -0.109375,-0.25 -0.046875,0 -0.078125,0 -0.15625,0.125 l -0.5,0.734375 C 5.546875,-6.484375 5.015625,-7.03125 4.03125,-7.03125 c -1.859375,0 -3.46875,1.578125 -3.46875,3.625 0,2.046875 1.59375,3.625 3.484375,3.625 0.734375,0 1.53125,-0.265625 1.859375,-0.84375 z m 0,0"
   id="id-4d79841f-43a3-4984-a63d-c761844c72ce" />
      </symbol>
      <symbol
   overflow="visible"
   id="id-2de38e9a-6e0c-4bdb-809c-84fc30331019">
        <path
   style="stroke:none;stroke-width:0"
   d="M 6.109375,-6.03125 C 6.109375,-6.390625 6.125,-6.5 6.890625,-6.5 h 0.25 v -0.3125 c -0.359375,0.03125 -1.09375,0.03125 -1.46875,0.03125 -0.375,0 -1.125,0 -1.46875,-0.03125 V -6.5 H 4.4375 c 0.765625,0 0.78125,0.109375 0.78125,0.46875 v 2.328125 H 2.25 V -6.03125 C 2.25,-6.390625 2.265625,-6.5 3.03125,-6.5 h 0.234375 v -0.3125 c -0.34375,0.03125 -1.078125,0.03125 -1.46875,0.03125 -0.375,0 -1.125,0 -1.46875,-0.03125 V -6.5 H 0.5625 c 0.765625,0 0.796875,0.109375 0.796875,0.46875 v 5.25 c 0,0.359375 -0.03125,0.46875 -0.796875,0.46875 H 0.328125 V 0 c 0.34375,-0.03125 1.09375,-0.03125 1.46875,-0.03125 0.375,0 1.125,0 1.46875,0.03125 V -0.3125 H 3.03125 C 2.265625,-0.3125 2.25,-0.421875 2.25,-0.78125 v -2.609375 h 2.96875 v 2.609375 c 0,0.359375 -0.015625,0.46875 -0.78125,0.46875 H 4.203125 V 0 c 0.34375,-0.03125 1.078125,-0.03125 1.453125,-0.03125 0.390625,0 1.125,0 1.484375,0.03125 v -0.3125 h -0.25 c -0.765625,0 -0.78125,-0.109375 -0.78125,-0.46875 z m 0,0"
   id="id-0bdb2d59-f0ba-42ff-90b0-857e6e0ff4f2" />
      </symbol>
      <symbol
   overflow="visible"
   id="id-828126e6-ee8a-42a4-9dcb-b93bf81cb934">
        <path
   style="stroke:none;stroke-width:0"
   d="m 3.890625,-4 c 0.09375,-0.109375 0.09375,-0.125 0.09375,-0.171875 0,-0.125 -0.09375,-0.125 -0.265625,-0.125 H 0.53125 L 0.421875,-2.6875 h 0.25 c 0.0625,-1.015625 0.25,-1.390625 1.34375,-1.390625 H 3.15625 L 0.375,-0.3125 C 0.28125,-0.203125 0.28125,-0.1875 0.28125,-0.140625 0.28125,0 0.34375,0 0.53125,0 H 3.828125 L 4,-1.859375 H 3.75 C 3.65625,-0.6875 3.453125,-0.25 2.296875,-0.25 h -1.1875 z m 0,0"
   id="id-57783a7d-ecf4-48bd-99ef-4220bfbc14d8" />
      </symbol>
      <symbol
   overflow="visible"
   id="id-2338853c-9807-489c-8395-368c51066087">
        <path
   style="stroke:none;stroke-width:0"
   d=""
   id="id-c3446b14-61d6-48d3-b386-f4ba36f5e613" />
      </symbol>
      <symbol
   overflow="visible"
   id="id-0459ef0c-43ad-4923-9598-f7c8cad152d8">
        <path
   style="stroke:none;stroke-width:0"
   d="m 1.90625,-0.53125 c 0,-0.28125 -0.234375,-0.53125 -0.515625,-0.53125 -0.296875,0 -0.53125,0.25 -0.53125,0.53125 C 0.859375,-0.234375 1.09375,0 1.390625,0 1.671875,0 1.90625,-0.234375 1.90625,-0.53125 Z m 0,0"
   id="id-48a61c6b-4c4b-45c3-b647-0588ddc68c13" />
      </symbol>
    </g>
  </defs>
  <g
   id="id-4deedbe3-bf76-4c62-be8e-3f1b82d85778"
   transform="translate(-149.212,-127.734)">
    <g
   style="fill:#000000;fill-opacity:1"
   id="id-4e2cc620-1e52-4dc0-9968-e5e658533880">
      <g
   transform="translate(148.712,134.765)"
   id="g5404"><path
   style="stroke:none;stroke-width:0"
   d="m 1.265625,-0.765625 1.0625,-1.03125 c 1.546875,-1.375 2.140625,-1.90625 2.140625,-2.90625 0,-1.140625 -0.890625,-1.9375 -2.109375,-1.9375 -1.125,0 -1.859375,0.921875 -1.859375,1.8125 0,0.546875 0.5,0.546875 0.53125,0.546875 0.171875,0 0.515625,-0.109375 0.515625,-0.53125 0,-0.25 -0.1875,-0.515625 -0.53125,-0.515625 -0.078125,0 -0.09375,0 -0.125,0.015625 0.21875,-0.65625 0.765625,-1.015625 1.34375,-1.015625 0.90625,0 1.328125,0.8125 1.328125,1.625 C 3.5625,-3.90625 3.078125,-3.125 2.515625,-2.5 l -1.90625,2.125 C 0.5,-0.265625 0.5,-0.234375 0.5,0 H 4.203125 L 4.46875,-1.734375 H 4.234375 C 4.171875,-1.4375 4.109375,-1 4,-0.84375 3.9375,-0.765625 3.28125,-0.765625 3.0625,-0.765625 Z m 0,0"
   id="id-28d302fb-e760-49fe-a0cc-e33e698590a0" />
      </g></g>
    <g
   style="fill:#000000;fill-opacity:1"
   id="id-89122b34-1e30-447f-ade0-e826cb34a5ed">
      <g
   transform="translate(153.694,134.765)"
   id="g5408"><path
   style="stroke:none;stroke-width:0"
   d="m 1.90625,-0.53125 c 0,-0.28125 -0.234375,-0.53125 -0.515625,-0.53125 -0.296875,0 -0.53125,0.25 -0.53125,0.53125 C 0.859375,-0.234375 1.09375,0 1.390625,0 1.671875,0 1.90625,-0.234375 1.90625,-0.53125 Z m 0,0"
   id="id-2a3dfa28-1faa-4e38-a13d-bbd7a154a670" />
      </g></g>
    <g
   style="fill:#000000;fill-opacity:1"
   id="id-12882b17-6d21-4a9d-b42d-de6d3337b4fd">
      <g
   transform="translate(156.461,134.765)"
   id="g5412"><path
   style="stroke:none;stroke-width:0"
   d="m 2.9375,-1.640625 v 0.859375 c 0,0.359375 -0.03125,0.46875 -0.765625,0.46875 H 1.96875 V 0 C 2.375,-0.03125 2.890625,-0.03125 3.3125,-0.03125 c 0.421875,0 0.9375,0 1.359375,0.03125 v -0.3125 h -0.21875 c -0.734375,0 -0.75,-0.109375 -0.75,-0.46875 V -1.640625 H 4.6875 v -0.3125 H 3.703125 v -4.53125 c 0,-0.203125 0,-0.265625 -0.171875,-0.265625 -0.078125,0 -0.109375,0 -0.1875,0.125 l -3.0625,4.671875 v 0.3125 z m 0.046875,-0.3125 H 0.5625 l 2.421875,-3.71875 z m 0,0"
   id="id-0a761be8-2185-46fb-b783-b5daab0126d7" />
      </g><g
   transform="translate(161.442,134.765)"
   id="g5415"><path
   style="stroke:none;stroke-width:0"
   d="m 4.46875,-2 c 0,-1.1875 -0.8125,-2.1875 -1.890625,-2.1875 -0.46875,0 -0.90625,0.15625 -1.265625,0.515625 V -5.625 c 0.203125,0.0625 0.53125,0.125 0.84375,0.125 1.234375,0 1.9375,-0.90625 1.9375,-1.03125 0,-0.0625 -0.03125,-0.109375 -0.109375,-0.109375 0,0 -0.03125,0 -0.078125,0.03125 C 3.703125,-6.515625 3.21875,-6.3125 2.546875,-6.3125 2.15625,-6.3125 1.6875,-6.390625 1.21875,-6.59375 1.140625,-6.625 1.125,-6.625 1.109375,-6.625 1,-6.625 1,-6.546875 1,-6.390625 V -3.4375 c 0,0.171875 0,0.25 0.140625,0.25 0.078125,0 0.09375,-0.015625 0.140625,-0.078125 C 1.390625,-3.421875 1.75,-3.96875 2.5625,-3.96875 c 0.515625,0 0.765625,0.453125 0.84375,0.640625 0.15625,0.375 0.1875,0.75 0.1875,1.25 0,0.359375 0,0.953125 -0.25,1.375 C 3.109375,-0.3125 2.734375,-0.0625 2.28125,-0.0625 c -0.71875,0 -1.296875,-0.53125 -1.46875,-1.109375 0.03125,0 0.0625,0.015625 0.171875,0.015625 0.328125,0 0.5,-0.25 0.5,-0.484375 0,-0.25 -0.171875,-0.5 -0.5,-0.5 C 0.84375,-2.140625 0.5,-2.0625 0.5,-1.609375 0.5,-0.75 1.1875,0.21875 2.296875,0.21875 3.453125,0.21875 4.46875,-0.734375 4.46875,-2 Z m 0,0"
   id="id-8b1839d8-bf13-43df-b32f-229ac130a7f9" />
      </g></g>
    <g
   style="fill:#000000;fill-opacity:1"
   id="id-1a59e881-7b12-4e35-8551-201a1e4d5383">
      <g
   transform="translate(168.077,134.765)"
   id="g5419"><path
   style="stroke:none;stroke-width:0"
   d="m 5.90625,-0.625 c 0.140625,0.21875 0.53125,0.609375 0.640625,0.609375 0.09375,0 0.09375,-0.078125 0.09375,-0.21875 V -1.96875 c 0,-0.390625 0.03125,-0.4375 0.6875,-0.4375 v -0.3125 c -0.375,0 -0.921875,0.03125 -1.21875,0.03125 -0.390625,0 -1.25,0 -1.609375,-0.03125 v 0.3125 H 4.828125 C 5.71875,-2.40625 5.75,-2.296875 5.75,-1.9375 v 0.640625 c 0,1.125 -1.265625,1.203125 -1.546875,1.203125 -0.640625,0 -2.625,-0.34375 -2.625,-3.3125 0,-2.984375 1.96875,-3.3125 2.5625,-3.3125 1.078125,0 1.984375,0.890625 2.171875,2.359375 0.03125,0.140625 0.03125,0.171875 0.171875,0.171875 0.15625,0 0.15625,-0.03125 0.15625,-0.234375 V -6.78125 c 0,-0.171875 0,-0.25 -0.109375,-0.25 -0.046875,0 -0.078125,0 -0.15625,0.125 l -0.5,0.734375 C 5.546875,-6.484375 5.015625,-7.03125 4.03125,-7.03125 c -1.859375,0 -3.46875,1.578125 -3.46875,3.625 0,2.046875 1.59375,3.625 3.484375,3.625 0.734375,0 1.53125,-0.265625 1.859375,-0.84375 z m 0,0"
   id="id-c7100841-c622-42fa-a4e4-b96e140096fc" />
      </g><g
   transform="translate(175.895,134.765)"
   id="g5422"><path
   style="stroke:none;stroke-width:0"
   d="M 6.109375,-6.03125 C 6.109375,-6.390625 6.125,-6.5 6.890625,-6.5 h 0.25 v -0.3125 c -0.359375,0.03125 -1.09375,0.03125 -1.46875,0.03125 -0.375,0 -1.125,0 -1.46875,-0.03125 V -6.5 H 4.4375 c 0.765625,0 0.78125,0.109375 0.78125,0.46875 v 2.328125 H 2.25 V -6.03125 C 2.25,-6.390625 2.265625,-6.5 3.03125,-6.5 h 0.234375 v -0.3125 c -0.34375,0.03125 -1.078125,0.03125 -1.46875,0.03125 -0.375,0 -1.125,0 -1.46875,-0.03125 V -6.5 H 0.5625 c 0.765625,0 0.796875,0.109375 0.796875,0.46875 v 5.25 c 0,0.359375 -0.03125,0.46875 -0.796875,0.46875 H 0.328125 V 0 c 0.34375,-0.03125 1.09375,-0.03125 1.46875,-0.03125 0.375,0 1.125,0 1.46875,0.03125 V -0.3125 H 3.03125 C 2.265625,-0.3125 2.25,-0.421875 2.25,-0.78125 v -2.609375 h 2.96875 v 2.609375 c 0,0.359375 -0.015625,0.46875 -0.78125,0.46875 H 4.203125 V 0 c 0.34375,-0.03125 1.078125,-0.03125 1.453125,-0.03125 0.390625,0 1.125,0 1.484375,0.03125 v -0.3125 h -0.25 c -0.765625,0 -0.78125,-0.109375 -0.78125,-0.46875 z m 0,0"
   id="id-2598e82f-a781-4f9e-a7c9-1298de605d8a" />
      </g><g
   transform="translate(183.367,134.765)"
   id="g5425"><path
   style="stroke:none;stroke-width:0"
   d="m 3.890625,-4 c 0.09375,-0.109375 0.09375,-0.125 0.09375,-0.171875 0,-0.125 -0.09375,-0.125 -0.265625,-0.125 H 0.53125 L 0.421875,-2.6875 h 0.25 c 0.0625,-1.015625 0.25,-1.390625 1.34375,-1.390625 H 3.15625 L 0.375,-0.3125 C 0.28125,-0.203125 0.28125,-0.1875 0.28125,-0.140625 0.28125,0 0.34375,0 0.53125,0 H 3.828125 L 4,-1.859375 H 3.75 C 3.65625,-0.6875 3.453125,-0.25 2.296875,-0.25 h -1.1875 z m 0,0"
   id="id-b5913731-1d9f-440b-b409-fb2cf2566ce8" />
      </g></g>
  </g>
</g><g
       transform="matrix(1.33333,0,0,-1.33333,5.42471,510.751)"
       ns7:version="1.3.1"
       ns7:texconverter="pdflatex"
       ns7:pdfconverter="inkscape"
       ns7:text="$28 \\, \\mathrm{GHz}$\n\n"
       ns7:preamble="/Users/hasanabbas/Library/Application Support/org.inkscape.Inkscape/config/inkscape/extensions/inkscapeMadeEasy/basicLatexPackages.tex"
       ns7:scale="1.0"
       ns7:alignment="middle center"
       ns7:inkscapeversion="1.0.2"
       ns7:jacobian_sqrt="1.33333"
       id="g5551"><defs
   id="id-15f3f740-9479-4e32-97b7-534cb3105b2f">
    <g
   id="id-8dfe6e36-777f-4d7b-becd-e73c65206cea">
      <symbol
   overflow="visible"
   id="id-daad0bed-ede7-4661-a070-564545918d44">
        <path
   style="stroke:none"
   d=""
   id="id-6194fc06-cb01-4e1c-9183-f1b17cca3868" />
      </symbol>
      <symbol
   overflow="visible"
   id="id-1ffcf88d-84f7-4333-9763-3de234e80b3f">
        <path
   style="stroke:none"
   d="m 1.265625,-0.765625 1.0625,-1.03125 c 1.546875,-1.375 2.140625,-1.90625 2.140625,-2.90625 0,-1.140625 -0.890625,-1.9375 -2.109375,-1.9375 -1.125,0 -1.859375,0.921875 -1.859375,1.8125 0,0.546875 0.5,0.546875 0.53125,0.546875 0.171875,0 0.515625,-0.109375 0.515625,-0.53125 0,-0.25 -0.1875,-0.515625 -0.53125,-0.515625 -0.078125,0 -0.09375,0 -0.125,0.015625 0.21875,-0.65625 0.765625,-1.015625 1.34375,-1.015625 0.90625,0 1.328125,0.8125 1.328125,1.625 C 3.5625,-3.90625 3.078125,-3.125 2.515625,-2.5 l -1.90625,2.125 C 0.5,-0.265625 0.5,-0.234375 0.5,0 H 4.203125 L 4.46875,-1.734375 H 4.234375 C 4.171875,-1.4375 4.109375,-1 4,-0.84375 3.9375,-0.765625 3.28125,-0.765625 3.0625,-0.765625 Z m 0,0"
   id="id-6c44e2a1-f84b-4e16-a793-99efd327749e" />
      </symbol>
      <symbol
   overflow="visible"
   id="id-1e15c63e-60dc-45c0-a9a3-08fd9abc5fdb">
        <path
   style="stroke:none"
   d="m 1.625,-4.5625 c -0.453125,-0.296875 -0.5,-0.625 -0.5,-0.796875 0,-0.609375 0.65625,-1.03125 1.359375,-1.03125 0.71875,0 1.359375,0.515625 1.359375,1.234375 0,0.578125 -0.390625,1.046875 -0.984375,1.390625 z m 1.453125,0.953125 C 3.796875,-3.984375 4.28125,-4.5 4.28125,-5.15625 c 0,-0.921875 -0.875,-1.484375 -1.78125,-1.484375 -1,0 -1.8125,0.734375 -1.8125,1.671875 0,0.171875 0.015625,0.625 0.4375,1.09375 0.109375,0.109375 0.484375,0.359375 0.734375,0.53125 C 1.28125,-3.046875 0.421875,-2.5 0.421875,-1.5 c 0,1.046875 1.015625,1.71875 2.0625,1.71875 1.125,0 2.078125,-0.828125 2.078125,-1.890625 0,-0.359375 -0.109375,-0.8125 -0.5,-1.234375 C 3.875,-3.109375 3.71875,-3.203125 3.078125,-3.609375 Z m -1,0.421875 1.234375,0.78125 c 0.28125,0.1875 0.75,0.484375 0.75,1.09375 0,0.734375 -0.75,1.25 -1.5625,1.25 -0.859375,0 -1.578125,-0.609375 -1.578125,-1.4375 0,-0.578125 0.3125,-1.21875 1.15625,-1.6875 z m 0,0"
   id="id-bb11c30f-f5eb-4d10-81aa-dea41d9084a7" />
      </symbol>
      <symbol
   overflow="visible"
   id="id-5c98f100-208e-497f-8e1a-52b33173abaa">
        <path
   style="stroke:none"
   d="m 5.90625,-0.625 c 0.140625,0.21875 0.53125,0.609375 0.640625,0.609375 0.09375,0 0.09375,-0.078125 0.09375,-0.21875 V -1.96875 c 0,-0.390625 0.03125,-0.4375 0.6875,-0.4375 v -0.3125 c -0.375,0 -0.921875,0.03125 -1.21875,0.03125 -0.390625,0 -1.25,0 -1.609375,-0.03125 v 0.3125 H 4.828125 C 5.71875,-2.40625 5.75,-2.296875 5.75,-1.9375 v 0.640625 c 0,1.125 -1.265625,1.203125 -1.546875,1.203125 -0.640625,0 -2.625,-0.34375 -2.625,-3.3125 0,-2.984375 1.96875,-3.3125 2.5625,-3.3125 1.078125,0 1.984375,0.890625 2.171875,2.359375 0.03125,0.140625 0.03125,0.171875 0.171875,0.171875 0.15625,0 0.15625,-0.03125 0.15625,-0.234375 V -6.78125 c 0,-0.171875 0,-0.25 -0.109375,-0.25 -0.046875,0 -0.078125,0 -0.15625,0.125 l -0.5,0.734375 C 5.546875,-6.484375 5.015625,-7.03125 4.03125,-7.03125 c -1.859375,0 -3.46875,1.578125 -3.46875,3.625 0,2.046875 1.59375,3.625 3.484375,3.625 0.734375,0 1.53125,-0.265625 1.859375,-0.84375 z m 0,0"
   id="id-cd843ab4-95dc-4de4-8eb4-48010d1a058b" />
      </symbol>
      <symbol
   overflow="visible"
   id="id-bc9e82ce-e9a6-447f-a7f1-abe05134e129">
        <path
   style="stroke:none"
   d="M 6.109375,-6.03125 C 6.109375,-6.390625 6.125,-6.5 6.890625,-6.5 h 0.25 v -0.3125 c -0.359375,0.03125 -1.09375,0.03125 -1.46875,0.03125 -0.375,0 -1.125,0 -1.46875,-0.03125 V -6.5 H 4.4375 c 0.765625,0 0.78125,0.109375 0.78125,0.46875 v 2.328125 H 2.25 V -6.03125 C 2.25,-6.390625 2.265625,-6.5 3.03125,-6.5 h 0.234375 v -0.3125 c -0.34375,0.03125 -1.078125,0.03125 -1.46875,0.03125 -0.375,0 -1.125,0 -1.46875,-0.03125 V -6.5 H 0.5625 c 0.765625,0 0.796875,0.109375 0.796875,0.46875 v 5.25 c 0,0.359375 -0.03125,0.46875 -0.796875,0.46875 H 0.328125 V 0 c 0.34375,-0.03125 1.09375,-0.03125 1.46875,-0.03125 0.375,0 1.125,0 1.46875,0.03125 V -0.3125 H 3.03125 C 2.265625,-0.3125 2.25,-0.421875 2.25,-0.78125 v -2.609375 h 2.96875 v 2.609375 c 0,0.359375 -0.015625,0.46875 -0.78125,0.46875 H 4.203125 V 0 c 0.34375,-0.03125 1.078125,-0.03125 1.453125,-0.03125 0.390625,0 1.125,0 1.484375,0.03125 v -0.3125 h -0.25 c -0.765625,0 -0.78125,-0.109375 -0.78125,-0.46875 z m 0,0"
   id="id-df1d68a4-cccf-4a28-b87e-3fa5c0685325" />
      </symbol>
      <symbol
   overflow="visible"
   id="id-5a868795-3f91-482c-8cd6-dfc6e1f22e05">
        <path
   style="stroke:none"
   d="m 3.890625,-4 c 0.09375,-0.109375 0.09375,-0.125 0.09375,-0.171875 0,-0.125 -0.09375,-0.125 -0.265625,-0.125 H 0.53125 L 0.421875,-2.6875 h 0.25 c 0.0625,-1.015625 0.25,-1.390625 1.34375,-1.390625 H 3.15625 L 0.375,-0.3125 C 0.28125,-0.203125 0.28125,-0.1875 0.28125,-0.140625 0.28125,0 0.34375,0 0.53125,0 H 3.828125 L 4,-1.859375 H 3.75 C 3.65625,-0.6875 3.453125,-0.25 2.296875,-0.25 h -1.1875 z m 0,0"
   id="id-38bcc2e0-fc94-44cf-b71c-dd2a49f4538c" />
      </symbol>
    </g>
  </defs>
  <g
   id="id-c9a046f1-262c-4eaa-921a-eda2f20d4447"
   transform="translate(-149.212,-127.734)">
    <g
   style="fill:#000000;fill-opacity:1"
   id="id-3510a591-8732-43a3-af93-216605ecd395">
      <g
   transform="translate(148.712,134.765)"
   id="g5687"><path
   style="stroke:none"
   d="m 1.265625,-0.765625 1.0625,-1.03125 c 1.546875,-1.375 2.140625,-1.90625 2.140625,-2.90625 0,-1.140625 -0.890625,-1.9375 -2.109375,-1.9375 -1.125,0 -1.859375,0.921875 -1.859375,1.8125 0,0.546875 0.5,0.546875 0.53125,0.546875 0.171875,0 0.515625,-0.109375 0.515625,-0.53125 0,-0.25 -0.1875,-0.515625 -0.53125,-0.515625 -0.078125,0 -0.09375,0 -0.125,0.015625 0.21875,-0.65625 0.765625,-1.015625 1.34375,-1.015625 0.90625,0 1.328125,0.8125 1.328125,1.625 C 3.5625,-3.90625 3.078125,-3.125 2.515625,-2.5 l -1.90625,2.125 C 0.5,-0.265625 0.5,-0.234375 0.5,0 H 4.203125 L 4.46875,-1.734375 H 4.234375 C 4.171875,-1.4375 4.109375,-1 4,-0.84375 3.9375,-0.765625 3.28125,-0.765625 3.0625,-0.765625 Z m 0,0"
   id="id-9f36b6b4-169b-48d1-9d05-2b0d07ddc942" />
      </g><g
   transform="translate(153.693,134.765)"
   id="g5690"><path
   style="stroke:none"
   d="m 1.625,-4.5625 c -0.453125,-0.296875 -0.5,-0.625 -0.5,-0.796875 0,-0.609375 0.65625,-1.03125 1.359375,-1.03125 0.71875,0 1.359375,0.515625 1.359375,1.234375 0,0.578125 -0.390625,1.046875 -0.984375,1.390625 z m 1.453125,0.953125 C 3.796875,-3.984375 4.28125,-4.5 4.28125,-5.15625 c 0,-0.921875 -0.875,-1.484375 -1.78125,-1.484375 -1,0 -1.8125,0.734375 -1.8125,1.671875 0,0.171875 0.015625,0.625 0.4375,1.09375 0.109375,0.109375 0.484375,0.359375 0.734375,0.53125 C 1.28125,-3.046875 0.421875,-2.5 0.421875,-1.5 c 0,1.046875 1.015625,1.71875 2.0625,1.71875 1.125,0 2.078125,-0.828125 2.078125,-1.890625 0,-0.359375 -0.109375,-0.8125 -0.5,-1.234375 C 3.875,-3.109375 3.71875,-3.203125 3.078125,-3.609375 Z m -1,0.421875 1.234375,0.78125 c 0.28125,0.1875 0.75,0.484375 0.75,1.09375 0,0.734375 -0.75,1.25 -1.5625,1.25 -0.859375,0 -1.578125,-0.609375 -1.578125,-1.4375 0,-0.578125 0.3125,-1.21875 1.15625,-1.6875 z m 0,0"
   id="id-62eca550-aaac-4fd7-a28a-b9f0eb137eeb" />
      </g></g>
    <g
   style="fill:#000000;fill-opacity:1"
   id="id-053c0a4a-7ad6-474c-afea-48cb07dda5c1">
      <g
   transform="translate(160.328,134.765)"
   id="g5694"><path
   style="stroke:none"
   d="m 5.90625,-0.625 c 0.140625,0.21875 0.53125,0.609375 0.640625,0.609375 0.09375,0 0.09375,-0.078125 0.09375,-0.21875 V -1.96875 c 0,-0.390625 0.03125,-0.4375 0.6875,-0.4375 v -0.3125 c -0.375,0 -0.921875,0.03125 -1.21875,0.03125 -0.390625,0 -1.25,0 -1.609375,-0.03125 v 0.3125 H 4.828125 C 5.71875,-2.40625 5.75,-2.296875 5.75,-1.9375 v 0.640625 c 0,1.125 -1.265625,1.203125 -1.546875,1.203125 -0.640625,0 -2.625,-0.34375 -2.625,-3.3125 0,-2.984375 1.96875,-3.3125 2.5625,-3.3125 1.078125,0 1.984375,0.890625 2.171875,2.359375 0.03125,0.140625 0.03125,0.171875 0.171875,0.171875 0.15625,0 0.15625,-0.03125 0.15625,-0.234375 V -6.78125 c 0,-0.171875 0,-0.25 -0.109375,-0.25 -0.046875,0 -0.078125,0 -0.15625,0.125 l -0.5,0.734375 C 5.546875,-6.484375 5.015625,-7.03125 4.03125,-7.03125 c -1.859375,0 -3.46875,1.578125 -3.46875,3.625 0,2.046875 1.59375,3.625 3.484375,3.625 0.734375,0 1.53125,-0.265625 1.859375,-0.84375 z m 0,0"
   id="id-ccbd9d6d-76a8-40c4-a40a-6dce0d583c74" />
      </g><g
   transform="translate(168.146,134.765)"
   id="g5697"><path
   style="stroke:none"
   d="M 6.109375,-6.03125 C 6.109375,-6.390625 6.125,-6.5 6.890625,-6.5 h 0.25 v -0.3125 c -0.359375,0.03125 -1.09375,0.03125 -1.46875,0.03125 -0.375,0 -1.125,0 -1.46875,-0.03125 V -6.5 H 4.4375 c 0.765625,0 0.78125,0.109375 0.78125,0.46875 v 2.328125 H 2.25 V -6.03125 C 2.25,-6.390625 2.265625,-6.5 3.03125,-6.5 h 0.234375 v -0.3125 c -0.34375,0.03125 -1.078125,0.03125 -1.46875,0.03125 -0.375,0 -1.125,0 -1.46875,-0.03125 V -6.5 H 0.5625 c 0.765625,0 0.796875,0.109375 0.796875,0.46875 v 5.25 c 0,0.359375 -0.03125,0.46875 -0.796875,0.46875 H 0.328125 V 0 c 0.34375,-0.03125 1.09375,-0.03125 1.46875,-0.03125 0.375,0 1.125,0 1.46875,0.03125 V -0.3125 H 3.03125 C 2.265625,-0.3125 2.25,-0.421875 2.25,-0.78125 v -2.609375 h 2.96875 v 2.609375 c 0,0.359375 -0.015625,0.46875 -0.78125,0.46875 H 4.203125 V 0 c 0.34375,-0.03125 1.078125,-0.03125 1.453125,-0.03125 0.390625,0 1.125,0 1.484375,0.03125 v -0.3125 h -0.25 c -0.765625,0 -0.78125,-0.109375 -0.78125,-0.46875 z m 0,0"
   id="id-3414326e-74bc-4e11-b5c7-6701d09e8726" />
      </g><g
   transform="translate(175.618,134.765)"
   id="g5700"><path
   style="stroke:none"
   d="m 3.890625,-4 c 0.09375,-0.109375 0.09375,-0.125 0.09375,-0.171875 0,-0.125 -0.09375,-0.125 -0.265625,-0.125 H 0.53125 L 0.421875,-2.6875 h 0.25 c 0.0625,-1.015625 0.25,-1.390625 1.34375,-1.390625 H 3.15625 L 0.375,-0.3125 C 0.28125,-0.203125 0.28125,-0.1875 0.28125,-0.140625 0.28125,0 0.34375,0 0.53125,0 H 3.828125 L 4,-1.859375 H 3.75 C 3.65625,-0.6875 3.453125,-0.25 2.296875,-0.25 h -1.1875 z m 0,0"
   id="id-511066f5-d5b5-492e-a5ae-3fdb2ea29630" />
      </g></g>
  </g>
</g><g
       transform="matrix(1.33333,0,0,-1.33333,-32.92166,438.3013)"
       ns7:version="1.3.1"
       ns7:texconverter="pdflatex"
       ns7:pdfconverter="inkscape"
       ns7:text="$N = \\, \\mathrm{?}$\n\n\n"
       ns7:preamble="/Users/hasanabbas/Library/Application Support/org.inkscape.Inkscape/config/inkscape/extensions/inkscapeMadeEasy/basicLatexPackages.tex"
       ns7:scale="1.0"
       ns7:alignment="middle center"
       ns7:inkscapeversion="1.0.2"
       ns7:jacobian_sqrt="1.33333"
       id="g5789"><defs
   id="id-d097ef3b-ebc0-48f3-861e-35c7814c22ef">
    <g
   id="id-6c25eb61-4b33-45f7-bb69-562e765c05e1">
      <symbol
   overflow="visible"
   id="id-6c7de131-dcd7-4c0b-a911-f13b0a9dcde2">
        <path
   style="stroke:none"
   d=""
   id="id-b68b3d2a-603b-4155-9e54-6717c73cbfcd" />
      </symbol>
      <symbol
   overflow="visible"
   id="id-d976c476-92a1-4d19-9fee-a55235577c61">
        <path
   style="stroke:none"
   d="M 7.53125,-5.765625 C 7.640625,-6.15625 7.8125,-6.46875 8.609375,-6.5 c 0.046875,0 0.171875,-0.015625 0.171875,-0.203125 0,0 0,-0.109375 -0.125,-0.109375 -0.328125,0 -0.6875,0.03125 -1.015625,0.03125 -0.328125,0 -0.6875,-0.03125 -1.015625,-0.03125 -0.0625,0 -0.171875,0 -0.171875,0.203125 C 6.453125,-6.5 6.546875,-6.5 6.625,-6.5 c 0.578125,0.015625 0.6875,0.21875 0.6875,0.4375 0,0.03125 -0.03125,0.1875 -0.03125,0.203125 l -1.125,4.4375 L 3.953125,-6.625 C 3.875,-6.796875 3.875,-6.8125 3.640625,-6.8125 h -1.34375 c -0.1875,0 -0.28125,0 -0.28125,0.203125 0,0.109375 0.09375,0.109375 0.28125,0.109375 0.046875,0 0.671875,0 0.671875,0.09375 L 1.640625,-1.0625 c -0.109375,0.40625 -0.28125,0.71875 -1.078125,0.75 -0.0625,0 -0.171875,0.015625 -0.171875,0.203125 0,0.0625 0.046875,0.109375 0.125,0.109375 0.328125,0 0.671875,-0.03125 1,-0.03125 C 1.859375,-0.03125 2.21875,0 2.546875,0 2.59375,0 2.71875,0 2.71875,-0.203125 2.71875,-0.296875 2.625,-0.3125 2.515625,-0.3125 1.9375,-0.328125 1.859375,-0.546875 1.859375,-0.75 c 0,-0.0625 0.015625,-0.125 0.046875,-0.234375 l 1.3125,-5.25 C 3.265625,-6.1875 3.265625,-6.15625 3.3125,-6.0625 l 2.484375,5.875 C 5.859375,-0.015625 5.890625,0 5.984375,0 6.09375,0 6.09375,-0.03125 6.140625,-0.203125 Z m 0,0"
   id="id-8381a649-5375-40f4-a1bd-e8e2318c7f2b" />
      </symbol>
      <symbol
   overflow="visible"
   id="id-cd5fa266-f38d-4110-a6f8-439d90876a3c">
        <path
   style="stroke:none"
   d=""
   id="id-16b4fb8b-edf5-4869-9862-4b70dbdb5a70" />
      </symbol>
      <symbol
   overflow="visible"
   id="id-698be046-36de-4eee-984c-3c2a2a68a636">
        <path
   style="stroke:none"
   d="m 6.84375,-3.265625 c 0.15625,0 0.34375,0 0.34375,-0.1875 C 7.1875,-3.65625 7,-3.65625 6.859375,-3.65625 h -5.96875 c -0.140625,0 -0.328125,0 -0.328125,0.203125 0,0.1875 0.1875,0.1875 0.328125,0.1875 z m 0.015625,1.9375 c 0.140625,0 0.328125,0 0.328125,-0.203125 0,-0.1875 -0.1875,-0.1875 -0.34375,-0.1875 H 0.890625 c -0.140625,0 -0.328125,0 -0.328125,0.1875 0,0.203125 0.1875,0.203125 0.328125,0.203125 z m 0,0"
   id="id-7c869c25-5dcf-4d0b-8dfa-da7348b2adba" />
      </symbol>
      <symbol
   overflow="visible"
   id="id-480abbe7-1752-4e88-8cfa-7c8e399f9355">
        <path
   style="stroke:none"
   d="m 2.34375,-2.484375 c 0,-1.25 0.96875,-1.96875 1.3125,-2.21875 0.265625,-0.203125 0.484375,-0.5625 0.484375,-0.984375 0,-0.578125 -0.40625,-1.34375 -1.890625,-1.34375 -1.078125,0 -1.6875,0.6875 -1.6875,1.328125 0,0.34375 0.21875,0.484375 0.453125,0.484375 0.28125,0 0.453125,-0.203125 0.453125,-0.46875 0,-0.4375 -0.40625,-0.4375 -0.546875,-0.4375 0.296875,-0.53125 0.875,-0.6875 1.296875,-0.6875 1.09375,0 1.09375,0.6875 1.09375,1.078125 0,0.578125 -0.15625,0.765625 -0.34375,0.9375 -0.65625,0.71875 -0.875,1.640625 -0.875,2.25 v 0.4375 c 0,0.1875 0,0.25 0.125,0.25 0.125,0 0.125,-0.09375 0.125,-0.28125 z M 2.734375,-0.53125 C 2.734375,-0.8125 2.5,-1.0625 2.21875,-1.0625 c -0.296875,0 -0.53125,0.25 -0.53125,0.53125 C 1.6875,-0.234375 1.921875,0 2.21875,0 2.5,0 2.734375,-0.234375 2.734375,-0.53125 Z m 0,0"
   id="id-8bf822a5-15bd-4673-b28b-96f80a5e1672" />
      </symbol>
    </g>
  </defs>
  <g
   id="id-b728de51-8f72-4f0d-aa0e-59e38ebe85d4"
   transform="translate(-149.103,-127.734)">
    <g
   style="fill:#000000;fill-opacity:1"
   id="id-9daf3996-7ee1-4128-b9d2-d116d0bf6e93">
      <g
   transform="translate(148.712,134.765)"
   id="g5951"><path
   style="stroke:none"
   d="M 7.53125,-5.765625 C 7.640625,-6.15625 7.8125,-6.46875 8.609375,-6.5 c 0.046875,0 0.171875,-0.015625 0.171875,-0.203125 0,0 0,-0.109375 -0.125,-0.109375 -0.328125,0 -0.6875,0.03125 -1.015625,0.03125 -0.328125,0 -0.6875,-0.03125 -1.015625,-0.03125 -0.0625,0 -0.171875,0 -0.171875,0.203125 C 6.453125,-6.5 6.546875,-6.5 6.625,-6.5 c 0.578125,0.015625 0.6875,0.21875 0.6875,0.4375 0,0.03125 -0.03125,0.1875 -0.03125,0.203125 l -1.125,4.4375 L 3.953125,-6.625 C 3.875,-6.796875 3.875,-6.8125 3.640625,-6.8125 h -1.34375 c -0.1875,0 -0.28125,0 -0.28125,0.203125 0,0.109375 0.09375,0.109375 0.28125,0.109375 0.046875,0 0.671875,0 0.671875,0.09375 L 1.640625,-1.0625 c -0.109375,0.40625 -0.28125,0.71875 -1.078125,0.75 -0.0625,0 -0.171875,0.015625 -0.171875,0.203125 0,0.0625 0.046875,0.109375 0.125,0.109375 0.328125,0 0.671875,-0.03125 1,-0.03125 C 1.859375,-0.03125 2.21875,0 2.546875,0 2.59375,0 2.71875,0 2.71875,-0.203125 2.71875,-0.296875 2.625,-0.3125 2.515625,-0.3125 1.9375,-0.328125 1.859375,-0.546875 1.859375,-0.75 c 0,-0.0625 0.015625,-0.125 0.046875,-0.234375 l 1.3125,-5.25 C 3.265625,-6.1875 3.265625,-6.15625 3.3125,-6.0625 l 2.484375,5.875 C 5.859375,-0.015625 5.890625,0 5.984375,0 6.09375,0 6.09375,-0.03125 6.140625,-0.203125 Z m 0,0"
   id="id-55704a1c-e972-4466-b828-9aece5fd377d" />
      </g></g>
    <g
   style="fill:#000000;fill-opacity:1"
   id="id-19b04f7d-edda-4e2e-98cd-db605a148e28">
      <g
   transform="translate(160.571,134.765)"
   id="g5955"><path
   style="stroke:none"
   d="m 6.84375,-3.265625 c 0.15625,0 0.34375,0 0.34375,-0.1875 C 7.1875,-3.65625 7,-3.65625 6.859375,-3.65625 h -5.96875 c -0.140625,0 -0.328125,0 -0.328125,0.203125 0,0.1875 0.1875,0.1875 0.328125,0.1875 z m 0.015625,1.9375 c 0.140625,0 0.328125,0 0.328125,-0.203125 0,-0.1875 -0.1875,-0.1875 -0.34375,-0.1875 H 0.890625 c -0.140625,0 -0.328125,0 -0.328125,0.1875 0,0.203125 0.1875,0.203125 0.328125,0.203125 z m 0,0"
   id="id-689aa229-cece-40c3-8536-b20581b26d9b" />
      </g></g>
    <g
   style="fill:#000000;fill-opacity:1"
   id="id-6297b6c3-0050-464d-ab52-69dbdb762c92">
      <g
   transform="translate(172.743,134.765)"
   id="g5959"><path
   style="stroke:none"
   d="m 2.34375,-2.484375 c 0,-1.25 0.96875,-1.96875 1.3125,-2.21875 0.265625,-0.203125 0.484375,-0.5625 0.484375,-0.984375 0,-0.578125 -0.40625,-1.34375 -1.890625,-1.34375 -1.078125,0 -1.6875,0.6875 -1.6875,1.328125 0,0.34375 0.21875,0.484375 0.453125,0.484375 0.28125,0 0.453125,-0.203125 0.453125,-0.46875 0,-0.4375 -0.40625,-0.4375 -0.546875,-0.4375 0.296875,-0.53125 0.875,-0.6875 1.296875,-0.6875 1.09375,0 1.09375,0.6875 1.09375,1.078125 0,0.578125 -0.15625,0.765625 -0.34375,0.9375 -0.65625,0.71875 -0.875,1.640625 -0.875,2.25 v 0.4375 c 0,0.1875 0,0.25 0.125,0.25 0.125,0 0.125,-0.09375 0.125,-0.28125 z M 2.734375,-0.53125 C 2.734375,-0.8125 2.5,-1.0625 2.21875,-1.0625 c -0.296875,0 -0.53125,0.25 -0.53125,0.53125 C 1.6875,-0.234375 1.921875,0 2.21875,0 2.5,0 2.734375,-0.234375 2.734375,-0.53125 Z m 0,0"
   id="id-c205ec7e-27f8-42f0-8ae2-d79a73037b7d" />
      </g></g>
  </g>
</g><g
       transform="matrix(1.33333,0,0,-1.33333,257.213,438.301)"
       ns7:version="1.3.1"
       ns7:texconverter="pdflatex"
       ns7:pdfconverter="inkscape"
       ns7:text="$N = \\, \\mathrm{64}$\n\n\n\n"
       ns7:preamble="/Users/hasanabbas/Library/Application Support/org.inkscape.Inkscape/config/inkscape/extensions/inkscapeMadeEasy/basicLatexPackages.tex"
       ns7:scale="1.0"
       ns7:alignment="middle center"
       ns7:inkscapeversion="1.0.2"
       ns7:jacobian_sqrt="1.33333"
       id="g6033"><defs
   id="id-8dff4ec3-431e-4142-a633-37345bab09cb">
    <g
   id="id-e087ff34-91f2-4508-9271-a41bde5b55ce">
      <symbol
   overflow="visible"
   id="id-4d312ef9-a110-459b-b421-758dddc198dd">
        <path
   style="stroke:none"
   d=""
   id="id-a8759884-53a5-4d8e-8c4b-12a90f226b6b" />
      </symbol>
      <symbol
   overflow="visible"
   id="id-93d9c1e2-6a12-46b9-8dd5-9c0df92e4c90">
        <path
   style="stroke:none"
   d="M 7.53125,-5.765625 C 7.640625,-6.15625 7.8125,-6.46875 8.609375,-6.5 c 0.046875,0 0.171875,-0.015625 0.171875,-0.203125 0,0 0,-0.109375 -0.125,-0.109375 -0.328125,0 -0.6875,0.03125 -1.015625,0.03125 -0.328125,0 -0.6875,-0.03125 -1.015625,-0.03125 -0.0625,0 -0.171875,0 -0.171875,0.203125 C 6.453125,-6.5 6.546875,-6.5 6.625,-6.5 c 0.578125,0.015625 0.6875,0.21875 0.6875,0.4375 0,0.03125 -0.03125,0.1875 -0.03125,0.203125 l -1.125,4.4375 L 3.953125,-6.625 C 3.875,-6.796875 3.875,-6.8125 3.640625,-6.8125 h -1.34375 c -0.1875,0 -0.28125,0 -0.28125,0.203125 0,0.109375 0.09375,0.109375 0.28125,0.109375 0.046875,0 0.671875,0 0.671875,0.09375 L 1.640625,-1.0625 c -0.109375,0.40625 -0.28125,0.71875 -1.078125,0.75 -0.0625,0 -0.171875,0.015625 -0.171875,0.203125 0,0.0625 0.046875,0.109375 0.125,0.109375 0.328125,0 0.671875,-0.03125 1,-0.03125 C 1.859375,-0.03125 2.21875,0 2.546875,0 2.59375,0 2.71875,0 2.71875,-0.203125 2.71875,-0.296875 2.625,-0.3125 2.515625,-0.3125 1.9375,-0.328125 1.859375,-0.546875 1.859375,-0.75 c 0,-0.0625 0.015625,-0.125 0.046875,-0.234375 l 1.3125,-5.25 C 3.265625,-6.1875 3.265625,-6.15625 3.3125,-6.0625 l 2.484375,5.875 C 5.859375,-0.015625 5.890625,0 5.984375,0 6.09375,0 6.09375,-0.03125 6.140625,-0.203125 Z m 0,0"
   id="id-b063de4e-5e7b-4667-a877-c835ef43173d" />
      </symbol>
      <symbol
   overflow="visible"
   id="id-d4a1baf8-0fad-4b34-94ea-87b1030be8a2">
        <path
   style="stroke:none"
   d=""
   id="id-2376b0ac-008e-4a73-980f-5f7452c35f12" />
      </symbol>
      <symbol
   overflow="visible"
   id="id-b3977b8a-2bde-4a60-a652-fb7dab0c759f">
        <path
   style="stroke:none"
   d="m 6.84375,-3.265625 c 0.15625,0 0.34375,0 0.34375,-0.1875 C 7.1875,-3.65625 7,-3.65625 6.859375,-3.65625 h -5.96875 c -0.140625,0 -0.328125,0 -0.328125,0.203125 0,0.1875 0.1875,0.1875 0.328125,0.1875 z m 0.015625,1.9375 c 0.140625,0 0.328125,0 0.328125,-0.203125 0,-0.1875 -0.1875,-0.1875 -0.34375,-0.1875 H 0.890625 c -0.140625,0 -0.328125,0 -0.328125,0.1875 0,0.203125 0.1875,0.203125 0.328125,0.203125 z m 0,0"
   id="id-bce6a7f6-5bb3-482f-98c6-abd39ae327fc" />
      </symbol>
      <symbol
   overflow="visible"
   id="id-6a619d9c-7b54-4668-ba4f-a4faa1f45759">
        <path
   style="stroke:none"
   d="m 1.3125,-3.265625 v -0.25 c 0,-2.515625 1.234375,-2.875 1.75,-2.875 0.234375,0 0.65625,0.0625 0.875,0.40625 -0.15625,0 -0.546875,0 -0.546875,0.4375 0,0.3125 0.234375,0.46875 0.453125,0.46875 0.15625,0 0.46875,-0.09375 0.46875,-0.484375 0,-0.59375 -0.4375,-1.078125 -1.265625,-1.078125 -1.28125,0 -2.625,1.28125 -2.625,3.484375 0,2.671875 1.15625,3.375 2.078125,3.375 1.109375,0 2.0625,-0.9375 2.0625,-2.25 0,-1.265625 -0.890625,-2.21875 -2,-2.21875 -0.671875,0 -1.046875,0.5 -1.25,0.984375 z M 2.5,-0.0625 c -0.625,0 -0.921875,-0.59375 -0.984375,-0.75 -0.1875,-0.46875 -0.1875,-1.265625 -0.1875,-1.4375 0,-0.78125 0.328125,-1.78125 1.21875,-1.78125 0.171875,0 0.625,0 0.9375,0.625 0.171875,0.359375 0.171875,0.875 0.171875,1.359375 0,0.484375 0,0.984375 -0.171875,1.34375 C 3.1875,-0.109375 2.734375,-0.0625 2.5,-0.0625 Z m 0,0"
   id="id-ec3ed46d-51b9-4784-89e0-dbe7a424e6c8" />
      </symbol>
      <symbol
   overflow="visible"
   id="id-2a0b7d30-ec2e-40f4-80e2-83ee4848e593">
        <path
   style="stroke:none"
   d="m 2.9375,-1.640625 v 0.859375 c 0,0.359375 -0.03125,0.46875 -0.765625,0.46875 H 1.96875 V 0 C 2.375,-0.03125 2.890625,-0.03125 3.3125,-0.03125 c 0.421875,0 0.9375,0 1.359375,0.03125 v -0.3125 h -0.21875 c -0.734375,0 -0.75,-0.109375 -0.75,-0.46875 V -1.640625 H 4.6875 v -0.3125 H 3.703125 v -4.53125 c 0,-0.203125 0,-0.265625 -0.171875,-0.265625 -0.078125,0 -0.109375,0 -0.1875,0.125 l -3.0625,4.671875 v 0.3125 z m 0.046875,-0.3125 H 0.5625 l 2.421875,-3.71875 z m 0,0"
   id="id-557a3258-5c82-48a6-bb49-7d18cda0fa9c" />
      </symbol>
    </g>
  </defs>
  <g
   id="id-bb763f23-c789-452e-9f87-d9f8d6eaa937"
   transform="translate(-149.103,-127.953)">
    <g
   style="fill:#000000;fill-opacity:1"
   id="id-bb9d1ba0-2eb8-4e2e-b999-eb48ccca7d38">
      <g
   transform="translate(148.712,134.765)"
   id="g6220"><path
   style="stroke:none"
   d="M 7.53125,-5.765625 C 7.640625,-6.15625 7.8125,-6.46875 8.609375,-6.5 c 0.046875,0 0.171875,-0.015625 0.171875,-0.203125 0,0 0,-0.109375 -0.125,-0.109375 -0.328125,0 -0.6875,0.03125 -1.015625,0.03125 -0.328125,0 -0.6875,-0.03125 -1.015625,-0.03125 -0.0625,0 -0.171875,0 -0.171875,0.203125 C 6.453125,-6.5 6.546875,-6.5 6.625,-6.5 c 0.578125,0.015625 0.6875,0.21875 0.6875,0.4375 0,0.03125 -0.03125,0.1875 -0.03125,0.203125 l -1.125,4.4375 L 3.953125,-6.625 C 3.875,-6.796875 3.875,-6.8125 3.640625,-6.8125 h -1.34375 c -0.1875,0 -0.28125,0 -0.28125,0.203125 0,0.109375 0.09375,0.109375 0.28125,0.109375 0.046875,0 0.671875,0 0.671875,0.09375 L 1.640625,-1.0625 c -0.109375,0.40625 -0.28125,0.71875 -1.078125,0.75 -0.0625,0 -0.171875,0.015625 -0.171875,0.203125 0,0.0625 0.046875,0.109375 0.125,0.109375 0.328125,0 0.671875,-0.03125 1,-0.03125 C 1.859375,-0.03125 2.21875,0 2.546875,0 2.59375,0 2.71875,0 2.71875,-0.203125 2.71875,-0.296875 2.625,-0.3125 2.515625,-0.3125 1.9375,-0.328125 1.859375,-0.546875 1.859375,-0.75 c 0,-0.0625 0.015625,-0.125 0.046875,-0.234375 l 1.3125,-5.25 C 3.265625,-6.1875 3.265625,-6.15625 3.3125,-6.0625 l 2.484375,5.875 C 5.859375,-0.015625 5.890625,0 5.984375,0 6.09375,0 6.09375,-0.03125 6.140625,-0.203125 Z m 0,0"
   id="id-3e9f1c49-3d08-4737-a306-4d4a192b58de" />
      </g></g>
    <g
   style="fill:#000000;fill-opacity:1"
   id="id-6fb55dcf-e8c8-4d4f-b531-0cb6ae19ad60">
      <g
   transform="translate(160.571,134.765)"
   id="g6224"><path
   style="stroke:none"
   d="m 6.84375,-3.265625 c 0.15625,0 0.34375,0 0.34375,-0.1875 C 7.1875,-3.65625 7,-3.65625 6.859375,-3.65625 h -5.96875 c -0.140625,0 -0.328125,0 -0.328125,0.203125 0,0.1875 0.1875,0.1875 0.328125,0.1875 z m 0.015625,1.9375 c 0.140625,0 0.328125,0 0.328125,-0.203125 0,-0.1875 -0.1875,-0.1875 -0.34375,-0.1875 H 0.890625 c -0.140625,0 -0.328125,0 -0.328125,0.1875 0,0.203125 0.1875,0.203125 0.328125,0.203125 z m 0,0"
   id="id-2c917c6a-2d8d-4a8e-8c2f-c9e706d1938a" />
      </g></g>
    <g
   style="fill:#000000;fill-opacity:1"
   id="id-f3f7dd60-202c-4e01-a912-8787934595ea">
      <g
   transform="translate(172.743,134.765)"
   id="g6228"><path
   style="stroke:none"
   d="m 1.3125,-3.265625 v -0.25 c 0,-2.515625 1.234375,-2.875 1.75,-2.875 0.234375,0 0.65625,0.0625 0.875,0.40625 -0.15625,0 -0.546875,0 -0.546875,0.4375 0,0.3125 0.234375,0.46875 0.453125,0.46875 0.15625,0 0.46875,-0.09375 0.46875,-0.484375 0,-0.59375 -0.4375,-1.078125 -1.265625,-1.078125 -1.28125,0 -2.625,1.28125 -2.625,3.484375 0,2.671875 1.15625,3.375 2.078125,3.375 1.109375,0 2.0625,-0.9375 2.0625,-2.25 0,-1.265625 -0.890625,-2.21875 -2,-2.21875 -0.671875,0 -1.046875,0.5 -1.25,0.984375 z M 2.5,-0.0625 c -0.625,0 -0.921875,-0.59375 -0.984375,-0.75 -0.1875,-0.46875 -0.1875,-1.265625 -0.1875,-1.4375 0,-0.78125 0.328125,-1.78125 1.21875,-1.78125 0.171875,0 0.625,0 0.9375,0.625 0.171875,0.359375 0.171875,0.875 0.171875,1.359375 0,0.484375 0,0.984375 -0.171875,1.34375 C 3.1875,-0.109375 2.734375,-0.0625 2.5,-0.0625 Z m 0,0"
   id="id-72a642e2-c88f-4351-917c-448181de5213" />
      </g><g
   transform="translate(177.725,134.765)"
   id="g6231"><path
   style="stroke:none"
   d="m 2.9375,-1.640625 v 0.859375 c 0,0.359375 -0.03125,0.46875 -0.765625,0.46875 H 1.96875 V 0 C 2.375,-0.03125 2.890625,-0.03125 3.3125,-0.03125 c 0.421875,0 0.9375,0 1.359375,0.03125 v -0.3125 h -0.21875 c -0.734375,0 -0.75,-0.109375 -0.75,-0.46875 V -1.640625 H 4.6875 v -0.3125 H 3.703125 v -4.53125 c 0,-0.203125 0,-0.265625 -0.171875,-0.265625 -0.078125,0 -0.109375,0 -0.1875,0.125 l -3.0625,4.671875 v 0.3125 z m 0.046875,-0.3125 H 0.5625 l 2.421875,-3.71875 z m 0,0"
   id="id-59ba9cf4-0047-461f-bb2f-fe42da10fcd2" />
      </g></g>
  </g>
</g></g></svg>
