<?xml version="1.0" encoding="UTF-8" standalone="no"?>
<svg
   xmlns:dc="http://purl.org/dc/elements/1.1/"
   xmlns:cc="http://creativecommons.org/ns#"
   xmlns:rdf="http://www.w3.org/1999/02/22-rdf-syntax-ns#"
   xmlns:svg="http://www.w3.org/2000/svg"
   xmlns="http://www.w3.org/2000/svg"
   xmlns:sodipodi="http://sodipodi.sourceforge.net/DTD/sodipodi-0.dtd"
   xmlns:inkscape="http://www.inkscape.org/namespaces/inkscape"
   version="1.1"
   id="svg1068"
   xml:space="preserve"
   width="398.66797"
   height="277.28653"
   viewBox="0 0 398.66797 277.28653"
   sodipodi:docname="atmosphere.svg"
   inkscape:version="1.0.2 (e86c8708, 2021-01-15)"><metadata
     id="metadata1074"><rdf:RDF><cc:Work
         rdf:about=""><dc:format>image/svg+xml</dc:format><dc:type
           rdf:resource="http://purl.org/dc/dcmitype/StillImage" /><dc:title></dc:title></cc:Work></rdf:RDF></metadata><defs
     id="defs1072"><clipPath
       clipPathUnits="userSpaceOnUse"
       id="clipPath1088"><path
         d="M 0,0 H 300 V 208 H 0 Z"
         id="path1086" /></clipPath><clipPath
       clipPathUnits="userSpaceOnUse"
       id="clipPath1092"><path
         d="M 0,0 H 300 V 208 H 0 Z"
         id="path1090" /></clipPath><clipPath
       clipPathUnits="userSpaceOnUse"
       id="clipPath1096"><path
         d="M 0,0 H 300 V 208 H 0 Z"
         id="path1094" /></clipPath><clipPath
       clipPathUnits="userSpaceOnUse"
       id="clipPath1100"><path
         d="M 0,0 H 300 V 208 H 0 Z"
         id="path1098" /></clipPath><clipPath
       clipPathUnits="userSpaceOnUse"
       id="clipPath1104"><path
         d="m 23.625,126.211 h 32.902 v 38.426 H 23.625 Z"
         id="path1102" /></clipPath><clipPath
       clipPathUnits="userSpaceOnUse"
       id="clipPath1108"><path
         d="M 0,0 H 300 V 208 H 0 Z"
         id="path1106" /></clipPath><clipPath
       clipPathUnits="userSpaceOnUse"
       id="clipPath1112"><path
         d="m 65.125,107 h 32.902 v 38.422 H 65.125 Z"
         id="path1110" /></clipPath><clipPath
       clipPathUnits="userSpaceOnUse"
       id="clipPath1116"><path
         d="M 0,0 H 300 V 208 H 0 Z"
         id="path1114" /></clipPath><clipPath
       clipPathUnits="userSpaceOnUse"
       id="clipPath1120"><path
         d="m 147,75.23 h 32.902 v 38.422 H 147 Z"
         id="path1118" /></clipPath><clipPath
       clipPathUnits="userSpaceOnUse"
       id="clipPath1124"><path
         d="M 0,0 H 300 V 208 H 0 Z"
         id="path1122" /></clipPath><clipPath
       clipPathUnits="userSpaceOnUse"
       id="clipPath1128"><path
         d="M 49.344,32.5 H 82.246 V 70.926 H 49.344 Z"
         id="path1126" /></clipPath><clipPath
       clipPathUnits="userSpaceOnUse"
       id="clipPath1132"><path
         d="M 0,0 H 300 V 208 H 0 Z"
         id="path1130" /></clipPath><clipPath
       clipPathUnits="userSpaceOnUse"
       id="clipPath1136"><path
         d="m 131.469,32.5 h 32.902 v 38.426 h -32.902 z"
         id="path1134" /></clipPath><clipPath
       clipPathUnits="userSpaceOnUse"
       id="clipPath1140"><path
         d="M 0,0 H 300 V 208 H 0 Z"
         id="path1138" /></clipPath><clipPath
       clipPathUnits="userSpaceOnUse"
       id="clipPath1144"><path
         d="m 228.594,32.5 h 32.902 v 38.426 h -32.902 z"
         id="path1142" /></clipPath><clipPath
       clipPathUnits="userSpaceOnUse"
       id="clipPath1148"><path
         d="M 0,0 H 300 V 208 H 0 Z"
         id="path1146" /></clipPath><clipPath
       clipPathUnits="userSpaceOnUse"
       id="clipPath1152"><path
         d="m 264.719,0.5 h 32.902 v 38.426 h -32.902 z"
         id="path1150" /></clipPath><clipPath
       clipPathUnits="userSpaceOnUse"
       id="clipPath1156"><path
         d="M 0,0 H 300 V 208 H 0 Z"
         id="path1154" /></clipPath></defs><sodipodi:namedview
     pagecolor="#ffffff"
     bordercolor="#666666"
     borderopacity="1"
     objecttolerance="10"
     gridtolerance="10"
     guidetolerance="10"
     inkscape:pageopacity="0"
     inkscape:pageshadow="2"
     inkscape:window-width="640"
     inkscape:window-height="480"
     id="namedview1070"
     showgrid="false"
     inkscape:zoom="2.0238888"
     inkscape:cx="176.975"
     inkscape:cy="110.79121"
     inkscape:current-layer="g1076" /><g
     id="g1076"
     inkscape:groupmode="layer"
     inkscape:label="atmosphere"
     transform="matrix(1.3333333,0,0,1.3333333,0,6.9321635e-6)"><text
       style="font-style:normal;font-variant:normal;font-weight:500;font-stretch:normal;font-size:8px;font-family:'CMU Serif';-inkscape-font-specification:'CMU Serif, Medium';font-variant-ligatures:normal;font-variant-caps:normal;font-variant-numeric:normal;font-variant-east-asian:normal;writing-mode:lr-tb;fill:#231f20;fill-opacity:1;fill-rule:nonzero;stroke:none"
       id="text1170"
       x="8.2778711"
       y="20.930698"><tspan
         x="8.2778711 12.277871 16.27787"
         y="20.930698"
         sodipodi:role="line"
         id="tspan1158">100</tspan><tspan
         x="12.277871 16.27787"
         y="62.930698"
         sodipodi:role="line"
         id="tspan1160">10</tspan><tspan
         x="16.27787"
         y="103.8987"
         id="tspan1162"
         style="font-style:normal;font-variant:normal;font-weight:500;font-stretch:normal;font-size:8px;font-family:'CMU Serif';-inkscape-font-specification:'CMU Serif, Medium';font-variant-ligatures:normal;font-variant-caps:normal;font-variant-numeric:normal;font-variant-east-asian:normal">1</tspan><tspan
         x="10.277871 14.277871 16.27787"
         y="144.45068"
         sodipodi:role="line"
         id="tspan1164">0.1</tspan><tspan
         x="6.2778711 10.277871 12.277871 16.27787"
         y="186.4507"
         sodipodi:role="line"
         id="tspan1166">0.01</tspan><tspan
         x="23.64587 35.029873 39.029873"
         y="194.7067"
         sodipodi:role="line"
         id="tspan1168">020</tspan></text><g
       id="g1182"
       transform="translate(2.2234423)"><g
         clip-path="url(#clipPath1092)"
         id="g1180"><g
           id="g1178"><text
             transform="rotate(-90,77.106482,71.622111)"
             style="font-style:normal;font-variant:normal;font-weight:500;font-stretch:normal;font-size:8px;font-family:'CMU Serif';-inkscape-font-specification:'CMU Serif, Medium';font-variant-ligatures:normal;font-variant-caps:normal;font-variant-numeric:normal;font-variant-east-asian:normal;writing-mode:lr-tb;fill:#231f20;fill-opacity:1;fill-rule:nonzero;stroke:none"
             id="text1176"><tspan
               x="0 4.448 7.9920001 11.536 13.536 15.752 19.096001 22.983999 26.528 28.743999 30.743999 34.287998 36.504002 38.720001 42.264 46.264 50.264 53.807999 56.023998 58.240002 62.240002 66.239998 68.239998 70.903999 74.903999 80.232002 82.447998 86.447998 92.664001"
               y="0"
               sodipodi:role="line"
               id="tspan1174"
               style="font-style:italic;font-variant:normal;font-weight:500;font-stretch:normal;font-size:8px;font-family:'CMU Serif';-inkscape-font-specification:'CMU Serif, Medium Italic';font-variant-ligatures:normal;font-variant-caps:normal;font-variant-numeric:normal;font-variant-east-asian:normal">Sea level attenuation (dB/km)</tspan></text></g></g></g><text
       style="font-style:normal;font-variant:normal;font-weight:500;font-stretch:normal;font-size:8px;font-family:'CMU Serif';-inkscape-font-specification:'CMU Serif, Medium';font-variant-ligatures:normal;font-variant-caps:normal;font-variant-numeric:normal;font-variant-east-asian:normal;writing-mode:lr-tb;fill:#231f20;fill-opacity:1;fill-rule:nonzero;stroke:none"
       id="text1188"
       x="48.413071"
       y="194.6993"><tspan
         x="48.413071 52.413071 61.79707 65.797073 75.181068 79.181068 86.565071 90.565071 94.565071 99.949066 103.94907 107.94907 113.33307 117.33307 121.33307 126.71707 130.71707 134.71707 140.10107 144.10107 148.10107 153.48506 157.48506 161.48506"
         y="194.6993"
         sodipodi:role="line"
         id="tspan1186">406080100120140160180200</tspan></text><g
       id="g1198"
       transform="translate(0,-1.4822949)"><g
         clip-path="url(#clipPath1096)"
         id="g1196"><g
           id="g1194"><text
             transform="translate(131.83357,206.36819)"
             style="font-style:normal;font-variant:normal;font-weight:500;font-stretch:normal;font-size:8px;font-family:'CMU Serif';-inkscape-font-specification:'CMU Serif, Medium';font-variant-ligatures:normal;font-variant-caps:normal;font-variant-numeric:normal;font-variant-east-asian:normal;writing-mode:lr-tb;fill:#231f20;fill-opacity:1;fill-rule:nonzero;stroke:none"
             id="text1192"><tspan
               x="0 4.448 7.112 10.656 14.656 18.656 22.200001 26.200001 29.624001 33.624001 35.624001 38.287998 44.063999 49.84 53.383999"
               y="0"
               sodipodi:role="line"
               id="tspan1190"
               style="font-style:italic;font-variant:normal;font-weight:500;font-stretch:normal;font-size:8px;font-family:'CMU Serif';-inkscape-font-specification:'CMU Serif, Medium Italic';font-variant-ligatures:normal;font-variant-caps:normal;font-variant-numeric:normal;font-variant-east-asian:normal">Frequency (GHz)</tspan></text></g></g></g><text
       style="font-style:normal;font-variant:normal;font-weight:500;font-stretch:normal;font-size:8px;font-family:'CMU Serif';-inkscape-font-specification:'CMU Serif, Medium';font-variant-ligatures:normal;font-variant-caps:normal;font-variant-numeric:normal;font-variant-east-asian:normal;writing-mode:lr-tb;fill:#231f20;fill-opacity:1;fill-rule:nonzero;stroke:none"
       id="text1204"
       x="166.85358"
       y="194.6993"><tspan
         x="166.85358 170.85358 174.85358 180.23756 184.23756 188.23756 193.62157 197.62157 201.62157 207.00557 211.00557 215.00557 220.38957 224.38957 228.38957 233.77357 237.77357 241.77357 247.15758 251.15758 255.15758 260.54156 264.54156 268.54156 273.92557 277.92557 281.92557 287.30957 291.30957 295.30957"
         y="194.6993"
         sodipodi:role="line"
         id="tspan1202">220240260280300320340360380400</tspan></text><path
       d="M 25.926,18.453 H 293.824 V 183.555 H 25.926 Z"
       style="fill:none;stroke:#231f20;stroke-width:0.5;stroke-linecap:butt;stroke-linejoin:miter;stroke-miterlimit:10;stroke-dasharray:none;stroke-opacity:1"
       id="path1206" /><path
       d="M 25.926,47.16 H 293.82"
       style="fill:none;stroke:#231f20;stroke-width:0.5;stroke-linecap:butt;stroke-linejoin:miter;stroke-miterlimit:10;stroke-dasharray:none;stroke-opacity:1"
       id="path1210" /><path
       d="M 25.926,39.914 H 293.82"
       style="fill:none;stroke:#231f20;stroke-width:0.5;stroke-linecap:butt;stroke-linejoin:miter;stroke-miterlimit:10;stroke-dasharray:none;stroke-opacity:1"
       id="path1214" /><path
       d="M 25.926,34.852 H 293.82"
       style="fill:none;stroke:#231f20;stroke-width:0.5;stroke-linecap:butt;stroke-linejoin:miter;stroke-miterlimit:10;stroke-dasharray:none;stroke-opacity:1"
       id="path1218" /><path
       d="M 25.926,31.027 H 293.82"
       style="fill:none;stroke:#231f20;stroke-width:0.5;stroke-linecap:butt;stroke-linejoin:miter;stroke-miterlimit:10;stroke-dasharray:none;stroke-opacity:1"
       id="path1222" /><path
       d="M 25.926,28 H 293.82"
       style="fill:none;stroke:#231f20;stroke-width:0.5;stroke-linecap:butt;stroke-linejoin:miter;stroke-miterlimit:10;stroke-dasharray:none;stroke-opacity:1"
       id="path1226" /><path
       d="M 25.926,24.824 H 293.82"
       style="fill:none;stroke:#231f20;stroke-width:0.5;stroke-linecap:butt;stroke-linejoin:miter;stroke-miterlimit:10;stroke-dasharray:none;stroke-opacity:1"
       id="path1230" /><path
       d="M 25.926,22.441 H 293.82"
       style="fill:none;stroke:#231f20;stroke-width:0.5;stroke-linecap:butt;stroke-linejoin:miter;stroke-miterlimit:10;stroke-dasharray:none;stroke-opacity:1"
       id="path1234" /><path
       d="M 25.926,20.305 H 293.82"
       style="fill:none;stroke:#231f20;stroke-width:0.5;stroke-linecap:butt;stroke-linejoin:miter;stroke-miterlimit:10;stroke-dasharray:none;stroke-opacity:1"
       id="path1238" /><path
       d="M 25.926,88.734 H 293.82"
       style="fill:none;stroke:#231f20;stroke-width:0.5;stroke-linecap:butt;stroke-linejoin:miter;stroke-miterlimit:10;stroke-dasharray:none;stroke-opacity:1"
       id="path1242" /><path
       d="M 25.926,81.488 H 293.82"
       style="fill:none;stroke:#231f20;stroke-width:0.5;stroke-linecap:butt;stroke-linejoin:miter;stroke-miterlimit:10;stroke-dasharray:none;stroke-opacity:1"
       id="path1246" /><path
       d="M 25.926,75.645 H 293.82"
       style="fill:none;stroke:#231f20;stroke-width:0.5;stroke-linecap:butt;stroke-linejoin:miter;stroke-miterlimit:10;stroke-dasharray:none;stroke-opacity:1"
       id="path1250" /><path
       d="M 25.926,72.602 H 293.82"
       style="fill:none;stroke:#231f20;stroke-width:0.5;stroke-linecap:butt;stroke-linejoin:miter;stroke-miterlimit:10;stroke-dasharray:none;stroke-opacity:1"
       id="path1254" /><path
       d="M 25.926,69.574 H 293.82"
       style="fill:none;stroke:#231f20;stroke-width:0.5;stroke-linecap:butt;stroke-linejoin:miter;stroke-miterlimit:10;stroke-dasharray:none;stroke-opacity:1"
       id="path1258" /><path
       d="M 25.926,66.395 H 293.82"
       style="fill:none;stroke:#231f20;stroke-width:0.5;stroke-linecap:butt;stroke-linejoin:miter;stroke-miterlimit:10;stroke-dasharray:none;stroke-opacity:1"
       id="path1262" /><path
       d="M 25.926,64.016 H 293.82"
       style="fill:none;stroke:#231f20;stroke-width:0.5;stroke-linecap:butt;stroke-linejoin:miter;stroke-miterlimit:10;stroke-dasharray:none;stroke-opacity:1"
       id="path1266" /><path
       d="M 25.926,61.418 H 293.82"
       style="fill:none;stroke:#231f20;stroke-width:0.5;stroke-linecap:butt;stroke-linejoin:miter;stroke-miterlimit:10;stroke-dasharray:none;stroke-opacity:1"
       id="path1270" /><path
       d="M 25.926,59.711 H 293.82"
       style="fill:none;stroke:#231f20;stroke-width:0.5;stroke-linecap:butt;stroke-linejoin:miter;stroke-miterlimit:10;stroke-dasharray:none;stroke-opacity:1"
       id="path1274" /><path
       d="M 25.926,130.023 H 293.82"
       style="fill:none;stroke:#231f20;stroke-width:0.5;stroke-linecap:butt;stroke-linejoin:miter;stroke-miterlimit:10;stroke-dasharray:none;stroke-opacity:1"
       id="path1278" /><path
       d="M 25.926,122.777 H 293.82"
       style="fill:none;stroke:#231f20;stroke-width:0.5;stroke-linecap:butt;stroke-linejoin:miter;stroke-miterlimit:10;stroke-dasharray:none;stroke-opacity:1"
       id="path1282" /><path
       d="M 25.926,116.934 H 293.82"
       style="fill:none;stroke:#231f20;stroke-width:0.5;stroke-linecap:butt;stroke-linejoin:miter;stroke-miterlimit:10;stroke-dasharray:none;stroke-opacity:1"
       id="path1286" /><path
       d="M 25.926,113.891 H 293.82"
       style="fill:none;stroke:#231f20;stroke-width:0.5;stroke-linecap:butt;stroke-linejoin:miter;stroke-miterlimit:10;stroke-dasharray:none;stroke-opacity:1"
       id="path1290" /><path
       d="M 25.926,110.863 H 293.82"
       style="fill:none;stroke:#231f20;stroke-width:0.5;stroke-linecap:butt;stroke-linejoin:miter;stroke-miterlimit:10;stroke-dasharray:none;stroke-opacity:1"
       id="path1294" /><path
       d="M 25.926,107.688 H 293.82"
       style="fill:none;stroke:#231f20;stroke-width:0.5;stroke-linecap:butt;stroke-linejoin:miter;stroke-miterlimit:10;stroke-dasharray:none;stroke-opacity:1"
       id="path1298" /><path
       d="M 25.926,105.305 H 293.82"
       style="fill:none;stroke:#231f20;stroke-width:0.5;stroke-linecap:butt;stroke-linejoin:miter;stroke-miterlimit:10;stroke-dasharray:none;stroke-opacity:1"
       id="path1302" /><path
       d="M 25.926,102.707 H 293.82"
       style="fill:none;stroke:#231f20;stroke-width:0.5;stroke-linecap:butt;stroke-linejoin:miter;stroke-miterlimit:10;stroke-dasharray:none;stroke-opacity:1"
       id="path1306" /><path
       d="M 25.926,101.004 H 293.82"
       style="fill:none;stroke:#231f20;stroke-width:0.5;stroke-linecap:butt;stroke-linejoin:miter;stroke-miterlimit:10;stroke-dasharray:none;stroke-opacity:1"
       id="path1310" /><path
       d="M 25.926,171.25 H 293.82"
       style="fill:none;stroke:#231f20;stroke-width:0.5;stroke-linecap:butt;stroke-linejoin:miter;stroke-miterlimit:10;stroke-dasharray:none;stroke-opacity:1"
       id="path1314" /><path
       d="M 25.926,164 H 293.82"
       style="fill:none;stroke:#231f20;stroke-width:0.5;stroke-linecap:butt;stroke-linejoin:miter;stroke-miterlimit:10;stroke-dasharray:none;stroke-opacity:1"
       id="path1318" /><path
       d="M 25.926,158.16 H 293.82"
       style="fill:none;stroke:#231f20;stroke-width:0.5;stroke-linecap:butt;stroke-linejoin:miter;stroke-miterlimit:10;stroke-dasharray:none;stroke-opacity:1"
       id="path1322" /><path
       d="M 25.926,155.117 H 293.82"
       style="fill:none;stroke:#231f20;stroke-width:0.5;stroke-linecap:butt;stroke-linejoin:miter;stroke-miterlimit:10;stroke-dasharray:none;stroke-opacity:1"
       id="path1326" /><path
       d="M 25.926,152.086 H 293.82"
       style="fill:none;stroke:#231f20;stroke-width:0.5;stroke-linecap:butt;stroke-linejoin:miter;stroke-miterlimit:10;stroke-dasharray:none;stroke-opacity:1"
       id="path1330" /><path
       d="M 25.926,148.91 H 293.82"
       style="fill:none;stroke:#231f20;stroke-width:0.5;stroke-linecap:butt;stroke-linejoin:miter;stroke-miterlimit:10;stroke-dasharray:none;stroke-opacity:1"
       id="path1334" /><path
       d="M 25.926,146.527 H 293.82"
       style="fill:none;stroke:#231f20;stroke-width:0.5;stroke-linecap:butt;stroke-linejoin:miter;stroke-miterlimit:10;stroke-dasharray:none;stroke-opacity:1"
       id="path1338" /><path
       d="M 25.926,143.93 H 293.82"
       style="fill:none;stroke:#231f20;stroke-width:0.5;stroke-linecap:butt;stroke-linejoin:miter;stroke-miterlimit:10;stroke-dasharray:none;stroke-opacity:1"
       id="path1342" /><path
       d="M 25.926,142.227 H 293.82"
       style="fill:none;stroke:#231f20;stroke-width:0.5;stroke-linecap:butt;stroke-linejoin:miter;stroke-miterlimit:10;stroke-dasharray:none;stroke-opacity:1"
       id="path1346" /><path
       d="M 25.926,183.555 H 23.094"
       style="fill:none;stroke:#231f20;stroke-width:0.5;stroke-linecap:butt;stroke-linejoin:miter;stroke-miterlimit:10;stroke-dasharray:none;stroke-opacity:1"
       id="path1350" /><path
       d="m 25.926,183.555 v 2.832"
       style="fill:none;stroke:#231f20;stroke-width:0.5;stroke-linecap:butt;stroke-linejoin:miter;stroke-miterlimit:10;stroke-dasharray:none;stroke-opacity:1"
       id="path1354" /><path
       d="m 39.32,183.555 v 2.832"
       style="fill:none;stroke:#231f20;stroke-width:0.5;stroke-linecap:butt;stroke-linejoin:miter;stroke-miterlimit:10;stroke-dasharray:none;stroke-opacity:1"
       id="path1358" /><path
       d="m 52.715,183.555 v 2.832"
       style="fill:none;stroke:#231f20;stroke-width:0.5;stroke-linecap:butt;stroke-linejoin:miter;stroke-miterlimit:10;stroke-dasharray:none;stroke-opacity:1"
       id="path1362" /><path
       d="m 66.109,183.555 v 2.832"
       style="fill:none;stroke:#231f20;stroke-width:0.5;stroke-linecap:butt;stroke-linejoin:miter;stroke-miterlimit:10;stroke-dasharray:none;stroke-opacity:1"
       id="path1366" /><path
       d="m 79.504,183.555 v 2.832"
       style="fill:none;stroke:#231f20;stroke-width:0.5;stroke-linecap:butt;stroke-linejoin:miter;stroke-miterlimit:10;stroke-dasharray:none;stroke-opacity:1"
       id="path1370" /><path
       d="m 92.898,183.555 v 2.832"
       style="fill:none;stroke:#231f20;stroke-width:0.5;stroke-linecap:butt;stroke-linejoin:miter;stroke-miterlimit:10;stroke-dasharray:none;stroke-opacity:1"
       id="path1374" /><path
       d="m 106.293,183.555 v 2.832"
       style="fill:none;stroke:#231f20;stroke-width:0.5;stroke-linecap:butt;stroke-linejoin:miter;stroke-miterlimit:10;stroke-dasharray:none;stroke-opacity:1"
       id="path1378" /><path
       d="m 119.688,183.555 v 2.832"
       style="fill:none;stroke:#231f20;stroke-width:0.5;stroke-linecap:butt;stroke-linejoin:miter;stroke-miterlimit:10;stroke-dasharray:none;stroke-opacity:1"
       id="path1382" /><path
       d="m 133.082,183.555 v 2.832"
       style="fill:none;stroke:#231f20;stroke-width:0.5;stroke-linecap:butt;stroke-linejoin:miter;stroke-miterlimit:10;stroke-dasharray:none;stroke-opacity:1"
       id="path1386" /><path
       d="m 146.477,183.555 v 2.832"
       style="fill:none;stroke:#231f20;stroke-width:0.5;stroke-linecap:butt;stroke-linejoin:miter;stroke-miterlimit:10;stroke-dasharray:none;stroke-opacity:1"
       id="path1390" /><path
       d="m 159.871,183.555 v 2.832"
       style="fill:none;stroke:#231f20;stroke-width:0.5;stroke-linecap:butt;stroke-linejoin:miter;stroke-miterlimit:10;stroke-dasharray:none;stroke-opacity:1"
       id="path1394" /><path
       d="m 173.266,183.555 v 2.832"
       style="fill:none;stroke:#231f20;stroke-width:0.5;stroke-linecap:butt;stroke-linejoin:miter;stroke-miterlimit:10;stroke-dasharray:none;stroke-opacity:1"
       id="path1398" /><path
       d="m 186.664,183.555 v 2.832"
       style="fill:none;stroke:#231f20;stroke-width:0.5;stroke-linecap:butt;stroke-linejoin:miter;stroke-miterlimit:10;stroke-dasharray:none;stroke-opacity:1"
       id="path1402" /><path
       d="m 200.059,183.555 v 2.832"
       style="fill:none;stroke:#231f20;stroke-width:0.5;stroke-linecap:butt;stroke-linejoin:miter;stroke-miterlimit:10;stroke-dasharray:none;stroke-opacity:1"
       id="path1406" /><path
       d="m 213.453,183.555 v 2.832"
       style="fill:none;stroke:#231f20;stroke-width:0.5;stroke-linecap:butt;stroke-linejoin:miter;stroke-miterlimit:10;stroke-dasharray:none;stroke-opacity:1"
       id="path1410" /><path
       d="m 226.848,183.555 v 2.832"
       style="fill:none;stroke:#231f20;stroke-width:0.5;stroke-linecap:butt;stroke-linejoin:miter;stroke-miterlimit:10;stroke-dasharray:none;stroke-opacity:1"
       id="path1414" /><path
       d="m 240.242,183.555 v 2.832"
       style="fill:none;stroke:#231f20;stroke-width:0.5;stroke-linecap:butt;stroke-linejoin:miter;stroke-miterlimit:10;stroke-dasharray:none;stroke-opacity:1"
       id="path1418" /><path
       d="m 253.637,183.555 v 2.832"
       style="fill:none;stroke:#231f20;stroke-width:0.5;stroke-linecap:butt;stroke-linejoin:miter;stroke-miterlimit:10;stroke-dasharray:none;stroke-opacity:1"
       id="path1422" /><path
       d="m 267.031,183.555 v 2.832"
       style="fill:none;stroke:#231f20;stroke-width:0.5;stroke-linecap:butt;stroke-linejoin:miter;stroke-miterlimit:10;stroke-dasharray:none;stroke-opacity:1"
       id="path1426" /><path
       d="m 280.43,183.555 v 2.832"
       style="fill:none;stroke:#231f20;stroke-width:0.5;stroke-linecap:butt;stroke-linejoin:miter;stroke-miterlimit:10;stroke-dasharray:none;stroke-opacity:1"
       id="path1430" /><path
       d="m 293.82,183.555 v 2.832"
       style="fill:none;stroke:#231f20;stroke-width:0.5;stroke-linecap:butt;stroke-linejoin:miter;stroke-miterlimit:10;stroke-dasharray:none;stroke-opacity:1"
       id="path1434" /><path
       d="M 25.926,142.277 H 23.094"
       style="fill:none;stroke:#231f20;stroke-width:0.5;stroke-linecap:butt;stroke-linejoin:miter;stroke-miterlimit:10;stroke-dasharray:none;stroke-opacity:1"
       id="path1438" /><path
       d="M 25.926,101.004 H 23.094"
       style="fill:none;stroke:#231f20;stroke-width:0.5;stroke-linecap:butt;stroke-linejoin:miter;stroke-miterlimit:10;stroke-dasharray:none;stroke-opacity:1"
       id="path1442" /><path
       d="M 25.926,59.73 H 23.094"
       style="fill:none;stroke:#231f20;stroke-width:0.5;stroke-linecap:butt;stroke-linejoin:miter;stroke-miterlimit:10;stroke-dasharray:none;stroke-opacity:1"
       id="path1446" /><path
       d="M 25.926,18.453 H 23.094"
       style="fill:none;stroke:#231f20;stroke-width:0.5;stroke-linecap:butt;stroke-linejoin:miter;stroke-miterlimit:10;stroke-dasharray:none;stroke-opacity:1"
       id="path1450" /><path
       d="M 39.32,18.453 V 183.555"
       style="fill:none;stroke:#231f20;stroke-width:0.5;stroke-linecap:butt;stroke-linejoin:miter;stroke-miterlimit:10;stroke-dasharray:none;stroke-opacity:1"
       id="path1454" /><path
       d="M 52.715,18.453 V 183.555"
       style="fill:none;stroke:#231f20;stroke-width:0.5;stroke-linecap:butt;stroke-linejoin:miter;stroke-miterlimit:10;stroke-dasharray:none;stroke-opacity:1"
       id="path1458" /><path
       d="M 66.109,18.453 V 183.555"
       style="fill:none;stroke:#231f20;stroke-width:0.5;stroke-linecap:butt;stroke-linejoin:miter;stroke-miterlimit:10;stroke-dasharray:none;stroke-opacity:1"
       id="path1462" /><path
       d="M 79.504,18.453 V 183.555"
       style="fill:none;stroke:#231f20;stroke-width:0.5;stroke-linecap:butt;stroke-linejoin:miter;stroke-miterlimit:10;stroke-dasharray:none;stroke-opacity:1"
       id="path1466" /><path
       d="M 92.898,18.453 V 183.555"
       style="fill:none;stroke:#231f20;stroke-width:0.5;stroke-linecap:butt;stroke-linejoin:miter;stroke-miterlimit:10;stroke-dasharray:none;stroke-opacity:1"
       id="path1470" /><path
       d="M 106.293,18.453 V 183.555"
       style="fill:none;stroke:#231f20;stroke-width:0.5;stroke-linecap:butt;stroke-linejoin:miter;stroke-miterlimit:10;stroke-dasharray:none;stroke-opacity:1"
       id="path1474" /><path
       d="M 119.688,18.453 V 183.555"
       style="fill:none;stroke:#231f20;stroke-width:0.5;stroke-linecap:butt;stroke-linejoin:miter;stroke-miterlimit:10;stroke-dasharray:none;stroke-opacity:1"
       id="path1478" /><path
       d="M 133.082,18.453 V 183.555"
       style="fill:none;stroke:#231f20;stroke-width:0.5;stroke-linecap:butt;stroke-linejoin:miter;stroke-miterlimit:10;stroke-dasharray:none;stroke-opacity:1"
       id="path1482" /><path
       d="M 146.477,18.453 V 183.555"
       style="fill:none;stroke:#231f20;stroke-width:0.5;stroke-linecap:butt;stroke-linejoin:miter;stroke-miterlimit:10;stroke-dasharray:none;stroke-opacity:1"
       id="path1486" /><path
       d="M 159.871,18.453 V 183.555"
       style="fill:none;stroke:#231f20;stroke-width:0.5;stroke-linecap:butt;stroke-linejoin:miter;stroke-miterlimit:10;stroke-dasharray:none;stroke-opacity:1"
       id="path1490" /><path
       d="M 173.266,18.453 V 183.555"
       style="fill:none;stroke:#231f20;stroke-width:0.5;stroke-linecap:butt;stroke-linejoin:miter;stroke-miterlimit:10;stroke-dasharray:none;stroke-opacity:1"
       id="path1494" /><path
       d="M 186.66,18.453 V 183.555"
       style="fill:none;stroke:#231f20;stroke-width:0.5;stroke-linecap:butt;stroke-linejoin:miter;stroke-miterlimit:10;stroke-dasharray:none;stroke-opacity:1"
       id="path1498" /><path
       d="M 200.055,18.453 V 183.555"
       style="fill:none;stroke:#231f20;stroke-width:0.5;stroke-linecap:butt;stroke-linejoin:miter;stroke-miterlimit:10;stroke-dasharray:none;stroke-opacity:1"
       id="path1502" /><path
       d="M 213.449,18.453 V 183.555"
       style="fill:none;stroke:#231f20;stroke-width:0.5;stroke-linecap:butt;stroke-linejoin:miter;stroke-miterlimit:10;stroke-dasharray:none;stroke-opacity:1"
       id="path1506" /><path
       d="M 226.844,18.453 V 183.555"
       style="fill:none;stroke:#231f20;stroke-width:0.5;stroke-linecap:butt;stroke-linejoin:miter;stroke-miterlimit:10;stroke-dasharray:none;stroke-opacity:1"
       id="path1510" /><path
       d="M 240.238,18.453 V 183.555"
       style="fill:none;stroke:#231f20;stroke-width:0.5;stroke-linecap:butt;stroke-linejoin:miter;stroke-miterlimit:10;stroke-dasharray:none;stroke-opacity:1"
       id="path1514" /><path
       d="M 253.633,18.453 V 183.555"
       style="fill:none;stroke:#231f20;stroke-width:0.5;stroke-linecap:butt;stroke-linejoin:miter;stroke-miterlimit:10;stroke-dasharray:none;stroke-opacity:1"
       id="path1518" /><path
       d="M 267.027,18.453 V 183.555"
       style="fill:none;stroke:#231f20;stroke-width:0.5;stroke-linecap:butt;stroke-linejoin:miter;stroke-miterlimit:10;stroke-dasharray:none;stroke-opacity:1"
       id="path1522" /><path
       d="M 280.422,18.453 V 183.555"
       style="fill:none;stroke:#231f20;stroke-width:0.5;stroke-linecap:butt;stroke-linejoin:miter;stroke-miterlimit:10;stroke-dasharray:none;stroke-opacity:1"
       id="path1526" /><g
       id="g1530" /><g
       id="g1698"><g
         clip-path="url(#clipPath1100)"
         id="g1696"><g
           id="g1540"><g
             transform="scale(1,-1)"
             id="g1534"><path
               d="m 30.156,-183.555 c 0,0 5.813,6.528 7.949,21.313 2.137,14.789 3.165,22.41 3.848,19.062 0.684,-3.347 3.254,-13.59 7.008,-7.437 0,0 7.519,9.402 9.914,26.668 2.395,17.265 2.648,25.472 3.164,37.691 0.512,12.223 1.879,28.891 2.563,32.824 0.683,3.93 2.05,10.207 2.906,1.965 0.855,-8.242 2.39,-26.754 2.82,-34.617 0.426,-7.863 0.77,-20.426 2.223,-27.348 1.453,-6.925 4.957,-17.695 11.281,-17.523 6.324,0.172 13.332,2.906 17.094,10.855 1.367,3.168 2.222,8.375 2.734,13.332 0.516,4.958 1.145,15.727 2.281,16.582 0.352,0.598 0.883,-2.496 1.653,-18.171 0.254,-3.024 1.109,-12.856 8.718,-9.864 7.606,2.993 18.376,6.84 23.161,18.891 1.797,4.187 3.933,12.734 5.726,25.043 1.797,12.309 3.25,26.066 4.36,18.461 1.113,-7.606 3.761,-42.992 16.156,-43.762 4.101,-0.258 8.629,-1.109 23.246,2.137 14.617,3.25 32.394,8.461 39.488,11.625 4.528,1.965 9.828,6.488 12.137,22.902 1.539,10.258 2.824,19.871 3.934,11.543 1.109,-8.328 1.878,-25.617 11.281,-24.262 4.273,0.672 11.711,5.457 15.64,18.106 2.137,6.922 4.274,13.383 6.922,39.086"
               style="fill:none;stroke:#ed1c24;stroke-width:1;stroke-linecap:butt;stroke-linejoin:miter;stroke-miterlimit:10;stroke-dasharray:none;stroke-opacity:1"
               id="path1532" /></g><g
             transform="scale(1,-1)"
             id="g1538"><path
               d="m 281.871,-18.453 c 0,0 2.137,-35.324 11.949,-42.418"
               style="fill:none;stroke:#ed1c24;stroke-width:1;stroke-linecap:butt;stroke-linejoin:miter;stroke-miterlimit:10;stroke-dasharray:none;stroke-opacity:1"
               id="path1536" /></g></g><g
           id="g1556"><g
             clip-path="url(#clipPath1104)"
             id="g1554"><g
               id="g1552"><g
                 id="g1542" /><g
                 id="g1550"><g
                   clip-path="url(#clipPath1108)"
                   opacity="0.300003"
                   id="g1548"><g
                     id="g1546"><path
                       d="m 56.527,145.422 c 0,10.613 -7.367,19.215 -16.453,19.215 -9.086,0 -16.449,-8.602 -16.449,-19.215 0,-10.61 7.363,-19.211 16.449,-19.211 9.086,0 16.453,8.601 16.453,19.211"
                       style="fill:#f2fae5;fill-opacity:1;fill-rule:nonzero;stroke:none"
                       id="path1544" /></g></g></g></g></g></g><g
           id="g1562"><g
             transform="scale(1,-1)"
             id="g1560"><path
               d="m 56.527,-145.422 c 0,-10.613 -7.367,-19.215 -16.453,-19.215 -9.086,0 -16.449,8.602 -16.449,19.215 0,10.61 7.363,19.211 16.449,19.211 9.086,0 16.453,-8.601 16.453,-19.211 z"
               style="fill:none;stroke:#231f20;stroke-width:1;stroke-linecap:butt;stroke-linejoin:miter;stroke-miterlimit:10;stroke-dasharray:none;stroke-opacity:1"
               id="path1558" /></g></g><g
           id="g1578"><g
             clip-path="url(#clipPath1112)"
             id="g1576"><g
               id="g1574"><g
                 id="g1564" /><g
                 id="g1572"><g
                   clip-path="url(#clipPath1116)"
                   opacity="0.399994"
                   id="g1570"><g
                     id="g1568"><path
                       d="m 98.027,126.211 c 0,10.609 -7.367,19.211 -16.453,19.211 -9.086,0 -16.449,-8.602 -16.449,-19.211 0,-10.609 7.363,-19.211 16.449,-19.211 9.086,0 16.453,8.602 16.453,19.211"
                       style="fill:#79c352;fill-opacity:1;fill-rule:nonzero;stroke:none"
                       id="path1566" /></g></g></g></g></g></g><g
           id="g1584"><g
             transform="scale(1,-1)"
             id="g1582"><path
               d="m 98.027,-126.211 c 0,-10.609 -7.367,-19.211 -16.453,-19.211 -9.086,0 -16.449,8.602 -16.449,19.211 0,10.609 7.363,19.211 16.449,19.211 9.086,0 16.453,-8.602 16.453,-19.211 z"
               style="fill:none;stroke:#231f20;stroke-width:1;stroke-linecap:butt;stroke-linejoin:miter;stroke-miterlimit:10;stroke-dasharray:none;stroke-opacity:1"
               id="path1580" /></g></g><g
           id="g1600"><g
             clip-path="url(#clipPath1120)"
             id="g1598"><g
               id="g1596"><g
                 id="g1586" /><g
                 id="g1594"><g
                   clip-path="url(#clipPath1124)"
                   opacity="0.399994"
                   id="g1592"><g
                     id="g1590"><path
                       d="m 179.902,94.441 c 0,10.61 -7.363,19.211 -16.449,19.211 -9.086,0 -16.453,-8.601 -16.453,-19.211 0,-10.609 7.367,-19.211 16.453,-19.211 9.086,0 16.449,8.602 16.449,19.211"
                       style="fill:#79c352;fill-opacity:1;fill-rule:nonzero;stroke:none"
                       id="path1588" /></g></g></g></g></g></g><g
           id="g1606"><g
             transform="scale(1,-1)"
             id="g1604"><path
               d="m 179.902,-94.441 c 0,-10.61 -7.363,-19.211 -16.449,-19.211 -9.086,0 -16.453,8.601 -16.453,19.211 0,10.609 7.367,19.211 16.453,19.211 9.086,0 16.449,-8.602 16.449,-19.211 z"
               style="fill:none;stroke:#231f20;stroke-width:1;stroke-linecap:butt;stroke-linejoin:miter;stroke-miterlimit:10;stroke-dasharray:none;stroke-opacity:1"
               id="path1602" /></g></g><g
           id="g1622"><g
             clip-path="url(#clipPath1128)"
             id="g1620"><g
               id="g1618"><g
                 id="g1608" /><g
                 id="g1616"><g
                   clip-path="url(#clipPath1132)"
                   opacity="0.5"
                   id="g1614"><g
                     id="g1612"><path
                       d="m 82.246,51.711 c 0,10.609 -7.363,19.215 -16.449,19.215 -9.086,0 -16.453,-8.606 -16.453,-19.215 0,-10.609 7.367,-19.211 16.453,-19.211 9.086,0 16.449,8.602 16.449,19.211"
                       style="fill:#83a7dd;fill-opacity:1;fill-rule:nonzero;stroke:none"
                       id="path1610" /></g></g></g></g></g></g><g
           id="g1628"><g
             transform="scale(1,-1)"
             id="g1626"><path
               d="m 82.246,-51.711 c 0,-10.609 -7.363,-19.215 -16.449,-19.215 -9.086,0 -16.453,8.606 -16.453,19.215 0,10.609 7.367,19.211 16.453,19.211 9.086,0 16.449,-8.602 16.449,-19.211 z"
               style="fill:none;stroke:#231f20;stroke-width:1;stroke-linecap:butt;stroke-linejoin:miter;stroke-miterlimit:10;stroke-dasharray:none;stroke-opacity:1"
               id="path1624" /></g></g><g
           id="g1644"><g
             clip-path="url(#clipPath1136)"
             id="g1642"><g
               id="g1640"><g
                 id="g1630" /><g
                 id="g1638"><g
                   clip-path="url(#clipPath1140)"
                   opacity="0.5"
                   id="g1636"><g
                     id="g1634"><path
                       d="m 164.371,51.711 c 0,10.609 -7.363,19.215 -16.449,19.215 -9.086,0 -16.453,-8.606 -16.453,-19.215 0,-10.609 7.367,-19.211 16.453,-19.211 9.086,0 16.449,8.602 16.449,19.211"
                       style="fill:#83a7dd;fill-opacity:1;fill-rule:nonzero;stroke:none"
                       id="path1632" /></g></g></g></g></g></g><g
           id="g1650"><g
             transform="scale(1,-1)"
             id="g1648"><path
               d="m 164.371,-51.711 c 0,-10.609 -7.363,-19.215 -16.449,-19.215 -9.086,0 -16.453,8.606 -16.453,19.215 0,10.609 7.367,19.211 16.453,19.211 9.086,0 16.449,-8.602 16.449,-19.211 z"
               style="fill:none;stroke:#231f20;stroke-width:1;stroke-linecap:butt;stroke-linejoin:miter;stroke-miterlimit:10;stroke-dasharray:none;stroke-opacity:1"
               id="path1646" /></g></g><g
           id="g1666"><g
             clip-path="url(#clipPath1144)"
             id="g1664"><g
               id="g1662"><g
                 id="g1652" /><g
                 id="g1660"><g
                   clip-path="url(#clipPath1148)"
                   opacity="0.5"
                   id="g1658"><g
                     id="g1656"><path
                       d="m 261.496,51.711 c 0,10.609 -7.363,19.215 -16.449,19.215 -9.086,0 -16.453,-8.606 -16.453,-19.215 0,-10.609 7.367,-19.211 16.453,-19.211 9.086,0 16.449,8.602 16.449,19.211"
                       style="fill:#83a7dd;fill-opacity:1;fill-rule:nonzero;stroke:none"
                       id="path1654" /></g></g></g></g></g></g><g
           id="g1672"><g
             transform="scale(1,-1)"
             id="g1670"><path
               d="m 261.496,-51.711 c 0,-10.609 -7.363,-19.215 -16.449,-19.215 -9.086,0 -16.453,8.606 -16.453,19.215 0,10.609 7.367,19.211 16.453,19.211 9.086,0 16.449,-8.602 16.449,-19.211 z"
               style="fill:none;stroke:#231f20;stroke-width:1;stroke-linecap:butt;stroke-linejoin:miter;stroke-miterlimit:10;stroke-dasharray:none;stroke-opacity:1"
               id="path1668" /></g></g><g
           id="g1688"><g
             clip-path="url(#clipPath1152)"
             id="g1686"><g
               id="g1684"><g
                 id="g1674" /><g
                 id="g1682"><g
                   clip-path="url(#clipPath1156)"
                   opacity="0.5"
                   id="g1680"><g
                     id="g1678"><path
                       d="m 297.621,19.711 c 0,10.609 -7.363,19.215 -16.449,19.215 -9.086,0 -16.453,-8.606 -16.453,-19.215 0,-10.609 7.367,-19.211 16.453,-19.211 9.086,0 16.449,8.602 16.449,19.211"
                       style="fill:#83a7dd;fill-opacity:1;fill-rule:nonzero;stroke:none"
                       id="path1676" /></g></g></g></g></g></g><g
           id="g1694"><g
             transform="scale(1,-1)"
             id="g1692"><path
               d="m 297.621,-19.711 c 0,-10.609 -7.363,-19.215 -16.449,-19.215 -9.086,0 -16.453,8.606 -16.453,19.215 0,10.609 7.367,19.211 16.453,19.211 9.086,0 16.449,-8.602 16.449,-19.211 z"
               style="fill:none;stroke:#231f20;stroke-width:1;stroke-linecap:butt;stroke-linejoin:miter;stroke-miterlimit:10;stroke-dasharray:none;stroke-opacity:1"
               id="path1690" /></g></g></g></g><g
       id="g1078" /></g></svg>
