<?xml version="1.0" encoding="UTF-8" standalone="no"?>
<svg
   xmlns:dc="http://purl.org/dc/elements/1.1/"
   xmlns:cc="http://creativecommons.org/ns#"
   xmlns:rdf="http://www.w3.org/1999/02/22-rdf-syntax-ns#"
   xmlns:svg="http://www.w3.org/2000/svg"
   xmlns="http://www.w3.org/2000/svg"
   xmlns:sodipodi="http://sodipodi.sourceforge.net/DTD/sodipodi-0.dtd"
   xmlns:inkscape="http://www.inkscape.org/namespaces/inkscape"
   version="1.1"
   id="svg35080"
   xml:space="preserve"
   width="458.75372"
   height="201.10251"
   viewBox="0 0 458.75372 201.10251"
   sodipodi:docname="exercise_solution.svg"
   inkscape:version="1.0.2 (e86c8708, 2021-01-15)"><metadata
     id="metadata35086"><rdf:RDF><cc:Work
         rdf:about=""><dc:format>image/svg+xml</dc:format><dc:type
           rdf:resource="http://purl.org/dc/dcmitype/StillImage" /><dc:title></dc:title></cc:Work></rdf:RDF></metadata><defs
     id="defs35084"><marker
       style="overflow:visible"
       id="Arrow2Lend"
       refX="0"
       refY="0"
       orient="auto"
       inkscape:stockid="Arrow2Lend"
       inkscape:isstock="true"><path
         transform="matrix(-1.1,0,0,-1.1,-1.1,0)"
         d="M 8.7185878,4.0337352 -2.2072895,0.01601326 8.7185884,-4.0017078 c -1.7454984,2.3720609 -1.7354408,5.6174519 -6e-7,8.035443 z"
         style="fill:#ff0000;fill-opacity:1;fill-rule:evenodd;stroke:#000000;stroke-width:0.625;stroke-linejoin:round;stroke-opacity:1"
         id="path20094" /></marker><clipPath
       clipPathUnits="userSpaceOnUse"
       id="clipPath35096"><path
         d="M 0,0 H 7200 V 7200 H 0 Z"
         id="path35094" /></clipPath><pattern
       patternTransform="matrix(0.0038049,0.00342595,-0.00342595,0.0038049,-2469.6899,7295.894)"
       patternUnits="userSpaceOnUse"
       x="0"
       y="0"
       width="7200"
       height="7200"
       id="pattern35224"><g
         id="g35222"><g
           clip-path="url(#clipPath35096)"
           id="g35220"><g
             id="g35218"><g
               id="g35100"><path
                 d="m 7175,360.059 7250,0"
                 style="fill:none;stroke:#231f20;stroke-opacity:1;stroke-width:72.000003;stroke-linecap:butt;stroke-linejoin:miter;stroke-miterlimit:4;stroke-dasharray:none"
                 id="path35098" /></g><g
               id="g35104"><path
                 d="m 7175,1800 7250,0"
                 style="fill:none;stroke:#231f20;stroke-opacity:1;stroke-width:72.000003;stroke-linecap:butt;stroke-linejoin:miter;stroke-miterlimit:4;stroke-dasharray:none"
                 id="path35102" /></g><g
               id="g35108"><path
                 d="m 7175,3239.941 7250,0"
                 style="fill:none;stroke:#231f20;stroke-opacity:1;stroke-width:72.000003;stroke-linecap:butt;stroke-linejoin:miter;stroke-miterlimit:4;stroke-dasharray:none"
                 id="path35106" /></g><g
               id="g35112"><path
                 d="m 7175,4679.98 7250,0"
                 style="fill:none;stroke:#231f20;stroke-opacity:1;stroke-width:72.000003;stroke-linecap:butt;stroke-linejoin:miter;stroke-miterlimit:4;stroke-dasharray:none"
                 id="path35110" /></g><g
               id="g35116"><path
                 d="m 7175,6120.02 7250,0"
                 style="fill:none;stroke:#231f20;stroke-opacity:1;stroke-width:72.000003;stroke-linecap:butt;stroke-linejoin:miter;stroke-miterlimit:4;stroke-dasharray:none"
                 id="path35114" /></g><g
               id="g35120"><path
                 d="m 7175,1079.98 7250,0"
                 style="fill:none;stroke:#231f20;stroke-opacity:1;stroke-width:72.000003;stroke-linecap:butt;stroke-linejoin:miter;stroke-miterlimit:4;stroke-dasharray:none"
                 id="path35118" /></g><g
               id="g35124"><path
                 d="m 7175,2520.02 7250,0"
                 style="fill:none;stroke:#231f20;stroke-opacity:1;stroke-width:72.000003;stroke-linecap:butt;stroke-linejoin:miter;stroke-miterlimit:4;stroke-dasharray:none"
                 id="path35122" /></g><g
               id="g35128"><path
                 d="m 7175,3959.961 7250,0"
                 style="fill:none;stroke:#231f20;stroke-opacity:1;stroke-width:72.000003;stroke-linecap:butt;stroke-linejoin:miter;stroke-miterlimit:4;stroke-dasharray:none"
                 id="path35126" /></g><g
               id="g35132"><path
                 d="m 7175,5400 7250,0"
                 style="fill:none;stroke:#231f20;stroke-opacity:1;stroke-width:72.000003;stroke-linecap:butt;stroke-linejoin:miter;stroke-miterlimit:4;stroke-dasharray:none"
                 id="path35130" /></g><g
               id="g35136"><path
                 d="m 7175,6839.941 7250,0"
                 style="fill:none;stroke:#231f20;stroke-opacity:1;stroke-width:72.000003;stroke-linecap:butt;stroke-linejoin:miter;stroke-miterlimit:4;stroke-dasharray:none"
                 id="path35134" /></g><g
               id="g35140"><path
                 d="m -25,360.059 7250,0"
                 style="fill:none;stroke:#231f20;stroke-opacity:1;stroke-width:72.000003;stroke-linecap:butt;stroke-linejoin:miter;stroke-miterlimit:4;stroke-dasharray:none"
                 id="path35138" /></g><g
               id="g35144"><path
                 d="m -25,1800 7250,0"
                 style="fill:none;stroke:#231f20;stroke-opacity:1;stroke-width:72.000003;stroke-linecap:butt;stroke-linejoin:miter;stroke-miterlimit:4;stroke-dasharray:none"
                 id="path35142" /></g><g
               id="g35148"><path
                 d="m -25,3239.941 7250,0"
                 style="fill:none;stroke:#231f20;stroke-opacity:1;stroke-width:72.000003;stroke-linecap:butt;stroke-linejoin:miter;stroke-miterlimit:4;stroke-dasharray:none"
                 id="path35146" /></g><g
               id="g35152"><path
                 d="m -25,4679.98 7250,0"
                 style="fill:none;stroke:#231f20;stroke-opacity:1;stroke-width:72.000003;stroke-linecap:butt;stroke-linejoin:miter;stroke-miterlimit:4;stroke-dasharray:none"
                 id="path35150" /></g><g
               id="g35156"><path
                 d="m -25,6120.02 7250,0"
                 style="fill:none;stroke:#231f20;stroke-opacity:1;stroke-width:72.000003;stroke-linecap:butt;stroke-linejoin:miter;stroke-miterlimit:4;stroke-dasharray:none"
                 id="path35154" /></g><g
               id="g35160"><path
                 d="m -25,1079.98 7250,0"
                 style="fill:none;stroke:#231f20;stroke-opacity:1;stroke-width:72.000003;stroke-linecap:butt;stroke-linejoin:miter;stroke-miterlimit:4;stroke-dasharray:none"
                 id="path35158" /></g><g
               id="g35164"><path
                 d="m -25,2520.02 7250,0"
                 style="fill:none;stroke:#231f20;stroke-opacity:1;stroke-width:72.000003;stroke-linecap:butt;stroke-linejoin:miter;stroke-miterlimit:4;stroke-dasharray:none"
                 id="path35162" /></g><g
               id="g35168"><path
                 d="m -25,3959.961 7250,0"
                 style="fill:none;stroke:#231f20;stroke-opacity:1;stroke-width:72.000003;stroke-linecap:butt;stroke-linejoin:miter;stroke-miterlimit:4;stroke-dasharray:none"
                 id="path35166" /></g><g
               id="g35172"><path
                 d="m -25,5400 7250,0"
                 style="fill:none;stroke:#231f20;stroke-opacity:1;stroke-width:72.000003;stroke-linecap:butt;stroke-linejoin:miter;stroke-miterlimit:4;stroke-dasharray:none"
                 id="path35170" /></g><g
               id="g35176"><path
                 d="m -25,6839.941 7250,0"
                 style="fill:none;stroke:#231f20;stroke-opacity:1;stroke-width:72.000003;stroke-linecap:butt;stroke-linejoin:miter;stroke-miterlimit:4;stroke-dasharray:none"
                 id="path35174" /></g><g
               id="g35180"><path
                 d="m -7225,360.059 7250,0"
                 style="fill:none;stroke:#231f20;stroke-opacity:1;stroke-width:72.000003;stroke-linecap:butt;stroke-linejoin:miter;stroke-miterlimit:4;stroke-dasharray:none"
                 id="path35178" /></g><g
               id="g35184"><path
                 d="m -7225,1800 7250,0"
                 style="fill:none;stroke:#231f20;stroke-opacity:1;stroke-width:72.000003;stroke-linecap:butt;stroke-linejoin:miter;stroke-miterlimit:4;stroke-dasharray:none"
                 id="path35182" /></g><g
               id="g35188"><path
                 d="m -7225,3239.941 7250,0"
                 style="fill:none;stroke:#231f20;stroke-opacity:1;stroke-width:72.000003;stroke-linecap:butt;stroke-linejoin:miter;stroke-miterlimit:4;stroke-dasharray:none"
                 id="path35186" /></g><g
               id="g35192"><path
                 d="m -7225,4679.98 7250,0"
                 style="fill:none;stroke:#231f20;stroke-opacity:1;stroke-width:72.000003;stroke-linecap:butt;stroke-linejoin:miter;stroke-miterlimit:4;stroke-dasharray:none"
                 id="path35190" /></g><g
               id="g35196"><path
                 d="m -7225,6120.02 7250,0"
                 style="fill:none;stroke:#231f20;stroke-opacity:1;stroke-width:72.000003;stroke-linecap:butt;stroke-linejoin:miter;stroke-miterlimit:4;stroke-dasharray:none"
                 id="path35194" /></g><g
               id="g35200"><path
                 d="m -7225,1079.98 7250,0"
                 style="fill:none;stroke:#231f20;stroke-opacity:1;stroke-width:72.000003;stroke-linecap:butt;stroke-linejoin:miter;stroke-miterlimit:4;stroke-dasharray:none"
                 id="path35198" /></g><g
               id="g35204"><path
                 d="m -7225,2520.02 7250,0"
                 style="fill:none;stroke:#231f20;stroke-opacity:1;stroke-width:72.000003;stroke-linecap:butt;stroke-linejoin:miter;stroke-miterlimit:4;stroke-dasharray:none"
                 id="path35202" /></g><g
               id="g35208"><path
                 d="m -7225,3959.961 7250,0"
                 style="fill:none;stroke:#231f20;stroke-opacity:1;stroke-width:72.000003;stroke-linecap:butt;stroke-linejoin:miter;stroke-miterlimit:4;stroke-dasharray:none"
                 id="path35206" /></g><g
               id="g35212"><path
                 d="m -7225,5400 7250,0"
                 style="fill:none;stroke:#231f20;stroke-opacity:1;stroke-width:72.000003;stroke-linecap:butt;stroke-linejoin:miter;stroke-miterlimit:4;stroke-dasharray:none"
                 id="path35210" /></g><g
               id="g35216"><path
                 d="m -7225,6839.941 7250,0"
                 style="fill:none;stroke:#231f20;stroke-opacity:1;stroke-width:72.000003;stroke-linecap:butt;stroke-linejoin:miter;stroke-miterlimit:4;stroke-dasharray:none"
                 id="path35214" /></g></g></g></g></pattern><clipPath
       clipPathUnits="userSpaceOnUse"
       id="clipPath35236"><path
         d="M 0,0 H 316 V 21 H 0 Z"
         id="path35234" /></clipPath><linearGradient
       x1="0"
       y1="0"
       x2="1"
       y2="0"
       gradientUnits="userSpaceOnUse"
       gradientTransform="matrix(-4e-7,-9.951408,9.951408,-4e-7,127.95361,13.573275)"
       spreadMethod="pad"
       id="linearGradient35258"><stop
         style="stop-opacity:1;stop-color:#f8f9fa"
         offset="0"
         id="stop35254" /><stop
         style="stop-opacity:1;stop-color:#ffffff"
         offset="1"
         id="stop35256" /></linearGradient><clipPath
       clipPathUnits="userSpaceOnUse"
       id="clipPath35270"><path
         d="M 0,0 H 316 V 21 H 0 Z"
         id="path35268" /></clipPath><clipPath
       clipPathUnits="userSpaceOnUse"
       id="clipPath35282"><path
         d="M 0,0 H 7200 V 7200 H 0 Z"
         id="path35280" /></clipPath><pattern
       patternTransform="matrix(-2.6796e-4,-0.00511298,0.00511298,-2.6796e-4,-12220.71,3676.836)"
       patternUnits="userSpaceOnUse"
       x="0"
       y="0"
       width="7200"
       height="7200"
       id="pattern35410"><g
         id="g35408"><g
           clip-path="url(#clipPath35282)"
           id="g35406"><g
             id="g35404"><g
               id="g35286"><path
                 d="m 7175,360.059 7250,0"
                 style="fill:none;stroke:#231f20;stroke-opacity:1;stroke-width:72.000003;stroke-linecap:butt;stroke-linejoin:miter;stroke-miterlimit:4;stroke-dasharray:none"
                 id="path35284" /></g><g
               id="g35290"><path
                 d="m 7175,1800 7250,0"
                 style="fill:none;stroke:#231f20;stroke-opacity:1;stroke-width:72.000003;stroke-linecap:butt;stroke-linejoin:miter;stroke-miterlimit:4;stroke-dasharray:none"
                 id="path35288" /></g><g
               id="g35294"><path
                 d="m 7175,3239.941 7250,0"
                 style="fill:none;stroke:#231f20;stroke-opacity:1;stroke-width:72.000003;stroke-linecap:butt;stroke-linejoin:miter;stroke-miterlimit:4;stroke-dasharray:none"
                 id="path35292" /></g><g
               id="g35298"><path
                 d="m 7175,4679.98 7250,0"
                 style="fill:none;stroke:#231f20;stroke-opacity:1;stroke-width:72.000003;stroke-linecap:butt;stroke-linejoin:miter;stroke-miterlimit:4;stroke-dasharray:none"
                 id="path35296" /></g><g
               id="g35302"><path
                 d="m 7175,6120.02 7250,0"
                 style="fill:none;stroke:#231f20;stroke-opacity:1;stroke-width:72.000003;stroke-linecap:butt;stroke-linejoin:miter;stroke-miterlimit:4;stroke-dasharray:none"
                 id="path35300" /></g><g
               id="g35306"><path
                 d="m 7175,1079.98 7250,0"
                 style="fill:none;stroke:#231f20;stroke-opacity:1;stroke-width:72.000003;stroke-linecap:butt;stroke-linejoin:miter;stroke-miterlimit:4;stroke-dasharray:none"
                 id="path35304" /></g><g
               id="g35310"><path
                 d="m 7175,2520.02 7250,0"
                 style="fill:none;stroke:#231f20;stroke-opacity:1;stroke-width:72.000003;stroke-linecap:butt;stroke-linejoin:miter;stroke-miterlimit:4;stroke-dasharray:none"
                 id="path35308" /></g><g
               id="g35314"><path
                 d="m 7175,3959.961 7250,0"
                 style="fill:none;stroke:#231f20;stroke-opacity:1;stroke-width:72.000003;stroke-linecap:butt;stroke-linejoin:miter;stroke-miterlimit:4;stroke-dasharray:none"
                 id="path35312" /></g><g
               id="g35318"><path
                 d="m 7175,5400 7250,0"
                 style="fill:none;stroke:#231f20;stroke-opacity:1;stroke-width:72.000003;stroke-linecap:butt;stroke-linejoin:miter;stroke-miterlimit:4;stroke-dasharray:none"
                 id="path35316" /></g><g
               id="g35322"><path
                 d="m 7175,6839.941 7250,0"
                 style="fill:none;stroke:#231f20;stroke-opacity:1;stroke-width:72.000003;stroke-linecap:butt;stroke-linejoin:miter;stroke-miterlimit:4;stroke-dasharray:none"
                 id="path35320" /></g><g
               id="g35326"><path
                 d="m -25,360.059 7250,0"
                 style="fill:none;stroke:#231f20;stroke-opacity:1;stroke-width:72.000003;stroke-linecap:butt;stroke-linejoin:miter;stroke-miterlimit:4;stroke-dasharray:none"
                 id="path35324" /></g><g
               id="g35330"><path
                 d="m -25,1800 7250,0"
                 style="fill:none;stroke:#231f20;stroke-opacity:1;stroke-width:72.000003;stroke-linecap:butt;stroke-linejoin:miter;stroke-miterlimit:4;stroke-dasharray:none"
                 id="path35328" /></g><g
               id="g35334"><path
                 d="m -25,3239.941 7250,0"
                 style="fill:none;stroke:#231f20;stroke-opacity:1;stroke-width:72.000003;stroke-linecap:butt;stroke-linejoin:miter;stroke-miterlimit:4;stroke-dasharray:none"
                 id="path35332" /></g><g
               id="g35338"><path
                 d="m -25,4679.98 7250,0"
                 style="fill:none;stroke:#231f20;stroke-opacity:1;stroke-width:72.000003;stroke-linecap:butt;stroke-linejoin:miter;stroke-miterlimit:4;stroke-dasharray:none"
                 id="path35336" /></g><g
               id="g35342"><path
                 d="m -25,6120.02 7250,0"
                 style="fill:none;stroke:#231f20;stroke-opacity:1;stroke-width:72.000003;stroke-linecap:butt;stroke-linejoin:miter;stroke-miterlimit:4;stroke-dasharray:none"
                 id="path35340" /></g><g
               id="g35346"><path
                 d="m -25,1079.98 7250,0"
                 style="fill:none;stroke:#231f20;stroke-opacity:1;stroke-width:72.000003;stroke-linecap:butt;stroke-linejoin:miter;stroke-miterlimit:4;stroke-dasharray:none"
                 id="path35344" /></g><g
               id="g35350"><path
                 d="m -25,2520.02 7250,0"
                 style="fill:none;stroke:#231f20;stroke-opacity:1;stroke-width:72.000003;stroke-linecap:butt;stroke-linejoin:miter;stroke-miterlimit:4;stroke-dasharray:none"
                 id="path35348" /></g><g
               id="g35354"><path
                 d="m -25,3959.961 7250,0"
                 style="fill:none;stroke:#231f20;stroke-opacity:1;stroke-width:72.000003;stroke-linecap:butt;stroke-linejoin:miter;stroke-miterlimit:4;stroke-dasharray:none"
                 id="path35352" /></g><g
               id="g35358"><path
                 d="m -25,5400 7250,0"
                 style="fill:none;stroke:#231f20;stroke-opacity:1;stroke-width:72.000003;stroke-linecap:butt;stroke-linejoin:miter;stroke-miterlimit:4;stroke-dasharray:none"
                 id="path35356" /></g><g
               id="g35362"><path
                 d="m -25,6839.941 7250,0"
                 style="fill:none;stroke:#231f20;stroke-opacity:1;stroke-width:72.000003;stroke-linecap:butt;stroke-linejoin:miter;stroke-miterlimit:4;stroke-dasharray:none"
                 id="path35360" /></g><g
               id="g35366"><path
                 d="m -7225,360.059 7250,0"
                 style="fill:none;stroke:#231f20;stroke-opacity:1;stroke-width:72.000003;stroke-linecap:butt;stroke-linejoin:miter;stroke-miterlimit:4;stroke-dasharray:none"
                 id="path35364" /></g><g
               id="g35370"><path
                 d="m -7225,1800 7250,0"
                 style="fill:none;stroke:#231f20;stroke-opacity:1;stroke-width:72.000003;stroke-linecap:butt;stroke-linejoin:miter;stroke-miterlimit:4;stroke-dasharray:none"
                 id="path35368" /></g><g
               id="g35374"><path
                 d="m -7225,3239.941 7250,0"
                 style="fill:none;stroke:#231f20;stroke-opacity:1;stroke-width:72.000003;stroke-linecap:butt;stroke-linejoin:miter;stroke-miterlimit:4;stroke-dasharray:none"
                 id="path35372" /></g><g
               id="g35378"><path
                 d="m -7225,4679.98 7250,0"
                 style="fill:none;stroke:#231f20;stroke-opacity:1;stroke-width:72.000003;stroke-linecap:butt;stroke-linejoin:miter;stroke-miterlimit:4;stroke-dasharray:none"
                 id="path35376" /></g><g
               id="g35382"><path
                 d="m -7225,6120.02 7250,0"
                 style="fill:none;stroke:#231f20;stroke-opacity:1;stroke-width:72.000003;stroke-linecap:butt;stroke-linejoin:miter;stroke-miterlimit:4;stroke-dasharray:none"
                 id="path35380" /></g><g
               id="g35386"><path
                 d="m -7225,1079.98 7250,0"
                 style="fill:none;stroke:#231f20;stroke-opacity:1;stroke-width:72.000003;stroke-linecap:butt;stroke-linejoin:miter;stroke-miterlimit:4;stroke-dasharray:none"
                 id="path35384" /></g><g
               id="g35390"><path
                 d="m -7225,2520.02 7250,0"
                 style="fill:none;stroke:#231f20;stroke-opacity:1;stroke-width:72.000003;stroke-linecap:butt;stroke-linejoin:miter;stroke-miterlimit:4;stroke-dasharray:none"
                 id="path35388" /></g><g
               id="g35394"><path
                 d="m -7225,3959.961 7250,0"
                 style="fill:none;stroke:#231f20;stroke-opacity:1;stroke-width:72.000003;stroke-linecap:butt;stroke-linejoin:miter;stroke-miterlimit:4;stroke-dasharray:none"
                 id="path35392" /></g><g
               id="g35398"><path
                 d="m -7225,5400 7250,0"
                 style="fill:none;stroke:#231f20;stroke-opacity:1;stroke-width:72.000003;stroke-linecap:butt;stroke-linejoin:miter;stroke-miterlimit:4;stroke-dasharray:none"
                 id="path35396" /></g><g
               id="g35402"><path
                 d="m -7225,6839.941 7250,0"
                 style="fill:none;stroke:#231f20;stroke-opacity:1;stroke-width:72.000003;stroke-linecap:butt;stroke-linejoin:miter;stroke-miterlimit:4;stroke-dasharray:none"
                 id="path35400" /></g></g></g></g></pattern></defs><sodipodi:namedview
     pagecolor="#ffffff"
     bordercolor="#666666"
     borderopacity="1"
     objecttolerance="10"
     gridtolerance="10"
     guidetolerance="10"
     inkscape:pageopacity="0"
     inkscape:pageshadow="2"
     inkscape:window-width="640"
     inkscape:window-height="480"
     id="namedview35082"
     showgrid="false"
     inkscape:zoom="1.086395"
     inkscape:cx="100.38028"
     inkscape:cy="61.8967"
     inkscape:current-layer="g35088"
     fit-margin-top="0"
     fit-margin-left="0"
     fit-margin-right="0"
     fit-margin-bottom="0" /><g
     id="g35088"
     inkscape:groupmode="layer"
     inkscape:label="exercise"
     transform="matrix(1.3333333,0,0,1.3333333,0,12.886658)"><g
       id="g35244"><g
         id="g35246"><g
           id="g35252"><path
             d="M 0.25,3.695 H 255.656 V 13.707 H 0.25 Z"
             style="fill:url(#linearGradient35258);stroke:none"
             id="path35260" /></g></g></g><g
       id="g35262"><g
         id="g35264"><g
           id="g35266"
           clip-path="url(#clipPath35270)"><g
             id="g35272"><g
               id="g35274"
               transform="scale(1,-1)"><path
                 d="m 0.25,-9.465 h 255.406 v -4.242 H 0.25 Z"
                 style="fill:#ffaa00;fill-opacity:1;fill-rule:nonzero;stroke:#231f20;stroke-width:0.5;stroke-linecap:butt;stroke-linejoin:miter;stroke-miterlimit:10;stroke-dasharray:none;stroke-opacity:1"
                 id="path35276" /></g></g></g></g></g><g
       id="g35278"><path
         d="m 110.633,12.828 h 24.93 v 0.879 h -24.93 z"
         style="fill:url(#pattern35410);fill-opacity:1;fill-rule:nonzero;stroke:none"
         id="path35412" /></g><g
       id="g35414"
       transform="scale(1,-1)"><path
         d="m 97.621,-12.367 h 50.953 v -1.555 H 97.621 Z"
         style="fill:#ff0040;fill-opacity:1;fill-rule:nonzero;stroke:#231f20;stroke-width:0.42225;stroke-linecap:butt;stroke-linejoin:miter;stroke-miterlimit:10;stroke-dasharray:none;stroke-opacity:1"
         id="path35416" /></g><text
       style="font-variant:normal;font-weight:normal;font-size:10px;font-family:Times;-inkscape-font-specification:Times-Roman;writing-mode:lr-tb;fill:#231f20;fill-opacity:1;fill-rule:nonzero;stroke:none"
       id="text35420"
       x="108.18359"
       y="6.7333961"><tspan
         x="108.18359 115.40359 120.40359 123.17359 127.60359 132.60359 137.60359"
         y="6.7333961"
         sodipodi:role="line"
         id="tspan35418">Antenna</tspan></text><g
       id="g36053"><path
         d="m 264.504,11.168 c 0.437,0.187 0.832,0.187 1.144,0.187 0.332,0 1.082,0 1.082,-0.414 0,-0.312 -0.476,-0.355 -0.976,-0.355 -0.274,0 -0.75,0.019 -1.231,0.25 -0.312,-0.145 -0.543,-0.418 -0.543,-0.77 0,-0.812 1.313,-1.293 2.5,-1.293 0.211,0 0.688,0 1.231,0.375 0.144,0.106 0.168,0.145 0.25,0.145 0.187,0 0.375,-0.188 0.375,-0.375 0,-0.25 -0.813,-0.75 -1.731,-0.75 -1.519,0 -2.957,0.898 -2.957,1.898 0,0.582 0.481,0.914 0.543,0.957 -0.793,0.438 -1.211,1.168 -1.211,1.793 0,0.852 0.75,1.664 2.168,1.664 1.75,0 2.5,-1.168 2.5,-1.375 0,-0.082 -0.082,-0.125 -0.144,-0.125 -0.086,0 -0.125,0.043 -0.149,0.086 -0.187,0.309 -0.5,0.809 -2.101,0.809 -0.813,0 -1.938,-0.207 -1.938,-1.145 0,-0.457 0.375,-1.164 1.188,-1.562 z m 0.437,-0.164 c 0.313,-0.106 0.582,-0.125 0.813,-0.125 0.332,0 0.375,0.019 0.625,0.082 -0.211,0.082 -0.231,0.105 -0.731,0.105 -0.293,0 -0.457,0 -0.707,-0.062 z"
         style="fill:#000000;fill-opacity:1;fill-rule:nonzero;stroke:none"
         id="path35422" /><path
         d="m 271.008,14.305 c 0,-0.063 0.23,-0.895 0.23,-0.938 0.02,-0.082 0.293,-0.539 0.606,-0.769 0.082,-0.063 0.332,-0.25 0.75,-0.25 0.082,0 0.312,0 0.5,0.125 -0.293,0.082 -0.399,0.355 -0.399,0.519 0,0.188 0.149,0.336 0.356,0.336 0.23,0 0.519,-0.168 0.519,-0.562 0,-0.481 -0.5,-0.688 -0.976,-0.688 -0.481,0 -0.899,0.207 -1.313,0.664 -0.168,-0.562 -0.73,-0.664 -0.961,-0.664 -0.332,0 -0.562,0.227 -0.726,0.477 -0.211,0.355 -0.336,0.898 -0.336,0.961 0,0.101 0.125,0.101 0.168,0.101 0.125,0 0.125,-0.019 0.187,-0.269 0.145,-0.563 0.332,-1 0.688,-1 0.25,0 0.312,0.207 0.312,0.457 0,0.168 -0.082,0.523 -0.168,0.773 -0.062,0.25 -0.144,0.625 -0.187,0.832 l -0.313,1.188 c -0.019,0.125 -0.082,0.355 -0.082,0.375 0,0.207 0.168,0.293 0.313,0.293 0.144,0 0.332,-0.086 0.394,-0.25 0.024,-0.063 0.125,-0.481 0.188,-0.711 z"
         style="fill:#000000;fill-opacity:1;fill-rule:nonzero;stroke:none"
         id="path35424" /><path
         d="m 287.52,9.836 c 0.207,0 0.457,0 0.457,-0.25 0,-0.27 -0.25,-0.27 -0.438,-0.27 h -7.957 c -0.187,0 -0.437,0 -0.437,0.27 0,0.25 0.25,0.25 0.437,0.25 z m 0.019,2.582 c 0.188,0 0.438,0 0.438,-0.27 0,-0.25 -0.25,-0.25 -0.457,-0.25 h -7.938 c -0.187,0 -0.437,0 -0.437,0.25 0,0.27 0.25,0.27 0.437,0.27 z"
         style="fill:#000000;fill-opacity:1;fill-rule:nonzero;stroke:none"
         id="path35426" /><path
         d="m 296.324,5.691 c 0,-0.336 0,-0.355 -0.312,-0.355 -0.836,0.855 -2,0.855 -2.418,0.855 v 0.414 c 0.269,0 1.043,0 1.73,-0.351 v 6.894 c 0,0.477 -0.043,0.625 -1.23,0.625 h -0.418 v 0.415 c 0.461,-0.04 1.605,-0.04 2.148,-0.04 0.52,0 1.688,0 2.145,0.04 v -0.415 h -0.418 c -1.207,0 -1.227,-0.148 -1.227,-0.625 z"
         style="fill:#000000;fill-opacity:1;fill-rule:nonzero;stroke:none"
         id="path35428" /><path
         d="m 302.965,5.691 c 0,-0.336 0,-0.355 -0.313,-0.355 -0.836,0.855 -2,0.855 -2.418,0.855 v 0.414 c 0.27,0 1.043,0 1.731,-0.351 v 6.894 c 0,0.477 -0.043,0.625 -1.231,0.625 h -0.418 v 0.415 c 0.461,-0.04 1.606,-0.04 2.149,-0.04 0.519,0 1.687,0 2.144,0.04 v -0.415 h -0.418 c -1.207,0 -1.226,-0.148 -1.226,-0.625 z"
         style="fill:#000000;fill-opacity:1;fill-rule:nonzero;stroke:none"
         id="path35430" /><path
         d="m 308.242,13.48 c 0,-0.375 -0.312,-0.707 -0.687,-0.707 -0.399,0 -0.711,0.332 -0.711,0.707 0,0.395 0.312,0.708 0.711,0.708 0.375,0 0.687,-0.313 0.687,-0.708 z"
         style="fill:#000000;fill-opacity:1;fill-rule:nonzero;stroke:none"
         id="path35432" /><path
         d="m 315.723,6.086 c 0.105,-0.145 0.105,-0.168 0.105,-0.457 h -3.23 c -1.606,0 -1.645,-0.168 -1.688,-0.418 h -0.332 l -0.437,2.73 h 0.332 c 0.043,-0.211 0.144,-1.043 0.332,-1.211 0.086,-0.082 1.125,-0.082 1.293,-0.082 h 2.75 c -0.145,0.207 -1.188,1.668 -1.481,2.106 -1.207,1.789 -1.644,3.644 -1.644,4.996 0,0.125 0,0.73 0.625,0.73 0.605,0 0.605,-0.605 0.605,-0.73 v -0.684 c 0,-0.73 0.039,-1.461 0.145,-2.168 0.062,-0.312 0.23,-1.457 0.832,-2.269 z"
         style="fill:#000000;fill-opacity:1;fill-rule:nonzero;stroke:none"
         id="path35434" /></g><g
       id="g36057"
       transform="matrix(1,0,0,-1,69.44066,0)"><path
         d="m 97.621,-12.367 h 50.953 v -1.555 H 97.621 Z"
         style="fill:#ff0040;fill-opacity:1;fill-rule:nonzero;stroke:#231f20;stroke-width:0.42225;stroke-linecap:butt;stroke-linejoin:miter;stroke-miterlimit:10;stroke-dasharray:none;stroke-opacity:1"
         id="path36055" /></g><g
       id="g36061"
       transform="matrix(1,0,0,-1,-68.906501,0)"><path
         d="m 97.621,-12.367 h 50.953 v -1.555 H 97.621 Z"
         style="fill:#ff0040;fill-opacity:1;fill-rule:nonzero;stroke:#231f20;stroke-width:0.42225;stroke-linecap:butt;stroke-linejoin:miter;stroke-miterlimit:10;stroke-dasharray:none;stroke-opacity:1"
         id="path36059" /></g><path
       style="opacity:0.464198;fill:none;stroke:#ff0000;stroke-width:2.13767;stroke-linecap:round;stroke-linejoin:round"
       id="path36067"
       sodipodi:type="arc"
       sodipodi:cx="127.32121"
       sodipodi:cy="14.193915"
       sodipodi:rx="125.8998"
       sodipodi:ry="125.8998"
       sodipodi:start="0"
       sodipodi:end="3.1415927"
       sodipodi:open="true"
       sodipodi:arc-type="arc"
       d="m 253.22102,14.193915 a 125.8998,125.8998 0 0 1 -62.94991,109.032425 125.8998,125.8998 0 0 1 -125.899802,0 A 125.8998,125.8998 0 0 1 1.4214096,14.193915" /><path
       style="fill:#ff0000;fill-opacity:1;stroke:#000000;stroke-width:1.5;stroke-linecap:butt;stroke-linejoin:miter;stroke-miterlimit:4;stroke-dasharray:none;stroke-opacity:1;marker-end:url(#Arrow2Lend)"
       d="M 336.89406,-9.6649938 V 40.731045"
       id="path36069" /></g></svg>
