<?xml version="1.0" encoding="UTF-8" standalone="no"?>
<svg
   xmlns:ns4="http://www.iki.fi/pav/software/textext/"
   xmlns:dc="http://purl.org/dc/elements/1.1/"
   xmlns:cc="http://creativecommons.org/ns#"
   xmlns:rdf="http://www.w3.org/1999/02/22-rdf-syntax-ns#"
   xmlns:svg="http://www.w3.org/2000/svg"
   xmlns="http://www.w3.org/2000/svg"
   xmlns:xlink="http://www.w3.org/1999/xlink"
   xmlns:sodipodi="http://sodipodi.sourceforge.net/DTD/sodipodi-0.dtd"
   xmlns:inkscape="http://www.inkscape.org/namespaces/inkscape"
   version="1.1"
   id="svg6301"
   xml:space="preserve"
   width="467.25217"
   height="288.59787"
   viewBox="0 0 467.25217 288.59787"
   sodipodi:docname="onchipantennas.svg"
   inkscape:version="1.0.2 (e86c8708, 2021-01-15)"><metadata
     id="metadata6307"><rdf:RDF><cc:Work
         rdf:about=""><dc:format>image/svg+xml</dc:format><dc:type
           rdf:resource="http://purl.org/dc/dcmitype/StillImage" /><dc:title></dc:title></cc:Work></rdf:RDF></metadata><defs
     id="defs6305"><pattern
       inkscape:collect="always"
       xlink:href="#pattern6821"
       id="pattern12026"
       patternTransform="matrix(0.38049001,0.34259501,-0.34259501,0.38049001,-2352.544,7425.6462)" /><pattern
       inkscape:collect="always"
       xlink:href="#pattern6975"
       id="pattern12004"
       patternTransform="matrix(-0.026796,-0.511298,0.511298,-0.026796,-12103.564,3834.3361)" /><clipPath
       clipPathUnits="userSpaceOnUse"
       id="clipPath6527"><path
         d="M 0,0 H 198.87 V 110.586 H 0 Z"
         id="path6525" /></clipPath><clipPath
       clipPathUnits="userSpaceOnUse"
       id="clipPath6573"><path
         d="M 0,110.586 H 198.87 V 0 H 0 Z"
         id="path6571" /></clipPath><clipPath
       clipPathUnits="userSpaceOnUse"
       id="clipPath6597"><path
         d="M 0,110.586 H 198.87 V 0 H 0 Z"
         id="path6595" /></clipPath><clipPath
       clipPathUnits="userSpaceOnUse"
       id="clipPath6657"><path
         d="M 0,110.586 H 198.87 V 0 H 0 Z"
         id="path6655" /></clipPath><clipPath
       clipPathUnits="userSpaceOnUse"
       id="clipPath6673"><path
         d="M 0,110.586 H 198.87 V 0 H 0 Z"
         id="path6671" /></clipPath><clipPath
       clipPathUnits="userSpaceOnUse"
       id="clipPath6699"><path
         d="M 0,0 H 340.095 V 96.840302 H 0 Z"
         id="path6697" /></clipPath><pattern
       patternTransform="matrix(0.38049001,0.34259501,-0.34259501,0.38049001,-2469.69,7309.8222)"
       patternUnits="userSpaceOnUse"
       x="0"
       y="0"
       width="72"
       height="72"
       id="pattern6821"><g
         transform="translate(71.75,3.6006)"
         id="g6703"><path
           d="M 0,0 72.5,0"
           style="fill:none;stroke:#231f20;stroke-opacity:1;stroke-width:0.72;stroke-linecap:butt;stroke-linejoin:miter;stroke-miterlimit:4;stroke-dasharray:none"
           id="path6701" /></g><g
         transform="translate(71.75,18)"
         id="g6707"><path
           d="M 0,0 72.5,0"
           style="fill:none;stroke:#231f20;stroke-opacity:1;stroke-width:0.72;stroke-linecap:butt;stroke-linejoin:miter;stroke-miterlimit:4;stroke-dasharray:none"
           id="path6705" /></g><g
         transform="translate(71.75,32.3994)"
         id="g6711"><path
           d="M 0,0 72.5,0"
           style="fill:none;stroke:#231f20;stroke-opacity:1;stroke-width:0.72;stroke-linecap:butt;stroke-linejoin:miter;stroke-miterlimit:4;stroke-dasharray:none"
           id="path6709" /></g><g
         transform="translate(71.75,46.7998)"
         id="g6715"><path
           d="M 0,0 72.5,0"
           style="fill:none;stroke:#231f20;stroke-opacity:1;stroke-width:0.72;stroke-linecap:butt;stroke-linejoin:miter;stroke-miterlimit:4;stroke-dasharray:none"
           id="path6713" /></g><g
         transform="translate(71.75,61.2002)"
         id="g6719"><path
           d="M 0,0 72.5,0"
           style="fill:none;stroke:#231f20;stroke-opacity:1;stroke-width:0.72;stroke-linecap:butt;stroke-linejoin:miter;stroke-miterlimit:4;stroke-dasharray:none"
           id="path6717" /></g><g
         transform="translate(71.75,10.7998)"
         id="g6723"><path
           d="M 0,0 72.5,0"
           style="fill:none;stroke:#231f20;stroke-opacity:1;stroke-width:0.72;stroke-linecap:butt;stroke-linejoin:miter;stroke-miterlimit:4;stroke-dasharray:none"
           id="path6721" /></g><g
         transform="translate(71.75,25.2002)"
         id="g6727"><path
           d="M 0,0 72.5,0"
           style="fill:none;stroke:#231f20;stroke-opacity:1;stroke-width:0.72;stroke-linecap:butt;stroke-linejoin:miter;stroke-miterlimit:4;stroke-dasharray:none"
           id="path6725" /></g><g
         transform="translate(71.75,39.5996)"
         id="g6731"><path
           d="M 0,0 72.5,0"
           style="fill:none;stroke:#231f20;stroke-opacity:1;stroke-width:0.72;stroke-linecap:butt;stroke-linejoin:miter;stroke-miterlimit:4;stroke-dasharray:none"
           id="path6729" /></g><g
         transform="translate(71.75,54)"
         id="g6735"><path
           d="M 0,0 72.5,0"
           style="fill:none;stroke:#231f20;stroke-opacity:1;stroke-width:0.72;stroke-linecap:butt;stroke-linejoin:miter;stroke-miterlimit:4;stroke-dasharray:none"
           id="path6733" /></g><g
         transform="translate(71.75,68.3994)"
         id="g6739"><path
           d="M 0,0 72.5,0"
           style="fill:none;stroke:#231f20;stroke-opacity:1;stroke-width:0.72;stroke-linecap:butt;stroke-linejoin:miter;stroke-miterlimit:4;stroke-dasharray:none"
           id="path6737" /></g><g
         transform="translate(-0.25,3.6006)"
         id="g6743"><path
           d="M 0,0 72.5,0"
           style="fill:none;stroke:#231f20;stroke-opacity:1;stroke-width:0.72;stroke-linecap:butt;stroke-linejoin:miter;stroke-miterlimit:4;stroke-dasharray:none"
           id="path6741" /></g><g
         transform="translate(-0.25,18)"
         id="g6747"><path
           d="M 0,0 72.5,0"
           style="fill:none;stroke:#231f20;stroke-opacity:1;stroke-width:0.72;stroke-linecap:butt;stroke-linejoin:miter;stroke-miterlimit:4;stroke-dasharray:none"
           id="path6745" /></g><g
         transform="translate(-0.25,32.3994)"
         id="g6751"><path
           d="M 0,0 72.5,0"
           style="fill:none;stroke:#231f20;stroke-opacity:1;stroke-width:0.72;stroke-linecap:butt;stroke-linejoin:miter;stroke-miterlimit:4;stroke-dasharray:none"
           id="path6749" /></g><g
         transform="translate(-0.25,46.7998)"
         id="g6755"><path
           d="M 0,0 72.5,0"
           style="fill:none;stroke:#231f20;stroke-opacity:1;stroke-width:0.72;stroke-linecap:butt;stroke-linejoin:miter;stroke-miterlimit:4;stroke-dasharray:none"
           id="path6753" /></g><g
         transform="translate(-0.25,61.2002)"
         id="g6759"><path
           d="M 0,0 72.5,0"
           style="fill:none;stroke:#231f20;stroke-opacity:1;stroke-width:0.72;stroke-linecap:butt;stroke-linejoin:miter;stroke-miterlimit:4;stroke-dasharray:none"
           id="path6757" /></g><g
         transform="translate(-0.25,10.7998)"
         id="g6763"><path
           d="M 0,0 72.5,0"
           style="fill:none;stroke:#231f20;stroke-opacity:1;stroke-width:0.72;stroke-linecap:butt;stroke-linejoin:miter;stroke-miterlimit:4;stroke-dasharray:none"
           id="path6761" /></g><g
         transform="translate(-0.25,25.2002)"
         id="g6767"><path
           d="M 0,0 72.5,0"
           style="fill:none;stroke:#231f20;stroke-opacity:1;stroke-width:0.72;stroke-linecap:butt;stroke-linejoin:miter;stroke-miterlimit:4;stroke-dasharray:none"
           id="path6765" /></g><g
         transform="translate(-0.25,39.5996)"
         id="g6771"><path
           d="M 0,0 72.5,0"
           style="fill:none;stroke:#231f20;stroke-opacity:1;stroke-width:0.72;stroke-linecap:butt;stroke-linejoin:miter;stroke-miterlimit:4;stroke-dasharray:none"
           id="path6769" /></g><g
         transform="translate(-0.25,54)"
         id="g6775"><path
           d="M 0,0 72.5,0"
           style="fill:none;stroke:#231f20;stroke-opacity:1;stroke-width:0.72;stroke-linecap:butt;stroke-linejoin:miter;stroke-miterlimit:4;stroke-dasharray:none"
           id="path6773" /></g><g
         transform="translate(-0.25,68.3994)"
         id="g6779"><path
           d="M 0,0 72.5,0"
           style="fill:none;stroke:#231f20;stroke-opacity:1;stroke-width:0.72;stroke-linecap:butt;stroke-linejoin:miter;stroke-miterlimit:4;stroke-dasharray:none"
           id="path6777" /></g><g
         transform="translate(-72.25,3.6006)"
         id="g6783"><path
           d="M 0,0 72.5,0"
           style="fill:none;stroke:#231f20;stroke-opacity:1;stroke-width:0.72;stroke-linecap:butt;stroke-linejoin:miter;stroke-miterlimit:4;stroke-dasharray:none"
           id="path6781" /></g><g
         transform="translate(-72.25,18)"
         id="g6787"><path
           d="M 0,0 72.5,0"
           style="fill:none;stroke:#231f20;stroke-opacity:1;stroke-width:0.72;stroke-linecap:butt;stroke-linejoin:miter;stroke-miterlimit:4;stroke-dasharray:none"
           id="path6785" /></g><g
         transform="translate(-72.25,32.3994)"
         id="g6791"><path
           d="M 0,0 72.5,0"
           style="fill:none;stroke:#231f20;stroke-opacity:1;stroke-width:0.72;stroke-linecap:butt;stroke-linejoin:miter;stroke-miterlimit:4;stroke-dasharray:none"
           id="path6789" /></g><g
         transform="translate(-72.25,46.7998)"
         id="g6795"><path
           d="M 0,0 72.5,0"
           style="fill:none;stroke:#231f20;stroke-opacity:1;stroke-width:0.72;stroke-linecap:butt;stroke-linejoin:miter;stroke-miterlimit:4;stroke-dasharray:none"
           id="path6793" /></g><g
         transform="translate(-72.25,61.2002)"
         id="g6799"><path
           d="M 0,0 72.5,0"
           style="fill:none;stroke:#231f20;stroke-opacity:1;stroke-width:0.72;stroke-linecap:butt;stroke-linejoin:miter;stroke-miterlimit:4;stroke-dasharray:none"
           id="path6797" /></g><g
         transform="translate(-72.25,10.7998)"
         id="g6803"><path
           d="M 0,0 72.5,0"
           style="fill:none;stroke:#231f20;stroke-opacity:1;stroke-width:0.72;stroke-linecap:butt;stroke-linejoin:miter;stroke-miterlimit:4;stroke-dasharray:none"
           id="path6801" /></g><g
         transform="translate(-72.25,25.2002)"
         id="g6807"><path
           d="M 0,0 72.5,0"
           style="fill:none;stroke:#231f20;stroke-opacity:1;stroke-width:0.72;stroke-linecap:butt;stroke-linejoin:miter;stroke-miterlimit:4;stroke-dasharray:none"
           id="path6805" /></g><g
         transform="translate(-72.25,39.5996)"
         id="g6811"><path
           d="M 0,0 72.5,0"
           style="fill:none;stroke:#231f20;stroke-opacity:1;stroke-width:0.72;stroke-linecap:butt;stroke-linejoin:miter;stroke-miterlimit:4;stroke-dasharray:none"
           id="path6809" /></g><g
         transform="translate(-72.25,54)"
         id="g6815"><path
           d="M 0,0 72.5,0"
           style="fill:none;stroke:#231f20;stroke-opacity:1;stroke-width:0.72;stroke-linecap:butt;stroke-linejoin:miter;stroke-miterlimit:4;stroke-dasharray:none"
           id="path6813" /></g><g
         transform="translate(-72.25,68.3994)"
         id="g6819"><path
           d="M 0,0 72.5,0"
           style="fill:none;stroke:#231f20;stroke-opacity:1;stroke-width:0.72;stroke-linecap:butt;stroke-linejoin:miter;stroke-miterlimit:4;stroke-dasharray:none"
           id="path6817" /></g></pattern><clipPath
       clipPathUnits="userSpaceOnUse"
       id="clipPath6825"><path
         d="M 0,96.84 H 340.095 V 0 H 0 Z"
         id="path6823" /></clipPath><linearGradient
       x1="0"
       y1="0"
       x2="1"
       y2="0"
       gradientUnits="userSpaceOnUse"
       gradientTransform="matrix(-4e-7,9.9514084,9.9514084,4e-7,127.95361,49.076172)"
       spreadMethod="pad"
       id="linearGradient6835"><stop
         style="stop-opacity:1;stop-color:#f8f9fa"
         offset="0"
         id="stop6831" /><stop
         style="stop-opacity:1;stop-color:#ffffff"
         offset="1"
         id="stop6833" /></linearGradient><clipPath
       clipPathUnits="userSpaceOnUse"
       id="clipPath6839"><path
         d="M 0,96.84 H 340.095 V 0 H 0 Z"
         id="path6837" /></clipPath><linearGradient
       x1="0"
       y1="0"
       x2="1"
       y2="0"
       gradientUnits="userSpaceOnUse"
       gradientTransform="matrix(-1.2e-6,27.254908,27.254908,1.2e-6,127.95361,21.638672)"
       spreadMethod="pad"
       id="linearGradient6849"><stop
         style="stop-opacity:1;stop-color:#f8f9fa"
         offset="0"
         id="stop6845" /><stop
         style="stop-opacity:1;stop-color:#ffffff"
         offset="1"
         id="stop6847" /></linearGradient><clipPath
       clipPathUnits="userSpaceOnUse"
       id="clipPath6853"><path
         d="M 0,96.84 H 340.095 V 0 H 0 Z"
         id="path6851" /></clipPath><pattern
       patternTransform="matrix(-0.026796,-0.511298,0.511298,-0.026796,-12220.71,3718.5121)"
       patternUnits="userSpaceOnUse"
       x="0"
       y="0"
       width="72"
       height="72"
       id="pattern6975"><g
         transform="translate(71.75,3.6006)"
         id="g6857"><path
           d="M 0,0 72.5,0"
           style="fill:none;stroke:#231f20;stroke-opacity:1;stroke-width:0.72;stroke-linecap:butt;stroke-linejoin:miter;stroke-miterlimit:4;stroke-dasharray:none"
           id="path6855" /></g><g
         transform="translate(71.75,18)"
         id="g6861"><path
           d="M 0,0 72.5,0"
           style="fill:none;stroke:#231f20;stroke-opacity:1;stroke-width:0.72;stroke-linecap:butt;stroke-linejoin:miter;stroke-miterlimit:4;stroke-dasharray:none"
           id="path6859" /></g><g
         transform="translate(71.75,32.3994)"
         id="g6865"><path
           d="M 0,0 72.5,0"
           style="fill:none;stroke:#231f20;stroke-opacity:1;stroke-width:0.72;stroke-linecap:butt;stroke-linejoin:miter;stroke-miterlimit:4;stroke-dasharray:none"
           id="path6863" /></g><g
         transform="translate(71.75,46.7998)"
         id="g6869"><path
           d="M 0,0 72.5,0"
           style="fill:none;stroke:#231f20;stroke-opacity:1;stroke-width:0.72;stroke-linecap:butt;stroke-linejoin:miter;stroke-miterlimit:4;stroke-dasharray:none"
           id="path6867" /></g><g
         transform="translate(71.75,61.2002)"
         id="g6873"><path
           d="M 0,0 72.5,0"
           style="fill:none;stroke:#231f20;stroke-opacity:1;stroke-width:0.72;stroke-linecap:butt;stroke-linejoin:miter;stroke-miterlimit:4;stroke-dasharray:none"
           id="path6871" /></g><g
         transform="translate(71.75,10.7998)"
         id="g6877"><path
           d="M 0,0 72.5,0"
           style="fill:none;stroke:#231f20;stroke-opacity:1;stroke-width:0.72;stroke-linecap:butt;stroke-linejoin:miter;stroke-miterlimit:4;stroke-dasharray:none"
           id="path6875" /></g><g
         transform="translate(71.75,25.2002)"
         id="g6881"><path
           d="M 0,0 72.5,0"
           style="fill:none;stroke:#231f20;stroke-opacity:1;stroke-width:0.72;stroke-linecap:butt;stroke-linejoin:miter;stroke-miterlimit:4;stroke-dasharray:none"
           id="path6879" /></g><g
         transform="translate(71.75,39.5996)"
         id="g6885"><path
           d="M 0,0 72.5,0"
           style="fill:none;stroke:#231f20;stroke-opacity:1;stroke-width:0.72;stroke-linecap:butt;stroke-linejoin:miter;stroke-miterlimit:4;stroke-dasharray:none"
           id="path6883" /></g><g
         transform="translate(71.75,54)"
         id="g6889"><path
           d="M 0,0 72.5,0"
           style="fill:none;stroke:#231f20;stroke-opacity:1;stroke-width:0.72;stroke-linecap:butt;stroke-linejoin:miter;stroke-miterlimit:4;stroke-dasharray:none"
           id="path6887" /></g><g
         transform="translate(71.75,68.3994)"
         id="g6893"><path
           d="M 0,0 72.5,0"
           style="fill:none;stroke:#231f20;stroke-opacity:1;stroke-width:0.72;stroke-linecap:butt;stroke-linejoin:miter;stroke-miterlimit:4;stroke-dasharray:none"
           id="path6891" /></g><g
         transform="translate(-0.25,3.6006)"
         id="g6897"><path
           d="M 0,0 72.5,0"
           style="fill:none;stroke:#231f20;stroke-opacity:1;stroke-width:0.72;stroke-linecap:butt;stroke-linejoin:miter;stroke-miterlimit:4;stroke-dasharray:none"
           id="path6895" /></g><g
         transform="translate(-0.25,18)"
         id="g6901"><path
           d="M 0,0 72.5,0"
           style="fill:none;stroke:#231f20;stroke-opacity:1;stroke-width:0.72;stroke-linecap:butt;stroke-linejoin:miter;stroke-miterlimit:4;stroke-dasharray:none"
           id="path6899" /></g><g
         transform="translate(-0.25,32.3994)"
         id="g6905"><path
           d="M 0,0 72.5,0"
           style="fill:none;stroke:#231f20;stroke-opacity:1;stroke-width:0.72;stroke-linecap:butt;stroke-linejoin:miter;stroke-miterlimit:4;stroke-dasharray:none"
           id="path6903" /></g><g
         transform="translate(-0.25,46.7998)"
         id="g6909"><path
           d="M 0,0 72.5,0"
           style="fill:none;stroke:#231f20;stroke-opacity:1;stroke-width:0.72;stroke-linecap:butt;stroke-linejoin:miter;stroke-miterlimit:4;stroke-dasharray:none"
           id="path6907" /></g><g
         transform="translate(-0.25,61.2002)"
         id="g6913"><path
           d="M 0,0 72.5,0"
           style="fill:none;stroke:#231f20;stroke-opacity:1;stroke-width:0.72;stroke-linecap:butt;stroke-linejoin:miter;stroke-miterlimit:4;stroke-dasharray:none"
           id="path6911" /></g><g
         transform="translate(-0.25,10.7998)"
         id="g6917"><path
           d="M 0,0 72.5,0"
           style="fill:none;stroke:#231f20;stroke-opacity:1;stroke-width:0.72;stroke-linecap:butt;stroke-linejoin:miter;stroke-miterlimit:4;stroke-dasharray:none"
           id="path6915" /></g><g
         transform="translate(-0.25,25.2002)"
         id="g6921"><path
           d="M 0,0 72.5,0"
           style="fill:none;stroke:#231f20;stroke-opacity:1;stroke-width:0.72;stroke-linecap:butt;stroke-linejoin:miter;stroke-miterlimit:4;stroke-dasharray:none"
           id="path6919" /></g><g
         transform="translate(-0.25,39.5996)"
         id="g6925"><path
           d="M 0,0 72.5,0"
           style="fill:none;stroke:#231f20;stroke-opacity:1;stroke-width:0.72;stroke-linecap:butt;stroke-linejoin:miter;stroke-miterlimit:4;stroke-dasharray:none"
           id="path6923" /></g><g
         transform="translate(-0.25,54)"
         id="g6929"><path
           d="M 0,0 72.5,0"
           style="fill:none;stroke:#231f20;stroke-opacity:1;stroke-width:0.72;stroke-linecap:butt;stroke-linejoin:miter;stroke-miterlimit:4;stroke-dasharray:none"
           id="path6927" /></g><g
         transform="translate(-0.25,68.3994)"
         id="g6933"><path
           d="M 0,0 72.5,0"
           style="fill:none;stroke:#231f20;stroke-opacity:1;stroke-width:0.72;stroke-linecap:butt;stroke-linejoin:miter;stroke-miterlimit:4;stroke-dasharray:none"
           id="path6931" /></g><g
         transform="translate(-72.25,3.6006)"
         id="g6937"><path
           d="M 0,0 72.5,0"
           style="fill:none;stroke:#231f20;stroke-opacity:1;stroke-width:0.72;stroke-linecap:butt;stroke-linejoin:miter;stroke-miterlimit:4;stroke-dasharray:none"
           id="path6935" /></g><g
         transform="translate(-72.25,18)"
         id="g6941"><path
           d="M 0,0 72.5,0"
           style="fill:none;stroke:#231f20;stroke-opacity:1;stroke-width:0.72;stroke-linecap:butt;stroke-linejoin:miter;stroke-miterlimit:4;stroke-dasharray:none"
           id="path6939" /></g><g
         transform="translate(-72.25,32.3994)"
         id="g6945"><path
           d="M 0,0 72.5,0"
           style="fill:none;stroke:#231f20;stroke-opacity:1;stroke-width:0.72;stroke-linecap:butt;stroke-linejoin:miter;stroke-miterlimit:4;stroke-dasharray:none"
           id="path6943" /></g><g
         transform="translate(-72.25,46.7998)"
         id="g6949"><path
           d="M 0,0 72.5,0"
           style="fill:none;stroke:#231f20;stroke-opacity:1;stroke-width:0.72;stroke-linecap:butt;stroke-linejoin:miter;stroke-miterlimit:4;stroke-dasharray:none"
           id="path6947" /></g><g
         transform="translate(-72.25,61.2002)"
         id="g6953"><path
           d="M 0,0 72.5,0"
           style="fill:none;stroke:#231f20;stroke-opacity:1;stroke-width:0.72;stroke-linecap:butt;stroke-linejoin:miter;stroke-miterlimit:4;stroke-dasharray:none"
           id="path6951" /></g><g
         transform="translate(-72.25,10.7998)"
         id="g6957"><path
           d="M 0,0 72.5,0"
           style="fill:none;stroke:#231f20;stroke-opacity:1;stroke-width:0.72;stroke-linecap:butt;stroke-linejoin:miter;stroke-miterlimit:4;stroke-dasharray:none"
           id="path6955" /></g><g
         transform="translate(-72.25,25.2002)"
         id="g6961"><path
           d="M 0,0 72.5,0"
           style="fill:none;stroke:#231f20;stroke-opacity:1;stroke-width:0.72;stroke-linecap:butt;stroke-linejoin:miter;stroke-miterlimit:4;stroke-dasharray:none"
           id="path6959" /></g><g
         transform="translate(-72.25,39.5996)"
         id="g6965"><path
           d="M 0,0 72.5,0"
           style="fill:none;stroke:#231f20;stroke-opacity:1;stroke-width:0.72;stroke-linecap:butt;stroke-linejoin:miter;stroke-miterlimit:4;stroke-dasharray:none"
           id="path6963" /></g><g
         transform="translate(-72.25,54)"
         id="g6969"><path
           d="M 0,0 72.5,0"
           style="fill:none;stroke:#231f20;stroke-opacity:1;stroke-width:0.72;stroke-linecap:butt;stroke-linejoin:miter;stroke-miterlimit:4;stroke-dasharray:none"
           id="path6967" /></g><g
         transform="translate(-72.25,68.3994)"
         id="g6973"><path
           d="M 0,0 72.5,0"
           style="fill:none;stroke:#231f20;stroke-opacity:1;stroke-width:0.72;stroke-linecap:butt;stroke-linejoin:miter;stroke-miterlimit:4;stroke-dasharray:none"
           id="path6971" /></g></pattern><clipPath
       clipPathUnits="userSpaceOnUse"
       id="clipPath6979"><path
         d="M 0,96.84 H 340.095 V 0 H 0 Z"
         id="path6977" /></clipPath><clipPath
       clipPathUnits="userSpaceOnUse"
       id="clipPath6983"><path
         d="m 176.832,37.908199 h 41.776 V 23.452101 h -41.776 z"
         id="path6981" /></clipPath><clipPath
       clipPathUnits="userSpaceOnUse"
       id="clipPath6987"><path
         d="M 0,96.84 H 340.095 V 0 H 0 Z"
         id="path6985" /></clipPath><clipPath
       clipPathUnits="userSpaceOnUse"
       id="clipPath6991"><path
         d="M 133.94299,62.116699 H 149.53 V 48.8228 h -15.58701 z"
         id="path6989" /></clipPath><clipPath
       clipPathUnits="userSpaceOnUse"
       id="clipPath6995"><path
         d="M 0,96.84 H 340.095 V 0 H 0 Z"
         id="path6993" /></clipPath><clipPath
       clipPathUnits="userSpaceOnUse"
       id="clipPath6999"><path
         d="M 57.682598,77.833504 H 116.683 V 72.847198 H 57.682598 Z"
         id="path6997" /></clipPath><clipPath
       clipPathUnits="userSpaceOnUse"
       id="clipPath7003"><path
         d="M 0,96.84 H 340.095 V 0 H 0 Z"
         id="path7001" /></clipPath><clipPath
       clipPathUnits="userSpaceOnUse"
       id="clipPath7007"><path
         d="M 41.565399,95.840302 H 46.5518 v -20.5 h -4.986401 z"
         id="path7005" /></clipPath><clipPath
       clipPathUnits="userSpaceOnUse"
       id="clipPath7011"><path
         d="M 0,96.84 H 340.095 V 0 H 0 Z"
         id="path7009" /></clipPath></defs><sodipodi:namedview
     pagecolor="#ffffff"
     bordercolor="#666666"
     borderopacity="1"
     objecttolerance="10"
     gridtolerance="10"
     guidetolerance="10"
     inkscape:pageopacity="0"
     inkscape:pageshadow="2"
     inkscape:window-width="640"
     inkscape:window-height="480"
     id="namedview6303"
     showgrid="false"
     inkscape:zoom="1.3275633"
     inkscape:cx="289.08615"
     inkscape:cy="150.19954"
     inkscape:current-layer="g6309"
     inkscape:document-rotation="0"
     fit-margin-top="0"
     fit-margin-left="0"
     fit-margin-right="0"
     fit-margin-bottom="0" /><g
     id="g6309"
     inkscape:groupmode="layer"
     inkscape:label="Theodore S. Rappaport _ Robert W. Heath Jr. _ Robert C. Daniels _ James N. Murdock - Millimeter Wave Wireless Communications (2015, Prentice Hall) - libgen.li"
     transform="matrix(1.3333333,0,0,-1.3333333,-156.19466,444.1243)"><text
       transform="scale(1,-1)"
       style="font-variant:normal;font-weight:normal;font-size:9.9626px;font-family:CMMI10;-inkscape-font-specification:CMMI10;writing-mode:lr-tb;fill:#000000;fill-opacity:1;fill-rule:nonzero;stroke:none"
       id="text6377"
       x="270.323"
       y="-578.31299"><tspan
         x="270.323"
         y="-578.31299"
         id="tspan6375" /></text><text
       transform="scale(1,-1)"
       style="font-variant:normal;font-weight:normal;font-size:9.9626px;font-family:CMEX10;-inkscape-font-specification:CMEX10;writing-mode:lr-tb;fill:#000000;fill-opacity:1;fill-rule:nonzero;stroke:none"
       id="text6395"
       x="298.453"
       y="-596.20599"><tspan
         x="298.453"
         y="-596.20599"
         id="tspan6393" /></text><text
       transform="scale(1,-1)"
       style="font-variant:normal;font-weight:normal;font-size:9.9626px;font-family:CMEX10;-inkscape-font-specification:CMEX10;writing-mode:lr-tb;fill:#000000;fill-opacity:1;fill-rule:nonzero;stroke:none"
       id="text6413"
       x="312.82999"
       y="-596.20599"><tspan
         x="312.82999"
         y="-596.20599"
         id="tspan6411" /></text><text
       transform="scale(1,-1)"
       style="font-variant:normal;font-weight:normal;font-size:9.9626px;font-family:CMEX10;-inkscape-font-specification:CMEX10;writing-mode:lr-tb;fill:#000000;fill-opacity:1;fill-rule:nonzero;stroke:none"
       id="text6425"
       x="335.42599"
       y="-596.20599"><tspan
         x="335.42599"
         y="-596.20599"
         id="tspan6423" /></text><text
       transform="scale(1,-1)"
       style="font-variant:normal;font-weight:normal;font-size:9.9626px;font-family:CMEX10;-inkscape-font-specification:CMEX10;writing-mode:lr-tb;fill:#000000;fill-opacity:1;fill-rule:nonzero;stroke:none"
       id="text6443"
       x="349.80301"
       y="-596.20599"><tspan
         x="349.80301"
         y="-596.20599"
         id="tspan6441" /></text><g
       id="g6521"
       transform="translate(218.82997,222.50753)"><g
         id="g6523"
         clip-path="url(#clipPath6527)"><text
           transform="matrix(1,0,0,-1,12.5806,8.1016)"
           style="font-variant:normal;font-weight:normal;font-stretch:normal;font-size:10px;font-family:Times;-inkscape-font-specification:Times-Roman;writing-mode:lr-tb;fill:#231f20;fill-opacity:1;fill-rule:nonzero;stroke:none"
           id="text6535"><tspan
             x="0"
             y="0"
             id="tspan6529">Z</tspan><tspan
             x="84.660004"
             y="-89.040001"
             id="tspan6531">Y</tspan><tspan
             x="168.57001"
             y="-43.880001"
             id="tspan6533">X</tspan></text><path
           d="M 93.115,7.686 H 21.648 V 36.6 h 71.467 z"
           style="fill:none;stroke:#231f20;stroke-width:0.5;stroke-linecap:round;stroke-linejoin:round;stroke-miterlimit:10;stroke-dasharray:none;stroke-opacity:1"
           id="path6537" /><g
           id="g6539"
           transform="translate(93.1152,7.6856)"><path
             d="M 0,0 86.442,56.789 V 85.702 L 0,28.914 Z"
             style="fill:none;stroke:#231f20;stroke-width:0.5;stroke-linecap:round;stroke-linejoin:round;stroke-miterlimit:10;stroke-dasharray:none;stroke-opacity:1"
             id="path6541" /></g><g
           id="g6543"
           transform="translate(179.5576,93.5352)"><path
             d="m 0,0 h -71.466 l -86.443,-56.936 h 71.467 z"
             style="fill:none;stroke:#231f20;stroke-width:0.5;stroke-linecap:round;stroke-linejoin:round;stroke-miterlimit:10;stroke-dasharray:none;stroke-opacity:1"
             id="path6545" /></g><g
           id="g6547"
           transform="translate(124.5478,72.1846)"><path
             d="M 0,0 H -34.863"
             style="fill:none;stroke:#231f20;stroke-width:0.5;stroke-linecap:round;stroke-linejoin:round;stroke-miterlimit:10;stroke-dasharray:none;stroke-opacity:1"
             id="path6549" /></g><g
           id="g6551"
           transform="translate(71.8945,60.6358)"><path
             d="M 0,0 31.469,20.428"
             style="fill:none;stroke:#231f20;stroke-width:0.5;stroke-linecap:round;stroke-linejoin:round;stroke-miterlimit:10;stroke-dasharray:none;stroke-opacity:1"
             id="path6553" /></g><g
           id="g6555"
           transform="translate(2.9853,38.5899)"><path
             d="M 0,0 79.434,52.955"
             style="fill:none;stroke:#231f20;stroke-width:0.5;stroke-linecap:round;stroke-linejoin:round;stroke-miterlimit:4;stroke-dasharray:none;stroke-opacity:1"
             id="path6557" /></g><g
           id="g6559"
           transform="translate(0,36.5994)"><path
             d="M 0,0 4.975,0.32 2.21,4.47 Z"
             style="fill:#231f20;fill-opacity:1;fill-rule:nonzero;stroke:none"
             id="path6561" /></g><g
           id="g6563"
           transform="translate(83.1948,89.0659)"><path
             d="M 0,0 2.209,4.469 -2.766,4.149 Z"
             style="fill:#231f20;fill-opacity:1;fill-rule:nonzero;stroke:none"
             id="path6565" /></g><g
           id="g6567"><g
             id="g6569"
             clip-path="url(#clipPath6573)"><g
               id="g6575"
               transform="translate(108,93.5352)"><path
                 d="M 0,0 V 16.509"
                 style="fill:none;stroke:#231f20;stroke-width:0.5;stroke-linecap:round;stroke-linejoin:round;stroke-miterlimit:4;stroke-dasharray:none;stroke-opacity:1"
                 id="path6577" /></g></g></g><g
           id="g6579"
           transform="translate(108,110.5857)"><path
             d="M 0,0 -2.045,-2.199 -1.678,-2.54 0,-0.734 1.678,-2.54 2.045,-2.199 Z"
             style="fill:#231f20;fill-opacity:1;fill-rule:nonzero;stroke:none"
             id="path6581" /></g><g
           id="g6583"
           transform="translate(179.5586,64.7705)"><path
             d="M 0,0 H 8.649"
             style="fill:none;stroke:#231f20;stroke-width:0.5;stroke-linecap:round;stroke-linejoin:round;stroke-miterlimit:4;stroke-dasharray:none;stroke-opacity:1"
             id="path6585" /></g><g
           id="g6587"
           transform="translate(186.5507,62.7256)"><path
             d="M 0,0 -0.341,0.366 1.465,2.044 -0.341,3.723 0,4.089 2.199,2.044 Z"
             style="fill:#231f20;fill-opacity:1;fill-rule:nonzero;stroke:none"
             id="path6589" /></g><g
           id="g6591"><g
             id="g6593"
             clip-path="url(#clipPath6597)"><g
               id="g6599"
               transform="translate(21.6484,7.6856)"><path
                 d="M 0,0 -7.023,-7.295"
                 style="fill:none;stroke:#231f20;stroke-width:0.5;stroke-linecap:round;stroke-linejoin:round;stroke-miterlimit:4;stroke-dasharray:none;stroke-opacity:1"
                 id="path6601" /></g></g></g><g
           id="g6603"
           transform="translate(14.2497)"><path
             d="M 0,0 2.998,0.166 2.971,0.666 0.509,0.529 0.553,2.994 0.052,3.002 Z"
             style="fill:#231f20;fill-opacity:1;fill-rule:nonzero;stroke:none"
             id="path6605" /></g><g
           id="g6607"
           transform="translate(111.9765,104.2109)"><path
             d="M 0,0 H 63.103"
             style="fill:none;stroke:#231f20;stroke-width:0.5;stroke-linecap:round;stroke-linejoin:round;stroke-miterlimit:4;stroke-dasharray:none;stroke-opacity:1"
             id="path6609" /></g><g
           id="g6611"
           transform="translate(112.706,101.7178)"><path
             d="M 0,0 -4.317,2.493 0,4.986 Z"
             style="fill:#231f20;fill-opacity:1;fill-rule:nonzero;stroke:none"
             id="path6613" /></g><g
           id="g6615"
           transform="translate(174.3496,101.7178)"><path
             d="M 0,0 4.317,2.493 0,4.986 Z"
             style="fill:#231f20;fill-opacity:1;fill-rule:nonzero;stroke:none"
             id="path6617" /></g><text
           transform="matrix(1,0,0,-1,43.2114,19.0791)"
           style="font-variant:normal;font-weight:normal;font-stretch:normal;font-size:10px;font-family:Times;-inkscape-font-specification:Times-Roman;writing-mode:lr-tb;fill:#231f20;fill-opacity:1;fill-rule:nonzero;stroke:none"
           id="text6621"><tspan
             x="0 5.5599999 8.3400002 11.12 13.9 18.34 23.34"
             y="0"
             sodipodi:role="line"
             id="tspan6619">Silicon</tspan></text><text
           transform="matrix(0.84011276,0.54241178,0.54241178,-0.84011276,69.7489,46.375)"
           style="font-variant:normal;font-weight:normal;font-stretch:normal;font-size:9.99997px;font-family:Times;-inkscape-font-specification:Times-Roman;writing-mode:lr-tb;fill:#231f20;fill-opacity:1;fill-rule:nonzero;stroke:none"
           id="text6625"><tspan
             x="0 7.2199764 12.21996 14.99995 19.439936 24.43992 29.439903"
             y="0"
             sodipodi:role="line"
             id="tspan6623">Antenna</tspan></text><text
           transform="matrix(0.85254088,0.52266054,0.52266054,-0.85254088,127.6536,42.2626)"
           style="font-variant:normal;font-weight:normal;font-stretch:normal;font-size:9.99999px;font-family:Times;-inkscape-font-specification:Times-Roman;writing-mode:lr-tb;fill:#231f20;fill-opacity:1;fill-rule:nonzero;stroke:none"
           id="text6629"><tspan
             x="0 5.5599942 10.559989 15.559984 19.44998 22.229977 25.559973 29.999969 32.779964"
             y="0"
             sodipodi:role="line"
             id="tspan6627">Substrate</tspan></text><g
           id="g6631"
           transform="translate(193.9121,89.9473)"><path
             d="M 0,0 V -20.229"
             style="fill:none;stroke:#231f20;stroke-width:0.5;stroke-linecap:round;stroke-linejoin:round;stroke-miterlimit:4;stroke-dasharray:none;stroke-opacity:1"
             id="path6633" /></g><g
           id="g6635"
           transform="translate(191.4189,89.2178)"><path
             d="M 0,0 2.493,4.317 4.986,0 Z"
             style="fill:#231f20;fill-opacity:1;fill-rule:nonzero;stroke:none"
             id="path6637" /></g><g
           id="g6639"
           transform="translate(191.4189,70.4483)"><path
             d="M 0,0 2.493,-4.317 4.986,0 Z"
             style="fill:#231f20;fill-opacity:1;fill-rule:nonzero;stroke:none"
             id="path6641" /></g><path
           d="m 146.465,100.35 h -6.562 v 8.125 h 6.562 z"
           style="fill:#ffffff;fill-opacity:1;fill-rule:nonzero;stroke:none"
           id="path6643" /><path
           d="m 189.85,83.114 h 8.125 v -6.562 h -8.125 z"
           style="fill:#ffffff;fill-opacity:1;fill-rule:nonzero;stroke:none"
           id="path6645" /><g
           id="g6647"
           transform="translate(49.5254,63.3428)"><path
             d="m 0,0 -7.408,-5.039 -6.238,9.172 7.408,5.04 z"
             style="fill:#ffffff;fill-opacity:1;fill-rule:nonzero;stroke:none"
             id="path6649" /></g><g
           id="g6651"><g
             id="g6653"
             clip-path="url(#clipPath6657)"><text
               transform="matrix(1,0,0,-1,141.3066,102.0625)"
               style="font-variant:normal;font-weight:normal;font-stretch:normal;font-size:10px;font-family:Times;-inkscape-font-specification:Times-Roman;writing-mode:lr-tb;fill:#231f20;fill-opacity:1;fill-rule:nonzero;stroke:none"
               id="text6661"><tspan
                 x="0"
                 y="0"
                 id="tspan6659">a</tspan></text></g></g><text
           transform="matrix(0.84011276,0.54241178,0.54241178,-0.84011276,42.8875,61.0334)"
           style="font-variant:normal;font-weight:normal;font-stretch:normal;font-size:9.99997px;font-family:Times;-inkscape-font-specification:Times-Roman;writing-mode:lr-tb;fill:#231f20;fill-opacity:1;fill-rule:nonzero;stroke:none"
           id="text6665"><tspan
             x="0"
             y="0"
             id="tspan6663">c</tspan></text><g
           id="g6667"><g
             id="g6669"
             clip-path="url(#clipPath6673)"><text
               transform="matrix(0,-1,-1,0,190.5605,82.3335)"
               style="font-variant:normal;font-weight:normal;font-stretch:normal;font-size:10px;font-family:Times;-inkscape-font-specification:Times-Roman;writing-mode:lr-tb;fill:#231f20;fill-opacity:1;fill-rule:nonzero;stroke:none"
               id="text6677"><tspan
                 x="0"
                 y="0"
                 id="tspan6675">b</tspan></text></g></g></g></g><g
       id="g6695"
       transform="translate(117.146,115.824)" /><path
       d="m 117.396,130.002 h 255.406 v 7.017 H 117.396 Z"
       style="fill:url(#pattern12026);fill-opacity:1;fill-rule:nonzero;stroke:none"
       id="path7013" /><g
       id="g7019"
       transform="translate(117.146,115.824)"><g
         clip-path="url(#clipPath6825)"
         id="g7017"><path
           d="m 0.25,14.178 h 255.407 v 7.018 H 0.25 Z"
           style="fill:none;stroke:#231f20;stroke-width:0.5;stroke-linecap:butt;stroke-linejoin:miter;stroke-miterlimit:10;stroke-dasharray:none;stroke-opacity:1"
           id="path7015" /></g></g><g
       id="g7029"
       transform="translate(117.146,115.824)"><g
         id="g7027"><g
           id="g7025"><g
             id="g7023"><path
               d="M 0.25,48.944 H 255.656 V 58.956 H 0.25 Z"
               style="fill:url(#linearGradient6835);stroke:none"
               id="path7021" /></g></g></g></g><g
       id="g7035"
       transform="translate(117.146,115.824)"><g
         clip-path="url(#clipPath6839)"
         id="g7033"><path
           d="M 0.25,48.944 H 255.657 V 58.956 H 0.25 Z"
           style="fill:none;stroke:#231f20;stroke-width:0.5;stroke-linecap:butt;stroke-linejoin:miter;stroke-miterlimit:10;stroke-dasharray:none;stroke-opacity:1"
           id="path7031" /></g></g><g
       id="g7045"
       transform="translate(117.146,115.824)"><g
         id="g7043"><g
           id="g7041"><g
             id="g7039"><path
               d="M 0.25,21.195 H 255.656 V 48.944 H 0.25 Z"
               style="fill:url(#linearGradient6849);stroke:none"
               id="path7037" /></g></g></g></g><g
       id="g7051"
       transform="translate(117.146,115.824)"><g
         clip-path="url(#clipPath6853)"
         id="g7049"><path
           d="M 0.25,21.195 H 255.657 V 48.944 H 0.25 Z"
           style="fill:none;stroke:#231f20;stroke-width:0.5;stroke-linecap:butt;stroke-linejoin:miter;stroke-miterlimit:10;stroke-dasharray:none;stroke-opacity:1"
           id="path7047" /></g></g><path
       d="m 227.778,164.768 h 24.931 v 0.879 h -24.931 z"
       style="fill:url(#pattern12004);fill-opacity:1;fill-rule:nonzero;stroke:none"
       id="path7053" /><path
       d="m 252.708,165.647 h -24.931 v -0.879 h 24.931 z"
       style="fill:none;stroke:#231f20;stroke-width:0.5;stroke-linecap:butt;stroke-linejoin:miter;stroke-miterlimit:10;stroke-dasharray:none;stroke-opacity:1"
       id="path7055" /><g
       id="g7079"
       transform="translate(117.146,115.824)"><g
         clip-path="url(#clipPath6979)"
         id="g7077"><g
           id="g7075"><g
             id="g7057" /><g
             id="g7073"><g
               clip-path="url(#clipPath6983)"
               opacity="0.199997"
               id="g7071"><g
                 transform="translate(179.3247,34.3203)"
                 id="g7061"><path
                   d="M 0,0 V -8.375 H 35.695"
                   style="fill:none;stroke:#231f20;stroke-width:0.5;stroke-linecap:butt;stroke-linejoin:miter;stroke-miterlimit:10;stroke-dasharray:none;stroke-opacity:1"
                   id="path7059" /></g><g
                 transform="translate(176.8315,33.5908)"
                 id="g7065"><path
                   d="M 0,0 2.493,4.317 4.986,0 Z"
                   style="fill:#231f20;fill-opacity:1;fill-rule:nonzero;stroke:none"
                   id="path7063" /></g><g
                 transform="translate(214.2905,23.4521)"
                 id="g7069"><path
                   d="M 0,0 4.317,2.493 0,4.986 Z"
                   style="fill:#231f20;fill-opacity:1;fill-rule:nonzero;stroke:none"
                   id="path7067" /></g></g></g></g></g></g><g
       transform="translate(294.9707,152.1443)"
       id="g7083"><path
         d="M 0,0 V -8.375 H 35.695"
         style="fill:none;stroke:#231f20;stroke-width:0.5;stroke-linecap:butt;stroke-linejoin:miter;stroke-miterlimit:10;stroke-dasharray:none;stroke-opacity:1"
         id="path7081" /></g><g
       transform="translate(292.4775,151.4148)"
       id="g7087"><path
         d="M 0,0 2.493,4.317 4.986,0 Z"
         style="fill:#231f20;fill-opacity:1;fill-rule:nonzero;stroke:none"
         id="path7085" /></g><g
       transform="translate(329.9365,141.2761)"
       id="g7091"><path
         d="M 0,0 4.317,2.493 0,4.986 Z"
         style="fill:#231f20;fill-opacity:1;fill-rule:nonzero;stroke:none"
         id="path7089" /></g><g
       id="g7111"
       transform="translate(117.146,115.824)"><g
         clip-path="url(#clipPath6987)"
         id="g7109"><g
           id="g7107"><g
             id="g7093" /><g
             id="g7105"><g
               clip-path="url(#clipPath6991)"
               opacity="0.199997"
               id="g7103"><g
                 transform="translate(149.3682,61.9263)"
                 id="g7097"><path
                   d="M 0,0 -12.69,-10.78"
                   style="fill:none;stroke:#231f20;stroke-width:0.5;stroke-linecap:butt;stroke-linejoin:miter;stroke-miterlimit:10;stroke-dasharray:none;stroke-opacity:1"
                   id="path7095" /></g><g
                 transform="translate(135.6196,53.5181)"
                 id="g7101"><path
                   d="M 0,0 -1.676,-4.695 3.229,-3.8 Z"
                   style="fill:#231f20;fill-opacity:1;fill-rule:nonzero;stroke:none"
                   id="path7099" /></g></g></g></g></g></g><g
       transform="translate(265.5142,178.7503)"
       id="g7115"><path
         d="M 0,0 -12.69,-10.78"
         style="fill:none;stroke:#231f20;stroke-width:0.5;stroke-linecap:butt;stroke-linejoin:miter;stroke-miterlimit:10;stroke-dasharray:none;stroke-opacity:1"
         id="path7113" /></g><g
       transform="translate(251.7656,170.3421)"
       id="g7119"><path
         d="M 0,0 -1.676,-4.695 3.229,-3.8 Z"
         style="fill:#231f20;fill-opacity:1;fill-rule:nonzero;stroke:none"
         id="path7117" /></g><g
       id="g7139"
       transform="translate(117.146,115.824)"><g
         clip-path="url(#clipPath6995)"
         id="g7137"><g
           id="g7135"><g
             id="g7121" /><g
             id="g7133"><g
               clip-path="url(#clipPath6999)"
               opacity="0.199997"
               id="g7131"><g
                 transform="translate(57.6826,75.3403)"
                 id="g7125"><path
                   d="M 0,0 H 55.412"
                   style="fill:none;stroke:#231f20;stroke-width:0.5;stroke-linecap:butt;stroke-linejoin:miter;stroke-miterlimit:10;stroke-dasharray:none;stroke-opacity:1"
                   id="path7123" /></g><g
                 transform="translate(112.3647,72.8472)"
                 id="g7129"><path
                   d="M 0,0 4.318,2.493 0,4.986 Z"
                   style="fill:#231f20;fill-opacity:1;fill-rule:nonzero;stroke:none"
                   id="path7127" /></g></g></g></g></g></g><g
       transform="translate(173.8286,192.1643)"
       id="g7143"><path
         d="M 0,0 H 55.412"
         style="fill:none;stroke:#231f20;stroke-width:0.5;stroke-linecap:butt;stroke-linejoin:miter;stroke-miterlimit:10;stroke-dasharray:none;stroke-opacity:1"
         id="path7141" /></g><g
       transform="translate(228.5107,189.6712)"
       id="g7147"><path
         d="M 0,0 4.318,2.493 0,4.986 Z"
         style="fill:#231f20;fill-opacity:1;fill-rule:nonzero;stroke:none"
         id="path7145" /></g><g
       id="g7167"
       transform="translate(117.146,115.824)"><g
         clip-path="url(#clipPath7003)"
         id="g7165"><g
           id="g7163"><g
             id="g7149" /><g
             id="g7161"><g
               clip-path="url(#clipPath7007)"
               opacity="0.199997"
               id="g7159"><g
                 transform="translate(44.0586,75.3403)"
                 id="g7153"><path
                   d="M 0,0 V 16.912"
                   style="fill:none;stroke:#231f20;stroke-width:0.5;stroke-linecap:butt;stroke-linejoin:miter;stroke-miterlimit:10;stroke-dasharray:none;stroke-opacity:1"
                   id="path7151" /></g><g
                 transform="translate(46.5518,91.5225)"
                 id="g7157"><path
                   d="M 0,0 -2.493,4.318 -4.986,0 Z"
                   style="fill:#231f20;fill-opacity:1;fill-rule:nonzero;stroke:none"
                   id="path7155" /></g></g></g></g></g></g><g
       transform="translate(160.2046,192.1643)"
       id="g7171"><path
         d="M 0,0 V 16.912"
         style="fill:none;stroke:#231f20;stroke-width:0.5;stroke-linecap:butt;stroke-linejoin:miter;stroke-miterlimit:10;stroke-dasharray:none;stroke-opacity:1"
         id="path7169" /></g><g
       transform="translate(160.2047,212.664)"
       id="g7175"><path
         d="M 0,0 -2.493,-4.317 H 2.493 Z"
         style="fill:#231f20;fill-opacity:1;fill-rule:nonzero;stroke:none"
         id="path7173" /></g><text
       transform="scale(1,-1)"
       style="font-variant:normal;font-weight:normal;font-stretch:normal;font-size:10px;font-family:Times;-inkscape-font-specification:Times-Roman;writing-mode:lr-tb;fill:#231f20;fill-opacity:1;fill-rule:nonzero;stroke:none"
       id="text7183"
       x="131.12109"
       y="-199.35091"><tspan
         x="131.12109 138.34109 142.7811 147.2211 151.6611"
         y="-199.35091"
         sodipodi:role="line"
         id="tspan7177">Decay</tspan><tspan
         x="179.1911 184.7511 188.0811 193.0811 198.0811 202.5211 207.47209 211.91209 214.69209 217.47209 222.47209"
         y="-181.3109"
         sodipodi:role="line"
         id="tspan7179">Propagation</tspan><tspan
         x="133.6911 139.2511 144.2511 149.2511 153.1411 155.9211 159.2511 163.6911 166.4711 170.9111 173.4111 176.7411 182.3011 185.0811 187.5811 190.0811 197.3011 201.7411 208.96109 212.8511 215.3511 217.8511 222.29109 225.07109 229.51109 232.01109"
         y="-142.10091"
         sodipodi:role="line"
         id="tspan7181">Substrate (Si, GaAs, etc.)</tspan></text><text
       transform="scale(1,-1)"
       style="font-variant:normal;font-weight:normal;font-stretch:normal;font-size:10px;font-family:Symbol;-inkscape-font-specification:Symbol;writing-mode:lr-tb;fill:#231f20;fill-opacity:1;fill-rule:nonzero;stroke:none"
       id="text7187"
       x="265.54111"
       y="-143.8709"><tspan
         x="265.54111"
         y="-143.8709"
         id="tspan7185">ε</tspan></text><text
       transform="scale(1,-1)"
       style="font-variant:normal;font-weight:normal;font-stretch:normal;font-size:7.5px;font-family:Times;-inkscape-font-specification:Times-Roman;writing-mode:lr-tb;fill:#231f20;fill-opacity:1;fill-rule:nonzero;stroke:none"
       id="text7191"
       x="269.9194"
       y="-141.37579"><tspan
         x="269.9194"
         y="-141.37579"
         id="tspan7189">r</tspan></text><text
       transform="scale(1,-1)"
       style="font-variant:normal;font-weight:normal;font-stretch:normal;font-size:10px;font-family:Times;-inkscape-font-specification:Times-Roman;writing-mode:lr-tb;fill:#231f20;fill-opacity:1;fill-rule:nonzero;stroke:none"
       id="text7195"
       x="263.79541"
       y="-182.29469"><tspan
         x="263.79541 271.01541 276.01541 278.79541 283.23541 288.23541 293.23541"
         y="-182.29469"
         sodipodi:role="line"
         id="tspan7193">Antenna</tspan></text><g
       id="g7239"
       transform="translate(-23.829905,116.64483)"><g
         clip-path="url(#clipPath7011)"
         id="g7237"><text
           transform="matrix(1,0,0,-1,243.85128,0.96149176)"
           style="font-style:normal;font-variant:normal;font-weight:500;font-stretch:normal;font-size:10px;line-height:0px;font-family:'CMU Serif';-inkscape-font-specification:'CMU Serif, Medium';font-variant-ligatures:normal;font-variant-caps:normal;font-variant-numeric:normal;font-variant-east-asian:normal;text-align:start;writing-mode:lr-tb;text-anchor:start;white-space:pre;inline-size:159.47;fill:#231f20;fill-opacity:1;fill-rule:nonzero;stroke:none"
           id="text7235"
           x="-6.0449219"
           y="0"
           xml:space="preserve"><tspan
             x="-6.0449219"
             y="0"><tspan
               style="font-style:normal;font-variant:normal;font-weight:500;font-stretch:normal;font-size:10px;font-family:'CMU Serif';-inkscape-font-specification:'CMU Serif, Medium';font-variant-ligatures:normal;font-variant-caps:normal;font-variant-numeric:normal;font-variant-east-asian:normal;text-align:start;text-anchor:start">Metal backing </tspan></tspan></text></g></g><text
       transform="scale(1,-1)"
       style="font-variant:normal;font-weight:normal;font-stretch:normal;font-size:10px;font-family:Times;-inkscape-font-specification:Times-Roman;writing-mode:lr-tb;fill:#231f20;fill-opacity:1;fill-rule:nonzero;stroke:none"
       id="text7245"
       x="285.8945"
       y="-154.075"><tspan
         x="285.8945"
         y="-154.075"
         id="tspan7241">y</tspan><tspan
         x="336.02451"
         y="-142.66499"
         id="tspan7243">x</tspan></text><g
       transform="matrix(1.33333,0,0,-1.33333,386.68471,175.091)"
       ns4:version="1.3.1"
       ns4:texconverter="pdflatex"
       ns4:pdfconverter="inkscape"
       ns4:text="$ \\approx 10 \\, \\mu m$\n\n"
       ns4:preamble="/Users/hasanabbas/Library/Application Support/org.inkscape.Inkscape/config/inkscape/extensions/inkscapeMadeEasy/basicLatexPackages.tex"
       ns4:scale="1.0"
       ns4:alignment="middle center"
       ns4:inkscapeversion="1.0.2"
       ns4:jacobian_sqrt="1.33333"
       id="g1596"><defs
   id="id-76d43cb3-5844-4a37-9b8c-cfd259bca188">
    <g
   id="id-00d1c2a2-5d32-4850-86bc-5a2d08ee3d6d">
      <symbol
   overflow="visible"
   id="id-04dd0434-58dc-4f96-82fc-fe168b2d275e">
        <path
   style="stroke:none"
   d=""
   id="id-77ba2a80-c13b-460a-88f9-9ef9239c91fd" />
      </symbol>
      <symbol
   overflow="visible"
   id="id-89bc1cfd-b059-4cd1-9f83-b9128fda8519">
        <path
   style="stroke:none"
   d="m 7.203125,-4.5 c 0,-0.21875 -0.078125,-0.3125 -0.140625,-0.3125 -0.046875,0 -0.140625,0.046875 -0.140625,0.28125 C 6.875,-3.84375 6.1875,-3.4375 5.53125,-3.4375 4.953125,-3.4375 4.453125,-3.75 3.9375,-4.09375 3.40625,-4.453125 2.859375,-4.8125 2.21875,-4.8125 c -0.9375,0 -1.671875,0.703125 -1.671875,1.625 0,0.21875 0.078125,0.296875 0.140625,0.296875 0.09375,0 0.140625,-0.1875 0.140625,-0.234375 C 0.875,-3.953125 1.6875,-4.25 2.21875,-4.25 c 0.578125,0 1.078125,0.296875 1.59375,0.65625 0.53125,0.359375 1.078125,0.71875 1.71875,0.71875 0.921875,0 1.671875,-0.71875 1.671875,-1.625 z m 0,2.328125 c 0,-0.296875 -0.125,-0.3125 -0.140625,-0.3125 -0.046875,0 -0.140625,0.046875 -0.140625,0.265625 C 6.875,-1.53125 6.1875,-1.109375 5.53125,-1.109375 c -0.578125,0 -1.078125,-0.3125 -1.59375,-0.671875 C 3.40625,-2.140625 2.859375,-2.5 2.21875,-2.5 c -0.9375,0 -1.671875,0.71875 -1.671875,1.625 0,0.234375 0.078125,0.3125 0.140625,0.3125 0.09375,0 0.140625,-0.1875 0.140625,-0.234375 C 0.875,-1.640625 1.6875,-1.9375 2.21875,-1.9375 c 0.578125,0 1.078125,0.3125 1.59375,0.65625 0.53125,0.359375 1.078125,0.71875 1.71875,0.71875 0.953125,0 1.671875,-0.734375 1.671875,-1.609375 z m 0,0"
   id="id-e8549cd3-1d3c-4a8f-9733-c05ffdc86d2b" />
      </symbol>
      <symbol
   overflow="visible"
   id="id-c40974ed-4eec-4951-88e9-55ee005de231">
        <path
   style="stroke:none"
   d=""
   id="id-b21416e3-e259-4efc-a9a4-b9eacade7d96" />
      </symbol>
      <symbol
   overflow="visible"
   id="id-982bc4d0-89fa-4929-b3a6-a7e68e1c848e">
        <path
   style="stroke:none"
   d="m 2.9375,-6.375 c 0,-0.25 0,-0.265625 -0.234375,-0.265625 C 2.078125,-6 1.203125,-6 0.890625,-6 v 0.3125 c 0.203125,0 0.78125,0 1.296875,-0.265625 v 5.171875 c 0,0.359375 -0.03125,0.46875 -0.921875,0.46875 h -0.3125 V 0 c 0.34375,-0.03125 1.203125,-0.03125 1.609375,-0.03125 0.390625,0 1.265625,0 1.609375,0.03125 v -0.3125 h -0.3125 c -0.90625,0 -0.921875,-0.109375 -0.921875,-0.46875 z m 0,0"
   id="id-55bcaa45-50e2-4218-8270-ee6f725ff76d" />
      </symbol>
      <symbol
   overflow="visible"
   id="id-3baf9ae6-c159-498a-b13f-2fccae0d682b">
        <path
   style="stroke:none"
   d="m 4.578125,-3.1875 c 0,-0.796875 -0.046875,-1.59375 -0.390625,-2.328125 -0.453125,-0.96875 -1.28125,-1.125 -1.6875,-1.125 -0.609375,0 -1.328125,0.265625 -1.75,1.1875 -0.3125,0.6875 -0.359375,1.46875 -0.359375,2.265625 0,0.75 0.03125,1.640625 0.453125,2.40625 0.421875,0.796875 1.15625,1 1.640625,1 0.53125,0 1.296875,-0.203125 1.734375,-1.15625 0.3125,-0.6875 0.359375,-1.46875 0.359375,-2.25 z M 2.484375,0 C 2.09375,0 1.5,-0.25 1.328125,-1.203125 1.21875,-1.796875 1.21875,-2.71875 1.21875,-3.3125 c 0,-0.640625 0,-1.296875 0.078125,-1.828125 0.1875,-1.1875 0.9375,-1.28125 1.1875,-1.28125 0.328125,0 0.984375,0.1875 1.171875,1.171875 0.109375,0.5625 0.109375,1.3125 0.109375,1.9375 0,0.75 0,1.421875 -0.109375,2.0625 C 3.5,-0.296875 2.9375,0 2.484375,0 Z m 0,0"
   id="id-65526e11-214c-4156-8de1-7a58c6d53b09" />
      </symbol>
      <symbol
   overflow="visible"
   id="id-8be9e0ce-4943-4daf-a28e-f3b5caad09b5">
        <path
   style="stroke:none"
   d=""
   id="id-f213e937-6950-404f-a450-8bf6b3982814" />
      </symbol>
      <symbol
   overflow="visible"
   id="id-e32571a3-1578-4df6-8e06-83de813eb9fd">
        <path
   style="stroke:none"
   d="m 2.296875,-3.5 c 0.0625,-0.203125 0.15625,-0.59375 0.15625,-0.640625 0,-0.171875 -0.125,-0.265625 -0.296875,-0.265625 -0.015625,0 -0.296875,0.015625 -0.390625,0.359375 l -1.4375,5.765625 c -0.03125,0.125 -0.03125,0.140625 -0.03125,0.171875 0,0.140625 0.109375,0.265625 0.28125,0.265625 0.203125,0 0.328125,-0.1875 0.34375,-0.21875 C 0.96875,1.859375 1.09375,1.328125 1.46875,-0.203125 1.796875,0.0625 2.25,0.109375 2.4375,0.109375 c 0.703125,0 1.09375,-0.453125 1.328125,-0.734375 0.09375,0.453125 0.46875,0.734375 0.90625,0.734375 0.34375,0 0.578125,-0.234375 0.734375,-0.546875 0.171875,-0.359375 0.296875,-0.96875 0.296875,-0.984375 0,-0.109375 -0.09375,-0.109375 -0.125,-0.109375 -0.09375,0 -0.109375,0.046875 -0.140625,0.1875 -0.15625,0.640625 -0.34375,1.234375 -0.75,1.234375 -0.265625,0 -0.296875,-0.265625 -0.296875,-0.453125 0,-0.21875 0.109375,-0.6875 0.1875,-1.046875 L 4.859375,-2.6875 C 4.890625,-2.828125 5,-3.203125 5.03125,-3.359375 5.078125,-3.59375 5.1875,-3.96875 5.1875,-4.03125 c 0,-0.171875 -0.140625,-0.265625 -0.296875,-0.265625 -0.046875,0 -0.3125,0.015625 -0.390625,0.34375 l -0.46875,1.875 c -0.109375,0.5 -0.21875,0.90625 -0.25,1.015625 -0.015625,0.046875 -0.484375,0.953125 -1.296875,0.953125 -0.5,0 -0.734375,-0.328125 -0.734375,-0.875 0,-0.28125 0.0625,-0.5625 0.140625,-0.84375 z m 0,0"
   id="id-24c31bac-0ded-4792-9959-9b050f4e231f" />
      </symbol>
      <symbol
   overflow="visible"
   id="id-fb2dbc59-3807-435d-b92e-26b3891ba9d7">
        <path
   style="stroke:none"
   d="m 0.875,-0.59375 c -0.03125,0.15625 -0.09375,0.390625 -0.09375,0.4375 0,0.171875 0.140625,0.265625 0.296875,0.265625 0.125,0 0.296875,-0.078125 0.375,-0.28125 0,-0.015625 0.125,-0.484375 0.1875,-0.734375 l 0.21875,-0.890625 C 1.90625,-2.03125 1.96875,-2.25 2.03125,-2.46875 c 0.03125,-0.171875 0.109375,-0.46875 0.125,-0.5 0.140625,-0.3125 0.671875,-1.21875 1.625,-1.21875 0.453125,0 0.53125,0.375 0.53125,0.703125 0,0.25 -0.0625,0.53125 -0.140625,0.828125 L 3.890625,-1.5 3.6875,-0.75 c -0.03125,0.203125 -0.125,0.546875 -0.125,0.59375 0,0.171875 0.140625,0.265625 0.28125,0.265625 0.3125,0 0.375,-0.25 0.453125,-0.5625 0.140625,-0.5625 0.515625,-2.015625 0.59375,-2.40625 0.03125,-0.125 0.5625,-1.328125 1.65625,-1.328125 0.421875,0 0.53125,0.34375 0.53125,0.703125 0,0.5625 -0.421875,1.703125 -0.625,2.234375 -0.078125,0.234375 -0.125,0.34375 -0.125,0.546875 0,0.46875 0.34375,0.8125 0.8125,0.8125 0.9375,0 1.3125,-1.453125 1.3125,-1.53125 0,-0.109375 -0.09375,-0.109375 -0.125,-0.109375 -0.09375,0 -0.09375,0.03125 -0.140625,0.1875 -0.15625,0.53125 -0.46875,1.234375 -1.015625,1.234375 -0.171875,0 -0.25,-0.09375 -0.25,-0.328125 0,-0.25 0.09375,-0.484375 0.1875,-0.703125 0.1875,-0.53125 0.609375,-1.625 0.609375,-2.203125 0,-0.640625 -0.40625,-1.0625 -1.15625,-1.0625 -0.734375,0 -1.25,0.4375 -1.625,0.96875 0,-0.125 -0.03125,-0.46875 -0.3125,-0.703125 -0.25,-0.21875 -0.5625,-0.265625 -0.8125,-0.265625 -0.90625,0 -1.390625,0.640625 -1.5625,0.875 -0.046875,-0.578125 -0.46875,-0.875 -0.921875,-0.875 -0.453125,0 -0.640625,0.390625 -0.734375,0.5625 -0.171875,0.359375 -0.296875,0.9375 -0.296875,0.96875 0,0.109375 0.09375,0.109375 0.109375,0.109375 0.109375,0 0.109375,-0.015625 0.171875,-0.234375 0.171875,-0.703125 0.375,-1.1875 0.734375,-1.1875 0.15625,0 0.296875,0.078125 0.296875,0.453125 0,0.21875 -0.03125,0.328125 -0.15625,0.84375 z m 0,0"
   id="id-c40ce5c3-f0da-4035-a12f-af4496e978d7" />
      </symbol>
    </g>
  </defs>
  <g
   id="id-9755c599-648d-4180-8985-cd6504c28c7d"
   transform="translate(-156.29198,-128.124)">
    <g
   style="fill:#000000;fill-opacity:1"
   id="id-9f9b8817-82ae-4e77-bbc1-25dd55438fe5">
      <g
   transform="translate(148.712,134.765)"
   id="g2004"><path
   style="stroke:none"
   d="m 7.203125,-4.5 c 0,-0.21875 -0.078125,-0.3125 -0.140625,-0.3125 -0.046875,0 -0.140625,0.046875 -0.140625,0.28125 C 6.875,-3.84375 6.1875,-3.4375 5.53125,-3.4375 4.953125,-3.4375 4.453125,-3.75 3.9375,-4.09375 3.40625,-4.453125 2.859375,-4.8125 2.21875,-4.8125 c -0.9375,0 -1.671875,0.703125 -1.671875,1.625 0,0.21875 0.078125,0.296875 0.140625,0.296875 0.09375,0 0.140625,-0.1875 0.140625,-0.234375 C 0.875,-3.953125 1.6875,-4.25 2.21875,-4.25 c 0.578125,0 1.078125,0.296875 1.59375,0.65625 0.53125,0.359375 1.078125,0.71875 1.71875,0.71875 0.921875,0 1.671875,-0.71875 1.671875,-1.625 z m 0,2.328125 c 0,-0.296875 -0.125,-0.3125 -0.140625,-0.3125 -0.046875,0 -0.140625,0.046875 -0.140625,0.265625 C 6.875,-1.53125 6.1875,-1.109375 5.53125,-1.109375 c -0.578125,0 -1.078125,-0.3125 -1.59375,-0.671875 C 3.40625,-2.140625 2.859375,-2.5 2.21875,-2.5 c -0.9375,0 -1.671875,0.71875 -1.671875,1.625 0,0.234375 0.078125,0.3125 0.140625,0.3125 0.09375,0 0.140625,-0.1875 0.140625,-0.234375 C 0.875,-1.640625 1.6875,-1.9375 2.21875,-1.9375 c 0.578125,0 1.078125,0.3125 1.59375,0.65625 0.53125,0.359375 1.078125,0.71875 1.71875,0.71875 0.953125,0 1.671875,-0.734375 1.671875,-1.609375 z m 0,0"
   id="id-081d1c3e-cb00-4ad3-a4aa-68afb86425bb" />
      </g></g>
    <g
   style="fill:#000000;fill-opacity:1"
   id="id-42f99281-be00-4674-abcf-f108e626ce0c">
      <g
   transform="translate(159.228,134.765)"
   id="g2008"><path
   style="stroke:none"
   d="m 2.9375,-6.375 c 0,-0.25 0,-0.265625 -0.234375,-0.265625 C 2.078125,-6 1.203125,-6 0.890625,-6 v 0.3125 c 0.203125,0 0.78125,0 1.296875,-0.265625 v 5.171875 c 0,0.359375 -0.03125,0.46875 -0.921875,0.46875 h -0.3125 V 0 c 0.34375,-0.03125 1.203125,-0.03125 1.609375,-0.03125 0.390625,0 1.265625,0 1.609375,0.03125 v -0.3125 h -0.3125 c -0.90625,0 -0.921875,-0.109375 -0.921875,-0.46875 z m 0,0"
   id="id-9f552198-8d29-4a62-8b96-aa325d1a057e" />
      </g><g
   transform="translate(164.209,134.765)"
   id="g2011"><path
   style="stroke:none"
   d="m 4.578125,-3.1875 c 0,-0.796875 -0.046875,-1.59375 -0.390625,-2.328125 -0.453125,-0.96875 -1.28125,-1.125 -1.6875,-1.125 -0.609375,0 -1.328125,0.265625 -1.75,1.1875 -0.3125,0.6875 -0.359375,1.46875 -0.359375,2.265625 0,0.75 0.03125,1.640625 0.453125,2.40625 0.421875,0.796875 1.15625,1 1.640625,1 0.53125,0 1.296875,-0.203125 1.734375,-1.15625 0.3125,-0.6875 0.359375,-1.46875 0.359375,-2.25 z M 2.484375,0 C 2.09375,0 1.5,-0.25 1.328125,-1.203125 1.21875,-1.796875 1.21875,-2.71875 1.21875,-3.3125 c 0,-0.640625 0,-1.296875 0.078125,-1.828125 0.1875,-1.1875 0.9375,-1.28125 1.1875,-1.28125 0.328125,0 0.984375,0.1875 1.171875,1.171875 0.109375,0.5625 0.109375,1.3125 0.109375,1.9375 0,0.75 0,1.421875 -0.109375,2.0625 C 3.5,-0.296875 2.9375,0 2.484375,0 Z m 0,0"
   id="id-5a51baf9-bbb7-4653-b589-84654a762935" />
      </g></g>
    <g
   style="fill:#000000;fill-opacity:1"
   id="id-ff146de6-4a61-407b-9761-440d7913e50e">
      <g
   transform="translate(170.851,134.765)"
   id="g2015"><path
   style="stroke:none"
   d="m 2.296875,-3.5 c 0.0625,-0.203125 0.15625,-0.59375 0.15625,-0.640625 0,-0.171875 -0.125,-0.265625 -0.296875,-0.265625 -0.015625,0 -0.296875,0.015625 -0.390625,0.359375 l -1.4375,5.765625 c -0.03125,0.125 -0.03125,0.140625 -0.03125,0.171875 0,0.140625 0.109375,0.265625 0.28125,0.265625 0.203125,0 0.328125,-0.1875 0.34375,-0.21875 C 0.96875,1.859375 1.09375,1.328125 1.46875,-0.203125 1.796875,0.0625 2.25,0.109375 2.4375,0.109375 c 0.703125,0 1.09375,-0.453125 1.328125,-0.734375 0.09375,0.453125 0.46875,0.734375 0.90625,0.734375 0.34375,0 0.578125,-0.234375 0.734375,-0.546875 0.171875,-0.359375 0.296875,-0.96875 0.296875,-0.984375 0,-0.109375 -0.09375,-0.109375 -0.125,-0.109375 -0.09375,0 -0.109375,0.046875 -0.140625,0.1875 -0.15625,0.640625 -0.34375,1.234375 -0.75,1.234375 -0.265625,0 -0.296875,-0.265625 -0.296875,-0.453125 0,-0.21875 0.109375,-0.6875 0.1875,-1.046875 L 4.859375,-2.6875 C 4.890625,-2.828125 5,-3.203125 5.03125,-3.359375 5.078125,-3.59375 5.1875,-3.96875 5.1875,-4.03125 c 0,-0.171875 -0.140625,-0.265625 -0.296875,-0.265625 -0.046875,0 -0.3125,0.015625 -0.390625,0.34375 l -0.46875,1.875 c -0.109375,0.5 -0.21875,0.90625 -0.25,1.015625 -0.015625,0.046875 -0.484375,0.953125 -1.296875,0.953125 -0.5,0 -0.734375,-0.328125 -0.734375,-0.875 0,-0.28125 0.0625,-0.5625 0.140625,-0.84375 z m 0,0"
   id="id-ee00b209-30b6-4ed0-b7e7-ca7b1d923d94" />
      </g><g
   transform="translate(176.853,134.765)"
   id="g2018"><path
   style="stroke:none"
   d="m 0.875,-0.59375 c -0.03125,0.15625 -0.09375,0.390625 -0.09375,0.4375 0,0.171875 0.140625,0.265625 0.296875,0.265625 0.125,0 0.296875,-0.078125 0.375,-0.28125 0,-0.015625 0.125,-0.484375 0.1875,-0.734375 l 0.21875,-0.890625 C 1.90625,-2.03125 1.96875,-2.25 2.03125,-2.46875 c 0.03125,-0.171875 0.109375,-0.46875 0.125,-0.5 0.140625,-0.3125 0.671875,-1.21875 1.625,-1.21875 0.453125,0 0.53125,0.375 0.53125,0.703125 0,0.25 -0.0625,0.53125 -0.140625,0.828125 L 3.890625,-1.5 3.6875,-0.75 c -0.03125,0.203125 -0.125,0.546875 -0.125,0.59375 0,0.171875 0.140625,0.265625 0.28125,0.265625 0.3125,0 0.375,-0.25 0.453125,-0.5625 0.140625,-0.5625 0.515625,-2.015625 0.59375,-2.40625 0.03125,-0.125 0.5625,-1.328125 1.65625,-1.328125 0.421875,0 0.53125,0.34375 0.53125,0.703125 0,0.5625 -0.421875,1.703125 -0.625,2.234375 -0.078125,0.234375 -0.125,0.34375 -0.125,0.546875 0,0.46875 0.34375,0.8125 0.8125,0.8125 0.9375,0 1.3125,-1.453125 1.3125,-1.53125 0,-0.109375 -0.09375,-0.109375 -0.125,-0.109375 -0.09375,0 -0.09375,0.03125 -0.140625,0.1875 -0.15625,0.53125 -0.46875,1.234375 -1.015625,1.234375 -0.171875,0 -0.25,-0.09375 -0.25,-0.328125 0,-0.25 0.09375,-0.484375 0.1875,-0.703125 0.1875,-0.53125 0.609375,-1.625 0.609375,-2.203125 0,-0.640625 -0.40625,-1.0625 -1.15625,-1.0625 -0.734375,0 -1.25,0.4375 -1.625,0.96875 0,-0.125 -0.03125,-0.46875 -0.3125,-0.703125 -0.25,-0.21875 -0.5625,-0.265625 -0.8125,-0.265625 -0.90625,0 -1.390625,0.640625 -1.5625,0.875 -0.046875,-0.578125 -0.46875,-0.875 -0.921875,-0.875 -0.453125,0 -0.640625,0.390625 -0.734375,0.5625 -0.171875,0.359375 -0.296875,0.9375 -0.296875,0.96875 0,0.109375 0.09375,0.109375 0.109375,0.109375 0.109375,0 0.109375,-0.015625 0.171875,-0.234375 0.171875,-0.703125 0.375,-1.1875 0.734375,-1.1875 0.15625,0 0.296875,0.078125 0.296875,0.453125 0,0.21875 -0.03125,0.328125 -0.15625,0.84375 z m 0,0"
   id="id-12107b30-5d1c-4130-af8c-57316c91e5f0" />
      </g></g>
  </g>
</g><g
       transform="matrix(1.33333,0,0,-1.33333,376.71985,155.71187)"
       ns4:version="1.3.1"
       ns4:texconverter="pdflatex"
       ns4:pdfconverter="inkscape"
       ns4:text="$ \\approx 100 - 700  \\, \\mu m$\n\n\n"
       ns4:preamble="/Users/hasanabbas/Library/Application Support/org.inkscape.Inkscape/config/inkscape/extensions/inkscapeMadeEasy/basicLatexPackages.tex"
       ns4:scale="1.0"
       ns4:alignment="middle center"
       ns4:inkscapeversion="1.0.2"
       ns4:jacobian_sqrt="1.33333"
       id="g2122"><defs
   id="id-58095549-8f0f-40ff-9ed7-296d37cb0a38">
    <g
   id="id-3514816d-3dcd-4dae-84cb-59ec983d8593">
      <symbol
   overflow="visible"
   id="id-02f3e2a1-0c3d-43e6-847a-5dc676f037b0">
        <path
   style="stroke:none"
   d=""
   id="id-379ce96a-283b-427e-b6e4-b52b580ecaa7" />
      </symbol>
      <symbol
   overflow="visible"
   id="id-f6a55894-dff5-41d3-98f5-6e563f05beb5">
        <path
   style="stroke:none"
   d="m 7.203125,-4.5 c 0,-0.21875 -0.078125,-0.3125 -0.140625,-0.3125 -0.046875,0 -0.140625,0.046875 -0.140625,0.28125 C 6.875,-3.84375 6.1875,-3.4375 5.53125,-3.4375 4.953125,-3.4375 4.453125,-3.75 3.9375,-4.09375 3.40625,-4.453125 2.859375,-4.8125 2.21875,-4.8125 c -0.9375,0 -1.671875,0.703125 -1.671875,1.625 0,0.21875 0.078125,0.296875 0.140625,0.296875 0.09375,0 0.140625,-0.1875 0.140625,-0.234375 C 0.875,-3.953125 1.6875,-4.25 2.21875,-4.25 c 0.578125,0 1.078125,0.296875 1.59375,0.65625 0.53125,0.359375 1.078125,0.71875 1.71875,0.71875 0.921875,0 1.671875,-0.71875 1.671875,-1.625 z m 0,2.328125 c 0,-0.296875 -0.125,-0.3125 -0.140625,-0.3125 -0.046875,0 -0.140625,0.046875 -0.140625,0.265625 C 6.875,-1.53125 6.1875,-1.109375 5.53125,-1.109375 c -0.578125,0 -1.078125,-0.3125 -1.59375,-0.671875 C 3.40625,-2.140625 2.859375,-2.5 2.21875,-2.5 c -0.9375,0 -1.671875,0.71875 -1.671875,1.625 0,0.234375 0.078125,0.3125 0.140625,0.3125 0.09375,0 0.140625,-0.1875 0.140625,-0.234375 C 0.875,-1.640625 1.6875,-1.9375 2.21875,-1.9375 c 0.578125,0 1.078125,0.3125 1.59375,0.65625 0.53125,0.359375 1.078125,0.71875 1.71875,0.71875 0.953125,0 1.671875,-0.734375 1.671875,-1.609375 z m 0,0"
   id="id-80b2277b-80ee-4428-81f5-8f0231a8d336" />
      </symbol>
      <symbol
   overflow="visible"
   id="id-d4ceba8a-cfa1-4b41-977c-dfae9835552d">
        <path
   style="stroke:none"
   d="m 6.5625,-2.296875 c 0.171875,0 0.359375,0 0.359375,-0.203125 0,-0.1875 -0.1875,-0.1875 -0.359375,-0.1875 H 1.171875 c -0.171875,0 -0.34375,0 -0.34375,0.1875 0,0.203125 0.171875,0.203125 0.34375,0.203125 z m 0,0"
   id="id-6a73e6ad-e5fa-4395-8627-8b9a3fdb9791" />
      </symbol>
      <symbol
   overflow="visible"
   id="id-dabb565e-c28e-4134-9743-80c1e45436a7">
        <path
   style="stroke:none"
   d=""
   id="id-508ca65c-8e64-46c6-9469-569bf55b9690" />
      </symbol>
      <symbol
   overflow="visible"
   id="id-90d24f84-1117-49ec-900e-ed9f68c32858">
        <path
   style="stroke:none"
   d="m 2.9375,-6.375 c 0,-0.25 0,-0.265625 -0.234375,-0.265625 C 2.078125,-6 1.203125,-6 0.890625,-6 v 0.3125 c 0.203125,0 0.78125,0 1.296875,-0.265625 v 5.171875 c 0,0.359375 -0.03125,0.46875 -0.921875,0.46875 h -0.3125 V 0 c 0.34375,-0.03125 1.203125,-0.03125 1.609375,-0.03125 0.390625,0 1.265625,0 1.609375,0.03125 v -0.3125 h -0.3125 c -0.90625,0 -0.921875,-0.109375 -0.921875,-0.46875 z m 0,0"
   id="id-5f1e58ce-9834-4d14-93d5-6e8b05e4bb48" />
      </symbol>
      <symbol
   overflow="visible"
   id="id-3d2f5688-cd2c-4875-8720-f7394693d499">
        <path
   style="stroke:none"
   d="m 4.578125,-3.1875 c 0,-0.796875 -0.046875,-1.59375 -0.390625,-2.328125 -0.453125,-0.96875 -1.28125,-1.125 -1.6875,-1.125 -0.609375,0 -1.328125,0.265625 -1.75,1.1875 -0.3125,0.6875 -0.359375,1.46875 -0.359375,2.265625 0,0.75 0.03125,1.640625 0.453125,2.40625 0.421875,0.796875 1.15625,1 1.640625,1 0.53125,0 1.296875,-0.203125 1.734375,-1.15625 0.3125,-0.6875 0.359375,-1.46875 0.359375,-2.25 z M 2.484375,0 C 2.09375,0 1.5,-0.25 1.328125,-1.203125 1.21875,-1.796875 1.21875,-2.71875 1.21875,-3.3125 c 0,-0.640625 0,-1.296875 0.078125,-1.828125 0.1875,-1.1875 0.9375,-1.28125 1.1875,-1.28125 0.328125,0 0.984375,0.1875 1.171875,1.171875 0.109375,0.5625 0.109375,1.3125 0.109375,1.9375 0,0.75 0,1.421875 -0.109375,2.0625 C 3.5,-0.296875 2.9375,0 2.484375,0 Z m 0,0"
   id="id-7ab239a6-2a3b-427d-8941-83225521ee64" />
      </symbol>
      <symbol
   overflow="visible"
   id="id-c243c0d9-da25-4c0f-af05-1c48924afdca">
        <path
   style="stroke:none"
   d="m 4.75,-6.078125 c 0.078125,-0.109375 0.078125,-0.125 0.078125,-0.34375 H 2.40625 c -1.203125,0 -1.234375,-0.125 -1.265625,-0.3125 h -0.25 L 0.5625,-4.6875 h 0.25 c 0.03125,-0.15625 0.109375,-0.78125 0.25,-0.90625 0.0625,-0.0625 0.84375,-0.0625 0.96875,-0.0625 h 2.0625 C 3.984375,-5.5 3.203125,-4.40625 2.984375,-4.078125 2.078125,-2.734375 1.75,-1.34375 1.75,-0.328125 c 0,0.09375 0,0.546875 0.46875,0.546875 0.453125,0 0.453125,-0.453125 0.453125,-0.546875 V -0.84375 c 0,-0.546875 0.03125,-1.09375 0.109375,-1.625 0.046875,-0.234375 0.171875,-1.09375 0.625,-1.703125 z m 0,0"
   id="id-1667f97b-aaca-45a8-9667-f6ffa2456ac1" />
      </symbol>
      <symbol
   overflow="visible"
   id="id-f99e46d4-d9df-40b5-9090-7a28bd0b0722">
        <path
   style="stroke:none"
   d=""
   id="id-8c3e4d2e-6133-4b66-8797-c6daab7fc604" />
      </symbol>
      <symbol
   overflow="visible"
   id="id-05b8a4f0-17c9-405d-8be2-b2b3ddd468bb">
        <path
   style="stroke:none"
   d="m 2.296875,-3.5 c 0.0625,-0.203125 0.15625,-0.59375 0.15625,-0.640625 0,-0.171875 -0.125,-0.265625 -0.296875,-0.265625 -0.015625,0 -0.296875,0.015625 -0.390625,0.359375 l -1.4375,5.765625 c -0.03125,0.125 -0.03125,0.140625 -0.03125,0.171875 0,0.140625 0.109375,0.265625 0.28125,0.265625 0.203125,0 0.328125,-0.1875 0.34375,-0.21875 C 0.96875,1.859375 1.09375,1.328125 1.46875,-0.203125 1.796875,0.0625 2.25,0.109375 2.4375,0.109375 c 0.703125,0 1.09375,-0.453125 1.328125,-0.734375 0.09375,0.453125 0.46875,0.734375 0.90625,0.734375 0.34375,0 0.578125,-0.234375 0.734375,-0.546875 0.171875,-0.359375 0.296875,-0.96875 0.296875,-0.984375 0,-0.109375 -0.09375,-0.109375 -0.125,-0.109375 -0.09375,0 -0.109375,0.046875 -0.140625,0.1875 -0.15625,0.640625 -0.34375,1.234375 -0.75,1.234375 -0.265625,0 -0.296875,-0.265625 -0.296875,-0.453125 0,-0.21875 0.109375,-0.6875 0.1875,-1.046875 L 4.859375,-2.6875 C 4.890625,-2.828125 5,-3.203125 5.03125,-3.359375 5.078125,-3.59375 5.1875,-3.96875 5.1875,-4.03125 c 0,-0.171875 -0.140625,-0.265625 -0.296875,-0.265625 -0.046875,0 -0.3125,0.015625 -0.390625,0.34375 l -0.46875,1.875 c -0.109375,0.5 -0.21875,0.90625 -0.25,1.015625 -0.015625,0.046875 -0.484375,0.953125 -1.296875,0.953125 -0.5,0 -0.734375,-0.328125 -0.734375,-0.875 0,-0.28125 0.0625,-0.5625 0.140625,-0.84375 z m 0,0"
   id="id-6aa24a6e-5716-42bc-94bd-25a3ae0df781" />
      </symbol>
      <symbol
   overflow="visible"
   id="id-284545ad-8dd4-45e5-86f5-c593e2aba5de">
        <path
   style="stroke:none"
   d="m 0.875,-0.59375 c -0.03125,0.15625 -0.09375,0.390625 -0.09375,0.4375 0,0.171875 0.140625,0.265625 0.296875,0.265625 0.125,0 0.296875,-0.078125 0.375,-0.28125 0,-0.015625 0.125,-0.484375 0.1875,-0.734375 l 0.21875,-0.890625 C 1.90625,-2.03125 1.96875,-2.25 2.03125,-2.46875 c 0.03125,-0.171875 0.109375,-0.46875 0.125,-0.5 0.140625,-0.3125 0.671875,-1.21875 1.625,-1.21875 0.453125,0 0.53125,0.375 0.53125,0.703125 0,0.25 -0.0625,0.53125 -0.140625,0.828125 L 3.890625,-1.5 3.6875,-0.75 c -0.03125,0.203125 -0.125,0.546875 -0.125,0.59375 0,0.171875 0.140625,0.265625 0.28125,0.265625 0.3125,0 0.375,-0.25 0.453125,-0.5625 0.140625,-0.5625 0.515625,-2.015625 0.59375,-2.40625 0.03125,-0.125 0.5625,-1.328125 1.65625,-1.328125 0.421875,0 0.53125,0.34375 0.53125,0.703125 0,0.5625 -0.421875,1.703125 -0.625,2.234375 -0.078125,0.234375 -0.125,0.34375 -0.125,0.546875 0,0.46875 0.34375,0.8125 0.8125,0.8125 0.9375,0 1.3125,-1.453125 1.3125,-1.53125 0,-0.109375 -0.09375,-0.109375 -0.125,-0.109375 -0.09375,0 -0.09375,0.03125 -0.140625,0.1875 -0.15625,0.53125 -0.46875,1.234375 -1.015625,1.234375 -0.171875,0 -0.25,-0.09375 -0.25,-0.328125 0,-0.25 0.09375,-0.484375 0.1875,-0.703125 0.1875,-0.53125 0.609375,-1.625 0.609375,-2.203125 0,-0.640625 -0.40625,-1.0625 -1.15625,-1.0625 -0.734375,0 -1.25,0.4375 -1.625,0.96875 0,-0.125 -0.03125,-0.46875 -0.3125,-0.703125 -0.25,-0.21875 -0.5625,-0.265625 -0.8125,-0.265625 -0.90625,0 -1.390625,0.640625 -1.5625,0.875 -0.046875,-0.578125 -0.46875,-0.875 -0.921875,-0.875 -0.453125,0 -0.640625,0.390625 -0.734375,0.5625 -0.171875,0.359375 -0.296875,0.9375 -0.296875,0.96875 0,0.109375 0.09375,0.109375 0.109375,0.109375 0.109375,0 0.109375,-0.015625 0.171875,-0.234375 0.171875,-0.703125 0.375,-1.1875 0.734375,-1.1875 0.15625,0 0.296875,0.078125 0.296875,0.453125 0,0.21875 -0.03125,0.328125 -0.15625,0.84375 z m 0,0"
   id="id-7a934342-eff3-4b15-97b6-64aa8b4580ff" />
      </symbol>
    </g>
  </defs>
  <g
   id="id-4b92b668-2020-44b2-9a64-a3ab1c75cdc5"
   transform="translate(-149.259,-128.031)">
    <g
   style="fill:#000000;fill-opacity:1"
   id="id-909f26a3-73ec-4467-87dd-51d311e4c3f9">
      <g
   transform="translate(148.712,134.765)"
   id="g2539"><path
   style="stroke:none"
   d="m 7.203125,-4.5 c 0,-0.21875 -0.078125,-0.3125 -0.140625,-0.3125 -0.046875,0 -0.140625,0.046875 -0.140625,0.28125 C 6.875,-3.84375 6.1875,-3.4375 5.53125,-3.4375 4.953125,-3.4375 4.453125,-3.75 3.9375,-4.09375 3.40625,-4.453125 2.859375,-4.8125 2.21875,-4.8125 c -0.9375,0 -1.671875,0.703125 -1.671875,1.625 0,0.21875 0.078125,0.296875 0.140625,0.296875 0.09375,0 0.140625,-0.1875 0.140625,-0.234375 C 0.875,-3.953125 1.6875,-4.25 2.21875,-4.25 c 0.578125,0 1.078125,0.296875 1.59375,0.65625 0.53125,0.359375 1.078125,0.71875 1.71875,0.71875 0.921875,0 1.671875,-0.71875 1.671875,-1.625 z m 0,2.328125 c 0,-0.296875 -0.125,-0.3125 -0.140625,-0.3125 -0.046875,0 -0.140625,0.046875 -0.140625,0.265625 C 6.875,-1.53125 6.1875,-1.109375 5.53125,-1.109375 c -0.578125,0 -1.078125,-0.3125 -1.59375,-0.671875 C 3.40625,-2.140625 2.859375,-2.5 2.21875,-2.5 c -0.9375,0 -1.671875,0.71875 -1.671875,1.625 0,0.234375 0.078125,0.3125 0.140625,0.3125 0.09375,0 0.140625,-0.1875 0.140625,-0.234375 C 0.875,-1.640625 1.6875,-1.9375 2.21875,-1.9375 c 0.578125,0 1.078125,0.3125 1.59375,0.65625 0.53125,0.359375 1.078125,0.71875 1.71875,0.71875 0.953125,0 1.671875,-0.734375 1.671875,-1.609375 z m 0,0"
   id="id-fefa54bc-8c3d-4b46-9fad-857964dd4982" />
      </g></g>
    <g
   style="fill:#000000;fill-opacity:1"
   id="id-a5eb979c-e0b2-430d-9420-cc2bc259d512">
      <g
   transform="translate(159.228,134.765)"
   id="g2543"><path
   style="stroke:none"
   d="m 2.9375,-6.375 c 0,-0.25 0,-0.265625 -0.234375,-0.265625 C 2.078125,-6 1.203125,-6 0.890625,-6 v 0.3125 c 0.203125,0 0.78125,0 1.296875,-0.265625 v 5.171875 c 0,0.359375 -0.03125,0.46875 -0.921875,0.46875 h -0.3125 V 0 c 0.34375,-0.03125 1.203125,-0.03125 1.609375,-0.03125 0.390625,0 1.265625,0 1.609375,0.03125 v -0.3125 h -0.3125 c -0.90625,0 -0.921875,-0.109375 -0.921875,-0.46875 z m 0,0"
   id="id-8528831f-872f-404d-a16d-30e14e72bcb9" />
      </g><g
   transform="translate(164.209,134.765)"
   id="g2546"><path
   style="stroke:none"
   d="m 4.578125,-3.1875 c 0,-0.796875 -0.046875,-1.59375 -0.390625,-2.328125 -0.453125,-0.96875 -1.28125,-1.125 -1.6875,-1.125 -0.609375,0 -1.328125,0.265625 -1.75,1.1875 -0.3125,0.6875 -0.359375,1.46875 -0.359375,2.265625 0,0.75 0.03125,1.640625 0.453125,2.40625 0.421875,0.796875 1.15625,1 1.640625,1 0.53125,0 1.296875,-0.203125 1.734375,-1.15625 0.3125,-0.6875 0.359375,-1.46875 0.359375,-2.25 z M 2.484375,0 C 2.09375,0 1.5,-0.25 1.328125,-1.203125 1.21875,-1.796875 1.21875,-2.71875 1.21875,-3.3125 c 0,-0.640625 0,-1.296875 0.078125,-1.828125 0.1875,-1.1875 0.9375,-1.28125 1.1875,-1.28125 0.328125,0 0.984375,0.1875 1.171875,1.171875 0.109375,0.5625 0.109375,1.3125 0.109375,1.9375 0,0.75 0,1.421875 -0.109375,2.0625 C 3.5,-0.296875 2.9375,0 2.484375,0 Z m 0,0"
   id="id-db7149cd-2ea4-4a8a-9979-6c4b3867cdaa" />
      </g><g
   transform="translate(169.191,134.765)"
   id="g2549"><path
   style="stroke:none"
   d="m 4.578125,-3.1875 c 0,-0.796875 -0.046875,-1.59375 -0.390625,-2.328125 -0.453125,-0.96875 -1.28125,-1.125 -1.6875,-1.125 -0.609375,0 -1.328125,0.265625 -1.75,1.1875 -0.3125,0.6875 -0.359375,1.46875 -0.359375,2.265625 0,0.75 0.03125,1.640625 0.453125,2.40625 0.421875,0.796875 1.15625,1 1.640625,1 0.53125,0 1.296875,-0.203125 1.734375,-1.15625 0.3125,-0.6875 0.359375,-1.46875 0.359375,-2.25 z M 2.484375,0 C 2.09375,0 1.5,-0.25 1.328125,-1.203125 1.21875,-1.796875 1.21875,-2.71875 1.21875,-3.3125 c 0,-0.640625 0,-1.296875 0.078125,-1.828125 0.1875,-1.1875 0.9375,-1.28125 1.1875,-1.28125 0.328125,0 0.984375,0.1875 1.171875,1.171875 0.109375,0.5625 0.109375,1.3125 0.109375,1.9375 0,0.75 0,1.421875 -0.109375,2.0625 C 3.5,-0.296875 2.9375,0 2.484375,0 Z m 0,0"
   id="id-a6957ca6-1ad2-4a3e-8049-cbe635ddd830" />
      </g></g>
    <g
   style="fill:#000000;fill-opacity:1"
   id="id-bf0d4370-b11a-4ab8-ac39-c8bd86b4b184">
      <g
   transform="translate(176.386,134.765)"
   id="g2553"><path
   style="stroke:none"
   d="m 6.5625,-2.296875 c 0.171875,0 0.359375,0 0.359375,-0.203125 0,-0.1875 -0.1875,-0.1875 -0.359375,-0.1875 H 1.171875 c -0.171875,0 -0.34375,0 -0.34375,0.1875 0,0.203125 0.171875,0.203125 0.34375,0.203125 z m 0,0"
   id="id-19a98039-2a31-438a-8e07-2929eda132b9" />
      </g></g>
    <g
   style="fill:#000000;fill-opacity:1"
   id="id-7ede9f1d-afef-4ae2-8bfa-3f3c34f7d56a">
      <g
   transform="translate(186.349,134.765)"
   id="g2557"><path
   style="stroke:none"
   d="m 4.75,-6.078125 c 0.078125,-0.109375 0.078125,-0.125 0.078125,-0.34375 H 2.40625 c -1.203125,0 -1.234375,-0.125 -1.265625,-0.3125 h -0.25 L 0.5625,-4.6875 h 0.25 c 0.03125,-0.15625 0.109375,-0.78125 0.25,-0.90625 0.0625,-0.0625 0.84375,-0.0625 0.96875,-0.0625 h 2.0625 C 3.984375,-5.5 3.203125,-4.40625 2.984375,-4.078125 2.078125,-2.734375 1.75,-1.34375 1.75,-0.328125 c 0,0.09375 0,0.546875 0.46875,0.546875 0.453125,0 0.453125,-0.453125 0.453125,-0.546875 V -0.84375 c 0,-0.546875 0.03125,-1.09375 0.109375,-1.625 0.046875,-0.234375 0.171875,-1.09375 0.625,-1.703125 z m 0,0"
   id="id-a7bdc551-10ef-4bbe-82ab-b6814625b33c" />
      </g><g
   transform="translate(191.33,134.765)"
   id="g2560"><path
   style="stroke:none"
   d="m 4.578125,-3.1875 c 0,-0.796875 -0.046875,-1.59375 -0.390625,-2.328125 -0.453125,-0.96875 -1.28125,-1.125 -1.6875,-1.125 -0.609375,0 -1.328125,0.265625 -1.75,1.1875 -0.3125,0.6875 -0.359375,1.46875 -0.359375,2.265625 0,0.75 0.03125,1.640625 0.453125,2.40625 0.421875,0.796875 1.15625,1 1.640625,1 0.53125,0 1.296875,-0.203125 1.734375,-1.15625 0.3125,-0.6875 0.359375,-1.46875 0.359375,-2.25 z M 2.484375,0 C 2.09375,0 1.5,-0.25 1.328125,-1.203125 1.21875,-1.796875 1.21875,-2.71875 1.21875,-3.3125 c 0,-0.640625 0,-1.296875 0.078125,-1.828125 0.1875,-1.1875 0.9375,-1.28125 1.1875,-1.28125 0.328125,0 0.984375,0.1875 1.171875,1.171875 0.109375,0.5625 0.109375,1.3125 0.109375,1.9375 0,0.75 0,1.421875 -0.109375,2.0625 C 3.5,-0.296875 2.9375,0 2.484375,0 Z m 0,0"
   id="id-5f67bb46-bf39-4c2e-b498-3702914041f7" />
      </g><g
   transform="translate(196.312,134.765)"
   id="g2563"><path
   style="stroke:none"
   d="m 4.578125,-3.1875 c 0,-0.796875 -0.046875,-1.59375 -0.390625,-2.328125 -0.453125,-0.96875 -1.28125,-1.125 -1.6875,-1.125 -0.609375,0 -1.328125,0.265625 -1.75,1.1875 -0.3125,0.6875 -0.359375,1.46875 -0.359375,2.265625 0,0.75 0.03125,1.640625 0.453125,2.40625 0.421875,0.796875 1.15625,1 1.640625,1 0.53125,0 1.296875,-0.203125 1.734375,-1.15625 0.3125,-0.6875 0.359375,-1.46875 0.359375,-2.25 z M 2.484375,0 C 2.09375,0 1.5,-0.25 1.328125,-1.203125 1.21875,-1.796875 1.21875,-2.71875 1.21875,-3.3125 c 0,-0.640625 0,-1.296875 0.078125,-1.828125 0.1875,-1.1875 0.9375,-1.28125 1.1875,-1.28125 0.328125,0 0.984375,0.1875 1.171875,1.171875 0.109375,0.5625 0.109375,1.3125 0.109375,1.9375 0,0.75 0,1.421875 -0.109375,2.0625 C 3.5,-0.296875 2.9375,0 2.484375,0 Z m 0,0"
   id="id-487b038f-7205-4914-82c3-9767675b68ca" />
      </g></g>
    <g
   style="fill:#000000;fill-opacity:1"
   id="id-78700a5c-e4c8-4434-952d-f73f268b00c3">
      <g
   transform="translate(202.953,134.765)"
   id="g2567"><path
   style="stroke:none"
   d="m 2.296875,-3.5 c 0.0625,-0.203125 0.15625,-0.59375 0.15625,-0.640625 0,-0.171875 -0.125,-0.265625 -0.296875,-0.265625 -0.015625,0 -0.296875,0.015625 -0.390625,0.359375 l -1.4375,5.765625 c -0.03125,0.125 -0.03125,0.140625 -0.03125,0.171875 0,0.140625 0.109375,0.265625 0.28125,0.265625 0.203125,0 0.328125,-0.1875 0.34375,-0.21875 C 0.96875,1.859375 1.09375,1.328125 1.46875,-0.203125 1.796875,0.0625 2.25,0.109375 2.4375,0.109375 c 0.703125,0 1.09375,-0.453125 1.328125,-0.734375 0.09375,0.453125 0.46875,0.734375 0.90625,0.734375 0.34375,0 0.578125,-0.234375 0.734375,-0.546875 0.171875,-0.359375 0.296875,-0.96875 0.296875,-0.984375 0,-0.109375 -0.09375,-0.109375 -0.125,-0.109375 -0.09375,0 -0.109375,0.046875 -0.140625,0.1875 -0.15625,0.640625 -0.34375,1.234375 -0.75,1.234375 -0.265625,0 -0.296875,-0.265625 -0.296875,-0.453125 0,-0.21875 0.109375,-0.6875 0.1875,-1.046875 L 4.859375,-2.6875 C 4.890625,-2.828125 5,-3.203125 5.03125,-3.359375 5.078125,-3.59375 5.1875,-3.96875 5.1875,-4.03125 c 0,-0.171875 -0.140625,-0.265625 -0.296875,-0.265625 -0.046875,0 -0.3125,0.015625 -0.390625,0.34375 l -0.46875,1.875 c -0.109375,0.5 -0.21875,0.90625 -0.25,1.015625 -0.015625,0.046875 -0.484375,0.953125 -1.296875,0.953125 -0.5,0 -0.734375,-0.328125 -0.734375,-0.875 0,-0.28125 0.0625,-0.5625 0.140625,-0.84375 z m 0,0"
   id="id-37f29064-021f-4b87-b3cf-8e44f108ec9c" />
      </g><g
   transform="translate(208.955,134.765)"
   id="g2570"><path
   style="stroke:none"
   d="m 0.875,-0.59375 c -0.03125,0.15625 -0.09375,0.390625 -0.09375,0.4375 0,0.171875 0.140625,0.265625 0.296875,0.265625 0.125,0 0.296875,-0.078125 0.375,-0.28125 0,-0.015625 0.125,-0.484375 0.1875,-0.734375 l 0.21875,-0.890625 C 1.90625,-2.03125 1.96875,-2.25 2.03125,-2.46875 c 0.03125,-0.171875 0.109375,-0.46875 0.125,-0.5 0.140625,-0.3125 0.671875,-1.21875 1.625,-1.21875 0.453125,0 0.53125,0.375 0.53125,0.703125 0,0.25 -0.0625,0.53125 -0.140625,0.828125 L 3.890625,-1.5 3.6875,-0.75 c -0.03125,0.203125 -0.125,0.546875 -0.125,0.59375 0,0.171875 0.140625,0.265625 0.28125,0.265625 0.3125,0 0.375,-0.25 0.453125,-0.5625 0.140625,-0.5625 0.515625,-2.015625 0.59375,-2.40625 0.03125,-0.125 0.5625,-1.328125 1.65625,-1.328125 0.421875,0 0.53125,0.34375 0.53125,0.703125 0,0.5625 -0.421875,1.703125 -0.625,2.234375 -0.078125,0.234375 -0.125,0.34375 -0.125,0.546875 0,0.46875 0.34375,0.8125 0.8125,0.8125 0.9375,0 1.3125,-1.453125 1.3125,-1.53125 0,-0.109375 -0.09375,-0.109375 -0.125,-0.109375 -0.09375,0 -0.09375,0.03125 -0.140625,0.1875 -0.15625,0.53125 -0.46875,1.234375 -1.015625,1.234375 -0.171875,0 -0.25,-0.09375 -0.25,-0.328125 0,-0.25 0.09375,-0.484375 0.1875,-0.703125 0.1875,-0.53125 0.609375,-1.625 0.609375,-2.203125 0,-0.640625 -0.40625,-1.0625 -1.15625,-1.0625 -0.734375,0 -1.25,0.4375 -1.625,0.96875 0,-0.125 -0.03125,-0.46875 -0.3125,-0.703125 -0.25,-0.21875 -0.5625,-0.265625 -0.8125,-0.265625 -0.90625,0 -1.390625,0.640625 -1.5625,0.875 -0.046875,-0.578125 -0.46875,-0.875 -0.921875,-0.875 -0.453125,0 -0.640625,0.390625 -0.734375,0.5625 -0.171875,0.359375 -0.296875,0.9375 -0.296875,0.96875 0,0.109375 0.09375,0.109375 0.109375,0.109375 0.109375,0 0.109375,-0.015625 0.171875,-0.234375 0.171875,-0.703125 0.375,-1.1875 0.734375,-1.1875 0.15625,0 0.296875,0.078125 0.296875,0.453125 0,0.21875 -0.03125,0.328125 -0.15625,0.84375 z m 0,0"
   id="id-8f91f169-b458-437f-8794-8eb58e637ea2" />
      </g></g>
  </g>
</g></g></svg>
