<?xml version="1.0" encoding="UTF-8" standalone="no"?>
<svg
   xmlns:dc="http://purl.org/dc/elements/1.1/"
   xmlns:cc="http://creativecommons.org/ns#"
   xmlns:rdf="http://www.w3.org/1999/02/22-rdf-syntax-ns#"
   xmlns:svg="http://www.w3.org/2000/svg"
   xmlns="http://www.w3.org/2000/svg"
   xmlns:sodipodi="http://sodipodi.sourceforge.net/DTD/sodipodi-0.dtd"
   xmlns:inkscape="http://www.inkscape.org/namespaces/inkscape"
   sodipodi:docname="example3.svg"
   id="svg14498"
   version="1.1"
   viewBox="0 0 83.353773 41.517235"
   height="41.517235mm"
   width="83.353775mm"
   inkscape:version="1.0.2 (e86c8708, 2021-01-15)">
  <defs
     id="defs14492">
    <defs
       id="id-0742dc55-d41f-4812-8fcc-5d956cb45b21">
      <g
         id="id-435ee285-0aae-4792-91f1-d93be8a514fb">
        <symbol
           overflow="visible"
           id="id-41ddea45-4b17-451f-b44d-a19fca73704d">
          <path
             style="stroke:none;stroke-width:0"
             d=""
             id="id-5c23827a-4bfd-4ce2-927a-09ff77d88f92" />
        </symbol>
        <symbol
           overflow="visible"
           id="id-33901bf8-d4e4-4940-8081-335c5ace78f7">
          <path
             style="stroke:none;stroke-width:0"
             d="m 4.53125,-4.984375 c 0,-0.65625 -0.171875,-2.046875 -1.1875,-2.046875 -1.390625,0 -2.921875,2.8125 -2.921875,5.09375 0,0.9375 0.28125,2.046875 1.1875,2.046875 1.40625,0 2.921875,-2.859375 2.921875,-5.09375 z M 1.46875,-3.625 C 1.640625,-4.25 1.84375,-5.046875 2.25,-5.765625 2.515625,-6.25 2.875,-6.8125 3.328125,-6.8125 c 0.484375,0 0.546875,0.640625 0.546875,1.203125 0,0.5 -0.078125,1 -0.3125,1.984375 z m 2,0.328125 C 3.359375,-2.84375 3.15625,-2 2.765625,-1.28125 c -0.34375,0.6875 -0.71875,1.171875 -1.15625,1.171875 -0.328125,0 -0.53125,-0.296875 -0.53125,-1.21875 0,-0.421875 0.0625,-1 0.3125,-1.96875 z m 0,0"
             id="id-20f459e9-2b14-49bd-b64f-dab9d36ab99a" />
        </symbol>
        <symbol
           overflow="visible"
           id="id-14cb43e5-d9b0-42ad-aad2-63e79be5c094">
          <path
             style="stroke:none;stroke-width:0"
             d=""
             id="id-bb15928e-2a31-464a-90e8-df0ea66964c0" />
        </symbol>
        <symbol
           overflow="visible"
           id="id-8f48514a-903a-46c1-803c-febd12ea92de">
          <path
             style="stroke:none;stroke-width:0"
             d="m 2.265625,-4.359375 c 0,-0.109375 -0.09375,-0.265625 -0.28125,-0.265625 -0.1875,0 -0.390625,0.1875 -0.390625,0.390625 0,0.109375 0.078125,0.265625 0.28125,0.265625 0.1875,0 0.390625,-0.203125 0.390625,-0.390625 z M 0.84375,-0.8125 c -0.03125,0.09375 -0.0625,0.171875 -0.0625,0.296875 0,0.328125 0.265625,0.578125 0.65625,0.578125 0.6875,0 1,-0.953125 1,-1.0625 0,-0.09375 -0.09375,-0.09375 -0.109375,-0.09375 -0.09375,0 -0.109375,0.046875 -0.140625,0.125 -0.15625,0.5625 -0.453125,0.84375 -0.734375,0.84375 -0.140625,0 -0.171875,-0.09375 -0.171875,-0.25 0,-0.15625 0.046875,-0.28125 0.109375,-0.4375 C 1.46875,-1 1.546875,-1.1875 1.609375,-1.375 1.671875,-1.546875 1.9375,-2.171875 1.953125,-2.265625 1.984375,-2.328125 2,-2.40625 2,-2.484375 2,-2.8125 1.71875,-3.078125 1.34375,-3.078125 0.640625,-3.078125 0.328125,-2.125 0.328125,-2 c 0,0.078125 0.09375,0.078125 0.125,0.078125 0.09375,0 0.09375,-0.03125 0.125,-0.109375 C 0.75,-2.625 1.0625,-2.875 1.3125,-2.875 c 0.109375,0 0.171875,0.046875 0.171875,0.234375 0,0.171875 -0.03125,0.265625 -0.203125,0.703125 z m 0,0"
             id="id-5eaaa4a3-3fc6-4742-8b1e-772ca1c82d01" />
        </symbol>
        <symbol
           overflow="visible"
           id="id-e415600d-daf6-4555-8256-75ab15fbb3ab">
          <path
             style="stroke:none;stroke-width:0"
             d=""
             id="id-6174825e-67af-41d2-9740-9f0b4b80900c" />
        </symbol>
        <symbol
           overflow="visible"
           id="id-63f6caa3-7b9d-4df9-bbd4-cc48da552c32">
          <path
             style="stroke:none;stroke-width:0"
             d="m 2.46875,0 v -0.3125 c -0.671875,0 -0.703125,-0.046875 -0.703125,-0.4375 V -4.40625 L 0.375,-4.296875 v 0.3125 c 0.640625,0 0.734375,0.0625 0.734375,0.546875 V -0.75 c 0,0.4375 -0.109375,0.4375 -0.78125,0.4375 V 0 l 1.09375,-0.03125 C 1.78125,-0.03125 2.125,-0.015625 2.46875,0 Z m -0.5625,-6.015625 c 0,-0.28125 -0.21875,-0.53125 -0.515625,-0.53125 -0.34375,0 -0.546875,0.28125 -0.546875,0.53125 C 0.84375,-5.75 1.078125,-5.5 1.375,-5.5 c 0.34375,0 0.53125,-0.265625 0.53125,-0.515625 z m 0,0"
             id="id-538b4635-f0f1-4ef8-8b2a-fd9445b63443" />
        </symbol>
        <symbol
           overflow="visible"
           id="id-fa10e8fc-a905-4d3c-80eb-29d0049c6e21">
          <path
             style="stroke:none;stroke-width:0"
             d="m 3.59375,-1.28125 c 0,-0.515625 -0.296875,-0.828125 -0.421875,-0.9375 C 2.84375,-2.546875 2.453125,-2.625 2.03125,-2.703125 1.46875,-2.8125 0.8125,-2.9375 0.8125,-3.515625 c 0,-0.359375 0.25,-0.765625 1.109375,-0.765625 1.09375,0 1.15625,0.90625 1.171875,1.203125 0,0.09375 0.109375,0.09375 0.109375,0.09375 0.140625,0 0.140625,-0.046875 0.140625,-0.234375 v -1.015625 c 0,-0.15625 0,-0.234375 -0.109375,-0.234375 -0.046875,0 -0.078125,0 -0.203125,0.125 -0.03125,0.03125 -0.125,0.125 -0.171875,0.15625 -0.375,-0.28125 -0.78125,-0.28125 -0.9375,-0.28125 -1.21875,0 -1.59375,0.671875 -1.59375,1.234375 0,0.34375 0.15625,0.625 0.421875,0.84375 0.328125,0.25 0.609375,0.3125 1.328125,0.453125 0.21875,0.046875 1.03125,0.203125 1.03125,0.921875 0,0.5 -0.34375,0.90625 -1.125,0.90625 -0.84375,0 -1.203125,-0.5625 -1.390625,-1.421875 C 0.5625,-1.65625 0.5625,-1.6875 0.453125,-1.6875 c -0.125,0 -0.125,0.0625 -0.125,0.234375 V -0.125 c 0,0.171875 0,0.234375 0.109375,0.234375 0.046875,0 0.0625,-0.015625 0.25,-0.203125 0.015625,-0.015625 0.015625,-0.03125 0.203125,-0.21875 0.4375,0.40625 0.890625,0.421875 1.09375,0.421875 1.140625,0 1.609375,-0.671875 1.609375,-1.390625 z m 0,0"
             id="id-42d29692-f939-4cb9-b0e0-d7d784d1feb6" />
        </symbol>
        <symbol
           overflow="visible"
           id="id-03eabe2a-b509-4a81-9e63-e85fbf892e66">
          <path
             style="stroke:none;stroke-width:0"
             d="m 3.3125,-1.234375 v -0.5625 h -0.25 V -1.25 c 0,0.734375 -0.296875,1.109375 -0.671875,1.109375 -0.671875,0 -0.671875,-0.90625 -0.671875,-1.078125 v -2.765625 h 1.4375 v -0.3125 H 1.71875 V -6.125 h -0.25 c 0,0.8125 -0.296875,1.875 -1.28125,1.921875 v 0.21875 h 0.84375 v 2.75 c 0,1.21875 0.9375,1.34375 1.296875,1.34375 0.703125,0 0.984375,-0.703125 0.984375,-1.34375 z m 0,0"
             id="id-17e3e62b-ecb7-4962-a6ab-7e0866e348c9" />
        </symbol>
        <symbol
           overflow="visible"
           id="id-e0fe7d43-5aa3-4605-9f34-8d5f042ee051">
          <path
             style="stroke:none;stroke-width:0"
             d="m 5.328125,0 v -0.3125 c -0.515625,0 -0.765625,0 -0.765625,-0.296875 v -1.90625 c 0,-0.859375 0,-1.15625 -0.3125,-1.515625 -0.140625,-0.171875 -0.46875,-0.375 -1.046875,-0.375 -0.84375,0 -1.28125,0.59375 -1.4375,0.953125 H 1.75 v -3.46875 L 0.3125,-6.8125 V -6.5 c 0.703125,0 0.78125,0.0625 0.78125,0.5625 V -0.75 c 0,0.4375 -0.109375,0.4375 -0.78125,0.4375 V 0 L 1.453125,-0.03125 2.5625,0 v -0.3125 c -0.671875,0 -0.78125,0 -0.78125,-0.4375 V -2.59375 C 1.78125,-3.625 2.5,-4.1875 3.125,-4.1875 c 0.640625,0 0.75,0.53125 0.75,1.109375 V -0.75 c 0,0.4375 -0.109375,0.4375 -0.78125,0.4375 V 0 l 1.125,-0.03125 z m 0,0"
             id="id-fda81fc7-0f46-4481-b524-3efcff097edf" />
        </symbol>
        <symbol
           overflow="visible"
           id="id-1f158856-0303-4321-afea-c89e720b8b4d">
          <path
             style="stroke:none;stroke-width:0"
             d="m 4.140625,-1.1875 c 0,-0.09375 -0.078125,-0.125 -0.140625,-0.125 -0.078125,0 -0.109375,0.0625 -0.125,0.140625 -0.34375,1.03125 -1.25,1.03125 -1.34375,1.03125 -0.5,0 -0.890625,-0.296875 -1.125,-0.671875 -0.296875,-0.46875 -0.296875,-1.125 -0.296875,-1.484375 h 2.78125 c 0.21875,0 0.25,0 0.25,-0.21875 0,-0.984375 -0.546875,-1.953125 -1.78125,-1.953125 -1.15625,0 -2.078125,1.03125 -2.078125,2.28125 0,1.328125 1.046875,2.296875 2.1875,2.296875 C 3.6875,0.109375 4.140625,-1 4.140625,-1.1875 Z m -0.65625,-1.328125 h -2.375 C 1.171875,-4 2.015625,-4.25 2.359375,-4.25 c 1.015625,0 1.125,1.34375 1.125,1.734375 z m 0,0"
             id="id-ff266d93-ab60-41d5-bb72-47e3445003ad" />
        </symbol>
        <symbol
           overflow="visible"
           id="id-b31b28e1-9881-4a79-b969-9bbc15a1c8da">
          <path
             style="stroke:none;stroke-width:0"
             d="m 4.8125,-0.890625 v -0.5625 h -0.25 v 0.5625 C 4.5625,-0.3125 4.3125,-0.25 4.203125,-0.25 3.875,-0.25 3.84375,-0.703125 3.84375,-0.75 v -1.984375 c 0,-0.421875 0,-0.8125 -0.359375,-1.1875 C 3.09375,-4.3125 2.59375,-4.46875 2.109375,-4.46875 c -0.8125,0 -1.5,0.46875 -1.5,1.125 0,0.296875 0.203125,0.46875 0.453125,0.46875 0.28125,0 0.46875,-0.203125 0.46875,-0.453125 0,-0.125 -0.0625,-0.453125 -0.515625,-0.453125 C 1.28125,-4.140625 1.78125,-4.25 2.09375,-4.25 c 0.484375,0 1.0625,0.390625 1.0625,1.28125 v 0.359375 C 2.640625,-2.578125 1.9375,-2.546875 1.3125,-2.25 c -0.75,0.34375 -1,0.859375 -1,1.296875 0,0.8125 0.96875,1.0625 1.59375,1.0625 0.671875,0 1.125,-0.40625 1.3125,-0.859375 0.046875,0.390625 0.3125,0.8125 0.78125,0.8125 0.203125,0 0.8125,-0.140625 0.8125,-0.953125 z m -1.65625,-0.5 c 0,0.9375 -0.71875,1.28125 -1.171875,1.28125 -0.484375,0 -0.890625,-0.34375 -0.890625,-0.84375 0,-0.546875 0.40625,-1.375 2.0625,-1.4375 z m 0,0"
             id="id-0596485a-18fd-4558-a32a-894a6a7b047e" />
        </symbol>
        <symbol
           overflow="visible"
           id="id-f7b7a357-406c-491d-8da0-799c1374bd42">
          <path
             style="stroke:none;stroke-width:0"
             d="m 5.328125,0 v -0.3125 c -0.515625,0 -0.765625,0 -0.765625,-0.296875 v -1.90625 c 0,-0.859375 0,-1.15625 -0.3125,-1.515625 -0.140625,-0.171875 -0.46875,-0.375 -1.046875,-0.375 C 2.46875,-4.40625 2,-3.984375 1.71875,-3.359375 V -4.40625 L 0.3125,-4.296875 v 0.3125 c 0.703125,0 0.78125,0.0625 0.78125,0.5625 V -0.75 c 0,0.4375 -0.109375,0.4375 -0.78125,0.4375 V 0 L 1.453125,-0.03125 2.5625,0 v -0.3125 c -0.671875,0 -0.78125,0 -0.78125,-0.4375 V -2.59375 C 1.78125,-3.625 2.5,-4.1875 3.125,-4.1875 c 0.640625,0 0.75,0.53125 0.75,1.109375 V -0.75 c 0,0.4375 -0.109375,0.4375 -0.78125,0.4375 V 0 l 1.125,-0.03125 z m 0,0"
             id="id-f8f84564-d3c6-491c-bff3-d72f9592c3a6" />
        </symbol>
        <symbol
           overflow="visible"
           id="id-3a335857-f1eb-4f2e-9b87-79b294f4baeb">
          <path
             style="stroke:none;stroke-width:0"
             d="m 4.828125,-4.03125 c 0,-0.171875 -0.109375,-0.484375 -0.5,-0.484375 -0.203125,0 -0.640625,0.0625 -1.0625,0.46875 C 2.84375,-4.375 2.4375,-4.40625 2.21875,-4.40625 c -0.9375,0 -1.625,0.6875 -1.625,1.453125 0,0.4375 0.21875,0.8125 0.46875,1.03125 -0.125,0.140625 -0.3125,0.46875 -0.3125,0.828125 0,0.3125 0.140625,0.6875 0.453125,0.890625 -0.609375,0.15625 -0.921875,0.59375 -0.921875,0.984375 0,0.71875 0.984375,1.265625 2.203125,1.265625 1.171875,0 2.203125,-0.5 2.203125,-1.28125 0,-0.34375 -0.125,-0.859375 -0.640625,-1.140625 -0.53125,-0.265625 -1.109375,-0.265625 -1.71875,-0.265625 -0.25,0 -0.671875,0 -0.75,-0.015625 C 1.265625,-0.703125 1.0625,-1 1.0625,-1.328125 c 0,-0.03125 0,-0.265625 0.15625,-0.46875 0.390625,0.28125 0.8125,0.3125 1,0.3125 0.921875,0 1.609375,-0.6875 1.609375,-1.453125 0,-0.375 -0.15625,-0.734375 -0.40625,-0.96875 C 3.78125,-4.25 4.140625,-4.296875 4.3125,-4.296875 c 0,0 0.078125,0 0.109375,0.015625 C 4.3125,-4.25 4.25,-4.140625 4.25,-4.015625 c 0,0.171875 0.140625,0.28125 0.296875,0.28125 0.09375,0 0.28125,-0.0625 0.28125,-0.296875 z m -1.75,1.078125 c 0,0.265625 0,0.59375 -0.15625,0.84375 C 2.84375,-2 2.609375,-1.71875 2.21875,-1.71875 c -0.875,0 -0.875,-1 -0.875,-1.21875 0,-0.265625 0.015625,-0.59375 0.15625,-0.84375 0.078125,-0.109375 0.3125,-0.390625 0.71875,-0.390625 0.859375,0 0.859375,0.984375 0.859375,1.21875 z m 1.09375,3.734375 c 0,0.546875 -0.703125,1.046875 -1.671875,1.046875 -1.015625,0 -1.703125,-0.515625 -1.703125,-1.046875 0,-0.453125 0.375,-0.828125 0.8125,-0.84375 h 0.59375 c 0.859375,0 1.96875,0 1.96875,0.84375 z m 0,0"
             id="id-ef45231d-33df-4872-8e07-ed19217368ce" />
        </symbol>
        <symbol
           overflow="visible"
           id="id-8eec50e9-25b3-4ff0-9a4c-1f3bab8b7247">
          <path
             style="stroke:none;stroke-width:0"
             d="m 2.546875,0 v -0.3125 c -0.671875,0 -0.78125,0 -0.78125,-0.4375 V -6.921875 L 0.328125,-6.8125 V -6.5 c 0.703125,0 0.78125,0.0625 0.78125,0.5625 V -0.75 c 0,0.4375 -0.109375,0.4375 -0.78125,0.4375 V 0 L 1.4375,-0.03125 Z m 0,0"
             id="id-72376dc0-a986-46de-8f90-1eda0b8ad624" />
        </symbol>
        <symbol
           overflow="visible"
           id="id-0d3aff69-6f41-4fd6-aa95-894a0d52b4ea">
          <path
             style="stroke:none;stroke-width:0"
             d="M 5.328125,0 V -0.3125 C 4.640625,-0.3125 4.5625,-0.375 4.5625,-0.875 v -3.53125 l -1.46875,0.109375 v 0.3125 c 0.6875,0 0.78125,0.0625 0.78125,0.5625 v 1.765625 c 0,0.875 -0.484375,1.546875 -1.21875,1.546875 -0.828125,0 -0.875,-0.46875 -0.875,-0.984375 v -3.3125 L 0.3125,-4.296875 v 0.3125 c 0.78125,0 0.78125,0.03125 0.78125,0.90625 v 1.5 c 0,0.78125 0,1.6875 1.515625,1.6875 0.5625,0 1,-0.28125 1.28125,-0.890625 v 0.890625 z m 0,0"
             id="id-6d597ba7-81c1-4343-bc7a-27919dafa8b7" />
        </symbol>
        <symbol
           overflow="visible"
           id="id-bbe7b083-2b5e-41da-8911-be93d9497aef">
          <path
             style="stroke:none;stroke-width:0"
             d="m 5.1875,-2.15625 c 0,-1.265625 -0.96875,-2.25 -2.109375,-2.25 -0.78125,0 -1.203125,0.46875 -1.359375,0.640625 v -3.15625 L 0.28125,-6.8125 V -6.5 c 0.703125,0 0.78125,0.0625 0.78125,0.5625 V 0 h 0.25 l 0.359375,-0.625 c 0.140625,0.234375 0.5625,0.734375 1.296875,0.734375 1.1875,0 2.21875,-0.984375 2.21875,-2.265625 z m -0.828125,0 c 0,0.359375 -0.015625,0.953125 -0.296875,1.40625 -0.21875,0.3125 -0.59375,0.640625 -1.125,0.640625 -0.453125,0 -0.8125,-0.234375 -1.046875,-0.609375 C 1.75,-0.921875 1.75,-0.953125 1.75,-1.140625 V -3.1875 c 0,-0.1875 0,-0.203125 0.109375,-0.359375 C 2.25,-4.109375 2.796875,-4.1875 3.03125,-4.1875 c 0.453125,0 0.8125,0.265625 1.046875,0.640625 0.265625,0.40625 0.28125,0.96875 0.28125,1.390625 z m 0,0"
             id="id-5662dfdf-4e05-400f-b472-ed9e9ada7150" />
        </symbol>
        <symbol
           overflow="visible"
           id="id-3ee5eefe-dabd-466b-ad7d-43ed5cd5a17c">
          <path
             style="stroke:none;stroke-width:0"
             d="m 5.25,0 v -0.3125 c -0.6875,0 -0.78125,-0.0625 -0.78125,-0.5625 V -6.921875 L 3.046875,-6.8125 V -6.5 c 0.6875,0 0.765625,0.0625 0.765625,0.5625 v 2.15625 c -0.28125,-0.359375 -0.71875,-0.625 -1.25,-0.625 -1.171875,0 -2.21875,0.984375 -2.21875,2.265625 0,1.265625 0.96875,2.25 2.109375,2.25 0.640625,0 1.078125,-0.34375 1.328125,-0.65625 v 0.65625 z M 3.78125,-1.171875 c 0,0.171875 0,0.1875 -0.109375,0.359375 C 3.375,-0.328125 2.9375,-0.109375 2.5,-0.109375 2.046875,-0.109375 1.6875,-0.375 1.453125,-0.75 1.203125,-1.15625 1.171875,-1.71875 1.171875,-2.140625 1.171875,-2.5 1.1875,-3.09375 1.46875,-3.546875 1.6875,-3.859375 2.0625,-4.1875 2.609375,-4.1875 c 0.34375,0 0.765625,0.15625 1.0625,0.59375 0.109375,0.171875 0.109375,0.1875 0.109375,0.375 z m 0,0"
             id="id-f4eae26d-bdfc-4597-9012-a195cfd5d136" />
        </symbol>
        <symbol
           overflow="visible"
           id="id-ad5116eb-28e2-4584-9e21-979129d0f50e">
          <path
             style="stroke:none;stroke-width:0"
             d="m 5.0625,-3.984375 v -0.3125 c -0.234375,0.015625 -0.515625,0.03125 -0.75,0.03125 l -0.859375,-0.03125 v 0.3125 c 0.3125,0 0.46875,0.171875 0.46875,0.421875 0,0.109375 -0.015625,0.125 -0.0625,0.25 L 2.84375,-0.875 1.75,-3.546875 C 1.703125,-3.65625 1.6875,-3.6875 1.6875,-3.734375 c 0,-0.25 0.359375,-0.25 0.5625,-0.25 v -0.3125 l -1.09375,0.03125 c -0.265625,0 -0.671875,-0.015625 -0.96875,-0.03125 v 0.3125 c 0.484375,0 0.671875,0 0.8125,0.34375 L 2.5,0 2.25,0.59375 c -0.21875,0.546875 -0.5,1.234375 -1.140625,1.234375 -0.046875,0 -0.28125,0 -0.46875,-0.1875 0.3125,-0.03125 0.390625,-0.25 0.390625,-0.421875 0,-0.25 -0.1875,-0.40625 -0.421875,-0.40625 -0.203125,0 -0.421875,0.125 -0.421875,0.421875 0,0.453125 0.421875,0.8125 0.921875,0.8125 0.625,0 1.03125,-0.578125 1.265625,-1.140625 l 1.765625,-4.25 c 0.25,-0.640625 0.765625,-0.640625 0.921875,-0.640625 z m 0,0"
             id="id-5318f366-e0b8-45d0-bca3-35594682c100" />
        </symbol>
        <symbol
           overflow="visible"
           id="id-ba296817-b564-44b6-9f8e-17657fb44337">
          <path
             style="stroke:none;stroke-width:0"
             d="m 8.109375,0 v -0.3125 c -0.515625,0 -0.765625,0 -0.78125,-0.296875 v -1.90625 c 0,-0.859375 0,-1.15625 -0.3125,-1.515625 -0.140625,-0.171875 -0.46875,-0.375 -1.046875,-0.375 -0.828125,0 -1.28125,0.59375 -1.4375,0.984375 C 4.390625,-4.296875 3.65625,-4.40625 3.203125,-4.40625 2.46875,-4.40625 2,-3.984375 1.71875,-3.359375 V -4.40625 L 0.3125,-4.296875 v 0.3125 c 0.703125,0 0.78125,0.0625 0.78125,0.5625 V -0.75 c 0,0.4375 -0.109375,0.4375 -0.78125,0.4375 V 0 L 1.453125,-0.03125 2.5625,0 v -0.3125 c -0.671875,0 -0.78125,0 -0.78125,-0.4375 V -2.59375 C 1.78125,-3.625 2.5,-4.1875 3.125,-4.1875 c 0.640625,0 0.75,0.53125 0.75,1.109375 V -0.75 c 0,0.4375 -0.109375,0.4375 -0.78125,0.4375 V 0 L 4.21875,-0.03125 5.328125,0 v -0.3125 c -0.65625,0 -0.765625,0 -0.765625,-0.4375 v -1.84375 c 0,-1.03125 0.703125,-1.59375 1.34375,-1.59375 0.625,0 0.734375,0.53125 0.734375,1.109375 V -0.75 c 0,0.4375 -0.109375,0.4375 -0.78125,0.4375 V 0 l 1.125,-0.03125 z m 0,0"
             id="id-f551c53a-f543-4905-aba4-82fe06df30b0" />
        </symbol>
      </g>
    </defs>
  </defs>
  <sodipodi:namedview
     id="base"
     pagecolor="#ffffff"
     bordercolor="#666666"
     borderopacity="1.0"
     inkscape:pageopacity="0.0"
     inkscape:pageshadow="2"
     inkscape:zoom="1.557086"
     inkscape:cx="95.784106"
     inkscape:cy="-15.736731"
     inkscape:document-units="mm"
     inkscape:current-layer="layer1"
     inkscape:document-rotation="0"
     showgrid="false"
     fit-margin-top="0"
     fit-margin-left="0"
     fit-margin-right="0"
     fit-margin-bottom="0" />
  <metadata
     id="metadata14495">
    <rdf:RDF>
      <cc:Work
         rdf:about="">
        <dc:format>image/svg+xml</dc:format>
        <dc:type
           rdf:resource="http://purl.org/dc/dcmitype/StillImage" />
        <dc:title></dc:title>
      </cc:Work>
    </rdf:RDF>
  </metadata>
  <g
     inkscape:label="Layer 1"
     inkscape:groupmode="layer"
     id="layer1"
     transform="translate(-41.273686,-70.4333)">
    <g
       id="g889"
       transform="matrix(0.35277777,0,0,-0.35277777,50.647703,96.216594)">
      <path
         d="m 0,0 c 0.005,-2.027 -1.631,-3.781 -3.653,-3.916 -2.023,-0.136 -3.666,1.396 -3.672,3.424 -0.005,2.027 1.63,3.781 3.653,3.916 C -1.65,3.561 -0.006,2.028 0,0"
         style="fill:#434343;fill-opacity:1;fill-rule:nonzero;stroke:none"
         id="path891" />
    </g>
    <g
       id="g893"
       transform="matrix(0.35277777,0,0,-0.35277777,50.647703,96.216594)"
       style="fill:#ff0000;fill-opacity:1;stroke:#000000;stroke-width:1.05;stroke-miterlimit:4.46154;stroke-dasharray:none;stroke-opacity:1">
      <path
         d="m 0,0 c 0.005,-2.027 -1.631,-3.781 -3.653,-3.916 -2.023,-0.136 -3.666,1.396 -3.672,3.424 -0.005,2.027 1.63,3.781 3.653,3.916 C -1.65,3.561 -0.006,2.028 0,0"
         style="fill:#ff0000;fill-opacity:1;stroke:#000000;stroke-width:1.05;stroke-linecap:round;stroke-linejoin:round;stroke-miterlimit:4.46154;stroke-dasharray:none;stroke-opacity:1"
         id="path895" />
    </g>
    <g
       id="g897"
       transform="matrix(0.35277777,0,0,-0.35277777,44.042644,96.155211)">
      <path
         d="m 0,0 c 0.005,-2.027 -1.63,-3.78 -3.652,-3.916 -2.023,-0.136 -3.667,1.397 -3.672,3.424 -0.006,2.027 1.63,3.78 3.652,3.917 C -1.649,3.56 -0.005,2.028 0,0"
         style="fill:#434343;fill-opacity:1;fill-rule:nonzero;stroke:none"
         id="path899" />
    </g>
    <path
       d="m 44.042644,96.155211 c 0.0018,0.715081 -0.575027,1.3335 -1.288344,1.381478 -0.713669,0.04798 -1.293636,-0.492831 -1.2954,-1.207911 -0.0021,-0.715081 0.575028,-1.3335 1.288345,-1.381831 0.713669,-0.04762 1.293636,0.492831 1.295399,1.208264"
       style="fill:#ff0000;fill-opacity:1;stroke:#000000;stroke-width:0.370417;stroke-linecap:round;stroke-linejoin:round;stroke-miterlimit:4.46154;stroke-dasharray:none;stroke-opacity:1"
       id="path903" />
    <g
       id="g905"
       transform="matrix(0.35277777,0,0,-0.35277777,44.053581,99.338325)">
      <path
         d="M 0,0 H 11.36"
         style="fill:none;stroke:#000000;stroke-width:0.473;stroke-linecap:round;stroke-linejoin:round;stroke-miterlimit:10;stroke-dasharray:none;stroke-opacity:1"
         id="path907" />
    </g>
    <g
       id="g909"
       transform="matrix(0.35277777,0,0,-0.35277777,48.061136,99.338325)">
      <path
         d="M 0,0 H 3.787"
         style="fill:none;stroke:#000000;stroke-width:0.473;stroke-linecap:butt;stroke-linejoin:miter;stroke-miterlimit:10;stroke-dasharray:none;stroke-opacity:1"
         id="path911" />
      <g
         id="g913"
         transform="translate(3.787,-2.367)">
        <path
           d="M 0,0 V 4.734"
           style="fill:none;stroke:#000000;stroke-width:0.473;stroke-linecap:butt;stroke-linejoin:miter;stroke-miterlimit:10;stroke-dasharray:none;stroke-opacity:1"
           id="path915" />
        <g
           id="g917"
           transform="translate(-3.787,1.42)">
          <path
             d="M 0,0 3.314,0.947 0,1.894"
             style="fill:none;stroke:#000000;stroke-width:0.473;stroke-linecap:butt;stroke-linejoin:miter;stroke-miterlimit:10;stroke-dasharray:none;stroke-opacity:1"
             id="path919" />
          <g
             id="g921"
             transform="translate(-11.36,0.947)">
            <path
               d="M 0,0 H -3.787"
               style="fill:none;stroke:#000000;stroke-width:0.473;stroke-linecap:butt;stroke-linejoin:miter;stroke-miterlimit:10;stroke-dasharray:none;stroke-opacity:1"
               id="path923" />
            <g
               id="g925"
               transform="translate(-3.787,2.367)">
              <path
                 d="M 0,0 V -4.734"
                 style="fill:none;stroke:#000000;stroke-width:0.473;stroke-linecap:butt;stroke-linejoin:miter;stroke-miterlimit:10;stroke-dasharray:none;stroke-opacity:1"
                 id="path927" />
              <g
                 id="g929"
                 transform="translate(3.787,-1.42)">
                <path
                   d="M 0,0 -3.314,-0.947 0,-1.894"
                   style="fill:none;stroke:#000000;stroke-width:0.473;stroke-linecap:butt;stroke-linejoin:miter;stroke-miterlimit:10;stroke-dasharray:none;stroke-opacity:1"
                   id="path931" />
              </g>
            </g>
          </g>
        </g>
      </g>
    </g>
    <text
       style="font-style:italic;font-variant:normal;font-weight:500;font-stretch:normal;font-size:3.32733px;font-family:'CMU Serif';-inkscape-font-specification:'CMU Serif, Medium Italic';font-variant-ligatures:normal;font-variant-caps:normal;font-variant-numeric:normal;font-variant-east-asian:normal;writing-mode:lr-tb;fill:#000000;fill-opacity:1;fill-rule:nonzero;stroke:none;stroke-width:0.352778"
       id="text941"
       x="44.825813"
       y="102.61244"><tspan
         x="44.825813"
         y="102.61244"
         id="tspan939"
         style="font-style:italic;font-variant:normal;font-weight:500;font-stretch:normal;font-size:3.32733px;font-family:'CMU Serif';-inkscape-font-specification:'CMU Serif, Medium Italic';font-variant-ligatures:normal;font-variant-caps:normal;font-variant-numeric:normal;font-variant-east-asian:normal;stroke-width:0.352778">d</tspan></text>
    <text
       style="font-style:italic;font-variant:normal;font-weight:500;font-stretch:normal;font-size:2.32911px;font-family:'CMU Serif';-inkscape-font-specification:'CMU Serif, Medium Italic';font-variant-ligatures:normal;font-variant-caps:normal;font-variant-numeric:normal;font-variant-east-asian:normal;writing-mode:lr-tb;fill:#000000;fill-opacity:1;fill-rule:nonzero;stroke:none;stroke-width:0.352778"
       id="text945"
       x="46.557598"
       y="103.11163"><tspan
         x="46.557598"
         y="103.11163"
         id="tspan943"
         style="font-style:italic;font-variant:normal;font-weight:500;font-stretch:normal;font-size:2.32911px;font-family:'CMU Serif';-inkscape-font-specification:'CMU Serif, Medium Italic';font-variant-ligatures:normal;font-variant-caps:normal;font-variant-numeric:normal;font-variant-east-asian:normal;stroke-width:0.352778">t</tspan></text>
    <g
       id="g971"
       transform="matrix(-0.35277777,0,0,0.35277777,46.979159,94.426911)">
      <path
         d="M 0,0 -25.01,-48.998"
         style="fill:none;stroke:#000000;stroke-width:0.947;stroke-linecap:round;stroke-linejoin:round;stroke-miterlimit:10;stroke-dasharray:none;stroke-opacity:1"
         id="path973" />
    </g>
    <g
       id="g975"
       transform="matrix(-0.35277777,0,0,0.35277777,56.726643,75.64702)">
      <path
         d="M 0,0 3.584,3.273 0.548,4.823 Z"
         style="fill:none;stroke:#000000;stroke-width:0.947;stroke-linecap:butt;stroke-linejoin:miter;stroke-miterlimit:10;stroke-dasharray:none;stroke-opacity:1"
         id="path977" />
    </g>
    <g
       id="g979"
       transform="matrix(-0.35277777,0,0,0.35277777,60.616493,84.824976)">
      <path
         d="M 0,0 43.858,-23.309"
         style="fill:none;stroke:#000000;stroke-width:0.473;stroke-linecap:round;stroke-linejoin:round;stroke-miterlimit:10;stroke-dasharray:none;stroke-opacity:1"
         id="path981" />
      <g
         id="g983"
         transform="translate(2.289,4.249)">
        <path
           d="M 0,0 43.858,-23.308"
           style="fill:none;stroke:#000000;stroke-width:0.473;stroke-linecap:round;stroke-linejoin:round;stroke-miterlimit:10;stroke-dasharray:none;stroke-opacity:1"
           id="path985" />
        <g
           id="g987"
           transform="translate(2.289,4.251)">
          <path
             d="M 0,0 43.858,-23.309"
             style="fill:none;stroke:#000000;stroke-width:0.473;stroke-linecap:round;stroke-linejoin:round;stroke-miterlimit:10;stroke-dasharray:none;stroke-opacity:1"
             id="path989" />
          <g
             id="g991"
             transform="translate(2.29,4.25)">
            <path
               d="M 0,0 43.857,-23.309"
               style="fill:none;stroke:#000000;stroke-width:0.473;stroke-linecap:round;stroke-linejoin:round;stroke-miterlimit:10;stroke-dasharray:none;stroke-opacity:1"
               id="path993" />
            <g
               id="g995"
               transform="translate(2.289,4.25)">
              <path
                 d="M 0,0 43.858,-23.308"
                 style="fill:none;stroke:#000000;stroke-width:0.473;stroke-linecap:round;stroke-linejoin:round;stroke-miterlimit:10;stroke-dasharray:none;stroke-opacity:1"
                 id="path997" />
            </g>
          </g>
        </g>
      </g>
    </g>
    <text
       style="font-style:italic;font-variant:normal;font-weight:normal;font-size:3.99277px;font-family:CMMI10;-inkscape-font-specification:CMMI10;writing-mode:lr-tb;fill:#000000;fill-opacity:1;fill-rule:nonzero;stroke:none;stroke-width:0.352778"
       id="text1001"
       x="53.313644"
       y="93.84063"><tspan
         x="53.313644"
         y="93.84063"
         id="tspan999"
         style="stroke-width:0.352778">θ</tspan></text>
    <g
       id="g1003"
       transform="matrix(0.35277777,0,0,-0.35277777,49.455667,90.738308)">
      <path
         d="M 0,0 C 6.2357512,-2.757229 8.5774646,-7.2148135 9.174,-13.964"
         style="fill:none;stroke:#000000;stroke-width:0.473;stroke-linecap:round;stroke-linejoin:round;stroke-miterlimit:10;stroke-dasharray:none;stroke-opacity:1"
         id="path1005"
         sodipodi:nodetypes="cc" />
    </g>
    <g
       id="g19936"
       transform="translate(80.033314,-24.638706)">
      <path
         d="m 35.159633,110.90555 c 5.543197,5.54285 5.543197,14.53057 0,20.07341 -5.543197,5.5432 -14.530563,5.5432 -20.073761,0 -5.5431966,-5.54284 -5.5431966,-14.53056 0,-20.07341 5.543198,-5.54355 14.530564,-5.54355 20.073761,0"
         style="fill:none;stroke:#949494;stroke-width:0.325702;stroke-linecap:round;stroke-linejoin:round;stroke-miterlimit:10;stroke-dasharray:0.325702, 1.30281;stroke-dashoffset:0;stroke-opacity:1"
         id="path887" />
      <g
         id="g1011"
         transform="matrix(0.35277777,0,0,-0.35277777,26.447786,135.01932)">
        <path
           d="m 0,0 c 0.006,-2.027 -1.629,-3.781 -3.652,-3.917 -2.022,-0.136 -3.666,1.397 -3.671,3.425 -0.006,2.026 1.629,3.78 3.652,3.916 C -1.649,3.56 -0.005,2.027 0,0"
           style="fill:#434343;fill-opacity:1;fill-rule:nonzero;stroke:none"
           id="path1013" />
      </g>
      <g
         id="g1015"
         transform="matrix(0.35277777,0,0,-0.35277777,26.447786,135.01932)"
         style="fill:#ff0000;fill-opacity:1;stroke:#000000;stroke-width:1.05;stroke-miterlimit:4.46154;stroke-dasharray:none;stroke-opacity:1">
        <path
           d="m 0,0 c 0.006,-2.027 -1.629,-3.781 -3.652,-3.917 -2.022,-0.136 -3.666,1.397 -3.671,3.425 -0.006,2.026 1.629,3.78 3.652,3.916 C -1.649,3.56 -0.005,2.027 0,0"
           style="fill:#ff0000;fill-opacity:1;stroke:#000000;stroke-width:1.05;stroke-linecap:round;stroke-linejoin:round;stroke-miterlimit:4.46154;stroke-dasharray:none;stroke-opacity:1"
           id="path1017" />
      </g>
      <g
         id="g1019"
         transform="matrix(0.35277777,0,0,-0.35277777,38.182939,96.537266)">
        <path
           d="M 0,0 -33.843,-65.112"
           style="fill:none;stroke:#000000;stroke-width:0.947;stroke-linecap:round;stroke-linejoin:round;stroke-miterlimit:10;stroke-dasharray:none;stroke-opacity:1"
           id="path1021" />
      </g>
      <g
         id="g1023"
         transform="matrix(0.35277777,0,0,-0.35277777,25.504106,120.92973)">
        <path
           d="M 0,0 3.608,3.246 0.584,4.818 Z"
           style="fill:none;stroke:#000000;stroke-width:0.947;stroke-linecap:butt;stroke-linejoin:miter;stroke-miterlimit:10;stroke-dasharray:none;stroke-opacity:1"
           id="path1025" />
      </g>
      <g
         id="g1027"
         transform="matrix(0.35277777,0,0,-0.35277777,25.8082,101.15266)">
        <path
           d="M 0,0 43.858,-23.309"
           style="fill:none;stroke:#000000;stroke-width:0.473;stroke-linecap:round;stroke-linejoin:round;stroke-miterlimit:10;stroke-dasharray:none;stroke-opacity:1"
           id="path1029" />
        <g
           id="g1031"
           transform="translate(2.29,4.25)">
          <path
             d="M 0,0 43.857,-23.308"
             style="fill:none;stroke:#000000;stroke-width:0.473;stroke-linecap:round;stroke-linejoin:round;stroke-miterlimit:10;stroke-dasharray:none;stroke-opacity:1"
             id="path1033" />
          <g
             id="g1035"
             transform="translate(2.289,4.25)">
            <path
               d="M 0,0 43.858,-23.309"
               style="fill:none;stroke:#000000;stroke-width:0.473;stroke-linecap:round;stroke-linejoin:round;stroke-miterlimit:10;stroke-dasharray:none;stroke-opacity:1"
               id="path1037" />
            <g
               id="g1039"
               transform="translate(2.289,4.25)">
              <path
                 d="M 0,0 43.858,-23.309"
                 style="fill:none;stroke:#000000;stroke-width:0.473;stroke-linecap:round;stroke-linejoin:round;stroke-miterlimit:10;stroke-dasharray:none;stroke-opacity:1"
                 id="path1041" />
              <g
                 id="g1043"
                 transform="translate(2.29,4.25)">
                <path
                   d="M 0,0 43.857,-23.308"
                   style="fill:none;stroke:#000000;stroke-width:0.473;stroke-linecap:round;stroke-linejoin:round;stroke-miterlimit:10;stroke-dasharray:none;stroke-opacity:1"
                   id="path1045" />
              </g>
            </g>
          </g>
        </g>
      </g>
      <text
         style="font-style:italic;font-variant:normal;font-weight:normal;font-size:3.99277px;font-family:CMMI10;-inkscape-font-specification:CMMI10;writing-mode:lr-tb;fill:#000000;fill-opacity:1;fill-rule:nonzero;stroke:none;stroke-width:0.352778"
         id="text1049"
         x="32.722298"
         y="118.61656"><tspan
           x="32.722298"
           y="118.61656"
           id="tspan1047"
           style="stroke-width:0.352778">θ</tspan></text>
      <g
         id="g1051"
         transform="matrix(0.35277777,0,0,-0.35277777,28.982494,115.407)">
        <path
           d="M 0,0 C 7.8617775,-4.2241072 8.6990418,-6.4003201 9.174,-13.965"
           style="fill:none;stroke:#000000;stroke-width:0.473;stroke-linecap:round;stroke-linejoin:round;stroke-miterlimit:10;stroke-dasharray:none;stroke-opacity:1"
           id="path1053"
           sodipodi:nodetypes="cc" />
      </g>
      <g
         id="g1063"
         transform="matrix(0.35277777,0,0,-0.35277777,12.245306,120.8553)">
        <path
           d="m 0,0 c 0.006,-2.027 -1.63,-3.781 -3.652,-3.917 -2.022,-0.136 -3.666,1.397 -3.672,3.424 -0.005,2.027 1.63,3.781 3.652,3.917 C -1.649,3.56 -0.005,2.027 0,0"
           style="fill:#434343;fill-opacity:1;fill-rule:nonzero;stroke:none"
           id="path1065" />
      </g>
      <g
         id="g1067"
         transform="matrix(0.35277777,0,0,-0.35277777,12.245306,120.8553)"
         style="fill:#ff0000;fill-opacity:1;stroke:#000000;stroke-width:1.05;stroke-miterlimit:4.46154;stroke-dasharray:none;stroke-opacity:1">
        <path
           d="m 0,0 c 0.006,-2.027 -1.63,-3.781 -3.652,-3.917 -2.022,-0.136 -3.666,1.397 -3.672,3.424 -0.005,2.027 1.63,3.781 3.652,3.917 C -1.649,3.56 -0.005,2.027 0,0"
           style="fill:#ff0000;fill-opacity:1;stroke:#000000;stroke-width:1.05;stroke-linecap:round;stroke-linejoin:round;stroke-miterlimit:4.46154;stroke-dasharray:none;stroke-opacity:1"
           id="path1069" />
      </g>
      <g
         id="g1071"
         transform="matrix(0.35277777,0,0,-0.35277777,26.900047,106.67998)">
        <path
           d="m 0,0 c 0.005,-2.027 -1.63,-3.78 -3.653,-3.917 -2.022,-0.136 -3.666,1.397 -3.671,3.425 -0.006,2.026 1.629,3.78 3.652,3.916 C -1.65,3.56 -0.006,2.027 0,0"
           style="fill:#434343;fill-opacity:1;fill-rule:nonzero;stroke:none"
           id="path1073" />
      </g>
      <g
         id="g1075"
         transform="matrix(0.35277777,0,0,-0.35277777,26.900047,106.67998)"
         style="fill:#ff0000;fill-opacity:1;stroke:#000000;stroke-width:1.05;stroke-miterlimit:4.46154;stroke-dasharray:none;stroke-opacity:1">
        <path
           d="m 0,0 c 0.005,-2.027 -1.63,-3.78 -3.653,-3.917 -2.022,-0.136 -3.666,1.397 -3.671,3.425 -0.006,2.026 1.629,3.78 3.652,3.916 C -1.65,3.56 -0.006,2.027 0,0"
           style="fill:#ff0000;fill-opacity:1;stroke:#000000;stroke-width:1.05;stroke-linecap:round;stroke-linejoin:round;stroke-miterlimit:4.46154;stroke-dasharray:none;stroke-opacity:1"
           id="path1077" />
      </g>
      <path
         d="m 25.658622,121.13928 13.673314,-0.0543"
         style="fill:none;stroke:#000000;stroke-width:0.166864;stroke-linecap:round;stroke-linejoin:round;stroke-miterlimit:10;stroke-dasharray:0.166991, 0.50098;stroke-dashoffset:0;stroke-opacity:1"
         id="path1103" />
      <g
         id="g1105"
         transform="matrix(0.35277777,0,0,-0.35277777,40.650619,121.02216)">
        <path
           d="m 0,0 c 0.005,-2.028 -1.63,-3.781 -3.652,-3.917 -2.023,-0.136 -3.667,1.397 -3.672,3.424 -0.006,2.027 1.63,3.781 3.652,3.917 C -1.649,3.56 -0.006,2.027 0,0"
           style="fill:#434343;fill-opacity:1;fill-rule:nonzero;stroke:none"
           id="path1107" />
      </g>
      <g
         id="g1109"
         transform="matrix(0.35277777,0,0,-0.35277777,40.650619,121.02216)"
         style="fill:#ff0000;fill-opacity:1;stroke:#000000;stroke-width:1.05;stroke-miterlimit:4.46154;stroke-dasharray:none;stroke-opacity:1">
        <path
           d="m 0,0 c 0.005,-2.028 -1.63,-3.781 -3.652,-3.917 -2.023,-0.136 -3.667,1.397 -3.672,3.424 -0.006,2.027 1.63,3.781 3.652,3.917 C -1.649,3.56 -0.006,2.027 0,0"
           style="fill:#ff0000;fill-opacity:1;stroke:#000000;stroke-width:1.05;stroke-linecap:round;stroke-linejoin:round;stroke-miterlimit:4.46154;stroke-dasharray:none;stroke-opacity:1"
           id="path1111" />
      </g>
      <text
         style="font-style:italic;font-variant:normal;font-weight:500;font-stretch:normal;font-size:3.99277px;font-family:'CMU Serif';-inkscape-font-specification:'CMU Serif, Medium Italic';font-variant-ligatures:normal;font-variant-caps:normal;font-variant-numeric:normal;font-variant-east-asian:normal;writing-mode:lr-tb;fill:#000000;fill-opacity:1;fill-rule:nonzero;stroke:none;stroke-width:0.352778"
         id="text1115"
         x="26.761055"
         y="123.52617"><tspan
           x="26.761055"
           y="123.52617"
           id="tspan1113"
           style="font-style:italic;font-variant:normal;font-weight:500;font-stretch:normal;font-size:3.99277px;font-family:'CMU Serif';-inkscape-font-specification:'CMU Serif, Medium Italic';font-variant-ligatures:normal;font-variant-caps:normal;font-variant-numeric:normal;font-variant-east-asian:normal;stroke-width:0.352778">r</tspan></text>
      <text
         style="font-style:normal;font-variant:normal;font-weight:500;font-stretch:normal;font-size:1.9964px;font-family:'CMU Serif';-inkscape-font-specification:'CMU Serif, Medium';font-variant-ligatures:normal;font-variant-caps:normal;font-variant-numeric:normal;font-variant-east-asian:normal;writing-mode:lr-tb;fill:#000000;fill-opacity:1;fill-rule:nonzero;stroke:none;stroke-width:0.352778"
         id="text1119"
         x="28.562332"
         y="124.12555"><tspan
           x="28.562332 30.018112 31.374069"
           y="124.12555"
           sodipodi:role="line"
           id="tspan1117"
           style="stroke-width:0.352778">UCA</tspan></text>
    </g>
  </g>
</svg>
