<?xml version="1.0" encoding="UTF-8" standalone="no"?>
<svg
   xmlns:ns1="http://www.iki.fi/pav/software/textext/"
   xmlns:dc="http://purl.org/dc/elements/1.1/"
   xmlns:cc="http://creativecommons.org/ns#"
   xmlns:rdf="http://www.w3.org/1999/02/22-rdf-syntax-ns#"
   xmlns:svg="http://www.w3.org/2000/svg"
   xmlns="http://www.w3.org/2000/svg"
   xmlns:sodipodi="http://sodipodi.sourceforge.net/DTD/sodipodi-0.dtd"
   xmlns:inkscape="http://www.inkscape.org/namespaces/inkscape"
   width="522.0625mm"
   height="215.41396mm"
   viewBox="0 0 522.0625 215.41395"
   version="1.1"
   id="svg67065"
   sodipodi:docname="ground place.svg"
   inkscape:version="1.0.2 (e86c8708, 2021-01-15)">
  <defs
     id="defs67059">
    <marker
       style="overflow:visible"
       id="Arrow2Lend"
       refX="0"
       refY="0"
       orient="auto"
       inkscape:stockid="Arrow2Lend"
       inkscape:isstock="true">
      <path
         transform="matrix(-1.1,0,0,-1.1,-1.1,0)"
         d="M 8.7185878,4.0337352 -2.2072895,0.01601326 8.7185884,-4.0017078 c -1.7454984,2.3720609 -1.7354408,5.6174519 -6e-7,8.035443 z"
         style="fill:#000000;fill-opacity:1;fill-rule:evenodd;stroke:#000000;stroke-width:0.625;stroke-linejoin:round;stroke-opacity:1"
         id="path44894" />
    </marker>
    <marker
       style="overflow:visible"
       id="Arrow2Lstart"
       refX="0"
       refY="0"
       orient="auto"
       inkscape:stockid="Arrow2Lstart"
       inkscape:isstock="true">
      <path
         transform="matrix(1.1,0,0,1.1,1.1,0)"
         d="M 8.7185878,4.0337352 -2.2072895,0.01601326 8.7185884,-4.0017078 c -1.7454984,2.3720609 -1.7354408,5.6174519 -6e-7,8.035443 z"
         style="fill:#ff3d00;fill-opacity:1;fill-rule:evenodd;stroke:#000000;stroke-width:0.625;stroke-linejoin:round;stroke-opacity:1"
         id="path44891" />
    </marker>
    <inkscape:perspective
       sodipodi:type="inkscape:persp3d"
       inkscape:vp_x="75.7132 : 380.59399 : 1"
       inkscape:vp_y="999.99995 : 0 : 0"
       inkscape:vp_z="120.02096 : 12.888409 : 1"
       inkscape:persp3d-origin="38.228862 : 259.07246 : 1"
       id="perspective67682" />
    <marker
       inkscape:stockid="DimmArrow_Start_n00001"
       orient="auto"
       refY="0"
       refX="0"
       id="DimmArrow_Start_n00001"
       style="overflow:visible">
      <path
         d="m 0,0 -5,0.881635 v -1.76327 z"
         style="fill:#000000;fill-rule:evenodd;stroke:none;stroke-width:1"
         transform="matrix(-2,0,0,-2,-10,0)"
         id="path68921" />
    </marker>
    <marker
       inkscape:stockid="DimmArrow_End_n00001"
       orient="auto"
       refY="0"
       refX="0"
       id="DimmArrow_End_n00001"
       style="overflow:visible">
      <path
         d="m 0,0 -5,0.881635 v -1.76327 z"
         style="fill:#000000;fill-rule:evenodd;stroke:none;stroke-width:1"
         transform="matrix(2,0,0,2,10,0)"
         id="path68924" />
    </marker>
    <marker
       inkscape:stockid="DimmArrow_Start_n00001"
       orient="auto"
       refY="0"
       refX="0"
       id="DimmArrow_Start_n00001-7"
       style="overflow:visible">
      <path
         d="m 0,0 -5,0.881635 v -1.76327 z"
         style="fill:#000000;fill-rule:evenodd;stroke:none;stroke-width:1"
         transform="matrix(-2,0,0,-2,-10,0)"
         id="path66405" />
    </marker>
    <marker
       inkscape:stockid="DimmArrow_End_n00001"
       orient="auto"
       refY="0"
       refX="0"
       id="DimmArrow_End_n00001-6"
       style="overflow:visible">
      <path
         d="m 0,0 -5,0.881635 v -1.76327 z"
         style="fill:#000000;fill-rule:evenodd;stroke:none;stroke-width:1"
         transform="matrix(2,0,0,2,10,0)"
         id="path66408" />
    </marker>
    <g
       id="id-6f1991d2-c4a6-4741-bafe-10eb013653aa">
      <symbol
         overflow="visible"
         id="id-24497afe-f57d-47aa-a426-72ae696fe7b1">
        <path
           style="stroke:none;stroke-width:0"
           d=""
           id="id-0a7bc575-c05f-4ae8-8087-c84b4f92f65d" />
      </symbol>
      <symbol
         overflow="visible"
         id="id-a45b0b96-aa96-4e8d-8e31-a9db8ab5190d">
        <path
           style="stroke:none;stroke-width:0"
           d="m 0.875,-0.59375 c -0.03125,0.15625 -0.09375,0.390625 -0.09375,0.4375 0,0.171875 0.140625,0.265625 0.296875,0.265625 0.125,0 0.296875,-0.078125 0.375,-0.28125 C 1.46875,-0.203125 1.796875,-1.5625 1.84375,-1.75 c 0.078125,-0.328125 0.265625,-1.015625 0.3125,-1.296875 0.046875,-0.125 0.328125,-0.59375 0.5625,-0.8125 0.078125,-0.0625 0.375,-0.328125 0.796875,-0.328125 0.265625,0 0.40625,0.125 0.421875,0.125 -0.296875,0.046875 -0.515625,0.28125 -0.515625,0.546875 0,0.15625 0.109375,0.34375 0.375,0.34375 0.265625,0 0.546875,-0.234375 0.546875,-0.59375 0,-0.34375 -0.3125,-0.640625 -0.828125,-0.640625 C 2.875,-4.40625 2.4375,-3.921875 2.25,-3.640625 2.15625,-4.09375 1.796875,-4.40625 1.328125,-4.40625 0.875,-4.40625 0.6875,-4.015625 0.59375,-3.84375 0.421875,-3.5 0.296875,-2.90625 0.296875,-2.875 c 0,0.109375 0.09375,0.109375 0.109375,0.109375 0.109375,0 0.109375,-0.015625 0.171875,-0.234375 0.171875,-0.703125 0.375,-1.1875 0.734375,-1.1875 0.15625,0 0.296875,0.078125 0.296875,0.453125 0,0.21875 -0.03125,0.328125 -0.15625,0.84375 z m 0,0"
           id="id-2f7596ac-0151-4015-b03e-c56db965d4ca" />
      </symbol>
    </g>
    <marker
       inkscape:stockid="DimmArrow_Start_n00002"
       orient="auto"
       refY="0.0"
       refX="0.0"
       id="DimmArrow_Start_n00002"
       style="overflow:visible">
      <path
         d="M 0.0,0.0 L -10.000000,1.763270 L -10.000000,-1.763270 L 0.0,0.0 z "
         style="fill:#000000;fill-rule:evenodd;stroke:none;stroke-width:1.0"
         transform="scale (1.0)rotate(180)translate (10.0,0)"
         id="path73042" />
    </marker>
    <marker
       inkscape:stockid="DimmArrow_End_n00002"
       orient="auto"
       refY="0.0"
       refX="0.0"
       id="DimmArrow_End_n00002"
       style="overflow:visible">
      <path
         d="M 0.0,0.0 L -10.000000,1.763270 L -10.000000,-1.763270 L 0.0,0.0 z "
         style="fill:#000000;fill-rule:evenodd;stroke:none;stroke-width:1.0"
         transform="scale (1.0)translate (10.0,0)"
         id="path73045" />
    </marker>
    <marker
       inkscape:stockid="DimmArrow_Start_n00003"
       orient="auto"
       refY="0.0"
       refX="0.0"
       id="DimmArrow_Start_n00003"
       style="overflow:visible">
      <path
         d="M 0.0,0.0 L -10.000000,1.763270 L -10.000000,-1.763270 L 0.0,0.0 z "
         style="fill:#000000;fill-rule:evenodd;stroke:none;stroke-width:1.0"
         transform="scale (1.0)rotate(180)translate (10.0,0)"
         id="path73304" />
    </marker>
    <marker
       inkscape:stockid="DimmArrow_End_n00003"
       orient="auto"
       refY="0.0"
       refX="0.0"
       id="DimmArrow_End_n00003"
       style="overflow:visible">
      <path
         d="M 0.0,0.0 L -10.000000,1.763270 L -10.000000,-1.763270 L 0.0,0.0 z "
         style="fill:#000000;fill-rule:evenodd;stroke:none;stroke-width:1.0"
         transform="scale (1.0)translate (10.0,0)"
         id="path73307" />
    </marker>
    <marker
       inkscape:stockid="DimmArrow_Start_n00004"
       orient="auto"
       refY="0.0"
       refX="0.0"
       id="DimmArrow_Start_n00004"
       style="overflow:visible">
      <path
         d="M 0.0,0.0 L -10.000000,1.763270 L -10.000000,-1.763270 L 0.0,0.0 z "
         style="fill:#000000;fill-rule:evenodd;stroke:none;stroke-width:1.0"
         transform="scale (1.0)rotate(180)translate (10.0,0)"
         id="path73574" />
    </marker>
    <marker
       inkscape:stockid="DimmArrow_End_n00004"
       orient="auto"
       refY="0.0"
       refX="0.0"
       id="DimmArrow_End_n00004"
       style="overflow:visible">
      <path
         d="M 0.0,0.0 L -10.000000,1.763270 L -10.000000,-1.763270 L 0.0,0.0 z "
         style="fill:#000000;fill-rule:evenodd;stroke:none;stroke-width:1.0"
         transform="scale (1.0)translate (10.0,0)"
         id="path73577" />
    </marker>
    <marker
       inkscape:stockid="DimmArrow_Start_n00005"
       orient="auto"
       refY="0.0"
       refX="0.0"
       id="DimmArrow_Start_n00005"
       style="overflow:visible">
      <path
         d="M 0.0,0.0 L -10.000000,1.763270 L -10.000000,-1.763270 L 0.0,0.0 z "
         style="fill:#000000;fill-rule:evenodd;stroke:none;stroke-width:1.0"
         transform="scale (1.0)rotate(180)translate (10.0,0)"
         id="path73868" />
    </marker>
    <marker
       inkscape:stockid="DimmArrow_End_n00005"
       orient="auto"
       refY="0.0"
       refX="0.0"
       id="DimmArrow_End_n00005"
       style="overflow:visible">
      <path
         d="M 0.0,0.0 L -10.000000,1.763270 L -10.000000,-1.763270 L 0.0,0.0 z "
         style="fill:#000000;fill-rule:evenodd;stroke:none;stroke-width:1.0"
         transform="scale (1.0)translate (10.0,0)"
         id="path73871" />
    </marker>
    <marker
       inkscape:stockid="DimmArrow_Start_n00006"
       orient="auto"
       refY="0.0"
       refX="0.0"
       id="DimmArrow_Start_n00006"
       style="overflow:visible">
      <path
         d="M 0.0,0.0 L -10.000000,1.763270 L -10.000000,-1.763270 L 0.0,0.0 z "
         style="fill:#000000;fill-rule:evenodd;stroke:none;stroke-width:1.0"
         transform="scale (1.0)rotate(180)translate (10.0,0)"
         id="path74196" />
    </marker>
    <marker
       inkscape:stockid="DimmArrow_End_n00006"
       orient="auto"
       refY="0.0"
       refX="0.0"
       id="DimmArrow_End_n00006"
       style="overflow:visible">
      <path
         d="M 0.0,0.0 L -10.000000,1.763270 L -10.000000,-1.763270 L 0.0,0.0 z "
         style="fill:#000000;fill-rule:evenodd;stroke:none;stroke-width:1.0"
         transform="scale (1.0)translate (10.0,0)"
         id="path74199" />
    </marker>
    <marker
       inkscape:stockid="DimmArrow_Start_n00007"
       orient="auto"
       refY="0.0"
       refX="0.0"
       id="DimmArrow_Start_n00007"
       style="overflow:visible">
      <path
         d="M 0.0,0.0 L -10.000000,1.763270 L -10.000000,-1.763270 L 0.0,0.0 z "
         style="fill:#000000;fill-rule:evenodd;stroke:none;stroke-width:1.0"
         transform="scale (1.0)rotate(180)translate (10.0,0)"
         id="path74577" />
    </marker>
    <marker
       inkscape:stockid="DimmArrow_End_n00007"
       orient="auto"
       refY="0.0"
       refX="0.0"
       id="DimmArrow_End_n00007"
       style="overflow:visible">
      <path
         d="M 0.0,0.0 L -10.000000,1.763270 L -10.000000,-1.763270 L 0.0,0.0 z "
         style="fill:#000000;fill-rule:evenodd;stroke:none;stroke-width:1.0"
         transform="scale (1.0)translate (10.0,0)"
         id="path74580" />
    </marker>
    <marker
       inkscape:stockid="DimmArrow_Start_n00008"
       orient="auto"
       refY="0.0"
       refX="0.0"
       id="DimmArrow_Start_n00008"
       style="overflow:visible">
      <path
         d="M 0.0,0.0 L -10.000000,1.763270 L -10.000000,-1.763270 L 0.0,0.0 z "
         style="fill:#000000;fill-rule:evenodd;stroke:none;stroke-width:1.0"
         transform="scale (1.0)rotate(180)translate (10.0,0)"
         id="path74929" />
    </marker>
    <marker
       inkscape:stockid="DimmArrow_End_n00008"
       orient="auto"
       refY="0.0"
       refX="0.0"
       id="DimmArrow_End_n00008"
       style="overflow:visible">
      <path
         d="M 0.0,0.0 L -10.000000,1.763270 L -10.000000,-1.763270 L 0.0,0.0 z "
         style="fill:#000000;fill-rule:evenodd;stroke:none;stroke-width:1.0"
         transform="scale (1.0)translate (10.0,0)"
         id="path74932" />
    </marker>
  </defs>
  <sodipodi:namedview
     id="base"
     pagecolor="#ffffff"
     bordercolor="#666666"
     borderopacity="1.0"
     inkscape:pageopacity="0.0"
     inkscape:pageshadow="2"
     inkscape:zoom="0.34491026"
     inkscape:cx="951.33175"
     inkscape:cy="167.69533"
     inkscape:document-units="mm"
     inkscape:current-layer="g69049"
     inkscape:document-rotation="0"
     showgrid="false"
     inkscape:snap-nodes="false"
     fit-margin-top="0"
     fit-margin-left="0"
     fit-margin-right="0"
     fit-margin-bottom="0" />
  <metadata
     id="metadata67062">
    <rdf:RDF>
      <cc:Work
         rdf:about="">
        <dc:format>image/svg+xml</dc:format>
        <dc:type
           rdf:resource="http://purl.org/dc/dcmitype/StillImage" />
        <dc:title></dc:title>
      </cc:Work>
    </rdf:RDF>
  </metadata>
  <g
     inkscape:label="Layer 1"
     inkscape:groupmode="layer"
     id="g69049"
     transform="translate(152.2203,-10.07736)">
    <g
       inkscape:label="Layer 1"
       inkscape:groupmode="layer"
       id="layer1"
       transform="matrix(0.552997,0,0,0.552997,-158.49237,-312.29326)"
       style="stroke-width:1.6275;stroke-miterlimit:4;stroke-dasharray:none" />
    <g
       sodipodi:type="inkscape:box3d"
       id="g67684"
       style="fill:#a6a6a6;fill-opacity:1;stroke:#ff0000;stroke-width:7.80472;stroke-linecap:round;stroke-linejoin:round;stroke-dashoffset:128.239"
       inkscape:perspectiveID="#perspective67682"
       inkscape:corner0="-0.51164019 : 0.18069783 : 0 : 1"
       inkscape:corner7="-0.68016372 : 0.013723297 : 0.10797434 : 1">
      <path
         sodipodi:type="inkscape:box3dside"
         id="path67692"
         style="fill:#a6a6a6;fill-opacity:1;fill-rule:evenodd;stroke:none;stroke-linejoin:round"
         inkscape:box3dsidetype="14"
         d="m 371.26414,224.8465 h -522.0625 l 29.93299,-3.09014 h 390.3001 z"
         points="-150.79836,224.8465 -120.86537,221.75636 269.43473,221.75636 371.26414,224.8465 " />
      <path
         sodipodi:type="inkscape:box3dside"
         id="path67694"
         style="fill:#a6a6a6;fill-opacity:1;fill-rule:evenodd;stroke:none;stroke-linejoin:round"
         inkscape:box3dsidetype="13"
         d="m -125.16188,93.733383 -25.63648,131.113117 29.93299,-3.09014 12.53561,-106.50005 z"
         points="-150.79836,224.8465 -120.86537,221.75636 -108.32976,115.25631 -125.16188,93.733383 " />
      <path
         sodipodi:type="inkscape:box3dside"
         id="path67696"
         style="fill:#a6a6a6;fill-opacity:1;fill-rule:evenodd;stroke:none;stroke-linejoin:round"
         inkscape:box3dsidetype="11"
         d="m 171.67186,115.25631 97.76287,106.50005 h -390.3001 l 12.53561,-106.50005 z"
         points="269.43473,221.75636 -120.86537,221.75636 -108.32976,115.25631 171.67186,115.25631 " />
      <path
         sodipodi:type="inkscape:box3dside"
         id="path67688"
         style="fill:#a6a6a6;fill-opacity:1;fill-rule:evenodd;stroke:none;stroke-linejoin:round"
         inkscape:box3dsidetype="5"
         d="M 216.74694,93.733383 371.26414,224.8465 269.43473,221.75636 171.67186,115.25631 Z"
         points="371.26414,224.8465 269.43473,221.75636 171.67186,115.25631 216.74694,93.733383 " />
      <path
         sodipodi:type="inkscape:box3dside"
         id="path67686"
         style="fill:#a6a6a6;fill-opacity:1;fill-rule:evenodd;stroke:none;stroke-linejoin:round"
         inkscape:box3dsidetype="6"
         d="m 216.74694,93.733383 h -341.90882 l 16.83212,21.522927 h 280.00162 z"
         points="-125.16188,93.733383 -108.32976,115.25631 171.67186,115.25631 216.74694,93.733383 " />
      <path
         sodipodi:type="inkscape:box3dside"
         id="path67690"
         style="fill:#a6a6a6;fill-opacity:1;fill-rule:evenodd;stroke:none;stroke-linejoin:round"
         inkscape:box3dsidetype="3"
         d="M 216.74694,93.733383 371.26414,224.8465 h -522.0625 l 25.63648,-131.113117 z"
         points="371.26414,224.8465 -150.79836,224.8465 -125.16188,93.733383 216.74694,93.733383 " />
    </g>
    <path
       id="rect9602"
       style="fill:#000000;fill-opacity:1;stroke:#ffffff;stroke-width:0.0392331;stroke-linecap:round;stroke-linejoin:round;stroke-dashoffset:128.239"
       d="m -55.32969,10.096994 c -0.67768,0.0037 -1.27549,0.485576 -1.40354,1.177592 l -4.4324,23.955394 h -10.7231 V 24.294466 c 0,-1.022232 -0.78378,-1.845184 -1.75734,-1.845184 -0.97353,0 -1.75727,0.822952 -1.75727,1.845184 V 35.22998 h -10.72315 l -4.43232,-23.955394 c -0.14509,-0.783887 -0.89288,-1.2981786 -1.67675,-1.153138 l -6.51191,1.20488 c -0.78394,0.14503 -1.29823,0.892853 -1.15313,1.676728 l 9.02585,48.781461 c 0.14502,0.78387 0.89282,1.29817 1.67676,1.15312 l 6.5119,-1.20486 c 0.78387,-0.14505 1.29816,-0.89286 1.15314,-1.67674 l -2.34454,-12.671184 h 8.47415 v 23.223434 h -0.37042 c -1.2702,0 -2.2928,1.02257 -2.2928,2.29276 v 79.045543 c 0,0.0251 7.6e-4,0.05 7.6e-4,0.0749 h -18.753 c -0.74469,0 -1.34422,1.59156 -1.34422,3.56853 0,1.97696 0.59953,3.56851 1.34422,3.56851 h 46.34449 c 0.74472,0 1.34426,-1.59155 1.34426,-3.56851 0,-1.97697 -0.59954,-3.56853 -1.34426,-3.56853 h -18.75298 c 9.9e-4,-0.0249 10e-4,-0.0498 10e-4,-0.0749 V 72.901047 c 0,-1.27019 -1.02257,-2.29276 -2.29276,-2.29276 h -0.37043 V 47.384853 h 8.47413 l -2.34452,12.671184 c -0.14504,0.78388 0.36925,1.53169 1.15313,1.67674 l 6.51192,1.20486 c 0.78388,0.14505 1.53171,-0.36925 1.67675,-1.15312 l 9.025868,-48.781461 c 0.14504,-0.783875 -0.36925,-1.531698 -1.15312,-1.676728 l -6.511938,-1.20488 c -0.0918,-0.017 -0.1832,-0.02494 -0.27317,-0.02445 z m -30.47912,26.849679 h 10.40547 v 8.721486 h -8.79175 z m 13.92008,0 h 10.40545 l -1.6137,8.721486 h -8.79175 z" />
    <g
       id="g30286"
       transform="matrix(0.34747768,0,0,0.30743663,-152.53627,43.950576)">
      <g
         id="g30254">
        <g
           enable-background="new    "
           id="g30252">
          <path
             fill="#b3b3b3"
             d="m 1152.6,298.3 c 0.1,-0.5 0.1,-1 0.2,-1.5 0,-0.1 0,-0.1 0,-0.2 0.1,-0.5 0.2,-0.9 0.4,-1.3 0,-0.1 0.1,-0.2 0.1,-0.3 0.2,-0.4 0.3,-0.9 0.5,-1.3 0,-0.1 0.1,-0.1 0.1,-0.2 0.2,-0.3 0.3,-0.7 0.5,-1 0.1,-0.1 0.1,-0.2 0.2,-0.3 0.2,-0.3 0.4,-0.5 0.6,-0.7 0.1,-0.1 0.2,-0.2 0.3,-0.3 0.2,-0.2 0.4,-0.4 0.6,-0.6 0.1,-0.1 0.2,-0.2 0.3,-0.2 0.3,-0.2 0.6,-0.5 0.9,-0.7 l -69.1,40.1 c -0.3,0.2 -0.6,0.4 -0.9,0.7 -0.1,0.1 -0.2,0.2 -0.3,0.2 -0.2,0.2 -0.4,0.4 -0.6,0.6 -0.1,0.1 -0.2,0.2 -0.3,0.3 -0.2,0.2 -0.4,0.5 -0.6,0.7 -0.1,0.1 -0.1,0.2 -0.2,0.3 0,0 0,0.1 -0.1,0.1 -0.2,0.3 -0.3,0.6 -0.5,0.9 0,0.1 -0.1,0.1 -0.1,0.2 0,0 0,0 0,0 -0.1,0.3 -0.3,0.6 -0.4,1 0,0.1 -0.1,0.2 -0.1,0.3 0,0.1 -0.1,0.2 -0.1,0.3 0,0.1 -0.1,0.2 -0.1,0.4 -0.1,0.3 -0.2,0.6 -0.2,0.8 0,0 0,0.1 0,0.1 0,0.1 0,0.1 0,0.2 0,0.2 -0.1,0.3 -0.1,0.5 0,0.3 -0.1,0.5 -0.1,0.8 0,0.1 0,0.1 0,0.2 0,0.1 0,0.1 0,0.2 0,0.1 0,0.3 0,0.4 0,0.3 0,0.5 0,0.8 0,0.2 0,0.3 0,0.5 l 69.1,-40.1 c 0,-0.6 0.1,-1.2 0.1,-1.7 -0.1,-0.1 -0.1,-0.1 -0.1,-0.2 z"
             id="path30136" />
          <g
             id="g30148">
            <path
               fill="#141517"
               d="m 1110.4,328.3 c 0,0 -0.1,-0.1 -0.1,-0.1 -0.2,-0.1 -0.3,-0.2 -0.5,-0.3 -0.2,-0.1 -0.4,-0.2 -0.6,-0.3 -0.2,-0.1 -0.4,-0.2 -0.6,-0.3 -0.2,-0.1 -0.4,-0.2 -0.6,-0.2 -0.2,-0.1 -0.4,-0.1 -0.6,-0.2 -0.2,-0.1 -0.4,-0.1 -0.6,-0.2 h -0.1 0.1 c -0.2,-0.1 -0.4,-0.1 -0.6,-0.2 -0.1,0 -0.2,0 -0.3,-0.1 0,0 -0.1,0 -0.1,0 -0.1,0 -0.1,0 -0.2,0 -0.2,0 -0.4,-0.1 -0.6,-0.1 -0.1,0 -0.3,0 -0.4,0 0,0 -0.1,0 -0.1,0 0,0 -0.1,0 -0.1,0 -0.2,0 -0.4,0 -0.7,0 -0.1,0 -0.2,0 -0.3,0 -0.1,0 -0.1,0 -0.2,0 -0.1,0 -0.2,0 -0.2,0 -0.3,0 -0.6,0.1 -0.8,0.1 0,0 0,0 0,0 -0.1,0 -0.1,0 -0.2,0 -0.3,0.1 -0.6,0.1 -0.8,0.2 0,0 0,0 -0.1,0 -0.4,0.1 -0.7,0.3 -1.1,0.5 l -10.8,6.3 c 0.3,-0.2 0.7,-0.4 1.1,-0.5 0.3,-0.1 0.6,-0.2 0.9,-0.3 0.1,0 0.1,0 0.2,0 0.3,-0.1 0.7,-0.1 1.1,-0.1 0.1,0 0.1,0 0.2,0 0.4,0 0.7,0 1.1,0 0,0 0.1,0 0.1,0 0.4,0 0.8,0.1 1.2,0.2 0,0 0.1,0 0.1,0 1.3,0.3 2.7,0.9 4.2,1.7 5.9,3.4 10.9,10.4 13.1,17.5 0,0 0,0.1 0,0.1 0.2,0.5 0.3,1.1 0.4,1.6 0,0.1 0,0.1 0,0.2 0.1,0.6 0.2,1.1 0.3,1.7 0,0 0,0 0,0 0.1,0.6 0.2,1.1 0.2,1.7 0,0 0,0.1 0,0.1 0,0.6 0.1,1.1 0.1,1.6 0,0.5 0,1.1 -0.1,1.6 0,0 0,0.1 0,0.1 0,0.5 -0.1,0.9 -0.2,1.3 0,0.1 0,0.1 0,0.2 -0.1,0.4 -0.2,0.8 -0.3,1.2 0,0.1 0,0.1 -0.1,0.2 -0.1,0.4 -0.2,0.7 -0.4,1 0,0 0,0.1 0,0.1 -0.2,0.4 -0.4,0.7 -0.6,1 -0.3,0.5 -0.6,0.9 -1,1.2 -0.1,0.1 -0.2,0.2 -0.3,0.3 -0.4,0.3 -0.8,0.7 -1.2,0.9 l 10.8,-6.3 c 0.4,-0.3 0.8,-0.6 1.2,-0.9 0.1,-0.1 0.2,-0.2 0.3,-0.3 0.4,-0.4 0.7,-0.8 1,-1.2 0,0 0,0 0,0 0.2,-0.3 0.4,-0.6 0.5,-1 0,0 0,0 0,0 0,0 0,-0.1 0,-0.1 0.1,-0.2 0.2,-0.4 0.3,-0.7 0,-0.1 0.1,-0.2 0.1,-0.4 0,-0.1 0,-0.1 0.1,-0.2 0,-0.1 0,-0.1 0.1,-0.2 0.1,-0.2 0.1,-0.5 0.2,-0.7 0,-0.1 0,-0.2 0.1,-0.3 0,-0.1 0,-0.1 0,-0.2 0,-0.1 0,-0.2 0.1,-0.3 0,-0.2 0.1,-0.5 0.1,-0.7 0,-0.1 0,-0.3 0,-0.4 0,0 0,-0.1 0,-0.1 0,-0.1 0,-0.1 0,-0.2 0,-0.2 0,-0.4 0,-0.7 0,-0.2 0,-0.5 0,-0.7 0,0 0,0 0,0 0,-0.2 0,-0.4 0,-0.6 0,-0.2 0,-0.5 0,-0.7 0,-0.1 0,-0.2 0,-0.3 0,0 0,-0.1 0,-0.1 0,-0.1 0,-0.2 0,-0.2 0,-0.2 0,-0.5 -0.1,-0.7 0,-0.2 -0.1,-0.5 -0.1,-0.7 0,0 0,0 0,0 0,0 0,0 0,0 0,-0.2 -0.1,-0.4 -0.1,-0.7 0,-0.2 -0.1,-0.5 -0.2,-0.7 0,-0.1 0,-0.2 -0.1,-0.3 0,-0.1 0,-0.1 0,-0.2 0,-0.1 0,-0.2 -0.1,-0.3 -0.1,-0.3 -0.1,-0.5 -0.2,-0.8 -0.1,-0.2 -0.1,-0.4 -0.2,-0.6 0,0 0,-0.1 0,-0.1 0,0 0,-0.1 0,-0.1 -0.1,-0.2 -0.2,-0.5 -0.2,-0.7 v 0 c -2.2,-6.5 -6.7,-12.8 -12.1,-16.3 v 0 c 0,0.3 -0.2,0.2 -0.4,0 z"
               id="path30138" />
            <g
               id="g30142">
              <path
                 fill="#858789"
                 d="m 1107.5,355.6 c 0,-5.2 -3.6,-11.5 -8.1,-14.1 -4.5,-2.6 -8.2,-0.5 -8.2,4.7 0,5.2 3.6,11.5 8.1,14.1 4.6,2.6 8.2,0.5 8.2,-4.7 z"
                 id="path30140" />
            </g>
            <g
               id="g30146">
              <path
                 fill="#27292d"
                 d="m 1113.6,359.1 c 0,-9 -6.3,-20.1 -14.2,-24.6 -7.9,-4.5 -14.3,-0.9 -14.3,8.1 0,9.1 6.3,20.1 14.2,24.6 7.9,4.5 14.3,1 14.3,-8.1 z m -22.4,-12.9 c 0,-5.2 3.7,-7.3 8.2,-4.7 4.5,2.6 8.2,8.9 8.1,14.1 0,5.2 -3.7,7.3 -8.2,4.7 -4.5,-2.6 -8.1,-8.9 -8.1,-14.1 z"
                 id="path30144" />
            </g>
          </g>
          <g
             id="g30152">
            <polygon
               fill="#b7b7b7"
               points="1067.7,285.8 1136.8,245.6 1140.7,207.9 1071.6,248 "
               id="polygon30150" />
          </g>
          <path
             fill="#b3b3b3"
             d="m 1254.2,357 c 0.1,-0.5 0.1,-1 0.2,-1.5 0,-0.1 0,-0.1 0,-0.2 0.1,-0.5 0.2,-0.9 0.4,-1.3 0,-0.1 0.1,-0.2 0.1,-0.3 0.2,-0.4 0.3,-0.9 0.5,-1.3 0,-0.1 0.1,-0.1 0.1,-0.2 0.2,-0.3 0.3,-0.7 0.5,-1 0.1,-0.1 0.1,-0.2 0.2,-0.3 0.2,-0.3 0.4,-0.5 0.6,-0.7 0.1,-0.1 0.2,-0.2 0.3,-0.3 0.2,-0.2 0.4,-0.4 0.6,-0.6 0.1,-0.1 0.2,-0.2 0.3,-0.2 0.3,-0.2 0.6,-0.5 1,-0.7 l -69.1,40.1 c -0.3,0.2 -0.6,0.4 -1,0.7 -0.1,0.1 -0.2,0.2 -0.3,0.2 -0.2,0.2 -0.4,0.4 -0.6,0.6 -0.1,0.1 -0.2,0.2 -0.3,0.3 -0.2,0.2 -0.4,0.5 -0.6,0.7 -0.1,0.1 -0.1,0.2 -0.2,0.3 0,0 0,0.1 -0.1,0.1 -0.2,0.3 -0.3,0.6 -0.5,0.9 0,0.1 -0.1,0.1 -0.1,0.2 0,0 0,0 0,0 -0.1,0.3 -0.3,0.6 -0.4,1 0,0.1 -0.1,0.2 -0.1,0.3 0,0.1 -0.1,0.2 -0.1,0.3 0,0.1 -0.1,0.2 -0.1,0.4 -0.1,0.3 -0.2,0.6 -0.2,0.8 0,0 0,0.1 0,0.1 0,0.1 0,0.1 0,0.2 0,0.2 -0.1,0.3 -0.1,0.5 0,0.3 -0.1,0.5 -0.1,0.8 0,0.1 0,0.1 0,0.2 0,0.1 0,0.1 0,0.2 0,0.1 0,0.3 0,0.4 0,0.3 0,0.5 0,0.8 0,0.2 0,0.3 0,0.5 l 69.1,-40.1 c 0,-0.6 0.1,-1.2 0.1,-1.7 -0.1,-0.1 -0.1,-0.1 -0.1,-0.2 z"
             id="path30154" />
          <g
             id="g30166">
            <path
               fill="#141517"
               d="m 1265.9,355.6 c 0,0 -0.1,-0.1 -0.1,-0.1 -0.2,-0.1 -0.3,-0.2 -0.5,-0.3 -0.2,-0.1 -0.4,-0.2 -0.6,-0.3 -0.2,-0.1 -0.4,-0.2 -0.6,-0.3 -0.2,-0.1 -0.4,-0.2 -0.6,-0.2 -0.2,-0.1 -0.4,-0.1 -0.6,-0.2 -0.2,-0.1 -0.4,-0.1 -0.6,-0.2 h -0.1 0.1 c -0.2,-0.1 -0.4,-0.1 -0.6,-0.2 -0.1,0 -0.2,0 -0.3,-0.1 0,0 -0.1,0 -0.1,0 -0.1,0 -0.1,0 -0.2,0 -0.2,0 -0.4,-0.1 -0.6,-0.1 -0.1,0 -0.2,0 -0.4,0 0,0 -0.1,0 -0.1,0 0,0 -0.1,0 -0.1,0 -0.2,0 -0.4,0 -0.7,0 -0.1,0 -0.2,0 -0.3,0 -0.1,0 -0.1,0 -0.2,0 -0.1,0 -0.2,0 -0.2,0 -0.3,0 -0.6,0.1 -0.8,0.1 0,0 0,0 0,0 -0.1,0 -0.1,0 -0.2,0 -0.3,0.1 -0.5,0.1 -0.8,0.2 0,0 0,0 -0.1,0 -0.4,0.1 -0.7,0.3 -1.1,0.5 l -65,37.8 c 0.3,-0.2 0.7,-0.4 1.1,-0.5 0.3,-0.1 0.6,-0.2 0.9,-0.3 0.1,0 0.1,0 0.2,0 0.3,-0.1 0.7,-0.1 1.1,-0.1 0.1,0 0.1,0 0.2,0 0.4,0 0.7,0 1.1,0 0,0 0.1,0 0.1,0 0.4,0 0.8,0.1 1.2,0.2 0,0 0.1,0 0.1,0 1.3,0.3 2.7,0.9 4.2,1.7 5.9,3.4 10.9,10.4 13,17.5 0,0 0,0.1 0,0.1 0.2,0.5 0.3,1.1 0.4,1.6 0,0.1 0,0.1 0,0.2 0.1,0.6 0.2,1.1 0.3,1.7 0,0 0,0 0,0 0.1,0.6 0.2,1.1 0.2,1.7 0,0 0,0.1 0,0.1 0,0.6 0.1,1.1 0.1,1.6 0,0.5 0,1.1 -0.1,1.6 0,0 0,0.1 0,0.1 0,0.5 -0.1,0.9 -0.2,1.3 0,0.1 0,0.1 0,0.2 -0.1,0.4 -0.2,0.8 -0.3,1.2 0,0.1 0,0.1 -0.1,0.2 -0.1,0.4 -0.2,0.7 -0.4,1 0,0 0,0.1 0,0.1 -0.2,0.4 -0.4,0.7 -0.6,1 -0.3,0.5 -0.6,0.9 -1,1.2 -0.1,0.1 -0.2,0.2 -0.3,0.3 -0.4,0.3 -0.8,0.7 -1.2,0.9 l 65,-37.8 c 0.4,-0.3 0.8,-0.6 1.2,-0.9 0.1,-0.1 0.2,-0.2 0.3,-0.3 0.4,-0.4 0.7,-0.8 1,-1.2 0,0 0,0 0,0 0.2,-0.3 0.4,-0.6 0.5,-1 0,0 0,0 0,0 0,0 0,-0.1 0,-0.1 0.1,-0.2 0.2,-0.4 0.3,-0.7 0,-0.1 0.1,-0.2 0.1,-0.4 0,-0.1 0,-0.1 0.1,-0.2 0,-0.1 0,-0.1 0.1,-0.2 0.1,-0.2 0.1,-0.5 0.2,-0.7 0,-0.1 0,-0.2 0.1,-0.3 0,-0.1 0,-0.1 0,-0.2 0,-0.1 0,-0.2 0.1,-0.3 0,-0.2 0.1,-0.4 0.1,-0.7 0,-0.1 0,-0.3 0,-0.4 0,0 0,-0.1 0,-0.1 0,-0.1 0,-0.1 0,-0.2 0,-0.2 0,-0.4 0,-0.7 0,-0.2 0,-0.5 0,-0.7 0,0 0,0 0,0 0,-0.2 0,-0.4 0,-0.6 0,-0.2 0,-0.5 0,-0.7 0,-0.1 0,-0.2 0,-0.3 0,0 0,-0.1 0,-0.1 0,-0.1 0,-0.2 0,-0.2 0,-0.2 0,-0.5 -0.1,-0.7 0,-0.2 -0.1,-0.5 -0.1,-0.7 0,0 0,0 0,0 0,0 0,0 0,0 0,-0.2 -0.1,-0.4 -0.1,-0.7 0,-0.2 -0.1,-0.5 -0.2,-0.7 0,-0.1 0,-0.2 -0.1,-0.3 0,-0.1 0,-0.1 0,-0.2 0,-0.1 0,-0.2 -0.1,-0.3 -0.1,-0.3 -0.1,-0.5 -0.2,-0.8 -0.1,-0.2 -0.1,-0.4 -0.2,-0.6 0,0 0,-0.1 0,-0.1 0,0 0,-0.1 0,-0.1 -0.1,-0.2 -0.2,-0.5 -0.2,-0.7 v 0 c -2.2,-6.5 -6.7,-12.8 -12.1,-16.2 v 0 c 0.1,0.2 -0.1,0.1 -0.3,-0.1 z"
               id="path30156" />
            <g
               id="g30160">
              <path
                 fill="#858789"
                 d="m 1208.9,414.3 c 0,-5.2 -3.6,-11.5 -8.1,-14 -4.5,-2.6 -8.1,-0.5 -8.2,4.7 0,5.2 3.6,11.5 8.1,14.1 4.5,2.5 8.2,0.4 8.2,-4.8 z"
                 id="path30158" />
            </g>
            <g
               id="g30164">
              <path
                 fill="#27292d"
                 d="m 1215,417.8 c 0,-9 -6.3,-20 -14.2,-24.5 -7.8,-4.5 -14.2,-0.9 -14.2,8.1 0,9 6.3,20 14.2,24.5 7.8,4.6 14.2,0.9 14.2,-8.1 z m -22.4,-12.9 c 0,-5.2 3.7,-7.2 8.2,-4.7 4.5,2.6 8.1,8.9 8.1,14 0,5.2 -3.7,7.3 -8.2,4.7 -4.4,-2.5 -8.1,-8.8 -8.1,-14 z"
                 id="path30162" />
            </g>
          </g>
          <g
             id="g30170">
            <polygon
               fill="#dcdcdc"
               points="1059.5,301.1 1235.3,402.5 1304.4,362.4 1128.6,260.9 "
               id="polygon30168" />
          </g>
          <g
             id="g30174">
            <polygon
               fill="#d0181f"
               points="1059.5,293.4 1235.3,394.9 1304.4,354.8 1128.6,253.3 "
               id="polygon30172" />
          </g>
          <g
             id="g30178">
            <polygon
               fill="#dcdcdc"
               points="1067.7,285.8 1167.4,343.4 1236.5,303.3 1136.8,245.6 "
               id="polygon30176" />
          </g>
          <g
             id="g30182">
            <polygon
               fill="#009ad4"
               points="1071.6,248 1167.6,303.5 1236.6,263.3 1140.7,207.9 "
               id="polygon30180" />
          </g>
          <g
             id="g30186">
            <polygon
               fill="#008ec3"
               points="1167.4,343.4 1236.5,303.3 1236.6,263.3 1167.6,303.5 "
               id="polygon30184" />
          </g>
          <g
             id="g30190">
            <polygon
               fill="#006e97"
               points="1067.7,285.8 1167.4,343.4 1167.6,303.5 1071.6,248 "
               id="polygon30188" />
          </g>
          <g
             id="g30194">
            <polygon
               fill="#c5c5c5"
               points="1172.4,346.3 1241.5,306.1 1241.6,266.2 1172.5,306.3 "
               id="polygon30192" />
          </g>
          <g
             id="g30198">
            <polygon
               fill="#dcdcdc"
               points="1172.4,346.3 1212,369.1 1281,329 1241.5,306.1 "
               id="polygon30196" />
          </g>
          <g
             id="g30202">
            <polygon
               fill="#bf141b"
               points="1235.3,394.9 1235.3,402.5 1304.4,362.4 1304.4,354.8 "
               id="polygon30200" />
          </g>
          <g
             id="g30206">
            <polygon
               fill="#920608"
               points="1059.5,301.1 1235.3,402.5 1235.3,394.9 1059.5,293.4 "
               id="polygon30204" />
          </g>
          <g
             id="g30210">
            <polygon
               fill="#f0f0f0"
               points="1215.4,368.5 1235.5,389 1304.6,348.9 1284.5,328.3 "
               id="polygon30208" />
          </g>
          <g
             id="g30214">
            <polygon
               fill="#c5c5c5"
               points="1235.5,389 1235.4,428.2 1304.5,388 1304.6,348.9 "
               id="polygon30212" />
          </g>
          <polygon
             fill="#27292d"
             points="1235.4,428.2 1304.5,388 1304.5,377.3 1235.4,417.4 "
             id="polygon30216" />
          <g
             id="g30220">
            <polygon
               fill="#006e97"
               points="1172.4,346.3 1212,369.1 1196.5,320.2 1172.5,306.3 "
               id="polygon30218" />
          </g>
          <g
             id="g30224">
            <polygon
               fill="#009ad4"
               points="1172.5,306.3 1196.5,320.2 1265.6,280 1241.6,266.2 "
               id="polygon30222" />
          </g>
          <g
             id="g30228">
            <polygon
               fill="#00a3e0"
               points="1196.5,320.2 1212,369.1 1281,329 1265.6,280 "
               id="polygon30226" />
          </g>
          <g
             id="g30232">
            <polygon
               fill="#f0f0f0"
               points="1065.4,240 1199.5,317.4 1268.6,277.3 1134.5,199.8 "
               id="polygon30230" />
          </g>
          <g
             id="g30236">
            <path
               fill="#898989"
               d="m 1059.5,301.1 -0.1,25.5 23.9,13.8 c 0.2,-10.3 7.6,-14.4 16.7,-9.2 9.1,5.2 16.4,17.9 16.6,28.4 l 67.3,38.8 1.1,0.6 c 0.2,-10.3 7.6,-14.4 16.7,-9.2 9.1,5.2 16.4,17.9 16.6,28.4 l 1.3,0.8 15.8,9.1 0.1,-39.1 -20.1,-20.5 -15.9,-51.1 -134.1,-77.4 -5.8,33.3 -0.1,20.2 175.8,101.5 v 7.6 z m 107.9,42.3 -99.8,-57.6 3.9,-37.7 96,55.4 z m 5,2.9 0.1,-39.9 23.9,13.8 15.5,48.9 z"
               id="path30234" />
          </g>
          <g
             id="g30250">
            <polygon
               fill="#ededed"
               points="1199.5,317.4 1215.4,368.5 1284.5,328.3 1268.6,277.3 "
               id="polygon30238" />
            <polygon
               fill="#00aeef"
               points="1204,319.1 1217.6,363 1280.1,326.6 1266.5,282.8 "
               id="polygon30240" />
            <g
               id="g30248">
              <path
                 fill="#4fc9f3"
                 d="m 1239.6,298.4 v 51.8 l 13.3,-7.7 c 0,-17.2 0,-36.9 0,-51.8 z"
                 id="path30242" />
              <path
                 fill="#4fc9f3"
                 d="m 1224.8,307 v 51.8 l 5.5,-3.2 c 0,-16.5 -0.2,-36.3 -0.4,-51.5 z"
                 id="path30244" />
              <polygon
                 fill="#4fc9f3"
                 points="1258.3,287.6 1258.3,339.3 1263,336.6 1263,284.8 "
                 id="polygon30246" />
            </g>
          </g>
        </g>
      </g>
      <polygon
         fill="#27292d"
         points="1257.6,388.5 1257.6,399.6 1285.1,383.6 1285.1,372.5 "
         id="polygon30256" />
      <g
         id="g30262">
        <polygon
           fill="#ffffff"
           points="1252.9,390.5 1241.6,397.1 1241.6,410.9 1252.9,404.3 "
           id="polygon30258" />
        <polygon
           fill="#ffffff"
           points="1299,363.7 1288.9,369.6 1288.9,383.3 1298.9,377.5 "
           id="polygon30260" />
      </g>
      <g
         id="g30284">
        <g
           id="g30266">
          <polygon
             fill="#1c75bc"
             points="1228.4,293.9 1228.8,293.6 1263.2,273.8 1262.8,274 1262.8,260.2 1228.3,280.1 "
             id="polygon30264" />
        </g>
        <g
           id="g30270">
          <polygon
             fill="#00aeef"
             points="1228.3,280.1 1262.8,260.2 1247.7,251.5 1213.2,271.4 "
             id="polygon30268" />
        </g>
        <g
           id="g30274">
          <polygon
             fill="#8f0916"
             points="1178.9,305 1193.9,313.8 1193.9,300 1178.8,291.2 "
             id="polygon30272" />
        </g>
        <g
           id="g30278">
          <polygon
             fill="#bc1827"
             points="1228.8,293.6 1228.4,293.9 1228.3,280.1 1193.9,300 1193.9,313.8 "
             id="polygon30276" />
        </g>
        <g
           id="g30282">
          <polygon
             fill="#cc1c2c"
             points="1193.9,300 1228.3,280.1 1213.2,271.4 1178.8,291.2 "
             id="polygon30280" />
        </g>
      </g>
    </g>
    <g
       inkscape:label="Dim"
       id="g73170">
      <path
         inkscape:label="none"
         style="fill:none;stroke:#000000;stroke-width:1;stroke-linecap:round;stroke-linejoin:round;stroke-dasharray:none"
         d="m -112.49516,154.29362 h -24"
         id="path73136" />
      <path
         inkscape:label="none"
         style="fill:none;stroke:#000000;stroke-width:1;stroke-linecap:round;stroke-linejoin:round;stroke-dasharray:none"
         d="m -112.49516,36.159023 h -24"
         id="path73138" />
      <path
         inkscape:label="dim"
         style="fill:none;stroke:#000000;stroke-width:1;stroke-linecap:round;stroke-linejoin:round;stroke-dasharray:none;marker-start:url(#DimmArrow_Start_n00002);marker-end:url(#DimmArrow_End_n00002)"
         d="M -132.49516,144.29362 V 46.159023"
         id="path73140" />
      <g
         inkscape:label="Layer 1"
         inkscape:groupmode="layer"
         id="g73168"
         transform="matrix(0,-1.105994,1.105994,0,-762.05676,537.6238)">
        <g
           transform="matrix(1.33333,0,0,1.33333,390.08,554.389)"
           ns1:version="1.3.1"
           ns1:texconverter="pdflatex"
           ns1:pdfconverter="inkscape"
           ns1:text=" \\noindent $h_{\\mathrm{Tx}}$"
           ns1:preamble="/Users/hasanabbas/Library/Application Support/org.inkscape.Inkscape/config/inkscape/extensions/inkscapeMadeEasy/basicLatexPackages.tex"
           ns1:scale="1.0"
           ns1:alignment="middle center"
           ns1:inkscapeversion="1.0.1"
           ns1:jacobian_sqrt="1.33333"
           id="g73166">
          <defs
             id="id-feab890c-a367-4d03-bf12-f9547fca39f2">
            <g
               id="id-a3d9f2ce-9072-4ea0-9c7b-718ad62bae0a">
              <symbol
                 overflow="visible"
                 id="id-c3535ff9-d9d3-4fa3-9248-3446716ec905">
                <path
                   style="stroke:none;stroke-width:0"
                   d=""
                   id="id-3aaa5ec0-34a7-4fe2-9f68-e456b8224d5e" />
              </symbol>
              <symbol
                 overflow="visible"
                 id="id-2dd037a8-7f12-430e-9d09-3feece54bd54">
                <path
                   style="stroke:none;stroke-width:0"
                   d="m 2.859375,-6.8125 c 0,0 0,-0.109375 -0.125,-0.109375 -0.234375,0 -0.953125,0.078125 -1.21875,0.109375 -0.078125,0 -0.1875,0.015625 -0.1875,0.1875 0,0.125 0.09375,0.125 0.234375,0.125 0.484375,0 0.5,0.0625 0.5,0.171875 L 2.03125,-6.125 0.59375,-0.390625 c -0.046875,0.140625 -0.046875,0.15625 -0.046875,0.21875 0,0.234375 0.203125,0.28125 0.296875,0.28125 0.15625,0 0.3125,-0.125 0.359375,-0.265625 l 0.1875,-0.75 0.21875,-0.890625 C 1.671875,-2.03125 1.734375,-2.25 1.78125,-2.46875 1.796875,-2.53125 1.890625,-2.859375 1.890625,-2.921875 1.921875,-3.015625 2.234375,-3.5625 2.578125,-3.84375 2.796875,-4 3.09375,-4.1875 3.53125,-4.1875 c 0.421875,0 0.53125,0.34375 0.53125,0.703125 0,0.53125 -0.375,1.625 -0.609375,2.234375 C 3.375,-1.03125 3.3125,-0.90625 3.3125,-0.703125 c 0,0.46875 0.359375,0.8125 0.828125,0.8125 0.9375,0 1.296875,-1.453125 1.296875,-1.53125 0,-0.109375 -0.078125,-0.109375 -0.109375,-0.109375 -0.109375,0 -0.109375,0.03125 -0.15625,0.1875 -0.140625,0.53125 -0.46875,1.234375 -1.015625,1.234375 -0.171875,0 -0.234375,-0.09375 -0.234375,-0.328125 0,-0.25 0.078125,-0.484375 0.171875,-0.703125 0.15625,-0.4375 0.609375,-1.625 0.609375,-2.203125 0,-0.640625 -0.390625,-1.0625 -1.140625,-1.0625 -0.625,0 -1.109375,0.3125 -1.484375,0.765625 z m 0,0"
                   id="id-dfa4248d-b713-4179-b958-58519f8ee964" />
              </symbol>
              <symbol
                 overflow="visible"
                 id="id-4eba4569-e72b-4aa0-98ea-57b24de235cd">
                <path
                   style="stroke:none;stroke-width:0"
                   d=""
                   id="id-e5f6db7c-46cf-4b86-9c76-e85df7170873" />
              </symbol>
              <symbol
                 overflow="visible"
                 id="id-c9c3025d-d00b-4cb3-ba21-c4ea4027d6d9">
                <path
                   style="stroke:none;stroke-width:0"
                   d="M 5.1875,-4.703125 H 0.484375 l -0.15625,1.59375 h 0.25 C 0.671875,-4.3125 0.875,-4.453125 1.9375,-4.453125 c 0.140625,0 0.34375,0 0.421875,0 0.15625,0.03125 0.15625,0.109375 0.15625,0.265625 v 3.609375 c 0,0.234375 0,0.328125 -0.734375,0.328125 H 1.484375 V 0 c 0.34375,-0.03125 1,-0.03125 1.359375,-0.03125 0.359375,0 1,0 1.34375,0.03125 V -0.25 H 3.890625 c -0.71875,0 -0.71875,-0.09375 -0.71875,-0.328125 V -4.1875 c 0,-0.15625 0,-0.234375 0.15625,-0.265625 0.0625,0 0.265625,0 0.40625,0 0.390625,0 0.6875,0 0.9375,0.125 C 4.984375,-4.125 5.03125,-3.6875 5.03125,-3.65625 l 0.0625,0.546875 h 0.25 z m 0,0"
                   id="id-7395e86b-4d77-49ff-8c7e-64c0fe68bf66" />
              </symbol>
              <symbol
                 overflow="visible"
                 id="id-8abb0d54-53bc-4787-abec-cc1332a29d0e">
                <path
                   style="stroke:none;stroke-width:0"
                   d="m 2.359375,-1.5625 c 0,0 -0.046875,-0.0625 -0.046875,-0.0625 0,-0.03125 0.453125,-0.515625 0.515625,-0.578125 C 3.078125,-2.484375 3.3125,-2.75 3.875,-2.75 V -3 C 3.671875,-2.984375 3.46875,-2.96875 3.28125,-2.96875 3.078125,-2.96875 2.796875,-2.984375 2.59375,-3 v 0.25 c 0.109375,0.015625 0.140625,0.09375 0.140625,0.15625 0,0.015625 0,0.125 -0.109375,0.234375 L 2.140625,-1.8125 1.5625,-2.46875 C 1.484375,-2.546875 1.484375,-2.578125 1.484375,-2.609375 c 0,-0.09375 0.09375,-0.140625 0.1875,-0.140625 V -3 c -0.25,0.015625 -0.515625,0.03125 -0.78125,0.03125 C 0.6875,-2.96875 0.421875,-2.984375 0.21875,-3 v 0.25 c 0.3125,0 0.5,0 0.6875,0.203125 l 0.859375,1 c 0.015625,0.015625 0.0625,0.0625 0.0625,0.078125 0,0.015625 -0.53125,0.59375 -0.59375,0.671875 -0.265625,0.28125 -0.5,0.53125 -1.046875,0.546875 V 0 C 0.390625,-0.015625 0.546875,-0.03125 0.765625,-0.03125 0.96875,-0.03125 1.25,-0.015625 1.453125,0 V -0.25 C 1.375,-0.265625 1.3125,-0.3125 1.3125,-0.40625 1.3125,-0.546875 1.390625,-0.640625 1.5,-0.75 L 2,-1.296875 2.59375,-0.59375 c 0.140625,0.140625 0.140625,0.15625 0.140625,0.203125 0,0.125 -0.15625,0.140625 -0.1875,0.140625 V 0 c 0.0625,0 0.5625,-0.03125 0.78125,-0.03125 C 3.546875,-0.03125 3.78125,-0.015625 4,0 v -0.25 c -0.46875,0 -0.515625,-0.046875 -0.6875,-0.21875 z m 0,0"
                   id="id-0d967388-1d0c-46b8-85f5-12c9cf41e6aa" />
              </symbol>
            </g>
          </defs>
          <g
             id="id-7b80d147-0f94-448a-8af7-aa0f9743062d"
             transform="translate(-134.315,-127.843)">
            <g
               style="fill:#000000;fill-opacity:1"
               id="id-fd34938a-08cc-4d48-9c4d-64b87c5c53f4">
              <g
                 transform="translate(133.768,134.765)"
                 id="g73155">
                <path
                   style="stroke:none;stroke-width:0"
                   d="m 2.859375,-6.8125 c 0,0 0,-0.109375 -0.125,-0.109375 -0.234375,0 -0.953125,0.078125 -1.21875,0.109375 -0.078125,0 -0.1875,0.015625 -0.1875,0.1875 0,0.125 0.09375,0.125 0.234375,0.125 0.484375,0 0.5,0.0625 0.5,0.171875 L 2.03125,-6.125 0.59375,-0.390625 c -0.046875,0.140625 -0.046875,0.15625 -0.046875,0.21875 0,0.234375 0.203125,0.28125 0.296875,0.28125 0.15625,0 0.3125,-0.125 0.359375,-0.265625 l 0.1875,-0.75 0.21875,-0.890625 C 1.671875,-2.03125 1.734375,-2.25 1.78125,-2.46875 1.796875,-2.53125 1.890625,-2.859375 1.890625,-2.921875 1.921875,-3.015625 2.234375,-3.5625 2.578125,-3.84375 2.796875,-4 3.09375,-4.1875 3.53125,-4.1875 c 0.421875,0 0.53125,0.34375 0.53125,0.703125 0,0.53125 -0.375,1.625 -0.609375,2.234375 C 3.375,-1.03125 3.3125,-0.90625 3.3125,-0.703125 c 0,0.46875 0.359375,0.8125 0.828125,0.8125 0.9375,0 1.296875,-1.453125 1.296875,-1.53125 0,-0.109375 -0.078125,-0.109375 -0.109375,-0.109375 -0.109375,0 -0.109375,0.03125 -0.15625,0.1875 -0.140625,0.53125 -0.46875,1.234375 -1.015625,1.234375 -0.171875,0 -0.234375,-0.09375 -0.234375,-0.328125 0,-0.25 0.078125,-0.484375 0.171875,-0.703125 0.15625,-0.4375 0.609375,-1.625 0.609375,-2.203125 0,-0.640625 -0.390625,-1.0625 -1.140625,-1.0625 -0.625,0 -1.109375,0.3125 -1.484375,0.765625 z m 0,0"
                   id="id-8ec5b16e-8c49-4f87-8e7a-4a655102ac1f" />
              </g>
            </g>
            <g
               style="fill:#000000;fill-opacity:1"
               id="id-6147ef45-95e0-4884-9404-5a313d1196f4">
              <g
                 transform="translate(139.508,136.259)"
                 id="g73159">
                <path
                   style="stroke:none;stroke-width:0"
                   d="M 5.1875,-4.703125 H 0.484375 l -0.15625,1.59375 h 0.25 C 0.671875,-4.3125 0.875,-4.453125 1.9375,-4.453125 c 0.140625,0 0.34375,0 0.421875,0 0.15625,0.03125 0.15625,0.109375 0.15625,0.265625 v 3.609375 c 0,0.234375 0,0.328125 -0.734375,0.328125 H 1.484375 V 0 c 0.34375,-0.03125 1,-0.03125 1.359375,-0.03125 0.359375,0 1,0 1.34375,0.03125 V -0.25 H 3.890625 c -0.71875,0 -0.71875,-0.09375 -0.71875,-0.328125 V -4.1875 c 0,-0.15625 0,-0.234375 0.15625,-0.265625 0.0625,0 0.265625,0 0.40625,0 0.390625,0 0.6875,0 0.9375,0.125 C 4.984375,-4.125 5.03125,-3.6875 5.03125,-3.65625 l 0.0625,0.546875 h 0.25 z m 0,0"
                   id="id-079c688e-dd13-478c-a521-aaf3fde53fbc" />
              </g>
              <g
                 transform="translate(145.195,136.259)"
                 id="g73162">
                <path
                   style="stroke:none;stroke-width:0"
                   d="m 2.359375,-1.5625 c 0,0 -0.046875,-0.0625 -0.046875,-0.0625 0,-0.03125 0.453125,-0.515625 0.515625,-0.578125 C 3.078125,-2.484375 3.3125,-2.75 3.875,-2.75 V -3 C 3.671875,-2.984375 3.46875,-2.96875 3.28125,-2.96875 3.078125,-2.96875 2.796875,-2.984375 2.59375,-3 v 0.25 c 0.109375,0.015625 0.140625,0.09375 0.140625,0.15625 0,0.015625 0,0.125 -0.109375,0.234375 L 2.140625,-1.8125 1.5625,-2.46875 C 1.484375,-2.546875 1.484375,-2.578125 1.484375,-2.609375 c 0,-0.09375 0.09375,-0.140625 0.1875,-0.140625 V -3 c -0.25,0.015625 -0.515625,0.03125 -0.78125,0.03125 C 0.6875,-2.96875 0.421875,-2.984375 0.21875,-3 v 0.25 c 0.3125,0 0.5,0 0.6875,0.203125 l 0.859375,1 c 0.015625,0.015625 0.0625,0.0625 0.0625,0.078125 0,0.015625 -0.53125,0.59375 -0.59375,0.671875 -0.265625,0.28125 -0.5,0.53125 -1.046875,0.546875 V 0 C 0.390625,-0.015625 0.546875,-0.03125 0.765625,-0.03125 0.96875,-0.03125 1.25,-0.015625 1.453125,0 V -0.25 C 1.375,-0.265625 1.3125,-0.3125 1.3125,-0.40625 1.3125,-0.546875 1.390625,-0.640625 1.5,-0.75 L 2,-1.296875 2.59375,-0.59375 c 0.140625,0.140625 0.140625,0.15625 0.140625,0.203125 0,0.125 -0.15625,0.140625 -0.1875,0.140625 V 0 c 0.0625,0 0.5625,-0.03125 0.78125,-0.03125 C 3.546875,-0.03125 3.78125,-0.015625 4,0 v -0.25 c -0.46875,0 -0.515625,-0.046875 -0.6875,-0.21875 z m 0,0"
                   id="id-03f31c1f-3cf2-4434-9f56-dcbc0f69137c" />
              </g>
            </g>
          </g>
        </g>
      </g>
    </g>
    <g
       inkscape:label="Dim"
       id="g73729">
      <path
         inkscape:label="none"
         style="fill:none;stroke:#000000;stroke-width:1;stroke-linecap:round;stroke-linejoin:round;stroke-dasharray:none"
         d="m 202.01902,158.89626 h -24"
         id="path73695" />
      <path
         inkscape:label="none"
         style="fill:none;stroke:#000000;stroke-width:1;stroke-linecap:round;stroke-linejoin:round;stroke-dasharray:none"
         d="m 202.01902,115.17112 h -24"
         id="path73697" />
      <path
         inkscape:label="dim"
         style="fill:none;stroke:#000000;stroke-width:1;stroke-linecap:round;stroke-linejoin:round;stroke-dasharray:none;marker-start:url(#DimmArrow_Start_n00004);marker-end:url(#DimmArrow_End_n00004)"
         d="M 182.01902,148.89626 V 125.17112"
         id="path73699" />
      <g
         inkscape:label="Layer 1"
         inkscape:groupmode="layer"
         id="g73727"
         transform="matrix(0,-1.105994,1.105994,0,-447.6471,579.4308)">
        <g
           transform="matrix(1.33333,0,0,1.33333,390.015,554.296)"
           ns1:version="1.3.1"
           ns1:texconverter="pdflatex"
           ns1:pdfconverter="inkscape"
           ns1:text=" \\noindent $h_{\\mathrm{Rx}}$"
           ns1:preamble="/Users/hasanabbas/Library/Application Support/org.inkscape.Inkscape/config/inkscape/extensions/inkscapeMadeEasy/basicLatexPackages.tex"
           ns1:scale="1.0"
           ns1:alignment="middle center"
           ns1:inkscapeversion="1.0.1"
           ns1:jacobian_sqrt="1.33333"
           id="g73725">
          <defs
             id="id-eadfa88c-7c49-4b8e-acf9-59bcdfa6f8af">
            <g
               id="id-d7571487-458f-4435-8291-dc3b6d37df23">
              <symbol
                 overflow="visible"
                 id="id-6132f777-5d5d-4cd3-9387-858c5b0ce521">
                <path
                   style="stroke:none;stroke-width:0"
                   d=""
                   id="id-6f8c74b3-dc04-4444-b5ce-2457ab2ed457" />
              </symbol>
              <symbol
                 overflow="visible"
                 id="id-1d696b2a-2aae-4c4e-ad73-42416afaf15c">
                <path
                   style="stroke:none;stroke-width:0"
                   d="m 2.859375,-6.8125 c 0,0 0,-0.109375 -0.125,-0.109375 -0.234375,0 -0.953125,0.078125 -1.21875,0.109375 -0.078125,0 -0.1875,0.015625 -0.1875,0.1875 0,0.125 0.09375,0.125 0.234375,0.125 0.484375,0 0.5,0.0625 0.5,0.171875 L 2.03125,-6.125 0.59375,-0.390625 c -0.046875,0.140625 -0.046875,0.15625 -0.046875,0.21875 0,0.234375 0.203125,0.28125 0.296875,0.28125 0.15625,0 0.3125,-0.125 0.359375,-0.265625 l 0.1875,-0.75 0.21875,-0.890625 C 1.671875,-2.03125 1.734375,-2.25 1.78125,-2.46875 1.796875,-2.53125 1.890625,-2.859375 1.890625,-2.921875 1.921875,-3.015625 2.234375,-3.5625 2.578125,-3.84375 2.796875,-4 3.09375,-4.1875 3.53125,-4.1875 c 0.421875,0 0.53125,0.34375 0.53125,0.703125 0,0.53125 -0.375,1.625 -0.609375,2.234375 C 3.375,-1.03125 3.3125,-0.90625 3.3125,-0.703125 c 0,0.46875 0.359375,0.8125 0.828125,0.8125 0.9375,0 1.296875,-1.453125 1.296875,-1.53125 0,-0.109375 -0.078125,-0.109375 -0.109375,-0.109375 -0.109375,0 -0.109375,0.03125 -0.15625,0.1875 -0.140625,0.53125 -0.46875,1.234375 -1.015625,1.234375 -0.171875,0 -0.234375,-0.09375 -0.234375,-0.328125 0,-0.25 0.078125,-0.484375 0.171875,-0.703125 0.15625,-0.4375 0.609375,-1.625 0.609375,-2.203125 0,-0.640625 -0.390625,-1.0625 -1.140625,-1.0625 -0.625,0 -1.109375,0.3125 -1.484375,0.765625 z m 0,0"
                   id="id-2796fa39-7f7e-46c6-8c49-2c93c5c3574f" />
              </symbol>
              <symbol
                 overflow="visible"
                 id="id-6e154b37-7e83-4276-ba5c-fb3f91609d46">
                <path
                   style="stroke:none;stroke-width:0"
                   d=""
                   id="id-b643fa3c-3125-4327-a887-534da84d550c" />
              </symbol>
              <symbol
                 overflow="visible"
                 id="id-daf6a48c-04be-4d4a-8d2e-642c46960bcd">
                <path
                   style="stroke:none;stroke-width:0"
                   d="m 3.5,-2.375 c 0.625,-0.140625 1.25,-0.5625 1.25,-1.125 0,-0.6875 -0.921875,-1.265625 -2,-1.265625 H 0.40625 v 0.25 h 0.171875 c 0.53125,0 0.546875,0.078125 0.546875,0.328125 v 3.625 c 0,0.234375 -0.015625,0.3125 -0.546875,0.3125 H 0.40625 V 0 c 0,0 0.75,-0.03125 1.03125,-0.03125 0.296875,0 0.6875,0.015625 1.03125,0.03125 V -0.25 H 2.3125 C 1.765625,-0.25 1.75,-0.328125 1.75,-0.5625 v -1.71875 h 0.9375 c 0.125,0 0.484375,0 0.796875,0.28125 0.234375,0.21875 0.234375,0.390625 0.234375,0.859375 0,0.453125 0,0.734375 0.328125,1 0.296875,0.25 0.703125,0.28125 0.90625,0.28125 0.59375,0 0.734375,-0.5625 0.734375,-0.78125 0,-0.046875 0,-0.125 -0.109375,-0.125 -0.109375,0 -0.109375,0.0625 -0.125,0.125 C 5.421875,-0.234375 5.1875,-0.0625 4.96875,-0.0625 4.578125,-0.0625 4.515625,-0.46875 4.4375,-1.09375 4.359375,-1.65625 4.34375,-1.765625 4.140625,-2 4.0625,-2.078125 3.875,-2.265625 3.5,-2.375 Z M 2.65625,-2.484375 H 1.75 v -1.75 C 1.75,-4.4375 1.765625,-4.484375 1.9375,-4.5 2,-4.515625 2.234375,-4.515625 2.390625,-4.515625 3.046875,-4.515625 4,-4.515625 4,-3.5 4,-2.71875 3.40625,-2.484375 2.65625,-2.484375 Z m 0,0"
                   id="id-38fe35a2-13e8-46c6-b974-75cb442f4067" />
              </symbol>
              <symbol
                 overflow="visible"
                 id="id-6689a486-4fda-4a3a-9bf3-8f899560eb4e">
                <path
                   style="stroke:none;stroke-width:0"
                   d="m 2.359375,-1.5625 c 0,0 -0.046875,-0.0625 -0.046875,-0.0625 0,-0.03125 0.453125,-0.515625 0.515625,-0.578125 C 3.078125,-2.484375 3.3125,-2.75 3.875,-2.75 V -3 C 3.671875,-2.984375 3.46875,-2.96875 3.28125,-2.96875 3.078125,-2.96875 2.796875,-2.984375 2.59375,-3 v 0.25 c 0.109375,0.015625 0.140625,0.09375 0.140625,0.15625 0,0.015625 0,0.125 -0.109375,0.234375 L 2.140625,-1.8125 1.5625,-2.46875 C 1.484375,-2.546875 1.484375,-2.578125 1.484375,-2.609375 c 0,-0.09375 0.09375,-0.140625 0.1875,-0.140625 V -3 c -0.25,0.015625 -0.515625,0.03125 -0.78125,0.03125 C 0.6875,-2.96875 0.421875,-2.984375 0.21875,-3 v 0.25 c 0.3125,0 0.5,0 0.6875,0.203125 l 0.859375,1 c 0.015625,0.015625 0.0625,0.0625 0.0625,0.078125 0,0.015625 -0.53125,0.59375 -0.59375,0.671875 -0.265625,0.28125 -0.5,0.53125 -1.046875,0.546875 V 0 C 0.390625,-0.015625 0.546875,-0.03125 0.765625,-0.03125 0.96875,-0.03125 1.25,-0.015625 1.453125,0 V -0.25 C 1.375,-0.265625 1.3125,-0.3125 1.3125,-0.40625 1.3125,-0.546875 1.390625,-0.640625 1.5,-0.75 L 2,-1.296875 2.59375,-0.59375 c 0.140625,0.140625 0.140625,0.15625 0.140625,0.203125 0,0.125 -0.15625,0.140625 -0.1875,0.140625 V 0 c 0.0625,0 0.5625,-0.03125 0.78125,-0.03125 C 3.546875,-0.03125 3.78125,-0.015625 4,0 v -0.25 c -0.46875,0 -0.515625,-0.046875 -0.6875,-0.21875 z m 0,0"
                   id="id-517b57dd-06c1-47a0-bcdd-19ede4362898" />
              </symbol>
            </g>
          </defs>
          <g
             id="id-9fa9eccb-47de-4ba0-83d7-6282f3d23eb3"
             transform="translate(-134.315,-127.843)">
            <g
               style="fill:#000000;fill-opacity:1"
               id="id-f80391cd-33d8-40e5-948d-cc0ec85f2925">
              <g
                 transform="translate(133.768,134.765)"
                 id="g73714">
                <path
                   style="stroke:none;stroke-width:0"
                   d="m 2.859375,-6.8125 c 0,0 0,-0.109375 -0.125,-0.109375 -0.234375,0 -0.953125,0.078125 -1.21875,0.109375 -0.078125,0 -0.1875,0.015625 -0.1875,0.1875 0,0.125 0.09375,0.125 0.234375,0.125 0.484375,0 0.5,0.0625 0.5,0.171875 L 2.03125,-6.125 0.59375,-0.390625 c -0.046875,0.140625 -0.046875,0.15625 -0.046875,0.21875 0,0.234375 0.203125,0.28125 0.296875,0.28125 0.15625,0 0.3125,-0.125 0.359375,-0.265625 l 0.1875,-0.75 0.21875,-0.890625 C 1.671875,-2.03125 1.734375,-2.25 1.78125,-2.46875 1.796875,-2.53125 1.890625,-2.859375 1.890625,-2.921875 1.921875,-3.015625 2.234375,-3.5625 2.578125,-3.84375 2.796875,-4 3.09375,-4.1875 3.53125,-4.1875 c 0.421875,0 0.53125,0.34375 0.53125,0.703125 0,0.53125 -0.375,1.625 -0.609375,2.234375 C 3.375,-1.03125 3.3125,-0.90625 3.3125,-0.703125 c 0,0.46875 0.359375,0.8125 0.828125,0.8125 0.9375,0 1.296875,-1.453125 1.296875,-1.53125 0,-0.109375 -0.078125,-0.109375 -0.109375,-0.109375 -0.109375,0 -0.109375,0.03125 -0.15625,0.1875 -0.140625,0.53125 -0.46875,1.234375 -1.015625,1.234375 -0.171875,0 -0.234375,-0.09375 -0.234375,-0.328125 0,-0.25 0.078125,-0.484375 0.171875,-0.703125 0.15625,-0.4375 0.609375,-1.625 0.609375,-2.203125 0,-0.640625 -0.390625,-1.0625 -1.140625,-1.0625 -0.625,0 -1.109375,0.3125 -1.484375,0.765625 z m 0,0"
                   id="id-ed9ea0d1-d605-4583-a949-978d21117293" />
              </g>
            </g>
            <g
               style="fill:#000000;fill-opacity:1"
               id="id-ac2a8887-7c41-4c2f-8115-211c7c42f4b7">
              <g
                 transform="translate(139.508,136.259)"
                 id="g73718">
                <path
                   style="stroke:none;stroke-width:0"
                   d="m 3.5,-2.375 c 0.625,-0.140625 1.25,-0.5625 1.25,-1.125 0,-0.6875 -0.921875,-1.265625 -2,-1.265625 H 0.40625 v 0.25 h 0.171875 c 0.53125,0 0.546875,0.078125 0.546875,0.328125 v 3.625 c 0,0.234375 -0.015625,0.3125 -0.546875,0.3125 H 0.40625 V 0 c 0,0 0.75,-0.03125 1.03125,-0.03125 0.296875,0 0.6875,0.015625 1.03125,0.03125 V -0.25 H 2.3125 C 1.765625,-0.25 1.75,-0.328125 1.75,-0.5625 v -1.71875 h 0.9375 c 0.125,0 0.484375,0 0.796875,0.28125 0.234375,0.21875 0.234375,0.390625 0.234375,0.859375 0,0.453125 0,0.734375 0.328125,1 0.296875,0.25 0.703125,0.28125 0.90625,0.28125 0.59375,0 0.734375,-0.5625 0.734375,-0.78125 0,-0.046875 0,-0.125 -0.109375,-0.125 -0.109375,0 -0.109375,0.0625 -0.125,0.125 C 5.421875,-0.234375 5.1875,-0.0625 4.96875,-0.0625 4.578125,-0.0625 4.515625,-0.46875 4.4375,-1.09375 4.359375,-1.65625 4.34375,-1.765625 4.140625,-2 4.0625,-2.078125 3.875,-2.265625 3.5,-2.375 Z M 2.65625,-2.484375 H 1.75 v -1.75 C 1.75,-4.4375 1.765625,-4.484375 1.9375,-4.5 2,-4.515625 2.234375,-4.515625 2.390625,-4.515625 3.046875,-4.515625 4,-4.515625 4,-3.5 4,-2.71875 3.40625,-2.484375 2.65625,-2.484375 Z m 0,0"
                   id="id-9d9fe2b8-7beb-48bc-9e98-142d407bffeb" />
              </g>
              <g
                 transform="translate(145.292,136.259)"
                 id="g73721">
                <path
                   style="stroke:none;stroke-width:0"
                   d="m 2.359375,-1.5625 c 0,0 -0.046875,-0.0625 -0.046875,-0.0625 0,-0.03125 0.453125,-0.515625 0.515625,-0.578125 C 3.078125,-2.484375 3.3125,-2.75 3.875,-2.75 V -3 C 3.671875,-2.984375 3.46875,-2.96875 3.28125,-2.96875 3.078125,-2.96875 2.796875,-2.984375 2.59375,-3 v 0.25 c 0.109375,0.015625 0.140625,0.09375 0.140625,0.15625 0,0.015625 0,0.125 -0.109375,0.234375 L 2.140625,-1.8125 1.5625,-2.46875 C 1.484375,-2.546875 1.484375,-2.578125 1.484375,-2.609375 c 0,-0.09375 0.09375,-0.140625 0.1875,-0.140625 V -3 c -0.25,0.015625 -0.515625,0.03125 -0.78125,0.03125 C 0.6875,-2.96875 0.421875,-2.984375 0.21875,-3 v 0.25 c 0.3125,0 0.5,0 0.6875,0.203125 l 0.859375,1 c 0.015625,0.015625 0.0625,0.0625 0.0625,0.078125 0,0.015625 -0.53125,0.59375 -0.59375,0.671875 -0.265625,0.28125 -0.5,0.53125 -1.046875,0.546875 V 0 C 0.390625,-0.015625 0.546875,-0.03125 0.765625,-0.03125 0.96875,-0.03125 1.25,-0.015625 1.453125,0 V -0.25 C 1.375,-0.265625 1.3125,-0.3125 1.3125,-0.40625 1.3125,-0.546875 1.390625,-0.640625 1.5,-0.75 L 2,-1.296875 2.59375,-0.59375 c 0.140625,0.140625 0.140625,0.15625 0.140625,0.203125 0,0.125 -0.15625,0.140625 -0.1875,0.140625 V 0 c 0.0625,0 0.5625,-0.03125 0.78125,-0.03125 C 3.546875,-0.03125 3.78125,-0.015625 4,0 v -0.25 c -0.46875,0 -0.515625,-0.046875 -0.6875,-0.21875 z m 0,0"
                   id="id-6c1827d8-efb1-4611-906d-253dfdf150d2" />
              </g>
            </g>
          </g>
        </g>
      </g>
    </g>
    <g
       inkscape:label="Dim"
       id="g74045">
      <path
         inkscape:label="none"
         style="fill:none;stroke:#000000;stroke-width:1;stroke-linecap:round;stroke-linejoin:round;stroke-dasharray:none"
         d="m -49.070403,29.251927 6.7474,-23.0319907"
         id="path74016" />
      <path
         inkscape:label="none"
         style="fill:none;stroke:#000000;stroke-width:1;stroke-linecap:round;stroke-linejoin:round;stroke-dasharray:none"
         d="m 223.25285,109.03113 6.7474,-23.031986"
         id="path74018" />
      <path
         inkscape:label="dim"
         style="fill:none;stroke:#000000;stroke-width:1;stroke-linecap:round;stroke-linejoin:round;stroke-dasharray:none;marker-start:url(#DimmArrow_Start_n00005);marker-end:url(#DimmArrow_End_n00005)"
         d="M -33.850907,12.870018 219.27902,87.026393"
         id="path74020" />
      <g
         inkscape:label="Layer 1"
         inkscape:groupmode="layer"
         id="g74043"
         transform="matrix(1.0613851,0.310941,-0.310941,1.0613851,-155.3648,-676.8175)">
        <g
           transform="matrix(1.33333,0,0,1.33333,395.003,556.067)"
           ns1:version="1.3.1"
           ns1:texconverter="pdflatex"
           ns1:pdfconverter="inkscape"
           ns1:text=" \\noindent $r_1$"
           ns1:preamble="/Users/hasanabbas/Library/Application Support/org.inkscape.Inkscape/config/inkscape/extensions/inkscapeMadeEasy/basicLatexPackages.tex"
           ns1:scale="1.0"
           ns1:alignment="middle center"
           ns1:inkscapeversion="1.0.1"
           ns1:jacobian_sqrt="1.33333"
           id="g74041">
          <defs
             id="id-17a1fc61-2548-4c7a-ac37-934983c88200">
            <g
               id="id-66760709-0b87-467a-b82c-1e7ced1ae497">
              <symbol
                 overflow="visible"
                 id="id-e8266c2e-56f1-441f-a900-faa88206d731">
                <path
                   style="stroke:none;stroke-width:0"
                   d=""
                   id="id-0df46231-dc0b-4a10-926e-c16b922834f4" />
              </symbol>
              <symbol
                 overflow="visible"
                 id="id-460c1c1a-40ef-4887-ab5f-4ed6bcf1efa2">
                <path
                   style="stroke:none;stroke-width:0"
                   d="m 0.875,-0.59375 c -0.03125,0.15625 -0.09375,0.390625 -0.09375,0.4375 0,0.171875 0.140625,0.265625 0.296875,0.265625 0.125,0 0.296875,-0.078125 0.375,-0.28125 C 1.46875,-0.203125 1.796875,-1.5625 1.84375,-1.75 c 0.078125,-0.328125 0.265625,-1.015625 0.3125,-1.296875 0.046875,-0.125 0.328125,-0.59375 0.5625,-0.8125 0.078125,-0.0625 0.375,-0.328125 0.796875,-0.328125 0.265625,0 0.40625,0.125 0.421875,0.125 -0.296875,0.046875 -0.515625,0.28125 -0.515625,0.546875 0,0.15625 0.109375,0.34375 0.375,0.34375 0.265625,0 0.546875,-0.234375 0.546875,-0.59375 0,-0.34375 -0.3125,-0.640625 -0.828125,-0.640625 C 2.875,-4.40625 2.4375,-3.921875 2.25,-3.640625 2.15625,-4.09375 1.796875,-4.40625 1.328125,-4.40625 0.875,-4.40625 0.6875,-4.015625 0.59375,-3.84375 0.421875,-3.5 0.296875,-2.90625 0.296875,-2.875 c 0,0.109375 0.09375,0.109375 0.109375,0.109375 0.109375,0 0.109375,-0.015625 0.171875,-0.234375 0.171875,-0.703125 0.375,-1.1875 0.734375,-1.1875 0.15625,0 0.296875,0.078125 0.296875,0.453125 0,0.21875 -0.03125,0.328125 -0.15625,0.84375 z m 0,0"
                   id="id-db240af0-80bb-4474-a0da-0965bda46467" />
              </symbol>
              <symbol
                 overflow="visible"
                 id="id-bd0ebc38-6af5-4f2d-b1f7-c845cff0e419">
                <path
                   style="stroke:none;stroke-width:0"
                   d=""
                   id="id-0dc2fba6-d762-4ef7-ae80-2b6c2b170c06" />
              </symbol>
              <symbol
                 overflow="visible"
                 id="id-2bbc9f3f-6c33-4a1b-be7f-c3f4a3af6bfa">
                <path
                   style="stroke:none;stroke-width:0"
                   d="m 2.328125,-4.4375 c 0,-0.1875 0,-0.1875 -0.203125,-0.1875 -0.453125,0.4375 -1.078125,0.4375 -1.359375,0.4375 v 0.25 c 0.15625,0 0.625,0 1,-0.1875 v 3.546875 c 0,0.234375 0,0.328125 -0.6875,0.328125 H 0.8125 V 0 c 0.125,0 0.984375,-0.03125 1.234375,-0.03125 0.21875,0 1.09375,0.03125 1.25,0.03125 V -0.25 H 3.03125 c -0.703125,0 -0.703125,-0.09375 -0.703125,-0.328125 z m 0,0"
                   id="id-d064b12e-4a66-4c13-a544-db270db2aaf5" />
              </symbol>
            </g>
          </defs>
          <g
             id="id-27437d20-793c-43aa-851e-20b01a4905a7"
             transform="translate(-134.065,-130.359)">
            <g
               style="fill:#000000;fill-opacity:1"
               id="id-561b9ed8-1d1c-452b-a835-036ba59fb2e6">
              <g
                 transform="translate(133.768,134.765)"
                 id="g74033">
                <path
                   style="stroke:none;stroke-width:0"
                   d="m 0.875,-0.59375 c -0.03125,0.15625 -0.09375,0.390625 -0.09375,0.4375 0,0.171875 0.140625,0.265625 0.296875,0.265625 0.125,0 0.296875,-0.078125 0.375,-0.28125 C 1.46875,-0.203125 1.796875,-1.5625 1.84375,-1.75 c 0.078125,-0.328125 0.265625,-1.015625 0.3125,-1.296875 0.046875,-0.125 0.328125,-0.59375 0.5625,-0.8125 0.078125,-0.0625 0.375,-0.328125 0.796875,-0.328125 0.265625,0 0.40625,0.125 0.421875,0.125 -0.296875,0.046875 -0.515625,0.28125 -0.515625,0.546875 0,0.15625 0.109375,0.34375 0.375,0.34375 0.265625,0 0.546875,-0.234375 0.546875,-0.59375 0,-0.34375 -0.3125,-0.640625 -0.828125,-0.640625 C 2.875,-4.40625 2.4375,-3.921875 2.25,-3.640625 2.15625,-4.09375 1.796875,-4.40625 1.328125,-4.40625 0.875,-4.40625 0.6875,-4.015625 0.59375,-3.84375 0.421875,-3.5 0.296875,-2.90625 0.296875,-2.875 c 0,0.109375 0.09375,0.109375 0.109375,0.109375 0.109375,0 0.109375,-0.015625 0.171875,-0.234375 0.171875,-0.703125 0.375,-1.1875 0.734375,-1.1875 0.15625,0 0.296875,0.078125 0.296875,0.453125 0,0.21875 -0.03125,0.328125 -0.15625,0.84375 z m 0,0"
                   id="id-fa07a573-6174-4122-bd96-0cdde4f61315" />
              </g>
            </g>
            <g
               style="fill:#000000;fill-opacity:1"
               id="id-5f9b8f16-4661-426d-ae6f-609ac05f0326">
              <g
                 transform="translate(138.263,136.259)"
                 id="g74037">
                <path
                   style="stroke:none;stroke-width:0"
                   d="m 2.328125,-4.4375 c 0,-0.1875 0,-0.1875 -0.203125,-0.1875 -0.453125,0.4375 -1.078125,0.4375 -1.359375,0.4375 v 0.25 c 0.15625,0 0.625,0 1,-0.1875 v 3.546875 c 0,0.234375 0,0.328125 -0.6875,0.328125 H 0.8125 V 0 c 0.125,0 0.984375,-0.03125 1.234375,-0.03125 0.21875,0 1.09375,0.03125 1.25,0.03125 V -0.25 H 3.03125 c -0.703125,0 -0.703125,-0.09375 -0.703125,-0.328125 z m 0,0"
                   id="id-14a386c8-7a2a-4f0c-9a24-3b7571c226df" />
              </g>
            </g>
          </g>
        </g>
      </g>
    </g>
    <g
       inkscape:label="Dim"
       id="g74396">
      <path
         inkscape:label="none"
         style="fill:none;stroke:#000000;stroke-width:1;stroke-linecap:round;stroke-linejoin:round;stroke-dasharray:none"
         d="m -49.588978,35.08107 12.84125,-20.275658"
         id="path74367" />
      <path
         inkscape:label="none"
         style="fill:none;stroke:#000000;stroke-width:1;stroke-linecap:round;stroke-linejoin:round;stroke-dasharray:none"
         d="m 134.51688,151.68144 12.84125,-20.27565"
         id="path74369" />
      <path
         inkscape:label="dim"
         style="fill:none;stroke:#000000;stroke-width:1;stroke-linecap:round;stroke-linejoin:round;stroke-dasharray:none;marker-start:url(#DimmArrow_Start_n00006);marker-end:url(#DimmArrow_End_n00006)"
         d="M -30.439745,23.535209 136.76973,129.43454"
         id="path74371" />
      <g
         inkscape:label="Layer 1"
         inkscape:groupmode="layer"
         id="g74394"
         transform="matrix(0.93436483,0.59176438,-0.59176438,0.93436483,15.274814,-690.52011)">
        <g
           transform="matrix(1.33333,0,0,1.33333,394.858,556.067)"
           ns1:version="1.3.1"
           ns1:texconverter="pdflatex"
           ns1:pdfconverter="inkscape"
           ns1:text=" \\noindent $r_2$"
           ns1:preamble="/Users/hasanabbas/Library/Application Support/org.inkscape.Inkscape/config/inkscape/extensions/inkscapeMadeEasy/basicLatexPackages.tex"
           ns1:scale="1.0"
           ns1:alignment="middle center"
           ns1:inkscapeversion="1.0.1"
           ns1:jacobian_sqrt="1.33333"
           id="g74392">
          <defs
             id="id-702de114-af20-44dd-8e1a-a0d0e47367cb">
            <g
               id="id-57ba7bad-6789-49d1-b758-96154ca7c98e">
              <symbol
                 overflow="visible"
                 id="id-64fc01e6-3b50-4ed2-b74f-b37c0e41769b">
                <path
                   style="stroke:none;stroke-width:0"
                   d=""
                   id="id-8aab1a2c-f2ea-4c72-84c7-10f289629fa0" />
              </symbol>
              <symbol
                 overflow="visible"
                 id="id-2044e81a-970f-4832-8089-a88735f13491">
                <path
                   style="stroke:none;stroke-width:0"
                   d="m 0.875,-0.59375 c -0.03125,0.15625 -0.09375,0.390625 -0.09375,0.4375 0,0.171875 0.140625,0.265625 0.296875,0.265625 0.125,0 0.296875,-0.078125 0.375,-0.28125 C 1.46875,-0.203125 1.796875,-1.5625 1.84375,-1.75 c 0.078125,-0.328125 0.265625,-1.015625 0.3125,-1.296875 0.046875,-0.125 0.328125,-0.59375 0.5625,-0.8125 0.078125,-0.0625 0.375,-0.328125 0.796875,-0.328125 0.265625,0 0.40625,0.125 0.421875,0.125 -0.296875,0.046875 -0.515625,0.28125 -0.515625,0.546875 0,0.15625 0.109375,0.34375 0.375,0.34375 0.265625,0 0.546875,-0.234375 0.546875,-0.59375 0,-0.34375 -0.3125,-0.640625 -0.828125,-0.640625 C 2.875,-4.40625 2.4375,-3.921875 2.25,-3.640625 2.15625,-4.09375 1.796875,-4.40625 1.328125,-4.40625 0.875,-4.40625 0.6875,-4.015625 0.59375,-3.84375 0.421875,-3.5 0.296875,-2.90625 0.296875,-2.875 c 0,0.109375 0.09375,0.109375 0.109375,0.109375 0.109375,0 0.109375,-0.015625 0.171875,-0.234375 0.171875,-0.703125 0.375,-1.1875 0.734375,-1.1875 0.15625,0 0.296875,0.078125 0.296875,0.453125 0,0.21875 -0.03125,0.328125 -0.15625,0.84375 z m 0,0"
                   id="id-877d7018-bb46-423d-9fb1-49457016c6fa" />
              </symbol>
              <symbol
                 overflow="visible"
                 id="id-4a229de5-9948-4b12-987d-f0de1658d3ad">
                <path
                   style="stroke:none;stroke-width:0"
                   d=""
                   id="id-e09a304b-8275-4196-8b3f-7f33ee31701d" />
              </symbol>
              <symbol
                 overflow="visible"
                 id="id-faf304e9-cc10-4b7f-881a-4e18986d8c71">
                <path
                   style="stroke:none;stroke-width:0"
                   d="M 3.515625,-1.265625 H 3.28125 c -0.015625,0.15625 -0.09375,0.5625 -0.1875,0.625 C 3.046875,-0.59375 2.515625,-0.59375 2.40625,-0.59375 H 1.125 c 0.734375,-0.640625 0.984375,-0.84375 1.390625,-1.171875 0.515625,-0.40625 1,-0.84375 1,-1.5 0,-0.84375 -0.734375,-1.359375 -1.625,-1.359375 -0.859375,0 -1.453125,0.609375 -1.453125,1.25 0,0.34375 0.296875,0.390625 0.375,0.390625 0.15625,0 0.359375,-0.125 0.359375,-0.375 0,-0.125 -0.046875,-0.375 -0.40625,-0.375 C 0.984375,-4.21875 1.453125,-4.375 1.78125,-4.375 c 0.703125,0 1.0625,0.546875 1.0625,1.109375 0,0.609375 -0.4375,1.078125 -0.65625,1.328125 L 0.515625,-0.265625 C 0.4375,-0.203125 0.4375,-0.1875 0.4375,0 h 2.875 z m 0,0"
                   id="id-44eeef07-bbad-4478-a904-c0148f09ec9a" />
              </symbol>
            </g>
          </defs>
          <g
             id="id-06c9c160-3a50-4259-8cd5-1cc17c71dcef"
             transform="translate(-134.065,-130.359)">
            <g
               style="fill:#000000;fill-opacity:1"
               id="id-bbcfcd85-5aff-40fd-bae1-35c910973bf1">
              <g
                 transform="translate(133.768,134.765)"
                 id="g74384">
                <path
                   style="stroke:none;stroke-width:0"
                   d="m 0.875,-0.59375 c -0.03125,0.15625 -0.09375,0.390625 -0.09375,0.4375 0,0.171875 0.140625,0.265625 0.296875,0.265625 0.125,0 0.296875,-0.078125 0.375,-0.28125 C 1.46875,-0.203125 1.796875,-1.5625 1.84375,-1.75 c 0.078125,-0.328125 0.265625,-1.015625 0.3125,-1.296875 0.046875,-0.125 0.328125,-0.59375 0.5625,-0.8125 0.078125,-0.0625 0.375,-0.328125 0.796875,-0.328125 0.265625,0 0.40625,0.125 0.421875,0.125 -0.296875,0.046875 -0.515625,0.28125 -0.515625,0.546875 0,0.15625 0.109375,0.34375 0.375,0.34375 0.265625,0 0.546875,-0.234375 0.546875,-0.59375 0,-0.34375 -0.3125,-0.640625 -0.828125,-0.640625 C 2.875,-4.40625 2.4375,-3.921875 2.25,-3.640625 2.15625,-4.09375 1.796875,-4.40625 1.328125,-4.40625 0.875,-4.40625 0.6875,-4.015625 0.59375,-3.84375 0.421875,-3.5 0.296875,-2.90625 0.296875,-2.875 c 0,0.109375 0.09375,0.109375 0.109375,0.109375 0.109375,0 0.109375,-0.015625 0.171875,-0.234375 0.171875,-0.703125 0.375,-1.1875 0.734375,-1.1875 0.15625,0 0.296875,0.078125 0.296875,0.453125 0,0.21875 -0.03125,0.328125 -0.15625,0.84375 z m 0,0"
                   id="id-c49151a1-3b8b-4f76-ad79-bafa5af1a30e" />
              </g>
            </g>
            <g
               style="fill:#000000;fill-opacity:1"
               id="id-cac65bef-a3d5-4754-83db-51113d92f5bb">
              <g
                 transform="translate(138.263,136.259)"
                 id="g74388">
                <path
                   style="stroke:none;stroke-width:0"
                   d="M 3.515625,-1.265625 H 3.28125 c -0.015625,0.15625 -0.09375,0.5625 -0.1875,0.625 C 3.046875,-0.59375 2.515625,-0.59375 2.40625,-0.59375 H 1.125 c 0.734375,-0.640625 0.984375,-0.84375 1.390625,-1.171875 0.515625,-0.40625 1,-0.84375 1,-1.5 0,-0.84375 -0.734375,-1.359375 -1.625,-1.359375 -0.859375,0 -1.453125,0.609375 -1.453125,1.25 0,0.34375 0.296875,0.390625 0.375,0.390625 0.15625,0 0.359375,-0.125 0.359375,-0.375 0,-0.125 -0.046875,-0.375 -0.40625,-0.375 C 0.984375,-4.21875 1.453125,-4.375 1.78125,-4.375 c 0.703125,0 1.0625,0.546875 1.0625,1.109375 0,0.609375 -0.4375,1.078125 -0.65625,1.328125 L 0.515625,-0.265625 C 0.4375,-0.203125 0.4375,-0.1875 0.4375,0 h 2.875 z m 0,0"
                   id="id-032cff9e-11a8-4d14-a1c6-fc17da273a58" />
              </g>
            </g>
          </g>
        </g>
      </g>
    </g>
    <path
       style="fill:none;stroke:#000000;stroke-width:1.165;stroke-linecap:butt;stroke-linejoin:miter;stroke-miterlimit:4;stroke-dasharray:none;stroke-opacity:1;marker-end:url(#Arrow2Lend)"
       d="M 143.88329,133.58171 227.49803,89.856566"
       id="path74523" />
    <g
       inkscape:label="Dim"
       id="g75145"
       transform="translate(0,11.641668)">
      <path
         inkscape:label="none"
         style="fill:none;stroke:#000000;stroke-width:1;stroke-linecap:round;stroke-linejoin:round;stroke-dasharray:none"
         d="m -73.97531,182.51214 v -24"
         id="path75124" />
      <path
         inkscape:label="none"
         style="fill:none;stroke:#000000;stroke-width:1;stroke-linecap:round;stroke-linejoin:round;stroke-dasharray:none"
         d="m 258.18234,182.51214 v -24"
         id="path75126" />
      <path
         inkscape:label="dim"
         style="fill:none;stroke:#000000;stroke-width:1;stroke-linecap:round;stroke-linejoin:round;stroke-dasharray:none;marker-start:url(#DimmArrow_Start_n00008);marker-end:url(#DimmArrow_End_n00008)"
         d="M -63.97531,162.51214 H 248.18234"
         id="path75128" />
      <g
         inkscape:label="Layer 1"
         inkscape:groupmode="layer"
         id="g75143"
         transform="matrix(1.105994,0,0,1.105994,-350.2938,-464.17408)">
        <g
           transform="matrix(1.33333,0,0,1.33333,397.302,556.99)"
           ns1:version="1.3.1"
           ns1:texconverter="pdflatex"
           ns1:pdfconverter="inkscape"
           ns1:text=" \\noindent $r$"
           ns1:preamble="/Users/hasanabbas/Library/Application Support/org.inkscape.Inkscape/config/inkscape/extensions/inkscapeMadeEasy/basicLatexPackages.tex"
           ns1:scale="1.0"
           ns1:alignment="middle center"
           ns1:inkscapeversion="1.0.1"
           ns1:jacobian_sqrt="1.33333"
           id="g75141">
          <defs
             id="id-3a57330a-ff58-4b3e-b052-b71d7a1ce7f0">
            <g
               id="id-58b8e90c-9599-45f5-a3e6-d2e0cbbe8187">
              <symbol
                 overflow="visible"
                 id="id-19bd3e82-1642-4ec4-b312-7070be538f97">
                <path
                   style="stroke:none;stroke-width:0"
                   d=""
                   id="id-caa521c8-55bf-4771-800b-2c2640da0037" />
              </symbol>
              <symbol
                 overflow="visible"
                 id="id-8f4e1a30-b1de-4808-8579-d746f023d49a">
                <path
                   style="stroke:none;stroke-width:0"
                   d="m 0.875,-0.59375 c -0.03125,0.15625 -0.09375,0.390625 -0.09375,0.4375 0,0.171875 0.140625,0.265625 0.296875,0.265625 0.125,0 0.296875,-0.078125 0.375,-0.28125 C 1.46875,-0.203125 1.796875,-1.5625 1.84375,-1.75 c 0.078125,-0.328125 0.265625,-1.015625 0.3125,-1.296875 0.046875,-0.125 0.328125,-0.59375 0.5625,-0.8125 0.078125,-0.0625 0.375,-0.328125 0.796875,-0.328125 0.265625,0 0.40625,0.125 0.421875,0.125 -0.296875,0.046875 -0.515625,0.28125 -0.515625,0.546875 0,0.15625 0.109375,0.34375 0.375,0.34375 0.265625,0 0.546875,-0.234375 0.546875,-0.59375 0,-0.34375 -0.3125,-0.640625 -0.828125,-0.640625 C 2.875,-4.40625 2.4375,-3.921875 2.25,-3.640625 2.15625,-4.09375 1.796875,-4.40625 1.328125,-4.40625 0.875,-4.40625 0.6875,-4.015625 0.59375,-3.84375 0.421875,-3.5 0.296875,-2.90625 0.296875,-2.875 c 0,0.109375 0.09375,0.109375 0.109375,0.109375 0.109375,0 0.109375,-0.015625 0.171875,-0.234375 0.171875,-0.703125 0.375,-1.1875 0.734375,-1.1875 0.15625,0 0.296875,0.078125 0.296875,0.453125 0,0.21875 -0.03125,0.328125 -0.15625,0.84375 z m 0,0"
                   id="id-a296756c-dd88-4b64-b363-25d68745847f" />
              </symbol>
            </g>
          </defs>
          <g
             id="id-0ce69be6-f3d2-46de-8774-9d5477ae9f9f"
             transform="translate(-134.065,-130.359)">
            <g
               style="fill:#000000;fill-opacity:1"
               id="id-33b81ff1-4099-4bd2-9bfb-a7c364e05e7c">
              <g
                 transform="translate(133.768,134.765)"
                 id="g75137">
                <path
                   style="stroke:none;stroke-width:0"
                   d="m 0.875,-0.59375 c -0.03125,0.15625 -0.09375,0.390625 -0.09375,0.4375 0,0.171875 0.140625,0.265625 0.296875,0.265625 0.125,0 0.296875,-0.078125 0.375,-0.28125 C 1.46875,-0.203125 1.796875,-1.5625 1.84375,-1.75 c 0.078125,-0.328125 0.265625,-1.015625 0.3125,-1.296875 0.046875,-0.125 0.328125,-0.59375 0.5625,-0.8125 0.078125,-0.0625 0.375,-0.328125 0.796875,-0.328125 0.265625,0 0.40625,0.125 0.421875,0.125 -0.296875,0.046875 -0.515625,0.28125 -0.515625,0.546875 0,0.15625 0.109375,0.34375 0.375,0.34375 0.265625,0 0.546875,-0.234375 0.546875,-0.59375 0,-0.34375 -0.3125,-0.640625 -0.828125,-0.640625 C 2.875,-4.40625 2.4375,-3.921875 2.25,-3.640625 2.15625,-4.09375 1.796875,-4.40625 1.328125,-4.40625 0.875,-4.40625 0.6875,-4.015625 0.59375,-3.84375 0.421875,-3.5 0.296875,-2.90625 0.296875,-2.875 c 0,0.109375 0.09375,0.109375 0.109375,0.109375 0.109375,0 0.109375,-0.015625 0.171875,-0.234375 0.171875,-0.703125 0.375,-1.1875 0.734375,-1.1875 0.15625,0 0.296875,0.078125 0.296875,0.453125 0,0.21875 -0.03125,0.328125 -0.15625,0.84375 z m 0,0"
                   id="id-4a6a5014-8ca5-4a58-b50e-89d264e34588" />
              </g>
            </g>
          </g>
        </g>
      </g>
    </g>
  </g>
</svg>
