<?xml version="1.0" encoding="UTF-8" standalone="no"?>
<svg
   xmlns:dc="http://purl.org/dc/elements/1.1/"
   xmlns:cc="http://creativecommons.org/ns#"
   xmlns:rdf="http://www.w3.org/1999/02/22-rdf-syntax-ns#"
   xmlns:svg="http://www.w3.org/2000/svg"
   xmlns="http://www.w3.org/2000/svg"
   xmlns:sodipodi="http://sodipodi.sourceforge.net/DTD/sodipodi-0.dtd"
   xmlns:inkscape="http://www.inkscape.org/namespaces/inkscape"
   width="214.97929mm"
   height="91.465797mm"
   viewBox="0 0 214.97929 91.465797"
   version="1.1"
   id="svg71284"
   inkscape:version="1.0.2 (e86c8708, 2021-01-15)"
   sodipodi:docname="waves.svg">
  <defs
     id="defs71278" />
  <sodipodi:namedview
     id="base"
     pagecolor="#ffffff"
     bordercolor="#666666"
     borderopacity="1.0"
     inkscape:pageopacity="0.0"
     inkscape:pageshadow="2"
     inkscape:zoom="0.35231788"
     inkscape:cx="431.59665"
     inkscape:cy="-61.488552"
     inkscape:document-units="mm"
     inkscape:current-layer="layer1"
     inkscape:document-rotation="0"
     showgrid="false"
     fit-margin-top="0"
     fit-margin-left="0"
     fit-margin-right="0"
     fit-margin-bottom="0" />
  <metadata
     id="metadata71281">
    <rdf:RDF>
      <cc:Work
         rdf:about="">
        <dc:format>image/svg+xml</dc:format>
        <dc:type
           rdf:resource="http://purl.org/dc/dcmitype/StillImage" />
        <dc:title></dc:title>
      </cc:Work>
    </rdf:RDF>
  </metadata>
  <g
     inkscape:label="Layer 1"
     inkscape:groupmode="layer"
     id="layer1"
     transform="translate(8.3599464,-164.43551)">
    <path
       d="M 7.3860641,190.43176 206.13113,245.11915"
       style="fill:none;stroke:#000000;stroke-width:0.568736;stroke-linecap:round;stroke-linejoin:round;stroke-miterlimit:10;stroke-dasharray:none;stroke-opacity:1"
       id="path3366" />
    <path
       d="m 205.61047,243.40383 c -0.10898,0.55954 0.55331,1.62606 0.78143,1.78707 -0.29342,0.0176 -1.54354,0.55786 -1.82639,1.06956"
       style="fill:none;stroke:#000000;stroke-width:0.454981;stroke-linecap:round;stroke-linejoin:round;stroke-miterlimit:10;stroke-dasharray:none;stroke-opacity:1"
       id="path3372" />
    <path
       d="m 7.3860641,190.43176 -1.6010089,0.82478 -1.5845072,0.8211 -1.5518877,0.81374 -1.5021641,0.80254 -1.43593803,0.78766 -1.35450567,0.76931 -1.2578938,0.74757 -1.1473201,0.72268 -1.0224974,0.6946 -0.8843917,0.66349 -0.7348121,0.62984 -0.5757966,0.59405 -0.403131,0.55517 -0.2253993,0.51517 -0.0382,0.4729 0.155794,0.42939 0.3537357,0.38482 0.5555447,0.33939 0.7621081,0.29292 0.9664406,0.24691 1.1717442,0.20069 1.3770263,0.1545 1.5769527,0.1095 1.77334106,0.0653 1.96598694,0.0219 2.1487867,-0.0192 2.3255674,-0.059 2.4928336,-0.0966 2.6487245,-0.13174 2.79411,-0.16448 2.927184,-0.1944 3.046343,-0.22124 3.15338,-0.24534 3.243683,-0.26566 3.318453,-0.28248 3.379613,-0.29624 3.422367,-0.30587 3.450248,-0.31215 3.458769,-0.31406"
       style="fill:none;stroke:#990000;stroke-width:0.853115;stroke-linecap:round;stroke-linejoin:round;stroke-miterlimit:10;stroke-dasharray:none;stroke-opacity:1"
       id="path3550" />
    <path
       d="M 11.370794,191.52821 0.7189874,193.92574"
       style="fill:none;stroke:#ebcccc;stroke-width:0.284365;stroke-linecap:round;stroke-linejoin:round;stroke-miterlimit:10;stroke-dasharray:none;stroke-opacity:1"
       id="path3554" />
    <path
       d="m 15.355544,192.62466 -20.0189885,4.50592"
       style="fill:none;stroke:#ebcccc;stroke-width:0.284365;stroke-linecap:round;stroke-linejoin:round;stroke-miterlimit:10;stroke-dasharray:none;stroke-opacity:1"
       id="path3558" />
    <path
       d="M 19.340293,193.72112 -7.6311298,199.7919"
       style="fill:none;stroke:#ebcccc;stroke-width:0.284365;stroke-linecap:round;stroke-linejoin:round;stroke-miterlimit:10;stroke-dasharray:none;stroke-opacity:1"
       id="path3562" />
    <path
       d="m 23.325043,194.81757 -30.6708564,6.90347"
       style="fill:none;stroke:#ebcccc;stroke-width:0.284365;stroke-linecap:round;stroke-linejoin:round;stroke-miterlimit:10;stroke-dasharray:none;stroke-opacity:1"
       id="path3566" />
    <path
       d="M 27.309772,195.91404 -3.3610645,202.8175"
       style="fill:none;stroke:#ebcccc;stroke-width:0.284365;stroke-linecap:round;stroke-linejoin:round;stroke-miterlimit:10;stroke-dasharray:none;stroke-opacity:1"
       id="path3570" />
    <path
       d="M 31.294876,197.01059 4.3234533,203.08137"
       style="fill:none;stroke:#ebcccc;stroke-width:0.284365;stroke-linecap:round;stroke-linejoin:round;stroke-miterlimit:10;stroke-dasharray:none;stroke-opacity:1"
       id="path3574" />
    <path
       d="m 35.279627,198.10703 -20.019009,4.50593"
       style="fill:none;stroke:#ebcccc;stroke-width:0.284365;stroke-linecap:round;stroke-linejoin:round;stroke-miterlimit:10;stroke-dasharray:none;stroke-opacity:1"
       id="path3578" />
    <path
       d="m 39.264356,199.2035 -10.651827,2.39753"
       style="fill:none;stroke:#ebcccc;stroke-width:0.284365;stroke-linecap:round;stroke-linejoin:round;stroke-miterlimit:10;stroke-dasharray:none;stroke-opacity:1"
       id="path3582" />
    <path
       d="m 7.3860641,190.43176 1.1696289,-2.20881 1.1681004,-2.19277 1.1649686,-2.16099 1.160223,-2.11252 1.15391,-2.04801 1.146146,-1.9687 1.136929,-1.87455 1.126404,-1.76683 1.114481,-1.64522 1.101288,-1.51065 1.087066,-1.36496 1.07188,-1.21002 1.055431,-1.04179 1.038443,-0.86865 1.020547,-0.68563 1.002115,-0.49733 0.983252,-0.30443 0.963988,-0.10783 0.944286,0.0934 0.924798,0.29251 0.905221,0.49251 0.885642,0.69252 0.866575,0.88729 0.847865,1.07865 0.829475,1.2663 0.812041,1.44441 0.795181,1.61663 0.779228,1.77961 0.764384,1.93146 0.750475,2.07313 0.737806,2.20276 0.726465,2.31882 0.716234,2.42315 0.707622,2.5111 0.700492,2.58395 0.69466,2.64353 0.690582,2.68519 0.687943,2.71235 0.687109,2.72067"
       style="fill:none;stroke:#000099;stroke-width:0.853115;stroke-linecap:round;stroke-linejoin:round;stroke-miterlimit:10;stroke-dasharray:none;stroke-opacity:1"
       id="path3586" />
    <path
       d="M 11.370794,191.52821 12.38664,181.15066"
       style="fill:none;stroke:#cccceb;stroke-width:0.284365;stroke-linecap:round;stroke-linejoin:round;stroke-miterlimit:10;stroke-dasharray:none;stroke-opacity:1"
       id="path3590" />
    <path
       d="m 15.355544,192.62466 1.909175,-19.5035"
       style="fill:none;stroke:#cccceb;stroke-width:0.284365;stroke-linecap:round;stroke-linejoin:round;stroke-miterlimit:10;stroke-dasharray:none;stroke-opacity:1"
       id="path3594" />
    <path
       d="M 19.340293,193.72112 21.91251,167.44421"
       style="fill:none;stroke:#cccceb;stroke-width:0.284365;stroke-linecap:round;stroke-linejoin:round;stroke-miterlimit:10;stroke-dasharray:none;stroke-opacity:1"
       id="path3598" />
    <path
       d="m 23.325043,194.81757 2.925023,-29.88106"
       style="fill:none;stroke:#cccceb;stroke-width:0.284365;stroke-linecap:round;stroke-linejoin:round;stroke-miterlimit:10;stroke-dasharray:none;stroke-opacity:1"
       id="path3602" />
    <path
       d="m 27.309772,195.91404 2.925024,-29.88108"
       style="fill:none;stroke:#cccceb;stroke-width:0.284365;stroke-linecap:round;stroke-linejoin:round;stroke-miterlimit:10;stroke-dasharray:none;stroke-opacity:1"
       id="path3606" />
    <path
       d="m 31.294876,197.01059 2.572218,-26.27692"
       style="fill:none;stroke:#cccceb;stroke-width:0.284365;stroke-linecap:round;stroke-linejoin:round;stroke-miterlimit:10;stroke-dasharray:none;stroke-opacity:1"
       id="path3610" />
    <path
       d="m 35.279627,198.10703 1.909175,-19.5035"
       style="fill:none;stroke:#cccceb;stroke-width:0.284365;stroke-linecap:round;stroke-linejoin:round;stroke-miterlimit:10;stroke-dasharray:none;stroke-opacity:1"
       id="path3614" />
    <path
       d="m 39.264356,199.2035 1.015846,-10.37754"
       style="fill:none;stroke:#cccceb;stroke-width:0.284365;stroke-linecap:round;stroke-linejoin:round;stroke-miterlimit:10;stroke-dasharray:none;stroke-opacity:1"
       id="path3618" />
    <path
       d="m 43.249135,200.29965 0.694168,2.74733 0.695776,2.73069 0.69903,2.69767 0.703865,2.64826 0.710451,2.58098 0.718347,2.50012 0.727763,2.40414 0.738881,2.29054 0.750979,2.16676 0.764443,2.02942 0.779197,1.8785 0.794919,1.71829 0.811585,1.54763 0.829132,1.36858 0.84748,1.18093 0.866323,0.98865 0.885692,0.79079 0.905571,0.5877 0.925342,0.38553 0.945452,0.18029 0.965396,-0.0234 0.985223,-0.2262 1.004703,-0.42499 1.023678,-0.61885 1.042258,-0.80864 1.059853,-0.9886 1.076772,-1.16144 1.092897,-1.32595 1.107702,-1.4772 1.121488,-1.61824 1.13414,-1.74728 1.145257,-1.86085 1.155146,-1.96207 1.163477,-2.04699 1.170395,-2.11764 1.175571,-2.17074 1.179309,-2.20871 1.181301,-2.22907 1.181613,-2.23245"
       style="fill:none;stroke:#000099;stroke-width:0.853115;stroke-linecap:round;stroke-linejoin:round;stroke-miterlimit:10;stroke-dasharray:none;stroke-opacity:1"
       id="path3622" />
    <path
       d="m 47.233856,201.3964 -1.015848,10.37757"
       style="fill:none;stroke:#cccceb;stroke-width:0.284365;stroke-linecap:round;stroke-linejoin:round;stroke-miterlimit:10;stroke-dasharray:none;stroke-opacity:1"
       id="path3626" />
    <path
       d="m 51.218605,202.49287 -1.909176,19.50351"
       style="fill:none;stroke:#cccceb;stroke-width:0.284365;stroke-linecap:round;stroke-linejoin:round;stroke-miterlimit:10;stroke-dasharray:none;stroke-opacity:1"
       id="path3630" />
    <path
       d="m 55.203355,203.58932 -2.572217,26.27692"
       style="fill:none;stroke:#cccceb;stroke-width:0.284365;stroke-linecap:round;stroke-linejoin:round;stroke-miterlimit:10;stroke-dasharray:none;stroke-opacity:1"
       id="path3634" />
    <path
       d="M 59.188105,204.68577 56.26308,234.56686"
       style="fill:none;stroke:#cccceb;stroke-width:0.284365;stroke-linecap:round;stroke-linejoin:round;stroke-miterlimit:10;stroke-dasharray:none;stroke-opacity:1"
       id="path3638" />
    <path
       d="m 63.172834,205.78223 -2.925023,29.88108"
       style="fill:none;stroke:#cccceb;stroke-width:0.284365;stroke-linecap:round;stroke-linejoin:round;stroke-miterlimit:10;stroke-dasharray:none;stroke-opacity:1"
       id="path3642" />
    <path
       d="m 67.157938,206.87879 -2.572217,26.27692"
       style="fill:none;stroke:#cccceb;stroke-width:0.284365;stroke-linecap:round;stroke-linejoin:round;stroke-miterlimit:10;stroke-dasharray:none;stroke-opacity:1"
       id="path3646" />
    <path
       d="M 71.142688,207.97524 69.23351,227.47877"
       style="fill:none;stroke:#cccceb;stroke-width:0.284365;stroke-linecap:round;stroke-linejoin:round;stroke-miterlimit:10;stroke-dasharray:none;stroke-opacity:1"
       id="path3650" />
    <path
       d="m 75.127418,209.07169 -1.015847,10.37756"
       style="fill:none;stroke:#cccceb;stroke-width:0.284365;stroke-linecap:round;stroke-linejoin:round;stroke-miterlimit:10;stroke-dasharray:none;stroke-opacity:1"
       id="path3654" />
    <path
       d="m 43.248795,200.30003 3.492923,-0.31706 3.475796,-0.31319 3.441917,-0.30556 3.391223,-0.29416 3.322161,-0.27862 3.239156,-0.25991 3.140623,-0.23776 3.024029,-0.2115 2.897013,-0.18292 2.755996,-0.15121 2.601095,-0.1163 2.436682,-0.0793 2.261454,-0.0399 2.077723,0.001 1.885099,0.0448 1.687737,0.0893 1.484667,0.13498 1.276179,0.18191 1.068664,0.2286 0.85802,0.27604 0.648893,0.32309 0.440737,0.36993 0.236733,0.41587 0.03784,0.46064 -0.156996,0.50451 -0.341759,0.54606 -0.519202,0.586 -0.688041,0.62402 -0.84327,0.65895 -0.988056,0.69156 -1.120508,0.72133 -1.237082,0.7476 -1.340996,0.77099 -1.428113,0.79058 -1.500671,0.80693 -1.555172,0.81918 -1.594097,0.82795 -1.615032,0.83268 -1.618521,0.83341"
       style="fill:none;stroke:#990000;stroke-width:0.853115;stroke-linecap:round;stroke-linejoin:round;stroke-miterlimit:10;stroke-dasharray:none;stroke-opacity:1"
       id="path3658" />
    <path
       d="m 47.233856,201.3964 10.651827,-2.39753"
       style="fill:none;stroke:#ebcccc;stroke-width:0.284365;stroke-linecap:round;stroke-linejoin:round;stroke-miterlimit:10;stroke-dasharray:none;stroke-opacity:1"
       id="path3662" />
    <path
       d="m 51.218605,202.49287 20.018989,-4.50593"
       style="fill:none;stroke:#ebcccc;stroke-width:0.284365;stroke-linecap:round;stroke-linejoin:round;stroke-miterlimit:10;stroke-dasharray:none;stroke-opacity:1"
       id="path3666" />
    <path
       d="m 55.203355,203.58932 26.971443,-6.07078"
       style="fill:none;stroke:#ebcccc;stroke-width:0.284365;stroke-linecap:round;stroke-linejoin:round;stroke-miterlimit:10;stroke-dasharray:none;stroke-opacity:1"
       id="path3670" />
    <path
       d="M 59.188105,204.68577 89.85894,197.78232"
       style="fill:none;stroke:#ebcccc;stroke-width:0.284365;stroke-linecap:round;stroke-linejoin:round;stroke-miterlimit:10;stroke-dasharray:none;stroke-opacity:1"
       id="path3674" />
    <path
       d="m 63.172834,205.78223 30.670837,-6.90346"
       style="fill:none;stroke:#ebcccc;stroke-width:0.284365;stroke-linecap:round;stroke-linejoin:round;stroke-miterlimit:10;stroke-dasharray:none;stroke-opacity:1"
       id="path3678" />
    <path
       d="M 67.157938,206.87879 94.129382,200.808"
       style="fill:none;stroke:#ebcccc;stroke-width:0.284365;stroke-linecap:round;stroke-linejoin:round;stroke-miterlimit:10;stroke-dasharray:none;stroke-opacity:1"
       id="path3682" />
    <path
       d="m 71.142688,207.97524 20.018988,-4.50591"
       style="fill:none;stroke:#ebcccc;stroke-width:0.284365;stroke-linecap:round;stroke-linejoin:round;stroke-miterlimit:10;stroke-dasharray:none;stroke-opacity:1"
       id="path3686" />
    <path
       d="m 75.127418,209.07169 10.651827,-2.39753"
       style="fill:none;stroke:#ebcccc;stroke-width:0.284365;stroke-linecap:round;stroke-linejoin:round;stroke-miterlimit:10;stroke-dasharray:none;stroke-opacity:1"
       id="path3690" />
    <path
       d="m 79.112521,210.16826 -1.632917,0.8412 -1.615154,0.83724 -1.580321,0.82937 -1.528343,0.81767 -1.45678,0.80158 -1.371833,0.78246 -1.269531,0.75941 -1.151989,0.73297 -1.020195,0.70331 -0.873198,0.67023 -0.716664,0.63498 -0.548157,0.59705 -0.3666,0.55621 -0.178341,0.51384 0.01733,0.46976 0.219175,0.42436 0.429548,0.37699 0.640208,0.32957 0.85248,0.28181 1.067609,0.23337 1.280484,0.18545 1.491804,0.13791 1.699322,0.0912 1.900176,0.046 2.097228,0.002 2.284807,-0.0406 2.462186,-0.0805 2.630118,-0.11834 2.787558,-0.15375 2.931389,-0.18611 3.060661,-0.21522 3.176633,-0.24132 3.277342,-0.26401 3.361004,-0.28283 3.42878,-0.29806 3.4795,-0.3095 3.51241,-0.31691 3.52763,-0.32031 3.52544,-0.31984"
       style="fill:none;stroke:#990000;stroke-width:0.853115;stroke-linecap:round;stroke-linejoin:round;stroke-miterlimit:10;stroke-dasharray:none;stroke-opacity:1"
       id="path3694" />
    <path
       d="m 83.097272,211.26471 -10.651849,2.39754"
       style="fill:none;stroke:#ebcccc;stroke-width:0.284365;stroke-linecap:round;stroke-linejoin:round;stroke-miterlimit:10;stroke-dasharray:none;stroke-opacity:1"
       id="path3698" />
    <path
       d="m 87.082001,212.36116 -20.018989,4.50593"
       style="fill:none;stroke:#ebcccc;stroke-width:0.284365;stroke-linecap:round;stroke-linejoin:round;stroke-miterlimit:10;stroke-dasharray:none;stroke-opacity:1"
       id="path3702" />
    <path
       d="M 91.06675,213.45763 64.095327,219.5284"
       style="fill:none;stroke:#ebcccc;stroke-width:0.284365;stroke-linecap:round;stroke-linejoin:round;stroke-miterlimit:10;stroke-dasharray:none;stroke-opacity:1"
       id="path3706" />
    <path
       d="m 95.0515,214.55408 -30.670856,6.90346"
       style="fill:none;stroke:#ebcccc;stroke-width:0.284365;stroke-linecap:round;stroke-linejoin:round;stroke-miterlimit:10;stroke-dasharray:none;stroke-opacity:1"
       id="path3710" />
    <path
       d="m 99.03625,215.65053 -30.670857,6.90346"
       style="fill:none;stroke:#ebcccc;stroke-width:0.284365;stroke-linecap:round;stroke-linejoin:round;stroke-miterlimit:10;stroke-dasharray:none;stroke-opacity:1"
       id="path3714" />
    <path
       d="m 103.02133,216.74709 -26.971419,6.07077"
       style="fill:none;stroke:#ebcccc;stroke-width:0.284365;stroke-linecap:round;stroke-linejoin:round;stroke-miterlimit:10;stroke-dasharray:none;stroke-opacity:1"
       id="path3718" />
    <path
       d="m 107.00608,217.84354 -20.019005,4.50592"
       style="fill:none;stroke:#ebcccc;stroke-width:0.284365;stroke-linecap:round;stroke-linejoin:round;stroke-miterlimit:10;stroke-dasharray:none;stroke-opacity:1"
       id="path3722" />
    <path
       d="m 110.99083,218.94 -10.65182,2.39753"
       style="fill:none;stroke:#ebcccc;stroke-width:0.284365;stroke-linecap:round;stroke-linejoin:round;stroke-miterlimit:10;stroke-dasharray:none;stroke-opacity:1"
       id="path3726" />
    <path
       d="m 79.112521,210.16826 1.192911,-2.25282 1.191239,-2.23553 1.187915,-2.20158 1.182941,-2.15097 1.176112,-2.0812 1.168036,-1.9985 1.158275,-1.89878 1.147047,-1.78429 1.134477,-1.65588 1.120477,-1.51265 1.105553,-1.36019 1.089461,-1.196 1.072145,-1.01912 1.05424,-0.83579 1.035527,-0.64504 1.016281,-0.44842 0.99624,-0.24348 0.976148,-0.0382 0.955884,0.16858 0.93537,0.37815 0.91508,0.58555 0.89494,0.79144 0.87512,0.9936 0.85597,1.1893 0.83719,1.38127 0.81929,1.56398 0.80239,1.73684 0.78635,1.90044 0.77138,2.05381 0.75762,2.19396 0.7453,2.3199 0.73425,2.43285 0.72463,2.531 0.71667,2.6125 0.71019,2.67854 0.70537,2.72792 0.70221,2.76004 0.70078,2.77483 0.70097,2.77268"
       style="fill:none;stroke:#000099;stroke-width:0.853115;stroke-linecap:round;stroke-linejoin:round;stroke-miterlimit:10;stroke-dasharray:none;stroke-opacity:1"
       id="path3730" />
    <path
       d="m 83.097272,211.26471 1.015846,-10.37756"
       style="fill:none;stroke:#cccceb;stroke-width:0.284365;stroke-linecap:round;stroke-linejoin:round;stroke-miterlimit:10;stroke-dasharray:none;stroke-opacity:1"
       id="path3734" />
    <path
       d="m 87.082001,212.36116 1.909176,-19.50351"
       style="fill:none;stroke:#cccceb;stroke-width:0.284365;stroke-linecap:round;stroke-linejoin:round;stroke-miterlimit:10;stroke-dasharray:none;stroke-opacity:1"
       id="path3738" />
    <path
       d="m 91.06675,213.45763 2.572217,-26.27692"
       style="fill:none;stroke:#cccceb;stroke-width:0.284365;stroke-linecap:round;stroke-linejoin:round;stroke-miterlimit:10;stroke-dasharray:none;stroke-opacity:1"
       id="path3742" />
    <path
       d="m 95.0515,214.55408 2.925023,-29.88107"
       style="fill:none;stroke:#cccceb;stroke-width:0.284365;stroke-linecap:round;stroke-linejoin:round;stroke-miterlimit:10;stroke-dasharray:none;stroke-opacity:1"
       id="path3746" />
    <path
       d="m 99.03625,215.65053 2.92502,-29.88106"
       style="fill:none;stroke:#cccceb;stroke-width:0.284365;stroke-linecap:round;stroke-linejoin:round;stroke-miterlimit:10;stroke-dasharray:none;stroke-opacity:1"
       id="path3750" />
    <path
       d="m 103.02133,216.74709 2.57222,-26.27693"
       style="fill:none;stroke:#cccceb;stroke-width:0.284365;stroke-linecap:round;stroke-linejoin:round;stroke-miterlimit:10;stroke-dasharray:none;stroke-opacity:1"
       id="path3754" />
    <path
       d="m 107.00608,217.84354 1.90918,-19.50352"
       style="fill:none;stroke:#cccceb;stroke-width:0.284365;stroke-linecap:round;stroke-linejoin:round;stroke-miterlimit:10;stroke-dasharray:none;stroke-opacity:1"
       id="path3758" />
    <path
       d="m 110.99083,218.94 1.01585,-10.37756"
       style="fill:none;stroke:#cccceb;stroke-width:0.284365;stroke-linecap:round;stroke-linejoin:round;stroke-miterlimit:10;stroke-dasharray:none;stroke-opacity:1"
       id="path3762" />
    <path
       d="m 114.97561,220.03616 0.70788,2.80088 0.70951,2.78422 0.71302,2.74841 0.71815,2.69595 0.72498,2.62619 0.73355,2.53885 0.74354,2.43637 0.75507,2.31878 0.76794,2.18727 0.78227,2.04099 0.79773,1.88295 0.81438,1.71289 0.83191,1.53387 0.85033,1.34558 0.8695,1.14989 0.88948,0.94589 0.90974,0.73876 0.93025,0.5292 0.95103,0.31685 0.9718,0.1048 0.99267,-0.10848 1.01312,-0.31713 1.03316,-0.52208 1.05259,-0.72054 1.07141,-0.91283 1.08961,-1.09895 1.10673,-1.27365 1.12267,-1.43631 1.13755,-1.58848 1.15117,-1.72767 1.16348,-1.85362 1.17431,-1.9638 1.18345,-2.05762 1.19117,-2.13603 1.19719,-2.19776 1.20157,-2.2425 1.20414,-2.26877 1.20493,-2.27675 1.20414,-2.26876"
       style="fill:none;stroke:#000099;stroke-width:0.853115;stroke-linecap:round;stroke-linejoin:round;stroke-miterlimit:10;stroke-dasharray:none;stroke-opacity:1"
       id="path3766" />
    <path
       d="m 118.96031,221.1329 -1.01584,10.37757"
       style="fill:none;stroke:#cccceb;stroke-width:0.284365;stroke-linecap:round;stroke-linejoin:round;stroke-miterlimit:10;stroke-dasharray:none;stroke-opacity:1"
       id="path3770" />
    <path
       d="m 122.94506,222.22937 -1.90917,19.50351"
       style="fill:none;stroke:#cccceb;stroke-width:0.284365;stroke-linecap:round;stroke-linejoin:round;stroke-miterlimit:10;stroke-dasharray:none;stroke-opacity:1"
       id="path3774" />
    <path
       d="m 126.92981,223.32582 -2.57222,26.27692"
       style="fill:none;stroke:#cccceb;stroke-width:0.284365;stroke-linecap:round;stroke-linejoin:round;stroke-miterlimit:10;stroke-dasharray:none;stroke-opacity:1"
       id="path3778" />
    <path
       d="m 130.91456,224.42229 -2.92502,29.88106"
       style="fill:none;stroke:#cccceb;stroke-width:0.284365;stroke-linecap:round;stroke-linejoin:round;stroke-miterlimit:10;stroke-dasharray:none;stroke-opacity:1"
       id="path3782" />
    <path
       d="m 134.89931,225.51874 -2.92502,29.88109"
       style="fill:none;stroke:#cccceb;stroke-width:0.284365;stroke-linecap:round;stroke-linejoin:round;stroke-miterlimit:10;stroke-dasharray:none;stroke-opacity:1"
       id="path3786" />
    <path
       d="m 138.88439,226.61529 -2.57221,26.27692"
       style="fill:none;stroke:#cccceb;stroke-width:0.284365;stroke-linecap:round;stroke-linejoin:round;stroke-miterlimit:10;stroke-dasharray:none;stroke-opacity:1"
       id="path3790" />
    <path
       d="m 142.86914,227.71175 -1.90917,19.50352"
       style="fill:none;stroke:#cccceb;stroke-width:0.284365;stroke-linecap:round;stroke-linejoin:round;stroke-miterlimit:10;stroke-dasharray:none;stroke-opacity:1"
       id="path3794" />
    <path
       d="m 146.85389,228.80821 -1.01584,10.37756"
       style="fill:none;stroke:#cccceb;stroke-width:0.284365;stroke-linecap:round;stroke-linejoin:round;stroke-miterlimit:10;stroke-dasharray:none;stroke-opacity:1"
       id="path3798" />
    <path
       d="m 114.97527,220.03652 3.5611,-0.32315 3.54402,-0.31932 3.50726,-0.31103 3.45342,-0.29891 3.3818,-0.2828 3.29216,-0.26263 3.18696,-0.23894 3.06625,-0.21178 2.93129,-0.1814 2.78115,-0.1476 2.61893,-0.11107 2.44434,-0.0718 2.26063,-0.0304 2.06734,0.0132 1.86649,0.0582 1.65709,0.10541 1.44451,0.15324 1.2294,0.20167 1.01141,0.25074 0.79377,0.29971 0.57487,0.349 0.36068,0.3972 0.15026,0.44456 -0.0541,0.49038 -0.25079,0.53483 -0.44179,0.57782 -0.62111,0.61819 -0.78806,0.65576 -0.94426,0.69092 -1.08714,0.72308 -1.21639,0.75218 -1.32951,0.77762 -1.42581,0.79931 -1.50627,0.81743 -1.56965,0.83167 -1.61558,0.84204 -1.64251,0.84806 -1.65074,0.84994 -1.64249,0.84807"
       style="fill:none;stroke:#990000;stroke-width:0.853115;stroke-linecap:round;stroke-linejoin:round;stroke-miterlimit:10;stroke-dasharray:none;stroke-opacity:1"
       id="path3802" />
    <path
       d="m 118.96031,221.1329 10.65183,-2.39753"
       style="fill:none;stroke:#ebcccc;stroke-width:0.284365;stroke-linecap:round;stroke-linejoin:round;stroke-miterlimit:10;stroke-dasharray:none;stroke-opacity:1"
       id="path3806" />
    <path
       d="m 122.94506,222.22937 20.01901,-4.50592"
       style="fill:none;stroke:#ebcccc;stroke-width:0.284365;stroke-linecap:round;stroke-linejoin:round;stroke-miterlimit:10;stroke-dasharray:none;stroke-opacity:1"
       id="path3810" />
    <path
       d="m 126.92981,223.32582 26.97145,-6.07079"
       style="fill:none;stroke:#ebcccc;stroke-width:0.284365;stroke-linecap:round;stroke-linejoin:round;stroke-miterlimit:10;stroke-dasharray:none;stroke-opacity:1"
       id="path3814" />
    <path
       d="m 130.91456,224.42229 30.67084,-6.90347"
       style="fill:none;stroke:#ebcccc;stroke-width:0.284365;stroke-linecap:round;stroke-linejoin:round;stroke-miterlimit:10;stroke-dasharray:none;stroke-opacity:1"
       id="path3818" />
    <path
       d="m 134.89931,225.51874 30.67086,-6.90345"
       style="fill:none;stroke:#ebcccc;stroke-width:0.284365;stroke-linecap:round;stroke-linejoin:round;stroke-miterlimit:10;stroke-dasharray:none;stroke-opacity:1"
       id="path3822" />
    <path
       d="m 138.88439,226.61529 26.97145,-6.07079"
       style="fill:none;stroke:#ebcccc;stroke-width:0.284365;stroke-linecap:round;stroke-linejoin:round;stroke-miterlimit:10;stroke-dasharray:none;stroke-opacity:1"
       id="path3826" />
    <path
       d="m 142.86914,227.71175 20.01899,-4.50593"
       style="fill:none;stroke:#ebcccc;stroke-width:0.284365;stroke-linecap:round;stroke-linejoin:round;stroke-miterlimit:10;stroke-dasharray:none;stroke-opacity:1"
       id="path3830" />
    <path
       d="m 146.85389,228.80821 10.65183,-2.39754"
       style="fill:none;stroke:#ebcccc;stroke-width:0.284365;stroke-linecap:round;stroke-linejoin:round;stroke-miterlimit:10;stroke-dasharray:none;stroke-opacity:1"
       id="path3834" />
    <path
       d="m 150.83898,229.90475 -1.6645,0.85757 -1.64644,0.85351 -1.6084,0.84493 -1.5533,0.83253 -1.47918,0.81585 -1.38825,0.79538 -1.27924,0.77085 -1.15507,0.7429 -1.0163,0.71166 -0.86233,0.67701 -0.69633,0.63964 -0.51795,0.5995 -0.32851,0.55686 -0.13025,0.51222 0.0764,0.46573 0.28863,0.41795 0.50567,0.36909 0.72585,0.31954 0.94823,0.26948 1.17066,0.21943 1.39304,0.16935 1.61039,0.12046 1.82298,0.0726 2.03047,0.0259 2.22941,-0.0188 2.41985,-0.0617 2.60104,-0.10252 2.76993,-0.14056 2.9242,-0.17527 3.06612,-0.20721 3.19224,-0.2356 3.3031,-0.26055 3.39751,-0.28181 3.47386,-0.299 3.53248,-0.31218 3.5724,-0.32117 3.59394,-0.32601 3.59648,-0.32659 3.58095,-0.32308"
       style="fill:none;stroke:#990000;stroke-width:0.853115;stroke-linecap:round;stroke-linejoin:round;stroke-miterlimit:10;stroke-dasharray:none;stroke-opacity:1"
       id="path3838" />
    <path
       d="m 154.82373,231.00122 -10.65185,2.39753"
       style="fill:none;stroke:#ebcccc;stroke-width:0.284365;stroke-linecap:round;stroke-linejoin:round;stroke-miterlimit:10;stroke-dasharray:none;stroke-opacity:1"
       id="path3842" />
    <path
       d="m 158.80848,232.09767 -20.01901,4.50593"
       style="fill:none;stroke:#ebcccc;stroke-width:0.284365;stroke-linecap:round;stroke-linejoin:round;stroke-miterlimit:10;stroke-dasharray:none;stroke-opacity:1"
       id="path3846" />
    <path
       d="m 162.79321,233.19413 -26.97143,6.07078"
       style="fill:none;stroke:#ebcccc;stroke-width:0.284365;stroke-linecap:round;stroke-linejoin:round;stroke-miterlimit:10;stroke-dasharray:none;stroke-opacity:1"
       id="path3850" />
    <path
       d="m 166.77796,234.29059 -30.67086,6.90345"
       style="fill:none;stroke:#ebcccc;stroke-width:0.284365;stroke-linecap:round;stroke-linejoin:round;stroke-miterlimit:10;stroke-dasharray:none;stroke-opacity:1"
       id="path3854" />
    <path
       d="m 170.76271,235.38704 -30.67084,6.90346"
       style="fill:none;stroke:#ebcccc;stroke-width:0.284365;stroke-linecap:round;stroke-linejoin:round;stroke-miterlimit:10;stroke-dasharray:none;stroke-opacity:1"
       id="path3858" />
    <path
       d="m 174.74781,236.48359 -26.97144,6.07079"
       style="fill:none;stroke:#ebcccc;stroke-width:0.284365;stroke-linecap:round;stroke-linejoin:round;stroke-miterlimit:10;stroke-dasharray:none;stroke-opacity:1"
       id="path3862" />
    <path
       d="m 178.73254,237.58006 -20.01899,4.50591"
       style="fill:none;stroke:#ebcccc;stroke-width:0.284365;stroke-linecap:round;stroke-linejoin:round;stroke-miterlimit:10;stroke-dasharray:none;stroke-opacity:1"
       id="path3866" />
    <path
       d="m 182.71731,238.67651 -10.65185,2.39753"
       style="fill:none;stroke:#ebcccc;stroke-width:0.284365;stroke-linecap:round;stroke-linejoin:round;stroke-miterlimit:10;stroke-dasharray:none;stroke-opacity:1"
       id="path3870" />
    <path
       d="m 150.83898,229.90475 1.21616,-2.2965 1.21444,-2.2789 1.21081,-2.24187 1.20556,-2.18818 1.19846,-2.11593 1.18984,-2.02736 1.1794,-1.92119 1.16759,-1.80018 1.15433,-1.66501 1.13966,-1.51499 1.12383,-1.35326 1.10683,-1.17947 1.08873,-0.99492 1.06984,-0.8017 1.05013,-0.60045 1.0299,-0.39365 1.00919,-0.18223 0.9882,0.0323 0.96699,0.24896 0.94578,0.46565 0.92455,0.68229 0.90384,0.89407 0.88358,1.10116 0.86376,1.3033 0.84481,1.49716 0.82664,1.68268 0.80936,1.85921 0.79326,2.02371 0.77855,2.17405 0.76501,2.31232 0.75298,2.43515 0.74241,2.54318 0.73339,2.63517 0.72614,2.70954 0.72051,2.76666 0.71673,2.80554 0.71467,2.82654 0.71444,2.82898 0.71591,2.81388"
       style="fill:none;stroke:#000099;stroke-width:0.853115;stroke-linecap:round;stroke-linejoin:round;stroke-miterlimit:10;stroke-dasharray:none;stroke-opacity:1"
       id="path3874" />
    <path
       d="m 154.82373,231.00122 1.01585,-10.37757"
       style="fill:none;stroke:#cccceb;stroke-width:0.284365;stroke-linecap:round;stroke-linejoin:round;stroke-miterlimit:10;stroke-dasharray:none;stroke-opacity:1"
       id="path3878" />
    <path
       d="m 158.80848,232.09767 1.90917,-19.50351"
       style="fill:none;stroke:#cccceb;stroke-width:0.284365;stroke-linecap:round;stroke-linejoin:round;stroke-miterlimit:10;stroke-dasharray:none;stroke-opacity:1"
       id="path3882" />
    <path
       d="m 162.79321,233.19413 2.57221,-26.27693"
       style="fill:none;stroke:#cccceb;stroke-width:0.284365;stroke-linecap:round;stroke-linejoin:round;stroke-miterlimit:10;stroke-dasharray:none;stroke-opacity:1"
       id="path3886" />
    <path
       d="m 166.77796,234.29059 2.92502,-29.88108"
       style="fill:none;stroke:#cccceb;stroke-width:0.284365;stroke-linecap:round;stroke-linejoin:round;stroke-miterlimit:10;stroke-dasharray:none;stroke-opacity:1"
       id="path3890" />
    <path
       d="m 170.76271,235.38704 2.92502,-29.88107"
       style="fill:none;stroke:#cccceb;stroke-width:0.284365;stroke-linecap:round;stroke-linejoin:round;stroke-miterlimit:10;stroke-dasharray:none;stroke-opacity:1"
       id="path3894" />
    <path
       d="m 174.74781,236.48359 2.57222,-26.2769"
       style="fill:none;stroke:#cccceb;stroke-width:0.284365;stroke-linecap:round;stroke-linejoin:round;stroke-miterlimit:10;stroke-dasharray:none;stroke-opacity:1"
       id="path3898" />
    <path
       d="m 178.73254,237.58006 1.90918,-19.50353"
       style="fill:none;stroke:#cccceb;stroke-width:0.284365;stroke-linecap:round;stroke-linejoin:round;stroke-miterlimit:10;stroke-dasharray:none;stroke-opacity:1"
       id="path3902" />
    <path
       d="m 182.71731,238.67651 1.01585,-10.37756"
       style="fill:none;stroke:#cccceb;stroke-width:0.284365;stroke-linecap:round;stroke-linejoin:round;stroke-miterlimit:10;stroke-dasharray:none;stroke-opacity:1"
       id="path3906" />
  </g>
</svg>
