<?xml version="1.0" encoding="UTF-8" standalone="no"?>
<svg
   xmlns:dc="http://purl.org/dc/elements/1.1/"
   xmlns:cc="http://creativecommons.org/ns#"
   xmlns:rdf="http://www.w3.org/1999/02/22-rdf-syntax-ns#"
   xmlns:svg="http://www.w3.org/2000/svg"
   xmlns="http://www.w3.org/2000/svg"
   xmlns:sodipodi="http://sodipodi.sourceforge.net/DTD/sodipodi-0.dtd"
   xmlns:inkscape="http://www.inkscape.org/namespaces/inkscape"
   version="1.1"
   id="svg1821"
   xml:space="preserve"
   width="765.60791"
   height="97.08902"
   viewBox="0 0 765.60791 97.089012"
   sodipodi:docname="em methods_1.svg"
   inkscape:version="1.0.2 (e86c8708, 2021-01-15)"><metadata
     id="metadata1827"><rdf:RDF><cc:Work
         rdf:about=""><dc:format>image/svg+xml</dc:format><dc:type
           rdf:resource="http://purl.org/dc/dcmitype/StillImage" /><dc:title></dc:title></cc:Work></rdf:RDF></metadata><defs
     id="defs1825"><clipPath
       clipPathUnits="userSpaceOnUse"
       id="clipPath1839"><path
         d="m 0,695.1023 h 595 v 96.89771 H 0 Z"
         id="path1837" /></clipPath><clipPath
       clipPathUnits="userSpaceOnUse"
       id="clipPath1849"><path
         d="M 6.406461,704.712 H 588.59356 v 80.88156 H 6.406461 Z"
         id="path1847" /></clipPath><clipPath
       clipPathUnits="userSpaceOnUse"
       id="clipPath1861"><path
         d="m 153.8441,753.3909 v -4.1641 h -3.123 v 4.1641 z"
         id="path1859" /></clipPath><clipPath
       clipPathUnits="userSpaceOnUse"
       id="clipPath1867"><path
         d="M 6.406461,704.712 H 588.59356 v 80.88156 H 6.406461 Z"
         id="path1865" /></clipPath><clipPath
       clipPathUnits="userSpaceOnUse"
       id="clipPath1877"><path
         d="M 6.406461,704.712 H 588.59356 v 80.88156 H 6.406461 Z"
         id="path1875" /></clipPath><clipPath
       clipPathUnits="userSpaceOnUse"
       id="clipPath1889"><path
         d="m 482.28,753.3909 v -4.1641 h -3.1231 v 4.1641 z"
         id="path1887" /></clipPath><clipPath
       clipPathUnits="userSpaceOnUse"
       id="clipPath1895"><path
         d="M 6.406461,704.712 H 588.59356 v 80.88156 H 6.406461 Z"
         id="path1893" /></clipPath><clipPath
       clipPathUnits="userSpaceOnUse"
       id="clipPath1905"><path
         d="M 6.406461,704.712 H 588.59356 v 80.88156 H 6.406461 Z"
         id="path1903" /></clipPath><clipPath
       clipPathUnits="userSpaceOnUse"
       id="clipPath1917"><path
         d="m 39.21738,723.4509 v -4.1641 h -3.12304 v 4.1641 z"
         id="path1915" /></clipPath><clipPath
       clipPathUnits="userSpaceOnUse"
       id="clipPath1923"><path
         d="M 6.406461,704.712 H 588.59356 v 80.88156 H 6.406461 Z"
         id="path1921" /></clipPath><clipPath
       clipPathUnits="userSpaceOnUse"
       id="clipPath1933"><path
         d="M 6.406461,704.712 H 588.59356 v 80.88156 H 6.406461 Z"
         id="path1931" /></clipPath><clipPath
       clipPathUnits="userSpaceOnUse"
       id="clipPath1945"><path
         d="m 109.8139,723.4509 v -4.1641 h -3.1231 v 4.1641 z"
         id="path1943" /></clipPath><clipPath
       clipPathUnits="userSpaceOnUse"
       id="clipPath1951"><path
         d="M 6.406461,704.712 H 588.59356 v 80.88156 H 6.406461 Z"
         id="path1949" /></clipPath><clipPath
       clipPathUnits="userSpaceOnUse"
       id="clipPath1961"><path
         d="M 6.406461,704.712 H 588.59356 v 80.88156 H 6.406461 Z"
         id="path1959" /></clipPath><clipPath
       clipPathUnits="userSpaceOnUse"
       id="clipPath1973"><path
         d="m 197.8744,723.4509 v -4.1641 h -3.123 v 4.1641 z"
         id="path1971" /></clipPath><clipPath
       clipPathUnits="userSpaceOnUse"
       id="clipPath1979"><path
         d="M 6.406461,704.712 H 588.59356 v 80.88156 H 6.406461 Z"
         id="path1977" /></clipPath><clipPath
       clipPathUnits="userSpaceOnUse"
       id="clipPath1989"><path
         d="M 6.406461,704.712 H 588.59356 v 80.88156 H 6.406461 Z"
         id="path1987" /></clipPath><clipPath
       clipPathUnits="userSpaceOnUse"
       id="clipPath2001"><path
         d="m 304.009,723.4509 v -4.1641 h -3.123 v 4.1641 z"
         id="path1999" /></clipPath><clipPath
       clipPathUnits="userSpaceOnUse"
       id="clipPath2007"><path
         d="M 6.406461,704.712 H 588.59356 v 80.88156 H 6.406461 Z"
         id="path2005" /></clipPath><clipPath
       clipPathUnits="userSpaceOnUse"
       id="clipPath2017"><path
         d="M 6.406461,704.712 H 588.59356 v 80.88156 H 6.406461 Z"
         id="path2015" /></clipPath><clipPath
       clipPathUnits="userSpaceOnUse"
       id="clipPath2029"><path
         d="m 404.6756,723.4509 v -4.1641 h -3.123 v 4.1641 z"
         id="path2027" /></clipPath><clipPath
       clipPathUnits="userSpaceOnUse"
       id="clipPath2035"><path
         d="M 6.406461,704.712 H 588.59356 v 80.88156 H 6.406461 Z"
         id="path2033" /></clipPath><clipPath
       clipPathUnits="userSpaceOnUse"
       id="clipPath2045"><path
         d="M 6.406461,704.712 H 588.59356 v 80.88156 H 6.406461 Z"
         id="path2043" /></clipPath><clipPath
       clipPathUnits="userSpaceOnUse"
       id="clipPath2057"><path
         d="m 482.28,723.4509 v -4.1641 h -3.1231 v 4.1641 z"
         id="path2055" /></clipPath><clipPath
       clipPathUnits="userSpaceOnUse"
       id="clipPath2063"><path
         d="M 6.406461,704.712 H 588.59356 v 80.88156 H 6.406461 Z"
         id="path2061" /></clipPath><clipPath
       clipPathUnits="userSpaceOnUse"
       id="clipPath2073"><path
         d="M 6.406461,704.712 H 588.59356 v 80.88156 H 6.406461 Z"
         id="path2071" /></clipPath><clipPath
       clipPathUnits="userSpaceOnUse"
       id="clipPath2085"><path
         d="m 552.0089,723.4509 v -4.1641 h -3.123 v 4.1641 z"
         id="path2083" /></clipPath><clipPath
       clipPathUnits="userSpaceOnUse"
       id="clipPath2091"><path
         d="M 6.406461,704.712 H 588.59356 v 80.88156 H 6.406461 Z"
         id="path2089" /></clipPath><clipPath
       clipPathUnits="userSpaceOnUse"
       id="clipPath2101"><path
         d="M 6.406461,704.712 H 588.59356 v 80.88156 H 6.406461 Z"
         id="path2099" /></clipPath></defs><sodipodi:namedview
     pagecolor="#ffffff"
     bordercolor="#666666"
     borderopacity="1"
     objecttolerance="10"
     gridtolerance="10"
     guidetolerance="10"
     inkscape:pageopacity="0"
     inkscape:pageshadow="2"
     inkscape:window-width="640"
     inkscape:window-height="480"
     id="namedview1823"
     showgrid="false"
     fit-margin-top="0"
     fit-margin-left="0"
     fit-margin-right="0"
     fit-margin-bottom="0"
     inkscape:zoom="1.8992874"
     inkscape:cx="445.0246"
     inkscape:cy="94.679502"
     inkscape:current-layer="g1829" /><g
     id="g1829"
     inkscape:groupmode="layer"
     inkscape:label="em methods_1"
     transform="matrix(1.3333333,0,0,-1.3333333,-12.011992,1040.2308)"><g
       id="g1831" /><g
       id="g1843"><g
         id="g1845"
         clip-path="url(#clipPath1849)"><g
           id="g1851"
           transform="matrix(0.3470047,0,0,-0.3470047,6.406461,782.7757)"><path
             d="M 705.7656,27.635129 H 420.3867 V 94.28125"
             style="fill:none;stroke:#333333;stroke-width:1.5;stroke-linecap:butt;stroke-linejoin:miter;stroke-miterlimit:4;stroke-dasharray:none;stroke-opacity:1"
             id="path1853"
             sodipodi:nodetypes="ccc" /></g></g></g><g
       id="g1855"><g
         id="g1857"
         clip-path="url(#clipPath1861)"><g
           id="g1863"
           clip-path="url(#clipPath1867)"><path
             d="m 153.8441,752.8704 -1.5615,-3.1231 -1.5615,3.1231 z"
             style="fill:#333333;fill-opacity:1;fill-rule:nonzero;stroke:none"
             id="path1869" /></g></g></g><g
       id="g1871"><g
         id="g1873"
         clip-path="url(#clipPath1877)"><g
           id="g1879"
           transform="matrix(0.3470047,0,0,-0.3470047,6.406461,782.7757)"><path
             d="m 954.6094,28.957732 h 237.3907 l 174.8749,0.175913 V 94.28125"
             style="fill:none;stroke:#333333;stroke-width:1.5;stroke-linecap:butt;stroke-linejoin:miter;stroke-miterlimit:4;stroke-dasharray:none;stroke-opacity:1"
             id="path1881"
             sodipodi:nodetypes="cccc" /></g></g></g><g
       id="g1883"><g
         id="g1885"
         clip-path="url(#clipPath1889)"><g
           id="g1891"
           clip-path="url(#clipPath1895)"><path
             d="m 482.28,752.8704 -1.5615,-3.1231 -1.5616,3.1231 z"
             style="fill:#333333;fill-opacity:1;fill-rule:nonzero;stroke:none"
             id="path1897" /></g></g></g><g
       id="g1899"><g
         id="g1901"
         clip-path="url(#clipPath1905)"><g
           id="g1907"
           transform="matrix(0.3470047,0,0,-0.3470047,6.406461,782.7757)"><path
             d="M 363.8945,119.7996 90.05469,155.5625 v 25"
             style="fill:none;stroke:#333333;stroke-width:1.5;stroke-linecap:butt;stroke-linejoin:miter;stroke-miterlimit:4;stroke-dasharray:none;stroke-opacity:1"
             id="path1909" /></g></g></g><g
       id="g1911"><g
         id="g1913"
         clip-path="url(#clipPath1917)"><g
           id="g1919"
           clip-path="url(#clipPath1923)"><path
             d="m 39.21738,722.9304 -1.56152,-3.1231 -1.56152,3.1231 z"
             style="fill:#333333;fill-opacity:1;fill-rule:nonzero;stroke:none"
             id="path1925" /></g></g></g><g
       id="g1927"><g
         id="g1929"
         clip-path="url(#clipPath1933)"><g
           id="g1935"
           transform="matrix(0.3470047,0,0,-0.3470047,6.406461,782.7757)"><path
             d="m 367.0309,130.5625 -73.5309,25 v 25"
             style="fill:none;stroke:#333333;stroke-width:1.5;stroke-linecap:butt;stroke-linejoin:miter;stroke-miterlimit:4;stroke-dasharray:none;stroke-opacity:1"
             id="path1937" /></g></g></g><g
       id="g1939"><g
         id="g1941"
         clip-path="url(#clipPath1945)"><g
           id="g1947"
           clip-path="url(#clipPath1951)"><path
             d="m 109.8139,722.9304 -1.5616,-3.1231 -1.5615,3.1231 z"
             style="fill:#333333;fill-opacity:1;fill-rule:nonzero;stroke:none"
             id="path1953" /></g></g></g><g
       id="g1955"><g
         id="g1957"
         clip-path="url(#clipPath1961)"><g
           id="g1963"
           transform="matrix(0.3470047,0,0,-0.3470047,6.406461,782.7757)"><path
             d="m 473.7426,130.5625 73.5308,25 v 25"
             style="fill:none;stroke:#333333;stroke-width:1.5;stroke-linecap:butt;stroke-linejoin:miter;stroke-miterlimit:4;stroke-dasharray:none;stroke-opacity:1"
             id="path1965" /></g></g></g><g
       id="g1967"><g
         id="g1969"
         clip-path="url(#clipPath1973)"><g
           id="g1975"
           clip-path="url(#clipPath1979)"><path
             d="m 197.8744,722.9304 -1.5615,-3.1231 -1.5615,3.1231 z"
             style="fill:#333333;fill-opacity:1;fill-rule:nonzero;stroke:none"
             id="path1981" /></g></g></g><g
       id="g1983"><g
         id="g1985"
         clip-path="url(#clipPath1989)"><g
           id="g1991"
           transform="matrix(0.3470047,0,0,-0.3470047,6.406461,782.7757)"><path
             d="m 476.8789,118.0536 376.2539,37.5089 v 25"
             style="fill:none;stroke:#333333;stroke-width:1.5;stroke-linecap:butt;stroke-linejoin:miter;stroke-miterlimit:4;stroke-dasharray:none;stroke-opacity:1"
             id="path1993" /></g></g></g><g
       id="g1995"><g
         id="g1997"
         clip-path="url(#clipPath2001)"><g
           id="g2003"
           clip-path="url(#clipPath2007)"><path
             d="m 304.009,722.9304 -1.5615,-3.1231 -1.5615,3.1231 z"
             style="fill:#333333;fill-opacity:1;fill-rule:nonzero;stroke:none"
             id="path2009" /></g></g></g><g
       id="g2011"><g
         id="g2013"
         clip-path="url(#clipPath2017)"><g
           id="g2019"
           transform="matrix(0.3470047,0,0,-0.3470047,6.406461,782.7757)"><path
             d="m 1308.977,123.5906 -165.743,31.9719 v 25"
             style="fill:none;stroke:#333333;stroke-width:1.5;stroke-linecap:butt;stroke-linejoin:miter;stroke-miterlimit:4;stroke-dasharray:none;stroke-opacity:1"
             id="path2021" /></g></g></g><g
       id="g2023"><g
         id="g2025"
         clip-path="url(#clipPath2029)"><g
           id="g2031"
           clip-path="url(#clipPath2035)"><path
             d="m 404.6756,722.9304 -1.5615,-3.1231 -1.5615,3.1231 z"
             style="fill:#333333;fill-opacity:1;fill-rule:nonzero;stroke:none"
             id="path2037" /></g></g></g><g
       id="g2039"><g
         id="g2041"
         clip-path="url(#clipPath2045)"><g
           id="g2047"
           transform="matrix(0.3470047,0,0,-0.3470047,6.406461,782.7757)"><path
             d="m 1366.875,130.5625 v 25 25"
             style="fill:none;stroke:#333333;stroke-width:1.5;stroke-linecap:butt;stroke-linejoin:miter;stroke-miterlimit:4;stroke-dasharray:none;stroke-opacity:1"
             id="path2049" /></g></g></g><g
       id="g2051"><g
         id="g2053"
         clip-path="url(#clipPath2057)"><g
           id="g2059"
           clip-path="url(#clipPath2063)"><path
             d="m 482.28,722.9304 -1.5615,-3.1231 -1.5616,3.1231 z"
             style="fill:#333333;fill-opacity:1;fill-rule:nonzero;stroke:none"
             id="path2065" /></g></g></g><g
       id="g2067"><g
         id="g2069"
         clip-path="url(#clipPath2073)"><g
           id="g2075"
           transform="matrix(0.3470047,0,0,-0.3470047,6.406461,782.7757)"><path
             d="m 1424.773,124.852 143.047,30.7105 v 25"
             style="fill:none;stroke:#333333;stroke-width:1.5;stroke-linecap:butt;stroke-linejoin:miter;stroke-miterlimit:4;stroke-dasharray:none;stroke-opacity:1"
             id="path2077" /></g></g></g><g
       id="g2079"><g
         id="g2081"
         clip-path="url(#clipPath2085)"><g
           id="g2087"
           clip-path="url(#clipPath2091)"><path
             d="m 552.0089,722.9304 -1.5615,-3.1231 -1.5615,3.1231 z"
             style="fill:#333333;fill-opacity:1;fill-rule:nonzero;stroke:none"
             id="path2093" /></g></g></g><g
       id="g2095"><g
         id="g2097"
         clip-path="url(#clipPath2101)"><path
           d="m 251.3104,779.9996 h 86.35 v -12.5897 h -86.35 z"
           style="fill:#ececff;fill-opacity:1;fill-rule:nonzero;stroke:none"
           id="path2103" /><g
           id="g2105"
           transform="matrix(0.3470047,0,0,-0.3470047,294.4854,773.7047)"><path
             d="M -124.4219,-18.14062 H 124.4219 V 18.14062 H -124.4219 Z"
             style="fill:none;stroke:#9370db;stroke-width:1;stroke-linecap:butt;stroke-linejoin:miter;stroke-miterlimit:4;stroke-dasharray:none;stroke-opacity:1"
             id="path2107" /></g><g
           id="g2109"
           transform="matrix(0.8008075,0,0,-0.8008075,254.7805,776.5296)"><text
             transform="translate(0.4333184,6.066458)"
             style="font-variant:normal;font-weight:normal;font-size:6px;font-family:'Trebuchet MS';-inkscape-font-specification:TrebuchetMS;writing-mode:lr-tb;fill:#333333;fill-opacity:1;fill-rule:nonzero;stroke:none"
             id="text2113"><tspan
               x="0 3.2135999 4.9829998 8.2553997 11.226 13.605 15.9372 19.156799 24.1374 27.289801 30.3018 33.5802 36.8526 39.231602 40.942799 43.913399 45.721199 48.607201 50.318401 55.299 58.5774 60.346802 63.499199 65.878197 67.589401 70.808998 74.087402 75.895203 80.152199 83.424599 85.803596 89.082001 92.301598 95.644203"
               y="0"
               sodipodi:role="line"
               id="tspan2111">Electromagnetic Simulation Methods</tspan></text></g><path
           d="m 132.6796,750.0596 h 39.2061 v -12.5897 h -39.2061 z"
           style="fill:#ececff;fill-opacity:1;fill-rule:nonzero;stroke:none"
           id="path2115" /><g
           id="g2117"
           transform="matrix(0.3470047,0,0,-0.3470047,152.2826,743.7647)"><path
             d="M -56.49219,-18.14062 H 56.49219 V 18.14062 H -56.49219 Z"
             style="fill:none;stroke:#9370db;stroke-width:1;stroke-linecap:butt;stroke-linejoin:miter;stroke-miterlimit:4;stroke-dasharray:none;stroke-opacity:1"
             id="path2119" /></g><g
           id="g2121"
           transform="matrix(0.8008075,0,0,-0.8008075,136.1496,746.5896)"><text
             transform="translate(0.4333184,6.066458)"
             style="font-variant:normal;font-weight:normal;font-size:6px;font-family:'Trebuchet MS';-inkscape-font-specification:TrebuchetMS;writing-mode:lr-tb;fill:#333333;fill-opacity:1;fill-rule:nonzero;stroke:none"
             id="text2125"><tspan
               x="0 3.0378001 6.2556 10.7214 12.9252 15.141 17.4708 20.742599 24.086399 27.364201 30.636 33.913799 36.885601"
               y="0"
               sodipodi:role="line"
               id="tspan2123">Low-frequency</tspan></text></g><path
           d="m 460.6274,750.0596 h 40.1821 v -12.5897 h -40.1821 z"
           style="fill:#ececff;fill-opacity:1;fill-rule:nonzero;stroke:none"
           id="path2127" /><g
           id="g2129"
           transform="matrix(0.3470047,0,0,-0.3470047,480.7185,743.7647)"><path
             d="M -57.89844,-18.14062 H 57.89844 V 18.14062 H -57.89844 Z"
             style="fill:none;stroke:#9370db;stroke-width:1;stroke-linecap:butt;stroke-linejoin:miter;stroke-miterlimit:4;stroke-dasharray:none;stroke-opacity:1"
             id="path2131" /></g><g
           id="g2133"
           transform="matrix(0.8008075,0,0,-0.8008075,464.0975,746.5896)"><text
             transform="translate(0.4333184,6.066458)"
             style="font-variant:normal;font-weight:normal;font-size:6px;font-family:'Trebuchet MS';-inkscape-font-specification:TrebuchetMS;writing-mode:lr-tb;fill:#333333;fill-opacity:1;fill-rule:nonzero;stroke:none"
             id="text2137"><tspan
               x="0 3.9258001 5.6370001 8.6490002 11.9274 14.1306 16.3482 18.680401 21.952801 25.295401 28.573799 31.846201 35.124599 38.0952"
               y="0"
               sodipodi:role="line"
               id="tspan2135">High-frequency</tspan></text></g><path
           d="M 9.182498,720.1196 H 66.12922 V 707.5299 H 9.182498 Z"
           style="fill:#ececff;fill-opacity:1;fill-rule:nonzero;stroke:none"
           id="path2139" /><g
           id="g2141"
           transform="matrix(0.3470047,0,0,-0.3470047,37.65586,713.8247)"><path
             d="M -82.05469,-18.14062 H 82.05469 V 18.14062 H -82.05469 Z"
             style="fill:none;stroke:#9370db;stroke-width:1;stroke-linecap:butt;stroke-linejoin:miter;stroke-miterlimit:4;stroke-dasharray:none;stroke-opacity:1"
             id="path2143" /></g><g
           id="g2145"
           transform="matrix(0.8008075,0,0,-0.8008075,12.65254,716.6496)"><text
             transform="translate(0.4333184,6.066458)"
             style="font-variant:normal;font-weight:normal;font-size:6px;font-family:'Trebuchet MS';-inkscape-font-specification:TrebuchetMS;writing-mode:lr-tb;fill:#333333;fill-opacity:1;fill-rule:nonzero;stroke:none"
             id="text2149"><tspan
               x="0 3.1494 4.8587999 8.1401997 9.8495998 12.231 15.5064 17.3118 20.527201 22.2966 25.572001 30.551399 33.826801 37.1082 39.489601 41.294998 46.274399 49.549801 51.931198 55.212601 58.433998"
               y="0"
               sodipodi:role="line"
               id="tspan2147">Finite Element method</tspan></text></g><path
           d="M 83.47945,720.1196 H 133.0252 V 707.5299 H 83.47945 Z"
           style="fill:#ececff;fill-opacity:1;fill-rule:nonzero;stroke:none"
           id="path2151" /><g
           id="g2153"
           transform="matrix(0.3470047,0,0,-0.3470047,108.2523,713.8247)"><path
             d="M -71.39062,-18.14062 H 71.39063 V 18.14062 H -71.39062 Z"
             style="fill:none;stroke:#9370db;stroke-width:1;stroke-linecap:butt;stroke-linejoin:miter;stroke-miterlimit:4;stroke-dasharray:none;stroke-opacity:1"
             id="path2155" /></g><g
           id="g2157"
           transform="matrix(0.8008075,0,0,-0.8008075,86.9495,716.6496)"><text
             transform="translate(0.4333184,6.066458)"
             style="font-variant:normal;font-weight:normal;font-size:6px;font-family:'Trebuchet MS';-inkscape-font-specification:TrebuchetMS;writing-mode:lr-tb;fill:#333333;fill-opacity:1;fill-rule:nonzero;stroke:none"
             id="text2161"><tspan
               x="0 4.257 7.5300002 9.9090004 13.188 16.407 19.752001 21.561001 24.780001 26.997 28.806 33.063 36.282001 41.264999 44.537998 47.817001 50.195999"
               y="0"
               sodipodi:role="line"
               id="tspan2159">Method of Moments</tspan></text></g><path
           d="m 150.3754,720.1196 h 91.875 v -12.5897 h -91.875 z"
           style="fill:#ececff;fill-opacity:1;fill-rule:nonzero;stroke:none"
           id="path2163" /><g
           id="g2165"
           transform="matrix(0.3470047,0,0,-0.3470047,196.3129,713.8247)"><path
             d="M -132.3828,-18.14062 H 132.3828 V 18.14062 H -132.3828 Z"
             style="fill:none;stroke:#9370db;stroke-width:1;stroke-linecap:butt;stroke-linejoin:miter;stroke-miterlimit:4;stroke-dasharray:none;stroke-opacity:1"
             id="path2167" /></g><g
           id="g2169"
           transform="matrix(0.8008075,0,0,-0.8008075,153.8455,716.6496)"><text
             transform="translate(0.4333184,6.066458)"
             style="font-variant:normal;font-weight:normal;font-size:6px;font-family:'Trebuchet MS';-inkscape-font-specification:TrebuchetMS;writing-mode:lr-tb;fill:#333333;fill-opacity:1;fill-rule:nonzero;stroke:none"
             id="text2173"><tspan
               x="0 3.1494 4.8587999 8.1401997 9.8495998 12.231 15.5064 17.3118 20.989201 22.698601 24.917999 27.1374 30.4128 32.746201 36.021599 39.303001 42.2724 45.547798 47.353199 50.586601 52.296001 57.275398 60.5508 62.356201 66.0336 69.254997 74.234398 77.389801 79.099197 82.3806 84.185997 89.165398 92.440804 94.822197 98.1036 101.325"
               y="0"
               sodipodi:role="line"
               id="tspan2171">Finite Difference Time Domain method</tspan></text></g><path
           d="m 259.6006,720.1196 h 85.6939 v -12.5897 h -85.6939 z"
           style="fill:#ececff;fill-opacity:1;fill-rule:nonzero;stroke:none"
           id="path2175" /><g
           id="g2177"
           transform="matrix(0.3470047,0,0,-0.3470047,302.4475,713.8247)"><path
             d="M -123.4766,-18.14062 H 123.4766 V 18.14062 H -123.4766 Z"
             style="fill:none;stroke:#9370db;stroke-width:1;stroke-linecap:butt;stroke-linejoin:miter;stroke-miterlimit:4;stroke-dasharray:none;stroke-opacity:1"
             id="path2179" /></g><g
           id="g2181"
           transform="matrix(0.8008075,0,0,-0.8008075,263.0706,716.6496)"><text
             transform="translate(0.4333184,6.066458)"
             style="font-variant:normal;font-weight:normal;font-size:6px;font-family:'Trebuchet MS';-inkscape-font-specification:TrebuchetMS;writing-mode:lr-tb;fill:#333333;fill-opacity:1;fill-rule:nonzero;stroke:none"
             id="text2185"><tspan
               x="0 2.8241999 5.1564002 8.3087997 11.5872 14.016 18.996599 20.7078 23.1366 25.565399 27.2766 30.496201 33.774601 35.582401 38.620201 40.331402 43.609798 46.882198 48.689999 52.946999 56.166599 59.509201 62.781601 64.551003 66.320396 68.031601 71.309998 74.321999 76.129799 81.110397 84.382797 86.761803 90.040199 93.259804"
               y="0"
               sodipodi:role="line"
               id="tspan2183">Transmission Line Modelling method</tspan></text></g><path
           d="m 362.6447,720.1196 h 80.9388 v -12.5897 h -80.9388 z"
           style="fill:#ececff;fill-opacity:1;fill-rule:nonzero;stroke:none"
           id="path2187" /><g
           id="g2189"
           transform="matrix(0.3470047,0,0,-0.3470047,403.1141,713.8247)"><path
             d="m -116.625,-18.14062 h 233.25 v 36.28124 h -233.25 z"
             style="fill:none;stroke:#9370db;stroke-width:1;stroke-linecap:butt;stroke-linejoin:miter;stroke-miterlimit:4;stroke-dasharray:none;stroke-opacity:1"
             id="path2191" /></g><g
           id="g2193"
           transform="matrix(0.8008075,0,0,-0.8008075,366.1148,716.6496)"><text
             transform="translate(0.4333184,6.066458)"
             style="font-variant:normal;font-weight:normal;font-size:6px;font-family:'Trebuchet MS';-inkscape-font-specification:TrebuchetMS;writing-mode:lr-tb;fill:#333333;fill-opacity:1;fill-rule:nonzero;stroke:none"
             id="text2197"><tspan
               x="0 4.0577998 7.3295999 10.5474 15.5292 18.801001 21.178801 23.5086 25.2204 28.1922 31.344 33.115799 34.923599 38.405399 41.683201 44.955002 48.172798 50.502602 53.462399 55.270199 58.487999 60.7038 62.5116 66.191399 67.903198 70.119003 72.334801 74.664597 77.816399 80.7882 83.166 84.8778 88.095596"
               y="0"
               sodipodi:role="line"
               id="tspan2195">Geometrical Theory of Diffraction</tspan></text></g><path
           d="m 460.9338,720.1196 h 39.5694 v -12.5897 h -39.5694 z"
           style="fill:#ececff;fill-opacity:1;fill-rule:nonzero;stroke:none"
           id="path2199" /><g
           id="g2201"
           transform="matrix(0.3470047,0,0,-0.3470047,480.7185,713.8247)"><path
             d="M -57.01562,-18.14062 H 57.01562 V 18.14062 H -57.01562 Z"
             style="fill:none;stroke:#9370db;stroke-width:1;stroke-linecap:butt;stroke-linejoin:miter;stroke-miterlimit:4;stroke-dasharray:none;stroke-opacity:1"
             id="path2203" /></g><g
           id="g2205"
           transform="matrix(0.8008075,0,0,-0.8008075,464.4038,716.6496)"><text
             transform="translate(0.4333184,6.066458)"
             style="font-variant:normal;font-weight:normal;font-size:6px;font-family:'Trebuchet MS';-inkscape-font-specification:TrebuchetMS;writing-mode:lr-tb;fill:#333333;fill-opacity:1;fill-rule:nonzero;stroke:none"
             id="text2209"><tspan
               x="0 3.0641999 6.3443999 9.3065996 11.7348 13.449 16.4172 19.5714 21.3396 23.149799 27.191999 30.5322 32.912399 34.626598 37.594799"
               y="0"
               sodipodi:role="line"
               id="tspan2207">Physical Optics</tspan></text></g><path
           d="m 517.8534,720.1196 h 65.1881 v -12.5897 h -65.1881 z"
           style="fill:#ececff;fill-opacity:1;fill-rule:nonzero;stroke:none"
           id="path2211" /><g
           id="g2213"
           transform="matrix(0.3470047,0,0,-0.3470047,550.4474,713.8247)"><path
             d="M -93.92969,-18.14062 H 93.92969 V 18.14062 H -93.92969 Z"
             style="fill:none;stroke:#9370db;stroke-width:1;stroke-linecap:butt;stroke-linejoin:miter;stroke-miterlimit:4;stroke-dasharray:none;stroke-opacity:1"
             id="path2215" /></g><g
           id="g2217"
           transform="matrix(0.8008075,0,0,-0.8008075,521.3234,716.6496)"><text
             transform="translate(0.4333184,6.066458)"
             style="font-variant:normal;font-weight:normal;font-size:6px;font-family:'Trebuchet MS';-inkscape-font-specification:TrebuchetMS;writing-mode:lr-tb;fill:#333333;fill-opacity:1;fill-rule:nonzero;stroke:none"
             id="text2221"><tspan
               x="0 3.0641999 6.2184 8.5506001 11.7048 15.045 18.2652 20.0334 21.747601 24.715799 26.525999 29.7402 33.080399 36.3606 39.514801 41.895 43.6092 46.829399 50.1096 51.9198 56.178001 59.452202 61.832401 65.112602 68.332802"
               y="0"
               sodipodi:role="line"
               id="tspan2219">Parabolic Equation Method</tspan></text></g></g></g></g></svg>
