<?xml version="1.0" encoding="UTF-8" standalone="no"?>
<svg
   xmlns:dc="http://purl.org/dc/elements/1.1/"
   xmlns:cc="http://creativecommons.org/ns#"
   xmlns:rdf="http://www.w3.org/1999/02/22-rdf-syntax-ns#"
   xmlns:svg="http://www.w3.org/2000/svg"
   xmlns="http://www.w3.org/2000/svg"
   xmlns:sodipodi="http://sodipodi.sourceforge.net/DTD/sodipodi-0.dtd"
   xmlns:inkscape="http://www.inkscape.org/namespaces/inkscape"
   version="1.1"
   id="svg1518"
   xml:space="preserve"
   width="7.8727851in"
   height="1.8243089in"
   viewBox="0 0 755.78737 175.13365"
   sodipodi:docname="em methods.svg"
   inkscape:version="1.0.2 (e86c8708, 2021-01-15)"><metadata
     id="metadata1524"><rdf:RDF><cc:Work
         rdf:about=""><dc:format>image/svg+xml</dc:format><dc:type
           rdf:resource="http://purl.org/dc/dcmitype/StillImage" /><dc:title></dc:title></cc:Work></rdf:RDF></metadata><defs
     id="defs1522"><clipPath
       clipPathUnits="userSpaceOnUse"
       id="clipPath1536"><path
         d="M 0,630.2369 H 595 V 792 H 0 Z"
         id="path1534" /></clipPath><clipPath
       clipPathUnits="userSpaceOnUse"
       id="clipPath1546"><path
         d="M 6.406461,639.8466 H 588.59356 v 145.747 H 6.406461 Z"
         id="path1544" /></clipPath><clipPath
       clipPathUnits="userSpaceOnUse"
       id="clipPath1558"><path
         d="m 129.7399,727.5803 v -7.5113 h -5.6335 v 7.5113 z"
         id="path1556" /></clipPath><clipPath
       clipPathUnits="userSpaceOnUse"
       id="clipPath1564"><path
         d="M 6.406461,639.8466 H 588.59356 v 145.747 H 6.406461 Z"
         id="path1562" /></clipPath><clipPath
       clipPathUnits="userSpaceOnUse"
       id="clipPath1574"><path
         d="M 6.406461,639.8466 H 588.59356 v 145.747 H 6.406461 Z"
         id="path1572" /></clipPath><clipPath
       clipPathUnits="userSpaceOnUse"
       id="clipPath1586"><path
         d="m 437.9656,727.5803 v -7.5113 h -5.6335 v 7.5113 z"
         id="path1584" /></clipPath><clipPath
       clipPathUnits="userSpaceOnUse"
       id="clipPath1592"><path
         d="M 6.406461,639.8466 H 588.59356 v 145.747 H 6.406461 Z"
         id="path1590" /></clipPath><clipPath
       clipPathUnits="userSpaceOnUse"
       id="clipPath1602"><path
         d="M 6.406461,639.8466 H 588.59356 v 145.747 H 6.406461 Z"
         id="path1600" /></clipPath><clipPath
       clipPathUnits="userSpaceOnUse"
       id="clipPath1614"><path
         d="m 66.06727,673.5732 v -7.5113 h -5.63349 v 7.5113 z"
         id="path1612" /></clipPath><clipPath
       clipPathUnits="userSpaceOnUse"
       id="clipPath1620"><path
         d="M 6.406461,639.8466 H 588.59356 v 145.747 H 6.406461 Z"
         id="path1618" /></clipPath><clipPath
       clipPathUnits="userSpaceOnUse"
       id="clipPath1630"><path
         d="M 6.406461,639.8466 H 588.59356 v 145.747 H 6.406461 Z"
         id="path1628" /></clipPath><clipPath
       clipPathUnits="userSpaceOnUse"
       id="clipPath1642"><path
         d="m 193.4125,673.5732 v -7.5113 h -5.6335 v 7.5113 z"
         id="path1640" /></clipPath><clipPath
       clipPathUnits="userSpaceOnUse"
       id="clipPath1648"><path
         d="M 6.406461,639.8466 H 588.59356 v 145.747 H 6.406461 Z"
         id="path1646" /></clipPath><clipPath
       clipPathUnits="userSpaceOnUse"
       id="clipPath1658"><path
         d="M 6.406461,639.8466 H 588.59356 v 145.747 H 6.406461 Z"
         id="path1656" /></clipPath><clipPath
       clipPathUnits="userSpaceOnUse"
       id="clipPath1670"><path
         d="m 352.2603,673.5732 v -7.5113 h -5.6335 v 7.5113 z"
         id="path1668" /></clipPath><clipPath
       clipPathUnits="userSpaceOnUse"
       id="clipPath1676"><path
         d="M 6.406461,639.8466 H 588.59356 v 145.747 H 6.406461 Z"
         id="path1674" /></clipPath><clipPath
       clipPathUnits="userSpaceOnUse"
       id="clipPath1686"><path
         d="M 6.406461,639.8466 H 588.59356 v 145.747 H 6.406461 Z"
         id="path1684" /></clipPath><clipPath
       clipPathUnits="userSpaceOnUse"
       id="clipPath1698"><path
         d="m 523.6709,673.5732 v -7.5113 h -5.6335 v 7.5113 z"
         id="path1696" /></clipPath><clipPath
       clipPathUnits="userSpaceOnUse"
       id="clipPath1704"><path
         d="M 6.406461,639.8466 H 588.59356 v 145.747 H 6.406461 Z"
         id="path1702" /></clipPath><clipPath
       clipPathUnits="userSpaceOnUse"
       id="clipPath1714"><path
         d="M 6.406461,639.8466 H 588.59356 v 145.747 H 6.406461 Z"
         id="path1712" /></clipPath></defs><sodipodi:namedview
     pagecolor="#ffffff"
     bordercolor="#666666"
     borderopacity="1"
     objecttolerance="10"
     gridtolerance="10"
     guidetolerance="10"
     inkscape:pageopacity="0"
     inkscape:pageshadow="2"
     inkscape:window-width="640"
     inkscape:window-height="480"
     id="namedview1520"
     showgrid="false"
     fit-margin-top="0"
     fit-margin-left="0"
     fit-margin-right="0"
     fit-margin-bottom="0"
     units="in"
     inkscape:zoom="1.6436975"
     inkscape:cx="398.26679"
     inkscape:cy="164.23707"
     inkscape:current-layer="g1526" /><g
     id="g1526"
     inkscape:groupmode="layer"
     inkscape:label="em methods"
     transform="matrix(1.3333333,0,0,-1.3333333,-15.434631,1034.5218)"><g
       id="g1528" /><g
       id="g1540"><g
         id="g1542"
         clip-path="url(#clipPath1546)"><g
           id="g1548"
           transform="matrix(0.6259432,0,0,-0.6259432,6.8814,780.586)"><path
             d="m 359.1484,41.91105 -167.3711,27.3702 v 25"
             style="fill:none;stroke:#333333;stroke-width:1.5;stroke-linecap:butt;stroke-linejoin:miter;stroke-miterlimit:4;stroke-dasharray:none;stroke-opacity:1"
             id="path1550" /></g></g></g><g
       id="g1552"><g
         id="g1554"
         clip-path="url(#clipPath1558)"><g
           id="g1560"
           clip-path="url(#clipPath1564)"><path
             d="m 129.7399,726.6414 -2.8168,-5.6335 -2.8167,5.6335 z"
             style="fill:#333333;fill-opacity:1;fill-rule:nonzero;stroke:none"
             id="path1566" /></g></g></g><g
       id="g1568"><g
         id="g1570"
         clip-path="url(#clipPath1574)"><g
           id="g1576"
           transform="matrix(0.6259432,0,0,-0.6259432,6.8814,780.586)"><path
             d="m 551.7161,44.28125 132.4792,25 v 25"
             style="fill:none;stroke:#333333;stroke-width:1.5;stroke-linecap:butt;stroke-linejoin:miter;stroke-miterlimit:4;stroke-dasharray:none;stroke-opacity:1"
             id="path1578" /></g></g></g><g
       id="g1580"><g
         id="g1582"
         clip-path="url(#clipPath1586)"><g
           id="g1588"
           clip-path="url(#clipPath1592)"><path
             d="m 437.9656,726.6414 -2.8168,-5.6335 -2.8167,5.6335 z"
             style="fill:#333333;fill-opacity:1;fill-rule:nonzero;stroke:none"
             id="path1594" /></g></g></g><g
       id="g1596"><g
         id="g1598"
         clip-path="url(#clipPath1602)"><g
           id="g1604"
           transform="matrix(0.6259432,0,0,-0.6259432,6.8814,780.586)"><path
             d="m 149.003,130.5625 -58.94831,25 v 25"
             style="fill:none;stroke:#333333;stroke-width:1.5;stroke-linecap:butt;stroke-linejoin:miter;stroke-miterlimit:4;stroke-dasharray:none;stroke-opacity:1"
             id="path1606" /></g></g></g><g
       id="g1608"><g
         id="g1610"
         clip-path="url(#clipPath1614)"><g
           id="g1616"
           clip-path="url(#clipPath1620)"><path
             d="m 66.06727,672.6343 -2.81675,-5.6335 -2.81674,5.6335 z"
             style="fill:#333333;fill-opacity:1;fill-rule:nonzero;stroke:none"
             id="path1622" /></g></g></g><g
       id="g1624"><g
         id="g1626"
         clip-path="url(#clipPath1630)"><g
           id="g1632"
           transform="matrix(0.6259432,0,0,-0.6259432,6.8814,780.586)"><path
             d="m 234.5517,130.5625 58.9483,25 v 25"
             style="fill:none;stroke:#333333;stroke-width:1.5;stroke-linecap:butt;stroke-linejoin:miter;stroke-miterlimit:4;stroke-dasharray:none;stroke-opacity:1"
             id="path1634" /></g></g></g><g
       id="g1636"><g
         id="g1638"
         clip-path="url(#clipPath1642)"><g
           id="g1644"
           clip-path="url(#clipPath1648)"><path
             d="m 193.4125,672.6343 -2.8168,-5.6335 -2.8167,5.6335 z"
             style="fill:#333333;fill-opacity:1;fill-rule:nonzero;stroke:none"
             id="path1650" /></g></g></g><g
       id="g1652"><g
         id="g1654"
         clip-path="url(#clipPath1658)"><g
           id="g1660"
           transform="matrix(0.6259432,0,0,-0.6259432,6.8814,780.586)"><path
             d="m 633.0391,128.5399 -85.7657,27.0226 v 25"
             style="fill:none;stroke:#333333;stroke-width:1.5;stroke-linecap:butt;stroke-linejoin:miter;stroke-miterlimit:4;stroke-dasharray:none;stroke-opacity:1"
             id="path1662" /></g></g></g><g
       id="g1664"><g
         id="g1666"
         clip-path="url(#clipPath1670)"><g
           id="g1672"
           clip-path="url(#clipPath1676)"><path
             d="m 352.2603,672.6343 -2.8168,-5.6335 -2.8167,5.6335 z"
             style="fill:#333333;fill-opacity:1;fill-rule:nonzero;stroke:none"
             id="path1678" /></g></g></g><g
       id="g1680"><g
         id="g1682"
         clip-path="url(#clipPath1686)"><g
           id="g1688"
           transform="matrix(0.6259432,0,0,-0.6259432,6.8814,780.586)"><path
             d="m 735.3516,128.5399 85.7656,27.0226 v 25"
             style="fill:none;stroke:#333333;stroke-width:1.5;stroke-linecap:butt;stroke-linejoin:miter;stroke-miterlimit:4;stroke-dasharray:none;stroke-opacity:1"
             id="path1690" /></g></g></g><g
       id="g1692"><g
         id="g1694"
         clip-path="url(#clipPath1698)"><g
           id="g1700"
           clip-path="url(#clipPath1704)"><path
             d="m 523.6709,672.6343 -2.8167,-5.6335 -2.8168,5.6335 z"
             style="fill:#333333;fill-opacity:1;fill-rule:nonzero;stroke:none"
             id="path1706" /></g></g></g><g
       id="g1708"><g
         id="g1710"
         clip-path="url(#clipPath1714)"><path
           d="m 231.6879,775.5784 h 120.7288 v -22.71 H 231.6879 Z"
           style="fill:#ececff;fill-opacity:1;fill-rule:nonzero;stroke:none"
           id="path1716" /><g
           id="g1718"
           transform="matrix(0.6259432,0,0,-0.6259432,292.0523,764.2234)"><path
             d="M -96.4375,-18.14062 H 96.4375 V 18.14063 H -96.4375 Z"
             style="fill:none;stroke:#9370db;stroke-width:1;stroke-linecap:butt;stroke-linejoin:miter;stroke-miterlimit:4;stroke-dasharray:none;stroke-opacity:1"
             id="path1720" /></g><g
           id="g1722"
           transform="matrix(0.8008075,0,0,-0.8008075,237.9474,769.319)"><text
             transform="translate(0.7816401,10.94296)"
             style="font-variant:normal;font-weight:normal;font-size:11px;font-family:'Trebuchet MS';-inkscape-font-specification:TrebuchetMS;writing-mode:lr-tb;fill:#333333;fill-opacity:1;fill-rule:nonzero;stroke:none"
             id="text1726"><tspan
               x="0 5.8916001 9.1355 15.1349 20.580999 24.942499 29.218201 35.1208 44.2519 50.0313 55.553299 61.563702 67.563103 71.924599 75.061798 80.507896 83.822197 89.113197 92.250397 101.3815 107.3919 110.6358 116.4152 120.7767 123.9139 129.8165"
               y="0"
               sodipodi:role="line"
               id="tspan1724"
               dx="0 0 0 0.5697853">Electromagnetic Simulation</tspan></text></g><path
           d="m 84.37855,721.5713 h 85.08915 v -22.71 H 84.37855 Z"
           style="fill:#ececff;fill-opacity:1;fill-rule:nonzero;stroke:none"
           id="path1728" /><g
           id="g1730"
           transform="matrix(0.6259432,0,0,-0.6259432,126.9231,710.2163)"><path
             d="M -67.96875,-18.14062 H 67.96875 V 18.14062 H -67.96875 Z"
             style="fill:none;stroke:#9370db;stroke-width:1;stroke-linecap:butt;stroke-linejoin:miter;stroke-miterlimit:4;stroke-dasharray:none;stroke-opacity:1"
             id="path1732" /></g><g
           id="g1734"
           transform="matrix(0.8008075,0,0,-0.8008075,90.63798,715.3119)"><text
             transform="translate(0.7816401,10.94296)"
             style="font-variant:normal;font-weight:normal;font-size:11px;font-family:'Trebuchet MS';-inkscape-font-specification:TrebuchetMS;writing-mode:lr-tb;fill:#333333;fill-opacity:1;fill-rule:nonzero;stroke:none"
             id="text1738"><tspan
               x="0 5.7739 10.0518 16.0567 22.1826 28.1985 34.2034 40.219299 45.6632 51.085098 54.395 61.136902 67.042801 76.1717 81.956596 85.0905"
               y="0"
               sodipodi:role="line"
               id="tspan1736">Frequency Domain</tspan></text></g><path
           d="m 403.1279,721.5713 h 64.0418 v -22.71 h -64.0418 z"
           style="fill:#ececff;fill-opacity:1;fill-rule:nonzero;stroke:none"
           id="path1740" /><g
           id="g1742"
           transform="matrix(0.6259432,0,0,-0.6259432,435.1488,710.2163)"><path
             d="M -51.15625,-18.14062 H 51.15625 V 18.14062 H -51.15625 Z"
             style="fill:none;stroke:#9370db;stroke-width:1;stroke-linecap:butt;stroke-linejoin:miter;stroke-miterlimit:4;stroke-dasharray:none;stroke-opacity:1"
             id="path1744" /></g><g
           id="g1746"
           transform="matrix(0.8008075,0,0,-0.8008075,409.3874,715.3119)"><text
             transform="translate(0.7816401,10.94296)"
             style="font-variant:normal;font-weight:normal;font-size:11px;font-family:'Trebuchet MS';-inkscape-font-specification:TrebuchetMS;writing-mode:lr-tb;fill:#333333;fill-opacity:1;fill-rule:nonzero;stroke:none"
             id="text1750"><tspan
               x="0 5.9301 9.0662003 18.1973 24.193399 27.505501 34.249599 40.1577 49.288799 55.064899 58.201"
               y="0"
               sodipodi:role="line"
               id="tspan1748">Time Domain</tspan></text></g><path
           d="M 11.88895,667.5641 H 114.6121 v -22.71 H 11.88895 Z"
           style="fill:#ececff;fill-opacity:1;fill-rule:nonzero;stroke:none"
           id="path1752" /><g
           id="g1754"
           transform="matrix(0.6259432,0,0,-0.6259432,63.25052,656.2091)"><path
             d="M -82.05469,-18.14062 H 82.05469 V 18.14063 H -82.05469 Z"
             style="fill:none;stroke:#9370db;stroke-width:1;stroke-linecap:butt;stroke-linejoin:miter;stroke-miterlimit:4;stroke-dasharray:none;stroke-opacity:1"
             id="path1756" /></g><g
           id="g1758"
           transform="matrix(0.8008075,0,0,-0.8008075,18.14838,661.3047)"><text
             transform="translate(0.7816401,10.94296)"
             style="font-variant:normal;font-weight:normal;font-size:11px;font-family:'Trebuchet MS';-inkscape-font-specification:TrebuchetMS;writing-mode:lr-tb;fill:#333333;fill-opacity:1;fill-rule:nonzero;stroke:none"
             id="text1762"><tspan
               x="0 5.7739 8.9077997 14.9237 18.0576 22.4235 28.4284 31.7383 37.633202 40.877102 46.882 56.010899 62.0158 68.0317 72.397598 75.707497 84.836403 90.841301 95.207199 101.2231 107.129"
               y="0"
               sodipodi:role="line"
               id="tspan1760">Finite Element method</tspan></text></g><path
           d="m 145.9093,667.5641 h 89.3729 v -22.71 h -89.3729 z"
           style="fill:#ececff;fill-opacity:1;fill-rule:nonzero;stroke:none"
           id="path1764" /><g
           id="g1766"
           transform="matrix(0.6259432,0,0,-0.6259432,190.5957,656.2091)"><path
             d="M -71.39062,-18.14062 H 71.39062 V 18.14063 H -71.39062 Z"
             style="fill:none;stroke:#9370db;stroke-width:1;stroke-linecap:butt;stroke-linejoin:miter;stroke-miterlimit:4;stroke-dasharray:none;stroke-opacity:1"
             id="path1768" /></g><g
           id="g1770"
           transform="matrix(0.8008075,0,0,-0.8008075,152.1687,661.3047)"><text
             transform="translate(0.7816401,10.94296)"
             style="font-variant:normal;font-weight:normal;font-size:11px;font-family:'Trebuchet MS';-inkscape-font-specification:TrebuchetMS;writing-mode:lr-tb;fill:#333333;fill-opacity:1;fill-rule:nonzero;stroke:none"
             id="text1774"><tspan
               x="0 7.8045001 13.805 18.1665 24.177999 30.0795 36.212002 39.5285 45.43 49.494499 52.811001 60.615501 66.516998 75.652496 81.653 87.664497 92.026001"
               y="0"
               sodipodi:role="line"
               id="tspan1772">Method of Moments</tspan></text></g><path
           d="m 266.5794,667.5641 h 165.7282 v -22.71 H 266.5794 Z"
           style="fill:#ececff;fill-opacity:1;fill-rule:nonzero;stroke:none"
           id="path1776" /><g
           id="g1778"
           transform="matrix(0.6259432,0,0,-0.6259432,349.4435,656.2091)"><path
             d="M -132.3828,-18.14062 H 132.3828 V 18.14063 H -132.3828 Z"
             style="fill:none;stroke:#9370db;stroke-width:1;stroke-linecap:butt;stroke-linejoin:miter;stroke-miterlimit:4;stroke-dasharray:none;stroke-opacity:1"
             id="path1780" /></g><g
           id="g1782"
           transform="matrix(0.8008075,0,0,-0.8008075,272.8388,661.3047)"><text
             transform="translate(0.7816401,10.94296)"
             style="font-variant:normal;font-weight:normal;font-size:11px;font-family:'Trebuchet MS';-inkscape-font-specification:TrebuchetMS;writing-mode:lr-tb;fill:#333333;fill-opacity:1;fill-rule:nonzero;stroke:none"
             id="text1786"><tspan
               x="0 5.7739 8.9077997 14.9237 18.0576 22.4235 28.4284 31.7383 38.480202 41.614101 45.682999 49.7519 55.756802 60.034698 66.039597 72.055496 77.499397 83.504303 86.814201 92.742104 95.875999 105.0049 111.0098 114.3197 121.0616 126.9675 136.09641 141.8813 145.0152 151.0311 154.341 163.46989 169.47479 173.8407 179.8566 185.7625"
               y="0"
               sodipodi:role="line"
               id="tspan1784">Finite Difference Time Domain method</tspan></text></g><path
           d="m 463.6048,667.5641 h 114.4987 v -22.71 H 463.6048 Z"
           style="fill:#ececff;fill-opacity:1;fill-rule:nonzero;stroke:none"
           id="path1788" /><g
           id="g1790"
           transform="matrix(0.6259432,0,0,-0.6259432,520.8542,656.2091)"><path
             d="M -91.46094,-18.14062 H 91.46094 V 18.14063 H -91.46094 Z"
             style="fill:none;stroke:#9370db;stroke-width:1;stroke-linecap:butt;stroke-linejoin:miter;stroke-miterlimit:4;stroke-dasharray:none;stroke-opacity:1"
             id="path1792" /></g><g
           id="g1794"
           transform="matrix(0.8008075,0,0,-0.8008075,469.8642,661.3047)"><text
             transform="translate(0.7816401,10.94296)"
             style="font-variant:normal;font-weight:normal;font-size:11px;font-family:'Trebuchet MS';-inkscape-font-specification:TrebuchetMS;writing-mode:lr-tb;fill:#333333;fill-opacity:1;fill-rule:nonzero;stroke:none"
             id="text1798"><tspan
               x="0 5.1777 9.4533997 15.2361 21.2498 25.7015 34.828201 37.970901 42.4226 46.874298 50.016998 55.9207 61.934399 65.253098 70.826797 73.969498 79.9832 85.985901 89.304604 98.431297 104.434 108.7977 114.8114 120.7151"
               y="0"
               sodipodi:role="line"
               id="tspan1796">Transmission Line method</tspan></text></g></g></g></g></svg>
