<?xml version="1.0" encoding="UTF-8" standalone="no"?>
<svg
   xmlns:dc="http://purl.org/dc/elements/1.1/"
   xmlns:cc="http://creativecommons.org/ns#"
   xmlns:rdf="http://www.w3.org/1999/02/22-rdf-syntax-ns#"
   xmlns:svg="http://www.w3.org/2000/svg"
   xmlns="http://www.w3.org/2000/svg"
   xmlns:sodipodi="http://sodipodi.sourceforge.net/DTD/sodipodi-0.dtd"
   xmlns:inkscape="http://www.inkscape.org/namespaces/inkscape"
   xml:space="preserve"
   width="1979.5431"
   height="968.62427"
   style="fill-rule:evenodd;image-rendering:optimizeQuality;shape-rendering:geometricPrecision;text-rendering:geometricPrecision"
   viewBox="0 0 1979.5431 970.4147"
   version="1.1"
   id="svg3100"
   sodipodi:docname="mesh fdtd.svg"
   inkscape:version="1.0.2 (e86c8708, 2021-01-15)"><metadata
   id="metadata3104"><rdf:RDF><cc:Work
       rdf:about=""><dc:format>image/svg+xml</dc:format><dc:type
         rdf:resource="http://purl.org/dc/dcmitype/StillImage" /><dc:title></dc:title></cc:Work></rdf:RDF></metadata><sodipodi:namedview
   pagecolor="#ffffff"
   bordercolor="#666666"
   borderopacity="1"
   objecttolerance="10"
   gridtolerance="10"
   guidetolerance="10"
   inkscape:pageopacity="0"
   inkscape:pageshadow="2"
   inkscape:window-width="640"
   inkscape:window-height="480"
   id="namedview3102"
   showgrid="false"
   fit-margin-top="0"
   fit-margin-left="0"
   fit-margin-right="0"
   fit-margin-bottom="0"
   showguides="false"
   inkscape:zoom="0.39175258"
   inkscape:cx="885.07827"
   inkscape:cy="807.63466"
   inkscape:current-layer="svg3100" />
 <defs
   id="defs3065">
  <style
   type="text/css"
   id="style3063">
   <![CDATA[
    .str0 {stroke:#000000;stroke-width:2}
    .fil1 {fill:none}
    .fil0 {fill:#FF00FE}
   ]]>
  </style>
 </defs>
 
<g
   id="g3419"
   transform="translate(1017.5638,2.2069407)"><g
     id="Layer 1"
     transform="translate(406.44547,439.00041)"
     style="stroke:#000000;stroke-opacity:1">
  <path
   class="fil0 str0"
   d="M 75,525 C 340,525 557,309 557,44 H 75 Z"
   id="path3067"
   style="stroke:#000000;stroke-opacity:1" />
  <path
   class="fil1 str0"
   d="m 159,129 37,-85 58,94 61,-94 47,75 75,-75 51,73 68,-41 -58,-32 -10,73 -16,90 26,67 -77,-28 59,58 -77,5 37,49 h -74 l -3,72 -49,-40 -9,77 -50,-58 19,74 -64,-27 -1,51 L 151,468 75,407 135,341 75,284 176,223 75,165 Z"
   id="path3069"
   style="stroke:#000000;stroke-opacity:1" />
  <path
   class="fil1 str0"
   d="m 75,104 58,-60 26,85 95,9 108,-19 75,45 -16,82 -18,63 -37,49 -52,32 -59,19 -84,9 -96,-11"
   id="path3071"
   style="stroke:#000000;stroke-opacity:1" />
  <path
   class="fil1 str0"
   d="m 242,496 -32,-40 -59,12 -42,56 -34,-58 76,2 20,-50 39,38 45,-47 -33,-72 107,-21 20,-110 -90,51 23,-62 -106,28 78,-85 28,57 80,-76 -13,87 88,-43 51,-46 50,61 -66,29 -52,39 -71,-40 54,103 -74,7 -14,74 -93,-53 -51,81 -36,-77 41,-52 V 223 L 159,129 75,104"
   id="path3073"
   style="stroke:#000000;stroke-opacity:1" />
  <path
   class="fil1 str0"
   d="m 390,408 -24,-49 -37,-43 -69,-59 -38,80 -46,-48 84,-32 -84,-34 -101,-1"
   id="path3075"
   style="stroke:#000000;stroke-opacity:1" />
  <path
   class="fil1 str0"
   d="m 75,284 101,5"
   id="path3077"
   style="stroke:#000000;stroke-opacity:1" />
  <path
   class="fil1 str0"
   d="m 135,341 87,-4"
   id="path3079"
   style="stroke:#000000;stroke-opacity:1" />
  <path
   class="fil1 str0"
   d="m 141,521 10,-53 24,47"
   id="path3081"
   style="stroke:#000000;stroke-opacity:1" />
  <path
   class="fil1 str0"
   d="M 336,448 314,390"
   id="path3083"
   style="stroke:#000000;stroke-opacity:1" />
  <path
   class="fil1 str0"
   d="M 415,384 366,358"
   id="path3085"
   style="stroke:#000000;stroke-opacity:1" />
  <path
   class="fil1 str0"
   d="M 460,333 403,309"
   id="path3087"
   style="stroke:#000000;stroke-opacity:1" />
  <path
   class="fil1 str0"
   d="m 513,244 -41,-37 54,6"
   id="path3089"
   style="stroke:#000000;stroke-opacity:1" />
  <path
   class="fil1 str0"
   d="m 546,145 -58,-28 64,-4"
   id="path3091"
   style="stroke:#000000;stroke-opacity:1" />
  <path
   class="fil1 str0"
   d="M 349,206 282,195"
   id="path3093"
   style="stroke:#000000;stroke-opacity:1" />
  <path
   class="fil1 str0"
   d="M 254,138 V 44"
   id="path3095"
   style="stroke:#000000;stroke-opacity:1" />
  <path
   class="fil1 str0"
   d="M 472,207 437,163 V 44"
   id="path3097"
   style="stroke:#000000;stroke-opacity:1" />
 </g><g
     id="g3138"
     transform="rotate(90,58.722528,466.72294)"
     style="stroke:#000000;stroke-width:2.30225;stroke-miterlimit:4;stroke-dasharray:none;stroke-opacity:1">
  <path
   class="fil0 str0"
   d="M 75,525 C 340,525 557,309 557,44 H 75 Z"
   id="path3106"
   style="stroke:#000000;stroke-width:2.30225;stroke-miterlimit:4;stroke-dasharray:none;stroke-opacity:1" />
  <path
   class="fil1 str0"
   d="m 159,129 37,-85 58,94 61,-94 47,75 75,-75 51,73 68,-41 -58,-32 -10,73 -16,90 26,67 -77,-28 59,58 -77,5 37,49 h -74 l -3,72 -49,-40 -9,77 -50,-58 19,74 -64,-27 -1,51 L 151,468 75,407 135,341 75,284 176,223 75,165 Z"
   id="path3108"
   style="stroke:#000000;stroke-width:2.30225;stroke-miterlimit:4;stroke-dasharray:none;stroke-opacity:1" />
  <path
   class="fil1 str0"
   d="m 75,104 58,-60 26,85 95,9 108,-19 75,45 -16,82 -18,63 -37,49 -52,32 -59,19 -84,9 -96,-11"
   id="path3110"
   style="stroke:#000000;stroke-width:2.30225;stroke-miterlimit:4;stroke-dasharray:none;stroke-opacity:1" />
  <path
   class="fil1 str0"
   d="m 242,496 -32,-40 -59,12 -42,56 -34,-58 76,2 20,-50 39,38 45,-47 -33,-72 107,-21 20,-110 -90,51 23,-62 -106,28 78,-85 28,57 80,-76 -13,87 88,-43 51,-46 50,61 -66,29 -52,39 -71,-40 54,103 -74,7 -14,74 -93,-53 -51,81 -36,-77 41,-52 V 223 L 159,129 75,104"
   id="path3112"
   style="stroke:#000000;stroke-width:2.30225;stroke-miterlimit:4;stroke-dasharray:none;stroke-opacity:1" />
  <path
   class="fil1 str0"
   d="m 390,408 -24,-49 -37,-43 -69,-59 -38,80 -46,-48 84,-32 -84,-34 -101,-1"
   id="path3114"
   style="stroke:#000000;stroke-width:2.30225;stroke-miterlimit:4;stroke-dasharray:none;stroke-opacity:1" />
  <path
   class="fil1 str0"
   d="m 75,284 101,5"
   id="path3116"
   style="stroke:#000000;stroke-width:2.30225;stroke-miterlimit:4;stroke-dasharray:none;stroke-opacity:1" />
  <path
   class="fil1 str0"
   d="m 135,341 87,-4"
   id="path3118"
   style="stroke:#000000;stroke-width:2.30225;stroke-miterlimit:4;stroke-dasharray:none;stroke-opacity:1" />
  <path
   class="fil1 str0"
   d="m 141,521 10,-53 24,47"
   id="path3120"
   style="stroke:#000000;stroke-width:2.30225;stroke-miterlimit:4;stroke-dasharray:none;stroke-opacity:1" />
  <path
   class="fil1 str0"
   d="M 336,448 314,390"
   id="path3122"
   style="stroke:#000000;stroke-width:2.30225;stroke-miterlimit:4;stroke-dasharray:none;stroke-opacity:1" />
  <path
   class="fil1 str0"
   d="M 415,384 366,358"
   id="path3124"
   style="stroke:#000000;stroke-width:2.30225;stroke-miterlimit:4;stroke-dasharray:none;stroke-opacity:1" />
  <path
   class="fil1 str0"
   d="M 460,333 403,309"
   id="path3126"
   style="stroke:#000000;stroke-width:2.30225;stroke-miterlimit:4;stroke-dasharray:none;stroke-opacity:1" />
  <path
   class="fil1 str0"
   d="m 513,244 -41,-37 54,6"
   id="path3128"
   style="stroke:#000000;stroke-width:2.30225;stroke-miterlimit:4;stroke-dasharray:none;stroke-opacity:1" />
  <path
   class="fil1 str0"
   d="m 546,145 -58,-28 64,-4"
   id="path3130"
   style="stroke:#000000;stroke-width:2.30225;stroke-miterlimit:4;stroke-dasharray:none;stroke-opacity:1" />
  <path
   class="fil1 str0"
   d="M 349,206 282,195"
   id="path3132"
   style="stroke:#000000;stroke-width:2.30225;stroke-miterlimit:4;stroke-dasharray:none;stroke-opacity:1" />
  <path
   class="fil1 str0"
   d="M 254,138 V 44"
   id="path3134"
   style="stroke:#000000;stroke-width:2.30225;stroke-miterlimit:4;stroke-dasharray:none;stroke-opacity:1" />
  <path
   class="fil1 str0"
   d="M 472,207 437,163 V 44"
   id="path3136"
   style="stroke:#000000;stroke-width:2.30225;stroke-miterlimit:4;stroke-dasharray:none;stroke-opacity:1" />
 </g><g
     id="g3172"
     transform="matrix(1,0,0,-1,406.44547,527.00041)"
     style="stroke:#000000;stroke-width:2.30225;stroke-miterlimit:4;stroke-dasharray:none;stroke-opacity:1">
  <path
   class="fil0 str0"
   d="M 75,525 C 340,525 557,309 557,44 H 75 Z"
   id="path3140"
   style="stroke:#000000;stroke-width:2.30225;stroke-miterlimit:4;stroke-dasharray:none;stroke-opacity:1" />
  <path
   class="fil1 str0"
   d="m 159,129 37,-85 58,94 61,-94 47,75 75,-75 51,73 68,-41 -58,-32 -10,73 -16,90 26,67 -77,-28 59,58 -77,5 37,49 h -74 l -3,72 -49,-40 -9,77 -50,-58 19,74 -64,-27 -1,51 L 151,468 75,407 135,341 75,284 176,223 75,165 Z"
   id="path3142"
   style="stroke:#000000;stroke-width:2.30225;stroke-miterlimit:4;stroke-dasharray:none;stroke-opacity:1" />
  <path
   class="fil1 str0"
   d="m 75,104 58,-60 26,85 95,9 108,-19 75,45 -16,82 -18,63 -37,49 -52,32 -59,19 -84,9 -96,-11"
   id="path3144"
   style="stroke:#000000;stroke-width:2.30225;stroke-miterlimit:4;stroke-dasharray:none;stroke-opacity:1" />
  <path
   class="fil1 str0"
   d="m 242,496 -32,-40 -59,12 -42,56 -34,-58 76,2 20,-50 39,38 45,-47 -33,-72 107,-21 20,-110 -90,51 23,-62 -106,28 78,-85 28,57 80,-76 -13,87 88,-43 51,-46 50,61 -66,29 -52,39 -71,-40 54,103 -74,7 -14,74 -93,-53 -51,81 -36,-77 41,-52 V 223 L 159,129 75,104"
   id="path3146"
   style="stroke:#000000;stroke-width:2.30225;stroke-miterlimit:4;stroke-dasharray:none;stroke-opacity:1" />
  <path
   class="fil1 str0"
   d="m 390,408 -24,-49 -37,-43 -69,-59 -38,80 -46,-48 84,-32 -84,-34 -101,-1"
   id="path3148"
   style="stroke:#000000;stroke-width:2.30225;stroke-miterlimit:4;stroke-dasharray:none;stroke-opacity:1" />
  <path
   class="fil1 str0"
   d="m 75,284 101,5"
   id="path3150"
   style="stroke:#000000;stroke-width:2.30225;stroke-miterlimit:4;stroke-dasharray:none;stroke-opacity:1" />
  <path
   class="fil1 str0"
   d="m 135,341 87,-4"
   id="path3152"
   style="stroke:#000000;stroke-width:2.30225;stroke-miterlimit:4;stroke-dasharray:none;stroke-opacity:1" />
  <path
   class="fil1 str0"
   d="m 141,521 10,-53 24,47"
   id="path3154"
   style="stroke:#000000;stroke-width:2.30225;stroke-miterlimit:4;stroke-dasharray:none;stroke-opacity:1" />
  <path
   class="fil1 str0"
   d="M 336,448 314,390"
   id="path3156"
   style="stroke:#000000;stroke-width:2.30225;stroke-miterlimit:4;stroke-dasharray:none;stroke-opacity:1" />
  <path
   class="fil1 str0"
   d="M 415,384 366,358"
   id="path3158"
   style="stroke:#000000;stroke-width:2.30225;stroke-miterlimit:4;stroke-dasharray:none;stroke-opacity:1" />
  <path
   class="fil1 str0"
   d="M 460,333 403,309"
   id="path3160"
   style="stroke:#000000;stroke-width:2.30225;stroke-miterlimit:4;stroke-dasharray:none;stroke-opacity:1" />
  <path
   class="fil1 str0"
   d="m 513,244 -41,-37 54,6"
   id="path3162"
   style="stroke:#000000;stroke-width:2.30225;stroke-miterlimit:4;stroke-dasharray:none;stroke-opacity:1" />
  <path
   class="fil1 str0"
   d="m 546,145 -58,-28 64,-4"
   id="path3164"
   style="stroke:#000000;stroke-width:2.30225;stroke-miterlimit:4;stroke-dasharray:none;stroke-opacity:1" />
  <path
   class="fil1 str0"
   d="M 349,206 282,195"
   id="path3166"
   style="stroke:#000000;stroke-width:2.30225;stroke-miterlimit:4;stroke-dasharray:none;stroke-opacity:1" />
  <path
   class="fil1 str0"
   d="M 254,138 V 44"
   id="path3168"
   style="stroke:#000000;stroke-width:2.30225;stroke-miterlimit:4;stroke-dasharray:none;stroke-opacity:1" />
  <path
   class="fil1 str0"
   d="M 472,207 437,163 V 44"
   id="path3170"
   style="stroke:#000000;stroke-width:2.30225;stroke-miterlimit:4;stroke-dasharray:none;stroke-opacity:1" />
 </g><g
     id="g3206"
     transform="matrix(0,-1,-1,0,525.44547,558.00041)"
     style="stroke:#000000;stroke-width:2.30225;stroke-miterlimit:4;stroke-dasharray:none;stroke-opacity:1">
  <path
   class="fil0 str0"
   d="M 75,525 C 340,525 557,309 557,44 H 75 Z"
   id="path3174"
   style="stroke:#000000;stroke-width:2.30225;stroke-miterlimit:4;stroke-dasharray:none;stroke-opacity:1" />
  <path
   class="fil1 str0"
   d="m 159,129 37,-85 58,94 61,-94 47,75 75,-75 51,73 68,-41 -58,-32 -10,73 -16,90 26,67 -77,-28 59,58 -77,5 37,49 h -74 l -3,72 -49,-40 -9,77 -50,-58 19,74 -64,-27 -1,51 L 151,468 75,407 135,341 75,284 176,223 75,165 Z"
   id="path3176"
   style="stroke:#000000;stroke-width:2.30225;stroke-miterlimit:4;stroke-dasharray:none;stroke-opacity:1" />
  <path
   class="fil1 str0"
   d="m 75,104 58,-60 26,85 95,9 108,-19 75,45 -16,82 -18,63 -37,49 -52,32 -59,19 -84,9 -96,-11"
   id="path3178"
   style="stroke:#000000;stroke-width:2.30225;stroke-miterlimit:4;stroke-dasharray:none;stroke-opacity:1" />
  <path
   class="fil1 str0"
   d="m 242,496 -32,-40 -59,12 -42,56 -34,-58 76,2 20,-50 39,38 45,-47 -33,-72 107,-21 20,-110 -90,51 23,-62 -106,28 78,-85 28,57 80,-76 -13,87 88,-43 51,-46 50,61 -66,29 -52,39 -71,-40 54,103 -74,7 -14,74 -93,-53 -51,81 -36,-77 41,-52 V 223 L 159,129 75,104"
   id="path3180"
   style="stroke:#000000;stroke-width:2.30225;stroke-miterlimit:4;stroke-dasharray:none;stroke-opacity:1" />
  <path
   class="fil1 str0"
   d="m 390,408 -24,-49 -37,-43 -69,-59 -38,80 -46,-48 84,-32 -84,-34 -101,-1"
   id="path3182"
   style="stroke:#000000;stroke-width:2.30225;stroke-miterlimit:4;stroke-dasharray:none;stroke-opacity:1" />
  <path
   class="fil1 str0"
   d="m 75,284 101,5"
   id="path3184"
   style="stroke:#000000;stroke-width:2.30225;stroke-miterlimit:4;stroke-dasharray:none;stroke-opacity:1" />
  <path
   class="fil1 str0"
   d="m 135,341 87,-4"
   id="path3186"
   style="stroke:#000000;stroke-width:2.30225;stroke-miterlimit:4;stroke-dasharray:none;stroke-opacity:1" />
  <path
   class="fil1 str0"
   d="m 141,521 10,-53 24,47"
   id="path3188"
   style="stroke:#000000;stroke-width:2.30225;stroke-miterlimit:4;stroke-dasharray:none;stroke-opacity:1" />
  <path
   class="fil1 str0"
   d="M 336,448 314,390"
   id="path3190"
   style="stroke:#000000;stroke-width:2.30225;stroke-miterlimit:4;stroke-dasharray:none;stroke-opacity:1" />
  <path
   class="fil1 str0"
   d="M 415,384 366,358"
   id="path3192"
   style="stroke:#000000;stroke-width:2.30225;stroke-miterlimit:4;stroke-dasharray:none;stroke-opacity:1" />
  <path
   class="fil1 str0"
   d="M 460,333 403,309"
   id="path3194"
   style="stroke:#000000;stroke-width:2.30225;stroke-miterlimit:4;stroke-dasharray:none;stroke-opacity:1" />
  <path
   class="fil1 str0"
   d="m 513,244 -41,-37 54,6"
   id="path3196"
   style="stroke:#000000;stroke-width:2.30225;stroke-miterlimit:4;stroke-dasharray:none;stroke-opacity:1" />
  <path
   class="fil1 str0"
   d="m 546,145 -58,-28 64,-4"
   id="path3198"
   style="stroke:#000000;stroke-width:2.30225;stroke-miterlimit:4;stroke-dasharray:none;stroke-opacity:1" />
  <path
   class="fil1 str0"
   d="M 349,206 282,195"
   id="path3200"
   style="stroke:#000000;stroke-width:2.30225;stroke-miterlimit:4;stroke-dasharray:none;stroke-opacity:1" />
  <path
   class="fil1 str0"
   d="M 254,138 V 44"
   id="path3202"
   style="stroke:#000000;stroke-width:2.30225;stroke-miterlimit:4;stroke-dasharray:none;stroke-opacity:1" />
  <path
   class="fil1 str0"
   d="M 472,207 437,163 V 44"
   id="path3204"
   style="stroke:#000000;stroke-width:2.30225;stroke-miterlimit:4;stroke-dasharray:none;stroke-opacity:1" />
 </g></g><circle
   style="fill:#ff00fe;fill-opacity:1;stroke:#000000;stroke-width:2.10602;stroke-linejoin:round;stroke-miterlimit:4;stroke-dasharray:none;stroke-opacity:1"
   id="path3209"
   cx="484.31711"
   cy="485.20734"
   r="484.15433" /></svg>
