<?xml version="1.0" encoding="UTF-8" standalone="no"?>
<svg
   xmlns:ns2="http://www.iki.fi/pav/software/textext/"
   xmlns:dc="http://purl.org/dc/elements/1.1/"
   xmlns:cc="http://creativecommons.org/ns#"
   xmlns:rdf="http://www.w3.org/1999/02/22-rdf-syntax-ns#"
   xmlns:svg="http://www.w3.org/2000/svg"
   xmlns="http://www.w3.org/2000/svg"
   xmlns:sodipodi="http://sodipodi.sourceforge.net/DTD/sodipodi-0.dtd"
   xmlns:inkscape="http://www.inkscape.org/namespaces/inkscape"
   version="1.1"
   id="svg4314"
   xml:space="preserve"
   width="263.85327"
   height="264.65808"
   viewBox="0 0 263.85328 264.65808"
   sodipodi:docname="time_marching.svg"
   inkscape:version="1.0.2 (e86c8708, 2021-01-15)"><metadata
     id="metadata4320"><rdf:RDF><cc:Work
         rdf:about=""><dc:format>image/svg+xml</dc:format><dc:type
           rdf:resource="http://purl.org/dc/dcmitype/StillImage" /><dc:title></dc:title></cc:Work></rdf:RDF></metadata><defs
     id="defs4318"><marker
       style="overflow:visible"
       id="marker6161"
       refX="0"
       refY="0"
       orient="auto"
       inkscape:stockid="Arrow2Lend"
       inkscape:isstock="true"><path
         transform="matrix(-1.1,0,0,-1.1,-1.1,0)"
         d="M 8.7185878,4.0337352 -2.2072895,0.01601326 8.7185884,-4.0017078 c -1.7454984,2.3720609 -1.7354408,5.6174519 -6e-7,8.035443 z"
         style="fill:#ff87a5;fill-opacity:1;fill-rule:evenodd;stroke:#231f20;stroke-width:0.625;stroke-linejoin:round;stroke-opacity:1"
         id="path6159" /></marker><marker
       style="overflow:visible"
       id="marker6127"
       refX="0"
       refY="0"
       orient="auto"
       inkscape:stockid="Arrow2Lend"
       inkscape:isstock="true"><path
         transform="matrix(-1.1,0,0,-1.1,-1.1,0)"
         d="M 8.7185878,4.0337352 -2.2072895,0.01601326 8.7185884,-4.0017078 c -1.7454984,2.3720609 -1.7354408,5.6174519 -6e-7,8.035443 z"
         style="fill:#ffffff;fill-opacity:1;fill-rule:evenodd;stroke:#231f20;stroke-width:0.625;stroke-linejoin:round;stroke-opacity:1"
         id="path6125" /></marker><marker
       style="overflow:visible"
       id="Arrow2Lend"
       refX="0"
       refY="0"
       orient="auto"
       inkscape:stockid="Arrow2Lend"
       inkscape:isstock="true"
       inkscape:collect="always"><path
         transform="matrix(-1.1,0,0,-1.1,-1.1,0)"
         d="M 8.7185878,4.0337352 -2.2072895,0.01601326 8.7185884,-4.0017078 c -1.7454984,2.3720609 -1.7354408,5.6174519 -6e-7,8.035443 z"
         style="fill:#ffffff;fill-opacity:1;fill-rule:evenodd;stroke:#231f20;stroke-width:0.625;stroke-linejoin:round;stroke-opacity:1"
         id="path5828" /></marker></defs><sodipodi:namedview
     pagecolor="#ffffff"
     bordercolor="#666666"
     borderopacity="1"
     objecttolerance="10"
     gridtolerance="10"
     guidetolerance="10"
     inkscape:pageopacity="0"
     inkscape:pageshadow="2"
     inkscape:window-width="640"
     inkscape:window-height="480"
     id="namedview4316"
     showgrid="false"
     fit-margin-top="0"
     fit-margin-left="0"
     fit-margin-right="0"
     fit-margin-bottom="0"
     inkscape:zoom="1.7208008"
     inkscape:cx="89.346162"
     inkscape:cy="125.84933"
     inkscape:current-layer="g4322"
     inkscape:document-rotation="0" /><g
     id="g4322"
     inkscape:groupmode="layer"
     inkscape:label="FDTD Book "
     transform="matrix(1.3333333,0,0,-1.3333333,-126.20365,799.54434)"><path
       d="m 139.363,425.764 v 155.054 m 16.482,-155.054 v 155.839 m 16.48,-155.839 v 155.839 m 16.483,0 V 408.981 m 16.48,16.783 v 155.054 m 16.483,0.785 V 410.551 m 16.483,15.213 V 581.603 M 254.733,425.764 V 581.603 M 271.217,425.764 V 581.603 M 118.761,446.366 h 154.271 m -154.271,16.483 h 154.271 m -154.271,16.478 h 154.271 m -154.271,16.484 h 153.485 m -153.485,16.482 h 154.271 m -154.271,16.481 h 154.271 m -154.271,16.483 h 153.485 m -153.485,16.48 h 153.485 m -153.485,16.482 h 154.271"
       style="fill:none;stroke:#a0a0a0;stroke-width:0.375;stroke-linecap:round;stroke-linejoin:round;stroke-miterlimit:4;stroke-dasharray:2, 2;stroke-dashoffset:0;stroke-opacity:1"
       id="path4334" /><path
       d="M 118.761,429.883 H 291.819"
       style="fill:#ffffff;fill-opacity:1;stroke:#231f20;stroke-width:0.50025;stroke-linecap:round;stroke-linejoin:round;stroke-miterlimit:4;stroke-dasharray:none;stroke-opacity:1;marker-end:url(#Arrow2Lend)"
       id="path4336" /><path
       d="M 122.881,425.764 V 598.822"
       style="fill:none;stroke:#231f20;stroke-width:0.50025;stroke-linecap:round;stroke-linejoin:round;stroke-miterlimit:4;stroke-dasharray:none;stroke-opacity:1;marker-end:url(#marker6127)"
       id="path4340" /><path
       d="M 196.136,579.248 V 594.27"
       style="fill:#ff87a5;fill-opacity:1;stroke:#231f20;stroke-width:0.561;stroke-linecap:round;stroke-linejoin:round;stroke-miterlimit:4;stroke-dasharray:none;stroke-opacity:1;marker-end:url(#marker6161)"
       id="path4344" /><text
       transform="scale(0.99998121,-1.0000188)"
       style="font-style:italic;font-variant:normal;font-weight:500;font-stretch:normal;font-size:10px;font-family:'CMU Classical Serif';-inkscape-font-specification:'CMU Classical Serif, Medium Italic';font-variant-ligatures:normal;font-variant-caps:normal;font-variant-numeric:normal;font-variant-east-asian:normal;writing-mode:lr-tb;fill:#231f20;fill-opacity:1;fill-rule:nonzero;stroke:none;stroke-width:0.999981"
       id="text4350"
       x="93.404579"
       y="-510.32843"><tspan
         x="93.404579"
         y="-510.32843"
         id="tspan4348"
         style="font-style:italic;font-variant:normal;font-weight:500;font-stretch:normal;font-size:10px;font-family:'CMU Classical Serif';-inkscape-font-specification:'CMU Classical Serif, Medium Italic';font-variant-ligatures:normal;font-variant-caps:normal;font-variant-numeric:normal;font-variant-east-asian:normal;stroke-width:0.999981">n</tspan></text><text
       transform="scale(1,-1)"
       style="font-style:italic;font-variant:normal;font-weight:500;font-stretch:normal;font-size:10px;font-family:'CMU Serif';-inkscape-font-specification:'CMU Serif, Medium Italic';font-variant-ligatures:normal;font-variant-caps:normal;font-variant-numeric:normal;font-variant-east-asian:normal;writing-mode:lr-tb;fill:#231f20;fill-opacity:1;fill-rule:nonzero;stroke:none"
       id="text4354"
       x="126.3368"
       y="-593.3985"><tspan
         x="126.3368"
         y="-593.3985"
         id="tspan4352"
         style="font-style:italic;font-variant:normal;font-weight:500;font-stretch:normal;font-size:10px;font-family:'CMU Serif';-inkscape-font-specification:'CMU Serif, Medium Italic';font-variant-ligatures:normal;font-variant-caps:normal;font-variant-numeric:normal;font-variant-east-asian:normal">t</tspan></text><text
       transform="scale(0.99998121,-1.0000188)"
       style="font-style:italic;font-variant:normal;font-weight:500;font-stretch:normal;font-size:10px;font-family:'CMU Classical Serif';-inkscape-font-specification:'CMU Classical Serif, Medium Italic';font-variant-ligatures:normal;font-variant-caps:normal;font-variant-numeric:normal;font-variant-east-asian:normal;writing-mode:lr-tb;fill:#231f20;fill-opacity:1;fill-rule:nonzero;stroke:none;stroke-width:0.999981"
       id="text4358"
       x="93.472939"
       y="-442.8537"><tspan
         x="93.472939"
         y="-442.8537"
         id="tspan4356"
         style="font-style:italic;font-variant:normal;font-weight:500;font-stretch:normal;font-size:10px;font-family:'CMU Classical Serif';-inkscape-font-specification:'CMU Classical Serif, Medium Italic';font-variant-ligatures:normal;font-variant-caps:normal;font-variant-numeric:normal;font-variant-east-asian:normal;stroke-width:0.999981">1</tspan></text><path
       d="m 205.55,510.199 c 1.227,0 2.22,0.995 2.22,2.22 0,1.226 -0.993,2.219 -2.22,2.219 -1.225,0 -2.219,-0.993 -2.219,-2.219 0,-1.225 0.994,-2.22 2.219,-2.22"
       style="fill:#ffffff;fill-opacity:1;fill-rule:nonzero;stroke:#000000;stroke-width:0.99975;stroke-miterlimit:10;stroke-dasharray:none;stroke-opacity:1"
       id="path4360" /><text
       transform="scale(0.99998125,-1.0000188)"
       style="font-style:italic;font-variant:normal;font-weight:500;font-stretch:normal;font-size:10px;font-family:'CMU Serif';-inkscape-font-specification:'CMU Serif, Medium Italic';font-variant-ligatures:normal;font-variant-caps:normal;font-variant-numeric:normal;font-variant-east-asian:normal;writing-mode:lr-tb;fill:#231f20;fill-opacity:1;fill-rule:nonzero;stroke:none;stroke-width:0.999981"
       id="text4364"
       x="204.44284"
       y="-401.26947"><tspan
         x="204.44284"
         y="-401.26947"
         id="tspan4362"
         style="font-style:italic;font-variant:normal;font-weight:500;font-stretch:normal;font-size:10px;font-family:'CMU Serif';-inkscape-font-specification:'CMU Serif, Medium Italic';font-variant-ligatures:normal;font-variant-caps:normal;font-variant-numeric:normal;font-variant-east-asian:normal;stroke-width:0.999981">i</tspan></text><text
       transform="scale(1,-1)"
       style="font-style:italic;font-variant:normal;font-weight:500;font-stretch:normal;font-size:10px;font-family:'CMU Serif';-inkscape-font-specification:'CMU Serif, Medium Italic';font-variant-ligatures:normal;font-variant-caps:normal;font-variant-numeric:normal;font-variant-east-asian:normal;writing-mode:lr-tb;fill:#231f20;fill-opacity:1;fill-rule:nonzero;stroke:none"
       id="text4368"
       x="199.33194"
       y="-583.96954"><tspan
         sodipodi:role="line"
         id="tspan4366"
         x="199.33194"
         y="-583.96954"
         style="font-style:normal">Time Marching</tspan></text><text
       transform="scale(0.99998121,-1.0000188)"
       style="font-style:italic;font-variant:normal;font-weight:500;font-stretch:normal;font-size:10px;font-family:'CMU Serif';-inkscape-font-specification:'CMU Serif, Medium Italic';font-variant-ligatures:normal;font-variant-caps:normal;font-variant-numeric:normal;font-variant-east-asian:normal;writing-mode:lr-tb;fill:#231f20;fill-opacity:1;fill-rule:nonzero;stroke:none;stroke-width:0.999981"
       id="text4372"
       x="121.95089"
       y="-401.37689"><tspan
         x="121.95089 138.43042"
         y="-401.37689"
         sodipodi:role="line"
         id="tspan4370"
         style="stroke-width:0.999981">12</tspan></text><text
       transform="scale(0.99998121,-1.0000188)"
       style="font-style:italic;font-variant:normal;font-weight:500;font-stretch:normal;font-size:10px;font-family:'CMU Serif';-inkscape-font-specification:'CMU Serif, Medium Italic';font-variant-ligatures:normal;font-variant-caps:normal;font-variant-numeric:normal;font-variant-east-asian:normal;writing-mode:lr-tb;fill:#231f20;fill-opacity:1;fill-rule:nonzero;stroke:none;stroke-width:0.999981"
       id="text4376"
       x="184.75516"
       y="-401.26947"><tspan
         x="184.75516 186.97932 190.9796"
         y="-401.26947"
         sodipodi:role="line"
         id="tspan4374"
         style="stroke-width:0.999981">i–1</tspan></text><text
       transform="scale(0.99998122,-1.0000188)"
       style="font-style:italic;font-variant:normal;font-weight:500;font-stretch:normal;font-size:10px;font-family:'CMU Serif';-inkscape-font-specification:'CMU Serif, Medium Italic';font-variant-ligatures:normal;font-variant-caps:normal;font-variant-numeric:normal;font-variant-east-asian:normal;writing-mode:lr-tb;fill:#231f20;fill-opacity:1;fill-rule:nonzero;stroke:none;stroke-width:0.999981"
       id="text4380"
       x="218.5807"
       y="-401.69916"><tspan
         x="218.5807 220.80486 226.20522"
         y="-401.69916"
         sodipodi:role="line"
         id="tspan4378"
         style="stroke-width:0.999981">i+1</tspan></text><text
       transform="scale(0.99998121,-1.0000188)"
       style="font-style:italic;font-variant:normal;font-weight:500;font-stretch:normal;font-size:10px;font-family:'CMU Serif';-inkscape-font-specification:'CMU Serif, Medium Italic';font-variant-ligatures:normal;font-variant-caps:normal;font-variant-numeric:normal;font-variant-east-asian:normal;writing-mode:lr-tb;fill:#231f20;fill-opacity:1;fill-rule:nonzero;stroke:none;stroke-width:0.999981"
       id="text4384"
       x="154.90991"
       y="-401.37689"><tspan
         x="154.90991"
         y="-401.37689"
         id="tspan4382"
         style="font-style:italic;font-variant:normal;font-weight:500;font-stretch:normal;font-size:10px;font-family:'CMU Serif';-inkscape-font-specification:'CMU Serif, Medium Italic';font-variant-ligatures:normal;font-variant-caps:normal;font-variant-numeric:normal;font-variant-east-asian:normal;stroke-width:0.999981">3</tspan></text><text
       transform="scale(0.99998121,-1.0000188)"
       style="font-style:italic;font-variant:normal;font-weight:500;font-stretch:normal;font-size:10px;font-family:'CMU Classical Serif';-inkscape-font-specification:'CMU Classical Serif, Medium Italic';font-variant-ligatures:normal;font-variant-caps:normal;font-variant-numeric:normal;font-variant-east-asian:normal;writing-mode:lr-tb;fill:#231f20;fill-opacity:1;fill-rule:nonzero;stroke:none;stroke-width:0.999981"
       id="text4392"
       x="93.49247"
       y="-427.16498"><tspan
         x="93.49247"
         y="-427.16498"
         id="tspan4390"
         style="font-style:italic;font-variant:normal;font-weight:500;font-stretch:normal;font-size:10px;font-family:'CMU Classical Serif';-inkscape-font-specification:'CMU Classical Serif, Medium Italic';font-variant-ligatures:normal;font-variant-caps:normal;font-variant-numeric:normal;font-variant-east-asian:normal;stroke-width:0.999981">0</tspan></text><text
       transform="scale(0.99998121,-1.0000188)"
       style="font-style:italic;font-variant:normal;font-weight:500;font-stretch:normal;font-size:10px;font-family:'CMU Classical Serif';-inkscape-font-specification:'CMU Classical Serif, Medium Italic';font-variant-ligatures:normal;font-variant-caps:normal;font-variant-numeric:normal;font-variant-east-asian:normal;writing-mode:lr-tb;fill:#231f20;fill-opacity:1;fill-rule:nonzero;stroke:none;stroke-width:0.999981"
       id="text4396"
       x="93.814735"
       y="-457.76871"><tspan
         x="93.814735"
         y="-457.76871"
         id="tspan4394"
         style="font-style:italic;font-variant:normal;font-weight:500;font-stretch:normal;font-size:10px;font-family:'CMU Classical Serif';-inkscape-font-specification:'CMU Classical Serif, Medium Italic';font-variant-ligatures:normal;font-variant-caps:normal;font-variant-numeric:normal;font-variant-east-asian:normal;stroke-width:0.999981">2</tspan></text><text
       transform="scale(0.99998121,-1.0000188)"
       style="font-style:italic;font-variant:normal;font-weight:500;font-stretch:normal;font-size:10px;font-family:'CMU Classical Serif';-inkscape-font-specification:'CMU Classical Serif, Medium Italic';font-variant-ligatures:normal;font-variant-caps:normal;font-variant-numeric:normal;font-variant-east-asian:normal;writing-mode:lr-tb;fill:#231f20;fill-opacity:1;fill-rule:nonzero;stroke:none;stroke-width:0.999981"
       id="text4400"
       x="93.404579"
       y="-493.07916"><tspan
         x="93.404579 97.404854 101.40513"
         y="-493.07916"
         sodipodi:role="line"
         id="tspan4398"
         style="font-style:italic;font-variant:normal;font-weight:500;font-stretch:normal;font-size:10px;font-family:'CMU Classical Serif';-inkscape-font-specification:'CMU Classical Serif, Medium Italic';font-variant-ligatures:normal;font-variant-caps:normal;font-variant-numeric:normal;font-variant-east-asian:normal;stroke-width:0.999981">n–1</tspan></text><text
       transform="scale(0.99998121,-1.0000188)"
       style="font-style:italic;font-variant:normal;font-weight:500;font-stretch:normal;font-size:10px;font-family:'CMU Classical Serif';-inkscape-font-specification:'CMU Classical Serif, Medium Italic';font-variant-ligatures:normal;font-variant-caps:normal;font-variant-numeric:normal;font-variant-east-asian:normal;writing-mode:lr-tb;fill:#231f20;fill-opacity:1;fill-rule:nonzero;stroke:none;stroke-width:0.999981"
       id="text4404"
       x="93.404579"
       y="-525.24377"><tspan
         x="93.404579 97.404854 102.80523"
         y="-525.24377"
         sodipodi:role="line"
         id="tspan4402"
         style="font-style:italic;font-variant:normal;font-weight:500;font-stretch:normal;font-size:10px;font-family:'CMU Classical Serif';-inkscape-font-specification:'CMU Classical Serif, Medium Italic';font-variant-ligatures:normal;font-variant-caps:normal;font-variant-numeric:normal;font-variant-east-asian:normal;stroke-width:0.999981">n+1</tspan></text><text
       transform="matrix(1,0,0,-1,102.4998,575.9514)"
       style="font-style:italic;font-variant:normal;font-weight:500;font-stretch:normal;font-size:10px;font-family:'CMU Serif';-inkscape-font-specification:'CMU Serif, Medium Italic';font-variant-ligatures:normal;font-variant-caps:normal;font-variant-numeric:normal;font-variant-east-asian:normal;writing-mode:lr-tb;fill:#231f20;fill-opacity:1;fill-rule:nonzero;stroke:none"
       id="text4412"><tspan
         sodipodi:role="line"
         id="tspan4410"
         x="0"
         y="0" /></text><text
       transform="scale(1,-1)"
       style="font-style:italic;font-variant:normal;font-weight:500;font-stretch:normal;font-size:10px;font-family:'CMU Serif';-inkscape-font-specification:'CMU Serif, Medium Italic';font-variant-ligatures:normal;font-variant-caps:normal;font-variant-numeric:normal;font-variant-east-asian:normal;writing-mode:lr-tb;fill:#231f20;fill-opacity:1;fill-rule:nonzero;stroke:none"
       id="text4416"
       x="264.957"
       y="-401.27701"><tspan
         x="264.957"
         y="-401.27701"
         id="tspan4414"
         style="font-style:italic;font-variant:normal;font-weight:500;font-stretch:normal;font-size:10px;font-family:'CMU Serif';-inkscape-font-specification:'CMU Serif, Medium Italic';font-variant-ligatures:normal;font-variant-caps:normal;font-variant-numeric:normal;font-variant-east-asian:normal" /></text><text
       transform="matrix(1,0,0,-1,227.1389,171.2163)"
       style="font-style:italic;font-variant:normal;font-weight:500;font-stretch:normal;font-size:10px;font-family:'CMU Serif';-inkscape-font-specification:'CMU Serif, Medium Italic';font-variant-ligatures:normal;font-variant-caps:normal;font-variant-numeric:normal;font-variant-east-asian:normal;writing-mode:lr-tb;fill:#000000;fill-opacity:1;fill-rule:nonzero;stroke:none"
       id="text4662"><tspan
         x="0"
         y="0"
         id="tspan4660"
         style="font-style:italic;font-variant:normal;font-weight:500;font-stretch:normal;font-size:10px;font-family:'CMU Serif';-inkscape-font-specification:'CMU Serif, Medium Italic';font-variant-ligatures:normal;font-variant-caps:normal;font-variant-numeric:normal;font-variant-east-asian:normal" /></text><text
       transform="matrix(1,0,0,-1,227.1389,165.2407)"
       style="font-style:italic;font-variant:normal;font-weight:500;font-stretch:normal;font-size:10px;font-family:'CMU Serif';-inkscape-font-specification:'CMU Serif, Medium Italic';font-variant-ligatures:normal;font-variant-caps:normal;font-variant-numeric:normal;font-variant-east-asian:normal;writing-mode:lr-tb;fill:#000000;fill-opacity:1;fill-rule:nonzero;stroke:none"
       id="text4666"><tspan
         x="0"
         y="0"
         id="tspan4664"
         style="font-style:italic;font-variant:normal;font-weight:500;font-stretch:normal;font-size:10px;font-family:'CMU Serif';-inkscape-font-specification:'CMU Serif, Medium Italic';font-variant-ligatures:normal;font-variant-caps:normal;font-variant-numeric:normal;font-variant-east-asian:normal" /></text><text
       transform="matrix(1,0,0,-1,227.1389,159.2652)"
       style="font-style:italic;font-variant:normal;font-weight:500;font-stretch:normal;font-size:10px;font-family:'CMU Serif';-inkscape-font-specification:'CMU Serif, Medium Italic';font-variant-ligatures:normal;font-variant-caps:normal;font-variant-numeric:normal;font-variant-east-asian:normal;writing-mode:lr-tb;fill:#000000;fill-opacity:1;fill-rule:nonzero;stroke:none"
       id="text4670"><tspan
         x="0"
         y="0"
         id="tspan4668"
         style="font-style:italic;font-variant:normal;font-weight:500;font-stretch:normal;font-size:10px;font-family:'CMU Serif';-inkscape-font-specification:'CMU Serif, Medium Italic';font-variant-ligatures:normal;font-variant-caps:normal;font-variant-numeric:normal;font-variant-east-asian:normal" /></text><text
       transform="matrix(1,0,0,-1,227.1389,153.2806)"
       style="font-style:italic;font-variant:normal;font-weight:500;font-stretch:normal;font-size:10px;font-family:'CMU Serif';-inkscape-font-specification:'CMU Serif, Medium Italic';font-variant-ligatures:normal;font-variant-caps:normal;font-variant-numeric:normal;font-variant-east-asian:normal;writing-mode:lr-tb;fill:#000000;fill-opacity:1;fill-rule:nonzero;stroke:none"
       id="text4674"><tspan
         x="0"
         y="0"
         id="tspan4672"
         style="font-style:italic;font-variant:normal;font-weight:500;font-stretch:normal;font-size:10px;font-family:'CMU Serif';-inkscape-font-specification:'CMU Serif, Medium Italic';font-variant-ligatures:normal;font-variant-caps:normal;font-variant-numeric:normal;font-variant-east-asian:normal" /></text><text
       transform="matrix(1,0,0,-1,304.692,171.216)"
       style="font-style:italic;font-variant:normal;font-weight:500;font-stretch:normal;font-size:10px;font-family:'CMU Serif';-inkscape-font-specification:'CMU Serif, Medium Italic';font-variant-ligatures:normal;font-variant-caps:normal;font-variant-numeric:normal;font-variant-east-asian:normal;writing-mode:lr-tb;fill:#000000;fill-opacity:1;fill-rule:nonzero;stroke:none"
       id="text4758"><tspan
         x="0"
         y="0"
         id="tspan4756"
         style="font-style:italic;font-variant:normal;font-weight:500;font-stretch:normal;font-size:10px;font-family:'CMU Serif';-inkscape-font-specification:'CMU Serif, Medium Italic';font-variant-ligatures:normal;font-variant-caps:normal;font-variant-numeric:normal;font-variant-east-asian:normal" /></text><text
       transform="matrix(1,0,0,-1,304.692,165.2404)"
       style="font-style:italic;font-variant:normal;font-weight:500;font-stretch:normal;font-size:10px;font-family:'CMU Serif';-inkscape-font-specification:'CMU Serif, Medium Italic';font-variant-ligatures:normal;font-variant-caps:normal;font-variant-numeric:normal;font-variant-east-asian:normal;writing-mode:lr-tb;fill:#000000;fill-opacity:1;fill-rule:nonzero;stroke:none"
       id="text4762"><tspan
         x="0"
         y="0"
         id="tspan4760"
         style="font-style:italic;font-variant:normal;font-weight:500;font-stretch:normal;font-size:10px;font-family:'CMU Serif';-inkscape-font-specification:'CMU Serif, Medium Italic';font-variant-ligatures:normal;font-variant-caps:normal;font-variant-numeric:normal;font-variant-east-asian:normal" /></text><text
       transform="matrix(1,0,0,-1,304.692,159.2649)"
       style="font-style:italic;font-variant:normal;font-weight:500;font-stretch:normal;font-size:10px;font-family:'CMU Serif';-inkscape-font-specification:'CMU Serif, Medium Italic';font-variant-ligatures:normal;font-variant-caps:normal;font-variant-numeric:normal;font-variant-east-asian:normal;writing-mode:lr-tb;fill:#000000;fill-opacity:1;fill-rule:nonzero;stroke:none"
       id="text4766"><tspan
         x="0"
         y="0"
         id="tspan4764"
         style="font-style:italic;font-variant:normal;font-weight:500;font-stretch:normal;font-size:10px;font-family:'CMU Serif';-inkscape-font-specification:'CMU Serif, Medium Italic';font-variant-ligatures:normal;font-variant-caps:normal;font-variant-numeric:normal;font-variant-east-asian:normal" /></text><text
       transform="matrix(1,0,0,-1,304.692,153.2803)"
       style="font-style:italic;font-variant:normal;font-weight:500;font-stretch:normal;font-size:10px;font-family:'CMU Serif';-inkscape-font-specification:'CMU Serif, Medium Italic';font-variant-ligatures:normal;font-variant-caps:normal;font-variant-numeric:normal;font-variant-east-asian:normal;writing-mode:lr-tb;fill:#000000;fill-opacity:1;fill-rule:nonzero;stroke:none"
       id="text4770"><tspan
         x="0"
         y="0"
         id="tspan4768"
         style="font-style:italic;font-variant:normal;font-weight:500;font-stretch:normal;font-size:10px;font-family:'CMU Serif';-inkscape-font-specification:'CMU Serif, Medium Italic';font-variant-ligatures:normal;font-variant-caps:normal;font-variant-numeric:normal;font-variant-east-asian:normal" /></text><text
       transform="matrix(1,0,0,-1,412.134,171.216)"
       style="font-style:italic;font-variant:normal;font-weight:500;font-stretch:normal;font-size:10px;font-family:'CMU Serif';-inkscape-font-specification:'CMU Serif, Medium Italic';font-variant-ligatures:normal;font-variant-caps:normal;font-variant-numeric:normal;font-variant-east-asian:normal;writing-mode:lr-tb;fill:#000000;fill-opacity:1;fill-rule:nonzero;stroke:none"
       id="text4858"><tspan
         x="0"
         y="0"
         id="tspan4856"
         style="font-style:italic;font-variant:normal;font-weight:500;font-stretch:normal;font-size:10px;font-family:'CMU Serif';-inkscape-font-specification:'CMU Serif, Medium Italic';font-variant-ligatures:normal;font-variant-caps:normal;font-variant-numeric:normal;font-variant-east-asian:normal" /></text><text
       transform="matrix(1,0,0,-1,412.134,165.2404)"
       style="font-style:italic;font-variant:normal;font-weight:500;font-stretch:normal;font-size:10px;font-family:'CMU Serif';-inkscape-font-specification:'CMU Serif, Medium Italic';font-variant-ligatures:normal;font-variant-caps:normal;font-variant-numeric:normal;font-variant-east-asian:normal;writing-mode:lr-tb;fill:#000000;fill-opacity:1;fill-rule:nonzero;stroke:none"
       id="text4862"><tspan
         x="0"
         y="0"
         id="tspan4860"
         style="font-style:italic;font-variant:normal;font-weight:500;font-stretch:normal;font-size:10px;font-family:'CMU Serif';-inkscape-font-specification:'CMU Serif, Medium Italic';font-variant-ligatures:normal;font-variant-caps:normal;font-variant-numeric:normal;font-variant-east-asian:normal" /></text><text
       transform="matrix(1,0,0,-1,412.134,159.2649)"
       style="font-style:italic;font-variant:normal;font-weight:500;font-stretch:normal;font-size:10px;font-family:'CMU Serif';-inkscape-font-specification:'CMU Serif, Medium Italic';font-variant-ligatures:normal;font-variant-caps:normal;font-variant-numeric:normal;font-variant-east-asian:normal;writing-mode:lr-tb;fill:#000000;fill-opacity:1;fill-rule:nonzero;stroke:none"
       id="text4866"><tspan
         x="0"
         y="0"
         id="tspan4864"
         style="font-style:italic;font-variant:normal;font-weight:500;font-stretch:normal;font-size:10px;font-family:'CMU Serif';-inkscape-font-specification:'CMU Serif, Medium Italic';font-variant-ligatures:normal;font-variant-caps:normal;font-variant-numeric:normal;font-variant-east-asian:normal" /></text><text
       transform="matrix(1,0,0,-1,412.134,153.2803)"
       style="font-style:italic;font-variant:normal;font-weight:500;font-stretch:normal;font-size:10px;font-family:'CMU Serif';-inkscape-font-specification:'CMU Serif, Medium Italic';font-variant-ligatures:normal;font-variant-caps:normal;font-variant-numeric:normal;font-variant-east-asian:normal;writing-mode:lr-tb;fill:#000000;fill-opacity:1;fill-rule:nonzero;stroke:none"
       id="text4870"><tspan
         x="0"
         y="0"
         id="tspan4868"
         style="font-style:italic;font-variant:normal;font-weight:500;font-stretch:normal;font-size:10px;font-family:'CMU Serif';-inkscape-font-specification:'CMU Serif, Medium Italic';font-variant-ligatures:normal;font-variant-caps:normal;font-variant-numeric:normal;font-variant-east-asian:normal" /></text><text
       transform="matrix(1,0,0,-1,205.7286,60.88479)"
       style="font-style:italic;font-variant:normal;font-weight:500;font-stretch:normal;font-size:10px;font-family:'CMU Serif';-inkscape-font-specification:'CMU Serif, Medium Italic';font-variant-ligatures:normal;font-variant-caps:normal;font-variant-numeric:normal;font-variant-east-asian:normal;writing-mode:lr-tb;fill:#000000;fill-opacity:1;fill-rule:nonzero;stroke:none"
       id="text5030"><tspan
         x="0"
         y="0"
         id="tspan5028"
         style="font-style:italic;font-variant:normal;font-weight:500;font-stretch:normal;font-size:10px;font-family:'CMU Serif';-inkscape-font-specification:'CMU Serif, Medium Italic';font-variant-ligatures:normal;font-variant-caps:normal;font-variant-numeric:normal;font-variant-east-asian:normal" /></text><text
       transform="matrix(1,0,0,-1,223.0891,60.8851)"
       style="font-style:italic;font-variant:normal;font-weight:500;font-stretch:normal;font-size:10px;font-family:'CMU Serif';-inkscape-font-specification:'CMU Serif, Medium Italic';font-variant-ligatures:normal;font-variant-caps:normal;font-variant-numeric:normal;font-variant-east-asian:normal;writing-mode:lr-tb;fill:#000000;fill-opacity:1;fill-rule:nonzero;stroke:none"
       id="text5036"><tspan
         x="0 4.4821739"
         y="0"
         sodipodi:role="line"
         id="tspan5034">	</tspan></text><text
       transform="matrix(1,0,0,-1,244.9322,60.8851)"
       style="font-style:italic;font-variant:normal;font-weight:500;font-stretch:normal;font-size:10px;font-family:'CMU Serif';-inkscape-font-specification:'CMU Serif, Medium Italic';font-variant-ligatures:normal;font-variant-caps:normal;font-variant-numeric:normal;font-variant-east-asian:normal;writing-mode:lr-tb;fill:#000000;fill-opacity:1;fill-rule:nonzero;stroke:none"
       id="text5042"><tspan
         x="0"
         y="0"
         id="tspan5040"
         style="font-style:italic;font-variant:normal;font-weight:500;font-stretch:normal;font-size:10px;font-family:'CMU Serif';-inkscape-font-specification:'CMU Serif, Medium Italic';font-variant-ligatures:normal;font-variant-caps:normal;font-variant-numeric:normal;font-variant-east-asian:normal" /></text><text
       transform="matrix(1,0,0,-1,223.485,51.6331)"
       style="font-style:italic;font-variant:normal;font-weight:500;font-stretch:normal;font-size:10px;font-family:'CMU Serif';-inkscape-font-specification:'CMU Serif, Medium Italic';font-variant-ligatures:normal;font-variant-caps:normal;font-variant-numeric:normal;font-variant-east-asian:normal;writing-mode:lr-tb;fill:#000000;fill-opacity:1;fill-rule:nonzero;stroke:none"
       id="text5046"><tspan
         x="0"
         y="0"
         id="tspan5044"
         style="font-style:italic;font-variant:normal;font-weight:500;font-stretch:normal;font-size:10px;font-family:'CMU Serif';-inkscape-font-specification:'CMU Serif, Medium Italic';font-variant-ligatures:normal;font-variant-caps:normal;font-variant-numeric:normal;font-variant-east-asian:normal" /></text><text
       transform="matrix(1,0,0,-1,266.1269,81.66622)"
       style="font-style:italic;font-variant:normal;font-weight:500;font-stretch:normal;font-size:10px;font-family:'CMU Serif';-inkscape-font-specification:'CMU Serif, Medium Italic';font-variant-ligatures:normal;font-variant-caps:normal;font-variant-numeric:normal;font-variant-east-asian:normal;writing-mode:lr-tb;fill:#000000;fill-opacity:1;fill-rule:nonzero;stroke:none"
       id="text5072"><tspan
         x="0"
         y="0"
         id="tspan5070"
         style="font-style:italic;font-variant:normal;font-weight:500;font-stretch:normal;font-size:10px;font-family:'CMU Serif';-inkscape-font-specification:'CMU Serif, Medium Italic';font-variant-ligatures:normal;font-variant-caps:normal;font-variant-numeric:normal;font-variant-east-asian:normal" /></text><text
       transform="matrix(1,0,0,-1,266.1269,75.68168)"
       style="font-style:italic;font-variant:normal;font-weight:500;font-stretch:normal;font-size:10px;font-family:'CMU Serif';-inkscape-font-specification:'CMU Serif, Medium Italic';font-variant-ligatures:normal;font-variant-caps:normal;font-variant-numeric:normal;font-variant-east-asian:normal;writing-mode:lr-tb;fill:#000000;fill-opacity:1;fill-rule:nonzero;stroke:none"
       id="text5076"><tspan
         x="0"
         y="0"
         id="tspan5074"
         style="font-style:italic;font-variant:normal;font-weight:500;font-stretch:normal;font-size:10px;font-family:'CMU Serif';-inkscape-font-specification:'CMU Serif, Medium Italic';font-variant-ligatures:normal;font-variant-caps:normal;font-variant-numeric:normal;font-variant-east-asian:normal" /></text><text
       transform="matrix(1,0,0,-1,266.1269,69.70611)"
       style="font-style:italic;font-variant:normal;font-weight:500;font-stretch:normal;font-size:10px;font-family:'CMU Serif';-inkscape-font-specification:'CMU Serif, Medium Italic';font-variant-ligatures:normal;font-variant-caps:normal;font-variant-numeric:normal;font-variant-east-asian:normal;writing-mode:lr-tb;fill:#000000;fill-opacity:1;fill-rule:nonzero;stroke:none"
       id="text5080"><tspan
         x="0"
         y="0"
         id="tspan5078"
         style="font-style:italic;font-variant:normal;font-weight:500;font-stretch:normal;font-size:10px;font-family:'CMU Serif';-inkscape-font-specification:'CMU Serif, Medium Italic';font-variant-ligatures:normal;font-variant-caps:normal;font-variant-numeric:normal;font-variant-east-asian:normal" /></text><text
       transform="matrix(1,0,0,-1,266.1269,63.73055)"
       style="font-style:italic;font-variant:normal;font-weight:500;font-stretch:normal;font-size:10px;font-family:'CMU Serif';-inkscape-font-specification:'CMU Serif, Medium Italic';font-variant-ligatures:normal;font-variant-caps:normal;font-variant-numeric:normal;font-variant-east-asian:normal;writing-mode:lr-tb;fill:#000000;fill-opacity:1;fill-rule:nonzero;stroke:none"
       id="text5084"><tspan
         x="0"
         y="0"
         id="tspan5082"
         style="font-style:italic;font-variant:normal;font-weight:500;font-stretch:normal;font-size:10px;font-family:'CMU Serif';-inkscape-font-specification:'CMU Serif, Medium Italic';font-variant-ligatures:normal;font-variant-caps:normal;font-variant-numeric:normal;font-variant-east-asian:normal" /></text><text
       transform="matrix(1,0,0,-1,292.209,60.8851)"
       style="font-style:italic;font-variant:normal;font-weight:500;font-stretch:normal;font-size:10px;font-family:'CMU Serif';-inkscape-font-specification:'CMU Serif, Medium Italic';font-variant-ligatures:normal;font-variant-caps:normal;font-variant-numeric:normal;font-variant-east-asian:normal;writing-mode:lr-tb;fill:#000000;fill-opacity:1;fill-rule:nonzero;stroke:none"
       id="text5150"><tspan
         x="0"
         y="0"
         id="tspan5148"
         style="font-style:italic;font-variant:normal;font-weight:500;font-stretch:normal;font-size:10px;font-family:'CMU Serif';-inkscape-font-specification:'CMU Serif, Medium Italic';font-variant-ligatures:normal;font-variant-caps:normal;font-variant-numeric:normal;font-variant-east-asian:normal" /></text><text
       transform="matrix(1,0,0,-1,311.5681,60.8851)"
       style="font-style:italic;font-variant:normal;font-weight:500;font-stretch:normal;font-size:10px;font-family:'CMU Serif';-inkscape-font-specification:'CMU Serif, Medium Italic';font-variant-ligatures:normal;font-variant-caps:normal;font-variant-numeric:normal;font-variant-east-asian:normal;writing-mode:lr-tb;fill:#000000;fill-opacity:1;fill-rule:nonzero;stroke:none"
       id="text5156"><tspan
         x="0 4.4821739"
         y="0"
         sodipodi:role="line"
         id="tspan5154">	</tspan></text><text
       transform="matrix(1,0,0,-1,335.4092,60.8851)"
       style="font-style:italic;font-variant:normal;font-weight:500;font-stretch:normal;font-size:10px;font-family:'CMU Serif';-inkscape-font-specification:'CMU Serif, Medium Italic';font-variant-ligatures:normal;font-variant-caps:normal;font-variant-numeric:normal;font-variant-east-asian:normal;writing-mode:lr-tb;fill:#000000;fill-opacity:1;fill-rule:nonzero;stroke:none"
       id="text5162"><tspan
         x="0"
         y="0"
         id="tspan5160"
         style="font-style:italic;font-variant:normal;font-weight:500;font-stretch:normal;font-size:10px;font-family:'CMU Serif';-inkscape-font-specification:'CMU Serif, Medium Italic';font-variant-ligatures:normal;font-variant-caps:normal;font-variant-numeric:normal;font-variant-east-asian:normal" /></text><text
       transform="matrix(1,0,0,-1,310.4703,50.8051)"
       style="font-style:italic;font-variant:normal;font-weight:500;font-stretch:normal;font-size:10px;font-family:'CMU Serif';-inkscape-font-specification:'CMU Serif, Medium Italic';font-variant-ligatures:normal;font-variant-caps:normal;font-variant-numeric:normal;font-variant-east-asian:normal;writing-mode:lr-tb;fill:#000000;fill-opacity:1;fill-rule:nonzero;stroke:none"
       id="text5170"><tspan
         x="0"
         y="0"
         id="tspan5168"
         style="font-style:italic;font-variant:normal;font-weight:500;font-stretch:normal;font-size:10px;font-family:'CMU Serif';-inkscape-font-specification:'CMU Serif, Medium Italic';font-variant-ligatures:normal;font-variant-caps:normal;font-variant-numeric:normal;font-variant-east-asian:normal" /></text><text
       transform="matrix(1,0,0,-1,360.312,81.666)"
       style="font-style:italic;font-variant:normal;font-weight:500;font-stretch:normal;font-size:10px;font-family:'CMU Serif';-inkscape-font-specification:'CMU Serif, Medium Italic';font-variant-ligatures:normal;font-variant-caps:normal;font-variant-numeric:normal;font-variant-east-asian:normal;writing-mode:lr-tb;fill:#000000;fill-opacity:1;fill-rule:nonzero;stroke:none"
       id="text5212"><tspan
         x="0"
         y="0"
         id="tspan5210"
         style="font-style:italic;font-variant:normal;font-weight:500;font-stretch:normal;font-size:10px;font-family:'CMU Serif';-inkscape-font-specification:'CMU Serif, Medium Italic';font-variant-ligatures:normal;font-variant-caps:normal;font-variant-numeric:normal;font-variant-east-asian:normal" /></text><text
       transform="matrix(1,0,0,-1,360.312,75.68147)"
       style="font-style:italic;font-variant:normal;font-weight:500;font-stretch:normal;font-size:10px;font-family:'CMU Serif';-inkscape-font-specification:'CMU Serif, Medium Italic';font-variant-ligatures:normal;font-variant-caps:normal;font-variant-numeric:normal;font-variant-east-asian:normal;writing-mode:lr-tb;fill:#000000;fill-opacity:1;fill-rule:nonzero;stroke:none"
       id="text5216"><tspan
         x="0"
         y="0"
         id="tspan5214"
         style="font-style:italic;font-variant:normal;font-weight:500;font-stretch:normal;font-size:10px;font-family:'CMU Serif';-inkscape-font-specification:'CMU Serif, Medium Italic';font-variant-ligatures:normal;font-variant-caps:normal;font-variant-numeric:normal;font-variant-east-asian:normal" /></text><text
       transform="matrix(1,0,0,-1,360.312,69.7059)"
       style="font-style:italic;font-variant:normal;font-weight:500;font-stretch:normal;font-size:10px;font-family:'CMU Serif';-inkscape-font-specification:'CMU Serif, Medium Italic';font-variant-ligatures:normal;font-variant-caps:normal;font-variant-numeric:normal;font-variant-east-asian:normal;writing-mode:lr-tb;fill:#000000;fill-opacity:1;fill-rule:nonzero;stroke:none"
       id="text5220"><tspan
         x="0"
         y="0"
         id="tspan5218"
         style="font-style:italic;font-variant:normal;font-weight:500;font-stretch:normal;font-size:10px;font-family:'CMU Serif';-inkscape-font-specification:'CMU Serif, Medium Italic';font-variant-ligatures:normal;font-variant-caps:normal;font-variant-numeric:normal;font-variant-east-asian:normal" /></text><text
       transform="matrix(1,0,0,-1,360.312,63.73033)"
       style="font-style:italic;font-variant:normal;font-weight:500;font-stretch:normal;font-size:10px;font-family:'CMU Serif';-inkscape-font-specification:'CMU Serif, Medium Italic';font-variant-ligatures:normal;font-variant-caps:normal;font-variant-numeric:normal;font-variant-east-asian:normal;writing-mode:lr-tb;fill:#000000;fill-opacity:1;fill-rule:nonzero;stroke:none"
       id="text5224"><tspan
         x="0"
         y="0"
         id="tspan5222"
         style="font-style:italic;font-variant:normal;font-weight:500;font-stretch:normal;font-size:10px;font-family:'CMU Serif';-inkscape-font-specification:'CMU Serif, Medium Italic';font-variant-ligatures:normal;font-variant-caps:normal;font-variant-numeric:normal;font-variant-east-asian:normal" /></text><g
       transform="matrix(0.99959805,0,0,-0.99959805,108.17064,557.61586)"
       ns2:version="1.2.0"
       ns2:texconverter="pdflatex"
       ns2:pdfconverter="inkscape"
       ns2:text="$\Delta t$ "
       ns2:preamble="/Users/hasanabbas/Library/Application Support/org.inkscape.Inkscape/config/inkscape/extensions/circuitSymbols/circuitSymbolsPreamble.tex"
       ns2:scale="1.0710445838614597"
       ns2:alignment="middle center"
       ns2:inkscapeversion="1.0.2"
       ns2:jacobian_sqrt="1.42806"
       id="g1100"><defs
   id="id-c2475aa8-4a29-4389-b75a-32afca6bf7ce">
    <g
   id="id-9a0db7d5-e16c-4f0e-b30b-6be643d6d709">
      <symbol
   overflow="visible"
   id="id-9f69b1ed-90ab-45a3-82f0-e5d837caa653">
        <path
   style="stroke:none;stroke-width:0"
   d=""
   id="id-1281a938-99fe-46aa-b7b3-b9ee75145dd7" />
      </symbol>
      <symbol
   overflow="visible"
   id="id-4393afe2-d37a-4162-96fb-1c0a64a75564">
        <path
   style="stroke:none;stroke-width:0"
   d="m 4.40625,-6.953125 c -0.0625,-0.140625 -0.09375,-0.1875 -0.265625,-0.1875 -0.15625,0 -0.1875,0.046875 -0.25,0.1875 l -3.375,6.75 C 0.46875,-0.109375 0.46875,-0.09375 0.46875,-0.078125 0.46875,0 0.53125,0 0.6875,0 h 6.921875 c 0.15625,0 0.21875,0 0.21875,-0.078125 0,-0.015625 0,-0.03125 -0.046875,-0.125 z m -0.578125,0.8125 2.6875,5.390625 h -5.375 z m 0,0"
   id="id-c10befc4-f0d8-4adc-98c7-e1828113aabf" />
      </symbol>
      <symbol
   overflow="visible"
   id="id-d5062e69-84d4-49db-bcd5-3642d604acec">
        <path
   style="stroke:none;stroke-width:0"
   d=""
   id="id-272c647e-fc1d-4abb-9ae7-43610815fbb9" />
      </symbol>
      <symbol
   overflow="visible"
   id="id-cafa6215-244d-4e04-adf5-57399632c28d">
        <path
   style="stroke:none;stroke-width:0"
   d="m 2.046875,-3.984375 h 0.9375 c 0.203125,0 0.3125,0 0.3125,-0.203125 0,-0.109375 -0.109375,-0.109375 -0.28125,-0.109375 h -0.875 C 2.5,-5.71875 2.546875,-5.90625 2.546875,-5.96875 c 0,-0.171875 -0.125,-0.265625 -0.296875,-0.265625 -0.03125,0 -0.3125,0 -0.390625,0.359375 L 1.46875,-4.296875 h -0.9375 c -0.203125,0 -0.296875,0 -0.296875,0.1875 0,0.125 0.078125,0.125 0.28125,0.125 h 0.875 C 0.671875,-1.15625 0.625,-0.984375 0.625,-0.8125 0.625,-0.265625 1,0.109375 1.546875,0.109375 2.5625,0.109375 3.125,-1.34375 3.125,-1.421875 3.125,-1.53125 3.046875,-1.53125 3.015625,-1.53125 2.921875,-1.53125 2.90625,-1.5 2.859375,-1.390625 2.4375,-0.34375 1.90625,-0.109375 1.5625,-0.109375 c -0.203125,0 -0.3125,-0.125 -0.3125,-0.453125 0,-0.25 0.03125,-0.3125 0.0625,-0.484375 z m 0,0"
   id="id-f97d51d9-1e88-43a3-818a-f55a1306fa46" />
      </symbol>
    </g>
  </defs>
  <g
   id="id-b7b5c0bf-d877-495d-90f7-185a333d869f"
   transform="translate(-149.181,-127.624)">
    <g
   style="fill:#000000;fill-opacity:1"
   id="id-34b29564-8f9d-416c-89e0-fc0bff85b618">
      <g
   transform="translate(148.712,134.765)"
   id="g1092"><path
   style="stroke:none;stroke-width:0"
   d="m 4.40625,-6.953125 c -0.0625,-0.140625 -0.09375,-0.1875 -0.265625,-0.1875 -0.15625,0 -0.1875,0.046875 -0.25,0.1875 l -3.375,6.75 C 0.46875,-0.109375 0.46875,-0.09375 0.46875,-0.078125 0.46875,0 0.53125,0 0.6875,0 h 6.921875 c 0.15625,0 0.21875,0 0.21875,-0.078125 0,-0.015625 0,-0.03125 -0.046875,-0.125 z m -0.578125,0.8125 2.6875,5.390625 h -5.375 z m 0,0"
   id="id-7d0fd6f8-022a-4657-af46-b3b7c1651d56" />
      </g></g>
    <g
   style="fill:#000000;fill-opacity:1"
   id="id-dbdc36cf-5fed-4645-b622-61b587d8e38f">
      <g
   transform="translate(157.015,134.765)"
   id="g1096"><path
   style="stroke:none;stroke-width:0"
   d="m 2.046875,-3.984375 h 0.9375 c 0.203125,0 0.3125,0 0.3125,-0.203125 0,-0.109375 -0.109375,-0.109375 -0.28125,-0.109375 h -0.875 C 2.5,-5.71875 2.546875,-5.90625 2.546875,-5.96875 c 0,-0.171875 -0.125,-0.265625 -0.296875,-0.265625 -0.03125,0 -0.3125,0 -0.390625,0.359375 L 1.46875,-4.296875 h -0.9375 c -0.203125,0 -0.296875,0 -0.296875,0.1875 0,0.125 0.078125,0.125 0.28125,0.125 h 0.875 C 0.671875,-1.15625 0.625,-0.984375 0.625,-0.8125 0.625,-0.265625 1,0.109375 1.546875,0.109375 2.5625,0.109375 3.125,-1.34375 3.125,-1.421875 3.125,-1.53125 3.046875,-1.53125 3.015625,-1.53125 2.921875,-1.53125 2.90625,-1.5 2.859375,-1.390625 2.4375,-0.34375 1.90625,-0.109375 1.5625,-0.109375 c -0.203125,0 -0.3125,-0.125 -0.3125,-0.453125 0,-0.25 0.03125,-0.3125 0.0625,-0.484375 z m 0,0"
   id="id-c43183eb-e680-4938-a9eb-d9eaa4324561" />
      </g></g>
  </g>
</g><g
       transform="matrix(0.99959805,0,0,-0.99959805,239.97479,426.91458)"
       ns2:version="1.2.0"
       ns2:texconverter="pdflatex"
       ns2:pdfconverter="inkscape"
       ns2:text="$\Delta x$  "
       ns2:preamble="/Users/hasanabbas/Library/Application Support/org.inkscape.Inkscape/config/inkscape/extensions/circuitSymbols/circuitSymbolsPreamble.tex"
       ns2:scale="1.0710445838614597"
       ns2:alignment="middle center"
       ns2:inkscapeversion="1.0.2"
       ns2:jacobian_sqrt="1.42806"
       id="g1156"><defs
   id="id-ce8c8932-9af0-4b0d-bed9-dd3e3b27dc22">
    <g
   id="id-de8d866e-1c07-414a-88a2-b186843cb326">
      <symbol
   overflow="visible"
   id="id-b447bbec-e9b8-416b-9e4a-7b40532c4242">
        <path
   style="stroke:none"
   d=""
   id="id-bee8e424-1674-4008-9511-b50c09aa4ee1" />
      </symbol>
      <symbol
   overflow="visible"
   id="id-6f52153b-b18a-4aaa-9a8d-442fe982c25a">
        <path
   style="stroke:none"
   d="m 4.40625,-6.953125 c -0.0625,-0.140625 -0.09375,-0.1875 -0.265625,-0.1875 -0.15625,0 -0.1875,0.046875 -0.25,0.1875 l -3.375,6.75 C 0.46875,-0.109375 0.46875,-0.09375 0.46875,-0.078125 0.46875,0 0.53125,0 0.6875,0 h 6.921875 c 0.15625,0 0.21875,0 0.21875,-0.078125 0,-0.015625 0,-0.03125 -0.046875,-0.125 z m -0.578125,0.8125 2.6875,5.390625 h -5.375 z m 0,0"
   id="id-73738182-fd9f-430d-a6b1-ba953951b40c" />
      </symbol>
      <symbol
   overflow="visible"
   id="id-cd55e7f3-cfa0-4a64-a708-54985c0bed5b">
        <path
   style="stroke:none"
   d=""
   id="id-1c8f9254-d1c7-479f-b967-90528ed84737" />
      </symbol>
      <symbol
   overflow="visible"
   id="id-6752d568-79f5-47ce-849e-080b25efb7a5">
        <path
   style="stroke:none"
   d="M 3.328125,-3.015625 C 3.390625,-3.265625 3.625,-4.1875 4.3125,-4.1875 c 0.046875,0 0.296875,0 0.5,0.125 C 4.53125,-4 4.34375,-3.765625 4.34375,-3.515625 c 0,0.15625 0.109375,0.34375 0.375,0.34375 0.21875,0 0.53125,-0.171875 0.53125,-0.578125 0,-0.515625 -0.578125,-0.65625 -0.921875,-0.65625 -0.578125,0 -0.921875,0.53125 -1.046875,0.75 -0.25,-0.65625 -0.78125,-0.75 -1.078125,-0.75 -1.03125,0 -1.609375,1.28125 -1.609375,1.53125 0,0.109375 0.109375,0.109375 0.125,0.109375 0.078125,0 0.109375,-0.03125 0.125,-0.109375 0.34375,-1.0625 1,-1.3125 1.34375,-1.3125 0.1875,0 0.53125,0.09375 0.53125,0.671875 0,0.3125 -0.171875,0.96875 -0.53125,2.375 -0.15625,0.609375 -0.515625,1.03125 -0.953125,1.03125 -0.0625,0 -0.28125,0 -0.5,-0.125 0.25,-0.0625 0.46875,-0.265625 0.46875,-0.546875 0,-0.265625 -0.21875,-0.34375 -0.359375,-0.34375 -0.3125,0 -0.546875,0.25 -0.546875,0.578125 0,0.453125 0.484375,0.65625 0.921875,0.65625 0.671875,0 1.03125,-0.703125 1.046875,-0.75 0.125,0.359375 0.484375,0.75 1.078125,0.75 1.03125,0 1.59375,-1.28125 1.59375,-1.53125 0,-0.109375 -0.078125,-0.109375 -0.109375,-0.109375 -0.09375,0 -0.109375,0.046875 -0.140625,0.109375 -0.328125,1.078125 -1,1.3125 -1.3125,1.3125 -0.390625,0 -0.546875,-0.3125 -0.546875,-0.65625 0,-0.21875 0.046875,-0.4375 0.15625,-0.875 z m 0,0"
   id="id-6b337e06-309c-45a7-9178-9a01a8b05527" />
      </symbol>
    </g>
  </defs>
  <g
   id="id-a9894bdb-b500-4736-a6dc-1ce5d2c7523e"
   transform="translate(-149.181,-127.624)">
    <g
   style="fill:#000000;fill-opacity:1"
   id="id-29603eb7-d151-402b-8540-ed745d8cfc06">
      <g
   transform="translate(148.712,134.765)"
   id="g1301"><path
   style="stroke:none"
   d="m 4.40625,-6.953125 c -0.0625,-0.140625 -0.09375,-0.1875 -0.265625,-0.1875 -0.15625,0 -0.1875,0.046875 -0.25,0.1875 l -3.375,6.75 C 0.46875,-0.109375 0.46875,-0.09375 0.46875,-0.078125 0.46875,0 0.53125,0 0.6875,0 h 6.921875 c 0.15625,0 0.21875,0 0.21875,-0.078125 0,-0.015625 0,-0.03125 -0.046875,-0.125 z m -0.578125,0.8125 2.6875,5.390625 h -5.375 z m 0,0"
   id="id-fd094a1b-eb69-4086-9632-471de0d09486" />
      </g></g>
    <g
   style="fill:#000000;fill-opacity:1"
   id="id-5424206f-2c3f-4177-95f1-57c2956f1520">
      <g
   transform="translate(157.015,134.765)"
   id="g1305"><path
   style="stroke:none"
   d="M 3.328125,-3.015625 C 3.390625,-3.265625 3.625,-4.1875 4.3125,-4.1875 c 0.046875,0 0.296875,0 0.5,0.125 C 4.53125,-4 4.34375,-3.765625 4.34375,-3.515625 c 0,0.15625 0.109375,0.34375 0.375,0.34375 0.21875,0 0.53125,-0.171875 0.53125,-0.578125 0,-0.515625 -0.578125,-0.65625 -0.921875,-0.65625 -0.578125,0 -0.921875,0.53125 -1.046875,0.75 -0.25,-0.65625 -0.78125,-0.75 -1.078125,-0.75 -1.03125,0 -1.609375,1.28125 -1.609375,1.53125 0,0.109375 0.109375,0.109375 0.125,0.109375 0.078125,0 0.109375,-0.03125 0.125,-0.109375 0.34375,-1.0625 1,-1.3125 1.34375,-1.3125 0.1875,0 0.53125,0.09375 0.53125,0.671875 0,0.3125 -0.171875,0.96875 -0.53125,2.375 -0.15625,0.609375 -0.515625,1.03125 -0.953125,1.03125 -0.0625,0 -0.28125,0 -0.5,-0.125 0.25,-0.0625 0.46875,-0.265625 0.46875,-0.546875 0,-0.265625 -0.21875,-0.34375 -0.359375,-0.34375 -0.3125,0 -0.546875,0.25 -0.546875,0.578125 0,0.453125 0.484375,0.65625 0.921875,0.65625 0.671875,0 1.03125,-0.703125 1.046875,-0.75 0.125,0.359375 0.484375,0.75 1.078125,0.75 1.03125,0 1.59375,-1.28125 1.59375,-1.53125 0,-0.109375 -0.078125,-0.109375 -0.109375,-0.109375 -0.09375,0 -0.109375,0.046875 -0.140625,0.109375 -0.328125,1.078125 -1,1.3125 -1.3125,1.3125 -0.390625,0 -0.546875,-0.3125 -0.546875,-0.65625 0,-0.21875 0.046875,-0.4375 0.15625,-0.875 z m 0,0"
   id="id-0b55b753-785a-46d9-b295-a3099a546c31" />
      </g></g>
  </g>
</g><g
       transform="matrix(1.0690219,0,0,-1.0690219,94.652877,582.16825)"
       ns2:version="1.2.0"
       ns2:texconverter="pdflatex"
       ns2:pdfconverter="inkscape"
       ns2:text="$n_{max}$ "
       ns2:preamble="/Users/hasanabbas/Library/Application Support/org.inkscape.Inkscape/config/inkscape/extensions/circuitSymbols/circuitSymbolsPreamble.tex"
       ns2:scale="1.0710445838614597"
       ns2:alignment="middle center"
       ns2:inkscapeversion="1.0.2"
       ns2:jacobian_sqrt="1.42806"
       id="g1517"><defs
   id="id-efdb5307-6e6d-4dc2-8e91-c6ea5c25ad5b">
    <g
   id="id-858b94cb-ed64-472f-8427-fb4fa7689597">
      <symbol
   overflow="visible"
   id="id-c1d3e85e-6fe3-4308-8939-583ed1cc241e">
        <path
   style="stroke:none;stroke-width:0"
   d=""
   id="id-0d2ae0b8-c382-4d0e-8bdb-dfe23f3197a4" />
      </symbol>
      <symbol
   overflow="visible"
   id="id-0d9b1c6f-2a87-4d97-8d57-eecef05333d1">
        <path
   style="stroke:none;stroke-width:0"
   d="m 0.875,-0.59375 c -0.03125,0.15625 -0.09375,0.390625 -0.09375,0.4375 0,0.171875 0.140625,0.265625 0.296875,0.265625 0.125,0 0.296875,-0.078125 0.375,-0.28125 0,-0.015625 0.125,-0.484375 0.1875,-0.734375 l 0.21875,-0.890625 C 1.90625,-2.03125 1.96875,-2.25 2.03125,-2.46875 c 0.03125,-0.171875 0.109375,-0.46875 0.125,-0.5 0.140625,-0.3125 0.671875,-1.21875 1.625,-1.21875 0.453125,0 0.53125,0.375 0.53125,0.703125 0,0.609375 -0.484375,1.890625 -0.640625,2.3125 C 3.578125,-0.9375 3.5625,-0.8125 3.5625,-0.703125 c 0,0.46875 0.359375,0.8125 0.828125,0.8125 0.9375,0 1.296875,-1.453125 1.296875,-1.53125 0,-0.109375 -0.078125,-0.109375 -0.109375,-0.109375 -0.109375,0 -0.109375,0.03125 -0.15625,0.1875 -0.203125,0.671875 -0.53125,1.234375 -1.015625,1.234375 -0.171875,0 -0.234375,-0.09375 -0.234375,-0.328125 0,-0.25 0.078125,-0.484375 0.171875,-0.703125 0.1875,-0.53125 0.609375,-1.625 0.609375,-2.203125 0,-0.65625 -0.421875,-1.0625 -1.140625,-1.0625 -0.90625,0 -1.390625,0.640625 -1.5625,0.875 -0.046875,-0.5625 -0.453125,-0.875 -0.921875,-0.875 -0.453125,0 -0.640625,0.390625 -0.734375,0.5625 C 0.421875,-3.5 0.296875,-2.90625 0.296875,-2.875 c 0,0.109375 0.09375,0.109375 0.109375,0.109375 0.109375,0 0.109375,-0.015625 0.171875,-0.234375 0.171875,-0.703125 0.375,-1.1875 0.734375,-1.1875 0.1875,0 0.296875,0.125 0.296875,0.453125 0,0.21875 -0.03125,0.328125 -0.15625,0.84375 z m 0,0"
   id="id-741010c2-9cc5-4d30-91e5-8ef94be0f206" />
      </symbol>
      <symbol
   overflow="visible"
   id="id-1c110f52-7d93-4aee-b6a6-a48a705926c1">
        <path
   style="stroke:none;stroke-width:0"
   d=""
   id="id-04ddd043-8f20-4ea8-b6f7-8f22031098a2" />
      </symbol>
      <symbol
   overflow="visible"
   id="id-f04d473b-c88c-401d-9b7c-d6e7d311d1f0">
        <path
   style="stroke:none;stroke-width:0"
   d="m 3.03125,-0.5625 c -0.046875,0.140625 -0.109375,0.375 -0.109375,0.40625 0,0.15625 0.125,0.21875 0.234375,0.21875 0.140625,0 0.25,-0.078125 0.28125,-0.140625 0.03125,-0.0625 0.09375,-0.296875 0.125,-0.4375 0.03125,-0.125 0.109375,-0.453125 0.15625,-0.625 0.03125,-0.15625 0.078125,-0.3125 0.109375,-0.46875 0.078125,-0.296875 0.078125,-0.3125 0.21875,-0.53125 C 4.265625,-2.484375 4.625,-2.875 5.15625,-2.875 c 0.390625,0 0.421875,0.3125 0.421875,0.484375 0,0.421875 -0.296875,1.1875 -0.421875,1.484375 -0.0625,0.203125 -0.09375,0.265625 -0.09375,0.375 0,0.375 0.296875,0.59375 0.65625,0.59375 0.703125,0 1,-0.953125 1,-1.0625 0,-0.09375 -0.078125,-0.09375 -0.109375,-0.09375 -0.09375,0 -0.09375,0.046875 -0.125,0.125 C 6.328125,-0.40625 6.015625,-0.125 5.75,-0.125 c -0.15625,0 -0.1875,-0.09375 -0.1875,-0.25 0,-0.15625 0.046875,-0.25 0.171875,-0.5625 0.078125,-0.21875 0.359375,-0.953125 0.359375,-1.34375 0,-0.109375 0,-0.40625 -0.25,-0.609375 -0.125,-0.078125 -0.328125,-0.1875 -0.65625,-0.1875 -0.625,0 -1,0.421875 -1.234375,0.703125 C 3.90625,-2.96875 3.40625,-3.078125 3.046875,-3.078125 2.46875,-3.078125 2.078125,-2.71875 1.875,-2.4375 1.828125,-2.921875 1.421875,-3.078125 1.125,-3.078125 c -0.296875,0 -0.453125,0.21875 -0.546875,0.375 -0.15625,0.265625 -0.25,0.65625 -0.25,0.703125 0,0.078125 0.09375,0.078125 0.125,0.078125 0.09375,0 0.09375,-0.015625 0.140625,-0.203125 0.109375,-0.40625 0.25,-0.75 0.515625,-0.75 0.1875,0 0.234375,0.15625 0.234375,0.34375 0,0.125 -0.0625,0.390625 -0.125,0.578125 -0.046875,0.1875 -0.109375,0.46875 -0.140625,0.625 L 0.84375,-0.4375 c -0.015625,0.09375 -0.0625,0.265625 -0.0625,0.28125 0,0.15625 0.125,0.21875 0.234375,0.21875 0.125,0 0.234375,-0.078125 0.28125,-0.140625 0.03125,-0.0625 0.078125,-0.296875 0.125,-0.4375 0.03125,-0.125 0.109375,-0.453125 0.140625,-0.625 0.046875,-0.15625 0.09375,-0.3125 0.125,-0.46875 0.078125,-0.28125 0.09375,-0.34375 0.296875,-0.625 C 2.171875,-2.515625 2.5,-2.875 3.03125,-2.875 c 0.390625,0 0.40625,0.359375 0.40625,0.484375 0,0.171875 -0.015625,0.265625 -0.125,0.65625 z m 0,0"
   id="id-3b7ce55d-c31d-4659-903a-7c42166e0bf8" />
      </symbol>
      <symbol
   overflow="visible"
   id="id-2548cab7-ddb2-45e2-9792-5885503c737f">
        <path
   style="stroke:none;stroke-width:0"
   d="m 2.9375,-2.65625 c -0.140625,-0.234375 -0.375,-0.421875 -0.71875,-0.421875 -0.890625,0 -1.796875,0.984375 -1.796875,1.984375 0,0.6875 0.453125,1.15625 1.0625,1.15625 0.375,0 0.703125,-0.203125 0.984375,-0.484375 C 2.59375,0 3,0.0625 3.1875,0.0625 c 0.25,0 0.421875,-0.140625 0.546875,-0.359375 0.15625,-0.28125 0.25,-0.671875 0.25,-0.703125 0,-0.09375 -0.09375,-0.09375 -0.109375,-0.09375 -0.109375,0 -0.109375,0.03125 -0.15625,0.21875 C 3.625,-0.53125 3.5,-0.125 3.203125,-0.125 3.03125,-0.125 2.96875,-0.28125 2.96875,-0.46875 c 0,-0.109375 0.0625,-0.375 0.109375,-0.546875 0.046875,-0.1875 0.125,-0.46875 0.15625,-0.625 L 3.375,-2.171875 C 3.421875,-2.359375 3.5,-2.6875 3.5,-2.71875 3.5,-2.875 3.375,-2.9375 3.265625,-2.9375 c -0.125,0 -0.28125,0.078125 -0.328125,0.28125 z M 2.5,-0.875 C 2.453125,-0.671875 2.296875,-0.53125 2.140625,-0.40625 2.078125,-0.34375 1.796875,-0.125 1.5,-0.125 c -0.265625,0 -0.515625,-0.1875 -0.515625,-0.671875 0,-0.375 0.203125,-1.140625 0.375,-1.421875 0.3125,-0.5625 0.671875,-0.65625 0.859375,-0.65625 0.484375,0 0.625,0.53125 0.625,0.609375 0,0.015625 -0.015625,0.078125 -0.015625,0.09375 z m 0,0"
   id="id-41899422-a133-4f72-802c-dfab72048dff" />
      </symbol>
      <symbol
   overflow="visible"
   id="id-6f7b2748-30d4-4461-9556-3d92cafca66f">
        <path
   style="stroke:none;stroke-width:0"
   d="M 1.734375,-0.734375 C 1.671875,-0.5 1.4375,-0.125 1.078125,-0.125 c -0.015625,0 -0.234375,0 -0.375,-0.09375 0.28125,-0.09375 0.3125,-0.34375 0.3125,-0.390625 0,-0.15625 -0.125,-0.25 -0.28125,-0.25 -0.203125,0 -0.40625,0.15625 -0.40625,0.421875 0,0.34375 0.390625,0.5 0.734375,0.5 0.328125,0 0.609375,-0.1875 0.78125,-0.484375 C 2.015625,-0.0625 2.390625,0.0625 2.671875,0.0625 c 0.8125,0 1.234375,-0.859375 1.234375,-1.0625 0,-0.09375 -0.09375,-0.09375 -0.109375,-0.09375 -0.109375,0 -0.109375,0.046875 -0.140625,0.125 -0.140625,0.484375 -0.5625,0.84375 -0.953125,0.84375 -0.28125,0 -0.421875,-0.1875 -0.421875,-0.453125 0,-0.1875 0.171875,-0.8125 0.359375,-1.59375 C 2.78125,-2.703125 3.09375,-2.875 3.328125,-2.875 c 0.015625,0 0.21875,0 0.375,0.09375 -0.21875,0.0625 -0.3125,0.265625 -0.3125,0.390625 0,0.140625 0.125,0.25 0.28125,0.25 0.15625,0 0.390625,-0.125 0.390625,-0.421875 0,-0.390625 -0.453125,-0.515625 -0.71875,-0.515625 -0.359375,0 -0.640625,0.234375 -0.78125,0.5 -0.125,-0.28125 -0.453125,-0.5 -0.84375,-0.5 C 0.9375,-3.078125 0.5,-2.21875 0.5,-2 c 0,0.078125 0.09375,0.078125 0.109375,0.078125 0.09375,0 0.09375,-0.015625 0.140625,-0.109375 C 0.921875,-2.578125 1.359375,-2.875 1.703125,-2.875 1.9375,-2.875 2.125,-2.75 2.125,-2.421875 2.125,-2.28125 2.03125,-1.9375 1.96875,-1.6875 Z m 0,0"
   id="id-96fb12b7-9019-44aa-9c95-96fc5ecfddbf" />
      </symbol>
    </g>
  </defs>
  <g
   id="id-c0bdc264-cc59-4349-851a-62382b7a45d9"
   transform="translate(-149.009,-130.359)">
    <g
   style="fill:#000000;fill-opacity:1"
   id="id-47296b05-bdf0-43ec-911f-32f53ec2c722">
      <g
   transform="translate(148.712,134.765)"
   id="g1503"><path
   style="stroke:none;stroke-width:0"
   d="m 0.875,-0.59375 c -0.03125,0.15625 -0.09375,0.390625 -0.09375,0.4375 0,0.171875 0.140625,0.265625 0.296875,0.265625 0.125,0 0.296875,-0.078125 0.375,-0.28125 0,-0.015625 0.125,-0.484375 0.1875,-0.734375 l 0.21875,-0.890625 C 1.90625,-2.03125 1.96875,-2.25 2.03125,-2.46875 c 0.03125,-0.171875 0.109375,-0.46875 0.125,-0.5 0.140625,-0.3125 0.671875,-1.21875 1.625,-1.21875 0.453125,0 0.53125,0.375 0.53125,0.703125 0,0.609375 -0.484375,1.890625 -0.640625,2.3125 C 3.578125,-0.9375 3.5625,-0.8125 3.5625,-0.703125 c 0,0.46875 0.359375,0.8125 0.828125,0.8125 0.9375,0 1.296875,-1.453125 1.296875,-1.53125 0,-0.109375 -0.078125,-0.109375 -0.109375,-0.109375 -0.109375,0 -0.109375,0.03125 -0.15625,0.1875 -0.203125,0.671875 -0.53125,1.234375 -1.015625,1.234375 -0.171875,0 -0.234375,-0.09375 -0.234375,-0.328125 0,-0.25 0.078125,-0.484375 0.171875,-0.703125 0.1875,-0.53125 0.609375,-1.625 0.609375,-2.203125 0,-0.65625 -0.421875,-1.0625 -1.140625,-1.0625 -0.90625,0 -1.390625,0.640625 -1.5625,0.875 -0.046875,-0.5625 -0.453125,-0.875 -0.921875,-0.875 -0.453125,0 -0.640625,0.390625 -0.734375,0.5625 C 0.421875,-3.5 0.296875,-2.90625 0.296875,-2.875 c 0,0.109375 0.09375,0.109375 0.109375,0.109375 0.109375,0 0.109375,-0.015625 0.171875,-0.234375 0.171875,-0.703125 0.375,-1.1875 0.734375,-1.1875 0.1875,0 0.296875,0.125 0.296875,0.453125 0,0.21875 -0.03125,0.328125 -0.15625,0.84375 z m 0,0"
   id="id-dc786ae7-9898-483b-b1e4-ef0af968b7c4" />
      </g></g>
    <g
   style="fill:#000000;fill-opacity:1"
   id="id-f3f9f169-0057-4351-b25e-7b18d4d4581f">
      <g
   transform="translate(154.692,136.259)"
   id="g1507"><path
   style="stroke:none;stroke-width:0"
   d="m 3.03125,-0.5625 c -0.046875,0.140625 -0.109375,0.375 -0.109375,0.40625 0,0.15625 0.125,0.21875 0.234375,0.21875 0.140625,0 0.25,-0.078125 0.28125,-0.140625 0.03125,-0.0625 0.09375,-0.296875 0.125,-0.4375 0.03125,-0.125 0.109375,-0.453125 0.15625,-0.625 0.03125,-0.15625 0.078125,-0.3125 0.109375,-0.46875 0.078125,-0.296875 0.078125,-0.3125 0.21875,-0.53125 C 4.265625,-2.484375 4.625,-2.875 5.15625,-2.875 c 0.390625,0 0.421875,0.3125 0.421875,0.484375 0,0.421875 -0.296875,1.1875 -0.421875,1.484375 -0.0625,0.203125 -0.09375,0.265625 -0.09375,0.375 0,0.375 0.296875,0.59375 0.65625,0.59375 0.703125,0 1,-0.953125 1,-1.0625 0,-0.09375 -0.078125,-0.09375 -0.109375,-0.09375 -0.09375,0 -0.09375,0.046875 -0.125,0.125 C 6.328125,-0.40625 6.015625,-0.125 5.75,-0.125 c -0.15625,0 -0.1875,-0.09375 -0.1875,-0.25 0,-0.15625 0.046875,-0.25 0.171875,-0.5625 0.078125,-0.21875 0.359375,-0.953125 0.359375,-1.34375 0,-0.109375 0,-0.40625 -0.25,-0.609375 -0.125,-0.078125 -0.328125,-0.1875 -0.65625,-0.1875 -0.625,0 -1,0.421875 -1.234375,0.703125 C 3.90625,-2.96875 3.40625,-3.078125 3.046875,-3.078125 2.46875,-3.078125 2.078125,-2.71875 1.875,-2.4375 1.828125,-2.921875 1.421875,-3.078125 1.125,-3.078125 c -0.296875,0 -0.453125,0.21875 -0.546875,0.375 -0.15625,0.265625 -0.25,0.65625 -0.25,0.703125 0,0.078125 0.09375,0.078125 0.125,0.078125 0.09375,0 0.09375,-0.015625 0.140625,-0.203125 0.109375,-0.40625 0.25,-0.75 0.515625,-0.75 0.1875,0 0.234375,0.15625 0.234375,0.34375 0,0.125 -0.0625,0.390625 -0.125,0.578125 -0.046875,0.1875 -0.109375,0.46875 -0.140625,0.625 L 0.84375,-0.4375 c -0.015625,0.09375 -0.0625,0.265625 -0.0625,0.28125 0,0.15625 0.125,0.21875 0.234375,0.21875 0.125,0 0.234375,-0.078125 0.28125,-0.140625 0.03125,-0.0625 0.078125,-0.296875 0.125,-0.4375 0.03125,-0.125 0.109375,-0.453125 0.140625,-0.625 0.046875,-0.15625 0.09375,-0.3125 0.125,-0.46875 0.078125,-0.28125 0.09375,-0.34375 0.296875,-0.625 C 2.171875,-2.515625 2.5,-2.875 3.03125,-2.875 c 0.390625,0 0.40625,0.359375 0.40625,0.484375 0,0.171875 -0.015625,0.265625 -0.125,0.65625 z m 0,0"
   id="id-b0dce0f1-6024-4b6f-ae67-3a0023e1cf48" />
      </g><g
   transform="translate(161.761,136.259)"
   id="g1510"><path
   style="stroke:none;stroke-width:0"
   d="m 2.9375,-2.65625 c -0.140625,-0.234375 -0.375,-0.421875 -0.71875,-0.421875 -0.890625,0 -1.796875,0.984375 -1.796875,1.984375 0,0.6875 0.453125,1.15625 1.0625,1.15625 0.375,0 0.703125,-0.203125 0.984375,-0.484375 C 2.59375,0 3,0.0625 3.1875,0.0625 c 0.25,0 0.421875,-0.140625 0.546875,-0.359375 0.15625,-0.28125 0.25,-0.671875 0.25,-0.703125 0,-0.09375 -0.09375,-0.09375 -0.109375,-0.09375 -0.109375,0 -0.109375,0.03125 -0.15625,0.21875 C 3.625,-0.53125 3.5,-0.125 3.203125,-0.125 3.03125,-0.125 2.96875,-0.28125 2.96875,-0.46875 c 0,-0.109375 0.0625,-0.375 0.109375,-0.546875 0.046875,-0.1875 0.125,-0.46875 0.15625,-0.625 L 3.375,-2.171875 C 3.421875,-2.359375 3.5,-2.6875 3.5,-2.71875 3.5,-2.875 3.375,-2.9375 3.265625,-2.9375 c -0.125,0 -0.28125,0.078125 -0.328125,0.28125 z M 2.5,-0.875 C 2.453125,-0.671875 2.296875,-0.53125 2.140625,-0.40625 2.078125,-0.34375 1.796875,-0.125 1.5,-0.125 c -0.265625,0 -0.515625,-0.1875 -0.515625,-0.671875 0,-0.375 0.203125,-1.140625 0.375,-1.421875 0.3125,-0.5625 0.671875,-0.65625 0.859375,-0.65625 0.484375,0 0.625,0.53125 0.625,0.609375 0,0.015625 -0.015625,0.078125 -0.015625,0.09375 z m 0,0"
   id="id-de0d0e9c-963f-45b4-9095-854bf7ad1354" />
      </g><g
   transform="translate(166.083,136.259)"
   id="g1513"><path
   style="stroke:none;stroke-width:0"
   d="M 1.734375,-0.734375 C 1.671875,-0.5 1.4375,-0.125 1.078125,-0.125 c -0.015625,0 -0.234375,0 -0.375,-0.09375 0.28125,-0.09375 0.3125,-0.34375 0.3125,-0.390625 0,-0.15625 -0.125,-0.25 -0.28125,-0.25 -0.203125,0 -0.40625,0.15625 -0.40625,0.421875 0,0.34375 0.390625,0.5 0.734375,0.5 0.328125,0 0.609375,-0.1875 0.78125,-0.484375 C 2.015625,-0.0625 2.390625,0.0625 2.671875,0.0625 c 0.8125,0 1.234375,-0.859375 1.234375,-1.0625 0,-0.09375 -0.09375,-0.09375 -0.109375,-0.09375 -0.109375,0 -0.109375,0.046875 -0.140625,0.125 -0.140625,0.484375 -0.5625,0.84375 -0.953125,0.84375 -0.28125,0 -0.421875,-0.1875 -0.421875,-0.453125 0,-0.1875 0.171875,-0.8125 0.359375,-1.59375 C 2.78125,-2.703125 3.09375,-2.875 3.328125,-2.875 c 0.015625,0 0.21875,0 0.375,0.09375 -0.21875,0.0625 -0.3125,0.265625 -0.3125,0.390625 0,0.140625 0.125,0.25 0.28125,0.25 0.15625,0 0.390625,-0.125 0.390625,-0.421875 0,-0.390625 -0.453125,-0.515625 -0.71875,-0.515625 -0.359375,0 -0.640625,0.234375 -0.78125,0.5 -0.125,-0.28125 -0.453125,-0.5 -0.84375,-0.5 C 0.9375,-3.078125 0.5,-2.21875 0.5,-2 c 0,0.078125 0.09375,0.078125 0.109375,0.078125 0.09375,0 0.09375,-0.015625 0.140625,-0.109375 C 0.921875,-2.578125 1.359375,-2.875 1.703125,-2.875 1.9375,-2.875 2.125,-2.75 2.125,-2.421875 2.125,-2.28125 2.03125,-1.9375 1.96875,-1.6875 Z m 0,0"
   id="id-99a63269-f600-4b58-8fb6-e6f166a7f74a" />
      </g></g>
  </g>
</g><g
       transform="matrix(1.06902,0,0,-1.06902,266.609,409.87775)"
       ns2:version="1.2.0"
       ns2:texconverter="pdflatex"
       ns2:pdfconverter="inkscape"
       ns2:text="$i_{max}$ 
"
       ns2:preamble="/Users/hasanabbas/Library/Application Support/org.inkscape.Inkscape/config/inkscape/extensions/circuitSymbols/circuitSymbolsPreamble.tex"
       ns2:scale="0.8017661134856288"
       ns2:alignment="middle center"
       ns2:inkscapeversion="1.0.2"
       ns2:jacobian_sqrt="1.06902"
       id="g1615"><defs
   id="id-7295cc99-5561-4d0a-bb1e-9e99f6efb065">
    <g
   id="id-22f975fc-b2b1-40d2-a791-39e10d9c741e">
      <symbol
   overflow="visible"
   id="id-4cb3611b-4a81-4c88-a244-dd98fd05d1f0">
        <path
   style="stroke:none"
   d=""
   id="id-49ec4bc3-54f9-4393-982f-2d0f2ec680c0" />
      </symbol>
      <symbol
   overflow="visible"
   id="id-497df773-72bd-40c0-8729-c1f478999cb3">
        <path
   style="stroke:none"
   d="m 2.828125,-6.234375 c 0,-0.203125 -0.140625,-0.359375 -0.359375,-0.359375 -0.28125,0 -0.546875,0.265625 -0.546875,0.53125 0,0.1875 0.140625,0.359375 0.375,0.359375 0.234375,0 0.53125,-0.234375 0.53125,-0.53125 z m -0.75,3.75 c 0.109375,-0.28125 0.109375,-0.3125 0.21875,-0.578125 0.078125,-0.203125 0.125,-0.34375 0.125,-0.53125 0,-0.4375 -0.3125,-0.8125 -0.8125,-0.8125 -0.9375,0 -1.3125,1.453125 -1.3125,1.53125 0,0.109375 0.09375,0.109375 0.109375,0.109375 0.109375,0 0.109375,-0.03125 0.15625,-0.1875 0.28125,-0.9375 0.671875,-1.234375 1.015625,-1.234375 0.078125,0 0.25,0 0.25,0.3125 0,0.21875 -0.078125,0.421875 -0.109375,0.53125 -0.078125,0.25 -0.53125,1.40625 -0.6875,1.84375 -0.109375,0.25 -0.234375,0.578125 -0.234375,0.796875 0,0.46875 0.34375,0.8125 0.8125,0.8125 0.9375,0 1.3125,-1.4375 1.3125,-1.53125 0,-0.109375 -0.09375,-0.109375 -0.125,-0.109375 -0.09375,0 -0.09375,0.03125 -0.140625,0.1875 -0.1875,0.625 -0.515625,1.234375 -1.015625,1.234375 -0.171875,0 -0.25,-0.09375 -0.25,-0.328125 0,-0.25 0.0625,-0.390625 0.296875,-1 z m 0,0"
   id="id-b46f9eaa-267c-4b45-b095-17f1fab98c14" />
      </symbol>
      <symbol
   overflow="visible"
   id="id-231fe361-dd7e-49d5-8321-88b196578840">
        <path
   style="stroke:none"
   d=""
   id="id-a238039d-3f21-4b3f-a3e5-e86555b61910" />
      </symbol>
      <symbol
   overflow="visible"
   id="id-2c60f10c-1e67-4a2d-8de5-d67e64bce450">
        <path
   style="stroke:none"
   d="m 3.03125,-0.5625 c -0.046875,0.140625 -0.109375,0.375 -0.109375,0.40625 0,0.15625 0.125,0.21875 0.234375,0.21875 0.140625,0 0.25,-0.078125 0.28125,-0.140625 0.03125,-0.0625 0.09375,-0.296875 0.125,-0.4375 0.03125,-0.125 0.109375,-0.453125 0.15625,-0.625 0.03125,-0.15625 0.078125,-0.3125 0.109375,-0.46875 0.078125,-0.296875 0.078125,-0.3125 0.21875,-0.53125 C 4.265625,-2.484375 4.625,-2.875 5.15625,-2.875 c 0.390625,0 0.421875,0.3125 0.421875,0.484375 0,0.421875 -0.296875,1.1875 -0.421875,1.484375 -0.0625,0.203125 -0.09375,0.265625 -0.09375,0.375 0,0.375 0.296875,0.59375 0.65625,0.59375 0.703125,0 1,-0.953125 1,-1.0625 0,-0.09375 -0.078125,-0.09375 -0.109375,-0.09375 -0.09375,0 -0.09375,0.046875 -0.125,0.125 C 6.328125,-0.40625 6.015625,-0.125 5.75,-0.125 c -0.15625,0 -0.1875,-0.09375 -0.1875,-0.25 0,-0.15625 0.046875,-0.25 0.171875,-0.5625 0.078125,-0.21875 0.359375,-0.953125 0.359375,-1.34375 0,-0.109375 0,-0.40625 -0.25,-0.609375 -0.125,-0.078125 -0.328125,-0.1875 -0.65625,-0.1875 -0.625,0 -1,0.421875 -1.234375,0.703125 C 3.90625,-2.96875 3.40625,-3.078125 3.046875,-3.078125 2.46875,-3.078125 2.078125,-2.71875 1.875,-2.4375 1.828125,-2.921875 1.421875,-3.078125 1.125,-3.078125 c -0.296875,0 -0.453125,0.21875 -0.546875,0.375 -0.15625,0.265625 -0.25,0.65625 -0.25,0.703125 0,0.078125 0.09375,0.078125 0.125,0.078125 0.09375,0 0.09375,-0.015625 0.140625,-0.203125 0.109375,-0.40625 0.25,-0.75 0.515625,-0.75 0.1875,0 0.234375,0.15625 0.234375,0.34375 0,0.125 -0.0625,0.390625 -0.125,0.578125 -0.046875,0.1875 -0.109375,0.46875 -0.140625,0.625 L 0.84375,-0.4375 c -0.015625,0.09375 -0.0625,0.265625 -0.0625,0.28125 0,0.15625 0.125,0.21875 0.234375,0.21875 0.125,0 0.234375,-0.078125 0.28125,-0.140625 0.03125,-0.0625 0.078125,-0.296875 0.125,-0.4375 0.03125,-0.125 0.109375,-0.453125 0.140625,-0.625 0.046875,-0.15625 0.09375,-0.3125 0.125,-0.46875 0.078125,-0.28125 0.09375,-0.34375 0.296875,-0.625 C 2.171875,-2.515625 2.5,-2.875 3.03125,-2.875 c 0.390625,0 0.40625,0.359375 0.40625,0.484375 0,0.171875 -0.015625,0.265625 -0.125,0.65625 z m 0,0"
   id="id-65ea9e2f-be58-4d4e-bd5b-23b940d40adc" />
      </symbol>
      <symbol
   overflow="visible"
   id="id-f9d22112-2aed-4426-91c0-21ad54bb7456">
        <path
   style="stroke:none"
   d="m 2.9375,-2.65625 c -0.140625,-0.234375 -0.375,-0.421875 -0.71875,-0.421875 -0.890625,0 -1.796875,0.984375 -1.796875,1.984375 0,0.6875 0.453125,1.15625 1.0625,1.15625 0.375,0 0.703125,-0.203125 0.984375,-0.484375 C 2.59375,0 3,0.0625 3.1875,0.0625 c 0.25,0 0.421875,-0.140625 0.546875,-0.359375 0.15625,-0.28125 0.25,-0.671875 0.25,-0.703125 0,-0.09375 -0.09375,-0.09375 -0.109375,-0.09375 -0.109375,0 -0.109375,0.03125 -0.15625,0.21875 C 3.625,-0.53125 3.5,-0.125 3.203125,-0.125 3.03125,-0.125 2.96875,-0.28125 2.96875,-0.46875 c 0,-0.109375 0.0625,-0.375 0.109375,-0.546875 0.046875,-0.1875 0.125,-0.46875 0.15625,-0.625 L 3.375,-2.171875 C 3.421875,-2.359375 3.5,-2.6875 3.5,-2.71875 3.5,-2.875 3.375,-2.9375 3.265625,-2.9375 c -0.125,0 -0.28125,0.078125 -0.328125,0.28125 z M 2.5,-0.875 C 2.453125,-0.671875 2.296875,-0.53125 2.140625,-0.40625 2.078125,-0.34375 1.796875,-0.125 1.5,-0.125 c -0.265625,0 -0.515625,-0.1875 -0.515625,-0.671875 0,-0.375 0.203125,-1.140625 0.375,-1.421875 0.3125,-0.5625 0.671875,-0.65625 0.859375,-0.65625 0.484375,0 0.625,0.53125 0.625,0.609375 0,0.015625 -0.015625,0.078125 -0.015625,0.09375 z m 0,0"
   id="id-79d71a78-783c-4b35-b1d1-911ee29ecb2c" />
      </symbol>
      <symbol
   overflow="visible"
   id="id-a8ac70b6-c087-4daa-a3e6-1ac4dc6e0f55">
        <path
   style="stroke:none"
   d="M 1.734375,-0.734375 C 1.671875,-0.5 1.4375,-0.125 1.078125,-0.125 c -0.015625,0 -0.234375,0 -0.375,-0.09375 0.28125,-0.09375 0.3125,-0.34375 0.3125,-0.390625 0,-0.15625 -0.125,-0.25 -0.28125,-0.25 -0.203125,0 -0.40625,0.15625 -0.40625,0.421875 0,0.34375 0.390625,0.5 0.734375,0.5 0.328125,0 0.609375,-0.1875 0.78125,-0.484375 C 2.015625,-0.0625 2.390625,0.0625 2.671875,0.0625 c 0.8125,0 1.234375,-0.859375 1.234375,-1.0625 0,-0.09375 -0.09375,-0.09375 -0.109375,-0.09375 -0.109375,0 -0.109375,0.046875 -0.140625,0.125 -0.140625,0.484375 -0.5625,0.84375 -0.953125,0.84375 -0.28125,0 -0.421875,-0.1875 -0.421875,-0.453125 0,-0.1875 0.171875,-0.8125 0.359375,-1.59375 C 2.78125,-2.703125 3.09375,-2.875 3.328125,-2.875 c 0.015625,0 0.21875,0 0.375,0.09375 -0.21875,0.0625 -0.3125,0.265625 -0.3125,0.390625 0,0.140625 0.125,0.25 0.28125,0.25 0.15625,0 0.390625,-0.125 0.390625,-0.421875 0,-0.390625 -0.453125,-0.515625 -0.71875,-0.515625 -0.359375,0 -0.640625,0.234375 -0.78125,0.5 -0.125,-0.28125 -0.453125,-0.5 -0.84375,-0.5 C 0.9375,-3.078125 0.5,-2.21875 0.5,-2 c 0,0.078125 0.09375,0.078125 0.109375,0.078125 0.09375,0 0.09375,-0.015625 0.140625,-0.109375 C 0.921875,-2.578125 1.359375,-2.875 1.703125,-2.875 1.9375,-2.875 2.125,-2.75 2.125,-2.421875 2.125,-2.28125 2.03125,-1.9375 1.96875,-1.6875 Z m 0,0"
   id="id-1829bdf3-0940-45eb-8c68-a395d6aa25df" />
      </symbol>
    </g>
  </defs>
  <g
   id="id-894a4038-4adc-4cc1-acba-b9dcef0c16d5"
   transform="translate(-149.009,-128.171)">
    <g
   style="fill:#000000;fill-opacity:1"
   id="id-0017935b-6a73-4dcf-a223-6a797ca41492">
      <g
   transform="translate(148.712,134.765)"
   id="g1796"><path
   style="stroke:none"
   d="m 2.828125,-6.234375 c 0,-0.203125 -0.140625,-0.359375 -0.359375,-0.359375 -0.28125,0 -0.546875,0.265625 -0.546875,0.53125 0,0.1875 0.140625,0.359375 0.375,0.359375 0.234375,0 0.53125,-0.234375 0.53125,-0.53125 z m -0.75,3.75 c 0.109375,-0.28125 0.109375,-0.3125 0.21875,-0.578125 0.078125,-0.203125 0.125,-0.34375 0.125,-0.53125 0,-0.4375 -0.3125,-0.8125 -0.8125,-0.8125 -0.9375,0 -1.3125,1.453125 -1.3125,1.53125 0,0.109375 0.09375,0.109375 0.109375,0.109375 0.109375,0 0.109375,-0.03125 0.15625,-0.1875 0.28125,-0.9375 0.671875,-1.234375 1.015625,-1.234375 0.078125,0 0.25,0 0.25,0.3125 0,0.21875 -0.078125,0.421875 -0.109375,0.53125 -0.078125,0.25 -0.53125,1.40625 -0.6875,1.84375 -0.109375,0.25 -0.234375,0.578125 -0.234375,0.796875 0,0.46875 0.34375,0.8125 0.8125,0.8125 0.9375,0 1.3125,-1.4375 1.3125,-1.53125 0,-0.109375 -0.09375,-0.109375 -0.125,-0.109375 -0.09375,0 -0.09375,0.03125 -0.140625,0.1875 -0.1875,0.625 -0.515625,1.234375 -1.015625,1.234375 -0.171875,0 -0.25,-0.09375 -0.25,-0.328125 0,-0.25 0.0625,-0.390625 0.296875,-1 z m 0,0"
   id="id-82420b01-e62a-4c6d-843b-9eb7a1fadd7f" />
      </g></g>
    <g
   style="fill:#000000;fill-opacity:1"
   id="id-e907ba04-2475-4054-82f1-b42a9efa66b4">
      <g
   transform="translate(152.145,136.259)"
   id="g1800"><path
   style="stroke:none"
   d="m 3.03125,-0.5625 c -0.046875,0.140625 -0.109375,0.375 -0.109375,0.40625 0,0.15625 0.125,0.21875 0.234375,0.21875 0.140625,0 0.25,-0.078125 0.28125,-0.140625 0.03125,-0.0625 0.09375,-0.296875 0.125,-0.4375 0.03125,-0.125 0.109375,-0.453125 0.15625,-0.625 0.03125,-0.15625 0.078125,-0.3125 0.109375,-0.46875 0.078125,-0.296875 0.078125,-0.3125 0.21875,-0.53125 C 4.265625,-2.484375 4.625,-2.875 5.15625,-2.875 c 0.390625,0 0.421875,0.3125 0.421875,0.484375 0,0.421875 -0.296875,1.1875 -0.421875,1.484375 -0.0625,0.203125 -0.09375,0.265625 -0.09375,0.375 0,0.375 0.296875,0.59375 0.65625,0.59375 0.703125,0 1,-0.953125 1,-1.0625 0,-0.09375 -0.078125,-0.09375 -0.109375,-0.09375 -0.09375,0 -0.09375,0.046875 -0.125,0.125 C 6.328125,-0.40625 6.015625,-0.125 5.75,-0.125 c -0.15625,0 -0.1875,-0.09375 -0.1875,-0.25 0,-0.15625 0.046875,-0.25 0.171875,-0.5625 0.078125,-0.21875 0.359375,-0.953125 0.359375,-1.34375 0,-0.109375 0,-0.40625 -0.25,-0.609375 -0.125,-0.078125 -0.328125,-0.1875 -0.65625,-0.1875 -0.625,0 -1,0.421875 -1.234375,0.703125 C 3.90625,-2.96875 3.40625,-3.078125 3.046875,-3.078125 2.46875,-3.078125 2.078125,-2.71875 1.875,-2.4375 1.828125,-2.921875 1.421875,-3.078125 1.125,-3.078125 c -0.296875,0 -0.453125,0.21875 -0.546875,0.375 -0.15625,0.265625 -0.25,0.65625 -0.25,0.703125 0,0.078125 0.09375,0.078125 0.125,0.078125 0.09375,0 0.09375,-0.015625 0.140625,-0.203125 0.109375,-0.40625 0.25,-0.75 0.515625,-0.75 0.1875,0 0.234375,0.15625 0.234375,0.34375 0,0.125 -0.0625,0.390625 -0.125,0.578125 -0.046875,0.1875 -0.109375,0.46875 -0.140625,0.625 L 0.84375,-0.4375 c -0.015625,0.09375 -0.0625,0.265625 -0.0625,0.28125 0,0.15625 0.125,0.21875 0.234375,0.21875 0.125,0 0.234375,-0.078125 0.28125,-0.140625 0.03125,-0.0625 0.078125,-0.296875 0.125,-0.4375 0.03125,-0.125 0.109375,-0.453125 0.140625,-0.625 0.046875,-0.15625 0.09375,-0.3125 0.125,-0.46875 0.078125,-0.28125 0.09375,-0.34375 0.296875,-0.625 C 2.171875,-2.515625 2.5,-2.875 3.03125,-2.875 c 0.390625,0 0.40625,0.359375 0.40625,0.484375 0,0.171875 -0.015625,0.265625 -0.125,0.65625 z m 0,0"
   id="id-21fbfebe-b50f-4122-bd85-e7f435609e93" />
      </g><g
   transform="translate(159.214,136.259)"
   id="g1803"><path
   style="stroke:none"
   d="m 2.9375,-2.65625 c -0.140625,-0.234375 -0.375,-0.421875 -0.71875,-0.421875 -0.890625,0 -1.796875,0.984375 -1.796875,1.984375 0,0.6875 0.453125,1.15625 1.0625,1.15625 0.375,0 0.703125,-0.203125 0.984375,-0.484375 C 2.59375,0 3,0.0625 3.1875,0.0625 c 0.25,0 0.421875,-0.140625 0.546875,-0.359375 0.15625,-0.28125 0.25,-0.671875 0.25,-0.703125 0,-0.09375 -0.09375,-0.09375 -0.109375,-0.09375 -0.109375,0 -0.109375,0.03125 -0.15625,0.21875 C 3.625,-0.53125 3.5,-0.125 3.203125,-0.125 3.03125,-0.125 2.96875,-0.28125 2.96875,-0.46875 c 0,-0.109375 0.0625,-0.375 0.109375,-0.546875 0.046875,-0.1875 0.125,-0.46875 0.15625,-0.625 L 3.375,-2.171875 C 3.421875,-2.359375 3.5,-2.6875 3.5,-2.71875 3.5,-2.875 3.375,-2.9375 3.265625,-2.9375 c -0.125,0 -0.28125,0.078125 -0.328125,0.28125 z M 2.5,-0.875 C 2.453125,-0.671875 2.296875,-0.53125 2.140625,-0.40625 2.078125,-0.34375 1.796875,-0.125 1.5,-0.125 c -0.265625,0 -0.515625,-0.1875 -0.515625,-0.671875 0,-0.375 0.203125,-1.140625 0.375,-1.421875 0.3125,-0.5625 0.671875,-0.65625 0.859375,-0.65625 0.484375,0 0.625,0.53125 0.625,0.609375 0,0.015625 -0.015625,0.078125 -0.015625,0.09375 z m 0,0"
   id="id-b00d4868-3582-42d9-8597-c0c0d3a5ab9f" />
      </g><g
   transform="translate(163.536,136.259)"
   id="g1806"><path
   style="stroke:none"
   d="M 1.734375,-0.734375 C 1.671875,-0.5 1.4375,-0.125 1.078125,-0.125 c -0.015625,0 -0.234375,0 -0.375,-0.09375 0.28125,-0.09375 0.3125,-0.34375 0.3125,-0.390625 0,-0.15625 -0.125,-0.25 -0.28125,-0.25 -0.203125,0 -0.40625,0.15625 -0.40625,0.421875 0,0.34375 0.390625,0.5 0.734375,0.5 0.328125,0 0.609375,-0.1875 0.78125,-0.484375 C 2.015625,-0.0625 2.390625,0.0625 2.671875,0.0625 c 0.8125,0 1.234375,-0.859375 1.234375,-1.0625 0,-0.09375 -0.09375,-0.09375 -0.109375,-0.09375 -0.109375,0 -0.109375,0.046875 -0.140625,0.125 -0.140625,0.484375 -0.5625,0.84375 -0.953125,0.84375 -0.28125,0 -0.421875,-0.1875 -0.421875,-0.453125 0,-0.1875 0.171875,-0.8125 0.359375,-1.59375 C 2.78125,-2.703125 3.09375,-2.875 3.328125,-2.875 c 0.015625,0 0.21875,0 0.375,0.09375 -0.21875,0.0625 -0.3125,0.265625 -0.3125,0.390625 0,0.140625 0.125,0.25 0.28125,0.25 0.15625,0 0.390625,-0.125 0.390625,-0.421875 0,-0.390625 -0.453125,-0.515625 -0.71875,-0.515625 -0.359375,0 -0.640625,0.234375 -0.78125,0.5 -0.125,-0.28125 -0.453125,-0.5 -0.84375,-0.5 C 0.9375,-3.078125 0.5,-2.21875 0.5,-2 c 0,0.078125 0.09375,0.078125 0.109375,0.078125 0.09375,0 0.09375,-0.015625 0.140625,-0.109375 C 0.921875,-2.578125 1.359375,-2.875 1.703125,-2.875 1.9375,-2.875 2.125,-2.75 2.125,-2.421875 2.125,-2.28125 2.03125,-1.9375 1.96875,-1.6875 Z m 0,0"
   id="id-fb4ca224-2e31-44fb-866f-938fe36bb801" />
      </g></g>
  </g>
</g></g></svg>
