<?xml version="1.0" encoding="UTF-8" standalone="no"?>
<svg
   xmlns:ns2="http://www.iki.fi/pav/software/textext/"
   xmlns:dc="http://purl.org/dc/elements/1.1/"
   xmlns:cc="http://creativecommons.org/ns#"
   xmlns:rdf="http://www.w3.org/1999/02/22-rdf-syntax-ns#"
   xmlns:svg="http://www.w3.org/2000/svg"
   xmlns="http://www.w3.org/2000/svg"
   xmlns:sodipodi="http://sodipodi.sourceforge.net/DTD/sodipodi-0.dtd"
   xmlns:inkscape="http://www.inkscape.org/namespaces/inkscape"
   width="157.95917mm"
   height="84.406837mm"
   viewBox="0 0 157.95917 84.406837"
   version="1.1"
   id="svg8"
   sodipodi:docname="circuit.svg"
   inkscape:version="1.0.1 (c497b03c, 2020-09-10)">
  <defs
     id="defs2">
    <marker
       style="overflow:visible"
       id="Arrow2Lend"
       refX="0"
       refY="0"
       orient="auto"
       inkscape:stockid="Arrow2Lend"
       inkscape:isstock="true">
      <path
         transform="matrix(-1.1,0,0,-1.1,-1.1,0)"
         d="M 8.7185878,4.0337352 -2.2072895,0.01601326 8.7185884,-4.0017078 c -1.7454984,2.3720609 -1.7354408,5.6174519 -6e-7,8.035443 z"
         style="fill:#736b62;fill-opacity:1;fill-rule:evenodd;stroke:#736b62;stroke-width:0.625;stroke-linejoin:round;stroke-opacity:1"
         id="path1554" />
    </marker>
    <inkscape:path-effect
       effect="bspline"
       id="path-effect1527"
       is_visible="true"
       lpeversion="1"
       weight="33.333333"
       steps="2"
       helper_size="0"
       apply_no_weight="true"
       apply_with_weight="true"
       only_selected="false" />
  </defs>
  <sodipodi:namedview
     id="base"
     pagecolor="#ffffff"
     bordercolor="#666666"
     borderopacity="1.0"
     inkscape:pageopacity="0.0"
     inkscape:pageshadow="2"
     inkscape:zoom="0.97095861"
     inkscape:cx="152.96779"
     inkscape:cy="300.94066"
     inkscape:document-units="mm"
     inkscape:current-layer="svg8"
     inkscape:document-rotation="0"
     showgrid="false"
     fit-margin-top="0"
     fit-margin-left="0"
     fit-margin-right="0"
     fit-margin-bottom="0" />
  <metadata
     id="metadata5">
    <rdf:RDF>
      <cc:Work
         rdf:about="">
        <dc:format>image/svg+xml</dc:format>
        <dc:type
           rdf:resource="http://purl.org/dc/dcmitype/StillImage" />
        <dc:title></dc:title>
      </cc:Work>
    </rdf:RDF>
  </metadata>
  <g
     inkscape:label="Layer 1"
     inkscape:groupmode="layer"
     id="layer1"
     transform="translate(-18.30309,-70.343121)" />
  <g
     inkscape:label="Source"
     transform="rotate(-90,8.4923601,141.97469)"
     id="g1225">
    <g
       inkscape:label="Source"
       id="g1208">
      <path
         inkscape:label="none"
         style="fill:none;stroke:#000000;stroke-width:1;stroke-linecap:round;stroke-linejoin:round;stroke-dasharray:none"
         d="M 103,150 H 85 69.559915 v 39.55203"
         id="path1190"
         sodipodi:nodetypes="cccc" />
      <path
         inkscape:label="none"
         style="fill:none;stroke:#000000;stroke-width:1;stroke-linecap:round;stroke-linejoin:round;stroke-dasharray:none"
         d="m 117,150 h 18"
         id="path1192" />
      <circle
         inkscape:label="circle"
         style="fill:none;stroke:#000000;stroke-width:1;stroke-linecap:round;stroke-linejoin:round;stroke-dasharray:none"
         id="path1194"
         cx="110"
         cy="150"
         r="7" />
      <g
         transform="rotate(90,110,150)"
         id="g1200">
        <path
           inkscape:label="arc"
           style="fill:none;stroke:#000000;stroke-width:0.6;stroke-linecap:round;stroke-linejoin:round;stroke-dasharray:none"
           sodipodi:type="arc"
           sodipodi:rx="2.5999999"
           sodipodi:ry="2.5999999"
           sodipodi:cx="107.5"
           sodipodi:cy="149.28586"
           sodipodi:start="0.27824682"
           sodipodi:end="2.8633458"
           d="m 110,150 a 2.5999999,2.5999999 0 0 1 -2.5,1.88586 A 2.5999999,2.5999999 0 0 1 105,150"
           sodipodi:arc-type="arc"
           id="path1196"
           sodipodi:open="true" />
        <path
           inkscape:label="arc"
           style="fill:none;stroke:#000000;stroke-width:0.6;stroke-linecap:round;stroke-linejoin:round;stroke-dasharray:none"
           sodipodi:type="arc"
           sodipodi:rx="2.5999999"
           sodipodi:ry="2.5999999"
           sodipodi:cx="112.5"
           sodipodi:cy="150.71414"
           sodipodi:start="3.4198395"
           sodipodi:end="6.0049385"
           d="m 110,150 a 2.5999999,2.5999999 0 0 1 2.5,-1.88586 A 2.5999999,2.5999999 0 0 1 115,150"
           sodipodi:arc-type="arc"
           id="path1198"
           sodipodi:open="true" />
      </g>
      <path
         inkscape:label="none"
         style="fill:none;stroke:#000000;stroke-width:0.6;stroke-linecap:round;stroke-linejoin:round;stroke-dasharray:none"
         d="m 119,146 h 2"
         id="path1202" />
      <path
         inkscape:label="none"
         style="fill:none;stroke:#000000;stroke-width:0.6;stroke-linecap:round;stroke-linejoin:round;stroke-dasharray:none"
         d="m 120,145 v 2"
         id="path1204" />
      <path
         inkscape:label="none"
         style="fill:none;stroke:#000000;stroke-width:0.6;stroke-linecap:round;stroke-linejoin:round;stroke-dasharray:none"
         d="m 100,145 v 2"
         id="path1206" />
    </g>
    <g
       inkscape:label="Layer 1"
       inkscape:groupmode="layer"
       id="g1223"
       transform="matrix(0.552997,0,0,0.552997,-111.19819,-173.60372)">
      <g
         transform="matrix(1.33333,0,0,1.33333,395.26,555.313)"
         ns2:version="1.2.0"
         ns2:texconverter="pdflatex"
         ns2:pdfconverter="inkscape"
         ns2:text=" $V$"
         ns2:preamble="/Users/hasanabbas/Library/Application Support/org.inkscape.Inkscape/config/inkscape/extensions/circuitSymbols/circuitSymbolsPreamble.tex"
         ns2:scale="1.0"
         ns2:alignment="middle center"
         ns2:inkscapeversion="1.0.1"
         ns2:jacobian_sqrt="1.33333"
         id="g1221">
        <defs
           id="id-76e83736-5063-455c-9a5a-387a4a076f92">
          <g
             id="id-b3221947-11b1-4484-b25d-61f0b240461d">
            <symbol
               overflow="visible"
               id="id-6a0ce5b7-3fc4-41fd-be16-d28fcb09fbd9">
              <path
                 style="stroke:none;stroke-width:0"
                 d=""
                 id="id-5cd5d209-62d8-45e6-8f45-b5f2a6b319d7" />
            </symbol>
            <symbol
               overflow="visible"
               id="id-8c3f8218-02e2-4617-87ed-bd851cc0fc36">
              <path
                 style="stroke:none;stroke-width:0"
                 d="M 6.265625,-5.671875 C 6.75,-6.453125 7.171875,-6.484375 7.53125,-6.5 c 0.125,-0.015625 0.140625,-0.171875 0.140625,-0.1875 0,-0.078125 -0.0625,-0.125 -0.140625,-0.125 -0.25,0 -0.546875,0.03125 -0.8125,0.03125 -0.328125,0 -0.671875,-0.03125 -0.984375,-0.03125 -0.0625,0 -0.1875,0 -0.1875,0.1875 0,0.109375 0.078125,0.125 0.15625,0.125 0.265625,0.015625 0.453125,0.125 0.453125,0.328125 0,0.15625 -0.140625,0.375 -0.140625,0.375 l -3.0625,4.875 -0.6875,-5.28125 C 2.265625,-6.375 2.5,-6.5 2.953125,-6.5 c 0.140625,0 0.25,0 0.25,-0.203125 0,-0.078125 -0.078125,-0.109375 -0.125,-0.109375 -0.40625,0 -0.828125,0.03125 -1.25,0.03125 -0.171875,0 -0.359375,0 -0.546875,0 -0.171875,0 -0.359375,-0.03125 -0.53125,-0.03125 -0.078125,0 -0.1875,0 -0.1875,0.1875 0,0.125 0.078125,0.125 0.25,0.125 0.546875,0 0.5625,0.09375 0.59375,0.34375 L 2.1875,-0.015625 C 2.21875,0.1875 2.265625,0.21875 2.390625,0.21875 c 0.15625,0 0.203125,-0.046875 0.28125,-0.171875 z m 0,0"
                 id="id-6326b976-38ca-4e41-88fc-3c31e97025c7" />
            </symbol>
          </g>
        </defs>
        <g
           id="id-733b5fde-5188-481d-b844-6049ba1af56f"
           transform="translate(-149.275,-127.953)">
          <g
             style="fill:#000000;fill-opacity:1"
             id="id-4a7cbbb4-04b4-498b-929a-c3b9ad2efcf8">
            <g
               transform="translate(148.712,134.765)"
               id="g1217">
              <path
                 style="stroke:none;stroke-width:0"
                 d="M 6.265625,-5.671875 C 6.75,-6.453125 7.171875,-6.484375 7.53125,-6.5 c 0.125,-0.015625 0.140625,-0.171875 0.140625,-0.1875 0,-0.078125 -0.0625,-0.125 -0.140625,-0.125 -0.25,0 -0.546875,0.03125 -0.8125,0.03125 -0.328125,0 -0.671875,-0.03125 -0.984375,-0.03125 -0.0625,0 -0.1875,0 -0.1875,0.1875 0,0.109375 0.078125,0.125 0.15625,0.125 0.265625,0.015625 0.453125,0.125 0.453125,0.328125 0,0.15625 -0.140625,0.375 -0.140625,0.375 l -3.0625,4.875 -0.6875,-5.28125 C 2.265625,-6.375 2.5,-6.5 2.953125,-6.5 c 0.140625,0 0.25,0 0.25,-0.203125 0,-0.078125 -0.078125,-0.109375 -0.125,-0.109375 -0.40625,0 -0.828125,0.03125 -1.25,0.03125 -0.171875,0 -0.359375,0 -0.546875,0 -0.171875,0 -0.359375,-0.03125 -0.53125,-0.03125 -0.078125,0 -0.1875,0 -0.1875,0.1875 0,0.125 0.078125,0.125 0.25,0.125 0.546875,0 0.5625,0.09375 0.59375,0.34375 L 2.1875,-0.015625 C 2.21875,0.1875 2.265625,0.21875 2.390625,0.21875 c 0.15625,0 0.203125,-0.046875 0.28125,-0.171875 z m 0,0"
                 id="id-5915f5c2-7810-4e15-9e83-efd5019c83f2" />
            </g>
          </g>
        </g>
      </g>
    </g>
  </g>
  <g
     inkscape:label="Resistor"
     id="g1297"
     transform="translate(-30.805698,-138.48233)">
    <g
       id="g1280">
      <path
         inkscape:label="none"
         style="fill:none;stroke:#000000;stroke-width:1;stroke-linecap:round;stroke-linejoin:round;stroke-dasharray:none"
         d="m 85,150 h 15.5 l 2,3 3,-6 3,6 3,-6 3,6 3,-6 2,3 H 135"
         id="path1278" />
    </g>
    <g
       inkscape:label="Layer 1"
       inkscape:groupmode="layer"
       id="g1295"
       transform="matrix(0.552997,0,0,0.552997,-111.19898,-168.60372)">
      <g
         transform="matrix(1.33333,0,0,1.33333,395.25,555.313)"
         ns2:version="1.2.0"
         ns2:texconverter="pdflatex"
         ns2:pdfconverter="inkscape"
         ns2:text=" $R$"
         ns2:preamble="/Users/hasanabbas/Library/Application Support/org.inkscape.Inkscape/config/inkscape/extensions/circuitSymbols/circuitSymbolsPreamble.tex"
         ns2:scale="1.0"
         ns2:alignment="middle center"
         ns2:inkscapeversion="1.0.1"
         ns2:jacobian_sqrt="1.33333"
         id="g1293">
        <defs
           id="id-ae8d9a39-2a4a-44f0-a865-d636477c2ee7">
          <g
             id="id-8de682a6-195e-4462-8cc7-8d7413331372">
            <symbol
               overflow="visible"
               id="id-237648c4-9ad0-4f17-a7d1-3d56c71e1a03">
              <path
                 style="stroke:none;stroke-width:0"
                 d=""
                 id="id-e86df207-9ac4-41f8-9282-4faa87361594" />
            </symbol>
            <symbol
               overflow="visible"
               id="id-1603bea1-5db3-4fae-9a9b-0ab6be9a855e">
              <path
                 style="stroke:none;stroke-width:0"
                 d="m 3.734375,-6.125 c 0.0625,-0.234375 0.09375,-0.328125 0.28125,-0.359375 C 4.109375,-6.5 4.421875,-6.5 4.625,-6.5 c 0.703125,0 1.8125,0 1.8125,0.984375 0,0.34375 -0.15625,1.03125 -0.546875,1.421875 -0.265625,0.25 -0.78125,0.578125 -1.6875,0.578125 H 3.09375 Z m 1.4375,2.734375 c 1.015625,-0.21875 2.1875,-0.921875 2.1875,-1.921875 0,-0.859375 -0.890625,-1.5 -2.203125,-1.5 H 2.328125 c -0.203125,0 -0.296875,0 -0.296875,0.203125 C 2.03125,-6.5 2.125,-6.5 2.3125,-6.5 c 0.015625,0 0.203125,0 0.375,0.015625 0.1875,0.03125 0.265625,0.03125 0.265625,0.171875 0,0.03125 0,0.0625 -0.03125,0.1875 l -1.34375,5.34375 C 1.484375,-0.390625 1.46875,-0.3125 0.671875,-0.3125 0.5,-0.3125 0.40625,-0.3125 0.40625,-0.109375 0.40625,0 0.53125,0 0.546875,0 c 0.28125,0 0.984375,-0.03125 1.25,-0.03125 0.28125,0 1,0.03125 1.28125,0.03125 0.078125,0 0.1875,0 0.1875,-0.203125 0,-0.109375 -0.078125,-0.109375 -0.28125,-0.109375 -0.359375,0 -0.640625,0 -0.640625,-0.171875 0,-0.0625 0.015625,-0.109375 0.03125,-0.171875 l 0.65625,-2.640625 h 1.1875 c 0.90625,0 1.078125,0.5625 1.078125,0.90625 0,0.140625 -0.078125,0.453125 -0.140625,0.6875 C 5.09375,-1.421875 5,-1.0625 5,-0.859375 5,0.21875 6.203125,0.21875 6.328125,0.21875 c 0.84375,0 1.203125,-1 1.203125,-1.140625 0,-0.125 -0.109375,-0.125 -0.125,-0.125 -0.09375,0 -0.109375,0.0625 -0.125,0.140625 C 7.03125,-0.171875 6.59375,0 6.375,0 6.046875,0 5.96875,-0.21875 5.96875,-0.609375 c 0,-0.3125 0.0625,-0.8125 0.109375,-1.140625 0.015625,-0.140625 0.03125,-0.328125 0.03125,-0.46875 0,-0.765625 -0.671875,-1.078125 -0.9375,-1.171875 z m 0,0"
                 id="id-1812f825-846f-4d6c-b901-979e3521a593" />
            </symbol>
          </g>
        </defs>
        <g
           id="id-d9900025-92d1-4b2d-ae7e-a41f3e2b2dd8"
           transform="translate(-149.118,-127.953)">
          <g
             style="fill:#000000;fill-opacity:1"
             id="id-9822e2bd-f9c9-4641-9411-e5d5aaffb1bc">
            <g
               transform="translate(148.712,134.765)"
               id="g1289">
              <path
                 style="stroke:none;stroke-width:0"
                 d="m 3.734375,-6.125 c 0.0625,-0.234375 0.09375,-0.328125 0.28125,-0.359375 C 4.109375,-6.5 4.421875,-6.5 4.625,-6.5 c 0.703125,0 1.8125,0 1.8125,0.984375 0,0.34375 -0.15625,1.03125 -0.546875,1.421875 -0.265625,0.25 -0.78125,0.578125 -1.6875,0.578125 H 3.09375 Z m 1.4375,2.734375 c 1.015625,-0.21875 2.1875,-0.921875 2.1875,-1.921875 0,-0.859375 -0.890625,-1.5 -2.203125,-1.5 H 2.328125 c -0.203125,0 -0.296875,0 -0.296875,0.203125 C 2.03125,-6.5 2.125,-6.5 2.3125,-6.5 c 0.015625,0 0.203125,0 0.375,0.015625 0.1875,0.03125 0.265625,0.03125 0.265625,0.171875 0,0.03125 0,0.0625 -0.03125,0.1875 l -1.34375,5.34375 C 1.484375,-0.390625 1.46875,-0.3125 0.671875,-0.3125 0.5,-0.3125 0.40625,-0.3125 0.40625,-0.109375 0.40625,0 0.53125,0 0.546875,0 c 0.28125,0 0.984375,-0.03125 1.25,-0.03125 0.28125,0 1,0.03125 1.28125,0.03125 0.078125,0 0.1875,0 0.1875,-0.203125 0,-0.109375 -0.078125,-0.109375 -0.28125,-0.109375 -0.359375,0 -0.640625,0 -0.640625,-0.171875 0,-0.0625 0.015625,-0.109375 0.03125,-0.171875 l 0.65625,-2.640625 h 1.1875 c 0.90625,0 1.078125,0.5625 1.078125,0.90625 0,0.140625 -0.078125,0.453125 -0.140625,0.6875 C 5.09375,-1.421875 5,-1.0625 5,-0.859375 5,0.21875 6.203125,0.21875 6.328125,0.21875 c 0.84375,0 1.203125,-1 1.203125,-1.140625 0,-0.125 -0.109375,-0.125 -0.125,-0.125 -0.09375,0 -0.109375,0.0625 -0.125,0.140625 C 7.03125,-0.171875 6.59375,0 6.375,0 6.046875,0 5.96875,-0.21875 5.96875,-0.609375 c 0,-0.3125 0.0625,-0.8125 0.109375,-1.140625 0.015625,-0.140625 0.03125,-0.328125 0.03125,-0.46875 0,-0.765625 -0.671875,-1.078125 -0.9375,-1.171875 z m 0,0"
                 id="id-ac2137f4-1bf6-436e-bc1a-0974de98d07b" />
            </g>
          </g>
        </g>
      </g>
    </g>
  </g>
  <g
     inkscape:label="Capacitor"
     transform="rotate(-90,75.991544,75.532374)"
     id="g1382">
    <g
       id="g1365">
      <path
         inkscape:label="none"
         style="fill:none;stroke:#000000;stroke-width:1;stroke-linecap:round;stroke-linejoin:round;stroke-dasharray:none"
         d="M 108,150 H 85"
         id="path1357" />
      <path
         inkscape:label="none"
         style="fill:none;stroke:#000000;stroke-width:1;stroke-linecap:round;stroke-linejoin:round;stroke-dasharray:none"
         d="m 112,150 h 23"
         id="path1359" />
      <path
         inkscape:label="none"
         style="fill:none;stroke:#000000;stroke-width:1;stroke-linecap:round;stroke-linejoin:round;stroke-dasharray:none"
         d="M 108,157 V 143"
         id="path1361" />
      <path
         inkscape:label="none"
         style="fill:none;stroke:#000000;stroke-width:1;stroke-linecap:round;stroke-linejoin:round;stroke-dasharray:none"
         d="M 112,157 V 143"
         id="path1363" />
    </g>
    <g
       inkscape:label="Layer 1"
       inkscape:groupmode="layer"
       id="g1380"
       transform="matrix(0.552997,0,0,0.552997,-111.19866,-173.68446)">
      <g
         transform="matrix(1.33333,0,0,1.33333,395.281,555.167)"
         ns2:version="1.2.0"
         ns2:texconverter="pdflatex"
         ns2:pdfconverter="inkscape"
         ns2:text=" $C$"
         ns2:preamble="/Users/hasanabbas/Library/Application Support/org.inkscape.Inkscape/config/inkscape/extensions/circuitSymbols/circuitSymbolsPreamble.tex"
         ns2:scale="1.0"
         ns2:alignment="middle center"
         ns2:inkscapeversion="1.0.1"
         ns2:jacobian_sqrt="1.33333"
         id="g1378">
        <defs
           id="id-cd80d79e-80f5-4936-9ddd-94d4fb98e160">
          <g
             id="id-8221b7a0-d6f2-48e9-8010-725c31267adc">
            <symbol
               overflow="visible"
               id="id-a3efc6e6-d12d-4774-9f74-e78f2c904c02">
              <path
                 style="stroke:none;stroke-width:0"
                 d=""
                 id="id-3f4019de-9ed6-43de-9ba3-3b077cdc9987" />
            </symbol>
            <symbol
               overflow="visible"
               id="id-967450cd-77ba-49c1-9b36-48ef97f349b3">
              <path
                 style="stroke:none;stroke-width:0"
                 d="m 7.578125,-6.921875 c 0,-0.03125 -0.015625,-0.109375 -0.109375,-0.109375 -0.03125,0 -0.046875,0.015625 -0.15625,0.125 L 6.625,-6.140625 C 6.53125,-6.28125 6.078125,-7.03125 4.96875,-7.03125 2.734375,-7.03125 0.5,-4.828125 0.5,-2.515625 0.5,-0.875 1.671875,0.21875 3.203125,0.21875 c 0.859375,0 1.625,-0.390625 2.15625,-0.859375 0.921875,-0.8125 1.09375,-1.71875 1.09375,-1.75 C 6.453125,-2.5 6.34375,-2.5 6.328125,-2.5 c -0.0625,0 -0.109375,0.03125 -0.125,0.109375 -0.09375,0.28125 -0.328125,1 -1.015625,1.578125 -0.6875,0.546875 -1.3125,0.71875 -1.828125,0.71875 -0.890625,0 -1.953125,-0.515625 -1.953125,-2.0625 0,-0.578125 0.203125,-2.1875 1.203125,-3.359375 0.609375,-0.703125 1.546875,-1.203125 2.4375,-1.203125 1.015625,0 1.609375,0.765625 1.609375,1.921875 0,0.40625 -0.03125,0.40625 -0.03125,0.515625 0,0.09375 0.109375,0.09375 0.140625,0.09375 0.125,0 0.125,-0.015625 0.1875,-0.203125 z m 0,0"
                 id="id-4f0239af-bbcc-4a49-b74b-64fd7755f6ca" />
            </symbol>
          </g>
        </defs>
        <g
           id="id-adb26738-971b-4f9c-a7f7-f4a72719f2e3"
           transform="translate(-149.212,-127.734)">
          <g
             style="fill:#000000;fill-opacity:1"
             id="id-355e21ee-196e-4e1d-bb5c-c7747b88bf4e">
            <g
               transform="translate(148.712,134.765)"
               id="g1374">
              <path
                 style="stroke:none;stroke-width:0"
                 d="m 7.578125,-6.921875 c 0,-0.03125 -0.015625,-0.109375 -0.109375,-0.109375 -0.03125,0 -0.046875,0.015625 -0.15625,0.125 L 6.625,-6.140625 C 6.53125,-6.28125 6.078125,-7.03125 4.96875,-7.03125 2.734375,-7.03125 0.5,-4.828125 0.5,-2.515625 0.5,-0.875 1.671875,0.21875 3.203125,0.21875 c 0.859375,0 1.625,-0.390625 2.15625,-0.859375 0.921875,-0.8125 1.09375,-1.71875 1.09375,-1.75 C 6.453125,-2.5 6.34375,-2.5 6.328125,-2.5 c -0.0625,0 -0.109375,0.03125 -0.125,0.109375 -0.09375,0.28125 -0.328125,1 -1.015625,1.578125 -0.6875,0.546875 -1.3125,0.71875 -1.828125,0.71875 -0.890625,0 -1.953125,-0.515625 -1.953125,-2.0625 0,-0.578125 0.203125,-2.1875 1.203125,-3.359375 0.609375,-0.703125 1.546875,-1.203125 2.4375,-1.203125 1.015625,0 1.609375,0.765625 1.609375,1.921875 0,0.40625 -0.03125,0.40625 -0.03125,0.515625 0,0.09375 0.109375,0.09375 0.140625,0.09375 0.125,0 0.125,-0.015625 0.1875,-0.203125 z m 0,0"
                 id="id-c4b23cc7-7801-4bda-8172-09cd018c2cae" />
            </g>
          </g>
        </g>
      </g>
    </g>
  </g>
  <g
     inkscape:label="Inductro"
     id="g1492"
     transform="translate(-28.930307,-69.092861)">
    <g
       id="g1475">
      <path
         inkscape:label="none"
         style="fill:none;stroke:#000000;stroke-width:1;stroke-linecap:round;stroke-linejoin:round;stroke-dasharray:none"
         d="M 98,150 H 85"
         id="path1463" />
      <path
         inkscape:label="none"
         style="fill:none;stroke:#000000;stroke-width:1;stroke-linecap:round;stroke-linejoin:round;stroke-dasharray:none"
         d="m 122,150 h 13"
         id="path1465" />
      <path
         inkscape:label="arc"
         style="fill:none;stroke:#000000;stroke-width:1;stroke-linecap:round;stroke-linejoin:round;stroke-dasharray:none"
         sodipodi:type="arc"
         sodipodi:rx="3"
         sodipodi:ry="3"
         sodipodi:cx="101"
         sodipodi:cy="150"
         sodipodi:start="0"
         sodipodi:end="3.1415927"
         d="m 104,150 a 3,3 0 0 1 -1.5,2.59808 3,3 0 0 1 -3,0 A 3,3 0 0 1 98,150"
         sodipodi:arc-type="arc"
         id="path1467"
         sodipodi:open="true" />
      <path
         inkscape:label="arc"
         style="fill:none;stroke:#000000;stroke-width:1;stroke-linecap:round;stroke-linejoin:round;stroke-dasharray:none"
         sodipodi:type="arc"
         sodipodi:rx="3"
         sodipodi:ry="3"
         sodipodi:cx="107"
         sodipodi:cy="150"
         sodipodi:start="0"
         sodipodi:end="3.1415927"
         d="m 110,150 a 3,3 0 0 1 -1.5,2.59808 3,3 0 0 1 -3,0 A 3,3 0 0 1 104,150"
         sodipodi:arc-type="arc"
         id="path1469"
         sodipodi:open="true" />
      <path
         inkscape:label="arc"
         style="fill:none;stroke:#000000;stroke-width:1;stroke-linecap:round;stroke-linejoin:round;stroke-dasharray:none"
         sodipodi:type="arc"
         sodipodi:rx="3"
         sodipodi:ry="3"
         sodipodi:cx="113"
         sodipodi:cy="150"
         sodipodi:start="0"
         sodipodi:end="3.1415927"
         d="m 116,150 a 3,3 0 0 1 -1.5,2.59808 3,3 0 0 1 -3,0 A 3,3 0 0 1 110,150"
         sodipodi:arc-type="arc"
         id="path1471"
         sodipodi:open="true" />
      <path
         inkscape:label="arc"
         style="fill:none;stroke:#000000;stroke-width:1;stroke-linecap:round;stroke-linejoin:round;stroke-dasharray:none"
         sodipodi:type="arc"
         sodipodi:rx="3"
         sodipodi:ry="3"
         sodipodi:cx="119"
         sodipodi:cy="150"
         sodipodi:start="0"
         sodipodi:end="3.1415927"
         d="m 122,150 a 3,3 0 0 1 -1.5,2.59808 3,3 0 0 1 -3,0 A 3,3 0 0 1 116,150"
         sodipodi:arc-type="arc"
         id="path1473"
         sodipodi:open="true" />
    </g>
    <g
       inkscape:label="Layer 1"
       inkscape:groupmode="layer"
       id="g1490"
       transform="matrix(0.552997,0,0,0.552997,-111.19875,-165.52261)">
      <g
         transform="matrix(1.33333,0,0,1.33333,395.99,555.458)"
         ns2:version="1.2.0"
         ns2:texconverter="pdflatex"
         ns2:pdfconverter="inkscape"
         ns2:text=" $L$"
         ns2:preamble="/Users/hasanabbas/Library/Application Support/org.inkscape.Inkscape/config/inkscape/extensions/circuitSymbols/circuitSymbolsPreamble.tex"
         ns2:scale="1.0"
         ns2:alignment="middle center"
         ns2:inkscapeversion="1.0.1"
         ns2:jacobian_sqrt="1.33333"
         id="g1488">
        <defs
           id="id-a58de628-568b-4e57-941c-005b4f0dd492">
          <g
             id="id-5111b843-2812-4566-8119-e973c8832a15">
            <symbol
               overflow="visible"
               id="id-a79850cf-08aa-4df7-925f-9ddc1d1540a2">
              <path
                 style="stroke:none;stroke-width:0"
                 d=""
                 id="id-2b511392-2450-495c-b97b-5d1ea4431f78" />
            </symbol>
            <symbol
               overflow="visible"
               id="id-9dcd5751-5b44-4cf6-b4e2-87492b985709">
              <path
                 style="stroke:none;stroke-width:0"
                 d="M 3.734375,-6.03125 C 3.8125,-6.390625 3.84375,-6.5 4.78125,-6.5 c 0.296875,0 0.375,0 0.375,-0.1875 0,-0.125 -0.109375,-0.125 -0.15625,-0.125 -0.328125,0 -1.140625,0.03125 -1.46875,0.03125 -0.296875,0 -1.03125,-0.03125 -1.328125,-0.03125 -0.0625,0 -0.1875,0 -0.1875,0.203125 0,0.109375 0.09375,0.109375 0.28125,0.109375 0.015625,0 0.203125,0 0.375,0.015625 0.171875,0.03125 0.265625,0.03125 0.265625,0.171875 0,0.03125 0,0.0625 -0.03125,0.1875 L 1.5625,-0.78125 c -0.09375,0.390625 -0.109375,0.46875 -0.90625,0.46875 -0.171875,0 -0.265625,0 -0.265625,0.203125 C 0.390625,0 0.484375,0 0.65625,0 h 4.625 C 5.515625,0 5.515625,0 5.578125,-0.171875 L 6.375,-2.328125 c 0.03125,-0.109375 0.03125,-0.125 0.03125,-0.140625 0,-0.03125 -0.03125,-0.109375 -0.109375,-0.109375 -0.09375,0 -0.109375,0.0625 -0.171875,0.21875 -0.34375,0.90625 -0.78125,2.046875 -2.5,2.046875 H 2.6875 c -0.140625,0 -0.171875,0 -0.21875,0 -0.109375,-0.015625 -0.140625,-0.03125 -0.140625,-0.109375 0,-0.03125 0,-0.046875 0.046875,-0.21875 z m 0,0"
                 id="id-a5f52aab-8ab2-4bd3-aa31-45de19093bb8" />
            </symbol>
          </g>
        </defs>
        <g
           id="id-fd0f68ff-cd92-41b5-9326-6ce3ae3718c5"
           transform="translate(-149.103,-127.953)">
          <g
             style="fill:#000000;fill-opacity:1"
             id="id-c66f9c93-71d8-4727-9928-9f597b80ceaa">
            <g
               transform="translate(148.712,134.765)"
               id="g1484">
              <path
                 style="stroke:none;stroke-width:0"
                 d="M 3.734375,-6.03125 C 3.8125,-6.390625 3.84375,-6.5 4.78125,-6.5 c 0.296875,0 0.375,0 0.375,-0.1875 0,-0.125 -0.109375,-0.125 -0.15625,-0.125 -0.328125,0 -1.140625,0.03125 -1.46875,0.03125 -0.296875,0 -1.03125,-0.03125 -1.328125,-0.03125 -0.0625,0 -0.1875,0 -0.1875,0.203125 0,0.109375 0.09375,0.109375 0.28125,0.109375 0.015625,0 0.203125,0 0.375,0.015625 0.171875,0.03125 0.265625,0.03125 0.265625,0.171875 0,0.03125 0,0.0625 -0.03125,0.1875 L 1.5625,-0.78125 c -0.09375,0.390625 -0.109375,0.46875 -0.90625,0.46875 -0.171875,0 -0.265625,0 -0.265625,0.203125 C 0.390625,0 0.484375,0 0.65625,0 h 4.625 C 5.515625,0 5.515625,0 5.578125,-0.171875 L 6.375,-2.328125 c 0.03125,-0.109375 0.03125,-0.125 0.03125,-0.140625 0,-0.03125 -0.03125,-0.109375 -0.109375,-0.109375 -0.09375,0 -0.109375,0.0625 -0.171875,0.21875 -0.34375,0.90625 -0.78125,2.046875 -2.5,2.046875 H 2.6875 c -0.140625,0 -0.171875,0 -0.21875,0 -0.109375,-0.015625 -0.140625,-0.03125 -0.140625,-0.109375 0,-0.03125 0,-0.046875 0.046875,-0.21875 z m 0,0"
                 id="id-36d96cd3-1d16-4f44-bbc1-2ac4da9324fd" />
            </g>
          </g>
        </g>
      </g>
    </g>
  </g>
  <path
     style="fill:none;stroke:#000000;stroke-width:0.865;stroke-linecap:butt;stroke-linejoin:miter;stroke-miterlimit:4;stroke-dasharray:none;stroke-opacity:1"
     d="m 16.517666,15.467055 v -3.94939 h 37.676635"
     id="path1515"
     sodipodi:nodetypes="ccc" />
  <path
     style="fill:none;stroke:#000000;stroke-width:0.865;stroke-linecap:butt;stroke-linejoin:miter;stroke-miterlimit:4;stroke-dasharray:none;stroke-opacity:1"
     d="m 104.1943,11.517665 h 46.26487 v 5.006252"
     id="path1517"
     sodipodi:nodetypes="ccc" />
  <path
     style="fill:none;stroke:#000000;stroke-width:0.865;stroke-linecap:butt;stroke-linejoin:miter;stroke-miterlimit:4;stroke-dasharray:none;stroke-opacity:1"
     d="m 150.45917,66.523919 v 14.38322 h -44.38948"
     id="path1519"
     sodipodi:nodetypes="ccc" />
  <path
     sodipodi:type="spiral"
     style="fill:none;fill-rule:evenodd;stroke:#736b62;stroke-width:0.905256;stroke-miterlimit:4;stroke-dasharray:none;stroke-opacity:1;marker-end:url(#Arrow2Lend)"
     id="path1531"
     sodipodi:cx="101.64139"
     sodipodi:cy="120.29044"
     sodipodi:expansion="0"
     sodipodi:revolution="0.75"
     sodipodi:radius="26.15597"
     sodipodi:argument="-0.71367478"
     sodipodi:t0="0"
     d="m 121.41429,103.16832 c 9.32698,10.77095 8.12016,27.56805 -2.65078,36.89503 -10.77094,9.32697 -27.568051,8.12016 -36.895026,-2.65079 -9.326975,-10.77094 -8.12016,-27.56805 2.650783,-36.89502"
     transform="matrix(0.16153753,0.60286628,-0.60286628,0.16153753,134.28826,-34.839634)" />
</svg>
