<?xml version="1.0" encoding="UTF-8" standalone="no"?>
<svg
   xmlns:ns12="http://www.iki.fi/pav/software/textext/"
   xmlns:dc="http://purl.org/dc/elements/1.1/"
   xmlns:cc="http://creativecommons.org/ns#"
   xmlns:rdf="http://www.w3.org/1999/02/22-rdf-syntax-ns#"
   xmlns:svg="http://www.w3.org/2000/svg"
   xmlns="http://www.w3.org/2000/svg"
   xmlns:xlink="http://www.w3.org/1999/xlink"
   xmlns:sodipodi="http://sodipodi.sourceforge.net/DTD/sodipodi-0.dtd"
   xmlns:inkscape="http://www.inkscape.org/namespaces/inkscape"
   version="1.1"
   id="svg6743"
   xml:space="preserve"
   width="462.16177"
   height="397.21338"
   viewBox="0 0 462.16177 397.21338"
   sodipodi:docname="antenna_rregions.svg"
   inkscape:version="1.0.2 (e86c8708, 2021-01-15)"><metadata
     id="metadata6749"><rdf:RDF><cc:Work
         rdf:about=""><dc:format>image/svg+xml</dc:format><dc:type
           rdf:resource="http://purl.org/dc/dcmitype/StillImage" /><dc:title></dc:title></cc:Work></rdf:RDF></metadata><defs
     id="defs6747"><linearGradient
       inkscape:collect="always"
       id="linearGradient8026"><stop
         style="stop-color:#9ae6ff;stop-opacity:1"
         offset="0"
         id="stop8022" /><stop
         style="stop-color:#00e7ee;stop-opacity:0;"
         offset="1"
         id="stop8024" /></linearGradient><linearGradient
       inkscape:collect="always"
       id="linearGradient8014"><stop
         style="stop-color:#148428;stop-opacity:1;"
         offset="0"
         id="stop8010" /><stop
         style="stop-color:#33ff58;stop-opacity:0.64313728"
         offset="1"
         id="stop8012" /></linearGradient><linearGradient
       inkscape:collect="always"
       id="linearGradient8006"><stop
         style="stop-color:#a3a3a3;stop-opacity:1;"
         offset="0"
         id="stop8002" /><stop
         style="stop-color:#000000;stop-opacity:1"
         offset="1"
         id="stop8004" /></linearGradient><linearGradient
       inkscape:collect="always"
       id="linearGradient7998"><stop
         style="stop-color:#000000;stop-opacity:1;"
         offset="0"
         id="stop7994" /><stop
         style="stop-color:#a3a3a3;stop-opacity:1"
         offset="1"
         id="stop7996" /></linearGradient><linearGradient
       inkscape:collect="always"
       id="linearGradient7982"><stop
         style="stop-color:#ff0000;stop-opacity:1"
         offset="0"
         id="stop7978" /><stop
         style="stop-color:#7f0f0f;stop-opacity:0.27777779"
         offset="1"
         id="stop7980" /></linearGradient><radialGradient
       inkscape:collect="always"
       xlink:href="#linearGradient7982"
       id="radialGradient7984"
       cx="21.355656"
       cy="15.484574"
       fx="21.355656"
       fy="15.484574"
       r="22.926769"
       gradientTransform="matrix(2.0174483,0.17707888,-0.27302252,3.1105281,-17.50064,-36.462264)"
       gradientUnits="userSpaceOnUse" /><radialGradient
       inkscape:collect="always"
       xlink:href="#linearGradient7998"
       id="radialGradient8000"
       cx="-12.312027"
       cy="36.922234"
       fx="-12.312027"
       fy="36.922234"
       r="8.8249998"
       gradientTransform="matrix(3.8793179,1.4902487,-2.2130934,5.7609797,117.16259,-162.81431)"
       gradientUnits="userSpaceOnUse" /><radialGradient
       inkscape:collect="always"
       xlink:href="#linearGradient8006"
       id="radialGradient8008"
       cx="-4.1525002"
       cy="-3.5206582e-14"
       fx="-4.1525002"
       fy="-3.5206582e-14"
       r="4.4025002"
       gradientTransform="matrix(9.7735447,0,0,10.898334,36.432146,0)"
       gradientUnits="userSpaceOnUse" /><radialGradient
       inkscape:collect="always"
       xlink:href="#linearGradient8014"
       id="radialGradient8018"
       cx="61.784737"
       cy="68.001129"
       fx="61.784737"
       fy="68.001129"
       r="76.231461"
       gradientTransform="matrix(1.7169841,-0.05365094,0.04970824,1.5908064,-47.678885,-36.683414)"
       gradientUnits="userSpaceOnUse" /><radialGradient
       inkscape:collect="always"
       xlink:href="#linearGradient8026"
       id="radialGradient8028"
       cx="239.08495"
       cy="-587.19653"
       fx="239.08495"
       fy="-587.19653"
       r="148.21208"
       gradientTransform="matrix(1.4084036,-0.07270543,0,1.471392,128.68106,1133.5236)"
       gradientUnits="userSpaceOnUse" /><radialGradient
       inkscape:collect="always"
       xlink:href="#linearGradient7982"
       id="radialGradient1746"
       gradientUnits="userSpaceOnUse"
       gradientTransform="matrix(2.0174483,0.17707888,-0.27302252,3.1105281,-17.50064,-36.462264)"
       cx="21.355656"
       cy="15.484574"
       fx="21.355656"
       fy="15.484574"
       r="22.926769" /><radialGradient
       inkscape:collect="always"
       xlink:href="#linearGradient7998"
       id="radialGradient1748"
       gradientUnits="userSpaceOnUse"
       gradientTransform="matrix(3.8793179,1.4902487,-2.2130934,5.7609797,117.16259,-162.81431)"
       cx="-12.312027"
       cy="36.922234"
       fx="-12.312027"
       fy="36.922234"
       r="8.8249998" /></defs><sodipodi:namedview
     pagecolor="#ffffff"
     bordercolor="#666666"
     borderopacity="1"
     objecttolerance="10"
     gridtolerance="10"
     guidetolerance="10"
     inkscape:pageopacity="0"
     inkscape:pageshadow="2"
     inkscape:window-width="640"
     inkscape:window-height="480"
     id="namedview6745"
     showgrid="false"
     fit-margin-top="0"
     fit-margin-left="0"
     fit-margin-right="0"
     fit-margin-bottom="0"
     inkscape:zoom="1.8010619"
     inkscape:cx="209.97715"
     inkscape:cy="218.64054"
     inkscape:current-layer="g6751"
     inkscape:document-rotation="0" /><g
     id="g6751"
     inkscape:groupmode="layer"
     inkscape:label="Constantine A. Balanis - Antenna Theory_ Analysis and Design (2016, Wiley) - libgen.lc"
     transform="matrix(1.3333333,0,0,-1.3333333,-172.41107,926.912)"><rect
       style="fill:url(#radialGradient8028);fill-opacity:1;stroke:none;stroke-width:0.860008;stroke-linejoin:round;stroke-miterlimit:3.8;stroke-opacity:1"
       id="rect8020"
       width="295.67416"
       height="346.77713"
       x="397.52493"
       y="128.93477"
       transform="matrix(0,1,1,0,0,0)" /><text
       transform="scale(1,-1)"
       style="font-style:normal;font-variant:normal;font-weight:normal;font-stretch:normal;font-size:8px;line-height:0.85;font-family:'CMU Serif';-inkscape-font-specification:'CMU Serif, Normal';font-variant-ligatures:normal;font-variant-caps:normal;font-variant-numeric:normal;font-variant-east-asian:normal;text-align:start;writing-mode:lr-tb;text-anchor:start;fill:#000000;fill-opacity:1;fill-rule:nonzero;stroke:none"
       id="text6789"
       x="130.59419"
       y="-607.94824"><tspan
         sodipodi:role="line"
         id="tspan1724"
         x="130.59419"
         y="-607.94824">Fraunhofer (Far-field)</tspan><tspan
         sodipodi:role="line"
         id="tspan1726"
         x="130.59419"
         y="-601.14825">Region</tspan></text><g
       id="g6791"
       transform="rotate(90,-87.53102,348.979)"
       style="fill:url(#radialGradient7984);fill-opacity:1"><path
         d="m 0,0 c 0,0 7.407,-36.14 31.52,-34.31 16.89,16.9 13.41,53.99 8.36,84.12 -5.05,30.12 -26.3,7.31 -26.3,7.31 C 13.58,57.12 -6.618,36.05 0,0 Z"
         style="fill:url(#radialGradient1746);fill-opacity:1;stroke:#000000;stroke-width:0.5;stroke-linecap:butt;stroke-linejoin:miter;stroke-miterlimit:4;stroke-dasharray:5, 3;stroke-dashoffset:0;stroke-opacity:1"
         id="path6793" /></g><g
       id="g6815"
       transform="rotate(90,-44.83102,353.479)"
       style="fill:#7f0f0f;fill-opacity:0;stroke:#000000;stroke-opacity:1"><path
         d="m -0.24861126,-6.9740544 c 0,0 54.06285926,-2.4518704 81.08896326,10.7471422 C 107.86646,16.9721 151.2,39.0005 151.2,72.94 c 0,18.63 -46.0649,44.60212 -72.237278,56.91235 -26.172375,12.31023 -79.74779898,17.16511 -79.74779898,17.16511 z"
         style="opacity:0.241975;fill:url(#radialGradient8018);fill-opacity:1;stroke:#000000;stroke-width:0.5;stroke-linecap:butt;stroke-linejoin:miter;stroke-miterlimit:4;stroke-dasharray:5, 3;stroke-dashoffset:0;stroke-opacity:1"
         id="path6817"
         sodipodi:nodetypes="czszcc" /></g><g
       id="g6799"
       transform="rotate(90,-90.38102,374.829)"><path
         d="m 0,0 c -9.748,0 -17.65,17.25 -17.65,38.52 0,21.27 7.902,38.52 17.65,38.52 z"
         style="fill:none;stroke:#000000;stroke-width:0.5;stroke-linecap:butt;stroke-linejoin:miter;stroke-miterlimit:4;stroke-dasharray:none;stroke-opacity:1"
         id="path6801" /></g><g
       id="g6803"
       transform="rotate(90,-111.68102,357.529)"><path
         d="m 0,0 c 0,-21.32 -1.859,-38.61 -4.152,-38.61 -2.294,0 -4.153,17.29 -4.153,38.61 0,21.32 1.859,38.61 4.153,38.61 C -1.859,38.61 0,21.32 0,0"
         style="fill:#ffffff;fill-opacity:1;fill-rule:nonzero;stroke:none"
         id="path6805" /></g><g
       id="g6795"
       transform="rotate(90,-90.38102,374.829)"
       style="fill:url(#radialGradient8000);fill-opacity:1"><path
         d="m 0,0 c -9.748,0 -17.65,17.25 -17.65,38.52 0,21.27 7.902,38.52 17.65,38.52 V 0"
         style="fill:url(#radialGradient1748);fill-opacity:1;fill-rule:nonzero;stroke:none"
         id="path6797" /></g><g
       id="g6811"
       transform="rotate(90,-126.48102,314.529)" /><g
       id="g6819"
       transform="rotate(90,-48.33102,415.779)"><path
         d="M 0,0 H 226.5"
         style="fill:none;stroke:#000000;stroke-width:0.5;stroke-linecap:butt;stroke-linejoin:miter;stroke-miterlimit:4;stroke-dasharray:none;stroke-opacity:1"
         id="path6821" /></g><g
       id="g6823"
       transform="rotate(90,-161.38102,528.829)"><path
         d="m 0,0 -1.095,1.802 0.061,0.04 2.938,-1.166 C 2.927,0.45 3.951,0.225 4.974,0 3.951,-0.225 2.927,-0.45 1.904,-0.676 L -1.034,-1.842 -1.095,-1.812 0,0"
         style="fill:#000000;fill-opacity:1;fill-rule:nonzero;stroke:none"
         id="path6825" /></g><g
       id="g6831"
       transform="rotate(90,-82.28102,385.729)"
       style="stroke-width:1.82475005;stroke-miterlimit:4;stroke-dasharray:none"><path
         d="M 0,0 C 0,0 7.739,-2.312 6.734,-5.629 5.729,-8.945 1.508,-11.76 2.613,-14.67 c 1.106,-2.92 0.804,-6.64 -0.201,-7.64 -1.005,-1.01 -0.201,-3.02 0.603,-3.82 0.804,-0.81 -0.05,-3.97 -0.803,-4.73 -0.754,-0.75 -0.553,-2.66 0.502,-3.71 1.055,-1.06 0.703,-3.42 -0.302,-4.43 -1.005,-1 -0.552,-3.06 1.006,-3.81 1.557,-0.76 8.322,-7.54 -4.222,-10.46"
         style="fill:none;stroke:#000000;stroke-width:1.82475005;stroke-linecap:butt;stroke-linejoin:miter;stroke-miterlimit:4;stroke-dasharray:none;stroke-opacity:1"
         id="path6833" /></g><g
       id="g6835"
       transform="rotate(90,-108.48102,413.129)"
       style="stroke-width:1.82475005;stroke-miterlimit:4;stroke-dasharray:none"><path
         d="M 0,0 C 0,0 4.663,-1.979 3.956,-5.511 3.25,-9.043 1.272,-15.68 6.499,-17.24 11.73,-18.79 19.07,-22.47 19.07,-25.71"
         style="fill:none;stroke:#000000;stroke-width:1.82475005;stroke-linecap:butt;stroke-linejoin:miter;stroke-miterlimit:4;stroke-dasharray:none;stroke-opacity:1"
         id="path6837" /></g><g
       id="g6839"
       transform="rotate(90,-82.73102,438.879)"
       style="stroke-width:1.82475005;stroke-miterlimit:4;stroke-dasharray:none"><path
         d="M 0,0 C 0,0 4.663,1.979 3.956,5.511 3.25,9.043 1.272,15.68 6.499,17.24 11.73,18.79 19.07,22.47 19.07,25.71"
         style="fill:none;stroke:#000000;stroke-width:1.82475005;stroke-linecap:butt;stroke-linejoin:miter;stroke-miterlimit:4;stroke-dasharray:none;stroke-opacity:1"
         id="path6841" /></g><g
       id="g6843"
       transform="rotate(90,-149.33102,471.879)"
       style="stroke-width:1.82475005;stroke-miterlimit:4;stroke-dasharray:none"><path
         d="m 0,0 c 3.857,0.402 8.097,0.625 12.55,0.625 17.8,0 32.24,-3.563 32.24,-7.956 0,-4.389 -14.44,-7.959 -32.24,-7.959 -4.33,0 -8.459,0.21 -12.23,0.6"
         style="fill:none;stroke:#000000;stroke-width:1.82475005;stroke-linecap:butt;stroke-linejoin:miter;stroke-miterlimit:4;stroke-dasharray:none;stroke-opacity:1"
         id="path6845" /></g><g
       id="g6847"
       transform="rotate(90,-160.78102,459.729)"
       style="stroke-width:1.82475005;stroke-miterlimit:4;stroke-dasharray:none"><path
         d="m 0,0 c 0,0 15.88,-0.469 15.88,-3.676 0,-3.206 -9.702,-4.77 -15.02,-4.77 0,0 15.8,-0.391 15.8,-3.364 0,-2.97 -11.186,-3.75 -15.643,-3.75 0,0 18.923,0 18.923,-3.52 0,-3.52 -10.549,-3.97 -10.549,-3.97"
         style="fill:none;stroke:#000000;stroke-width:1.82475005;stroke-linecap:butt;stroke-linejoin:miter;stroke-miterlimit:4;stroke-dasharray:none;stroke-opacity:1"
         id="path6849" /></g><g
       id="g6851"
       transform="rotate(90,-129.83102,490.679)"
       style="stroke-width:1.82475005;stroke-miterlimit:4;stroke-dasharray:none"><path
         d="m 0,0 c 0,0 15.88,0.469 15.88,3.675 0,3.206 -9.702,4.771 -15.02,4.771 0,0 15.8,0.39 15.8,3.364 0,2.97 -11.186,3.75 -15.643,3.75 0,0 18.923,0 18.923,3.52 0,3.52 -10.549,3.97 -10.549,3.97"
         style="fill:none;stroke:#000000;stroke-width:1.82475005;stroke-linecap:butt;stroke-linejoin:miter;stroke-miterlimit:4;stroke-dasharray:none;stroke-opacity:1"
         id="path6853" /></g><g
       id="g6855"
       transform="rotate(90,-103.68102,314.229)"><path
         d="M 0,0 H 6.645"
         style="fill:none;stroke:#000000;stroke-width:0.5;stroke-linecap:butt;stroke-linejoin:miter;stroke-miterlimit:4;stroke-dasharray:none;stroke-opacity:1"
         id="path6857" /></g><g
       id="g6859"
       transform="rotate(90,-67.73102,350.179)"><path
         d="M 0,0 H 6.645"
         style="fill:none;stroke:#000000;stroke-width:0.5;stroke-linecap:butt;stroke-linejoin:miter;stroke-miterlimit:4;stroke-dasharray:none;stroke-opacity:1"
         id="path6861" /></g><g
       id="g6863"
       transform="rotate(90,-83.93102,337.479)"><path
         d="M 0,0 V -26.14"
         style="fill:none;stroke:#000000;stroke-width:0.5;stroke-linecap:butt;stroke-linejoin:miter;stroke-miterlimit:4;stroke-dasharray:none;stroke-opacity:1"
         id="path6865" /></g><g
       id="g6867"
       transform="rotate(90,-103.93102,317.479)"><path
         d="M 0,0 V -26.73"
         style="fill:none;stroke:#000000;stroke-width:0.5;stroke-linecap:butt;stroke-linejoin:miter;stroke-miterlimit:4;stroke-dasharray:none;stroke-opacity:1"
         id="path6869" /></g><g
       id="g6871"
       transform="rotate(90,-71.93102,349.479)"><path
         d="M 0,0 1.802,1.096 1.842,1.035 0.676,-1.903 C 0.45,-2.926 0.226,-3.95 0,-4.973 c -0.225,1.023 -0.45,2.047 -0.676,3.07 L -1.842,1.035 -1.812,1.096 0,0"
         style="fill:#000000;fill-opacity:1;fill-rule:nonzero;stroke:none"
         id="path6873" /></g><g
       id="g6875"
       transform="rotate(90,-102.93102,318.479)"><path
         d="m 0,0 -1.802,-1.095 -0.04,0.061 1.166,2.938 C -0.45,2.927 -0.226,3.951 0,4.975 0.225,3.951 0.45,2.927 0.676,1.904 L 1.842,-1.034 1.811,-1.095 0,0"
         style="fill:#000000;fill-opacity:1;fill-rule:nonzero;stroke:none"
         id="path6877" /></g><g
       id="g6879"
       transform="rotate(90,-62.33102,393.579)"><path
         d="M 0,0 H -18.25"
         style="fill:none;stroke:#000000;stroke-width:0.5;stroke-linecap:butt;stroke-linejoin:miter;stroke-miterlimit:4;stroke-dasharray:none;stroke-opacity:1"
         id="path6881" /></g><g
       id="g6883"
       transform="rotate(90,-61.28102,392.529)"><path
         d="m 0,0 -1.095,1.802 0.061,0.04 2.938,-1.166 C 2.927,0.45 3.951,0.226 4.975,0 3.951,-0.225 2.927,-0.45 1.904,-0.676 L -1.034,-1.842 -1.095,-1.812 0,0"
         style="fill:#000000;fill-opacity:1;fill-rule:nonzero;stroke:none"
         id="path6885" /></g><text
       transform="scale(1,-1)"
       style="font-style:italic;font-variant:normal;font-weight:500;font-stretch:normal;font-size:8px;font-family:'CMU Serif';-inkscape-font-specification:'CMU Serif, Medium Italic';font-variant-ligatures:normal;font-variant-caps:normal;font-variant-numeric:normal;font-variant-east-asian:normal;writing-mode:lr-tb;fill:#000000;fill-opacity:1;fill-rule:nonzero;stroke:none"
       id="text6889"
       x="243.164"
       y="-419.72916"><tspan
         x="243.164"
         y="-419.72916"
         id="tspan6887"
         style="font-style:italic;font-variant:normal;font-weight:500;font-stretch:normal;font-size:8px;font-family:'CMU Serif';-inkscape-font-specification:'CMU Serif, Medium Italic';font-variant-ligatures:normal;font-variant-caps:normal;font-variant-numeric:normal;font-variant-east-asian:normal">D</tspan></text><text
       transform="matrix(0,1,1,0,0,0)"
       style="font-style:normal;font-variant:normal;font-weight:normal;font-stretch:normal;font-size:8px;font-family:'CMU Serif';-inkscape-font-specification:'CMU Serif, Normal';font-variant-ligatures:normal;font-variant-caps:normal;font-variant-numeric:normal;font-variant-east-asian:normal;writing-mode:lr-tb;fill:#000000;fill-opacity:1;fill-rule:nonzero;stroke:none"
       id="text6893"
       x="399.12033"
       y="327.25095"><tspan
         sodipodi:role="line"
         id="tspan1744"
         x="399.12033"
         y="327.25095">Field Distribution</tspan></text><text
       transform="scale(1,-1)"
       style="font-style:normal;font-variant:normal;font-weight:normal;font-stretch:normal;font-size:8px;line-height:0.85;font-family:'CMU Serif';-inkscape-font-specification:'CMU Serif, Normal';font-variant-ligatures:normal;font-variant-caps:normal;font-variant-numeric:normal;font-variant-east-asian:normal;writing-mode:lr-tb;fill:#000000;fill-opacity:1;fill-rule:nonzero;stroke:none"
       id="text6901"
       x="130.13307"
       y="-519.20642"><tspan
         sodipodi:role="line"
         id="tspan1728"
         x="130.13307"
         y="-519.20642">Fresnel (Near-field) </tspan><tspan
         sodipodi:role="line"
         id="tspan1730"
         x="130.13307"
         y="-512.40643">Region</tspan></text><text
       transform="matrix(0,1,1,0,0,0)"
       style="font-style:italic;font-variant:normal;font-weight:normal;font-size:8.966px;font-family:CMSY10;-inkscape-font-specification:CMSY10;writing-mode:lr-tb;fill:#231f20;fill-opacity:1;fill-rule:nonzero;stroke:none"
       id="text6937"
       x="408.51001"
       y="417.44797"><tspan
         x="408.51001"
         y="417.44797"
         id="tspan6935" /></text><g
       transform="matrix(0.90804304,0,0,-0.90804304,370.83818,488.35726)"
       ns12:version="1.2.0"
       ns12:texconverter="pdflatex"
       ns12:pdfconverter="inkscape"
       ns12:text="$R_{1}=0.62 \sqrt{D^{3} / \lambda}$  "
       ns12:preamble="/Users/hasanabbas/Library/Application Support/org.inkscape.Inkscape/config/inkscape/extensions/circuitSymbols/circuitSymbolsPreamble.tex"
       ns12:scale="1.0"
       ns12:alignment="middle center"
       ns12:inkscapeversion="1.0.2"
       ns12:jacobian_sqrt="1.33333"
       id="g1085"><defs
   id="id-f471b927-aee4-4b38-9f30-9548e26f4959">
    <g
   id="id-afad423f-e5af-4ec8-9869-32e263e92924">
      <symbol
   overflow="visible"
   id="id-6faabb47-9fd6-460e-bdbd-e0c1906f6078">
        <path
   style="stroke:none"
   d=""
   id="id-a047c1c2-d3b5-484c-8fac-068a819cad0a" />
      </symbol>
      <symbol
   overflow="visible"
   id="id-bec264d1-848f-483e-97a3-f875ff39ada7">
        <path
   style="stroke:none"
   d="m 3.734375,-6.125 c 0.0625,-0.234375 0.09375,-0.328125 0.28125,-0.359375 C 4.109375,-6.5 4.421875,-6.5 4.625,-6.5 c 0.703125,0 1.8125,0 1.8125,0.984375 0,0.34375 -0.15625,1.03125 -0.546875,1.421875 -0.265625,0.25 -0.78125,0.578125 -1.6875,0.578125 H 3.09375 Z m 1.4375,2.734375 c 1.015625,-0.21875 2.1875,-0.921875 2.1875,-1.921875 0,-0.859375 -0.890625,-1.5 -2.203125,-1.5 H 2.328125 c -0.203125,0 -0.296875,0 -0.296875,0.203125 C 2.03125,-6.5 2.125,-6.5 2.3125,-6.5 c 0.015625,0 0.203125,0 0.375,0.015625 0.1875,0.03125 0.265625,0.03125 0.265625,0.171875 0,0.03125 0,0.0625 -0.03125,0.1875 l -1.34375,5.34375 C 1.484375,-0.390625 1.46875,-0.3125 0.671875,-0.3125 0.5,-0.3125 0.40625,-0.3125 0.40625,-0.109375 0.40625,0 0.53125,0 0.546875,0 c 0.28125,0 0.984375,-0.03125 1.25,-0.03125 0.28125,0 1,0.03125 1.28125,0.03125 0.078125,0 0.1875,0 0.1875,-0.203125 0,-0.109375 -0.078125,-0.109375 -0.28125,-0.109375 -0.359375,0 -0.640625,0 -0.640625,-0.171875 0,-0.0625 0.015625,-0.109375 0.03125,-0.171875 l 0.65625,-2.640625 h 1.1875 c 0.90625,0 1.078125,0.5625 1.078125,0.90625 0,0.140625 -0.078125,0.453125 -0.140625,0.6875 C 5.09375,-1.421875 5,-1.0625 5,-0.859375 5,0.21875 6.203125,0.21875 6.328125,0.21875 c 0.84375,0 1.203125,-1 1.203125,-1.140625 0,-0.125 -0.109375,-0.125 -0.125,-0.125 -0.09375,0 -0.109375,0.0625 -0.125,0.140625 C 7.03125,-0.171875 6.59375,0 6.375,0 6.046875,0 5.96875,-0.21875 5.96875,-0.609375 c 0,-0.3125 0.0625,-0.8125 0.109375,-1.140625 0.015625,-0.140625 0.03125,-0.328125 0.03125,-0.46875 0,-0.765625 -0.671875,-1.078125 -0.9375,-1.171875 z m 0,0"
   id="id-13ae9b1e-541f-4e8a-8a23-cca1cd1592a4" />
      </symbol>
      <symbol
   overflow="visible"
   id="id-dc3762e7-dfe1-4f6e-8020-155425d52232">
        <path
   style="stroke:none"
   d="m 1.90625,-0.53125 c 0,-0.28125 -0.234375,-0.53125 -0.515625,-0.53125 -0.296875,0 -0.53125,0.25 -0.53125,0.53125 C 0.859375,-0.234375 1.09375,0 1.390625,0 1.671875,0 1.90625,-0.234375 1.90625,-0.53125 Z m 0,0"
   id="id-f6eaf2cf-2726-4ca9-9737-391642eaad8d" />
      </symbol>
      <symbol
   overflow="visible"
   id="id-4d97d685-69a4-42e3-99c6-3174d7d29b0b">
        <path
   style="stroke:none"
   d="m 1.578125,-0.78125 c -0.09375,0.390625 -0.109375,0.46875 -0.90625,0.46875 -0.15625,0 -0.265625,0 -0.265625,0.1875 C 0.40625,0 0.484375,0 0.671875,0 h 3.3125 c 2.0625,0 4.03125,-2.109375 4.03125,-4.28125 0,-1.40625 -0.84375,-2.53125 -2.34375,-2.53125 h -3.34375 c -0.1875,0 -0.296875,0 -0.296875,0.1875 0,0.125 0.078125,0.125 0.28125,0.125 0.125,0 0.3125,0.015625 0.421875,0.015625 0.171875,0.03125 0.21875,0.046875 0.21875,0.171875 0,0.03125 0,0.0625 -0.03125,0.1875 z M 3.734375,-6.125 C 3.828125,-6.46875 3.84375,-6.5 4.28125,-6.5 h 1.0625 c 0.96875,0 1.796875,0.53125 1.796875,1.84375 0,0.484375 -0.1875,2.125 -1.046875,3.21875 -0.28125,0.375 -1.0625,1.125 -2.296875,1.125 h -1.125 c -0.140625,0 -0.15625,0 -0.21875,0 -0.09375,-0.015625 -0.125,-0.03125 -0.125,-0.109375 0,-0.03125 0,-0.046875 0.046875,-0.21875 z m 0,0"
   id="id-c4630002-27fe-4661-927f-7a96f30ffa69" />
      </symbol>
      <symbol
   overflow="visible"
   id="id-8fc041f0-a53c-40f2-8334-0fc3c42fd111">
        <path
   style="stroke:none"
   d="m 4.375,-7.09375 c 0.046875,-0.140625 0.046875,-0.171875 0.046875,-0.1875 0,-0.109375 -0.078125,-0.203125 -0.1875,-0.203125 -0.078125,0 -0.140625,0.03125 -0.171875,0.09375 l -3.46875,9.5 C 0.546875,2.25 0.546875,2.28125 0.546875,2.296875 0.546875,2.40625 0.640625,2.5 0.75,2.5 0.875,2.5 0.90625,2.421875 0.96875,2.25 Z m 0,0"
   id="id-5d81cb18-b37c-42b8-ac5e-f50ed82516d0" />
      </symbol>
      <symbol
   overflow="visible"
   id="id-3e2a2569-83b7-4249-8096-a12b82a77af6">
        <path
   style="stroke:none"
   d="m 3.5625,-2.90625 c 0.40625,1.046875 0.890625,2.5625 1.046875,2.796875 0.15625,0.21875 0.25,0.21875 0.53125,0.21875 h 0.21875 c 0.09375,-0.015625 0.109375,-0.0625 0.109375,-0.09375 0,-0.03125 -0.03125,-0.0625 -0.0625,-0.09375 C 5.3125,-0.1875 5.25,-0.34375 5.1875,-0.53125 L 3.15625,-6.203125 c -0.21875,-0.578125 -0.75,-0.71875 -1.21875,-0.71875 -0.046875,0 -0.1875,0 -0.1875,0.109375 0,0.078125 0.078125,0.109375 0.09375,0.109375 C 2.171875,-6.65625 2.25,-6.59375 2.5,-5.90625 l 0.953125,2.703125 -2.75,2.734375 c -0.109375,0.125 -0.171875,0.171875 -0.171875,0.3125 0,0.171875 0.140625,0.28125 0.296875,0.28125 0.15625,0 0.25,-0.109375 0.328125,-0.203125 z m 0,0"
   id="id-a1ba9ad0-4743-48a2-9c8a-3dbb4db19c14" />
      </symbol>
      <symbol
   overflow="visible"
   id="id-28bff0d8-247b-4f94-a452-b5269532cd5f">
        <path
   style="stroke:none"
   d=""
   id="id-9ce1d264-b659-4fc8-9997-a58effcf3cb8" />
      </symbol>
      <symbol
   overflow="visible"
   id="id-0194253f-cf53-4122-8cf3-55e02a79ed97">
        <path
   style="stroke:none"
   d="m 2.328125,-4.4375 c 0,-0.1875 0,-0.1875 -0.203125,-0.1875 -0.453125,0.4375 -1.078125,0.4375 -1.359375,0.4375 v 0.25 c 0.15625,0 0.625,0 1,-0.1875 v 3.546875 c 0,0.234375 0,0.328125 -0.6875,0.328125 H 0.8125 V 0 c 0.125,0 0.984375,-0.03125 1.234375,-0.03125 0.21875,0 1.09375,0.03125 1.25,0.03125 V -0.25 H 3.03125 c -0.703125,0 -0.703125,-0.09375 -0.703125,-0.328125 z m 0,0"
   id="id-7ba9c9c5-94ef-4819-8c12-6eeeb0a38bea" />
      </symbol>
      <symbol
   overflow="visible"
   id="id-167e522b-22b8-4b59-a8f6-fb339b2fe792">
        <path
   style="stroke:none"
   d="m 1.90625,-2.328125 c 0.546875,0 0.9375,0.375 0.9375,1.125 0,0.859375 -0.515625,1.125 -0.90625,1.125 -0.28125,0 -0.90625,-0.078125 -1.1875,-0.5 0.328125,0 0.40625,-0.234375 0.40625,-0.390625 0,-0.21875 -0.171875,-0.375 -0.390625,-0.375 -0.1875,0 -0.390625,0.125 -0.390625,0.40625 0,0.65625 0.71875,1.078125 1.5625,1.078125 0.96875,0 1.640625,-0.65625 1.640625,-1.34375 0,-0.546875 -0.4375,-1.09375 -1.203125,-1.25 0.71875,-0.265625 0.984375,-0.78125 0.984375,-1.21875 0,-0.546875 -0.625,-0.953125 -1.40625,-0.953125 -0.765625,0 -1.359375,0.375 -1.359375,0.9375 0,0.234375 0.15625,0.359375 0.359375,0.359375 0.21875,0 0.359375,-0.15625 0.359375,-0.34375 0,-0.203125 -0.140625,-0.359375 -0.359375,-0.375 0.25,-0.296875 0.71875,-0.375 0.984375,-0.375 0.3125,0 0.75,0.15625 0.75,0.75 0,0.296875 -0.09375,0.625 -0.28125,0.828125 -0.21875,0.265625 -0.421875,0.28125 -0.765625,0.3125 -0.171875,0.015625 -0.1875,0.015625 -0.21875,0.015625 -0.015625,0 -0.078125,0.015625 -0.078125,0.09375 0,0.09375 0.0625,0.09375 0.1875,0.09375 z m 0,0"
   id="id-812a5b5b-9817-4723-983f-987bf2f6368c" />
      </symbol>
      <symbol
   overflow="visible"
   id="id-02961a6d-7635-442c-904a-266040eb9db1">
        <path
   style="stroke:none"
   d=""
   id="id-12b5f606-1fd3-4cdd-9923-345bb5c6a785" />
      </symbol>
      <symbol
   overflow="visible"
   id="id-d205f154-35b4-438c-b429-ca634e018d07">
        <path
   style="stroke:none"
   d="m 6.84375,-3.265625 c 0.15625,0 0.34375,0 0.34375,-0.1875 C 7.1875,-3.65625 7,-3.65625 6.859375,-3.65625 h -5.96875 c -0.140625,0 -0.328125,0 -0.328125,0.203125 0,0.1875 0.1875,0.1875 0.328125,0.1875 z m 0.015625,1.9375 c 0.140625,0 0.328125,0 0.328125,-0.203125 0,-0.1875 -0.1875,-0.1875 -0.34375,-0.1875 H 0.890625 c -0.140625,0 -0.328125,0 -0.328125,0.1875 0,0.203125 0.1875,0.203125 0.328125,0.203125 z m 0,0"
   id="id-e1c985e9-d1d3-443b-a35c-a5a0d6c2e79d" />
      </symbol>
      <symbol
   overflow="visible"
   id="id-9ad423f7-9780-4324-b653-6766390e26c8">
        <path
   style="stroke:none"
   d="m 4.578125,-3.1875 c 0,-0.796875 -0.046875,-1.59375 -0.390625,-2.328125 -0.453125,-0.96875 -1.28125,-1.125 -1.6875,-1.125 -0.609375,0 -1.328125,0.265625 -1.75,1.1875 -0.3125,0.6875 -0.359375,1.46875 -0.359375,2.265625 0,0.75 0.03125,1.640625 0.453125,2.40625 0.421875,0.796875 1.15625,1 1.640625,1 0.53125,0 1.296875,-0.203125 1.734375,-1.15625 0.3125,-0.6875 0.359375,-1.46875 0.359375,-2.25 z M 2.484375,0 C 2.09375,0 1.5,-0.25 1.328125,-1.203125 1.21875,-1.796875 1.21875,-2.71875 1.21875,-3.3125 c 0,-0.640625 0,-1.296875 0.078125,-1.828125 0.1875,-1.1875 0.9375,-1.28125 1.1875,-1.28125 0.328125,0 0.984375,0.1875 1.171875,1.171875 0.109375,0.5625 0.109375,1.3125 0.109375,1.9375 0,0.75 0,1.421875 -0.109375,2.0625 C 3.5,-0.296875 2.9375,0 2.484375,0 Z m 0,0"
   id="id-1abc7bcc-6382-4b1d-a1b2-cff806e7d88b" />
      </symbol>
      <symbol
   overflow="visible"
   id="id-431d4aac-635b-4a19-8a5d-bf2d2e5f5ac5">
        <path
   style="stroke:none"
   d="m 1.3125,-3.265625 v -0.25 c 0,-2.515625 1.234375,-2.875 1.75,-2.875 0.234375,0 0.65625,0.0625 0.875,0.40625 -0.15625,0 -0.546875,0 -0.546875,0.4375 0,0.3125 0.234375,0.46875 0.453125,0.46875 0.15625,0 0.46875,-0.09375 0.46875,-0.484375 0,-0.59375 -0.4375,-1.078125 -1.265625,-1.078125 -1.28125,0 -2.625,1.28125 -2.625,3.484375 0,2.671875 1.15625,3.375 2.078125,3.375 1.109375,0 2.0625,-0.9375 2.0625,-2.25 0,-1.265625 -0.890625,-2.21875 -2,-2.21875 -0.671875,0 -1.046875,0.5 -1.25,0.984375 z M 2.5,-0.0625 c -0.625,0 -0.921875,-0.59375 -0.984375,-0.75 -0.1875,-0.46875 -0.1875,-1.265625 -0.1875,-1.4375 0,-0.78125 0.328125,-1.78125 1.21875,-1.78125 0.171875,0 0.625,0 0.9375,0.625 0.171875,0.359375 0.171875,0.875 0.171875,1.359375 0,0.484375 0,0.984375 -0.171875,1.34375 C 3.1875,-0.109375 2.734375,-0.0625 2.5,-0.0625 Z m 0,0"
   id="id-f455bb55-c7ff-44d3-ad8d-3c2861301e9b" />
      </symbol>
      <symbol
   overflow="visible"
   id="id-483ee56a-4e58-4ea2-8133-f382b3bec514">
        <path
   style="stroke:none"
   d="m 1.265625,-0.765625 1.0625,-1.03125 c 1.546875,-1.375 2.140625,-1.90625 2.140625,-2.90625 0,-1.140625 -0.890625,-1.9375 -2.109375,-1.9375 -1.125,0 -1.859375,0.921875 -1.859375,1.8125 0,0.546875 0.5,0.546875 0.53125,0.546875 0.171875,0 0.515625,-0.109375 0.515625,-0.53125 0,-0.25 -0.1875,-0.515625 -0.53125,-0.515625 -0.078125,0 -0.09375,0 -0.125,0.015625 0.21875,-0.65625 0.765625,-1.015625 1.34375,-1.015625 0.90625,0 1.328125,0.8125 1.328125,1.625 C 3.5625,-3.90625 3.078125,-3.125 2.515625,-2.5 l -1.90625,2.125 C 0.5,-0.265625 0.5,-0.234375 0.5,0 H 4.203125 L 4.46875,-1.734375 H 4.234375 C 4.171875,-1.4375 4.109375,-1 4,-0.84375 3.9375,-0.765625 3.28125,-0.765625 3.0625,-0.765625 Z m 0,0"
   id="id-10d72bff-bb8d-4cd4-a863-bd610db9d3fc" />
      </symbol>
      <symbol
   overflow="visible"
   id="id-a977c4f6-252b-4c95-826e-7f097f5cdef0">
        <path
   style="stroke:none"
   d=""
   id="id-79b82614-654c-4c63-8ada-de3cb7f104d6" />
      </symbol>
      <symbol
   overflow="visible"
   id="id-ef355f4c-40d4-4a91-9bd6-e6eaa9b1ccb6">
        <path
   style="stroke:none"
   d="m 4.234375,11.5625 c 0.296875,0 0.3125,-0.01563 0.40625,-0.203125 l 5.453125,-11.375 c 0.07813,-0.140625 0.07813,-0.15625 0.07813,-0.1875 0,-0.109375 -0.07813,-0.203125 -0.203125,-0.203125 -0.125,0 -0.171875,0.09375 -0.21875,0.203125 L 4.609375,10.53125 2.484375,5.578125 1.09375,6.65625 1.25,6.8125 1.953125,6.265625 Z m 0,0"
   id="id-dcabdba3-3b26-420b-88af-49a73a466945" />
      </symbol>
    </g>
  </defs>
  <g
   id="id-02d47f55-c987-4046-81b1-9a5ccdd5df8b"
   transform="translate(-149.118,-125.841)">
    <g
   style="fill:#000000;fill-opacity:1"
   id="id-843d98ee-4f14-4798-8d0a-e6e42bec1a72">
      <g
   transform="translate(148.712,134.765)"
   id="g1280"><path
   style="stroke:none"
   d="m 3.734375,-6.125 c 0.0625,-0.234375 0.09375,-0.328125 0.28125,-0.359375 C 4.109375,-6.5 4.421875,-6.5 4.625,-6.5 c 0.703125,0 1.8125,0 1.8125,0.984375 0,0.34375 -0.15625,1.03125 -0.546875,1.421875 -0.265625,0.25 -0.78125,0.578125 -1.6875,0.578125 H 3.09375 Z m 1.4375,2.734375 c 1.015625,-0.21875 2.1875,-0.921875 2.1875,-1.921875 0,-0.859375 -0.890625,-1.5 -2.203125,-1.5 H 2.328125 c -0.203125,0 -0.296875,0 -0.296875,0.203125 C 2.03125,-6.5 2.125,-6.5 2.3125,-6.5 c 0.015625,0 0.203125,0 0.375,0.015625 0.1875,0.03125 0.265625,0.03125 0.265625,0.171875 0,0.03125 0,0.0625 -0.03125,0.1875 l -1.34375,5.34375 C 1.484375,-0.390625 1.46875,-0.3125 0.671875,-0.3125 0.5,-0.3125 0.40625,-0.3125 0.40625,-0.109375 0.40625,0 0.53125,0 0.546875,0 c 0.28125,0 0.984375,-0.03125 1.25,-0.03125 0.28125,0 1,0.03125 1.28125,0.03125 0.078125,0 0.1875,0 0.1875,-0.203125 0,-0.109375 -0.078125,-0.109375 -0.28125,-0.109375 -0.359375,0 -0.640625,0 -0.640625,-0.171875 0,-0.0625 0.015625,-0.109375 0.03125,-0.171875 l 0.65625,-2.640625 h 1.1875 c 0.90625,0 1.078125,0.5625 1.078125,0.90625 0,0.140625 -0.078125,0.453125 -0.140625,0.6875 C 5.09375,-1.421875 5,-1.0625 5,-0.859375 5,0.21875 6.203125,0.21875 6.328125,0.21875 c 0.84375,0 1.203125,-1 1.203125,-1.140625 0,-0.125 -0.109375,-0.125 -0.125,-0.125 -0.09375,0 -0.109375,0.0625 -0.125,0.140625 C 7.03125,-0.171875 6.59375,0 6.375,0 6.046875,0 5.96875,-0.21875 5.96875,-0.609375 c 0,-0.3125 0.0625,-0.8125 0.109375,-1.140625 0.015625,-0.140625 0.03125,-0.328125 0.03125,-0.46875 0,-0.765625 -0.671875,-1.078125 -0.9375,-1.171875 z m 0,0"
   id="id-8d68d619-7f30-4fc5-bc37-579d8406d9dd" />
      </g></g>
    <g
   style="fill:#000000;fill-opacity:1"
   id="id-0cc234d3-b1a8-4846-9c66-41613f0b7d3c">
      <g
   transform="translate(156.277,136.259)"
   id="g1284"><path
   style="stroke:none"
   d="m 2.328125,-4.4375 c 0,-0.1875 0,-0.1875 -0.203125,-0.1875 -0.453125,0.4375 -1.078125,0.4375 -1.359375,0.4375 v 0.25 c 0.15625,0 0.625,0 1,-0.1875 v 3.546875 c 0,0.234375 0,0.328125 -0.6875,0.328125 H 0.8125 V 0 c 0.125,0 0.984375,-0.03125 1.234375,-0.03125 0.21875,0 1.09375,0.03125 1.25,0.03125 V -0.25 H 3.03125 c -0.703125,0 -0.703125,-0.09375 -0.703125,-0.328125 z m 0,0"
   id="id-663e340d-50f4-4a0f-82a3-f1a380834647" />
      </g></g>
    <g
   style="fill:#000000;fill-opacity:1"
   id="id-9fba01a3-2443-4409-8c72-f7fd97d43ff2">
      <g
   transform="translate(163.514,134.765)"
   id="g1288"><path
   style="stroke:none"
   d="m 6.84375,-3.265625 c 0.15625,0 0.34375,0 0.34375,-0.1875 C 7.1875,-3.65625 7,-3.65625 6.859375,-3.65625 h -5.96875 c -0.140625,0 -0.328125,0 -0.328125,0.203125 0,0.1875 0.1875,0.1875 0.328125,0.1875 z m 0.015625,1.9375 c 0.140625,0 0.328125,0 0.328125,-0.203125 0,-0.1875 -0.1875,-0.1875 -0.34375,-0.1875 H 0.890625 c -0.140625,0 -0.328125,0 -0.328125,0.1875 0,0.203125 0.1875,0.203125 0.328125,0.203125 z m 0,0"
   id="id-2236a10c-9093-4aa9-aebd-b12f5eadda91" />
      </g></g>
    <g
   style="fill:#000000;fill-opacity:1"
   id="id-ff74739b-a2e9-4bae-8081-a0c6c4c782cc">
      <g
   transform="translate(174.033,134.765)"
   id="g1292"><path
   style="stroke:none"
   d="m 4.578125,-3.1875 c 0,-0.796875 -0.046875,-1.59375 -0.390625,-2.328125 -0.453125,-0.96875 -1.28125,-1.125 -1.6875,-1.125 -0.609375,0 -1.328125,0.265625 -1.75,1.1875 -0.3125,0.6875 -0.359375,1.46875 -0.359375,2.265625 0,0.75 0.03125,1.640625 0.453125,2.40625 0.421875,0.796875 1.15625,1 1.640625,1 0.53125,0 1.296875,-0.203125 1.734375,-1.15625 0.3125,-0.6875 0.359375,-1.46875 0.359375,-2.25 z M 2.484375,0 C 2.09375,0 1.5,-0.25 1.328125,-1.203125 1.21875,-1.796875 1.21875,-2.71875 1.21875,-3.3125 c 0,-0.640625 0,-1.296875 0.078125,-1.828125 0.1875,-1.1875 0.9375,-1.28125 1.1875,-1.28125 0.328125,0 0.984375,0.1875 1.171875,1.171875 0.109375,0.5625 0.109375,1.3125 0.109375,1.9375 0,0.75 0,1.421875 -0.109375,2.0625 C 3.5,-0.296875 2.9375,0 2.484375,0 Z m 0,0"
   id="id-5bb5019b-3bc9-448b-97a0-b6b2d2ea3ef8" />
      </g></g>
    <g
   style="fill:#000000;fill-opacity:1"
   id="id-983205b4-90fd-4f57-aaaf-8761f0cf0bc4">
      <g
   transform="translate(179.011,134.765)"
   id="g1296"><path
   style="stroke:none"
   d="m 1.90625,-0.53125 c 0,-0.28125 -0.234375,-0.53125 -0.515625,-0.53125 -0.296875,0 -0.53125,0.25 -0.53125,0.53125 C 0.859375,-0.234375 1.09375,0 1.390625,0 1.671875,0 1.90625,-0.234375 1.90625,-0.53125 Z m 0,0"
   id="id-62dcb409-f85e-417a-85bd-1bf0dbfc4fca" />
      </g></g>
    <g
   style="fill:#000000;fill-opacity:1"
   id="id-e556f8d8-36b3-4996-bd3f-97f032be2b09">
      <g
   transform="translate(181.778,134.765)"
   id="g1300"><path
   style="stroke:none"
   d="m 1.3125,-3.265625 v -0.25 c 0,-2.515625 1.234375,-2.875 1.75,-2.875 0.234375,0 0.65625,0.0625 0.875,0.40625 -0.15625,0 -0.546875,0 -0.546875,0.4375 0,0.3125 0.234375,0.46875 0.453125,0.46875 0.15625,0 0.46875,-0.09375 0.46875,-0.484375 0,-0.59375 -0.4375,-1.078125 -1.265625,-1.078125 -1.28125,0 -2.625,1.28125 -2.625,3.484375 0,2.671875 1.15625,3.375 2.078125,3.375 1.109375,0 2.0625,-0.9375 2.0625,-2.25 0,-1.265625 -0.890625,-2.21875 -2,-2.21875 -0.671875,0 -1.046875,0.5 -1.25,0.984375 z M 2.5,-0.0625 c -0.625,0 -0.921875,-0.59375 -0.984375,-0.75 -0.1875,-0.46875 -0.1875,-1.265625 -0.1875,-1.4375 0,-0.78125 0.328125,-1.78125 1.21875,-1.78125 0.171875,0 0.625,0 0.9375,0.625 0.171875,0.359375 0.171875,0.875 0.171875,1.359375 0,0.484375 0,0.984375 -0.171875,1.34375 C 3.1875,-0.109375 2.734375,-0.0625 2.5,-0.0625 Z m 0,0"
   id="id-66adfffe-13be-42f9-a126-b53d5ca69d44" />
      </g><g
   transform="translate(186.759,134.765)"
   id="g1303"><path
   style="stroke:none"
   d="m 1.265625,-0.765625 1.0625,-1.03125 c 1.546875,-1.375 2.140625,-1.90625 2.140625,-2.90625 0,-1.140625 -0.890625,-1.9375 -2.109375,-1.9375 -1.125,0 -1.859375,0.921875 -1.859375,1.8125 0,0.546875 0.5,0.546875 0.53125,0.546875 0.171875,0 0.515625,-0.109375 0.515625,-0.53125 0,-0.25 -0.1875,-0.515625 -0.53125,-0.515625 -0.078125,0 -0.09375,0 -0.125,0.015625 0.21875,-0.65625 0.765625,-1.015625 1.34375,-1.015625 0.90625,0 1.328125,0.8125 1.328125,1.625 C 3.5625,-3.90625 3.078125,-3.125 2.515625,-2.5 l -1.90625,2.125 C 0.5,-0.265625 0.5,-0.234375 0.5,0 H 4.203125 L 4.46875,-1.734375 H 4.234375 C 4.171875,-1.4375 4.109375,-1 4,-0.84375 3.9375,-0.765625 3.28125,-0.765625 3.0625,-0.765625 Z m 0,0"
   id="id-ed0ae2ad-0d00-47b6-a84a-6a7d82076ab9" />
      </g></g>
    <g
   style="fill:#000000;fill-opacity:1"
   id="id-66c41adc-bf23-42f5-a43d-8c2927775ab1">
      <g
   transform="translate(191.741,126.247)"
   id="g1307"><path
   style="stroke:none"
   d="m 4.234375,11.5625 c 0.296875,0 0.3125,-0.01563 0.40625,-0.203125 l 5.453125,-11.375 c 0.07813,-0.140625 0.07813,-0.15625 0.07813,-0.1875 0,-0.109375 -0.07813,-0.203125 -0.203125,-0.203125 -0.125,0 -0.171875,0.09375 -0.21875,0.203125 L 4.609375,10.53125 2.484375,5.578125 1.09375,6.65625 1.25,6.8125 1.953125,6.265625 Z m 0,0"
   id="id-0719a48c-a36f-4173-b86c-92ee1df91514" />
      </g></g>
    <path
   style="fill:none;stroke:#000000;stroke-width:0.398;stroke-linecap:butt;stroke-linejoin:miter;stroke-miterlimit:10;stroke-opacity:1"
   d="M -8.75e-4,1.25e-4 H 23.788188"
   transform="matrix(1,0,0,-1,201.704,126.047)"
   id="id-73e4a924-1319-4729-b2d3-937f353880c3" />
    <g
   style="fill:#000000;fill-opacity:1"
   id="id-931b2dcf-b3bd-4d14-8f90-61dce5d6b97d">
      <g
   transform="translate(201.704,134.765)"
   id="g1312"><path
   style="stroke:none"
   d="m 1.578125,-0.78125 c -0.09375,0.390625 -0.109375,0.46875 -0.90625,0.46875 -0.15625,0 -0.265625,0 -0.265625,0.1875 C 0.40625,0 0.484375,0 0.671875,0 h 3.3125 c 2.0625,0 4.03125,-2.109375 4.03125,-4.28125 0,-1.40625 -0.84375,-2.53125 -2.34375,-2.53125 h -3.34375 c -0.1875,0 -0.296875,0 -0.296875,0.1875 0,0.125 0.078125,0.125 0.28125,0.125 0.125,0 0.3125,0.015625 0.421875,0.015625 0.171875,0.03125 0.21875,0.046875 0.21875,0.171875 0,0.03125 0,0.0625 -0.03125,0.1875 z M 3.734375,-6.125 C 3.828125,-6.46875 3.84375,-6.5 4.28125,-6.5 h 1.0625 c 0.96875,0 1.796875,0.53125 1.796875,1.84375 0,0.484375 -0.1875,2.125 -1.046875,3.21875 -0.28125,0.375 -1.0625,1.125 -2.296875,1.125 h -1.125 c -0.140625,0 -0.15625,0 -0.21875,0 -0.09375,-0.015625 -0.125,-0.03125 -0.125,-0.109375 0,-0.03125 0,-0.046875 0.046875,-0.21875 z m 0,0"
   id="id-5f5e1b84-5169-4e60-8603-8c72237ff40b" />
      </g></g>
    <g
   style="fill:#000000;fill-opacity:1"
   id="id-1b20842a-e1db-4473-8fc5-5d63751c937c">
      <g
   transform="translate(210.229,131.887)"
   id="g1316"><path
   style="stroke:none"
   d="m 1.90625,-2.328125 c 0.546875,0 0.9375,0.375 0.9375,1.125 0,0.859375 -0.515625,1.125 -0.90625,1.125 -0.28125,0 -0.90625,-0.078125 -1.1875,-0.5 0.328125,0 0.40625,-0.234375 0.40625,-0.390625 0,-0.21875 -0.171875,-0.375 -0.390625,-0.375 -0.1875,0 -0.390625,0.125 -0.390625,0.40625 0,0.65625 0.71875,1.078125 1.5625,1.078125 0.96875,0 1.640625,-0.65625 1.640625,-1.34375 0,-0.546875 -0.4375,-1.09375 -1.203125,-1.25 0.71875,-0.265625 0.984375,-0.78125 0.984375,-1.21875 0,-0.546875 -0.625,-0.953125 -1.40625,-0.953125 -0.765625,0 -1.359375,0.375 -1.359375,0.9375 0,0.234375 0.15625,0.359375 0.359375,0.359375 0.21875,0 0.359375,-0.15625 0.359375,-0.34375 0,-0.203125 -0.140625,-0.359375 -0.359375,-0.375 0.25,-0.296875 0.71875,-0.375 0.984375,-0.375 0.3125,0 0.75,0.15625 0.75,0.75 0,0.296875 -0.09375,0.625 -0.28125,0.828125 -0.21875,0.265625 -0.421875,0.28125 -0.765625,0.3125 -0.171875,0.015625 -0.1875,0.015625 -0.21875,0.015625 -0.015625,0 -0.078125,0.015625 -0.078125,0.09375 0,0.09375 0.0625,0.09375 0.1875,0.09375 z m 0,0"
   id="id-b53bf47b-adfa-4f47-90fe-9b9a5c79f87c" />
      </g></g>
    <g
   style="fill:#000000;fill-opacity:1"
   id="id-9763f763-aa2e-4581-b8c5-c1448070fb00">
      <g
   transform="translate(214.698,134.765)"
   id="g1320"><path
   style="stroke:none"
   d="m 4.375,-7.09375 c 0.046875,-0.140625 0.046875,-0.171875 0.046875,-0.1875 0,-0.109375 -0.078125,-0.203125 -0.1875,-0.203125 -0.078125,0 -0.140625,0.03125 -0.171875,0.09375 l -3.46875,9.5 C 0.546875,2.25 0.546875,2.28125 0.546875,2.296875 0.546875,2.40625 0.640625,2.5 0.75,2.5 0.875,2.5 0.90625,2.421875 0.96875,2.25 Z m 0,0"
   id="id-088b258d-6337-499c-b792-29eedb8344b0" />
      </g><g
   transform="translate(219.679,134.765)"
   id="g1323"><path
   style="stroke:none"
   d="m 3.5625,-2.90625 c 0.40625,1.046875 0.890625,2.5625 1.046875,2.796875 0.15625,0.21875 0.25,0.21875 0.53125,0.21875 h 0.21875 c 0.09375,-0.015625 0.109375,-0.0625 0.109375,-0.09375 0,-0.03125 -0.03125,-0.0625 -0.0625,-0.09375 C 5.3125,-0.1875 5.25,-0.34375 5.1875,-0.53125 L 3.15625,-6.203125 c -0.21875,-0.578125 -0.75,-0.71875 -1.21875,-0.71875 -0.046875,0 -0.1875,0 -0.1875,0.109375 0,0.078125 0.078125,0.109375 0.09375,0.109375 C 2.171875,-6.65625 2.25,-6.59375 2.5,-5.90625 l 0.953125,2.703125 -2.75,2.734375 c -0.109375,0.125 -0.171875,0.171875 -0.171875,0.3125 0,0.171875 0.140625,0.28125 0.296875,0.28125 0.15625,0 0.25,-0.109375 0.328125,-0.203125 z m 0,0"
   id="id-913d23eb-eeda-48bb-90f2-df6ba3e0a846" />
      </g></g>
  </g>
</g><g
       transform="matrix(0.90804304,0,0,-0.90804304,370.83818,557.11982)"
       ns12:version="1.2.0"
       ns12:texconverter="pdflatex"
       ns12:pdfconverter="inkscape"
       ns12:text="$R_{2}=2 D^{2} \lambda$
"
       ns12:preamble="/Users/hasanabbas/Library/Application Support/org.inkscape.Inkscape/config/inkscape/extensions/circuitSymbols/circuitSymbolsPreamble.tex"
       ns12:scale="1.0"
       ns12:alignment="middle center"
       ns12:inkscapeversion="1.0.2"
       ns12:jacobian_sqrt="1.33333"
       id="g1604"><defs
   id="id-371964f4-36d6-450e-93ec-c98fdba2f661">
    <g
   id="id-91f4d6f7-b023-4b42-adbb-a6818dcfca23">
      <symbol
   overflow="visible"
   id="id-710347a3-6f89-432b-ab46-364df4caac09">
        <path
   style="stroke:none;stroke-width:0"
   d=""
   id="id-f5819b07-3477-429e-8db0-139d3a2e43b6" />
      </symbol>
      <symbol
   overflow="visible"
   id="id-737c71c2-6b0f-4bc1-9a27-94ee97011474">
        <path
   style="stroke:none;stroke-width:0"
   d="m 3.734375,-6.125 c 0.0625,-0.234375 0.09375,-0.328125 0.28125,-0.359375 C 4.109375,-6.5 4.421875,-6.5 4.625,-6.5 c 0.703125,0 1.8125,0 1.8125,0.984375 0,0.34375 -0.15625,1.03125 -0.546875,1.421875 -0.265625,0.25 -0.78125,0.578125 -1.6875,0.578125 H 3.09375 Z m 1.4375,2.734375 c 1.015625,-0.21875 2.1875,-0.921875 2.1875,-1.921875 0,-0.859375 -0.890625,-1.5 -2.203125,-1.5 H 2.328125 c -0.203125,0 -0.296875,0 -0.296875,0.203125 C 2.03125,-6.5 2.125,-6.5 2.3125,-6.5 c 0.015625,0 0.203125,0 0.375,0.015625 0.1875,0.03125 0.265625,0.03125 0.265625,0.171875 0,0.03125 0,0.0625 -0.03125,0.1875 l -1.34375,5.34375 C 1.484375,-0.390625 1.46875,-0.3125 0.671875,-0.3125 0.5,-0.3125 0.40625,-0.3125 0.40625,-0.109375 0.40625,0 0.53125,0 0.546875,0 c 0.28125,0 0.984375,-0.03125 1.25,-0.03125 0.28125,0 1,0.03125 1.28125,0.03125 0.078125,0 0.1875,0 0.1875,-0.203125 0,-0.109375 -0.078125,-0.109375 -0.28125,-0.109375 -0.359375,0 -0.640625,0 -0.640625,-0.171875 0,-0.0625 0.015625,-0.109375 0.03125,-0.171875 l 0.65625,-2.640625 h 1.1875 c 0.90625,0 1.078125,0.5625 1.078125,0.90625 0,0.140625 -0.078125,0.453125 -0.140625,0.6875 C 5.09375,-1.421875 5,-1.0625 5,-0.859375 5,0.21875 6.203125,0.21875 6.328125,0.21875 c 0.84375,0 1.203125,-1 1.203125,-1.140625 0,-0.125 -0.109375,-0.125 -0.125,-0.125 -0.09375,0 -0.109375,0.0625 -0.125,0.140625 C 7.03125,-0.171875 6.59375,0 6.375,0 6.046875,0 5.96875,-0.21875 5.96875,-0.609375 c 0,-0.3125 0.0625,-0.8125 0.109375,-1.140625 0.015625,-0.140625 0.03125,-0.328125 0.03125,-0.46875 0,-0.765625 -0.671875,-1.078125 -0.9375,-1.171875 z m 0,0"
   id="id-53792589-08b0-4dfa-8484-2add8dd47b29" />
      </symbol>
      <symbol
   overflow="visible"
   id="id-93a92cb7-f362-48b7-a0c0-2171340f1a72">
        <path
   style="stroke:none;stroke-width:0"
   d="m 1.578125,-0.78125 c -0.09375,0.390625 -0.109375,0.46875 -0.90625,0.46875 -0.15625,0 -0.265625,0 -0.265625,0.1875 C 0.40625,0 0.484375,0 0.671875,0 h 3.3125 c 2.0625,0 4.03125,-2.109375 4.03125,-4.28125 0,-1.40625 -0.84375,-2.53125 -2.34375,-2.53125 h -3.34375 c -0.1875,0 -0.296875,0 -0.296875,0.1875 0,0.125 0.078125,0.125 0.28125,0.125 0.125,0 0.3125,0.015625 0.421875,0.015625 0.171875,0.03125 0.21875,0.046875 0.21875,0.171875 0,0.03125 0,0.0625 -0.03125,0.1875 z M 3.734375,-6.125 C 3.828125,-6.46875 3.84375,-6.5 4.28125,-6.5 h 1.0625 c 0.96875,0 1.796875,0.53125 1.796875,1.84375 0,0.484375 -0.1875,2.125 -1.046875,3.21875 -0.28125,0.375 -1.0625,1.125 -2.296875,1.125 h -1.125 c -0.140625,0 -0.15625,0 -0.21875,0 -0.09375,-0.015625 -0.125,-0.03125 -0.125,-0.109375 0,-0.03125 0,-0.046875 0.046875,-0.21875 z m 0,0"
   id="id-0a345fe8-8f4a-4910-87c9-2acc56f78ae4" />
      </symbol>
      <symbol
   overflow="visible"
   id="id-9d2790a9-9396-4051-ad70-d6f911cc8ebf">
        <path
   style="stroke:none;stroke-width:0"
   d="m 3.5625,-2.90625 c 0.40625,1.046875 0.890625,2.5625 1.046875,2.796875 0.15625,0.21875 0.25,0.21875 0.53125,0.21875 h 0.21875 c 0.09375,-0.015625 0.109375,-0.0625 0.109375,-0.09375 0,-0.03125 -0.03125,-0.0625 -0.0625,-0.09375 C 5.3125,-0.1875 5.25,-0.34375 5.1875,-0.53125 L 3.15625,-6.203125 c -0.21875,-0.578125 -0.75,-0.71875 -1.21875,-0.71875 -0.046875,0 -0.1875,0 -0.1875,0.109375 0,0.078125 0.078125,0.109375 0.09375,0.109375 C 2.171875,-6.65625 2.25,-6.59375 2.5,-5.90625 l 0.953125,2.703125 -2.75,2.734375 c -0.109375,0.125 -0.171875,0.171875 -0.171875,0.3125 0,0.171875 0.140625,0.28125 0.296875,0.28125 0.15625,0 0.25,-0.109375 0.328125,-0.203125 z m 0,0"
   id="id-02621c0a-a074-448c-84d3-dc3cba6954b6" />
      </symbol>
      <symbol
   overflow="visible"
   id="id-0cfc9d76-0ca2-4539-a3e1-41c227fa01e1">
        <path
   style="stroke:none;stroke-width:0"
   d=""
   id="id-35f63a75-cf96-47cf-8c30-7c2af574d77f" />
      </symbol>
      <symbol
   overflow="visible"
   id="id-29290f65-9071-4de9-90fe-15076a233a1e">
        <path
   style="stroke:none;stroke-width:0"
   d="M 3.515625,-1.265625 H 3.28125 c -0.015625,0.15625 -0.09375,0.5625 -0.1875,0.625 C 3.046875,-0.59375 2.515625,-0.59375 2.40625,-0.59375 H 1.125 c 0.734375,-0.640625 0.984375,-0.84375 1.390625,-1.171875 0.515625,-0.40625 1,-0.84375 1,-1.5 0,-0.84375 -0.734375,-1.359375 -1.625,-1.359375 -0.859375,0 -1.453125,0.609375 -1.453125,1.25 0,0.34375 0.296875,0.390625 0.375,0.390625 0.15625,0 0.359375,-0.125 0.359375,-0.375 0,-0.125 -0.046875,-0.375 -0.40625,-0.375 C 0.984375,-4.21875 1.453125,-4.375 1.78125,-4.375 c 0.703125,0 1.0625,0.546875 1.0625,1.109375 0,0.609375 -0.4375,1.078125 -0.65625,1.328125 L 0.515625,-0.265625 C 0.4375,-0.203125 0.4375,-0.1875 0.4375,0 h 2.875 z m 0,0"
   id="id-e41d551a-e3b5-4e72-93ef-e523b98d267b" />
      </symbol>
      <symbol
   overflow="visible"
   id="id-49583a4b-5f76-4975-b8de-c726eef22467">
        <path
   style="stroke:none;stroke-width:0"
   d=""
   id="id-cc4df7fe-5acb-4ae2-8172-a295f43f0fa9" />
      </symbol>
      <symbol
   overflow="visible"
   id="id-538b8c42-dbc7-46bf-8e5a-e73dad6917be">
        <path
   style="stroke:none;stroke-width:0"
   d="m 6.84375,-3.265625 c 0.15625,0 0.34375,0 0.34375,-0.1875 C 7.1875,-3.65625 7,-3.65625 6.859375,-3.65625 h -5.96875 c -0.140625,0 -0.328125,0 -0.328125,0.203125 0,0.1875 0.1875,0.1875 0.328125,0.1875 z m 0.015625,1.9375 c 0.140625,0 0.328125,0 0.328125,-0.203125 0,-0.1875 -0.1875,-0.1875 -0.34375,-0.1875 H 0.890625 c -0.140625,0 -0.328125,0 -0.328125,0.1875 0,0.203125 0.1875,0.203125 0.328125,0.203125 z m 0,0"
   id="id-83f120bf-a946-4d69-9eb3-ac281c1ec1f7" />
      </symbol>
      <symbol
   overflow="visible"
   id="id-aae2aed8-112e-4591-be63-e80c35fcf9cb">
        <path
   style="stroke:none;stroke-width:0"
   d="m 1.265625,-0.765625 1.0625,-1.03125 c 1.546875,-1.375 2.140625,-1.90625 2.140625,-2.90625 0,-1.140625 -0.890625,-1.9375 -2.109375,-1.9375 -1.125,0 -1.859375,0.921875 -1.859375,1.8125 0,0.546875 0.5,0.546875 0.53125,0.546875 0.171875,0 0.515625,-0.109375 0.515625,-0.53125 0,-0.25 -0.1875,-0.515625 -0.53125,-0.515625 -0.078125,0 -0.09375,0 -0.125,0.015625 0.21875,-0.65625 0.765625,-1.015625 1.34375,-1.015625 0.90625,0 1.328125,0.8125 1.328125,1.625 C 3.5625,-3.90625 3.078125,-3.125 2.515625,-2.5 l -1.90625,2.125 C 0.5,-0.265625 0.5,-0.234375 0.5,0 H 4.203125 L 4.46875,-1.734375 H 4.234375 C 4.171875,-1.4375 4.109375,-1 4,-0.84375 3.9375,-0.765625 3.28125,-0.765625 3.0625,-0.765625 Z m 0,0"
   id="id-9b45a950-7ff5-428b-a39a-dc5fc71e963b" />
      </symbol>
    </g>
  </defs>
  <g
   id="id-31c06fdd-5a96-42a0-bd04-724c2ae5446e"
   transform="translate(-149.118,-126.524)">
    <g
   style="fill:#000000;fill-opacity:1"
   id="id-5d65d595-ee51-49cf-8089-7b02d468b7e3">
      <g
   transform="translate(148.712,134.765)"
   id="g1576"><path
   style="stroke:none;stroke-width:0"
   d="m 3.734375,-6.125 c 0.0625,-0.234375 0.09375,-0.328125 0.28125,-0.359375 C 4.109375,-6.5 4.421875,-6.5 4.625,-6.5 c 0.703125,0 1.8125,0 1.8125,0.984375 0,0.34375 -0.15625,1.03125 -0.546875,1.421875 -0.265625,0.25 -0.78125,0.578125 -1.6875,0.578125 H 3.09375 Z m 1.4375,2.734375 c 1.015625,-0.21875 2.1875,-0.921875 2.1875,-1.921875 0,-0.859375 -0.890625,-1.5 -2.203125,-1.5 H 2.328125 c -0.203125,0 -0.296875,0 -0.296875,0.203125 C 2.03125,-6.5 2.125,-6.5 2.3125,-6.5 c 0.015625,0 0.203125,0 0.375,0.015625 0.1875,0.03125 0.265625,0.03125 0.265625,0.171875 0,0.03125 0,0.0625 -0.03125,0.1875 l -1.34375,5.34375 C 1.484375,-0.390625 1.46875,-0.3125 0.671875,-0.3125 0.5,-0.3125 0.40625,-0.3125 0.40625,-0.109375 0.40625,0 0.53125,0 0.546875,0 c 0.28125,0 0.984375,-0.03125 1.25,-0.03125 0.28125,0 1,0.03125 1.28125,0.03125 0.078125,0 0.1875,0 0.1875,-0.203125 0,-0.109375 -0.078125,-0.109375 -0.28125,-0.109375 -0.359375,0 -0.640625,0 -0.640625,-0.171875 0,-0.0625 0.015625,-0.109375 0.03125,-0.171875 l 0.65625,-2.640625 h 1.1875 c 0.90625,0 1.078125,0.5625 1.078125,0.90625 0,0.140625 -0.078125,0.453125 -0.140625,0.6875 C 5.09375,-1.421875 5,-1.0625 5,-0.859375 5,0.21875 6.203125,0.21875 6.328125,0.21875 c 0.84375,0 1.203125,-1 1.203125,-1.140625 0,-0.125 -0.109375,-0.125 -0.125,-0.125 -0.09375,0 -0.109375,0.0625 -0.125,0.140625 C 7.03125,-0.171875 6.59375,0 6.375,0 6.046875,0 5.96875,-0.21875 5.96875,-0.609375 c 0,-0.3125 0.0625,-0.8125 0.109375,-1.140625 0.015625,-0.140625 0.03125,-0.328125 0.03125,-0.46875 0,-0.765625 -0.671875,-1.078125 -0.9375,-1.171875 z m 0,0"
   id="id-64fa1786-8413-4482-82c3-6e65910ca2bc" />
      </g></g>
    <g
   style="fill:#000000;fill-opacity:1"
   id="id-ced76fbc-49ad-43ef-a644-f9d3ca41d64e">
      <g
   transform="translate(156.277,136.259)"
   id="g1580"><path
   style="stroke:none;stroke-width:0"
   d="M 3.515625,-1.265625 H 3.28125 c -0.015625,0.15625 -0.09375,0.5625 -0.1875,0.625 C 3.046875,-0.59375 2.515625,-0.59375 2.40625,-0.59375 H 1.125 c 0.734375,-0.640625 0.984375,-0.84375 1.390625,-1.171875 0.515625,-0.40625 1,-0.84375 1,-1.5 0,-0.84375 -0.734375,-1.359375 -1.625,-1.359375 -0.859375,0 -1.453125,0.609375 -1.453125,1.25 0,0.34375 0.296875,0.390625 0.375,0.390625 0.15625,0 0.359375,-0.125 0.359375,-0.375 0,-0.125 -0.046875,-0.375 -0.40625,-0.375 C 0.984375,-4.21875 1.453125,-4.375 1.78125,-4.375 c 0.703125,0 1.0625,0.546875 1.0625,1.109375 0,0.609375 -0.4375,1.078125 -0.65625,1.328125 L 0.515625,-0.265625 C 0.4375,-0.203125 0.4375,-0.1875 0.4375,0 h 2.875 z m 0,0"
   id="id-22a4ff32-380a-45e2-9cbe-a475f1297b53" />
      </g></g>
    <g
   style="fill:#000000;fill-opacity:1"
   id="id-901c3cc1-d234-474c-b246-bdbf184061f3">
      <g
   transform="translate(163.514,134.765)"
   id="g1584"><path
   style="stroke:none;stroke-width:0"
   d="m 6.84375,-3.265625 c 0.15625,0 0.34375,0 0.34375,-0.1875 C 7.1875,-3.65625 7,-3.65625 6.859375,-3.65625 h -5.96875 c -0.140625,0 -0.328125,0 -0.328125,0.203125 0,0.1875 0.1875,0.1875 0.328125,0.1875 z m 0.015625,1.9375 c 0.140625,0 0.328125,0 0.328125,-0.203125 0,-0.1875 -0.1875,-0.1875 -0.34375,-0.1875 H 0.890625 c -0.140625,0 -0.328125,0 -0.328125,0.1875 0,0.203125 0.1875,0.203125 0.328125,0.203125 z m 0,0"
   id="id-80f2502c-6e39-404e-b634-1c67ca7a22d5" />
      </g></g>
    <g
   style="fill:#000000;fill-opacity:1"
   id="id-84170815-0735-4618-b90c-330346b66141">
      <g
   transform="translate(174.033,134.765)"
   id="g1588"><path
   style="stroke:none;stroke-width:0"
   d="m 1.265625,-0.765625 1.0625,-1.03125 c 1.546875,-1.375 2.140625,-1.90625 2.140625,-2.90625 0,-1.140625 -0.890625,-1.9375 -2.109375,-1.9375 -1.125,0 -1.859375,0.921875 -1.859375,1.8125 0,0.546875 0.5,0.546875 0.53125,0.546875 0.171875,0 0.515625,-0.109375 0.515625,-0.53125 0,-0.25 -0.1875,-0.515625 -0.53125,-0.515625 -0.078125,0 -0.09375,0 -0.125,0.015625 0.21875,-0.65625 0.765625,-1.015625 1.34375,-1.015625 0.90625,0 1.328125,0.8125 1.328125,1.625 C 3.5625,-3.90625 3.078125,-3.125 2.515625,-2.5 l -1.90625,2.125 C 0.5,-0.265625 0.5,-0.234375 0.5,0 H 4.203125 L 4.46875,-1.734375 H 4.234375 C 4.171875,-1.4375 4.109375,-1 4,-0.84375 3.9375,-0.765625 3.28125,-0.765625 3.0625,-0.765625 Z m 0,0"
   id="id-d6ea1738-2c11-482a-966e-b646c21b9fd8" />
      </g></g>
    <g
   style="fill:#000000;fill-opacity:1"
   id="id-65b4a298-41c9-449d-a30b-8663f7e96053">
      <g
   transform="translate(179.011,134.765)"
   id="g1592"><path
   style="stroke:none;stroke-width:0"
   d="m 1.578125,-0.78125 c -0.09375,0.390625 -0.109375,0.46875 -0.90625,0.46875 -0.15625,0 -0.265625,0 -0.265625,0.1875 C 0.40625,0 0.484375,0 0.671875,0 h 3.3125 c 2.0625,0 4.03125,-2.109375 4.03125,-4.28125 0,-1.40625 -0.84375,-2.53125 -2.34375,-2.53125 h -3.34375 c -0.1875,0 -0.296875,0 -0.296875,0.1875 0,0.125 0.078125,0.125 0.28125,0.125 0.125,0 0.3125,0.015625 0.421875,0.015625 0.171875,0.03125 0.21875,0.046875 0.21875,0.171875 0,0.03125 0,0.0625 -0.03125,0.1875 z M 3.734375,-6.125 C 3.828125,-6.46875 3.84375,-6.5 4.28125,-6.5 h 1.0625 c 0.96875,0 1.796875,0.53125 1.796875,1.84375 0,0.484375 -0.1875,2.125 -1.046875,3.21875 -0.28125,0.375 -1.0625,1.125 -2.296875,1.125 h -1.125 c -0.140625,0 -0.15625,0 -0.21875,0 -0.09375,-0.015625 -0.125,-0.03125 -0.125,-0.109375 0,-0.03125 0,-0.046875 0.046875,-0.21875 z m 0,0"
   id="id-1b52c9fc-2c7b-4158-9ec5-dd5600da7c23" />
      </g></g>
    <g
   style="fill:#000000;fill-opacity:1"
   id="id-b634c394-cf81-4400-8188-8ac23a4ef1e0">
      <g
   transform="translate(187.536,131.149)"
   id="g1596"><path
   style="stroke:none;stroke-width:0"
   d="M 3.515625,-1.265625 H 3.28125 c -0.015625,0.15625 -0.09375,0.5625 -0.1875,0.625 C 3.046875,-0.59375 2.515625,-0.59375 2.40625,-0.59375 H 1.125 c 0.734375,-0.640625 0.984375,-0.84375 1.390625,-1.171875 0.515625,-0.40625 1,-0.84375 1,-1.5 0,-0.84375 -0.734375,-1.359375 -1.625,-1.359375 -0.859375,0 -1.453125,0.609375 -1.453125,1.25 0,0.34375 0.296875,0.390625 0.375,0.390625 0.15625,0 0.359375,-0.125 0.359375,-0.375 0,-0.125 -0.046875,-0.375 -0.40625,-0.375 C 0.984375,-4.21875 1.453125,-4.375 1.78125,-4.375 c 0.703125,0 1.0625,0.546875 1.0625,1.109375 0,0.609375 -0.4375,1.078125 -0.65625,1.328125 L 0.515625,-0.265625 C 0.4375,-0.203125 0.4375,-0.1875 0.4375,0 h 2.875 z m 0,0"
   id="id-6bec40b6-78a4-41e4-824b-ef23f9862b2e" />
      </g></g>
    <g
   style="fill:#000000;fill-opacity:1"
   id="id-fef2fd70-f9eb-4a34-9268-ae4e9ccfd960">
      <g
   transform="translate(192.005,134.765)"
   id="g1600"><path
   style="stroke:none;stroke-width:0"
   d="m 3.5625,-2.90625 c 0.40625,1.046875 0.890625,2.5625 1.046875,2.796875 0.15625,0.21875 0.25,0.21875 0.53125,0.21875 h 0.21875 c 0.09375,-0.015625 0.109375,-0.0625 0.109375,-0.09375 0,-0.03125 -0.03125,-0.0625 -0.0625,-0.09375 C 5.3125,-0.1875 5.25,-0.34375 5.1875,-0.53125 L 3.15625,-6.203125 c -0.21875,-0.578125 -0.75,-0.71875 -1.21875,-0.71875 -0.046875,0 -0.1875,0 -0.1875,0.109375 0,0.078125 0.078125,0.109375 0.09375,0.109375 C 2.171875,-6.65625 2.25,-6.59375 2.5,-5.90625 l 0.953125,2.703125 -2.75,2.734375 c -0.109375,0.125 -0.171875,0.171875 -0.171875,0.3125 0,0.171875 0.140625,0.28125 0.296875,0.28125 0.15625,0 0.25,-0.109375 0.328125,-0.203125 z m 0,0"
   id="id-7489f5ca-7463-4e5e-ad29-1e3dc12eb266" />
      </g></g>
  </g>
</g><g
       id="g6827"
       transform="rotate(90,-90.28102,373.829)"><path
         d="M 0,154.07578 V -83.88 M 15.62,154.07578 V -83.25 m 69.8,237.32578 V -82.31"
         style="fill:none;stroke:#000000;stroke-width:0.5;stroke-linecap:butt;stroke-linejoin:miter;stroke-miterlimit:4;stroke-dasharray:5, 3;stroke-dashoffset:0;stroke-opacity:1"
         id="path6829"
         sodipodi:nodetypes="cccccc" /></g><g
       id="g6807"
       transform="rotate(90,-111.68102,357.529)"><path
         d="m 0,0 c 0,-21.32 -1.859,-38.61 -4.152,-38.61 -2.294,0 -4.153,17.29 -4.153,38.61 0,21.32 1.859,38.61 4.153,38.61 C -1.859,38.61 0,21.32 0,0 Z"
         style="fill:url(#radialGradient8008);fill-opacity:1;stroke:#000000;stroke-width:0.5;stroke-linecap:butt;stroke-linejoin:miter;stroke-miterlimit:4;stroke-dasharray:none;stroke-opacity:1"
         id="path6809" /></g><text
       xml:space="preserve"
       style="font-style:normal;font-variant:normal;font-weight:normal;font-stretch:normal;font-size:8px;line-height:0.85;font-family:'CMU Serif';-inkscape-font-specification:'CMU Serif, Normal';font-variant-ligatures:normal;font-variant-caps:normal;font-variant-numeric:normal;font-variant-east-asian:normal;stroke-width:0.75"
       x="129.02705"
       y="-472.3754"
       id="text1734"
       transform="scale(1,-1)"><tspan
         sodipodi:role="line"
         id="tspan1740"
         x="129.02705"
         y="-472.3754">Reactive Near-Field</tspan><tspan
         sodipodi:role="line"
         id="tspan1742"
         x="129.02705"
         y="-465.57541">Region</tspan></text></g></svg>
