<?xml version="1.0" encoding="UTF-8" standalone="no"?>
<!-- Created with Inkscape (http://www.inkscape.org/) -->

<svg
   width="70.399323mm"
   height="71.545769mm"
   viewBox="0 0 70.399322 71.545769"
   version="1.1"
   id="svg2088"
   inkscape:version="1.1 (c4e8f9e, 2021-05-24)"
   sodipodi:docname="nitrogen.pdf.svg"
   xmlns:inkscape="http://www.inkscape.org/namespaces/inkscape"
   xmlns:sodipodi="http://sodipodi.sourceforge.net/DTD/sodipodi-0.dtd"
   xmlns="http://www.w3.org/2000/svg"
   xmlns:svg="http://www.w3.org/2000/svg">
  <sodipodi:namedview
     id="namedview2090"
     pagecolor="#ffffff"
     bordercolor="#666666"
     borderopacity="1.0"
     inkscape:pageshadow="2"
     inkscape:pageopacity="0.0"
     inkscape:pagecheckerboard="0"
     inkscape:document-units="mm"
     showgrid="false"
     fit-margin-top="0"
     fit-margin-left="0"
     fit-margin-right="0"
     fit-margin-bottom="0"
     inkscape:zoom="2.134505"
     inkscape:cx="88.779366"
     inkscape:cy="164.90943"
     inkscape:current-layer="layer1" />
  <defs
     id="defs2085">
    <clipPath
       clipPathUnits="userSpaceOnUse"
       id="clipPath890">
      <path
         d="m 246.42,565.92 h 6.84 v 11.16 h -6.84 z"
         id="path888" />
    </clipPath>
    <clipPath
       clipPathUnits="userSpaceOnUse"
       id="clipPath906">
      <path
         d="m 387.54,565.92 h 3.24 v 1.26 h -3.24 z"
         id="path904" />
    </clipPath>
    <clipPath
       clipPathUnits="userSpaceOnUse"
       id="clipPath21726">
      <path
         d="m 239.58,195.48 h 5.22 v 1.26 h -5.22 z"
         id="path21724" />
    </clipPath>
    <clipPath
       clipPathUnits="userSpaceOnUse"
       id="clipPath21742">
      <path
         d="m 316.62,195.48 h 5.4 v 7.74 h -5.4 z"
         id="path21740" />
    </clipPath>
    <clipPath
       clipPathUnits="userSpaceOnUse"
       id="clipPath21754">
      <path
         d="m 321.48,195.48 h 0.54 v 0.9 h -0.54 z"
         id="path21752" />
    </clipPath>
  </defs>
  <g
     inkscape:label="Layer 1"
     inkscape:groupmode="layer"
     id="layer1"
     transform="translate(-169.45158,-186.64711)">
    <text
       style="font-style:normal;font-variant:normal;font-weight:500;font-stretch:normal;font-size:3.318px;font-family:'CMU Serif';-inkscape-font-specification:'CMU Serif, Medium';font-variant-ligatures:normal;font-variant-caps:normal;font-variant-numeric:normal;font-variant-east-asian:normal;writing-mode:lr-tb;fill:#000000;fill-opacity:1;fill-rule:nonzero;stroke:none;stroke-width:0.352778"
       id="text860"
       x="184.1729"
       y="225.5529"><tspan
         x="184.1729 196.87292 209.57294 222.33624 235.03627"
         y="225.5529"
         sodipodi:role="line"
         id="tspan858"
         style="font-style:normal;font-variant:normal;font-weight:500;font-stretch:normal;font-size:3.318px;font-family:'CMU Serif';-inkscape-font-specification:'CMU Serif, Medium';font-variant-ligatures:normal;font-variant-caps:normal;font-variant-numeric:normal;font-variant-east-asian:normal;stroke-width:0.352778">01234</tspan></text>
    <g
       id="g862"
       transform="matrix(0.37778971,0,0,0.32942388,98.003407,422.4029)">
      <path
         d="m 230.101,-606.249 v -2.121 m 16.808,2.121 v -0.964 m 16.808,0.964 v -2.121 m 16.976,2.121 v -0.964 m 16.808,0.964 v -2.121 m 16.807,2.121 v -0.964 m 16.808,0.964 v -2.121 m 16.808,2.121 v -0.964 m 16.976,0.964 v -2.121 m -134.799,2.121 H 364.9 M 230.101,-715.162 v 0 m 16.808,0 v 0 m 16.808,0 v 0 m 16.976,0 v 0 m 16.808,0 v 0 m 16.807,0 v 0 m 16.808,0 v 0 m 16.808,0 v 0 m 16.976,0 v 0 m -134.799,0 H 364.9"
         style="fill:none;stroke:#a1a1a1;stroke-width:0.997792;stroke-linecap:round;stroke-linejoin:round;stroke-miterlimit:10;stroke-dasharray:none;stroke-opacity:1"
         id="path864" />
    </g>
    <text
       style="font-style:normal;font-variant:normal;font-weight:500;font-stretch:normal;font-size:3.318px;font-family:'CMU Serif';-inkscape-font-specification:'CMU Serif, Medium';font-variant-ligatures:normal;font-variant-caps:normal;font-variant-numeric:normal;font-variant-east-asian:normal;writing-mode:lr-tb;fill:#000000;fill-opacity:1;fill-rule:nonzero;stroke:none;stroke-width:0.352778"
       id="text878"
       x="180.1089"
       y="223.4574"><tspan
         x="180.1089 181.69627 182.45815"
         y="223.4574"
         sodipodi:role="line"
         id="tspan866"
         style="font-style:normal;font-variant:normal;font-weight:500;font-stretch:normal;font-size:3.318px;font-family:'CMU Serif';-inkscape-font-specification:'CMU Serif, Medium';font-variant-ligatures:normal;font-variant-caps:normal;font-variant-numeric:normal;font-variant-east-asian:normal;stroke-width:0.352778">0.0</tspan><tspan
         x="180.1089 181.69627 182.45815"
         y="216.66287"
         sodipodi:role="line"
         id="tspan868"
         style="font-style:normal;font-variant:normal;font-weight:500;font-stretch:normal;font-size:3.318px;font-family:'CMU Serif';-inkscape-font-specification:'CMU Serif, Medium';font-variant-ligatures:normal;font-variant-caps:normal;font-variant-numeric:normal;font-variant-east-asian:normal;stroke-width:0.352778">0.2</tspan><tspan
         x="180.1089 181.69627 182.45815"
         y="209.80502"
         sodipodi:role="line"
         id="tspan870"
         style="font-style:normal;font-variant:normal;font-weight:500;font-stretch:normal;font-size:3.318px;font-family:'CMU Serif';-inkscape-font-specification:'CMU Serif, Medium';font-variant-ligatures:normal;font-variant-caps:normal;font-variant-numeric:normal;font-variant-east-asian:normal;stroke-width:0.352778">0.4</tspan><tspan
         x="180.1089 181.69627 182.45815"
         y="202.9472"
         sodipodi:role="line"
         id="tspan872"
         style="font-style:normal;font-variant:normal;font-weight:500;font-stretch:normal;font-size:3.318px;font-family:'CMU Serif';-inkscape-font-specification:'CMU Serif, Medium';font-variant-ligatures:normal;font-variant-caps:normal;font-variant-numeric:normal;font-variant-east-asian:normal;stroke-width:0.352778">0.6</tspan><tspan
         x="180.1089 181.69627 182.45815"
         y="196.15265"
         sodipodi:role="line"
         id="tspan874"
         style="font-style:normal;font-variant:normal;font-weight:500;font-stretch:normal;font-size:3.318px;font-family:'CMU Serif';-inkscape-font-specification:'CMU Serif, Medium';font-variant-ligatures:normal;font-variant-caps:normal;font-variant-numeric:normal;font-variant-east-asian:normal;stroke-width:0.352778">0.8</tspan><tspan
         x="180.1089 181.69627 182.45815"
         y="189.29483"
         sodipodi:role="line"
         id="tspan876"
         style="font-style:normal;font-variant:normal;font-weight:500;font-stretch:normal;font-size:3.318px;font-family:'CMU Serif';-inkscape-font-specification:'CMU Serif, Medium';font-variant-ligatures:normal;font-variant-caps:normal;font-variant-numeric:normal;font-variant-east-asian:normal;stroke-width:0.352778">1.0</tspan></text>
    <g
       id="g880"
       transform="matrix(0.37778971,0,0,0.32942388,98.003407,422.4029)">
      <path
         d="m 230.101,-606.249 h 2.185 m -2.185,-10.41 h 1.008 m -1.008,-10.216 h 2.185 m -2.185,-10.41 h 1.008 m -1.008,-10.409 h 2.185 m -2.185,-10.409 h 1.008 m -1.008,-10.41 h 2.185 m -2.185,-10.409 h 1.008 m -1.008,-10.409 h 2.185 m -2.185,-10.41 h 1.008 m -1.008,-10.216 h 2.185 m -2.185,103.708 V -715.162 M 364.9,-606.249 v 0 m 0,-10.41 v 0 m 0,-10.216 v 0 m 0,-10.41 v 0 m 0,-10.409 v 0 m 0,-10.409 v 0 m 0,-10.41 v 0 m 0,-10.409 v 0 m 0,-10.409 v 0 m 0,-10.41 v 0 m 0,-10.216 v 0 m 0,103.708 v -108.913"
         style="fill:none;stroke:#a1a1a1;stroke-width:0.997792;stroke-linecap:round;stroke-linejoin:round;stroke-miterlimit:10;stroke-dasharray:none;stroke-opacity:1"
         id="path882" />
    </g>
    <g
       id="g884"
       transform="matrix(0.35277777,0,0,-0.35277777,98.003407,422.4029)"
       style="stroke:#ff0000;stroke-opacity:1">
      <g
         id="g886"
         clip-path="url(#clipPath890)"
         style="stroke:#ff0000;stroke-opacity:1">
        <g
           id="g892"
           transform="scale(1.0709,-0.9338)"
           style="stroke:#ff0000;stroke-opacity:1" />
      </g>
    </g>
    <g
       id="g896"
       transform="matrix(0.37778971,0,0,0.32942388,98.003407,422.4029)">
      <path
         id="path898"
         style="fill:none;stroke:#ff0000;stroke-width:0.555;stroke-linecap:round;stroke-linejoin:round;stroke-miterlimit:10;stroke-dasharray:none;stroke-opacity:1"
         d="m 235.815,-617.43 c 0.33688,-1.16412 0.69823,-2.30377 0.841,-3.662 0.52291,-1.03982 0.46162,-2.89831 1.008,-3.856 0.0707,-1.96961 0.79746,-3.88295 1.009,-5.783 0.33936,-1.68378 0.6892,-2.85798 0.84,-4.433 0.52304,-1.04005 0.46133,-2.89929 1.009,-3.856 0.0731,-1.95996 0.82061,-3.99475 1.008,-5.782 0.38233,-1.39363 0.67521,-2.76264 0.84,-4.241 0.47534,-1.14091 0.53121,-2.70129 0.841,-4.00776 0.34936,-1.29372 0.26638,-3.01978 0.84,-4.08924 0.10961,-1.58406 0.43427,-2.95307 0.841,-4.24 0.16247,-1.45345 0.53932,-2.69252 0.84,-4.00776 0.21856,-1.48852 0.51878,-2.89538 0.84,-4.28124 0.1109,-1.82865 0.58534,-3.12563 0.841,-4.97176 0.25425,-1.32449 0.65746,-2.50003 0.84,-3.89624 0.50269,-0.98154 0.61115,-2.17942 1.009,-3.42876 0.34505,-1.09669 0.51571,-2.36778 1.008,-3.31724 0.17363,-1.55014 0.78801,-2.40354 1.177,-4.048 0.35396,-1.12529 0.75148,-2.20702 1.008,-3.42976 0.37171,-0.95517 0.8235,-2.16023 1.177,-3.12424 0.51956,-0.69436 0.85757,-1.57027 1.176,-2.46576 0.45941,-0.80925 0.73683,-2.03851 1.177,-3.084 0.31604,-0.98903 0.7671,-1.84306 1.176,-2.73924 0.54885,-0.71849 0.84159,-1.69308 1.681,-2.121 0.64172,-0.66495 1.6599,-0.95343 2.185,-1.735 0.28488,-1.49431 2.56909,0.10378 3.026,-1.156 0.39328,-0.79968 1.95072,-1.14116 2.017,0.192 0.73937,0.52763 1.10831,1.42569 1.68,2.121 0.78608,0.41659 0.92781,1.47752 1.681,1.927 0.22107,0.6386 0.60583,0.88697 0.841,1.35 m 0,0 c 0.66944,0.47723 0.92826,1.36507 1.512,1.928 0.40219,0.81714 0.98562,1.45305 1.345,2.313 0.41291,0.75043 0.86551,1.46115 1.177,2.313 0.41275,0.75025 0.86559,1.46041 1.176,2.313 0.49057,0.80976 0.72035,1.88032 1.009,2.892 0.49359,1.12874 0.67991,2.56426 1.176,3.469 0.25514,1.10896 0.9737,1.69824 1.345,2.506 0.49889,0.70903 0.915,1.7859 1.176,2.699 0.41013,0.80379 0.84372,1.58412 1.177,2.46476 0.5049,0.73618 0.88278,1.59937 1.176,2.54724 0.41123,0.80269 0.843,1.58484 1.177,2.46476 0.62923,0.44148 0.57122,1.89268 1.177,2.35424 0.2073,1.49747 0.6889,2.45594 0.84,3.855 0.41404,0.85187 0.40609,2.41803 1.176,2.892 0.74721,0.67109 2.27165,-0.39333 2.858,0.964 0.91194,0.46702 1.74449,1.08399 2.185,1.927 0.59051,0.67716 1.02504,1.39773 1.849,2.121 0.71895,0.9137 1.21901,1.72889 2.185,2.12 0.74691,0.73012 1.33166,1.3486 2.017,2.313 0.34036,0.464 0.5324,1.05149 1.008,1.35 m 0,0 c 0.6919,0.87614 1.45139,1.26431 2.185,1.927 0.70855,0.96993 1.2899,1.60911 1.513,2.892 0.49817,0.67515 0.86752,1.69691 1.513,2.313 0.84796,0.3467 1.13319,1.25615 1.849,1.735 0.0818,1.23324 1.5701,1.0599 2.017,1.928 0.57556,0.65177 0.99284,1.46183 1.176,2.506 0.49445,0.66055 0.57192,1.73808 1.345,2.12 0.46267,0.69233 1.07235,1.23765 1.344,2.121 0.40986,0.84328 0.86618,1.79503 1.177,2.65776 0.48077,0.67422 0.99617,1.31382 1.345,2.12 0.53979,0.62321 0.75738,1.56862 1.176,2.313 0.39935,0.90639 0.89708,1.71441 1.177,2.74024 0.52375,0.77592 0.75373,1.84561 1.008,2.891 0.45338,1.24073 0.54952,2.40567 1.009,3.47 0.23831,1.15994 0.5383,2.25821 1.68876,2.506 0.91938,0.2887 1.03524,1.38092 1.50424,2.12 0.35823,0.95196 0.73777,2.06355 1.345,2.699 0.50068,0.75832 1.45945,1.05855 1.849,1.928 0.90718,0.66686 1.15151,1.6103 2.353,2.313 -0.22739,0.41173 0.39413,-0.0255 0.168,0.385 m 0,0 c 0.8618,0.54853 1.7586,1.06207 2.689,1.542 0.9965,0.8295 3.52701,0.12499 4.706,0.772 1.61832,0.31977 3.41184,0.46434 5.23627,0.578 1.73044,0.18797 3.69726,0.13957 5.37024,0.385 1.98159,0.17708 3.41801,-0.0985 5.02549,0.193 1.66018,-0.36166 3.51137,0.29561 5.22751,-0.193 0.62411,-0.39761 0.0591,0.39393 0.48649,0.193 m 0,0 c 1.90513,-0.27459 3.40867,0.19069 5.22851,-0.193 h 0.34476 0.30973 m -132.278,0.579 c 0.86799,-1.30382 2.00841,0.84823 2.185,-0.92376 0.57351,-0.66724 0.66049,-1.821 1.176,-2.54624 0.29945,-1.12921 0.8437,-2.01363 1.009,-3.277 0.60821,-0.77646 0.58419,-2.40179 1.176,-3.277 -0.10845,-0.62935 0.12262,-0.70717 0.168,-1.157" />
    </g>
    <g
       id="g900"
       transform="matrix(0.35277777,0,0,-0.35277777,98.003407,422.4029)">
      <g
         id="g902"
         clip-path="url(#clipPath906)">
        <g
           id="g908"
           transform="scale(1.0709,-0.9338)">
          <path
             d="m 362.379,-606.828 c 0.897,0 1.793,0 2.689,0"
             style="fill:none;stroke:#000000;stroke-width:0.555;stroke-linecap:round;stroke-linejoin:round;stroke-miterlimit:10;stroke-dasharray:none;stroke-opacity:1"
             id="path910" />
        </g>
      </g>
    </g>
    <text
       transform="rotate(-90,2.4622574,0.60188516)"
       style="font-style:normal;font-variant:normal;font-weight:500;font-stretch:normal;font-size:3.318px;font-family:'CMU Serif';-inkscape-font-specification:'CMU Serif, Medium';font-variant-ligatures:normal;font-variant-caps:normal;font-variant-numeric:normal;font-variant-east-asian:normal;writing-mode:lr-tb;white-space:pre;inline-size:39.6642;fill:#000000;fill-opacity:1;fill-rule:nonzero;stroke:none;stroke-width:0.352778"
       id="text914"
       x="-221.36191"
       y="176.4259"
       xml:space="preserve"><tspan
         x="-221.36191"
         y="176.4259"
         id="tspan31058">Normalized Amplitude</tspan></text>
    <text
       style="font-style:normal;font-variant:normal;font-weight:500;font-stretch:normal;font-size:3.318px;font-family:'CMU Serif';-inkscape-font-specification:'CMU Serif, Medium';font-variant-ligatures:normal;font-variant-caps:normal;font-variant-numeric:normal;font-variant-east-asian:normal;writing-mode:lr-tb;white-space:pre;inline-size:29.1241;fill:#000000;fill-opacity:1;fill-rule:nonzero;stroke:none;stroke-width:0.352778"
       id="text918"
       x="195.47591"
       y="231.0139"
       transform="translate(0,-2.5281935)"
       xml:space="preserve"><tspan
         x="195.47591"
         y="231.0139"
         id="tspan31060">Frequency (THz)</tspan></text>
    <text
       style="font-variant:normal;font-weight:normal;font-size:2.83863px;font-family:Times;-inkscape-font-specification:Times-Roman;writing-mode:lr-tb;fill:#000000;fill-opacity:1;fill-rule:nonzero;stroke:none;stroke-width:0.352778"
       id="text21636"
       x="169.36703"
       y="232.75146"><tspan
         x="169.36703 170.7645 171.4523 172.84975 173.53755 174.93501 175.95096 177.6019 178.55426 179.37973 180.77663 181.5439 182.31119 183.32713 184.66072 185.48619 186.88364 187.70911 189.10657 190.37657 191.77403 192.98044"
         y="232.75146"
         sodipodi:role="line"
         id="tspan21632"
         style="stroke-width:0.352778">2,4,6-Trinitrotoluene</tspan><tspan
         x="177.55847 178.51083 180.16177 182.25725 183.90819 184.86055"
         y="235.92648"
         sodipodi:role="line"
         id="tspan21634"
         style="stroke-width:0.352778">(TNT)</tspan></text>
    <g
       id="g21638"
       transform="matrix(0.36022138,0,0,0.34551055,124.98054,319.61946)">
      <path
         d="m 155.658,-218.716 -10.577,6.065 m 10.577,-4.411 -9.167,5.146 m -1.41,-0.735 v 12.314 m 0,0 10.577,6.065 m -9.167,-6.984 9.167,5.33 m 0,1.654 10.577,-6.065 m 0,0 v -12.314 m -1.41,11.395 v -10.66 m 1.41,-0.735 -10.577,-6.065"
         style="fill:none;stroke:#000000;stroke-width:0.518;stroke-linecap:round;stroke-linejoin:round;stroke-miterlimit:10;stroke-dasharray:none;stroke-opacity:1"
         id="path21640" />
    </g>
    <text
       transform="scale(1.0187722,0.98157371)"
       style="font-variant:normal;font-weight:normal;font-size:2.67534px;font-family:Times;-inkscape-font-specification:Times-Roman;writing-mode:lr-tb;fill:#000000;fill-opacity:1;fill-rule:nonzero;stroke:none;stroke-width:0.346277"
       id="text21644"
       x="176.90465"
       y="245.66008"><tspan
         x="176.90465 178.64978"
         y="245.66008"
         sodipodi:role="line"
         id="tspan21642"
         style="stroke-width:0.346277">CH</tspan></text>
    <text
       transform="scale(1.0188369,0.98151135)"
       style="font-variant:normal;font-weight:normal;font-size:2.01219px;font-family:Times;-inkscape-font-specification:Times-Roman;writing-mode:lr-tb;fill:#000000;fill-opacity:1;fill-rule:nonzero;stroke:none;stroke-width:0.346255"
       id="text21648"
       x="180.57065"
       y="246.25795"><tspan
         x="180.57065"
         y="246.25795"
         id="tspan21646"
         style="stroke-width:0.346255">3</tspan></text>
    <g
       id="g21650"
       transform="matrix(0.36022138,0,0,0.34551055,124.98054,319.61946)">
      <path
         d="m 155.658,-218.716 v -7.352"
         style="fill:none;stroke:#000000;stroke-width:0.518;stroke-linecap:round;stroke-linejoin:round;stroke-miterlimit:10;stroke-dasharray:none;stroke-opacity:1"
         id="path21652" />
    </g>
    <text
       transform="scale(1.0187722,0.98157371)"
       style="font-variant:normal;font-weight:normal;font-size:2.67534px;font-family:Times;-inkscape-font-specification:Times-Roman;writing-mode:lr-tb;fill:#000000;fill-opacity:1;fill-rule:nonzero;stroke:none;stroke-width:0.346277"
       id="text21656"
       x="184.07259"
       y="249.41222"><tspan
         x="184.07259 186.06705"
         y="249.41222"
         sodipodi:role="line"
         id="tspan21654"
         style="stroke-width:0.346277">NO</tspan></text>
    <text
       transform="scale(1.0188369,0.98151135)"
       style="font-variant:normal;font-weight:normal;font-size:2.01219px;font-family:Times;-inkscape-font-specification:Times-Roman;writing-mode:lr-tb;fill:#000000;fill-opacity:1;fill-rule:nonzero;stroke:none;stroke-width:0.346255"
       id="text21660"
       x="187.98743"
       y="250.01031"><tspan
         x="187.98743"
         y="250.01031"
         id="tspan21658"
         style="stroke-width:0.346255">2</tspan></text>
    <g
       id="g21662"
       transform="matrix(0.36022138,0,0,0.34551055,124.98054,319.61946)">
      <path
         d="m 166.235,-212.651 6.17,-4.227"
         style="fill:none;stroke:#000000;stroke-width:0.518;stroke-linecap:round;stroke-linejoin:round;stroke-miterlimit:10;stroke-dasharray:none;stroke-opacity:1"
         id="path21664" />
    </g>
    <text
       transform="scale(1.0187722,0.98157371)"
       style="font-variant:normal;font-weight:normal;font-size:2.67534px;font-family:Times;-inkscape-font-specification:Times-Roman;writing-mode:lr-tb;fill:#000000;fill-opacity:1;fill-rule:nonzero;stroke:none;stroke-width:0.346277"
       id="text21668"
       x="166.62021"
       y="249.5416"><tspan
         x="166.62021"
         y="249.5416"
         id="tspan21666"
         style="stroke-width:0.346277">O</tspan></text>
    <text
       transform="scale(1.0188369,0.98151135)"
       style="font-variant:normal;font-weight:normal;font-size:2.01219px;font-family:Times;-inkscape-font-specification:Times-Roman;writing-mode:lr-tb;fill:#000000;fill-opacity:1;fill-rule:nonzero;stroke:none;stroke-width:0.346255"
       id="text21672"
       x="168.54175"
       y="250.13971"><tspan
         x="168.54175"
         y="250.13971"
         id="tspan21670"
         style="stroke-width:0.346255">2</tspan></text>
    <text
       transform="scale(1.0187722,0.98157371)"
       style="font-variant:normal;font-weight:normal;font-size:2.67534px;font-family:Times;-inkscape-font-specification:Times-Roman;writing-mode:lr-tb;fill:#000000;fill-opacity:1;fill-rule:nonzero;stroke:none;stroke-width:0.346277"
       id="text21676"
       x="169.54971"
       y="249.5416"><tspan
         x="169.54971"
         y="249.5416"
         id="tspan21674"
         style="stroke-width:0.346277">N</tspan></text>
    <g
       id="g21678"
       transform="matrix(0.36022138,0,0,0.34551055,124.98054,319.61946)">
      <path
         d="m 145.081,-212.651 -6.346,-4.044"
         style="fill:none;stroke:#000000;stroke-width:0.518;stroke-linecap:round;stroke-linejoin:round;stroke-miterlimit:10;stroke-dasharray:none;stroke-opacity:1"
         id="path21680" />
    </g>
    <text
       transform="scale(1.0187722,0.98157371)"
       style="font-variant:normal;font-weight:normal;font-size:2.67534px;font-family:Times;-inkscape-font-specification:Times-Roman;writing-mode:lr-tb;fill:#000000;fill-opacity:1;fill-rule:nonzero;stroke:none;stroke-width:0.346277"
       id="text21684"
       x="176.84232"
       y="261.76837"><tspan
         x="176.84232 178.77444"
         y="261.76837"
         sodipodi:role="line"
         id="tspan21682"
         style="stroke-width:0.346277">NO</tspan></text>
    <text
       transform="scale(1.0188369,0.98151135)"
       style="font-variant:normal;font-weight:normal;font-size:2.01219px;font-family:Times;-inkscape-font-specification:Times-Roman;writing-mode:lr-tb;fill:#000000;fill-opacity:1;fill-rule:nonzero;stroke:none;stroke-width:0.346255"
       id="text21688"
       x="180.6953"
       y="262.36728"><tspan
         x="180.6953"
         y="262.36728"
         id="tspan21686"
         style="stroke-width:0.346255">2</tspan></text>
    <g
       id="g21690"
       transform="matrix(0.36022138,0,0,0.34551055,124.98054,319.61946)">
      <path
         d="m 155.658,-194.272 v 6.617"
         style="fill:none;stroke:#000000;stroke-width:0.518;stroke-linecap:round;stroke-linejoin:round;stroke-miterlimit:10;stroke-dasharray:none;stroke-opacity:1"
         id="path21692" />
    </g>
    <text
       style="font-variant:normal;font-weight:normal;font-size:2.06128px;font-family:Times;-inkscape-font-specification:Times-Roman;writing-mode:lr-tb;fill:#000000;fill-opacity:1;fill-rule:nonzero;stroke:none;stroke-width:0.352778"
       id="text21696"
       x="211.97554"
       y="253.38898"><tspan
         x="211.97554 213.18201 213.81709 216.99208 218.19855 218.83363 222.00862 223.21509 223.85017 227.02516 228.23163 228.86671 232.0417 233.24815 233.88324 237.05824 238.26471 238.89978"
         y="253.38898"
         sodipodi:role="line"
         id="tspan21694"
         style="stroke-width:0.352778">0.51.01.52.02.53.0</tspan></text>
    <g
       id="g21698"
       transform="matrix(0.39073666,0,0,0.31852305,124.98054,319.61946)">
      <path
         d="m 220.209,-214.318 v -0.598 m 6.338,0.598 v -0.996 m 6.501,0.996 v -0.598 m 6.338,0.598 v -0.996 m 6.5,0.996 v -0.598 m 6.338,0.598 v -0.996 m 6.501,0.996 v -0.598 m 6.338,0.598 v -0.996 m 6.338,0.996 v -0.598 m 6.501,0.598 v -0.996 m 6.338,0.996 v -0.598 m 6.501,0.598 v -0.996 m -74.432,0.996 h 74.432 m -70.532,-61.205 v 0 m 6.338,0 v 0 m 6.501,0 v 0 m 6.338,0 v 0 m 6.5,0 v 0 m 6.338,0 v 0 m 6.501,0 v 0 m 6.338,0 v 0 m 6.338,0 v 0 m 6.501,0 v 0 m 6.338,0 v 0 m 6.501,0 v 0 m -74.432,0 h 74.432"
         style="fill:none;stroke:#000000;stroke-width:0.24;stroke-linecap:round;stroke-linejoin:round;stroke-miterlimit:10;stroke-dasharray:none;stroke-opacity:1"
         id="path21700" />
    </g>
    <text
       style="font-variant:normal;font-weight:normal;font-size:2.06128px;font-family:Times;-inkscape-font-specification:Times-Roman;writing-mode:lr-tb;fill:#000000;fill-opacity:1;fill-rule:nonzero;stroke:none;stroke-width:0.352778"
       id="text21714"
       x="207.78455"
       y="251.03947"><tspan
         x="207.78455"
         y="251.03947"
         id="tspan21702"
         style="stroke-width:0.352778">0</tspan><tspan
         x="206.51459 207.78455"
         y="247.35637"
         sodipodi:role="line"
         id="tspan21704"
         style="stroke-width:0.352778">20</tspan><tspan
         x="206.51459 207.78455"
         y="243.60979"
         sodipodi:role="line"
         id="tspan21706"
         style="stroke-width:0.352778">40</tspan><tspan
         x="206.51459 207.78455"
         y="239.9267"
         sodipodi:role="line"
         id="tspan21708"
         style="stroke-width:0.352778">60</tspan><tspan
         x="206.51459 207.78455"
         y="236.18011"
         sodipodi:role="line"
         id="tspan21710"
         style="stroke-width:0.352778">80</tspan><tspan
         x="205.30812 206.51459 207.78455"
         y="232.49702"
         sodipodi:role="line"
         id="tspan21712"
         style="stroke-width:0.352778">100</tspan></text>
    <g
       id="g21716"
       transform="matrix(0.39073666,0,0,0.31852305,124.98054,319.61946)">
      <path
         d="m 216.309,-217.109 h 1.137 m -1.137,-5.781 h 0.65 m -0.65,-5.981 h 1.137 m -1.137,-5.782 h 0.65 m -0.65,-5.782 h 1.137 m -1.137,-5.781 h 0.65 m -0.65,-5.981 h 1.137 m -1.137,-5.782 h 0.65 m -0.65,-5.781 h 1.137 m -1.137,-5.782 h 0.65 m -0.65,-5.981 h 1.137 m -1.137,61.205 v -61.205 m 74.432,58.414 v 0 m 0,-5.781 v 0 m 0,-5.981 v 0 m 0,-5.782 v 0 m 0,-5.782 v 0 m 0,-5.781 v 0 m 0,-5.981 v 0 m 0,-5.782 v 0 m 0,-5.781 v 0 m 0,-5.782 v 0 m 0,-5.981 v 0 m 0,61.205 v -61.205"
         style="fill:none;stroke:#000000;stroke-width:0.24;stroke-linecap:round;stroke-linejoin:round;stroke-miterlimit:10;stroke-dasharray:none;stroke-opacity:1"
         id="path21718" />
    </g>
    <g
       id="g21720"
       transform="matrix(0.35277777,0,0,-0.35277777,124.98054,319.61946)">
      <g
         id="g21722"
         clip-path="url(#clipPath21726)">
        <g
           id="g21728"
           transform="scale(1.1076,-0.9029)">
          <path
             d="m 216.146,-217.109 h 0.163 v -0.199 c 0.325,0 0.65,0 0.975,0 l 0.162,0.199 h 0.813 v -0.199 h 0.65 v -0.199 c 0.541,0 1.083,0 1.625,0"
             style="fill:none;stroke:#ff0000;stroke-width:0.309;stroke-linecap:round;stroke-linejoin:round;stroke-miterlimit:10;stroke-dasharray:none;stroke-opacity:1"
             id="path21730" />
        </g>
      </g>
    </g>
    <g
       id="g21732"
       transform="matrix(0.39073666,0,0,0.31852305,124.98054,319.61946)">
      <path
         d="m 220.534,-217.507 h 0.65 v 0.199 c 1.246,0 2.492,0 3.738,0 m 0,0 c 0.867,0 1.733,0 2.6,0 v -0.199 c 0.325,0 0.65,0 0.975,0 v -0.2 h 0.488 v -0.199 h 0.325 v -0.2 h 0.325 v -0.199 h 0.325 v -0.199 h 0.162 v -0.2 h 0.325 v -0.199 h 0.325 v -0.199 h 0.163 v -0.2 h 0.325 v -0.199 h 0.325 v -0.2 h 0.488 v -0.199 h 0.487 v 0.199 c 0.271,0 0.542,0 0.813,0 v 0.2 h 0.325 0.162 v 0.199 c 0.704,0 1.409,0 2.113,0 h 0.325 l 0.162,-0.199 h 0.488 c 0.379,0 0.758,0 1.138,0 m 0,0 h 0.162 v 0.199 c 1.084,0 2.167,0 3.25,0 v -0.199 h 0.651 v -0.2 h 0.325 0.325 v -0.199 c 0.325,0 0.65,0 0.975,0 v -0.199 c 0.271,0 0.541,0 0.812,0 l 0.163,0.199 h 0.65 v 0.199 h 0.65 v 0.2 h 0.65 v 0.199 h 0.162 c 0.596,0 1.192,0 1.788,0 v -0.199 h 0.813 l 0.162,-0.2 h 0.488 v -0.199 h 0.487 v -0.199 h 0.325 v -0.2 h 0.325 v -0.199 h 0.163 l 0.162,-0.199 h 0.163 v -0.2 h 0.162 v -0.199 h 0.163 v -0.199 h 0.162 v -0.2 h 0.163 v -0.199 h 0.163 v -0.2 h 0.162 v -0.199 h 0.163 v -0.199 h 0.162 v -0.2 h 0.163 v -0.199 h 0.162 v -0.399 h 0.163 v -0.199 h 0.162 v -0.199 h 0.163 v -0.2 h 0.162 v -0.199 h 0.163 v -0.2 h 0.162 v -0.199 h 0.163 v -0.199 h 0.162 v -0.2 h 0.325 v -0.199 h 0.325 v -0.199 h 0.325 c 0.271,0 0.542,0 0.813,0 v 0.199 c 0.325,0 0.65,0 0.975,0 v 0.199 c 0.758,0 1.517,0 2.275,0 v -0.199 h 0.325 0.163 v -0.199 h 0.325 v -0.2 h 0.325 v -0.199 h 0.325 v -0.199 h 0.162 v -0.2 h 0.325 v -0.199 h 0.325 v -0.2 h 0.163 v -0.199 h 0.162 v -0.199 h 0.163 v -0.2 h 0.162 v -0.199 h 0.163 v -0.199 h 0.163 v -0.2 h 0.162 v -0.199 h 0.163 v -0.199 h 0.162 v -0.2 l 0.163,-0.199 v -0.2 h 0.162 v -0.199 h 0.163 v -0.399 h 0.162 v -0.199 h 0.163 v -0.399 h 0.162 v -0.399 h 0.163 v -0.398 h 0.162 v -0.2 h 0.163 v -0.398 l 0.162,-0.2 v -0.398 h 0.163 v -0.399 h 0.162 v -0.399 h 0.163 v -0.399 h 0.162 v -0.398 l 0.163,-0.2 v -0.398 h 0.162 v -0.399 h 0.163 v -0.598 h 0.162 v -0.399 l 0.163,-0.199 v -0.399 h 0.162 v -0.598 h 0.163 v -0.598 h 0.162 v -0.399 h 0.163 v -0.598 h 0.162 v -0.399 l 0.163,-0.199 v -0.399 l 0.162,-0.199 v -0.399 h 0.163 v -0.399 h 0.163 v -0.598 h 0.162 v -0.598 h 0.163 v -0.399 h 0.162 v -0.398 h 0.163 v -0.399 h 0.162 v -0.2 -0.199 l 0.163,-0.199 v -0.2 h 0.162 v -0.199 h 0.163 v -0.399 h 0.162 v -0.199 h 0.325 v -0.199 h 0.325 v -0.2 h 0.488 v 0.2 h 0.487 v 0.199 h 0.163 v 0.199 h 0.162 v 0.2 h 0.163 v 0.199 h 0.162 v 0.199 h 0.163 v 0.2 h 0.162 v 0.398 h 0.163 v 0.2 h 0.162 v 0.399 h 0.163 v 0.398 h 0.162 v 0.399 h 0.163 v 0.199 h 0.163 v 0.399 h 0.162 v 0.199 h 0.163 v 0.399 h 0.162 v 0.2 h 0.163 v 0.199 l 0.162,0.199 v 0.2 h 0.163 v 0.199 h 0.162 v 0.199 h 0.163 v 0.2 h 0.162 l 0.163,0.199 h 0.162 v 0.2 h 0.163 v 0.199 h 0.325 v 0.199 h 0.325 v 0.2 h 0.162 v 0.199 h 0.325 v 0.199 h 0.163 v 0.2 h 0.162 v 0.199 h 0.163 v 0.199 h 0.162 v 0.2 h 0.163 v 0.199 h 0.162 v 0.2 h 0.163 v 0.199 h 0.162 v 0.199 h 0.163 v 0.2 h 0.162 v 0.199 h 0.163 v 0.199 h 0.325 v 0.2 h 0.65 v 0.199 h 0.65 v 0.199 h 0.325 v 0.2 h 0.163 v 0.199 h 0.325 v 0.2 h 0.162 v 0.199 h 0.163 v 0.199 l 0.162,0.2 h 0.163 v 0.398 h 0.325 v 0.2 h 0.162 v 0.199 h 0.325 m 0,0 v 0.199 c 0.325,0 0.65,0 0.975,0 v 0.2 h 0.163 v 0.199 h 0.162 v 0.399 h 0.163 v 0.199 h 0.163 v 0.399 h 0.162 v 0.399 h 0.163 v 0.598 h 0.162 v 0.399 h 0.163 v 0.598 h 0.162 v 0.398 l 0.163,0.2 v 0.399 h 0.162 v 0.398 h 0.163 v 0.598 h 0.162 v 0.399 h 0.163 v 0.399 h 0.162 v 0.199 h 0.163 v 0.2 l 0.162,0.199 v 0.199 h 0.163 l 0.162,0.2 v 0.199 h 0.325 v 0.199"
         style="fill:none;stroke:#ff0000;stroke-width:0.309;stroke-linecap:round;stroke-linejoin:round;stroke-miterlimit:10;stroke-dasharray:none;stroke-opacity:1"
         id="path21734" />
    </g>
    <g
       id="g21736"
       transform="matrix(0.35277777,0,0,-0.35277777,124.98054,319.61946)">
      <g
         id="g21738"
         clip-path="url(#clipPath21742)">
        <g
           id="g21744"
           transform="scale(1.1076,-0.9029)">
          <path
             d="m 286.19,-224.685 h 0.163 v 0.2 h 0.162 v 0.199 h 0.163 v 0.399 h 0.162 v 0.199 h 0.163 v 0.399 h 0.162 v 0.399 h 0.163 v 0.398 h 0.162 v 0.399 l 0.163,0.199 v 0.2 h 0.162 v 0.598 h 0.163 v 0.598 h 0.162 v 0.399 h 0.163 v 0.398 h 0.163 v 0.399 h 0.162 v 0.399 h 0.163 v 0.199 h 0.162 v 0.399 h 0.163 v 0.199 h 0.162 v 0.2 h 0.163 l 0.162,0.199 h 0.163 v 0.2 h 0.325 v 0.199 h 0.325 v 0.199 h 0.162"
             style="fill:none;stroke:#ff0000;stroke-width:0.309;stroke-linecap:round;stroke-linejoin:round;stroke-miterlimit:10;stroke-dasharray:none;stroke-opacity:1"
             id="path21746" />
        </g>
      </g>
    </g>
    <g
       id="g21748"
       transform="matrix(0.35277777,0,0,-0.35277777,124.98054,319.61946)">
      <g
         id="g21750"
         clip-path="url(#clipPath21754)">
        <g
           id="g21756"
           transform="scale(1.1076,-0.9029)">
          <path
             d="m 290.578,-217.109 h 0.163"
             style="fill:none;stroke:#ff0000;stroke-width:0.309;stroke-linecap:round;stroke-linejoin:round;stroke-miterlimit:10;stroke-dasharray:none;stroke-opacity:1"
             id="path21758" />
        </g>
      </g>
    </g>
    <path
       d="m 230.58104,238.40296 v 3.302"
       style="fill:none;stroke:#000000;stroke-width:0.0635;stroke-linecap:round;stroke-linejoin:round;stroke-miterlimit:10;stroke-dasharray:none;stroke-opacity:1"
       id="path21760" />
    <path
       d="m 230.58104,241.70496 -0.381,-0.6985 h 0.8255 z"
       style="fill:#000000;fill-opacity:1;fill-rule:evenodd;stroke:#000000;stroke-width:0.0635;stroke-linecap:round;stroke-linejoin:round;stroke-miterlimit:10;stroke-dasharray:none;stroke-opacity:1"
       id="path21762" />
    <text
       transform="rotate(-90)"
       style="font-variant:normal;font-weight:normal;font-size:2.79502px;font-family:Symbol;-inkscape-font-specification:Symbol;writing-mode:lr-tb;fill:#000000;fill-opacity:1;fill-rule:nonzero;stroke:none;stroke-width:0.352778"
       id="text21766"
       x="-247.92798"
       y="202.57755"><tspan
         x="-247.92798 -246.15005"
         y="202.57755"
         sodipodi:role="line"
         id="tspan21764"
         style="stroke-width:0.352778">α</tspan></text>
    <text
       transform="rotate(-90)"
       style="font-variant:normal;font-weight:normal;font-size:3.09213px;font-family:Times;-inkscape-font-specification:Times-Roman;writing-mode:lr-tb;fill:#000000;fill-opacity:1;fill-rule:nonzero;stroke:none;stroke-width:0.352778"
       id="text21770"
       x="-245.45148"
       y="202.57755"><tspan
         x="-245.45148 -244.43539 -243.03838"
         y="202.57755"
         sodipodi:role="line"
         id="tspan21768"
         style="stroke-width:0.352778">(cm</tspan></text>
    <text
       transform="rotate(-90)"
       style="font-variant:normal;font-weight:normal;font-size:1.85117px;font-family:Times;-inkscape-font-specification:Times-Roman;writing-mode:lr-tb;fill:#000000;fill-opacity:1;fill-rule:nonzero;stroke:none;stroke-width:0.352778"
       id="text21774"
       x="-240.68896"
       y="200.54555"><tspan
         x="-240.68896 -240.05402"
         y="200.54555"
         sodipodi:role="line"
         id="tspan21772"
         style="stroke-width:0.352778">-1</tspan></text>
    <text
       transform="rotate(-90)"
       style="font-variant:normal;font-weight:normal;font-size:3.09213px;font-family:Times;-inkscape-font-specification:Times-Roman;writing-mode:lr-tb;fill:#000000;fill-opacity:1;fill-rule:nonzero;stroke:none;stroke-width:0.352778"
       id="text21778"
       x="-239.10147"
       y="202.57755"><tspan
         x="-239.10147"
         y="202.57755"
         id="tspan21776"
         style="stroke-width:0.352778">)</tspan></text>
    <text
       style="font-variant:normal;font-weight:normal;font-size:3.09213px;font-family:Times;-inkscape-font-specification:Times-Roman;writing-mode:lr-tb;fill:#000000;fill-opacity:1;fill-rule:nonzero;stroke:none;stroke-width:0.352778"
       id="text21784"
       x="211.08655"
       y="257.51648"><tspan
         x="211.08655 213.18208 214.38863 216.10323 217.94458 219.84964 221.50053 223.3419 225.05649 226.89786 227.85023 229.12018 231.40619 234.07314 235.72403"
         y="257.51648"
         sodipodi:role="line"
         id="tspan21780"
         style="stroke-width:0.352778">Frequency (THz)</tspan><tspan
         x="210.89607 213.18208 215.84904"
         y="234.78343"
         sodipodi:role="line"
         id="tspan21782"
         style="stroke-width:0.352778">TNT</tspan></text>
    <path
       d="m 224.86604,244.43546 v 3.302"
       style="fill:none;stroke:#000000;stroke-width:0.0635;stroke-linecap:round;stroke-linejoin:round;stroke-miterlimit:10;stroke-dasharray:none;stroke-opacity:1"
       id="path21786" />
    <path
       d="m 224.86604,247.73746 -0.4445,-0.6985 h 0.8255 z"
       style="fill:#000000;fill-opacity:1;fill-rule:evenodd;stroke:#000000;stroke-width:0.0635;stroke-linecap:round;stroke-linejoin:round;stroke-miterlimit:10;stroke-dasharray:none;stroke-opacity:1"
       id="path21788" />
    <text
       style="font-variant:normal;font-weight:normal;font-size:2.83863px;font-family:Times;-inkscape-font-specification:Times-Roman;writing-mode:lr-tb;fill:#000000;fill-opacity:1;fill-rule:nonzero;stroke:none;stroke-width:0.352778"
       id="text21810"
       x="225.92535"
       y="234.36212"><tspan
         x="225.92535 227.4494 228.84631 229.54489 230.94177 231.70367 233.35461 235.38651 240.65671"
         y="234.36212"
         sodipodi:role="line"
         id="tspan21806"
         style="stroke-width:0.352778">~1.6 THz</tspan><tspan
         x="225.92535 227.4494 228.84631 229.54489 230.94177 231.70367 233.35461 235.38651 236.65479 240.65671"
         y="237.53712"
         sodipodi:role="line"
         id="tspan21808"
         style="stroke-width:0.352778">~2.2 THz</tspan></text>
  </g>
</svg>
