<?xml version="1.0" encoding="UTF-8" standalone="no"?>
<svg
   xmlns:dc="http://purl.org/dc/elements/1.1/"
   xmlns:cc="http://creativecommons.org/ns#"
   xmlns:rdf="http://www.w3.org/1999/02/22-rdf-syntax-ns#"
   xmlns:svg="http://www.w3.org/2000/svg"
   xmlns="http://www.w3.org/2000/svg"
   xmlns:xlink="http://www.w3.org/1999/xlink"
   xmlns:sodipodi="http://sodipodi.sourceforge.net/DTD/sodipodi-0.dtd"
   xmlns:inkscape="http://www.inkscape.org/namespaces/inkscape"
   version="1.1"
   width="1000"
   height="700"
   id="svg582415"
   sodipodi:docname="SDR_et_WF.svg"
   inkscape:version="1.0.2 (e86c8708, 2021-01-15)">
  <metadata
     id="metadata582419">
    <rdf:RDF>
      <cc:Work
         rdf:about="">
        <dc:format>image/svg+xml</dc:format>
        <dc:type
           rdf:resource="http://purl.org/dc/dcmitype/StillImage" />
        <dc:title></dc:title>
      </cc:Work>
    </rdf:RDF>
  </metadata>
  <sodipodi:namedview
     pagecolor="#ffffff"
     bordercolor="#666666"
     borderopacity="1"
     objecttolerance="10"
     gridtolerance="10"
     guidetolerance="10"
     inkscape:pageopacity="0"
     inkscape:pageshadow="2"
     inkscape:window-width="640"
     inkscape:window-height="480"
     id="namedview582417"
     showgrid="false"
     inkscape:zoom="1.2858473"
     inkscape:cx="478.42955"
     inkscape:cy="348.14089"
     inkscape:current-layer="svg582415" />
  <defs
     id="defs582233">
    <path
       id="arrow"
       d="M -10 10 h 20 L 0 -10 z"
       style="fill:#000; stroke:#fff; stroke-width:2px;" />
    <path
       id="bracket"
       d="M -100 -15   q 0 15 15 15 h 70 q 15 0 15 15   q 0 -15 15 -15 h 70 q 15 0 15 -15"
       style="stroke:#445;stroke-width:2px;fill:none;" />
  </defs>
  <path
     style="stroke:#000;stroke-width:2px;fill:none;"
     d="M 920 545 H 50 v -100   m -25 -50 l 25 50 l 25 -50"
     id="path582236" />
  <path
     style="stroke:#000;stroke-width:2px;fill:none;"
     d="M 655 220 v 30 h -620 v -180 l 20 -15   M 470 250 v -30   M 335 250 v -120   M 200 250 v -50"
     id="path582238" />
  <path
     style="stroke:#000;stroke-width:5px;fill:none;stroke-dasharray:3 3;"
     d="M 80.5 80.5 v 60 q 0 10 10 10 h 60   M 240.5 120.5 h 70   M 240.5 180.5 h 70"
     id="path582240" />
  <path
     style="stroke:#000;stroke-width:5px;fill:none;"
     d="M 360.5 120.5 h 70   M 360.5 180.5 h 70   M 500.5 105.5 h 470   M 500.5 195.5 h 70   M 900.5 195.5 h 70"
     id="path582242" />
  <use
     xlink:href="#arrow"
     transform="translate(200 206) scale(0.6)"
     id="use582244" />
  <use
     xlink:href="#arrow"
     transform="translate(335 206) scale(0.6)"
     id="use582246" />
  <use
     xlink:href="#arrow"
     transform="translate(470 226) scale(0.6)"
     id="use582248" />
  <use
     xlink:href="#arrow"
     transform="translate(55 57) rotate(60) scale(0.6)"
     id="use582250" />
  <g
     id="boxes"
     style="stroke:#000;stroke-width:1px;fill:#eee;">
    <rect
       x="150.5"
       y="100.5"
       width="100"
       height="100"
       id="flex" />
    <rect
       x="300.5"
       y="100.5"
       width="70"
       height="40"
       id="adc" />
    <rect
       x="300.5"
       y="160.5"
       width="70"
       height="40"
       id="dac" />
    <rect
       x="415.5"
       y="80.5"
       width="110"
       height="140"
       id="channelization" />
    <rect
       x="570.5"
       y="80.5"
       width="350"
       height="40"
       id="processing" />
    <rect
       x="570.5"
       y="124.5"
       width="173"
       height="96"
       id="hardware" />
    <rect
       x="747.5"
       y="124.5"
       width="173"
       height="96"
       id="software" />
  </g>
  <path
     id="sa"
     d="M 0 0 h 25 L 0 50 L -25 0 h 25 v 50"
     style="stroke:#000;stroke-width:1px;fill:none;"
     transform="translate(80.5 30.5)" />
  <use
     xlink:href="#bracket"
     transform="translate(170 300.5) scale(0.8 1)"
     id="use582261" />
  <use
     xlink:href="#bracket"
     transform="translate(330 300.5) scale(0.5 1)"
     id="use582263" />
  <use
     xlink:href="#bracket"
     transform="translate(470 300.5) scale(0.8 1)"
     id="use582265" />
  <use
     xlink:href="#bracket"
     transform="translate(745 300.5) scale(1.8 1)"
     id="use582267" />
  <g
     id="boxes2"
     style="stroke:#000;stroke-width:1px;fill:#eee;">
    <rect
       x="120.5"
       y="500.5"
       width="120"
       height="90"
       id="rect582269" />
    <rect
       x="280.5"
       y="500.5"
       width="120"
       height="90"
       id="rect582271" />
    <rect
       x="440.5"
       y="500.5"
       width="120"
       height="90"
       id="rect582273" />
    <rect
       x="600.5"
       y="500.5"
       width="120"
       height="90"
       id="rect582275" />
    <rect
       x="760.5"
       y="500.5"
       width="120"
       height="90"
       id="rect582277" />
  </g>
  <use
     xlink:href="#bracket"
     transform="translate(500 460.5) scale(3.8 -1)"
     id="use582280" />
  <use
     xlink:href="#bracket"
     transform="translate(610 620.5) scale(2.7 1)"
     id="use582282" />
  <use
     xlink:href="#bracket"
     transform="translate(225 620.5) scale(1.05 1)"
     id="use582284" />
  <g
     style="font-size:22px;font-family:sans-serif;text-anchor:middle"
     id="g582316">
    <text
       x="500"
       y="440"
       id="text582290">Waveform</text>
    <text
       x="225"
       y="660"
       id="text582292">HARDWARE</text>
    <text
       x="610"
       y="660"
       id="text582294">SOFTWARE</text>
    <text
       x="60"
       y="390"
       id="text582296">ANTENNA</text>
    <text
       x="180"
       y="490"
       id="text582298">RF</text>
    <text
       x="170"
       y="350"
       id="text582300">RF/IF</text>
    <text
       x="330"
       y="340"
       id="text582304">A/D<tspan
   dy="26"
   x="330"
   id="tspan582302">D/A</tspan></text>
    <text
       x="470"
       y="340"
       id="text582308">Digital<tspan
   dy="26"
   x="470"
   id="tspan582306">Front End</tspan></text>
    <text
       x="750"
       y="340"
       id="text582312">Base Band<tspan
   dy="26"
   x="750"
   id="tspan582310">Processing</tspan></text>
    <text
       x="952"
       y="552"
       id="text582314">User</text>
  </g>
  <g
     style="font-size:20px;font-family:sans-serif;text-anchor:middle"
     id="g582340">
    <text
       x="180"
       y="540"
       id="text582320">AMPLIFIER<tspan
   x="180"
   dy="30"
   id="tspan582318">FILTER</tspan></text>
    <text
       x="340"
       y="540"
       id="text582324">A/D<tspan
   x="340"
   dy="30"
   id="tspan582322">D/A</tspan></text>
    <text
       x="500"
       y="527"
       id="text582330">Modem<tspan
   x="500"
   dy="26"
   id="tspan582326">Error</tspan><tspan
   x="500"
   dy="26"
   id="tspan582328">Correction</tspan></text>
    <text
       x="660"
       y="550"
       id="text582332">Encryption</text>
    <text
       x="820"
       y="527"
       id="text582338">Network<tspan
   x="820"
   dy="26"
   id="tspan582334">Routing</tspan><tspan
   x="820"
   dy="26"
   id="tspan582336">GUI</tspan></text>
  </g>
  <g
     style="font-size:13px;font-family:sans-serif;text-anchor:middle"
     id="g582392">
    <text
       x="140"
       y="30"
       id="text582344">Smart<tspan
   x="140"
   dy="17"
   id="tspan582342">Antenna</tspan></text>
    <text
       x="200"
       y="130"
       id="text582350">Flexible<tspan
   x="200"
   dy="17"
   id="tspan582346">RF</tspan><tspan
   x="200"
   dy="17"
   id="tspan582348">Hardware</tspan></text>
    <text
       x="335"
       y="125"
       id="text582352">ADC</text>
    <text
       x="335"
       y="185"
       id="text582354">DAC</text>
    <text
       x="265"
       y="155"
       id="text582356">IF</text>
    <text
       x="470"
       y="125"
       id="text582364">Channelization<tspan
   x="470"
   dy="17"
   id="tspan582358">and</tspan><tspan
   x="470"
   dy="17"
   id="tspan582360">Sample Rate</tspan><tspan
   x="470"
   dy="17"
   id="tspan582362">Conversion</tspan></text>
    <text
       x="748"
       y="110"
       id="text582366">Processing</text>
    <text
       style="text-anchor:start"
       x="620"
       y="150"
       id="text582374">Hardware<tspan
   x="620"
   dy="17"
   id="tspan582368">• FPGAs</tspan><tspan
   x="620"
   dy="17"
   id="tspan582370">• DSPs</tspan><tspan
   x="620"
   dy="17"
   id="tspan582372">• ASICs</tspan></text>
    <text
       style="text-anchor:start"
       x="760"
       y="143"
       id="text582384">Software<tspan
   x="760"
   dy="17"
   id="tspan582376">• Algorithms</tspan><tspan
   x="760"
   dy="17"
   id="tspan582378">• Middleware</tspan><tspan
   x="760"
   dy="17"
   id="tspan582380">• CORBA</tspan><tspan
   x="760"
   dy="17"
   id="tspan582382">• Virtual Radio Machine</tspan></text>
    <text
       x="960"
       y="90"
       id="text582386">Output</text>
    <text
       x="960"
       y="180"
       id="text582388">Input</text>
    <text
       x="385"
       y="280"
       id="text582390">Control</text>
  </g>
  <use
     xlink:href="#arrow"
     transform="rotate(90 145.5 150.5) translate(145.5 150.5)"
     id="use582395" />
  <use
     xlink:href="#arrow"
     transform="rotate(270 100.5 150.5) translate(100.5 150.5)"
     id="use582397" />
  <use
     xlink:href="#arrow"
     transform="rotate(90 295.5 120.5) translate(295.5 120.5)"
     id="use582399" />
  <use
     xlink:href="#arrow"
     transform="rotate(270 255.5 180.5) translate(255.5 180.5)"
     id="use582401" />
  <use
     xlink:href="#arrow"
     transform="rotate(90 410.5 120.5) translate(410.5 120.5)"
     id="use582403" />
  <use
     xlink:href="#arrow"
     transform="rotate(270 375.5 180.5) translate(375.5 180.5)"
     id="use582405" />
  <use
     xlink:href="#arrow"
     transform="rotate(90 565.5 105.5) translate(565.5 105.5)"
     id="use582407" />
  <use
     xlink:href="#arrow"
     transform="rotate(270 530.5 195.5) translate(530.5 195.5)"
     id="use582409" />
  <use
     xlink:href="#arrow"
     transform="rotate(90 965.5 105.5) translate(965.5 105.5)"
     id="use582411" />
  <use
     xlink:href="#arrow"
     transform="rotate(270 925.5 195.5) translate(925.5 195.5)"
     id="use582413" />
</svg>
