<?xml version="1.0" encoding="UTF-8" standalone="no"?>
<!-- Created with Inkscape (http://www.inkscape.org/) -->

<svg
   version="1.1"
   id="svg42697"
   xml:space="preserve"
   width="759.53656"
   height="144.34096"
   viewBox="0 0 759.53656 144.34095"
   sodipodi:docname="terahertz_sources.svg"
   inkscape:version="1.1 (c4e8f9e, 2021-05-24)"
   xmlns:inkscape="http://www.inkscape.org/namespaces/inkscape"
   xmlns:sodipodi="http://sodipodi.sourceforge.net/DTD/sodipodi-0.dtd"
   xmlns="http://www.w3.org/2000/svg"
   xmlns:svg="http://www.w3.org/2000/svg"><defs
     id="defs42701"><clipPath
       clipPathUnits="userSpaceOnUse"
       id="clipPath42713"><path
         d="M 0,655.8627 H 595 V 792 H 0 Z"
         id="path42711" /></clipPath><clipPath
       clipPathUnits="userSpaceOnUse"
       id="clipPath42723"><path
         d="M 6.406461,665.4724 H 588.59356 V 785.5935 H 6.406461 Z"
         id="path42721" /></clipPath><clipPath
       clipPathUnits="userSpaceOnUse"
       id="clipPath42735"><path
         d="m 68.73422,737.7805 v -6.1907 h -4.64299 v 6.1907 z"
         id="path42733" /></clipPath><clipPath
       clipPathUnits="userSpaceOnUse"
       id="clipPath42741"><path
         d="M 6.406461,665.4724 H 588.59356 V 785.5935 H 6.406461 Z"
         id="path42739" /></clipPath><clipPath
       clipPathUnits="userSpaceOnUse"
       id="clipPath42751"><path
         d="M 6.406461,665.4724 H 588.59356 V 785.5935 H 6.406461 Z"
         id="path42749" /></clipPath><clipPath
       clipPathUnits="userSpaceOnUse"
       id="clipPath42763"><path
         d="m 172.5626,737.7805 v -6.1907 h -4.643 v 6.1907 z"
         id="path42761" /></clipPath><clipPath
       clipPathUnits="userSpaceOnUse"
       id="clipPath42769"><path
         d="M 6.406461,665.4724 H 588.59356 V 785.5935 H 6.406461 Z"
         id="path42767" /></clipPath><clipPath
       clipPathUnits="userSpaceOnUse"
       id="clipPath42779"><path
         d="M 6.406461,665.4724 H 588.59356 V 785.5935 H 6.406461 Z"
         id="path42777" /></clipPath><clipPath
       clipPathUnits="userSpaceOnUse"
       id="clipPath42791"><path
         d="m 299.092,737.7805 v -6.1907 h -4.643 v 6.1907 z"
         id="path42789" /></clipPath><clipPath
       clipPathUnits="userSpaceOnUse"
       id="clipPath42797"><path
         d="M 6.406461,665.4724 H 588.59356 V 785.5935 H 6.406461 Z"
         id="path42795" /></clipPath><clipPath
       clipPathUnits="userSpaceOnUse"
       id="clipPath42807"><path
         d="M 6.406461,665.4724 H 588.59356 V 785.5935 H 6.406461 Z"
         id="path42805" /></clipPath><clipPath
       clipPathUnits="userSpaceOnUse"
       id="clipPath42819"><path
         d="m 502.8393,737.7805 v -6.1907 h -4.643 v 6.1907 z"
         id="path42817" /></clipPath><clipPath
       clipPathUnits="userSpaceOnUse"
       id="clipPath42825"><path
         d="M 6.406461,665.4724 H 588.59356 V 785.5935 H 6.406461 Z"
         id="path42823" /></clipPath><clipPath
       clipPathUnits="userSpaceOnUse"
       id="clipPath42835"><path
         d="M 6.406461,665.4724 H 588.59356 V 785.5935 H 6.406461 Z"
         id="path42833" /></clipPath><clipPath
       clipPathUnits="userSpaceOnUse"
       id="clipPath42847"><path
         d="m 35.65093,693.2691 v -6.1907 h -4.64299 v 6.1907 z"
         id="path42845" /></clipPath><clipPath
       clipPathUnits="userSpaceOnUse"
       id="clipPath42853"><path
         d="M 6.406461,665.4724 H 588.59356 V 785.5935 H 6.406461 Z"
         id="path42851" /></clipPath><clipPath
       clipPathUnits="userSpaceOnUse"
       id="clipPath42863"><path
         d="M 6.406461,665.4724 H 588.59356 V 785.5935 H 6.406461 Z"
         id="path42861" /></clipPath><clipPath
       clipPathUnits="userSpaceOnUse"
       id="clipPath42875"><path
         d="m 101.8175,693.2691 v -6.1907 h -4.64298 v 6.1907 z"
         id="path42873" /></clipPath><clipPath
       clipPathUnits="userSpaceOnUse"
       id="clipPath42881"><path
         d="M 6.406461,665.4724 H 588.59356 V 785.5935 H 6.406461 Z"
         id="path42879" /></clipPath><clipPath
       clipPathUnits="userSpaceOnUse"
       id="clipPath42891"><path
         d="M 6.406461,665.4724 H 588.59356 V 785.5935 H 6.406461 Z"
         id="path42889" /></clipPath><clipPath
       clipPathUnits="userSpaceOnUse"
       id="clipPath42903"><path
         d="m 257.821,693.2691 v -6.1907 h -4.643 v 6.1907 z"
         id="path42901" /></clipPath><clipPath
       clipPathUnits="userSpaceOnUse"
       id="clipPath42909"><path
         d="M 6.406461,665.4724 H 588.59356 V 785.5935 H 6.406461 Z"
         id="path42907" /></clipPath><clipPath
       clipPathUnits="userSpaceOnUse"
       id="clipPath42919"><path
         d="M 6.406461,665.4724 H 588.59356 V 785.5935 H 6.406461 Z"
         id="path42917" /></clipPath><clipPath
       clipPathUnits="userSpaceOnUse"
       id="clipPath42931"><path
         d="m 340.363,693.2691 v -6.1907 h -4.643 v 6.1907 z"
         id="path42929" /></clipPath><clipPath
       clipPathUnits="userSpaceOnUse"
       id="clipPath42937"><path
         d="M 6.406461,665.4724 H 588.59356 V 785.5935 H 6.406461 Z"
         id="path42935" /></clipPath><clipPath
       clipPathUnits="userSpaceOnUse"
       id="clipPath42947"><path
         d="M 6.406461,665.4724 H 588.59356 V 785.5935 H 6.406461 Z"
         id="path42945" /></clipPath><clipPath
       clipPathUnits="userSpaceOnUse"
       id="clipPath42959"><path
         d="m 448.4293,693.2691 v -6.1907 h -4.643 v 6.1907 z"
         id="path42957" /></clipPath><clipPath
       clipPathUnits="userSpaceOnUse"
       id="clipPath42965"><path
         d="M 6.406461,665.4724 H 588.59356 V 785.5935 H 6.406461 Z"
         id="path42963" /></clipPath><clipPath
       clipPathUnits="userSpaceOnUse"
       id="clipPath42975"><path
         d="M 6.406461,665.4724 H 588.59356 V 785.5935 H 6.406461 Z"
         id="path42973" /></clipPath><clipPath
       clipPathUnits="userSpaceOnUse"
       id="clipPath42987"><path
         d="m 557.2492,693.2691 v -6.1907 h -4.6429 v 6.1907 z"
         id="path42985" /></clipPath><clipPath
       clipPathUnits="userSpaceOnUse"
       id="clipPath42993"><path
         d="M 6.406461,665.4724 H 588.59356 V 785.5935 H 6.406461 Z"
         id="path42991" /></clipPath><clipPath
       clipPathUnits="userSpaceOnUse"
       id="clipPath43003"><path
         d="M 6.406461,665.4724 H 588.59356 V 785.5935 H 6.406461 Z"
         id="path43001" /></clipPath><clipPath
       clipPathUnits="userSpaceOnUse"
       id="clipPath43015"><path
         d="m 172.5626,693.2691 v -6.1907 h -4.643 v 6.1907 z"
         id="path43013" /></clipPath><clipPath
       clipPathUnits="userSpaceOnUse"
       id="clipPath43021"><path
         d="M 6.406461,665.4724 H 588.59356 V 785.5935 H 6.406461 Z"
         id="path43019" /></clipPath><clipPath
       clipPathUnits="userSpaceOnUse"
       id="clipPath43031"><path
         d="M 6.406461,665.4724 H 588.59356 V 785.5935 H 6.406461 Z"
         id="path43029" /></clipPath></defs><sodipodi:namedview
     id="namedview42699"
     pagecolor="#ffffff"
     bordercolor="#666666"
     borderopacity="1.0"
     inkscape:pageshadow="2"
     inkscape:pageopacity="0.0"
     inkscape:pagecheckerboard="0"
     showgrid="false"
     fit-margin-top="0"
     fit-margin-left="0"
     fit-margin-right="0"
     fit-margin-bottom="0"
     inkscape:zoom="1.5003706"
     inkscape:cx="325.91949"
     inkscape:cy="169.95801"
     inkscape:current-layer="g42703" /><g
     id="g42703"
     inkscape:groupmode="layer"
     inkscape:label="terahertz_sources"
     transform="matrix(1.3333333,0,0,-1.3333333,-14.146997,1036.7963)"><g
       id="g42705" /><g
       id="g42717"><g
         id="g42719"
         clip-path="url(#clipPath42723)"><g
           id="g42725"
           transform="matrix(0.5158873,0,0,-0.5158873,6.741089,781.4664)"><path
             d="M 467.41094,27.410587 115.668,69.28125 v 25"
             style="fill:none;stroke:#333333;stroke-width:1.5;stroke-linecap:butt;stroke-linejoin:miter;stroke-miterlimit:4;stroke-dasharray:none;stroke-opacity:1"
             id="path42727"
             sodipodi:nodetypes="ccc" /></g></g></g><g
       id="g42729"><g
         id="g42731"
         clip-path="url(#clipPath42735)"><g
           id="g42737"
           clip-path="url(#clipPath42741)"><path
             d="m 68.73422,737.0066 -2.3215,-4.643 -2.32149,4.643 z"
             style="fill:#333333;fill-opacity:1;fill-rule:nonzero;stroke:none"
             id="path42743" /></g></g></g><g
       id="g42745"><g
         id="g42747"
         clip-path="url(#clipPath42751)"><g
           id="g42753"
           transform="matrix(0.5158873,0,0,-0.5158873,6.741089,781.4664)"><path
             d="M 467.41094,27.410587 316.9297,69.28125 v 25"
             style="fill:none;stroke:#333333;stroke-width:1.5;stroke-linecap:butt;stroke-linejoin:miter;stroke-miterlimit:4;stroke-dasharray:none;stroke-opacity:1"
             id="path42755"
             sodipodi:nodetypes="ccc" /></g></g></g><g
       id="g42757"><g
         id="g42759"
         clip-path="url(#clipPath42763)"><g
           id="g42765"
           clip-path="url(#clipPath42769)"><path
             d="m 172.5626,737.0066 -2.3215,-4.643 -2.3215,4.643 z"
             style="fill:#333333;fill-opacity:1;fill-rule:nonzero;stroke:none"
             id="path42771" /></g></g></g><g
       id="g42773"><g
         id="g42775"
         clip-path="url(#clipPath42779)"><g
           id="g42781"
           transform="matrix(0.5158873,0,0,-0.5158873,6.741089,781.4664)"><path
             d="m 562.1953,44.541701 c 0.0812,8.332938 0,49.739549 0,49.739549"
             style="fill:none;stroke:#333333;stroke-width:1.5;stroke-linecap:butt;stroke-linejoin:miter;stroke-miterlimit:4;stroke-dasharray:none;stroke-opacity:1"
             id="path42783"
             sodipodi:nodetypes="cc" /></g></g></g><g
       id="g42785"><g
         id="g42787"
         clip-path="url(#clipPath42791)"><g
           id="g42793"
           clip-path="url(#clipPath42797)"><path
             d="m 299.092,737.0066 -2.3215,-4.643 -2.3215,4.643 z"
             style="fill:#333333;fill-opacity:1;fill-rule:nonzero;stroke:none"
             id="path42799" /></g></g></g><g
       id="g42801"><g
         id="g42803"
         clip-path="url(#clipPath42807)"><g
           id="g42809"
           transform="matrix(0.5158873,0,0,-0.5158873,6.741089,781.4664)"><path
             d="M 670.39877,27.217811 957.1406,69.28125 v 25"
             style="fill:none;stroke:#333333;stroke-width:1.5;stroke-linecap:butt;stroke-linejoin:miter;stroke-miterlimit:4;stroke-dasharray:none;stroke-opacity:1"
             id="path42811"
             sodipodi:nodetypes="ccc" /></g></g></g><g
       id="g42813"><g
         id="g42815"
         clip-path="url(#clipPath42819)"><g
           id="g42821"
           clip-path="url(#clipPath42825)"><path
             d="m 502.8393,737.0066 -2.3215,-4.643 -2.3215,4.643 z"
             style="fill:#333333;fill-opacity:1;fill-rule:nonzero;stroke:none"
             id="path42827" /></g></g></g><g
       id="g42829"><g
         id="g42831"
         clip-path="url(#clipPath42835)"><g
           id="g42837"
           transform="matrix(0.5158873,0,0,-0.5158873,6.741089,781.4664)"><path
             d="m 88.70177,130.5625 -37.16271,25 v 25"
             style="fill:none;stroke:#333333;stroke-width:1.5;stroke-linecap:butt;stroke-linejoin:miter;stroke-miterlimit:4;stroke-dasharray:none;stroke-opacity:1"
             id="path42839" /></g></g></g><g
       id="g42841"><g
         id="g42843"
         clip-path="url(#clipPath42847)"><g
           id="g42849"
           clip-path="url(#clipPath42853)"><path
             d="m 35.65093,692.4952 -2.32149,-4.643 -2.3215,4.643 z"
             style="fill:#333333;fill-opacity:1;fill-rule:nonzero;stroke:none"
             id="path42855" /></g></g></g><g
       id="g42857"><g
         id="g42859"
         clip-path="url(#clipPath42863)"><g
           id="g42865"
           transform="matrix(0.5158873,0,0,-0.5158873,6.741089,781.4664)"><path
             d="m 142.6342,130.5625 37.1627,25 v 25"
             style="fill:none;stroke:#333333;stroke-width:1.5;stroke-linecap:butt;stroke-linejoin:miter;stroke-miterlimit:4;stroke-dasharray:none;stroke-opacity:1"
             id="path42867" /></g></g></g><g
       id="g42869"><g
         id="g42871"
         clip-path="url(#clipPath42875)"><g
           id="g42877"
           clip-path="url(#clipPath42881)"><path
             d="m 101.8175,692.4952 -2.32149,-4.643 -2.32149,4.643 z"
             style="fill:#333333;fill-opacity:1;fill-rule:nonzero;stroke:none"
             id="path42883" /></g></g></g><g
       id="g42885"><g
         id="g42887"
         clip-path="url(#clipPath42891)"><g
           id="g42893"
           transform="matrix(0.5158873,0,0,-0.5158873,6.741089,781.4664)"><path
             d="m 529.5938,130.0025 -47.3985,25.56 v 25"
             style="fill:none;stroke:#333333;stroke-width:1.5;stroke-linecap:butt;stroke-linejoin:miter;stroke-miterlimit:4;stroke-dasharray:none;stroke-opacity:1"
             id="path42895" /></g></g></g><g
       id="g42897"><g
         id="g42899"
         clip-path="url(#clipPath42903)"><g
           id="g42905"
           clip-path="url(#clipPath42909)"><path
             d="m 257.821,692.4952 -2.3215,-4.643 -2.3215,4.643 z"
             style="fill:#333333;fill-opacity:1;fill-rule:nonzero;stroke:none"
             id="path42911" /></g></g></g><g
       id="g42913"><g
         id="g42915"
         clip-path="url(#clipPath42919)"><g
           id="g42921"
           transform="matrix(0.5158873,0,0,-0.5158873,6.741089,781.4664)"><path
             d="m 594.7969,130.0025 47.3984,25.56 v 25"
             style="fill:none;stroke:#333333;stroke-width:1.5;stroke-linecap:butt;stroke-linejoin:miter;stroke-miterlimit:4;stroke-dasharray:none;stroke-opacity:1"
             id="path42923" /></g></g></g><g
       id="g42925"><g
         id="g42927"
         clip-path="url(#clipPath42931)"><g
           id="g42933"
           clip-path="url(#clipPath42937)"><path
             d="m 340.363,692.4952 -2.3215,-4.643 -2.3215,4.643 z"
             style="fill:#333333;fill-opacity:1;fill-rule:nonzero;stroke:none"
             id="path42939" /></g></g></g><g
       id="g42941"><g
         id="g42943"
         clip-path="url(#clipPath42947)"><g
           id="g42949"
           transform="matrix(0.5158873,0,0,-0.5158873,6.741089,781.4664)"><path
             d="m 915.8047,129.3298 -64.1328,26.2327 v 25"
             style="fill:none;stroke:#333333;stroke-width:1.5;stroke-linecap:butt;stroke-linejoin:miter;stroke-miterlimit:4;stroke-dasharray:none;stroke-opacity:1"
             id="path42951" /></g></g></g><g
       id="g42953"><g
         id="g42955"
         clip-path="url(#clipPath42959)"><g
           id="g42961"
           clip-path="url(#clipPath42965)"><path
             d="m 448.4293,692.4952 -2.3215,-4.643 -2.3215,4.643 z"
             style="fill:#333333;fill-opacity:1;fill-rule:nonzero;stroke:none"
             id="path42967" /></g></g></g><g
       id="g42969"><g
         id="g42971"
         clip-path="url(#clipPath42975)"><g
           id="g42977"
           transform="matrix(0.5158873,0,0,-0.5158873,6.741089,781.4664)"><path
             d="m 998.4766,129.3298 64.1324,26.2327 v 25"
             style="fill:none;stroke:#333333;stroke-width:1.5;stroke-linecap:butt;stroke-linejoin:miter;stroke-miterlimit:4;stroke-dasharray:none;stroke-opacity:1"
             id="path42979" /></g></g></g><g
       id="g42981"><g
         id="g42983"
         clip-path="url(#clipPath42987)"><g
           id="g42989"
           clip-path="url(#clipPath42993)"><path
             d="m 557.2492,692.4952 -2.3214,-4.643 -2.3215,4.643 z"
             style="fill:#333333;fill-opacity:1;fill-rule:nonzero;stroke:none"
             id="path42995" /></g></g></g><g
       id="g42997"><g
         id="g42999"
         clip-path="url(#clipPath43003)"><g
           id="g43005"
           transform="matrix(0.5158873,0,0,-0.5158873,6.741089,781.4664)"><path
             d="m 316.9297,130.5625 v 25 25"
             style="fill:none;stroke:#333333;stroke-width:1.5;stroke-linecap:butt;stroke-linejoin:miter;stroke-miterlimit:4;stroke-dasharray:none;stroke-opacity:1"
             id="path43007" /></g></g></g><g
       id="g43009"><g
         id="g43011"
         clip-path="url(#clipPath43015)"><g
           id="g43017"
           clip-path="url(#clipPath43021)"><path
             d="m 172.5626,692.4952 -2.3215,-4.643 -2.3215,4.643 z"
             style="fill:#333333;fill-opacity:1;fill-rule:nonzero;stroke:none"
             id="path43023" /></g></g></g><path
       d="m 248.37154,777.3393 h 104.0642 v -18.717 h -104.0642 z"
       style="fill:#ececff;fill-opacity:1;fill-rule:nonzero;stroke:none"
       id="path43033" /><g
       id="g43035"
       transform="matrix(0.5158873,0,0,-0.5158873,300.40364,767.9808)"
       style="fill:#edfb11;fill-opacity:1;stroke:#000000;stroke-width:2.32609;stroke-miterlimit:4;stroke-dasharray:none;stroke-opacity:1"><path
         d="M -100.8594,-18.14063 H 100.8594 V 18.14062 H -100.8594 Z"
         style="fill:#edfb11;fill-opacity:1;stroke:#000000;stroke-width:2.32609;stroke-linecap:butt;stroke-linejoin:miter;stroke-miterlimit:4;stroke-dasharray:none;stroke-opacity:1"
         id="path43037" /></g><g
       id="g43039"
       transform="matrix(0.8008075,0,0,-0.8008075,253.53044,772.1805)"><text
         style="font-variant:normal;font-weight:normal;font-size:9px;font-family:'Trebuchet MS';-inkscape-font-specification:TrebuchetMS;writing-mode:lr-tb;fill:#333333;fill-opacity:1;fill-rule:nonzero;stroke:none"
         id="text43043"
         transform="translate(0.6442088,9.018924)"><tspan
           x="0 4.1048999 9.0135002 12.5118 17.2404 22.158001 27.066601 30.564899 34.1334 38.4048 41.116501 45.445499 50.274899 55.192501 58.6908 63.146702 68.055298 70.766998 76.853699 81.762299 86.679901 91.588501 95.0868 99.815399 103.3839 105.9507 110.7801"
           y="0"
           sodipodi:role="line"
           id="tspan43041">Terahertz Source Generation</tspan></text></g><path
       d="m 44.93085,732.8279 h 42.96374 v -18.717 H 44.93085 Z"
       style="fill:#edfb11;fill-opacity:1;fill-rule:nonzero;stroke:#000000;stroke-opacity:1;stroke-width:1.20000003;stroke-miterlimit:4;stroke-dasharray:none"
       id="path43045" /><g
       id="g43047"
       transform="matrix(0.5158873,0,0,-0.5158873,66.41272,723.4694)"><path
         d="M -41.64063,-18.14062 H 41.64062 V 18.14062 H -41.64063 Z"
         style="fill:none;stroke:#9370db;stroke-width:1;stroke-linecap:butt;stroke-linejoin:miter;stroke-miterlimit:4;stroke-dasharray:none;stroke-opacity:1"
         id="path43049" /></g><g
       id="g43051"
       transform="matrix(0.8008075,0,0,-0.8008075,50.08973,727.6691)"><text
         transform="translate(0.6442088,9.018924)"
         style="font-variant:normal;font-weight:normal;font-size:9px;font-family:'Trebuchet MS';-inkscape-font-specification:TrebuchetMS;writing-mode:lr-tb;fill:#333333;fill-opacity:1;fill-rule:nonzero;stroke:none"
         id="text43055"><tspan
           x="0 4.8204002 7.4717999 12.3822 16.8426 20.412001 23.909401 28.7388 33.658199 36.2286"
           y="0"
           sodipodi:role="line"
           id="tspan43053">Electronic</tspan></text></g><path
       d="m 150.9961,732.8279 h 38.49 v -18.717 h -38.49 z"
       style="fill:#ececff;fill-opacity:1;fill-rule:nonzero;stroke:none"
       id="path43057" /><g
       id="g43059"
       transform="matrix(0.5158873,0,0,-0.5158873,170.2411,723.4694)"
       style="fill:#edfb11;fill-opacity:1;stroke:#000000;stroke-opacity:1;stroke-width:2.3260895;stroke-miterlimit:4;stroke-dasharray:none"><path
         d="M -37.30469,-18.14062 H 37.30469 V 18.14062 H -37.30469 Z"
         style="fill:#edfb11;stroke:#000000;stroke-width:2.3260895;stroke-linecap:butt;stroke-linejoin:miter;stroke-miterlimit:4;stroke-dasharray:none;stroke-opacity:1;fill-opacity:1"
         id="path43061" /></g><g
       id="g43063"
       transform="matrix(0.8008075,0,0,-0.8008075,156.1549,727.6691)"><text
         transform="translate(0.6442088,9.018924)"
         style="font-variant:normal;font-weight:normal;font-size:9px;font-family:'Trebuchet MS';-inkscape-font-specification:TrebuchetMS;writing-mode:lr-tb;fill:#333333;fill-opacity:1;fill-rule:nonzero;stroke:none"
         id="text43067"><tspan
           x="0 4.5963001 9.5165997 14.3469 17.9172 22.747499 27.667801 30.2391"
           y="0"
           sodipodi:role="line"
           id="tspan43065">Photonic</tspan></text></g><path
       d="m 279.9518,732.8279 h 33.6374 v -18.717 h -33.6374 z"
       style="fill:#ececff;fill-opacity:1;fill-rule:nonzero;stroke:none"
       id="path43069" /><g
       id="g43071"
       transform="matrix(0.5158873,0,0,-0.5158873,296.7705,723.4694)"
       style="fill:#edfb11;fill-opacity:1;stroke:#000000;stroke-opacity:1;stroke-width:2.3260895;stroke-miterlimit:4;stroke-dasharray:none"><path
         d="M -32.60156,-18.14062 H 32.60156 V 18.14062 H -32.60156 Z"
         style="fill:#edfb11;stroke:#000000;stroke-width:2.3260895;stroke-linecap:butt;stroke-linejoin:miter;stroke-miterlimit:4;stroke-dasharray:none;stroke-opacity:1;fill-opacity:1"
         id="path43073" /></g><g
       id="g43075"
       transform="matrix(0.8008075,0,0,-0.8008075,285.1106,727.6691)"><text
         transform="translate(0.6442088,9.018924)"
         style="font-variant:normal;font-weight:normal;font-size:9px;font-family:'Trebuchet MS';-inkscape-font-specification:TrebuchetMS;writing-mode:lr-tb;fill:#333333;fill-opacity:1;fill-rule:nonzero;stroke:none"
         id="text43079"><tspan
           x="0 6.0641999 11.0754 14.6466 17.209801 21.663 26.395201"
           y="0"
           sodipodi:role="line"
           id="tspan43077">Optical</tspan></text></g><path
       d="m 479.1931,732.8279 h 42.6494 v -18.717 h -42.6494 z"
       style="fill:#ececff;fill-opacity:1;fill-rule:nonzero;stroke:none"
       id="path43081" /><g
       id="g43083"
       transform="matrix(0.5158873,0,0,-0.5158873,500.5178,723.4694)"
       style="fill:#edfb11;fill-opacity:1;stroke:#000000;stroke-opacity:1;stroke-width:2.3260895;stroke-miterlimit:4;stroke-dasharray:none"><path
         d="M -41.33594,-18.14062 H 41.33594 V 18.14062 H -41.33594 Z"
         style="fill:#edfb11;stroke:#000000;stroke-width:2.3260895;stroke-linecap:butt;stroke-linejoin:miter;stroke-miterlimit:4;stroke-dasharray:none;stroke-opacity:1;fill-opacity:1"
         id="path43085" /></g><g
       id="g43087"
       transform="matrix(0.8008075,0,0,-0.8008075,484.352,727.6691)"><text
         transform="translate(0.6442088,9.018924)"
         style="font-variant:normal;font-weight:normal;font-size:9px;font-family:'Trebuchet MS';-inkscape-font-specification:TrebuchetMS;writing-mode:lr-tb;fill:#333333;fill-opacity:1;fill-rule:nonzero;stroke:none"
         id="text43091"><tspan
           x="0 5.0184002 7.6697998 12.4002 16.041599 23.517 28.346399 33.2658 35.836201"
           y="0"
           sodipodi:role="line"
           id="tspan43089">Plasmonic</tspan></text></g><path
       d="m 10.86819,688.3165 h 44.92249 v -18.717 H 10.86819 Z"
       style="fill:#ececff;fill-opacity:1;fill-rule:nonzero;stroke:none"
       id="path43093" /><g
       id="g43095"
       transform="matrix(0.5158873,0,0,-0.5158873,33.32944,678.958)"
       style="fill:#edfb11;fill-opacity:1;stroke:#000000;stroke-opacity:1;stroke-width:2.3260895;stroke-miterlimit:4;stroke-dasharray:none"><path
         d="M -43.53906,-18.14063 H 43.53906 V 18.14062 H -43.53906 Z"
         style="fill:#edfb11;stroke:#000000;stroke-width:2.3260895;stroke-linecap:butt;stroke-linejoin:miter;stroke-miterlimit:4;stroke-dasharray:none;stroke-opacity:1;fill-opacity:1"
         id="path43097" /></g><g
       id="g43099"
       transform="matrix(0.8008075,0,0,-0.8008075,16.02706,683.1577)"><text
         transform="translate(0.6442088,9.018924)"
         style="font-variant:normal;font-weight:normal;font-size:9px;font-family:'Trebuchet MS';-inkscape-font-specification:TrebuchetMS;writing-mode:lr-tb;fill:#333333;fill-opacity:1;fill-rule:nonzero;stroke:none"
         id="text43103"><tspan
           x="0 4.329 9.1583996 11.8125 14.3793 19.3932 22.698 26.3412 29.9097 34.638302 38.206799"
           y="0"
           sodipodi:role="line"
           id="tspan43101">Solid-state</tspan></text></g><path
       d="M 81.58505,688.3165 H 117.407 v -18.717 H 81.58505 Z"
       style="fill:#ececff;fill-opacity:1;fill-rule:nonzero;stroke:none"
       id="path43105" /><g
       id="g43107"
       transform="matrix(0.5158873,0,0,-0.5158873,99.49601,678.958)"
       style="fill:#edfb11;fill-opacity:1;stroke:#000000;stroke-opacity:1;stroke-width:2.3260895;stroke-miterlimit:4;stroke-dasharray:none"><path
         d="m -34.71875,-18.14063 h 69.4375 v 36.28125 h -69.4375 z"
         style="fill:#edfb11;stroke:#000000;stroke-width:2.3260895;stroke-linecap:butt;stroke-linejoin:miter;stroke-miterlimit:4;stroke-dasharray:none;stroke-opacity:1;fill-opacity:1"
         id="path43109" /></g><g
       id="g43111"
       transform="matrix(0.8008075,0,0,-0.8008075,86.74392,683.1577)"><text
         transform="translate(0.6442088,9.018924)"
         style="font-variant:normal;font-weight:normal;font-size:9px;font-family:'Trebuchet MS';-inkscape-font-specification:TrebuchetMS;writing-mode:lr-tb;fill:#333333;fill-opacity:1;fill-rule:nonzero;stroke:none"
         id="text43115"><tspan
           x="0 4.5791998 9.3114004 13.7646 18.685801 23.607"
           y="0"
           sodipodi:role="line"
           id="tspan43113">Vacuum</tspan></text></g><path
       d="m 223.0752,688.3165 h 64.8486 v -18.717 h -64.8486 z"
       style="fill:#ececff;fill-opacity:1;fill-rule:nonzero;stroke:none"
       id="path43117" /><g
       id="g43119"
       transform="matrix(0.5158873,0,0,-0.5158873,255.4995,678.958)"
       style="fill:#edfb11;fill-opacity:1;stroke:#000000;stroke-opacity:1;stroke-width:2.3260895;stroke-miterlimit:4;stroke-dasharray:none"><path
         d="M -62.85156,-18.14063 H 62.85156 V 18.14062 H -62.85156 Z"
         style="fill:#edfb11;stroke:#000000;stroke-width:2.3260895;stroke-linecap:butt;stroke-linejoin:miter;stroke-miterlimit:4;stroke-dasharray:none;stroke-opacity:1;fill-opacity:1"
         id="path43121" /></g><g
       id="g43123"
       transform="matrix(0.8008075,0,0,-0.8008075,228.2341,683.1577)"><text
         transform="translate(0.6442088,9.018924)"
         style="font-variant:normal;font-weight:normal;font-size:9px;font-family:'Trebuchet MS';-inkscape-font-specification:TrebuchetMS;writing-mode:lr-tb;fill:#333333;fill-opacity:1;fill-rule:nonzero;stroke:none"
         id="text43127"><tspan
           x="0 5.3829002 10.2078 15.1227 18.687599 21.2535 26.1684 31.0833 35.908199 40.823101 44.469002 47.178902 53.875801 58.6017 63.0126"
           y="0"
           sodipodi:role="line"
           id="tspan43125">Continuous wave</tspan></text></g><path
       d="m 313.7182,688.3165 h 48.6466 v -18.717 h -48.6466 z"
       style="fill:#ececff;fill-opacity:1;fill-rule:nonzero;stroke:none"
       id="path43129" /><g
       id="g43131"
       transform="matrix(0.5158873,0,0,-0.5158873,338.0415,678.958)"
       style="fill:#edfb11;fill-opacity:1;stroke:#000000;stroke-opacity:1;stroke-width:2.3260895;stroke-miterlimit:4;stroke-dasharray:none"><path
         d="M -47.14844,-18.14063 H 47.14844 V 18.14062 H -47.14844 Z"
         style="fill:#edfb11;stroke:#000000;stroke-width:2.3260895;stroke-linecap:butt;stroke-linejoin:miter;stroke-miterlimit:4;stroke-dasharray:none;stroke-opacity:1;fill-opacity:1"
         id="path43133" /></g><g
       id="g43135"
       transform="matrix(0.8008075,0,0,-0.8008075,318.8771,683.1577)"><text
         transform="translate(0.6442088,9.018924)"
         style="font-variant:normal;font-weight:normal;font-size:9px;font-family:'Trebuchet MS';-inkscape-font-specification:TrebuchetMS;writing-mode:lr-tb;fill:#333333;fill-opacity:1;fill-rule:nonzero;stroke:none"
         id="text43139"><tspan
           x="0 5.0184002 9.9378004 12.5892 16.2306 21.141001 24.4494 29.4678 34.1982 37.8396 42.75"
           y="0"
           sodipodi:role="line"
           id="tspan43137">Pulse-based</tspan></text></g><path
       d="m 388.1591,688.3165 h 115.8973 v -18.717 H 388.1591 Z"
       style="fill:#ececff;fill-opacity:1;fill-rule:nonzero;stroke:none"
       id="path43141" /><g
       id="g43143"
       transform="matrix(0.5158873,0,0,-0.5158873,446.1078,678.958)"
       style="fill:#edfb11;fill-opacity:1;stroke:#000000;stroke-opacity:1;stroke-width:2.3260895;stroke-miterlimit:4;stroke-dasharray:none"><path
         d="M -112.3281,-18.14063 H 112.3281 V 18.14062 H -112.3281 Z"
         style="fill:#edfb11;stroke:#000000;stroke-width:2.3260895;stroke-linecap:butt;stroke-linejoin:miter;stroke-miterlimit:4;stroke-dasharray:none;stroke-opacity:1;fill-opacity:1"
         id="path43145" /></g><g
       id="g43147"
       transform="matrix(0.8008075,0,0,-0.8008075,393.318,683.1577)"><text
         transform="translate(0.6442088,9.018924)"
         style="font-variant:normal;font-weight:normal;font-size:9px;font-family:'Trebuchet MS';-inkscape-font-specification:TrebuchetMS;writing-mode:lr-tb;fill:#333333;fill-opacity:1;fill-rule:nonzero;stroke:none"
         id="text43151"><tspan
           x="0 4.329 9.2376003 16.7085 19.275299 23.731199 28.5606 33.478199 38.4921 43.409698 47.865601 51.434101 56.2635 59.761799 62.473499 66.116699 71.034302 74.5326 77.859001 82.587601 87.043503 91.952103 94.663803 99.677696 102.3318 107.0604 110.7036 118.1745 123.0039 127.9215"
           y="0"
           sodipodi:role="line"
           id="tspan43149">Semiconductor surface plasmons</tspan></text></g><path
       d="m 529.8508,688.3165 h 50.1539 v -18.717 h -50.1539 z"
       style="fill:#ececff;fill-opacity:1;fill-rule:nonzero;stroke:none"
       id="path43153" /><g
       id="g43155"
       transform="matrix(0.5158873,0,0,-0.5158873,554.9278,678.958)"
       style="fill:#edfb11;fill-opacity:1;stroke:#000000;stroke-opacity:1;stroke-width:2.3260895;stroke-miterlimit:4;stroke-dasharray:none"><path
         d="M -48.60938,-18.14063 H 48.60937 V 18.14062 H -48.60938 Z"
         style="fill:#edfb11;stroke:#000000;stroke-width:2.3260895;stroke-linecap:butt;stroke-linejoin:miter;stroke-miterlimit:4;stroke-dasharray:none;stroke-opacity:1;fill-opacity:1"
         id="path43157" /></g><g
       id="g43159"
       transform="matrix(0.8008075,0,0,-0.8008075,535.0097,683.1577)"><text
         transform="translate(0.6442088,9.018924)"
         style="font-variant:normal;font-weight:normal;font-size:9px;font-family:'Trebuchet MS';-inkscape-font-specification:TrebuchetMS;writing-mode:lr-tb;fill:#333333;fill-opacity:1;fill-rule:nonzero;stroke:none"
         id="text43163"><tspan
           x="0 4.7196002 10.2402 12.9528 19.3374 24.066 27.6336 32.542198 36.0378 38.6064 43.334999 45.9846"
           y="0"
           sodipodi:role="line"
           id="tspan43161">2D Materials</tspan></text></g><path
       d="m 143.2013,688.3165 h 54.0795 v -18.717 h -54.0795 z"
       style="fill:#ececff;fill-opacity:1;fill-rule:nonzero;stroke:none"
       id="path43165" /><g
       id="g43167"
       transform="matrix(0.5158873,0,0,-0.5158873,170.2411,678.958)"
       style="fill:#edfb11;fill-opacity:1;stroke:#000000;stroke-opacity:1;stroke-width:2.3260895;stroke-miterlimit:4;stroke-dasharray:none"><path
         d="M -52.41406,-18.14063 H 52.41406 V 18.14062 H -52.41406 Z"
         style="fill:#edfb11;stroke:#000000;stroke-width:2.3260895;stroke-linecap:butt;stroke-linejoin:miter;stroke-miterlimit:4;stroke-dasharray:none;stroke-opacity:1;fill-opacity:1"
         id="path43169" /></g><g
       id="g43171"
       transform="matrix(0.8008075,0,0,-0.8008075,148.3602,683.1577)"><text
         transform="translate(0.6442088,9.018924)"
         style="font-variant:normal;font-weight:normal;font-size:9px;font-family:'Trebuchet MS';-inkscape-font-specification:TrebuchetMS;writing-mode:lr-tb;fill:#333333;fill-opacity:1;fill-rule:nonzero;stroke:none"
         id="text43175"><tspan
           x="0 5.3829002 8.8848 13.3227 16.968599 20.533501 25.259399 27.9153 31.2192 36.233101 40.959 44.6049 49.510799"
           y="0"
           sodipodi:role="line"
           id="tspan43173">Crystal-based</tspan></text></g></g></svg>
